%TF.GenerationSoftware,KiCad,Pcbnew,6.0.11+dfsg-1~bpo11+1*%
%TF.CreationDate,2024-03-27T19:00:14-04:00*%
%TF.ProjectId,Module - Adjustable single rail PSU,4d6f6475-6c65-4202-9d20-41646a757374,1.0.0*%
%TF.SameCoordinates,Original*%
%TF.FileFunction,Paste,Top*%
%TF.FilePolarity,Positive*%
%FSLAX46Y46*%
G04 Gerber Fmt 4.6, Leading zero omitted, Abs format (unit mm)*
G04 Created by KiCad (PCBNEW 6.0.11+dfsg-1~bpo11+1) date 2024-03-27 19:00:14*
%MOMM*%
%LPD*%
G01*
G04 APERTURE LIST*
G04 Aperture macros list*
%AMRoundRect*
0 Rectangle with rounded corners*
0 $1 Rounding radius*
0 $2 $3 $4 $5 $6 $7 $8 $9 X,Y pos of 4 corners*
0 Add a 4 corners polygon primitive as box body*
4,1,4,$2,$3,$4,$5,$6,$7,$8,$9,$2,$3,0*
0 Add four circle primitives for the rounded corners*
1,1,$1+$1,$2,$3*
1,1,$1+$1,$4,$5*
1,1,$1+$1,$6,$7*
1,1,$1+$1,$8,$9*
0 Add four rect primitives between the rounded corners*
20,1,$1+$1,$2,$3,$4,$5,0*
20,1,$1+$1,$4,$5,$6,$7,0*
20,1,$1+$1,$6,$7,$8,$9,0*
20,1,$1+$1,$8,$9,$2,$3,0*%
G04 Aperture macros list end*
%ADD10RoundRect,0.225000X-0.017678X0.335876X-0.335876X0.017678X0.017678X-0.335876X0.335876X-0.017678X0*%
%ADD11RoundRect,0.200000X-0.200000X-0.275000X0.200000X-0.275000X0.200000X0.275000X-0.200000X0.275000X0*%
%ADD12RoundRect,0.225000X0.225000X0.250000X-0.225000X0.250000X-0.225000X-0.250000X0.225000X-0.250000X0*%
%ADD13R,5.400000X2.900000*%
%ADD14R,1.730000X1.190000*%
%ADD15RoundRect,0.200000X-0.275000X0.200000X-0.275000X-0.200000X0.275000X-0.200000X0.275000X0.200000X0*%
%ADD16RoundRect,0.218750X0.218750X0.256250X-0.218750X0.256250X-0.218750X-0.256250X0.218750X-0.256250X0*%
%ADD17RoundRect,0.250000X-0.450000X0.262500X-0.450000X-0.262500X0.450000X-0.262500X0.450000X0.262500X0*%
%ADD18R,1.200000X0.900000*%
%ADD19RoundRect,0.250000X1.950000X0.700000X-1.950000X0.700000X-1.950000X-0.700000X1.950000X-0.700000X0*%
%ADD20RoundRect,0.250000X0.275000X-0.275000X0.275000X0.275000X-0.275000X0.275000X-0.275000X-0.275000X0*%
%ADD21RoundRect,0.062500X0.062500X-0.350000X0.062500X0.350000X-0.062500X0.350000X-0.062500X-0.350000X0*%
%ADD22RoundRect,0.062500X0.350000X-0.062500X0.350000X0.062500X-0.350000X0.062500X-0.350000X-0.062500X0*%
%ADD23RoundRect,0.250000X-0.700000X1.950000X-0.700000X-1.950000X0.700000X-1.950000X0.700000X1.950000X0*%
%ADD24RoundRect,0.250000X-0.475000X0.250000X-0.475000X-0.250000X0.475000X-0.250000X0.475000X0.250000X0*%
%ADD25R,4.550000X5.250000*%
%ADD26R,4.600000X1.100000*%
%ADD27R,2.500000X1.800000*%
G04 APERTURE END LIST*
D10*
%TO.C,C2*%
X71620008Y-109639992D03*
X70523992Y-110736008D03*
%TD*%
D11*
%TO.C,R3*%
X75577000Y-107772000D03*
X77227000Y-107772000D03*
%TD*%
D12*
%TO.C,C1*%
X84035000Y-110744000D03*
X82485000Y-110744000D03*
%TD*%
D13*
%TO.C,L1*%
X115062000Y-84204000D03*
X115062000Y-94104000D03*
%TD*%
D14*
%TO.C,F1*%
X62176000Y-90350000D03*
X62176000Y-87450000D03*
%TD*%
D15*
%TO.C,R1*%
X77164000Y-102375000D03*
X77164000Y-104025000D03*
%TD*%
D16*
%TO.C,D3*%
X148869500Y-105156000D03*
X147294500Y-105156000D03*
%TD*%
D15*
%TO.C,R4*%
X79000000Y-109775000D03*
X79000000Y-111425000D03*
%TD*%
D17*
%TO.C,R5*%
X84582000Y-89511500D03*
X84582000Y-91336500D03*
%TD*%
D18*
%TO.C,D2*%
X106934000Y-87758000D03*
X106934000Y-91058000D03*
%TD*%
D19*
%TO.C,C5*%
X113316000Y-105664000D03*
X104616000Y-105664000D03*
%TD*%
D20*
%TO.C,U1*%
X82610000Y-107660000D03*
X82610000Y-106360000D03*
X83910000Y-107660000D03*
X83910000Y-106360000D03*
D21*
X82010000Y-108947500D03*
X82510000Y-108947500D03*
X83010000Y-108947500D03*
X83510000Y-108947500D03*
X84010000Y-108947500D03*
X84510000Y-108947500D03*
D22*
X85197500Y-108260000D03*
X85197500Y-107760000D03*
X85197500Y-107260000D03*
X85197500Y-106760000D03*
X85197500Y-106260000D03*
X85197500Y-105760000D03*
D21*
X84510000Y-105072500D03*
X84010000Y-105072500D03*
X83510000Y-105072500D03*
X83010000Y-105072500D03*
X82510000Y-105072500D03*
X82010000Y-105072500D03*
D22*
X81322500Y-105760000D03*
X81322500Y-106260000D03*
X81322500Y-106760000D03*
X81322500Y-107260000D03*
X81322500Y-107760000D03*
X81322500Y-108260000D03*
%TD*%
D23*
%TO.C,C4*%
X75692000Y-84804000D03*
X75692000Y-93504000D03*
%TD*%
D24*
%TO.C,C3*%
X86614000Y-89474000D03*
X86614000Y-91374000D03*
%TD*%
D11*
%TO.C,R7*%
X144209000Y-105156000D03*
X145859000Y-105156000D03*
%TD*%
D15*
%TO.C,R2*%
X75640000Y-102375000D03*
X75640000Y-104025000D03*
%TD*%
D25*
%TO.C,U2*%
X97978000Y-92437000D03*
X102828000Y-92437000D03*
X97978000Y-86887000D03*
X102828000Y-86887000D03*
D26*
X91253000Y-86262000D03*
X91253000Y-87962000D03*
X91253000Y-89662000D03*
X91253000Y-91362000D03*
X91253000Y-93062000D03*
%TD*%
D27*
%TO.C,D1*%
X66200000Y-84074000D03*
X62200000Y-84074000D03*
%TD*%
D17*
%TO.C,R6*%
X84582000Y-93067500D03*
X84582000Y-94892500D03*
%TD*%
M02*
