M48
; DRILL file {KiCad 6.0.11+dfsg-1~bpo11+1} date Wed 27 Mar 2024 07:00:10 PM
; FORMAT={-:-/ absolute / inch / decimal}
; #@! TF.CreationDate,2024-03-27T19:00:10-04:00
; #@! TF.GenerationSoftware,Kicad,Pcbnew,6.0.11+dfsg-1~bpo11+1
; #@! TF.FileFunction,Plated,1,2,PTH
FMAT,2
INCH
; #@! TA.AperFunction,Plated,PTH,ViaDrill
T1C0.0157
; #@! TA.AperFunction,Plated,PTH,ComponentDrill
T2C0.0197
; #@! TA.AperFunction,Plated,PTH,ViaDrill
T3C0.0236
; #@! TA.AperFunction,Plated,PTH,ViaDrill
T4C0.0315
; #@! TA.AperFunction,Plated,PTH,ComponentDrill
T5C0.0394
%
G90
G05
T1
X2.3031Y-3.8677
X2.3031Y-3.9071
X2.3031Y-3.9669
X2.3031Y-4.0063
X2.938Y-4.0955
X3.0755Y-4.0955
X3.0854Y-4.1578
X3.0976Y-4.1825
X3.1169Y-4.2021
X3.138Y-4.2199
X3.1606Y-4.2651
X3.1813Y-4.2893
X3.2Y-4.3215
X3.2474Y-4.3583
X3.36Y-4.3202
X3.37Y-3.5241
X3.38Y-4.293
X3.41Y-4.27
X3.43Y-4.25
T2
X2.4016Y-3.7008
X2.4016Y-4.1732
X2.7165Y-3.3071
X2.7165Y-3.937
X2.7165Y-4.0157
X2.7165Y-4.0945
X2.7165Y-4.1732
X3.0315Y-4.4882
X3.1102Y-3.937
X3.1102Y-4.4882
X3.189Y-3.937
X3.189Y-4.4882
X3.2677Y-3.937
X3.3465Y-3.937
X3.3465Y-4.4882
X3.4252Y-3.937
X3.4252Y-4.4882
X3.43Y-3.67
X3.5039Y-3.937
X3.5039Y-4.4882
X3.5827Y-3.937
X3.5827Y-4.4882
X3.7402Y-3.937
X3.7402Y-4.0157
X3.7402Y-4.0945
X3.7402Y-4.1732
X3.7402Y-4.252
X3.7402Y-4.3307
X3.7402Y-4.4094
X3.7402Y-4.4882
X4.21Y-3.27
X4.3583Y-3.84
T3
X3.2425Y-4.1811
X3.2425Y-4.248
X3.278Y-4.213
X3.3134Y-4.1811
X3.3134Y-4.248
T4
X2.3228Y-3.7795
X2.3228Y-4.0945
X2.4803Y-3.7795
X2.4803Y-4.0945
X2.58Y-3.55
X2.58Y-3.78
X2.7575Y-4.685
X2.9134Y-4.685
X3.73Y-4.685
X3.83Y-3.38
X3.83Y-3.68
X3.96Y-3.53
X4.09Y-3.39
X4.09Y-3.68
X5.8268Y-4.685
T5
G00X5.4252Y-4.4488
M15
G01X5.4252Y-4.3701
M16
G05
G00X5.6614Y-4.435
M15
G01X5.6614Y-4.3839
M16
G05
G00X5.6713Y-4.2323
M15
G01X5.7303Y-4.2323
M16
G05
G00X5.6713Y-4.5866
M15
G01X5.7303Y-4.5866
M16
G05
T0
M30
