%TF.GenerationSoftware,KiCad,Pcbnew,6.0.11+dfsg-1~bpo11+1*%
%TF.CreationDate,2024-03-27T19:00:14-04:00*%
%TF.ProjectId,Module - Adjustable single rail PSU,4d6f6475-6c65-4202-9d20-41646a757374,1.0.0*%
%TF.SameCoordinates,Original*%
%TF.FileFunction,Legend,Bot*%
%TF.FilePolarity,Positive*%
%FSLAX46Y46*%
G04 Gerber Fmt 4.6, Leading zero omitted, Abs format (unit mm)*
G04 Created by KiCad (PCBNEW 6.0.11+dfsg-1~bpo11+1) date 2024-03-27 19:00:14*
%MOMM*%
%LPD*%
G01*
G04 APERTURE LIST*
%ADD10C,0.150000*%
G04 APERTURE END LIST*
D10*
X85188417Y-91804374D02*
X84764152Y-91380110D01*
X84703543Y-91723562D02*
X84986386Y-92006405D01*
X84743949Y-91763968D02*
X84703543Y-91763968D01*
X84642934Y-91784171D01*
X84582325Y-91844781D01*
X84562122Y-91905390D01*
X84582325Y-91965999D01*
X84804559Y-92188232D01*
X84077249Y-92875136D02*
X84137858Y-92854933D01*
X84218670Y-92774121D01*
X84238873Y-92713512D01*
X84238873Y-92673106D01*
X84218670Y-92612496D01*
X84097452Y-92491278D01*
X84036843Y-92471075D01*
X83996437Y-92471075D01*
X83935827Y-92491278D01*
X83855015Y-92572090D01*
X83834812Y-92632700D01*
X83733797Y-93258994D02*
X83511563Y-93036761D01*
X83491360Y-92976151D01*
X83511563Y-92915542D01*
X83592375Y-92834730D01*
X83652985Y-92814527D01*
X83713594Y-93238791D02*
X83774203Y-93218588D01*
X83875218Y-93117573D01*
X83895421Y-93056964D01*
X83875218Y-92996354D01*
X83834812Y-92955948D01*
X83774203Y-92935745D01*
X83713594Y-92955948D01*
X83612579Y-93056964D01*
X83551969Y-93077167D01*
X83531766Y-93420619D02*
X83511563Y-93481228D01*
X83430751Y-93562040D01*
X83370142Y-93582243D01*
X83309533Y-93562040D01*
X83289330Y-93541837D01*
X83269127Y-93481228D01*
X83289330Y-93420619D01*
X83349939Y-93360009D01*
X83370142Y-93299400D01*
X83349939Y-93238791D01*
X83329736Y-93218588D01*
X83269127Y-93198385D01*
X83208518Y-93218588D01*
X83147908Y-93279197D01*
X83127705Y-93339806D01*
X83006487Y-93945898D02*
X83067096Y-93925695D01*
X83147908Y-93844883D01*
X83168111Y-93784273D01*
X83147908Y-93723664D01*
X82986284Y-93562040D01*
X82925675Y-93541837D01*
X82865066Y-93562040D01*
X82784253Y-93642852D01*
X82764050Y-93703461D01*
X82784253Y-93764070D01*
X82824660Y-93804476D01*
X83067096Y-93642852D01*
X82440802Y-94551989D02*
X82461005Y-94491380D01*
X82461005Y-94450974D01*
X82440802Y-94390365D01*
X82319583Y-94269147D01*
X82258974Y-94248944D01*
X82218568Y-94248944D01*
X82157959Y-94269147D01*
X82097350Y-94329756D01*
X82077147Y-94390365D01*
X82077147Y-94430771D01*
X82097350Y-94491380D01*
X82218568Y-94612599D01*
X82279177Y-94632802D01*
X82319583Y-94632802D01*
X82380192Y-94612599D01*
X82440802Y-94551989D01*
X81895319Y-94531786D02*
X81733695Y-94693411D01*
X82117553Y-94875238D02*
X81753898Y-94511583D01*
X81693289Y-94491380D01*
X81632680Y-94511583D01*
X81592273Y-94551989D01*
X81370040Y-95582345D02*
X81430649Y-95562142D01*
X81511461Y-95481330D01*
X81531664Y-95420721D01*
X81511461Y-95360111D01*
X81349837Y-95198487D01*
X81289228Y-95178284D01*
X81228619Y-95198487D01*
X81147806Y-95279299D01*
X81127603Y-95339908D01*
X81147806Y-95400518D01*
X81188212Y-95440924D01*
X81430649Y-95279299D01*
X81188212Y-95804579D02*
X80905370Y-95521736D01*
X80986182Y-95602548D02*
X80925573Y-95582345D01*
X80885167Y-95582345D01*
X80824558Y-95602548D01*
X80784151Y-95642954D01*
X80925573Y-96067218D02*
X80642730Y-95784375D01*
X80723542Y-95865188D02*
X80662933Y-95844985D01*
X80622527Y-95844985D01*
X80561918Y-95865188D01*
X80521512Y-95905594D01*
X80602324Y-96390467D02*
X80622527Y-96329858D01*
X80622527Y-96289452D01*
X80602324Y-96228843D01*
X80481106Y-96107624D01*
X80420496Y-96087421D01*
X80380090Y-96087421D01*
X80319481Y-96107624D01*
X80258872Y-96168233D01*
X80238669Y-96228843D01*
X80238669Y-96269249D01*
X80258872Y-96329858D01*
X80380090Y-96451076D01*
X80440700Y-96471279D01*
X80481106Y-96471279D01*
X80541715Y-96451076D01*
X80602324Y-96390467D01*
X80279075Y-96713716D02*
X79996232Y-96430873D01*
X80077045Y-96511685D02*
X80016435Y-96491482D01*
X79976029Y-96491482D01*
X79915420Y-96511685D01*
X79875014Y-96552091D01*
X79976029Y-96935949D02*
X79976029Y-96976355D01*
X80016435Y-96976355D01*
X80016435Y-96935949D01*
X79976029Y-96935949D01*
X80016435Y-96976355D01*
X79773999Y-97137980D02*
X79773999Y-97178386D01*
X79814405Y-97178386D01*
X79814405Y-97137980D01*
X79773999Y-97137980D01*
X79814405Y-97178386D01*
X79571968Y-97340010D02*
X79571968Y-97380417D01*
X79612374Y-97380417D01*
X79612374Y-97340010D01*
X79571968Y-97340010D01*
X79612374Y-97380417D01*
X85820974Y-92457135D02*
X85861380Y-92457135D01*
X85942192Y-92416729D01*
X85982598Y-92376323D01*
X86023004Y-92295510D01*
X86023004Y-92214698D01*
X86002801Y-92154089D01*
X85942192Y-92053074D01*
X85881583Y-91992465D01*
X85780568Y-91931856D01*
X85719959Y-91911653D01*
X85639146Y-91911653D01*
X85558334Y-91952059D01*
X85517928Y-91992465D01*
X85477522Y-92073277D01*
X85477522Y-92113683D01*
X85214882Y-92578353D02*
X85497725Y-92861196D01*
X85396710Y-92396526D02*
X85618943Y-92618759D01*
X85639146Y-92679368D01*
X85618943Y-92739978D01*
X85558334Y-92800587D01*
X85497725Y-92820790D01*
X85457319Y-92820790D01*
X85073461Y-92719775D02*
X84911837Y-92881399D01*
X84871430Y-92638962D02*
X85235085Y-93002617D01*
X85255288Y-93063226D01*
X85235085Y-93123836D01*
X85194679Y-93164242D01*
X84507776Y-93285460D02*
X84346151Y-93447084D01*
X84305745Y-93204648D02*
X84669400Y-93568303D01*
X84689603Y-93628912D01*
X84669400Y-93689521D01*
X84628994Y-93729927D01*
X84487573Y-93871348D02*
X84204730Y-93588506D01*
X84285542Y-93669318D02*
X84224933Y-93649115D01*
X84184527Y-93649115D01*
X84123918Y-93669318D01*
X84083512Y-93709724D01*
X84043105Y-94315816D02*
X83820872Y-94093582D01*
X83800669Y-94032973D01*
X83820872Y-93972364D01*
X83901684Y-93891551D01*
X83962293Y-93871348D01*
X84022902Y-94295613D02*
X84083512Y-94275409D01*
X84184527Y-94174394D01*
X84204730Y-94113785D01*
X84184527Y-94053176D01*
X84144121Y-94012770D01*
X84083512Y-93992567D01*
X84022902Y-94012770D01*
X83921887Y-94113785D01*
X83861278Y-94133988D01*
X83639044Y-94679470D02*
X83699654Y-94659267D01*
X83780466Y-94578455D01*
X83800669Y-94517846D01*
X83800669Y-94477440D01*
X83780466Y-94416831D01*
X83659247Y-94295613D01*
X83598638Y-94275409D01*
X83558232Y-94275409D01*
X83497623Y-94295613D01*
X83416811Y-94376425D01*
X83396608Y-94437034D01*
X83477420Y-94881501D02*
X83053156Y-94457237D01*
X83275389Y-94760283D02*
X83315796Y-95043125D01*
X83032953Y-94760283D02*
X83356202Y-94760283D01*
X82467267Y-95891654D02*
X82487470Y-95871450D01*
X82507674Y-95810841D01*
X82507674Y-95689623D01*
X82487470Y-95467389D01*
X82467267Y-95366374D01*
X82426861Y-95285562D01*
X82386455Y-95245156D01*
X82325846Y-95224953D01*
X82265237Y-95245156D01*
X82245034Y-95265359D01*
X82224831Y-95325968D01*
X82245034Y-95386577D01*
X82265237Y-95406780D01*
X82325846Y-95426983D01*
X82366252Y-95426983D01*
X82568283Y-95386577D01*
X82608689Y-95386577D01*
X82669298Y-95406780D01*
X82729907Y-95467389D01*
X82750110Y-95527999D01*
X82750110Y-95568405D01*
X82729907Y-95629014D01*
X82669298Y-95689623D01*
X82608689Y-95709826D01*
X82568283Y-95709826D01*
X82426861Y-95689623D01*
X82346049Y-95649217D01*
X82305643Y-95608811D01*
X81962191Y-96396730D02*
X81537927Y-95972466D01*
X81699551Y-96134090D02*
X81638942Y-96154293D01*
X81558130Y-96235105D01*
X81537927Y-96295715D01*
X81537927Y-96336121D01*
X81558130Y-96396730D01*
X81679348Y-96517948D01*
X81739958Y-96538151D01*
X81780364Y-96538151D01*
X81840973Y-96517948D01*
X81921785Y-96437136D01*
X81941988Y-96376527D01*
X81517724Y-96841197D02*
X81537927Y-96780588D01*
X81537927Y-96740182D01*
X81517724Y-96679573D01*
X81396506Y-96558354D01*
X81335897Y-96538151D01*
X81295490Y-96538151D01*
X81234881Y-96558354D01*
X81174272Y-96618963D01*
X81154069Y-96679573D01*
X81154069Y-96719979D01*
X81174272Y-96780588D01*
X81295490Y-96901806D01*
X81356100Y-96922009D01*
X81396506Y-96922009D01*
X81457115Y-96901806D01*
X81517724Y-96841197D01*
X81012648Y-97346273D02*
X80588384Y-96922009D01*
X80992445Y-97326070D02*
X81053054Y-97305867D01*
X81133866Y-97225055D01*
X81154069Y-97164446D01*
X81154069Y-97124040D01*
X81133866Y-97063430D01*
X81012648Y-96942212D01*
X80952039Y-96922009D01*
X80911633Y-96922009D01*
X80851023Y-96942212D01*
X80770211Y-97023024D01*
X80750008Y-97083634D01*
X80345947Y-97447288D02*
X80689399Y-97790740D01*
X80750008Y-97810943D01*
X80790414Y-97810943D01*
X80851023Y-97790740D01*
X80911633Y-97730131D01*
X80931836Y-97669522D01*
X80608587Y-97709928D02*
X80669196Y-97689725D01*
X80750008Y-97608913D01*
X80770211Y-97548304D01*
X80770211Y-97507898D01*
X80750008Y-97447288D01*
X80628790Y-97326070D01*
X80568181Y-97305867D01*
X80527775Y-97305867D01*
X80467165Y-97326070D01*
X80386353Y-97406882D01*
X80366150Y-97467492D01*
X80244932Y-98073583D02*
X80305541Y-98053380D01*
X80386353Y-97972568D01*
X80406556Y-97911959D01*
X80386353Y-97851349D01*
X80224729Y-97689725D01*
X80164120Y-97669522D01*
X80103510Y-97689725D01*
X80022698Y-97770537D01*
X80002495Y-97831146D01*
X80022698Y-97891756D01*
X80063104Y-97932162D01*
X80305541Y-97770537D01*
X80022698Y-98255410D02*
X80022698Y-98295817D01*
X80063104Y-98295817D01*
X80063104Y-98255410D01*
X80022698Y-98255410D01*
X80063104Y-98295817D01*
%TO.C,G\u002A\u002A\u002A*%
G36*
X59911970Y-100108209D02*
G01*
X59940000Y-100142360D01*
X59938960Y-100146352D01*
X59900000Y-100160000D01*
X59889036Y-100158372D01*
X59860000Y-100117639D01*
X59863140Y-100103171D01*
X59900000Y-100100000D01*
X59911970Y-100108209D01*
G37*
G36*
X61336842Y-99536666D02*
G01*
X61334013Y-99577237D01*
X61315833Y-99589166D01*
X61307906Y-99575015D01*
X61312675Y-99512500D01*
X61327073Y-99493985D01*
X61336842Y-99536666D01*
G37*
G36*
X61900000Y-101140000D02*
G01*
X61880000Y-101160000D01*
X61860000Y-101140000D01*
X61880000Y-101120000D01*
X61900000Y-101140000D01*
G37*
G36*
X62521123Y-98270348D02*
G01*
X62604027Y-98257333D01*
X62678022Y-98255929D01*
X62735104Y-98264657D01*
X62771730Y-98237663D01*
X62787456Y-98150123D01*
X62796891Y-98087758D01*
X62833336Y-98028986D01*
X62916528Y-98006713D01*
X63033057Y-97993427D01*
X63006528Y-99263236D01*
X63005724Y-99302085D01*
X62998880Y-99660598D01*
X62992733Y-100031227D01*
X62987528Y-100395552D01*
X62983508Y-100735155D01*
X62980917Y-101031618D01*
X62980000Y-101266523D01*
X62980000Y-102000000D01*
X62880000Y-102000000D01*
X62861405Y-101999708D01*
X62807564Y-101986381D01*
X62784714Y-101937130D01*
X62779931Y-101830000D01*
X62779863Y-101660000D01*
X62554665Y-101652083D01*
X62356979Y-101634856D01*
X62102605Y-101590448D01*
X61837822Y-101524898D01*
X61577585Y-101443461D01*
X61336850Y-101351394D01*
X61130571Y-101253951D01*
X60973704Y-101156390D01*
X60881203Y-101063965D01*
X60858751Y-101013776D01*
X60825702Y-100893942D01*
X60801613Y-100752052D01*
X60774756Y-100524104D01*
X60667378Y-100569649D01*
X60611184Y-100594332D01*
X60537923Y-100639415D01*
X60517505Y-100693467D01*
X60534549Y-100780958D01*
X60541752Y-100816472D01*
X60537495Y-100953967D01*
X60496339Y-101098883D01*
X60428766Y-101229404D01*
X60345260Y-101323715D01*
X60256303Y-101360000D01*
X60237992Y-101329030D01*
X60211170Y-101238776D01*
X60183053Y-101110000D01*
X60182215Y-101105584D01*
X60133518Y-100875111D01*
X60088268Y-100718147D01*
X60044233Y-100628505D01*
X59999184Y-100600000D01*
X59989286Y-100599078D01*
X59911674Y-100572716D01*
X59847728Y-100540000D01*
X60500000Y-100540000D01*
X60520000Y-100560000D01*
X60540000Y-100540000D01*
X60520000Y-100520000D01*
X60500000Y-100540000D01*
X59847728Y-100540000D01*
X59811244Y-100521334D01*
X59809254Y-100520172D01*
X59743101Y-100490901D01*
X60605245Y-100490901D01*
X60614531Y-100511510D01*
X60640113Y-100514935D01*
X60709262Y-100486737D01*
X60711118Y-100484852D01*
X60718541Y-100460162D01*
X60656793Y-100469248D01*
X60605245Y-100490901D01*
X59743101Y-100490901D01*
X59700889Y-100472223D01*
X59650470Y-100455747D01*
X60813119Y-100455747D01*
X60835870Y-100499104D01*
X60861135Y-100601301D01*
X60881212Y-100737535D01*
X60890321Y-100812080D01*
X60917876Y-100938933D01*
X60967504Y-101036070D01*
X61052322Y-101118178D01*
X61185448Y-101199947D01*
X61380000Y-101296067D01*
X61446053Y-101324600D01*
X61618708Y-101385480D01*
X61823275Y-101444805D01*
X62041768Y-101498672D01*
X62256201Y-101543177D01*
X62448590Y-101574418D01*
X62600948Y-101588491D01*
X62695289Y-101581495D01*
X62754513Y-101541185D01*
X62813929Y-101457349D01*
X62835017Y-101399927D01*
X62857673Y-101279261D01*
X62858843Y-101162694D01*
X62839345Y-101074762D01*
X62800000Y-101040000D01*
X62770037Y-101031302D01*
X62740000Y-100975336D01*
X62739393Y-100963400D01*
X62711817Y-100927817D01*
X62630000Y-100933205D01*
X62522222Y-100951052D01*
X62368854Y-100970694D01*
X62189482Y-100990170D01*
X62001681Y-101007936D01*
X61823023Y-101022446D01*
X61671084Y-101032156D01*
X61563438Y-101035520D01*
X61517660Y-101030993D01*
X61480741Y-100959417D01*
X61447600Y-100817666D01*
X61422203Y-100623247D01*
X61404795Y-100390255D01*
X61395622Y-100132788D01*
X61395226Y-99980000D01*
X62060000Y-99980000D01*
X62066969Y-100007981D01*
X62120000Y-100040000D01*
X62137180Y-100038658D01*
X62178812Y-100005213D01*
X62153333Y-99946666D01*
X62139685Y-99934839D01*
X62084365Y-99924909D01*
X62060000Y-99980000D01*
X61395226Y-99980000D01*
X61394928Y-99864940D01*
X61402959Y-99600808D01*
X61419960Y-99354488D01*
X61446176Y-99140076D01*
X61481851Y-98971669D01*
X61482576Y-98947362D01*
X61455124Y-98990000D01*
X61409663Y-99047979D01*
X61343887Y-99080612D01*
X61339308Y-99080670D01*
X61302025Y-99088240D01*
X61338151Y-99118011D01*
X61358939Y-99133261D01*
X61375349Y-99176687D01*
X61343433Y-99253584D01*
X61314848Y-99332033D01*
X61317642Y-99396185D01*
X61322869Y-99419194D01*
X61282360Y-99440000D01*
X61279623Y-99440038D01*
X61228447Y-99468184D01*
X61228441Y-99530433D01*
X61280000Y-99600000D01*
X61285299Y-99604929D01*
X61324514Y-99685314D01*
X61340000Y-99803870D01*
X61335925Y-99881719D01*
X61305342Y-99960610D01*
X61230000Y-100015764D01*
X61148389Y-100069564D01*
X61047585Y-100154294D01*
X60948734Y-100251027D01*
X60866758Y-100344013D01*
X60816579Y-100417502D01*
X60813119Y-100455747D01*
X59650470Y-100455747D01*
X59547124Y-100421975D01*
X59380567Y-100380119D01*
X59354373Y-100374511D01*
X59213235Y-100340703D01*
X59108642Y-100309729D01*
X59061609Y-100287681D01*
X59060089Y-100285686D01*
X58990942Y-100238147D01*
X58865508Y-100184012D01*
X58796697Y-100160547D01*
X59760000Y-100160547D01*
X59765007Y-100244266D01*
X59794341Y-100291287D01*
X59866319Y-100303985D01*
X59928304Y-100296610D01*
X60004011Y-100243065D01*
X60024090Y-100158299D01*
X59977273Y-100066438D01*
X59930815Y-100026855D01*
X59845159Y-100002434D01*
X59783600Y-100049000D01*
X59760000Y-100160547D01*
X58796697Y-100160547D01*
X58705405Y-100129416D01*
X58532250Y-100080495D01*
X58367658Y-100043382D01*
X58233248Y-100024215D01*
X58150635Y-100029128D01*
X58119273Y-100026351D01*
X58100000Y-99967381D01*
X58103759Y-99957639D01*
X60500000Y-99957639D01*
X60501537Y-99969249D01*
X60520000Y-99984010D01*
X60540000Y-100000000D01*
X60549052Y-99999541D01*
X60580000Y-99982360D01*
X60578159Y-99975944D01*
X60540000Y-99940000D01*
X60524505Y-99933749D01*
X60500000Y-99957639D01*
X58103759Y-99957639D01*
X58122728Y-99908478D01*
X58210212Y-99853554D01*
X58367762Y-99812489D01*
X58600000Y-99783584D01*
X58701012Y-99772572D01*
X58867326Y-99746720D01*
X59000000Y-99717348D01*
X59015406Y-99713060D01*
X59166587Y-99677284D01*
X59310000Y-99651708D01*
X59330469Y-99648550D01*
X59946206Y-99648550D01*
X59952426Y-99750000D01*
X59956166Y-99761349D01*
X59966549Y-99752772D01*
X59970066Y-99691391D01*
X60587834Y-99691391D01*
X60594685Y-99750310D01*
X60680000Y-99807278D01*
X60750640Y-99859099D01*
X60777188Y-99956420D01*
X60776328Y-99978399D01*
X60767338Y-100023295D01*
X60747188Y-99993652D01*
X60728401Y-99974054D01*
X60698275Y-100012163D01*
X60656939Y-100123652D01*
X60649330Y-100147759D01*
X60619691Y-100264931D01*
X60626568Y-100311377D01*
X60671605Y-100288307D01*
X60718541Y-100237754D01*
X60756444Y-100196930D01*
X60784788Y-100160633D01*
X60851853Y-100015465D01*
X60839327Y-99877344D01*
X60747226Y-99746923D01*
X60723277Y-99725136D01*
X60650068Y-99673418D01*
X60607226Y-99666106D01*
X60587834Y-99691391D01*
X59970066Y-99691391D01*
X59970719Y-99680000D01*
X59970333Y-99652860D01*
X59964020Y-99597550D01*
X59952426Y-99610000D01*
X59946206Y-99648550D01*
X59330469Y-99648550D01*
X59337249Y-99647504D01*
X59424728Y-99624488D01*
X59460000Y-99598494D01*
X59480979Y-99570246D01*
X59549620Y-99536238D01*
X59630158Y-99520780D01*
X59657759Y-99512485D01*
X59695943Y-99495631D01*
X60026284Y-99495631D01*
X60035833Y-99549166D01*
X60049487Y-99548547D01*
X60056842Y-99496666D01*
X60050436Y-99457348D01*
X60032675Y-99472500D01*
X60026284Y-99495631D01*
X59695943Y-99495631D01*
X59741301Y-99475610D01*
X59845159Y-99423742D01*
X59854139Y-99419257D01*
X59944659Y-99365902D01*
X59964020Y-99348395D01*
X59973304Y-99340000D01*
X60340000Y-99340000D01*
X60360000Y-99360000D01*
X60380000Y-99340000D01*
X60360000Y-99320000D01*
X60340000Y-99340000D01*
X59973304Y-99340000D01*
X60027407Y-99291076D01*
X60050436Y-99250917D01*
X60085068Y-99190523D01*
X60089425Y-99175631D01*
X60346284Y-99175631D01*
X60355833Y-99229166D01*
X60360000Y-99228977D01*
X60369487Y-99228547D01*
X60376842Y-99176666D01*
X60370436Y-99137348D01*
X60352675Y-99152500D01*
X60346284Y-99175631D01*
X60089425Y-99175631D01*
X60127295Y-99046185D01*
X60132066Y-99019196D01*
X60388546Y-99019196D01*
X60393333Y-99066666D01*
X60405364Y-99072924D01*
X60420000Y-99040000D01*
X60417113Y-99018824D01*
X60393333Y-99013333D01*
X60388546Y-99019196D01*
X60132066Y-99019196D01*
X60163742Y-98840000D01*
X60177233Y-98760822D01*
X60216395Y-98619756D01*
X60269422Y-98543120D01*
X60342407Y-98519999D01*
X60350257Y-98520236D01*
X60370436Y-98530794D01*
X60393333Y-98542775D01*
X60412411Y-98552757D01*
X60449450Y-98650000D01*
X60451255Y-98658630D01*
X60468303Y-98750940D01*
X60473334Y-98800000D01*
X60468764Y-98836518D01*
X60457851Y-98932992D01*
X60443495Y-99064722D01*
X60438740Y-99109353D01*
X60429381Y-99225283D01*
X60436946Y-99287541D01*
X60467875Y-99316348D01*
X60524505Y-99330868D01*
X60528610Y-99331920D01*
X60607226Y-99350395D01*
X60616976Y-99352686D01*
X60705290Y-99379671D01*
X60727692Y-99384566D01*
X60760151Y-99363569D01*
X60786868Y-99291503D01*
X60814764Y-99154109D01*
X60835067Y-99052705D01*
X60879329Y-98921899D01*
X60943536Y-98837549D01*
X61660000Y-98837549D01*
X61670072Y-98880187D01*
X61722906Y-98916754D01*
X61837499Y-98941715D01*
X61887005Y-98948410D01*
X61991746Y-98957262D01*
X62049375Y-98954166D01*
X62053160Y-98951715D01*
X62060091Y-98903300D01*
X62041802Y-98825005D01*
X62037678Y-98815685D01*
X62152826Y-98815685D01*
X62174251Y-98901686D01*
X62250000Y-98964396D01*
X62260098Y-98968033D01*
X62313573Y-98977786D01*
X62335664Y-98943285D01*
X62336709Y-98920000D01*
X62425511Y-98920000D01*
X62428608Y-98977462D01*
X62437833Y-98975807D01*
X62459146Y-98900000D01*
X62487186Y-98798464D01*
X62517814Y-98700000D01*
X62522681Y-98685069D01*
X62521123Y-98666761D01*
X62484180Y-98720000D01*
X62444678Y-98810024D01*
X62425511Y-98920000D01*
X62336709Y-98920000D01*
X62340000Y-98846711D01*
X62340297Y-98825148D01*
X62350271Y-98719853D01*
X62370000Y-98656406D01*
X62374126Y-98650142D01*
X62352611Y-98669844D01*
X62293711Y-98732449D01*
X62284166Y-98742795D01*
X62219203Y-98806662D01*
X62185822Y-98815171D01*
X62166538Y-98774043D01*
X62164694Y-98767869D01*
X62153501Y-98757076D01*
X62152826Y-98815685D01*
X62037678Y-98815685D01*
X62009561Y-98752135D01*
X61974639Y-98720000D01*
X61947134Y-98727753D01*
X61918504Y-98773117D01*
X61939347Y-98819596D01*
X61950759Y-98828278D01*
X61980000Y-98885084D01*
X61978313Y-98890735D01*
X61938973Y-98886590D01*
X61863825Y-98842723D01*
X61841916Y-98827452D01*
X61737365Y-98770003D01*
X61678469Y-98773413D01*
X61660000Y-98837549D01*
X60943536Y-98837549D01*
X60950239Y-98828743D01*
X61064797Y-98754264D01*
X61240000Y-98679490D01*
X61287910Y-98660000D01*
X62180000Y-98660000D01*
X62200000Y-98680000D01*
X62220000Y-98660000D01*
X62200000Y-98640000D01*
X62180000Y-98660000D01*
X61287910Y-98660000D01*
X61356336Y-98632164D01*
X61472205Y-98579215D01*
X61482576Y-98573364D01*
X61540000Y-98540964D01*
X61542564Y-98539081D01*
X61619632Y-98502960D01*
X61753176Y-98457543D01*
X61924224Y-98407582D01*
X61974639Y-98394351D01*
X62084365Y-98365554D01*
X62113805Y-98357828D01*
X62200000Y-98337415D01*
X62302947Y-98313035D01*
X62374126Y-98298323D01*
X62472678Y-98277953D01*
X62521123Y-98270348D01*
G37*
G36*
X61340000Y-100500000D02*
G01*
X61320000Y-100520000D01*
X61300000Y-100500000D01*
X61320000Y-100480000D01*
X61340000Y-100500000D01*
G37*
G36*
X61420000Y-100980000D02*
G01*
X61400000Y-101000000D01*
X61380000Y-100980000D01*
X61400000Y-100960000D01*
X61420000Y-100980000D01*
G37*
G36*
X61260000Y-100980000D02*
G01*
X61240000Y-101000000D01*
X61220000Y-100980000D01*
X61240000Y-100960000D01*
X61260000Y-100980000D01*
G37*
G36*
X59860000Y-100240000D02*
G01*
X59857113Y-100261175D01*
X59833333Y-100266666D01*
X59828546Y-100260803D01*
X59833333Y-100213333D01*
X59845364Y-100207075D01*
X59860000Y-100240000D01*
G37*
%TD*%
M02*
