%TF.GenerationSoftware,KiCad,Pcbnew,6.0.11+dfsg-1~bpo11+1*%
%TF.CreationDate,2024-03-27T19:00:14-04:00*%
%TF.ProjectId,Module - Adjustable single rail PSU,4d6f6475-6c65-4202-9d20-41646a757374,1.0.0*%
%TF.SameCoordinates,Original*%
%TF.FileFunction,Legend,Top*%
%TF.FilePolarity,Positive*%
%FSLAX46Y46*%
G04 Gerber Fmt 4.6, Leading zero omitted, Abs format (unit mm)*
G04 Created by KiCad (PCBNEW 6.0.11+dfsg-1~bpo11+1) date 2024-03-27 19:00:14*
%MOMM*%
%LPD*%
G01*
G04 APERTURE LIST*
%ADD10C,0.100000*%
%ADD11C,0.150000*%
%ADD12C,0.120000*%
%ADD13C,0.080000*%
G04 APERTURE END LIST*
D10*
X60000000Y-82000000D02*
X149000000Y-82000000D01*
X75000000Y-118000000D02*
X149000000Y-118000000D01*
D11*
X62668928Y-80928571D02*
X62811785Y-80976190D01*
X62859404Y-81023809D01*
X62907023Y-81119047D01*
X62907023Y-81261904D01*
X62859404Y-81357142D01*
X62811785Y-81404761D01*
X62716547Y-81452380D01*
X62335595Y-81452380D01*
X62335595Y-80452380D01*
X62668928Y-80452380D01*
X62764166Y-80500000D01*
X62811785Y-80547619D01*
X62859404Y-80642857D01*
X62859404Y-80738095D01*
X62811785Y-80833333D01*
X62764166Y-80880952D01*
X62668928Y-80928571D01*
X62335595Y-80928571D01*
X63716547Y-81404761D02*
X63621309Y-81452380D01*
X63430833Y-81452380D01*
X63335595Y-81404761D01*
X63287976Y-81309523D01*
X63287976Y-80928571D01*
X63335595Y-80833333D01*
X63430833Y-80785714D01*
X63621309Y-80785714D01*
X63716547Y-80833333D01*
X63764166Y-80928571D01*
X63764166Y-81023809D01*
X63287976Y-81119047D01*
X64192738Y-80785714D02*
X64192738Y-81452380D01*
X64192738Y-80880952D02*
X64240357Y-80833333D01*
X64335595Y-80785714D01*
X64478452Y-80785714D01*
X64573690Y-80833333D01*
X64621309Y-80928571D01*
X64621309Y-81452380D01*
X65526071Y-81404761D02*
X65430833Y-81452380D01*
X65240357Y-81452380D01*
X65145119Y-81404761D01*
X65097500Y-81357142D01*
X65049880Y-81261904D01*
X65049880Y-80976190D01*
X65097500Y-80880952D01*
X65145119Y-80833333D01*
X65240357Y-80785714D01*
X65430833Y-80785714D01*
X65526071Y-80833333D01*
X65954642Y-81452380D02*
X65954642Y-80452380D01*
X66383214Y-81452380D02*
X66383214Y-80928571D01*
X66335595Y-80833333D01*
X66240357Y-80785714D01*
X66097500Y-80785714D01*
X66002261Y-80833333D01*
X65954642Y-80880952D01*
X66716547Y-80785714D02*
X67097500Y-80785714D01*
X66859404Y-80452380D02*
X66859404Y-81309523D01*
X66907023Y-81404761D01*
X67002261Y-81452380D01*
X67097500Y-81452380D01*
X67573690Y-81452380D02*
X67478452Y-81404761D01*
X67430833Y-81357142D01*
X67383214Y-81261904D01*
X67383214Y-80976190D01*
X67430833Y-80880952D01*
X67478452Y-80833333D01*
X67573690Y-80785714D01*
X67716547Y-80785714D01*
X67811785Y-80833333D01*
X67859404Y-80880952D01*
X67907023Y-80976190D01*
X67907023Y-81261904D01*
X67859404Y-81357142D01*
X67811785Y-81404761D01*
X67716547Y-81452380D01*
X67573690Y-81452380D01*
X68335595Y-80785714D02*
X68335595Y-81785714D01*
X68335595Y-80833333D02*
X68430833Y-80785714D01*
X68621309Y-80785714D01*
X68716547Y-80833333D01*
X68764166Y-80880952D01*
X68811785Y-80976190D01*
X68811785Y-81261904D01*
X68764166Y-81357142D01*
X68716547Y-81404761D01*
X68621309Y-81452380D01*
X68430833Y-81452380D01*
X68335595Y-81404761D01*
X70002261Y-81452380D02*
X70002261Y-80452380D01*
X70335595Y-81166666D01*
X70668928Y-80452380D01*
X70668928Y-81452380D01*
X71287976Y-81452380D02*
X71192738Y-81404761D01*
X71145119Y-81357142D01*
X71097500Y-81261904D01*
X71097500Y-80976190D01*
X71145119Y-80880952D01*
X71192738Y-80833333D01*
X71287976Y-80785714D01*
X71430833Y-80785714D01*
X71526071Y-80833333D01*
X71573690Y-80880952D01*
X71621309Y-80976190D01*
X71621309Y-81261904D01*
X71573690Y-81357142D01*
X71526071Y-81404761D01*
X71430833Y-81452380D01*
X71287976Y-81452380D01*
X72478452Y-81452380D02*
X72478452Y-80452380D01*
X72478452Y-81404761D02*
X72383214Y-81452380D01*
X72192738Y-81452380D01*
X72097500Y-81404761D01*
X72049880Y-81357142D01*
X72002261Y-81261904D01*
X72002261Y-80976190D01*
X72049880Y-80880952D01*
X72097500Y-80833333D01*
X72192738Y-80785714D01*
X72383214Y-80785714D01*
X72478452Y-80833333D01*
X73383214Y-80785714D02*
X73383214Y-81452380D01*
X72954642Y-80785714D02*
X72954642Y-81309523D01*
X73002261Y-81404761D01*
X73097500Y-81452380D01*
X73240357Y-81452380D01*
X73335595Y-81404761D01*
X73383214Y-81357142D01*
X74002261Y-81452380D02*
X73907023Y-81404761D01*
X73859404Y-81309523D01*
X73859404Y-80452380D01*
X74811785Y-81452380D02*
X74811785Y-80928571D01*
X74764166Y-80833333D01*
X74668928Y-80785714D01*
X74478452Y-80785714D01*
X74383214Y-80833333D01*
X74811785Y-81404761D02*
X74716547Y-81452380D01*
X74478452Y-81452380D01*
X74383214Y-81404761D01*
X74335595Y-81309523D01*
X74335595Y-81214285D01*
X74383214Y-81119047D01*
X74478452Y-81071428D01*
X74716547Y-81071428D01*
X74811785Y-81023809D01*
X75287976Y-81452380D02*
X75287976Y-80785714D01*
X75287976Y-80976190D02*
X75335595Y-80880952D01*
X75383214Y-80833333D01*
X75478452Y-80785714D01*
X75573690Y-80785714D01*
X76668928Y-81452380D02*
X76668928Y-80452380D01*
X77049880Y-80452380D01*
X77145119Y-80500000D01*
X77192738Y-80547619D01*
X77240357Y-80642857D01*
X77240357Y-80785714D01*
X77192738Y-80880952D01*
X77145119Y-80928571D01*
X77049880Y-80976190D01*
X76668928Y-80976190D01*
X77811785Y-81452380D02*
X77716547Y-81404761D01*
X77668928Y-81357142D01*
X77621309Y-81261904D01*
X77621309Y-80976190D01*
X77668928Y-80880952D01*
X77716547Y-80833333D01*
X77811785Y-80785714D01*
X77954642Y-80785714D01*
X78049880Y-80833333D01*
X78097500Y-80880952D01*
X78145119Y-80976190D01*
X78145119Y-81261904D01*
X78097500Y-81357142D01*
X78049880Y-81404761D01*
X77954642Y-81452380D01*
X77811785Y-81452380D01*
X78478452Y-80785714D02*
X78668928Y-81452380D01*
X78859404Y-80976190D01*
X79049880Y-81452380D01*
X79240357Y-80785714D01*
X80002261Y-81404761D02*
X79907023Y-81452380D01*
X79716547Y-81452380D01*
X79621309Y-81404761D01*
X79573690Y-81309523D01*
X79573690Y-80928571D01*
X79621309Y-80833333D01*
X79716547Y-80785714D01*
X79907023Y-80785714D01*
X80002261Y-80833333D01*
X80049880Y-80928571D01*
X80049880Y-81023809D01*
X79573690Y-81119047D01*
X80478452Y-81452380D02*
X80478452Y-80785714D01*
X80478452Y-80976190D02*
X80526071Y-80880952D01*
X80573690Y-80833333D01*
X80668928Y-80785714D01*
X80764166Y-80785714D01*
X81811785Y-81404761D02*
X81954642Y-81452380D01*
X82192738Y-81452380D01*
X82287976Y-81404761D01*
X82335595Y-81357142D01*
X82383214Y-81261904D01*
X82383214Y-81166666D01*
X82335595Y-81071428D01*
X82287976Y-81023809D01*
X82192738Y-80976190D01*
X82002261Y-80928571D01*
X81907023Y-80880952D01*
X81859404Y-80833333D01*
X81811785Y-80738095D01*
X81811785Y-80642857D01*
X81859404Y-80547619D01*
X81907023Y-80500000D01*
X82002261Y-80452380D01*
X82240357Y-80452380D01*
X82383214Y-80500000D01*
X82668928Y-80785714D02*
X83049880Y-80785714D01*
X82811785Y-80452380D02*
X82811785Y-81309523D01*
X82859404Y-81404761D01*
X82954642Y-81452380D01*
X83049880Y-81452380D01*
X83383214Y-81452380D02*
X83383214Y-80785714D01*
X83383214Y-80976190D02*
X83430833Y-80880952D01*
X83478452Y-80833333D01*
X83573690Y-80785714D01*
X83668928Y-80785714D01*
X84002261Y-81452380D02*
X84002261Y-80785714D01*
X84002261Y-80452380D02*
X83954642Y-80500000D01*
X84002261Y-80547619D01*
X84049880Y-80500000D01*
X84002261Y-80452380D01*
X84002261Y-80547619D01*
X84478452Y-80785714D02*
X84478452Y-81785714D01*
X84478452Y-80833333D02*
X84573690Y-80785714D01*
X84764166Y-80785714D01*
X84859404Y-80833333D01*
X84907023Y-80880952D01*
X84954642Y-80976190D01*
X84954642Y-81261904D01*
X84907023Y-81357142D01*
X84859404Y-81404761D01*
X84764166Y-81452380D01*
X84573690Y-81452380D01*
X84478452Y-81404761D01*
X109176190Y-99020380D02*
X109509523Y-100020380D01*
X109842857Y-99020380D01*
X110319047Y-100020380D02*
X110223809Y-99972761D01*
X110176190Y-99925142D01*
X110128571Y-99829904D01*
X110128571Y-99544190D01*
X110176190Y-99448952D01*
X110223809Y-99401333D01*
X110319047Y-99353714D01*
X110461904Y-99353714D01*
X110557142Y-99401333D01*
X110604761Y-99448952D01*
X110652380Y-99544190D01*
X110652380Y-99829904D01*
X110604761Y-99925142D01*
X110557142Y-99972761D01*
X110461904Y-100020380D01*
X110319047Y-100020380D01*
X111509523Y-99353714D02*
X111509523Y-100020380D01*
X111080952Y-99353714D02*
X111080952Y-99877523D01*
X111128571Y-99972761D01*
X111223809Y-100020380D01*
X111366666Y-100020380D01*
X111461904Y-99972761D01*
X111509523Y-99925142D01*
X111842857Y-99353714D02*
X112223809Y-99353714D01*
X111985714Y-99020380D02*
X111985714Y-99877523D01*
X112033333Y-99972761D01*
X112128571Y-100020380D01*
X112223809Y-100020380D01*
X127092976Y-81166666D02*
X127569166Y-81166666D01*
X126997738Y-81452380D02*
X127331071Y-80452380D01*
X127664404Y-81452380D01*
X128426309Y-81452380D02*
X128426309Y-80452380D01*
X128426309Y-81404761D02*
X128331071Y-81452380D01*
X128140595Y-81452380D01*
X128045357Y-81404761D01*
X127997738Y-81357142D01*
X127950119Y-81261904D01*
X127950119Y-80976190D01*
X127997738Y-80880952D01*
X128045357Y-80833333D01*
X128140595Y-80785714D01*
X128331071Y-80785714D01*
X128426309Y-80833333D01*
X128902500Y-80785714D02*
X128902500Y-81642857D01*
X128854880Y-81738095D01*
X128759642Y-81785714D01*
X128712023Y-81785714D01*
X128902500Y-80452380D02*
X128854880Y-80500000D01*
X128902500Y-80547619D01*
X128950119Y-80500000D01*
X128902500Y-80452380D01*
X128902500Y-80547619D01*
X129807261Y-80785714D02*
X129807261Y-81452380D01*
X129378690Y-80785714D02*
X129378690Y-81309523D01*
X129426309Y-81404761D01*
X129521547Y-81452380D01*
X129664404Y-81452380D01*
X129759642Y-81404761D01*
X129807261Y-81357142D01*
X130235833Y-81404761D02*
X130331071Y-81452380D01*
X130521547Y-81452380D01*
X130616785Y-81404761D01*
X130664404Y-81309523D01*
X130664404Y-81261904D01*
X130616785Y-81166666D01*
X130521547Y-81119047D01*
X130378690Y-81119047D01*
X130283452Y-81071428D01*
X130235833Y-80976190D01*
X130235833Y-80928571D01*
X130283452Y-80833333D01*
X130378690Y-80785714D01*
X130521547Y-80785714D01*
X130616785Y-80833333D01*
X130950119Y-80785714D02*
X131331071Y-80785714D01*
X131092976Y-80452380D02*
X131092976Y-81309523D01*
X131140595Y-81404761D01*
X131235833Y-81452380D01*
X131331071Y-81452380D01*
X132092976Y-81452380D02*
X132092976Y-80928571D01*
X132045357Y-80833333D01*
X131950119Y-80785714D01*
X131759642Y-80785714D01*
X131664404Y-80833333D01*
X132092976Y-81404761D02*
X131997738Y-81452380D01*
X131759642Y-81452380D01*
X131664404Y-81404761D01*
X131616785Y-81309523D01*
X131616785Y-81214285D01*
X131664404Y-81119047D01*
X131759642Y-81071428D01*
X131997738Y-81071428D01*
X132092976Y-81023809D01*
X132569166Y-81452380D02*
X132569166Y-80452380D01*
X132569166Y-80833333D02*
X132664404Y-80785714D01*
X132854880Y-80785714D01*
X132950119Y-80833333D01*
X132997738Y-80880952D01*
X133045357Y-80976190D01*
X133045357Y-81261904D01*
X132997738Y-81357142D01*
X132950119Y-81404761D01*
X132854880Y-81452380D01*
X132664404Y-81452380D01*
X132569166Y-81404761D01*
X133616785Y-81452380D02*
X133521547Y-81404761D01*
X133473928Y-81309523D01*
X133473928Y-80452380D01*
X134378690Y-81404761D02*
X134283452Y-81452380D01*
X134092976Y-81452380D01*
X133997738Y-81404761D01*
X133950119Y-81309523D01*
X133950119Y-80928571D01*
X133997738Y-80833333D01*
X134092976Y-80785714D01*
X134283452Y-80785714D01*
X134378690Y-80833333D01*
X134426309Y-80928571D01*
X134426309Y-81023809D01*
X133950119Y-81119047D01*
X135569166Y-81404761D02*
X135664404Y-81452380D01*
X135854880Y-81452380D01*
X135950119Y-81404761D01*
X135997738Y-81309523D01*
X135997738Y-81261904D01*
X135950119Y-81166666D01*
X135854880Y-81119047D01*
X135712023Y-81119047D01*
X135616785Y-81071428D01*
X135569166Y-80976190D01*
X135569166Y-80928571D01*
X135616785Y-80833333D01*
X135712023Y-80785714D01*
X135854880Y-80785714D01*
X135950119Y-80833333D01*
X136426309Y-81452380D02*
X136426309Y-80785714D01*
X136426309Y-80452380D02*
X136378690Y-80500000D01*
X136426309Y-80547619D01*
X136473928Y-80500000D01*
X136426309Y-80452380D01*
X136426309Y-80547619D01*
X136902500Y-80785714D02*
X136902500Y-81452380D01*
X136902500Y-80880952D02*
X136950119Y-80833333D01*
X137045357Y-80785714D01*
X137188214Y-80785714D01*
X137283452Y-80833333D01*
X137331071Y-80928571D01*
X137331071Y-81452380D01*
X138235833Y-80785714D02*
X138235833Y-81595238D01*
X138188214Y-81690476D01*
X138140595Y-81738095D01*
X138045357Y-81785714D01*
X137902500Y-81785714D01*
X137807261Y-81738095D01*
X138235833Y-81404761D02*
X138140595Y-81452380D01*
X137950119Y-81452380D01*
X137854880Y-81404761D01*
X137807261Y-81357142D01*
X137759642Y-81261904D01*
X137759642Y-80976190D01*
X137807261Y-80880952D01*
X137854880Y-80833333D01*
X137950119Y-80785714D01*
X138140595Y-80785714D01*
X138235833Y-80833333D01*
X138854880Y-81452380D02*
X138759642Y-81404761D01*
X138712023Y-81309523D01*
X138712023Y-80452380D01*
X139616785Y-81404761D02*
X139521547Y-81452380D01*
X139331071Y-81452380D01*
X139235833Y-81404761D01*
X139188214Y-81309523D01*
X139188214Y-80928571D01*
X139235833Y-80833333D01*
X139331071Y-80785714D01*
X139521547Y-80785714D01*
X139616785Y-80833333D01*
X139664404Y-80928571D01*
X139664404Y-81023809D01*
X139188214Y-81119047D01*
X140854880Y-81452380D02*
X140854880Y-80785714D01*
X140854880Y-80976190D02*
X140902500Y-80880952D01*
X140950119Y-80833333D01*
X141045357Y-80785714D01*
X141140595Y-80785714D01*
X141902500Y-81452380D02*
X141902500Y-80928571D01*
X141854880Y-80833333D01*
X141759642Y-80785714D01*
X141569166Y-80785714D01*
X141473928Y-80833333D01*
X141902500Y-81404761D02*
X141807261Y-81452380D01*
X141569166Y-81452380D01*
X141473928Y-81404761D01*
X141426309Y-81309523D01*
X141426309Y-81214285D01*
X141473928Y-81119047D01*
X141569166Y-81071428D01*
X141807261Y-81071428D01*
X141902500Y-81023809D01*
X142378690Y-81452380D02*
X142378690Y-80785714D01*
X142378690Y-80452380D02*
X142331071Y-80500000D01*
X142378690Y-80547619D01*
X142426309Y-80500000D01*
X142378690Y-80452380D01*
X142378690Y-80547619D01*
X142997738Y-81452380D02*
X142902500Y-81404761D01*
X142854880Y-81309523D01*
X142854880Y-80452380D01*
X144140595Y-81452380D02*
X144140595Y-80452380D01*
X144521547Y-80452380D01*
X144616785Y-80500000D01*
X144664404Y-80547619D01*
X144712023Y-80642857D01*
X144712023Y-80785714D01*
X144664404Y-80880952D01*
X144616785Y-80928571D01*
X144521547Y-80976190D01*
X144140595Y-80976190D01*
X145092976Y-81404761D02*
X145235833Y-81452380D01*
X145473928Y-81452380D01*
X145569166Y-81404761D01*
X145616785Y-81357142D01*
X145664404Y-81261904D01*
X145664404Y-81166666D01*
X145616785Y-81071428D01*
X145569166Y-81023809D01*
X145473928Y-80976190D01*
X145283452Y-80928571D01*
X145188214Y-80880952D01*
X145140595Y-80833333D01*
X145092976Y-80738095D01*
X145092976Y-80642857D01*
X145140595Y-80547619D01*
X145188214Y-80500000D01*
X145283452Y-80452380D01*
X145521547Y-80452380D01*
X145664404Y-80500000D01*
X146092976Y-80452380D02*
X146092976Y-81261904D01*
X146140595Y-81357142D01*
X146188214Y-81404761D01*
X146283452Y-81452380D01*
X146473928Y-81452380D01*
X146569166Y-81404761D01*
X146616785Y-81357142D01*
X146664404Y-81261904D01*
X146664404Y-80452380D01*
X80625000Y-116811785D02*
X80589285Y-116883214D01*
X80589285Y-116990357D01*
X80625000Y-117097500D01*
X80696428Y-117168928D01*
X80767857Y-117204642D01*
X80910714Y-117240357D01*
X81017857Y-117240357D01*
X81160714Y-117204642D01*
X81232142Y-117168928D01*
X81303571Y-117097500D01*
X81339285Y-116990357D01*
X81339285Y-116918928D01*
X81303571Y-116811785D01*
X81267857Y-116776071D01*
X81017857Y-116776071D01*
X81017857Y-116918928D01*
X81339285Y-116454642D02*
X80589285Y-116454642D01*
X81339285Y-116026071D01*
X80589285Y-116026071D01*
X81339285Y-115668928D02*
X80589285Y-115668928D01*
X80589285Y-115490357D01*
X80625000Y-115383214D01*
X80696428Y-115311785D01*
X80767857Y-115276071D01*
X80910714Y-115240357D01*
X81017857Y-115240357D01*
X81160714Y-115276071D01*
X81232142Y-115311785D01*
X81303571Y-115383214D01*
X81339285Y-115490357D01*
X81339285Y-115668928D01*
X67976190Y-85452380D02*
X68309523Y-86452380D01*
X68642857Y-85452380D01*
X68976190Y-86452380D02*
X68976190Y-85785714D01*
X68976190Y-85452380D02*
X68928571Y-85500000D01*
X68976190Y-85547619D01*
X69023809Y-85500000D01*
X68976190Y-85452380D01*
X68976190Y-85547619D01*
X69452380Y-85785714D02*
X69452380Y-86452380D01*
X69452380Y-85880952D02*
X69500000Y-85833333D01*
X69595238Y-85785714D01*
X69738095Y-85785714D01*
X69833333Y-85833333D01*
X69880952Y-85928571D01*
X69880952Y-86452380D01*
X70327976Y-104404761D02*
X70470833Y-104452380D01*
X70708928Y-104452380D01*
X70804166Y-104404761D01*
X70851785Y-104357142D01*
X70899404Y-104261904D01*
X70899404Y-104166666D01*
X70851785Y-104071428D01*
X70804166Y-104023809D01*
X70708928Y-103976190D01*
X70518452Y-103928571D01*
X70423214Y-103880952D01*
X70375595Y-103833333D01*
X70327976Y-103738095D01*
X70327976Y-103642857D01*
X70375595Y-103547619D01*
X70423214Y-103500000D01*
X70518452Y-103452380D01*
X70756547Y-103452380D01*
X70899404Y-103500000D01*
X71899404Y-104357142D02*
X71851785Y-104404761D01*
X71708928Y-104452380D01*
X71613690Y-104452380D01*
X71470833Y-104404761D01*
X71375595Y-104309523D01*
X71327976Y-104214285D01*
X71280357Y-104023809D01*
X71280357Y-103880952D01*
X71327976Y-103690476D01*
X71375595Y-103595238D01*
X71470833Y-103500000D01*
X71613690Y-103452380D01*
X71708928Y-103452380D01*
X71851785Y-103500000D01*
X71899404Y-103547619D01*
X72804166Y-104452380D02*
X72327976Y-104452380D01*
X72327976Y-103452380D01*
X78377500Y-117133214D02*
X78377500Y-116383214D01*
X79339285Y-116526071D02*
X78982142Y-116776071D01*
X79339285Y-116954642D02*
X78589285Y-116954642D01*
X78589285Y-116668928D01*
X78625000Y-116597500D01*
X78660714Y-116561785D01*
X78732142Y-116526071D01*
X78839285Y-116526071D01*
X78910714Y-116561785D01*
X78946428Y-116597500D01*
X78982142Y-116668928D01*
X78982142Y-116954642D01*
X78377500Y-116383214D02*
X78377500Y-115668928D01*
X79303571Y-116240357D02*
X79339285Y-116133214D01*
X79339285Y-115954642D01*
X79303571Y-115883214D01*
X79267857Y-115847500D01*
X79196428Y-115811785D01*
X79125000Y-115811785D01*
X79053571Y-115847500D01*
X79017857Y-115883214D01*
X78982142Y-115954642D01*
X78946428Y-116097500D01*
X78910714Y-116168928D01*
X78875000Y-116204642D01*
X78803571Y-116240357D01*
X78732142Y-116240357D01*
X78660714Y-116204642D01*
X78625000Y-116168928D01*
X78589285Y-116097500D01*
X78589285Y-115918928D01*
X78625000Y-115811785D01*
X78377500Y-115668928D02*
X78377500Y-115097500D01*
X78589285Y-115597500D02*
X78589285Y-115168928D01*
X79339285Y-115383214D02*
X78589285Y-115383214D01*
X70232738Y-99452380D02*
X70566071Y-100452380D01*
X70899404Y-99452380D01*
X71661309Y-100404761D02*
X71566071Y-100452380D01*
X71375595Y-100452380D01*
X71280357Y-100404761D01*
X71232738Y-100357142D01*
X71185119Y-100261904D01*
X71185119Y-99976190D01*
X71232738Y-99880952D01*
X71280357Y-99833333D01*
X71375595Y-99785714D01*
X71566071Y-99785714D01*
X71661309Y-99833333D01*
X72518452Y-100404761D02*
X72423214Y-100452380D01*
X72232738Y-100452380D01*
X72137500Y-100404761D01*
X72089880Y-100357142D01*
X72042261Y-100261904D01*
X72042261Y-99976190D01*
X72089880Y-99880952D01*
X72137500Y-99833333D01*
X72232738Y-99785714D01*
X72423214Y-99785714D01*
X72518452Y-99833333D01*
X70327976Y-102404761D02*
X70470833Y-102452380D01*
X70708928Y-102452380D01*
X70804166Y-102404761D01*
X70851785Y-102357142D01*
X70899404Y-102261904D01*
X70899404Y-102166666D01*
X70851785Y-102071428D01*
X70804166Y-102023809D01*
X70708928Y-101976190D01*
X70518452Y-101928571D01*
X70423214Y-101880952D01*
X70375595Y-101833333D01*
X70327976Y-101738095D01*
X70327976Y-101642857D01*
X70375595Y-101547619D01*
X70423214Y-101500000D01*
X70518452Y-101452380D01*
X70756547Y-101452380D01*
X70899404Y-101500000D01*
X71327976Y-102452380D02*
X71327976Y-101452380D01*
X71566071Y-101452380D01*
X71708928Y-101500000D01*
X71804166Y-101595238D01*
X71851785Y-101690476D01*
X71899404Y-101880952D01*
X71899404Y-102023809D01*
X71851785Y-102214285D01*
X71804166Y-102309523D01*
X71708928Y-102404761D01*
X71566071Y-102452380D01*
X71327976Y-102452380D01*
X72280357Y-102166666D02*
X72756547Y-102166666D01*
X72185119Y-102452380D02*
X72518452Y-101452380D01*
X72851785Y-102452380D01*
X59523809Y-95452380D02*
X59857142Y-96452380D01*
X60190476Y-95452380D01*
X60476190Y-96404761D02*
X60571428Y-96452380D01*
X60761904Y-96452380D01*
X60857142Y-96404761D01*
X60904761Y-96309523D01*
X60904761Y-96261904D01*
X60857142Y-96166666D01*
X60761904Y-96119047D01*
X60619047Y-96119047D01*
X60523809Y-96071428D01*
X60476190Y-95976190D01*
X60476190Y-95928571D01*
X60523809Y-95833333D01*
X60619047Y-95785714D01*
X60761904Y-95785714D01*
X60857142Y-95833333D01*
X61333333Y-96452380D02*
X61333333Y-95785714D01*
X61333333Y-95976190D02*
X61380952Y-95880952D01*
X61428571Y-95833333D01*
X61523809Y-95785714D01*
X61619047Y-95785714D01*
X62380952Y-96404761D02*
X62285714Y-96452380D01*
X62095238Y-96452380D01*
X62000000Y-96404761D01*
X61952380Y-96357142D01*
X61904761Y-96261904D01*
X61904761Y-95976190D01*
X61952380Y-95880952D01*
X62000000Y-95833333D01*
X62095238Y-95785714D01*
X62285714Y-95785714D01*
X62380952Y-95833333D01*
X77476190Y-111952380D02*
X77476190Y-112761904D01*
X77523809Y-112857142D01*
X77571428Y-112904761D01*
X77666666Y-112952380D01*
X77857142Y-112952380D01*
X77952380Y-112904761D01*
X78000000Y-112857142D01*
X78047619Y-112761904D01*
X78047619Y-111952380D01*
X78523809Y-112952380D02*
X78523809Y-111952380D01*
X78904761Y-111952380D01*
X79000000Y-112000000D01*
X79047619Y-112047619D01*
X79095238Y-112142857D01*
X79095238Y-112285714D01*
X79047619Y-112380952D01*
X79000000Y-112428571D01*
X78904761Y-112476190D01*
X78523809Y-112476190D01*
X79523809Y-112952380D02*
X79523809Y-111952380D01*
X79761904Y-111952380D01*
X79904761Y-112000000D01*
X80000000Y-112095238D01*
X80047619Y-112190476D01*
X80095238Y-112380952D01*
X80095238Y-112523809D01*
X80047619Y-112714285D01*
X80000000Y-112809523D01*
X79904761Y-112904761D01*
X79761904Y-112952380D01*
X79523809Y-112952380D01*
X80523809Y-112952380D02*
X80523809Y-111952380D01*
X76589285Y-116954642D02*
X77339285Y-116704642D01*
X76589285Y-116454642D01*
X77303571Y-115883214D02*
X77339285Y-115954642D01*
X77339285Y-116097500D01*
X77303571Y-116168928D01*
X77267857Y-116204642D01*
X77196428Y-116240357D01*
X76982142Y-116240357D01*
X76910714Y-116204642D01*
X76875000Y-116168928D01*
X76839285Y-116097500D01*
X76839285Y-115954642D01*
X76875000Y-115883214D01*
X77303571Y-115240357D02*
X77339285Y-115311785D01*
X77339285Y-115454642D01*
X77303571Y-115526071D01*
X77267857Y-115561785D01*
X77196428Y-115597500D01*
X76982142Y-115597500D01*
X76910714Y-115561785D01*
X76875000Y-115526071D01*
X76839285Y-115454642D01*
X76839285Y-115311785D01*
X76875000Y-115240357D01*
X70375595Y-106452380D02*
X70375595Y-105452380D01*
X70613690Y-105452380D01*
X70756547Y-105500000D01*
X70851785Y-105595238D01*
X70899404Y-105690476D01*
X70947023Y-105880952D01*
X70947023Y-106023809D01*
X70899404Y-106214285D01*
X70851785Y-106309523D01*
X70756547Y-106404761D01*
X70613690Y-106452380D01*
X70375595Y-106452380D01*
X71804166Y-106452380D02*
X71804166Y-105928571D01*
X71756547Y-105833333D01*
X71661309Y-105785714D01*
X71470833Y-105785714D01*
X71375595Y-105833333D01*
X71804166Y-106404761D02*
X71708928Y-106452380D01*
X71470833Y-106452380D01*
X71375595Y-106404761D01*
X71327976Y-106309523D01*
X71327976Y-106214285D01*
X71375595Y-106119047D01*
X71470833Y-106071428D01*
X71708928Y-106071428D01*
X71804166Y-106023809D01*
X72137500Y-105785714D02*
X72518452Y-105785714D01*
X72280357Y-105452380D02*
X72280357Y-106309523D01*
X72327976Y-106404761D01*
X72423214Y-106452380D01*
X72518452Y-106452380D01*
X73042261Y-105452380D02*
X73137500Y-105452380D01*
X73232738Y-105500000D01*
X73280357Y-105547619D01*
X73327976Y-105642857D01*
X73375595Y-105833333D01*
X73375595Y-106071428D01*
X73327976Y-106261904D01*
X73280357Y-106357142D01*
X73232738Y-106404761D01*
X73137500Y-106452380D01*
X73042261Y-106452380D01*
X72947023Y-106404761D01*
X72899404Y-106357142D01*
X72851785Y-106261904D01*
X72804166Y-106071428D01*
X72804166Y-105833333D01*
X72851785Y-105642857D01*
X72899404Y-105547619D01*
X72947023Y-105500000D01*
X73042261Y-105452380D01*
X86502952Y-95400761D02*
X86407714Y-95448380D01*
X86217238Y-95448380D01*
X86122000Y-95400761D01*
X86074380Y-95353142D01*
X86026761Y-95257904D01*
X86026761Y-94972190D01*
X86074380Y-94876952D01*
X86122000Y-94829333D01*
X86217238Y-94781714D01*
X86407714Y-94781714D01*
X86502952Y-94829333D01*
X86788666Y-94781714D02*
X87169619Y-94781714D01*
X86931523Y-94448380D02*
X86931523Y-95305523D01*
X86979142Y-95400761D01*
X87074380Y-95448380D01*
X87169619Y-95448380D01*
X87502952Y-95448380D02*
X87502952Y-94781714D01*
X87502952Y-94972190D02*
X87550571Y-94876952D01*
X87598190Y-94829333D01*
X87693428Y-94781714D01*
X87788666Y-94781714D01*
X88264857Y-95448380D02*
X88169619Y-95400761D01*
X88122000Y-95305523D01*
X88122000Y-94448380D01*
X79283809Y-103366666D02*
X79760000Y-103366666D01*
X79188571Y-103652380D02*
X79521904Y-102652380D01*
X79855238Y-103652380D01*
X80045714Y-102652380D02*
X80617142Y-102652380D01*
X80331428Y-103652380D02*
X80331428Y-102652380D01*
X80807619Y-102652380D02*
X81379047Y-102652380D01*
X81093333Y-103652380D02*
X81093333Y-102652380D01*
X81712380Y-103652380D02*
X81712380Y-102985714D01*
X81712380Y-102652380D02*
X81664761Y-102700000D01*
X81712380Y-102747619D01*
X81760000Y-102700000D01*
X81712380Y-102652380D01*
X81712380Y-102747619D01*
X82188571Y-102985714D02*
X82188571Y-103652380D01*
X82188571Y-103080952D02*
X82236190Y-103033333D01*
X82331428Y-102985714D01*
X82474285Y-102985714D01*
X82569523Y-103033333D01*
X82617142Y-103128571D01*
X82617142Y-103652380D01*
X82998095Y-102985714D02*
X83236190Y-103652380D01*
X83474285Y-102985714D02*
X83236190Y-103652380D01*
X83140952Y-103890476D01*
X83093333Y-103938095D01*
X82998095Y-103985714D01*
X84379047Y-103652380D02*
X83807619Y-103652380D01*
X84093333Y-103652380D02*
X84093333Y-102652380D01*
X83998095Y-102795238D01*
X83902857Y-102890476D01*
X83807619Y-102938095D01*
X85236190Y-102652380D02*
X85045714Y-102652380D01*
X84950476Y-102700000D01*
X84902857Y-102747619D01*
X84807619Y-102890476D01*
X84760000Y-103080952D01*
X84760000Y-103461904D01*
X84807619Y-103557142D01*
X84855238Y-103604761D01*
X84950476Y-103652380D01*
X85140952Y-103652380D01*
X85236190Y-103604761D01*
X85283809Y-103557142D01*
X85331428Y-103461904D01*
X85331428Y-103223809D01*
X85283809Y-103128571D01*
X85236190Y-103080952D01*
X85140952Y-103033333D01*
X84950476Y-103033333D01*
X84855238Y-103080952D01*
X84807619Y-103128571D01*
X84760000Y-103223809D01*
X86283809Y-103652380D02*
X85712380Y-103652380D01*
X85998095Y-103652380D02*
X85998095Y-102652380D01*
X85902857Y-102795238D01*
X85807619Y-102890476D01*
X85712380Y-102938095D01*
X86617142Y-102652380D02*
X87283809Y-102652380D01*
X86855238Y-103652380D01*
X105243523Y-84288380D02*
X105576857Y-85288380D01*
X105910190Y-84288380D01*
X106243523Y-85288380D02*
X106243523Y-84621714D01*
X106243523Y-84716952D02*
X106291142Y-84669333D01*
X106386380Y-84621714D01*
X106529238Y-84621714D01*
X106624476Y-84669333D01*
X106672095Y-84764571D01*
X106672095Y-85288380D01*
X106672095Y-84764571D02*
X106719714Y-84669333D01*
X106814952Y-84621714D01*
X106957809Y-84621714D01*
X107053047Y-84669333D01*
X107100666Y-84764571D01*
X107100666Y-85288380D01*
X107576857Y-85288380D02*
X107576857Y-84621714D01*
X107576857Y-84288380D02*
X107529238Y-84336000D01*
X107576857Y-84383619D01*
X107624476Y-84336000D01*
X107576857Y-84288380D01*
X107576857Y-84383619D01*
X108481619Y-85288380D02*
X108481619Y-84288380D01*
X108481619Y-85240761D02*
X108386380Y-85288380D01*
X108195904Y-85288380D01*
X108100666Y-85240761D01*
X108053047Y-85193142D01*
X108005428Y-85097904D01*
X108005428Y-84812190D01*
X108053047Y-84716952D01*
X108100666Y-84669333D01*
X108195904Y-84621714D01*
X108386380Y-84621714D01*
X108481619Y-84669333D01*
X134092976Y-119404761D02*
X134235833Y-119452380D01*
X134473928Y-119452380D01*
X134569166Y-119404761D01*
X134616785Y-119357142D01*
X134664404Y-119261904D01*
X134664404Y-119166666D01*
X134616785Y-119071428D01*
X134569166Y-119023809D01*
X134473928Y-118976190D01*
X134283452Y-118928571D01*
X134188214Y-118880952D01*
X134140595Y-118833333D01*
X134092976Y-118738095D01*
X134092976Y-118642857D01*
X134140595Y-118547619D01*
X134188214Y-118500000D01*
X134283452Y-118452380D01*
X134521547Y-118452380D01*
X134664404Y-118500000D01*
X135092976Y-119357142D02*
X135140595Y-119404761D01*
X135092976Y-119452380D01*
X135045357Y-119404761D01*
X135092976Y-119357142D01*
X135092976Y-119452380D01*
X136283452Y-119166666D02*
X136759642Y-119166666D01*
X136188214Y-119452380D02*
X136521547Y-118452380D01*
X136854880Y-119452380D01*
X137188214Y-119357142D02*
X137235833Y-119404761D01*
X137188214Y-119452380D01*
X137140595Y-119404761D01*
X137188214Y-119357142D01*
X137188214Y-119452380D01*
X138426309Y-119452380D02*
X138426309Y-118452380D01*
X138759642Y-119166666D01*
X139092976Y-118452380D01*
X139092976Y-119452380D01*
X139569166Y-119452380D02*
X139569166Y-118785714D01*
X139569166Y-118452380D02*
X139521547Y-118500000D01*
X139569166Y-118547619D01*
X139616785Y-118500000D01*
X139569166Y-118452380D01*
X139569166Y-118547619D01*
X140188214Y-119452380D02*
X140092976Y-119404761D01*
X140045357Y-119309523D01*
X140045357Y-118452380D01*
X140712023Y-119452380D02*
X140616785Y-119404761D01*
X140569166Y-119309523D01*
X140569166Y-118452380D01*
X141473928Y-119404761D02*
X141378690Y-119452380D01*
X141188214Y-119452380D01*
X141092976Y-119404761D01*
X141045357Y-119309523D01*
X141045357Y-118928571D01*
X141092976Y-118833333D01*
X141188214Y-118785714D01*
X141378690Y-118785714D01*
X141473928Y-118833333D01*
X141521547Y-118928571D01*
X141521547Y-119023809D01*
X141045357Y-119119047D01*
X141950119Y-119452380D02*
X141950119Y-118785714D01*
X141950119Y-118976190D02*
X141997738Y-118880952D01*
X142045357Y-118833333D01*
X142140595Y-118785714D01*
X142235833Y-118785714D01*
X143283452Y-118547619D02*
X143331071Y-118500000D01*
X143426309Y-118452380D01*
X143664404Y-118452380D01*
X143759642Y-118500000D01*
X143807261Y-118547619D01*
X143854880Y-118642857D01*
X143854880Y-118738095D01*
X143807261Y-118880952D01*
X143235833Y-119452380D01*
X143854880Y-119452380D01*
X144473928Y-118452380D02*
X144569166Y-118452380D01*
X144664404Y-118500000D01*
X144712023Y-118547619D01*
X144759642Y-118642857D01*
X144807261Y-118833333D01*
X144807261Y-119071428D01*
X144759642Y-119261904D01*
X144712023Y-119357142D01*
X144664404Y-119404761D01*
X144569166Y-119452380D01*
X144473928Y-119452380D01*
X144378690Y-119404761D01*
X144331071Y-119357142D01*
X144283452Y-119261904D01*
X144235833Y-119071428D01*
X144235833Y-118833333D01*
X144283452Y-118642857D01*
X144331071Y-118547619D01*
X144378690Y-118500000D01*
X144473928Y-118452380D01*
X145188214Y-118547619D02*
X145235833Y-118500000D01*
X145331071Y-118452380D01*
X145569166Y-118452380D01*
X145664404Y-118500000D01*
X145712023Y-118547619D01*
X145759642Y-118642857D01*
X145759642Y-118738095D01*
X145712023Y-118880952D01*
X145140595Y-119452380D01*
X145759642Y-119452380D01*
X146616785Y-118785714D02*
X146616785Y-119452380D01*
X146378690Y-118404761D02*
X146140595Y-119119047D01*
X146759642Y-119119047D01*
X60238095Y-103500000D02*
X60142857Y-103452380D01*
X60000000Y-103452380D01*
X59857142Y-103500000D01*
X59761904Y-103595238D01*
X59714285Y-103690476D01*
X59666666Y-103880952D01*
X59666666Y-104023809D01*
X59714285Y-104214285D01*
X59761904Y-104309523D01*
X59857142Y-104404761D01*
X60000000Y-104452380D01*
X60095238Y-104452380D01*
X60238095Y-104404761D01*
X60285714Y-104357142D01*
X60285714Y-104023809D01*
X60095238Y-104023809D01*
X60714285Y-104452380D02*
X60714285Y-103452380D01*
X61285714Y-104452380D01*
X61285714Y-103452380D01*
X61761904Y-104452380D02*
X61761904Y-103452380D01*
X62000000Y-103452380D01*
X62142857Y-103500000D01*
X62238095Y-103595238D01*
X62285714Y-103690476D01*
X62333333Y-103880952D01*
X62333333Y-104023809D01*
X62285714Y-104214285D01*
X62238095Y-104309523D01*
X62142857Y-104404761D01*
X62000000Y-104452380D01*
X61761904Y-104452380D01*
%TO.C,C2*%
X72163975Y-111421396D02*
X72163975Y-111461802D01*
X72123569Y-111542614D01*
X72083163Y-111583020D01*
X72002350Y-111623427D01*
X71921538Y-111623427D01*
X71860929Y-111603224D01*
X71759914Y-111542614D01*
X71699305Y-111482005D01*
X71638695Y-111380990D01*
X71618492Y-111320381D01*
X71618492Y-111239569D01*
X71658898Y-111158756D01*
X71699305Y-111118350D01*
X71780117Y-111077944D01*
X71820523Y-111077944D01*
X71982147Y-110916320D02*
X71982147Y-110875914D01*
X72002350Y-110815305D01*
X72103366Y-110714289D01*
X72163975Y-110694086D01*
X72204381Y-110694086D01*
X72264990Y-110714289D01*
X72305396Y-110754695D01*
X72345802Y-110835508D01*
X72345802Y-111320381D01*
X72608442Y-111057741D01*
%TO.C,R3*%
X74270000Y-108043428D02*
X74070000Y-107757714D01*
X73927142Y-108043428D02*
X73927142Y-107443428D01*
X74155714Y-107443428D01*
X74212857Y-107472000D01*
X74241428Y-107500571D01*
X74270000Y-107557714D01*
X74270000Y-107643428D01*
X74241428Y-107700571D01*
X74212857Y-107729142D01*
X74155714Y-107757714D01*
X73927142Y-107757714D01*
X74470000Y-107443428D02*
X74841428Y-107443428D01*
X74641428Y-107672000D01*
X74727142Y-107672000D01*
X74784285Y-107700571D01*
X74812857Y-107729142D01*
X74841428Y-107786285D01*
X74841428Y-107929142D01*
X74812857Y-107986285D01*
X74784285Y-108014857D01*
X74727142Y-108043428D01*
X74555714Y-108043428D01*
X74498571Y-108014857D01*
X74470000Y-107986285D01*
D10*
%TO.C,TPc4*%
X89619428Y-116717857D02*
X89619428Y-116375000D01*
X90219428Y-116546428D02*
X89619428Y-116546428D01*
X90219428Y-116175000D02*
X89619428Y-116175000D01*
X89619428Y-115946428D01*
X89648000Y-115889285D01*
X89676571Y-115860714D01*
X89733714Y-115832142D01*
X89819428Y-115832142D01*
X89876571Y-115860714D01*
X89905142Y-115889285D01*
X89933714Y-115946428D01*
X89933714Y-116175000D01*
X90190857Y-115317857D02*
X90219428Y-115375000D01*
X90219428Y-115489285D01*
X90190857Y-115546428D01*
X90162285Y-115575000D01*
X90105142Y-115603571D01*
X89933714Y-115603571D01*
X89876571Y-115575000D01*
X89848000Y-115546428D01*
X89819428Y-115489285D01*
X89819428Y-115375000D01*
X89848000Y-115317857D01*
X89819428Y-114803571D02*
X90219428Y-114803571D01*
X89590857Y-114946428D02*
X90019428Y-115089285D01*
X90019428Y-114717857D01*
D11*
%TO.C,C1*%
X85208000Y-110958285D02*
X85179428Y-110986857D01*
X85093714Y-111015428D01*
X85036571Y-111015428D01*
X84950857Y-110986857D01*
X84893714Y-110929714D01*
X84865142Y-110872571D01*
X84836571Y-110758285D01*
X84836571Y-110672571D01*
X84865142Y-110558285D01*
X84893714Y-110501142D01*
X84950857Y-110444000D01*
X85036571Y-110415428D01*
X85093714Y-110415428D01*
X85179428Y-110444000D01*
X85208000Y-110472571D01*
X85779428Y-111015428D02*
X85436571Y-111015428D01*
X85608000Y-111015428D02*
X85608000Y-110415428D01*
X85550857Y-110501142D01*
X85493714Y-110558285D01*
X85436571Y-110586857D01*
%TO.C,L1*%
X115657333Y-97309984D02*
X115181142Y-97309984D01*
X115181142Y-96309984D01*
X116514476Y-97309984D02*
X115943047Y-97309984D01*
X116228761Y-97309984D02*
X116228761Y-96309984D01*
X116133523Y-96452842D01*
X116038285Y-96548080D01*
X115943047Y-96595699D01*
D10*
%TO.C,TPb4*%
X95672142Y-108621428D02*
X96015000Y-108621428D01*
X95843571Y-109221428D02*
X95843571Y-108621428D01*
X96215000Y-109221428D02*
X96215000Y-108621428D01*
X96443571Y-108621428D01*
X96500714Y-108650000D01*
X96529285Y-108678571D01*
X96557857Y-108735714D01*
X96557857Y-108821428D01*
X96529285Y-108878571D01*
X96500714Y-108907142D01*
X96443571Y-108935714D01*
X96215000Y-108935714D01*
X96815000Y-109221428D02*
X96815000Y-108621428D01*
X96815000Y-108850000D02*
X96872142Y-108821428D01*
X96986428Y-108821428D01*
X97043571Y-108850000D01*
X97072142Y-108878571D01*
X97100714Y-108935714D01*
X97100714Y-109107142D01*
X97072142Y-109164285D01*
X97043571Y-109192857D01*
X96986428Y-109221428D01*
X96872142Y-109221428D01*
X96815000Y-109192857D01*
X97615000Y-108821428D02*
X97615000Y-109221428D01*
X97472142Y-108592857D02*
X97329285Y-109021428D01*
X97700714Y-109021428D01*
D11*
%TO.C,F1*%
X60104571Y-89233333D02*
X60104571Y-89566666D01*
X60628380Y-89566666D02*
X59628380Y-89566666D01*
X59628380Y-89090476D01*
X60628380Y-88185714D02*
X60628380Y-88757142D01*
X60628380Y-88471428D02*
X59628380Y-88471428D01*
X59771238Y-88566666D01*
X59866476Y-88661904D01*
X59914095Y-88757142D01*
%TO.C,R1*%
X77064000Y-105503428D02*
X76864000Y-105217714D01*
X76721142Y-105503428D02*
X76721142Y-104903428D01*
X76949714Y-104903428D01*
X77006857Y-104932000D01*
X77035428Y-104960571D01*
X77064000Y-105017714D01*
X77064000Y-105103428D01*
X77035428Y-105160571D01*
X77006857Y-105189142D01*
X76949714Y-105217714D01*
X76721142Y-105217714D01*
X77635428Y-105503428D02*
X77292571Y-105503428D01*
X77464000Y-105503428D02*
X77464000Y-104903428D01*
X77406857Y-104989142D01*
X77349714Y-105046285D01*
X77292571Y-105074857D01*
%TO.C,D3*%
X147639142Y-104157428D02*
X147639142Y-103557428D01*
X147782000Y-103557428D01*
X147867714Y-103586000D01*
X147924857Y-103643142D01*
X147953428Y-103700285D01*
X147982000Y-103814571D01*
X147982000Y-103900285D01*
X147953428Y-104014571D01*
X147924857Y-104071714D01*
X147867714Y-104128857D01*
X147782000Y-104157428D01*
X147639142Y-104157428D01*
X148182000Y-103557428D02*
X148553428Y-103557428D01*
X148353428Y-103786000D01*
X148439142Y-103786000D01*
X148496285Y-103814571D01*
X148524857Y-103843142D01*
X148553428Y-103900285D01*
X148553428Y-104043142D01*
X148524857Y-104100285D01*
X148496285Y-104128857D01*
X148439142Y-104157428D01*
X148267714Y-104157428D01*
X148210571Y-104128857D01*
X148182000Y-104100285D01*
D10*
%TO.C,TPa2*%
X81621428Y-99327857D02*
X81621428Y-98985000D01*
X82221428Y-99156428D02*
X81621428Y-99156428D01*
X82221428Y-98785000D02*
X81621428Y-98785000D01*
X81621428Y-98556428D01*
X81650000Y-98499285D01*
X81678571Y-98470714D01*
X81735714Y-98442142D01*
X81821428Y-98442142D01*
X81878571Y-98470714D01*
X81907142Y-98499285D01*
X81935714Y-98556428D01*
X81935714Y-98785000D01*
X82221428Y-97927857D02*
X81907142Y-97927857D01*
X81850000Y-97956428D01*
X81821428Y-98013571D01*
X81821428Y-98127857D01*
X81850000Y-98185000D01*
X82192857Y-97927857D02*
X82221428Y-97985000D01*
X82221428Y-98127857D01*
X82192857Y-98185000D01*
X82135714Y-98213571D01*
X82078571Y-98213571D01*
X82021428Y-98185000D01*
X81992857Y-98127857D01*
X81992857Y-97985000D01*
X81964285Y-97927857D01*
X81678571Y-97670714D02*
X81650000Y-97642142D01*
X81621428Y-97585000D01*
X81621428Y-97442142D01*
X81650000Y-97385000D01*
X81678571Y-97356428D01*
X81735714Y-97327857D01*
X81792857Y-97327857D01*
X81878571Y-97356428D01*
X82221428Y-97699285D01*
X82221428Y-97327857D01*
%TO.C,TPc5*%
X91619428Y-116717857D02*
X91619428Y-116375000D01*
X92219428Y-116546428D02*
X91619428Y-116546428D01*
X92219428Y-116175000D02*
X91619428Y-116175000D01*
X91619428Y-115946428D01*
X91648000Y-115889285D01*
X91676571Y-115860714D01*
X91733714Y-115832142D01*
X91819428Y-115832142D01*
X91876571Y-115860714D01*
X91905142Y-115889285D01*
X91933714Y-115946428D01*
X91933714Y-116175000D01*
X92190857Y-115317857D02*
X92219428Y-115375000D01*
X92219428Y-115489285D01*
X92190857Y-115546428D01*
X92162285Y-115575000D01*
X92105142Y-115603571D01*
X91933714Y-115603571D01*
X91876571Y-115575000D01*
X91848000Y-115546428D01*
X91819428Y-115489285D01*
X91819428Y-115375000D01*
X91848000Y-115317857D01*
X91619428Y-114775000D02*
X91619428Y-115060714D01*
X91905142Y-115089285D01*
X91876571Y-115060714D01*
X91848000Y-115003571D01*
X91848000Y-114860714D01*
X91876571Y-114803571D01*
X91905142Y-114775000D01*
X91962285Y-114746428D01*
X92105142Y-114746428D01*
X92162285Y-114775000D01*
X92190857Y-114803571D01*
X92219428Y-114860714D01*
X92219428Y-115003571D01*
X92190857Y-115060714D01*
X92162285Y-115089285D01*
D11*
%TO.C,R4*%
X78894000Y-108983428D02*
X78694000Y-108697714D01*
X78551142Y-108983428D02*
X78551142Y-108383428D01*
X78779714Y-108383428D01*
X78836857Y-108412000D01*
X78865428Y-108440571D01*
X78894000Y-108497714D01*
X78894000Y-108583428D01*
X78865428Y-108640571D01*
X78836857Y-108669142D01*
X78779714Y-108697714D01*
X78551142Y-108697714D01*
X79408285Y-108583428D02*
X79408285Y-108983428D01*
X79265428Y-108354857D02*
X79122571Y-108783428D01*
X79494000Y-108783428D01*
%TO.C,R5*%
X82637333Y-90876380D02*
X82304000Y-90400190D01*
X82065904Y-90876380D02*
X82065904Y-89876380D01*
X82446857Y-89876380D01*
X82542095Y-89924000D01*
X82589714Y-89971619D01*
X82637333Y-90066857D01*
X82637333Y-90209714D01*
X82589714Y-90304952D01*
X82542095Y-90352571D01*
X82446857Y-90400190D01*
X82065904Y-90400190D01*
X83542095Y-89876380D02*
X83065904Y-89876380D01*
X83018285Y-90352571D01*
X83065904Y-90304952D01*
X83161142Y-90257333D01*
X83399238Y-90257333D01*
X83494476Y-90304952D01*
X83542095Y-90352571D01*
X83589714Y-90447809D01*
X83589714Y-90685904D01*
X83542095Y-90781142D01*
X83494476Y-90828761D01*
X83399238Y-90876380D01*
X83161142Y-90876380D01*
X83065904Y-90828761D01*
X83018285Y-90781142D01*
D10*
%TO.C,TPa4*%
X85621428Y-99327857D02*
X85621428Y-98985000D01*
X86221428Y-99156428D02*
X85621428Y-99156428D01*
X86221428Y-98785000D02*
X85621428Y-98785000D01*
X85621428Y-98556428D01*
X85650000Y-98499285D01*
X85678571Y-98470714D01*
X85735714Y-98442142D01*
X85821428Y-98442142D01*
X85878571Y-98470714D01*
X85907142Y-98499285D01*
X85935714Y-98556428D01*
X85935714Y-98785000D01*
X86221428Y-97927857D02*
X85907142Y-97927857D01*
X85850000Y-97956428D01*
X85821428Y-98013571D01*
X85821428Y-98127857D01*
X85850000Y-98185000D01*
X86192857Y-97927857D02*
X86221428Y-97985000D01*
X86221428Y-98127857D01*
X86192857Y-98185000D01*
X86135714Y-98213571D01*
X86078571Y-98213571D01*
X86021428Y-98185000D01*
X85992857Y-98127857D01*
X85992857Y-97985000D01*
X85964285Y-97927857D01*
X85821428Y-97385000D02*
X86221428Y-97385000D01*
X85592857Y-97527857D02*
X86021428Y-97670714D01*
X86021428Y-97299285D01*
D11*
%TO.C,D2*%
X106195904Y-86812380D02*
X106195904Y-85812380D01*
X106434000Y-85812380D01*
X106576857Y-85860000D01*
X106672095Y-85955238D01*
X106719714Y-86050476D01*
X106767333Y-86240952D01*
X106767333Y-86383809D01*
X106719714Y-86574285D01*
X106672095Y-86669523D01*
X106576857Y-86764761D01*
X106434000Y-86812380D01*
X106195904Y-86812380D01*
X107148285Y-85907619D02*
X107195904Y-85860000D01*
X107291142Y-85812380D01*
X107529238Y-85812380D01*
X107624476Y-85860000D01*
X107672095Y-85907619D01*
X107719714Y-86002857D01*
X107719714Y-86098095D01*
X107672095Y-86240952D01*
X107100666Y-86812380D01*
X107719714Y-86812380D01*
%TO.C,C5*%
X115673142Y-103544666D02*
X115720761Y-103592285D01*
X115768380Y-103735142D01*
X115768380Y-103830380D01*
X115720761Y-103973238D01*
X115625523Y-104068476D01*
X115530285Y-104116095D01*
X115339809Y-104163714D01*
X115196952Y-104163714D01*
X115006476Y-104116095D01*
X114911238Y-104068476D01*
X114816000Y-103973238D01*
X114768380Y-103830380D01*
X114768380Y-103735142D01*
X114816000Y-103592285D01*
X114863619Y-103544666D01*
X114768380Y-102639904D02*
X114768380Y-103116095D01*
X115244571Y-103163714D01*
X115196952Y-103116095D01*
X115149333Y-103020857D01*
X115149333Y-102782761D01*
X115196952Y-102687523D01*
X115244571Y-102639904D01*
X115339809Y-102592285D01*
X115577904Y-102592285D01*
X115673142Y-102639904D01*
X115720761Y-102687523D01*
X115768380Y-102782761D01*
X115768380Y-103020857D01*
X115720761Y-103116095D01*
X115673142Y-103163714D01*
D10*
%TO.C,TPb1*%
X95672142Y-102621428D02*
X96015000Y-102621428D01*
X95843571Y-103221428D02*
X95843571Y-102621428D01*
X96215000Y-103221428D02*
X96215000Y-102621428D01*
X96443571Y-102621428D01*
X96500714Y-102650000D01*
X96529285Y-102678571D01*
X96557857Y-102735714D01*
X96557857Y-102821428D01*
X96529285Y-102878571D01*
X96500714Y-102907142D01*
X96443571Y-102935714D01*
X96215000Y-102935714D01*
X96815000Y-103221428D02*
X96815000Y-102621428D01*
X96815000Y-102850000D02*
X96872142Y-102821428D01*
X96986428Y-102821428D01*
X97043571Y-102850000D01*
X97072142Y-102878571D01*
X97100714Y-102935714D01*
X97100714Y-103107142D01*
X97072142Y-103164285D01*
X97043571Y-103192857D01*
X96986428Y-103221428D01*
X96872142Y-103221428D01*
X96815000Y-103192857D01*
X97672142Y-103221428D02*
X97329285Y-103221428D01*
X97500714Y-103221428D02*
X97500714Y-102621428D01*
X97443571Y-102707142D01*
X97386428Y-102764285D01*
X97329285Y-102792857D01*
%TO.C,TPc2*%
X85619428Y-116717857D02*
X85619428Y-116375000D01*
X86219428Y-116546428D02*
X85619428Y-116546428D01*
X86219428Y-116175000D02*
X85619428Y-116175000D01*
X85619428Y-115946428D01*
X85648000Y-115889285D01*
X85676571Y-115860714D01*
X85733714Y-115832142D01*
X85819428Y-115832142D01*
X85876571Y-115860714D01*
X85905142Y-115889285D01*
X85933714Y-115946428D01*
X85933714Y-116175000D01*
X86190857Y-115317857D02*
X86219428Y-115375000D01*
X86219428Y-115489285D01*
X86190857Y-115546428D01*
X86162285Y-115575000D01*
X86105142Y-115603571D01*
X85933714Y-115603571D01*
X85876571Y-115575000D01*
X85848000Y-115546428D01*
X85819428Y-115489285D01*
X85819428Y-115375000D01*
X85848000Y-115317857D01*
X85676571Y-115089285D02*
X85648000Y-115060714D01*
X85619428Y-115003571D01*
X85619428Y-114860714D01*
X85648000Y-114803571D01*
X85676571Y-114775000D01*
X85733714Y-114746428D01*
X85790857Y-114746428D01*
X85876571Y-114775000D01*
X86219428Y-115117857D01*
X86219428Y-114746428D01*
%TO.C,TPa7*%
X91621428Y-99327857D02*
X91621428Y-98985000D01*
X92221428Y-99156428D02*
X91621428Y-99156428D01*
X92221428Y-98785000D02*
X91621428Y-98785000D01*
X91621428Y-98556428D01*
X91650000Y-98499285D01*
X91678571Y-98470714D01*
X91735714Y-98442142D01*
X91821428Y-98442142D01*
X91878571Y-98470714D01*
X91907142Y-98499285D01*
X91935714Y-98556428D01*
X91935714Y-98785000D01*
X92221428Y-97927857D02*
X91907142Y-97927857D01*
X91850000Y-97956428D01*
X91821428Y-98013571D01*
X91821428Y-98127857D01*
X91850000Y-98185000D01*
X92192857Y-97927857D02*
X92221428Y-97985000D01*
X92221428Y-98127857D01*
X92192857Y-98185000D01*
X92135714Y-98213571D01*
X92078571Y-98213571D01*
X92021428Y-98185000D01*
X91992857Y-98127857D01*
X91992857Y-97985000D01*
X91964285Y-97927857D01*
X91621428Y-97699285D02*
X91621428Y-97299285D01*
X92221428Y-97556428D01*
D11*
%TO.C,U1*%
X79298857Y-104827428D02*
X79298857Y-105313142D01*
X79327428Y-105370285D01*
X79356000Y-105398857D01*
X79413142Y-105427428D01*
X79527428Y-105427428D01*
X79584571Y-105398857D01*
X79613142Y-105370285D01*
X79641714Y-105313142D01*
X79641714Y-104827428D01*
X80241714Y-105427428D02*
X79898857Y-105427428D01*
X80070285Y-105427428D02*
X80070285Y-104827428D01*
X80013142Y-104913142D01*
X79956000Y-104970285D01*
X79898857Y-104998857D01*
%TO.C,C4*%
X72731333Y-83415142D02*
X72683714Y-83462761D01*
X72540857Y-83510380D01*
X72445619Y-83510380D01*
X72302761Y-83462761D01*
X72207523Y-83367523D01*
X72159904Y-83272285D01*
X72112285Y-83081809D01*
X72112285Y-82938952D01*
X72159904Y-82748476D01*
X72207523Y-82653238D01*
X72302761Y-82558000D01*
X72445619Y-82510380D01*
X72540857Y-82510380D01*
X72683714Y-82558000D01*
X72731333Y-82605619D01*
X73588476Y-82843714D02*
X73588476Y-83510380D01*
X73350380Y-82462761D02*
X73112285Y-83177047D01*
X73731333Y-83177047D01*
D10*
%TO.C,TPb5*%
X95672142Y-110621428D02*
X96015000Y-110621428D01*
X95843571Y-111221428D02*
X95843571Y-110621428D01*
X96215000Y-111221428D02*
X96215000Y-110621428D01*
X96443571Y-110621428D01*
X96500714Y-110650000D01*
X96529285Y-110678571D01*
X96557857Y-110735714D01*
X96557857Y-110821428D01*
X96529285Y-110878571D01*
X96500714Y-110907142D01*
X96443571Y-110935714D01*
X96215000Y-110935714D01*
X96815000Y-111221428D02*
X96815000Y-110621428D01*
X96815000Y-110850000D02*
X96872142Y-110821428D01*
X96986428Y-110821428D01*
X97043571Y-110850000D01*
X97072142Y-110878571D01*
X97100714Y-110935714D01*
X97100714Y-111107142D01*
X97072142Y-111164285D01*
X97043571Y-111192857D01*
X96986428Y-111221428D01*
X96872142Y-111221428D01*
X96815000Y-111192857D01*
X97643571Y-110621428D02*
X97357857Y-110621428D01*
X97329285Y-110907142D01*
X97357857Y-110878571D01*
X97415000Y-110850000D01*
X97557857Y-110850000D01*
X97615000Y-110878571D01*
X97643571Y-110907142D01*
X97672142Y-110964285D01*
X97672142Y-111107142D01*
X97643571Y-111164285D01*
X97615000Y-111192857D01*
X97557857Y-111221428D01*
X97415000Y-111221428D01*
X97357857Y-111192857D01*
X97329285Y-111164285D01*
D11*
%TO.C,C3*%
X86447333Y-88495142D02*
X86399714Y-88542761D01*
X86256857Y-88590380D01*
X86161619Y-88590380D01*
X86018761Y-88542761D01*
X85923523Y-88447523D01*
X85875904Y-88352285D01*
X85828285Y-88161809D01*
X85828285Y-88018952D01*
X85875904Y-87828476D01*
X85923523Y-87733238D01*
X86018761Y-87638000D01*
X86161619Y-87590380D01*
X86256857Y-87590380D01*
X86399714Y-87638000D01*
X86447333Y-87685619D01*
X86780666Y-87590380D02*
X87399714Y-87590380D01*
X87066380Y-87971333D01*
X87209238Y-87971333D01*
X87304476Y-88018952D01*
X87352095Y-88066571D01*
X87399714Y-88161809D01*
X87399714Y-88399904D01*
X87352095Y-88495142D01*
X87304476Y-88542761D01*
X87209238Y-88590380D01*
X86923523Y-88590380D01*
X86828285Y-88542761D01*
X86780666Y-88495142D01*
D10*
%TO.C,REF\u002A\u002A*%
X72028518Y-113605655D02*
X72382072Y-113252102D01*
X72466251Y-113336281D01*
X72499923Y-113403624D01*
X72499923Y-113470968D01*
X72483087Y-113521476D01*
X72432579Y-113605655D01*
X72382072Y-113656163D01*
X72297892Y-113706670D01*
X72247385Y-113723506D01*
X72180041Y-113723506D01*
X72112698Y-113689834D01*
X72028518Y-113605655D01*
X72533595Y-114110731D02*
X72718789Y-113925537D01*
X72735625Y-113875029D01*
X72718789Y-113824521D01*
X72651446Y-113757178D01*
X72600938Y-113740342D01*
X72550430Y-114093895D02*
X72499923Y-114077059D01*
X72415743Y-113992880D01*
X72398908Y-113942372D01*
X72415743Y-113891865D01*
X72449415Y-113858193D01*
X72499923Y-113841357D01*
X72550430Y-113858193D01*
X72634610Y-113942372D01*
X72685117Y-113959208D01*
X73089178Y-114194911D02*
X72802969Y-114481121D01*
X72752461Y-114497956D01*
X72718789Y-114497956D01*
X72668282Y-114481121D01*
X72617774Y-114430613D01*
X72600938Y-114380105D01*
X72870312Y-114413777D02*
X72819804Y-114396941D01*
X72752461Y-114329598D01*
X72735625Y-114279090D01*
X72735625Y-114245418D01*
X72752461Y-114194911D01*
X72853476Y-114093895D01*
X72903984Y-114077059D01*
X72937656Y-114077059D01*
X72988163Y-114093895D01*
X73055507Y-114161239D01*
X73072343Y-114211746D01*
X73257537Y-114363269D02*
X73021835Y-114598972D01*
X73223865Y-114396941D02*
X73257537Y-114396941D01*
X73308045Y-114413777D01*
X73358552Y-114464285D01*
X73375388Y-114514792D01*
X73358552Y-114565300D01*
X73173358Y-114750495D01*
X73493239Y-115070376D02*
X73678434Y-114885182D01*
X73695270Y-114834674D01*
X73678434Y-114784166D01*
X73611091Y-114716823D01*
X73560583Y-114699987D01*
X73510075Y-115053540D02*
X73459568Y-115036704D01*
X73375388Y-114952525D01*
X73358552Y-114902017D01*
X73375388Y-114851510D01*
X73409060Y-114817838D01*
X73459568Y-114801002D01*
X73510075Y-114817838D01*
X73594255Y-114902017D01*
X73644762Y-114918853D01*
X73661598Y-115238735D02*
X74015152Y-114885182D01*
X73880465Y-115019869D02*
X73930972Y-115036704D01*
X73998316Y-115104048D01*
X74015152Y-115154556D01*
X74015152Y-115188227D01*
X73998316Y-115238735D01*
X73897301Y-115339750D01*
X73846793Y-115356586D01*
X73813121Y-115356586D01*
X73762613Y-115339750D01*
X73695270Y-115272407D01*
X73678434Y-115221899D01*
X73981480Y-115558617D02*
X74335033Y-115205063D01*
X74200346Y-115339750D02*
X74250854Y-115356586D01*
X74318197Y-115423930D01*
X74335033Y-115474437D01*
X74335033Y-115508109D01*
X74318197Y-115558617D01*
X74217182Y-115659632D01*
X74166675Y-115676468D01*
X74133003Y-115676468D01*
X74082495Y-115659632D01*
X74015152Y-115592288D01*
X73998316Y-115541781D01*
X74301362Y-115878498D02*
X74537064Y-115642796D01*
X74654915Y-115524945D02*
X74621243Y-115524945D01*
X74621243Y-115558617D01*
X74654915Y-115558617D01*
X74654915Y-115524945D01*
X74621243Y-115558617D01*
X74654915Y-115760647D02*
X74789602Y-115895334D01*
X74823274Y-115693304D02*
X74520228Y-115996349D01*
X74503392Y-116046857D01*
X74520228Y-116097365D01*
X74553900Y-116131036D01*
X71888612Y-114604191D02*
X71939120Y-114317981D01*
X71686582Y-114402160D02*
X72040135Y-114048607D01*
X72174822Y-114183294D01*
X72191658Y-114233801D01*
X72191658Y-114267473D01*
X72174822Y-114317981D01*
X72124314Y-114368489D01*
X72073807Y-114385324D01*
X72040135Y-114385324D01*
X71989627Y-114368489D01*
X71854940Y-114233801D01*
X72191658Y-114907237D02*
X72376853Y-114722042D01*
X72393688Y-114671534D01*
X72376853Y-114621027D01*
X72309509Y-114553683D01*
X72259001Y-114536847D01*
X72208494Y-114890401D02*
X72157986Y-114873565D01*
X72073807Y-114789385D01*
X72056971Y-114738878D01*
X72073807Y-114688370D01*
X72107479Y-114654698D01*
X72157986Y-114637863D01*
X72208494Y-114654698D01*
X72292673Y-114738878D01*
X72343181Y-114755714D01*
X72360017Y-115075595D02*
X72713570Y-114722042D01*
X72578883Y-114856729D02*
X72629391Y-114873565D01*
X72696734Y-114940908D01*
X72713570Y-114991416D01*
X72713570Y-115025088D01*
X72696734Y-115075595D01*
X72595719Y-115176611D01*
X72545211Y-115193446D01*
X72511540Y-115193446D01*
X72461032Y-115176611D01*
X72393688Y-115109267D01*
X72376853Y-115058759D01*
X72679898Y-115395477D02*
X73033452Y-115041924D01*
X72898765Y-115176611D02*
X72949272Y-115193446D01*
X73016616Y-115260790D01*
X73033452Y-115311298D01*
X73033452Y-115344969D01*
X73016616Y-115395477D01*
X72915601Y-115496492D01*
X72865093Y-115513328D01*
X72831421Y-115513328D01*
X72780914Y-115496492D01*
X72713570Y-115429149D01*
X72696734Y-115378641D01*
X72999780Y-115715359D02*
X73235482Y-115479656D01*
X73353333Y-115361805D02*
X73319662Y-115361805D01*
X73319662Y-115395477D01*
X73353333Y-115395477D01*
X73353333Y-115361805D01*
X73319662Y-115395477D01*
X73353333Y-115597507D02*
X73488020Y-115732194D01*
X73521692Y-115530164D02*
X73218646Y-115833210D01*
X73201810Y-115883717D01*
X73218646Y-115934225D01*
X73252318Y-115967897D01*
X73403841Y-116052076D02*
X73403841Y-116085748D01*
X73370169Y-116085748D01*
X73370169Y-116052076D01*
X73403841Y-116052076D01*
X73370169Y-116085748D01*
X73504856Y-115951061D02*
X73690051Y-115732194D01*
X73723723Y-115732194D01*
X73723723Y-115765866D01*
X73504856Y-115951061D01*
X73723723Y-115732194D01*
X73572200Y-116220435D02*
X73572200Y-116254107D01*
X73538528Y-116254107D01*
X73538528Y-116220435D01*
X73572200Y-116220435D01*
X73538528Y-116254107D01*
X73673215Y-116119420D02*
X73858410Y-115900553D01*
X73892081Y-115900553D01*
X73892081Y-115934225D01*
X73673215Y-116119420D01*
X73892081Y-115900553D01*
X73740558Y-116388794D02*
X73740558Y-116422465D01*
X73706887Y-116422465D01*
X73706887Y-116388794D01*
X73740558Y-116388794D01*
X73706887Y-116422465D01*
X73841574Y-116287778D02*
X74026768Y-116068912D01*
X74060440Y-116068912D01*
X74060440Y-116102584D01*
X73841574Y-116287778D01*
X74060440Y-116068912D01*
D11*
%TO.C,R7*%
X144934000Y-104411428D02*
X144734000Y-104125714D01*
X144591142Y-104411428D02*
X144591142Y-103811428D01*
X144819714Y-103811428D01*
X144876857Y-103840000D01*
X144905428Y-103868571D01*
X144934000Y-103925714D01*
X144934000Y-104011428D01*
X144905428Y-104068571D01*
X144876857Y-104097142D01*
X144819714Y-104125714D01*
X144591142Y-104125714D01*
X145134000Y-103811428D02*
X145534000Y-103811428D01*
X145276857Y-104411428D01*
D10*
%TO.C,TPa6*%
X89621428Y-99327857D02*
X89621428Y-98985000D01*
X90221428Y-99156428D02*
X89621428Y-99156428D01*
X90221428Y-98785000D02*
X89621428Y-98785000D01*
X89621428Y-98556428D01*
X89650000Y-98499285D01*
X89678571Y-98470714D01*
X89735714Y-98442142D01*
X89821428Y-98442142D01*
X89878571Y-98470714D01*
X89907142Y-98499285D01*
X89935714Y-98556428D01*
X89935714Y-98785000D01*
X90221428Y-97927857D02*
X89907142Y-97927857D01*
X89850000Y-97956428D01*
X89821428Y-98013571D01*
X89821428Y-98127857D01*
X89850000Y-98185000D01*
X90192857Y-97927857D02*
X90221428Y-97985000D01*
X90221428Y-98127857D01*
X90192857Y-98185000D01*
X90135714Y-98213571D01*
X90078571Y-98213571D01*
X90021428Y-98185000D01*
X89992857Y-98127857D01*
X89992857Y-97985000D01*
X89964285Y-97927857D01*
X89621428Y-97385000D02*
X89621428Y-97499285D01*
X89650000Y-97556428D01*
X89678571Y-97585000D01*
X89764285Y-97642142D01*
X89878571Y-97670714D01*
X90107142Y-97670714D01*
X90164285Y-97642142D01*
X90192857Y-97613571D01*
X90221428Y-97556428D01*
X90221428Y-97442142D01*
X90192857Y-97385000D01*
X90164285Y-97356428D01*
X90107142Y-97327857D01*
X89964285Y-97327857D01*
X89907142Y-97356428D01*
X89878571Y-97385000D01*
X89850000Y-97442142D01*
X89850000Y-97556428D01*
X89878571Y-97613571D01*
X89907142Y-97642142D01*
X89964285Y-97670714D01*
%TO.C,TPa1*%
X79621428Y-99327857D02*
X79621428Y-98985000D01*
X80221428Y-99156428D02*
X79621428Y-99156428D01*
X80221428Y-98785000D02*
X79621428Y-98785000D01*
X79621428Y-98556428D01*
X79650000Y-98499285D01*
X79678571Y-98470714D01*
X79735714Y-98442142D01*
X79821428Y-98442142D01*
X79878571Y-98470714D01*
X79907142Y-98499285D01*
X79935714Y-98556428D01*
X79935714Y-98785000D01*
X80221428Y-97927857D02*
X79907142Y-97927857D01*
X79850000Y-97956428D01*
X79821428Y-98013571D01*
X79821428Y-98127857D01*
X79850000Y-98185000D01*
X80192857Y-97927857D02*
X80221428Y-97985000D01*
X80221428Y-98127857D01*
X80192857Y-98185000D01*
X80135714Y-98213571D01*
X80078571Y-98213571D01*
X80021428Y-98185000D01*
X79992857Y-98127857D01*
X79992857Y-97985000D01*
X79964285Y-97927857D01*
X80221428Y-97327857D02*
X80221428Y-97670714D01*
X80221428Y-97499285D02*
X79621428Y-97499285D01*
X79707142Y-97556428D01*
X79764285Y-97613571D01*
X79792857Y-97670714D01*
%TO.C,TPb2*%
X95672142Y-104621428D02*
X96015000Y-104621428D01*
X95843571Y-105221428D02*
X95843571Y-104621428D01*
X96215000Y-105221428D02*
X96215000Y-104621428D01*
X96443571Y-104621428D01*
X96500714Y-104650000D01*
X96529285Y-104678571D01*
X96557857Y-104735714D01*
X96557857Y-104821428D01*
X96529285Y-104878571D01*
X96500714Y-104907142D01*
X96443571Y-104935714D01*
X96215000Y-104935714D01*
X96815000Y-105221428D02*
X96815000Y-104621428D01*
X96815000Y-104850000D02*
X96872142Y-104821428D01*
X96986428Y-104821428D01*
X97043571Y-104850000D01*
X97072142Y-104878571D01*
X97100714Y-104935714D01*
X97100714Y-105107142D01*
X97072142Y-105164285D01*
X97043571Y-105192857D01*
X96986428Y-105221428D01*
X96872142Y-105221428D01*
X96815000Y-105192857D01*
X97329285Y-104678571D02*
X97357857Y-104650000D01*
X97415000Y-104621428D01*
X97557857Y-104621428D01*
X97615000Y-104650000D01*
X97643571Y-104678571D01*
X97672142Y-104735714D01*
X97672142Y-104792857D01*
X97643571Y-104878571D01*
X97300714Y-105221428D01*
X97672142Y-105221428D01*
D11*
%TO.C,R2*%
X75540000Y-105503428D02*
X75340000Y-105217714D01*
X75197142Y-105503428D02*
X75197142Y-104903428D01*
X75425714Y-104903428D01*
X75482857Y-104932000D01*
X75511428Y-104960571D01*
X75540000Y-105017714D01*
X75540000Y-105103428D01*
X75511428Y-105160571D01*
X75482857Y-105189142D01*
X75425714Y-105217714D01*
X75197142Y-105217714D01*
X75768571Y-104960571D02*
X75797142Y-104932000D01*
X75854285Y-104903428D01*
X75997142Y-104903428D01*
X76054285Y-104932000D01*
X76082857Y-104960571D01*
X76111428Y-105017714D01*
X76111428Y-105074857D01*
X76082857Y-105160571D01*
X75740000Y-105503428D01*
X76111428Y-105503428D01*
D10*
%TO.C,TPa5*%
X87621428Y-99327857D02*
X87621428Y-98985000D01*
X88221428Y-99156428D02*
X87621428Y-99156428D01*
X88221428Y-98785000D02*
X87621428Y-98785000D01*
X87621428Y-98556428D01*
X87650000Y-98499285D01*
X87678571Y-98470714D01*
X87735714Y-98442142D01*
X87821428Y-98442142D01*
X87878571Y-98470714D01*
X87907142Y-98499285D01*
X87935714Y-98556428D01*
X87935714Y-98785000D01*
X88221428Y-97927857D02*
X87907142Y-97927857D01*
X87850000Y-97956428D01*
X87821428Y-98013571D01*
X87821428Y-98127857D01*
X87850000Y-98185000D01*
X88192857Y-97927857D02*
X88221428Y-97985000D01*
X88221428Y-98127857D01*
X88192857Y-98185000D01*
X88135714Y-98213571D01*
X88078571Y-98213571D01*
X88021428Y-98185000D01*
X87992857Y-98127857D01*
X87992857Y-97985000D01*
X87964285Y-97927857D01*
X87621428Y-97356428D02*
X87621428Y-97642142D01*
X87907142Y-97670714D01*
X87878571Y-97642142D01*
X87850000Y-97585000D01*
X87850000Y-97442142D01*
X87878571Y-97385000D01*
X87907142Y-97356428D01*
X87964285Y-97327857D01*
X88107142Y-97327857D01*
X88164285Y-97356428D01*
X88192857Y-97385000D01*
X88221428Y-97442142D01*
X88221428Y-97585000D01*
X88192857Y-97642142D01*
X88164285Y-97670714D01*
D11*
%TO.C,U2*%
X96266095Y-82464380D02*
X96266095Y-83273904D01*
X96313714Y-83369142D01*
X96361333Y-83416761D01*
X96456571Y-83464380D01*
X96647047Y-83464380D01*
X96742285Y-83416761D01*
X96789904Y-83369142D01*
X96837523Y-83273904D01*
X96837523Y-82464380D01*
X97266095Y-82559619D02*
X97313714Y-82512000D01*
X97408952Y-82464380D01*
X97647047Y-82464380D01*
X97742285Y-82512000D01*
X97789904Y-82559619D01*
X97837523Y-82654857D01*
X97837523Y-82750095D01*
X97789904Y-82892952D01*
X97218476Y-83464380D01*
X97837523Y-83464380D01*
D10*
%TO.C,TPb7*%
X95672142Y-114621428D02*
X96015000Y-114621428D01*
X95843571Y-115221428D02*
X95843571Y-114621428D01*
X96215000Y-115221428D02*
X96215000Y-114621428D01*
X96443571Y-114621428D01*
X96500714Y-114650000D01*
X96529285Y-114678571D01*
X96557857Y-114735714D01*
X96557857Y-114821428D01*
X96529285Y-114878571D01*
X96500714Y-114907142D01*
X96443571Y-114935714D01*
X96215000Y-114935714D01*
X96815000Y-115221428D02*
X96815000Y-114621428D01*
X96815000Y-114850000D02*
X96872142Y-114821428D01*
X96986428Y-114821428D01*
X97043571Y-114850000D01*
X97072142Y-114878571D01*
X97100714Y-114935714D01*
X97100714Y-115107142D01*
X97072142Y-115164285D01*
X97043571Y-115192857D01*
X96986428Y-115221428D01*
X96872142Y-115221428D01*
X96815000Y-115192857D01*
X97300714Y-114621428D02*
X97700714Y-114621428D01*
X97443571Y-115221428D01*
%TO.C,TPb0*%
X95672142Y-100621428D02*
X96015000Y-100621428D01*
X95843571Y-101221428D02*
X95843571Y-100621428D01*
X96215000Y-101221428D02*
X96215000Y-100621428D01*
X96443571Y-100621428D01*
X96500714Y-100650000D01*
X96529285Y-100678571D01*
X96557857Y-100735714D01*
X96557857Y-100821428D01*
X96529285Y-100878571D01*
X96500714Y-100907142D01*
X96443571Y-100935714D01*
X96215000Y-100935714D01*
X96815000Y-101221428D02*
X96815000Y-100621428D01*
X96815000Y-100850000D02*
X96872142Y-100821428D01*
X96986428Y-100821428D01*
X97043571Y-100850000D01*
X97072142Y-100878571D01*
X97100714Y-100935714D01*
X97100714Y-101107142D01*
X97072142Y-101164285D01*
X97043571Y-101192857D01*
X96986428Y-101221428D01*
X96872142Y-101221428D01*
X96815000Y-101192857D01*
X97472142Y-100621428D02*
X97529285Y-100621428D01*
X97586428Y-100650000D01*
X97615000Y-100678571D01*
X97643571Y-100735714D01*
X97672142Y-100850000D01*
X97672142Y-100992857D01*
X97643571Y-101107142D01*
X97615000Y-101164285D01*
X97586428Y-101192857D01*
X97529285Y-101221428D01*
X97472142Y-101221428D01*
X97415000Y-101192857D01*
X97386428Y-101164285D01*
X97357857Y-101107142D01*
X97329285Y-100992857D01*
X97329285Y-100850000D01*
X97357857Y-100735714D01*
X97386428Y-100678571D01*
X97415000Y-100650000D01*
X97472142Y-100621428D01*
D11*
%TO.C,J1*%
X134952380Y-112333333D02*
X135666666Y-112333333D01*
X135809523Y-112380952D01*
X135904761Y-112476190D01*
X135952380Y-112619047D01*
X135952380Y-112714285D01*
X135952380Y-111333333D02*
X135952380Y-111904761D01*
X135952380Y-111619047D02*
X134952380Y-111619047D01*
X135095238Y-111714285D01*
X135190476Y-111809523D01*
X135238095Y-111904761D01*
D10*
%TO.C,TPb3*%
X95672142Y-106621428D02*
X96015000Y-106621428D01*
X95843571Y-107221428D02*
X95843571Y-106621428D01*
X96215000Y-107221428D02*
X96215000Y-106621428D01*
X96443571Y-106621428D01*
X96500714Y-106650000D01*
X96529285Y-106678571D01*
X96557857Y-106735714D01*
X96557857Y-106821428D01*
X96529285Y-106878571D01*
X96500714Y-106907142D01*
X96443571Y-106935714D01*
X96215000Y-106935714D01*
X96815000Y-107221428D02*
X96815000Y-106621428D01*
X96815000Y-106850000D02*
X96872142Y-106821428D01*
X96986428Y-106821428D01*
X97043571Y-106850000D01*
X97072142Y-106878571D01*
X97100714Y-106935714D01*
X97100714Y-107107142D01*
X97072142Y-107164285D01*
X97043571Y-107192857D01*
X96986428Y-107221428D01*
X96872142Y-107221428D01*
X96815000Y-107192857D01*
X97300714Y-106621428D02*
X97672142Y-106621428D01*
X97472142Y-106850000D01*
X97557857Y-106850000D01*
X97615000Y-106878571D01*
X97643571Y-106907142D01*
X97672142Y-106964285D01*
X97672142Y-107107142D01*
X97643571Y-107164285D01*
X97615000Y-107192857D01*
X97557857Y-107221428D01*
X97386428Y-107221428D01*
X97329285Y-107192857D01*
X97300714Y-107164285D01*
D11*
%TO.C,D1*%
X59755142Y-84345428D02*
X59755142Y-83745428D01*
X59898000Y-83745428D01*
X59983714Y-83774000D01*
X60040857Y-83831142D01*
X60069428Y-83888285D01*
X60098000Y-84002571D01*
X60098000Y-84088285D01*
X60069428Y-84202571D01*
X60040857Y-84259714D01*
X59983714Y-84316857D01*
X59898000Y-84345428D01*
X59755142Y-84345428D01*
X60669428Y-84345428D02*
X60326571Y-84345428D01*
X60498000Y-84345428D02*
X60498000Y-83745428D01*
X60440857Y-83831142D01*
X60383714Y-83888285D01*
X60326571Y-83916857D01*
D10*
%TO.C,TPc3*%
X87619428Y-116717857D02*
X87619428Y-116375000D01*
X88219428Y-116546428D02*
X87619428Y-116546428D01*
X88219428Y-116175000D02*
X87619428Y-116175000D01*
X87619428Y-115946428D01*
X87648000Y-115889285D01*
X87676571Y-115860714D01*
X87733714Y-115832142D01*
X87819428Y-115832142D01*
X87876571Y-115860714D01*
X87905142Y-115889285D01*
X87933714Y-115946428D01*
X87933714Y-116175000D01*
X88190857Y-115317857D02*
X88219428Y-115375000D01*
X88219428Y-115489285D01*
X88190857Y-115546428D01*
X88162285Y-115575000D01*
X88105142Y-115603571D01*
X87933714Y-115603571D01*
X87876571Y-115575000D01*
X87848000Y-115546428D01*
X87819428Y-115489285D01*
X87819428Y-115375000D01*
X87848000Y-115317857D01*
X87619428Y-115117857D02*
X87619428Y-114746428D01*
X87848000Y-114946428D01*
X87848000Y-114860714D01*
X87876571Y-114803571D01*
X87905142Y-114775000D01*
X87962285Y-114746428D01*
X88105142Y-114746428D01*
X88162285Y-114775000D01*
X88190857Y-114803571D01*
X88219428Y-114860714D01*
X88219428Y-115032142D01*
X88190857Y-115089285D01*
X88162285Y-115117857D01*
%TO.C,TPa3*%
X83621428Y-99327857D02*
X83621428Y-98985000D01*
X84221428Y-99156428D02*
X83621428Y-99156428D01*
X84221428Y-98785000D02*
X83621428Y-98785000D01*
X83621428Y-98556428D01*
X83650000Y-98499285D01*
X83678571Y-98470714D01*
X83735714Y-98442142D01*
X83821428Y-98442142D01*
X83878571Y-98470714D01*
X83907142Y-98499285D01*
X83935714Y-98556428D01*
X83935714Y-98785000D01*
X84221428Y-97927857D02*
X83907142Y-97927857D01*
X83850000Y-97956428D01*
X83821428Y-98013571D01*
X83821428Y-98127857D01*
X83850000Y-98185000D01*
X84192857Y-97927857D02*
X84221428Y-97985000D01*
X84221428Y-98127857D01*
X84192857Y-98185000D01*
X84135714Y-98213571D01*
X84078571Y-98213571D01*
X84021428Y-98185000D01*
X83992857Y-98127857D01*
X83992857Y-97985000D01*
X83964285Y-97927857D01*
X83621428Y-97699285D02*
X83621428Y-97327857D01*
X83850000Y-97527857D01*
X83850000Y-97442142D01*
X83878571Y-97385000D01*
X83907142Y-97356428D01*
X83964285Y-97327857D01*
X84107142Y-97327857D01*
X84164285Y-97356428D01*
X84192857Y-97385000D01*
X84221428Y-97442142D01*
X84221428Y-97613571D01*
X84192857Y-97670714D01*
X84164285Y-97699285D01*
%TO.C,TPb6*%
X95672142Y-112621428D02*
X96015000Y-112621428D01*
X95843571Y-113221428D02*
X95843571Y-112621428D01*
X96215000Y-113221428D02*
X96215000Y-112621428D01*
X96443571Y-112621428D01*
X96500714Y-112650000D01*
X96529285Y-112678571D01*
X96557857Y-112735714D01*
X96557857Y-112821428D01*
X96529285Y-112878571D01*
X96500714Y-112907142D01*
X96443571Y-112935714D01*
X96215000Y-112935714D01*
X96815000Y-113221428D02*
X96815000Y-112621428D01*
X96815000Y-112850000D02*
X96872142Y-112821428D01*
X96986428Y-112821428D01*
X97043571Y-112850000D01*
X97072142Y-112878571D01*
X97100714Y-112935714D01*
X97100714Y-113107142D01*
X97072142Y-113164285D01*
X97043571Y-113192857D01*
X96986428Y-113221428D01*
X96872142Y-113221428D01*
X96815000Y-113192857D01*
X97615000Y-112621428D02*
X97500714Y-112621428D01*
X97443571Y-112650000D01*
X97415000Y-112678571D01*
X97357857Y-112764285D01*
X97329285Y-112878571D01*
X97329285Y-113107142D01*
X97357857Y-113164285D01*
X97386428Y-113192857D01*
X97443571Y-113221428D01*
X97557857Y-113221428D01*
X97615000Y-113192857D01*
X97643571Y-113164285D01*
X97672142Y-113107142D01*
X97672142Y-112964285D01*
X97643571Y-112907142D01*
X97615000Y-112878571D01*
X97557857Y-112850000D01*
X97443571Y-112850000D01*
X97386428Y-112878571D01*
X97357857Y-112907142D01*
X97329285Y-112964285D01*
D11*
%TO.C,R6*%
X82637333Y-94432380D02*
X82304000Y-93956190D01*
X82065904Y-94432380D02*
X82065904Y-93432380D01*
X82446857Y-93432380D01*
X82542095Y-93480000D01*
X82589714Y-93527619D01*
X82637333Y-93622857D01*
X82637333Y-93765714D01*
X82589714Y-93860952D01*
X82542095Y-93908571D01*
X82446857Y-93956190D01*
X82065904Y-93956190D01*
X83494476Y-93432380D02*
X83304000Y-93432380D01*
X83208761Y-93480000D01*
X83161142Y-93527619D01*
X83065904Y-93670476D01*
X83018285Y-93860952D01*
X83018285Y-94241904D01*
X83065904Y-94337142D01*
X83113523Y-94384761D01*
X83208761Y-94432380D01*
X83399238Y-94432380D01*
X83494476Y-94384761D01*
X83542095Y-94337142D01*
X83589714Y-94241904D01*
X83589714Y-94003809D01*
X83542095Y-93908571D01*
X83494476Y-93860952D01*
X83399238Y-93813333D01*
X83208761Y-93813333D01*
X83113523Y-93860952D01*
X83065904Y-93908571D01*
X83018285Y-94003809D01*
D12*
%TO.C,C2*%
X71532030Y-110449219D02*
X71333219Y-110648030D01*
X70810781Y-109727970D02*
X70611970Y-109926781D01*
%TO.C,R3*%
X76164742Y-107249500D02*
X76639258Y-107249500D01*
X76164742Y-108294500D02*
X76639258Y-108294500D01*
%TO.C,TP3*%
X69700000Y-106000000D02*
G75*
G03*
X69700000Y-106000000I-700000J0D01*
G01*
%TO.C,TP1*%
X61700000Y-94000000D02*
G75*
G03*
X61700000Y-94000000I-700000J0D01*
G01*
%TO.C,TPc4*%
X89700000Y-114000000D02*
G75*
G03*
X89700000Y-114000000I-700000J0D01*
G01*
%TO.C,C1*%
X83400580Y-111254000D02*
X83119420Y-111254000D01*
X83400580Y-110234000D02*
X83119420Y-110234000D01*
%TO.C,L1*%
X121362000Y-82854000D02*
X121362000Y-95454000D01*
X118362000Y-82854000D02*
X121362000Y-82854000D01*
X108762000Y-82854000D02*
X111762000Y-82854000D01*
X111762000Y-95454000D02*
X108762000Y-95454000D01*
X121362000Y-95454000D02*
X118362000Y-95454000D01*
X108762000Y-95454000D02*
X108762000Y-82854000D01*
%TO.C,TPb4*%
X95700000Y-108000000D02*
G75*
G03*
X95700000Y-108000000I-700000J0D01*
G01*
D11*
%TO.C,F1*%
X61236000Y-86630000D02*
X63116000Y-86630000D01*
X61236000Y-91170000D02*
X63116000Y-91170000D01*
X61086000Y-89830000D02*
X61086000Y-91020000D01*
X61086000Y-87970000D02*
X61086000Y-86780000D01*
X63266000Y-86780000D02*
X63266000Y-87970000D01*
X63266000Y-91020000D02*
X63266000Y-89830000D01*
D13*
X61336000Y-88900000D02*
G75*
G03*
X62178199Y-88898731I420000J730000D01*
G01*
X63016000Y-88900000D02*
G75*
G03*
X62173801Y-88901269I-420001J-729999D01*
G01*
D12*
%TO.C,R1*%
X76641500Y-102962742D02*
X76641500Y-103437258D01*
X77686500Y-102962742D02*
X77686500Y-103437258D01*
%TO.C,D3*%
X149567000Y-105891000D02*
X149567000Y-104421000D01*
X149567000Y-104421000D02*
X147282000Y-104421000D01*
X147282000Y-105891000D02*
X149567000Y-105891000D01*
%TO.C,TPa2*%
X81700000Y-100000000D02*
G75*
G03*
X81700000Y-100000000I-700000J0D01*
G01*
%TO.C,TPc5*%
X91700000Y-114000000D02*
G75*
G03*
X91700000Y-114000000I-700000J0D01*
G01*
%TO.C,R4*%
X79522500Y-110362742D02*
X79522500Y-110837258D01*
X78477500Y-110362742D02*
X78477500Y-110837258D01*
%TO.C,TP20*%
X111400000Y-97536000D02*
G75*
G03*
X111400000Y-97536000I-700000J0D01*
G01*
%TO.C,R5*%
X85317000Y-90196936D02*
X85317000Y-90651064D01*
X83847000Y-90196936D02*
X83847000Y-90651064D01*
%TO.C,TPa4*%
X85700000Y-100000000D02*
G75*
G03*
X85700000Y-100000000I-700000J0D01*
G01*
%TO.C,D2*%
X107934000Y-87158000D02*
X107934000Y-91058000D01*
X105934000Y-87158000D02*
X105934000Y-91058000D01*
X107934000Y-87158000D02*
X105934000Y-87158000D01*
%TO.C,TP11*%
X87822000Y-93218000D02*
G75*
G03*
X87822000Y-93218000I-700000J0D01*
G01*
%TO.C,TP19*%
X81700000Y-114000000D02*
G75*
G03*
X81700000Y-114000000I-700000J0D01*
G01*
%TO.C,C5*%
X114226000Y-109859563D02*
X113161563Y-110924000D01*
X115716000Y-108124000D02*
X114466000Y-108124000D01*
X114226000Y-101468437D02*
X114226000Y-104454000D01*
X114226000Y-101468437D02*
X113161563Y-100404000D01*
X115091000Y-108749000D02*
X115091000Y-107499000D01*
X103706000Y-110924000D02*
X103706000Y-106874000D01*
X114226000Y-109859563D02*
X114226000Y-106874000D01*
X113161563Y-110924000D02*
X103706000Y-110924000D01*
X103706000Y-100404000D02*
X103706000Y-104454000D01*
X113161563Y-100404000D02*
X103706000Y-100404000D01*
%TO.C,TPb1*%
X95700000Y-102000000D02*
G75*
G03*
X95700000Y-102000000I-700000J0D01*
G01*
%TO.C,TPc2*%
X85700000Y-114000000D02*
G75*
G03*
X85700000Y-114000000I-700000J0D01*
G01*
%TO.C,TPa7*%
X91700000Y-100000000D02*
G75*
G03*
X91700000Y-100000000I-700000J0D01*
G01*
%TO.C,U1*%
X81150000Y-105375000D02*
X81150000Y-104900000D01*
X81150000Y-104900000D02*
X81625000Y-104900000D01*
X85370000Y-108645000D02*
X85370000Y-109120000D01*
X85370000Y-109120000D02*
X84895000Y-109120000D01*
X85370000Y-105375000D02*
X85370000Y-104900000D01*
X85370000Y-104900000D02*
X84895000Y-104900000D01*
X81150000Y-108645000D02*
X81150000Y-109120000D01*
%TO.C,G\u002A\u002A\u002A*%
G36*
X61420000Y-99020000D02*
G01*
X61400000Y-99040000D01*
X61380000Y-99020000D01*
X61400000Y-99000000D01*
X61420000Y-99020000D01*
G37*
G36*
X61260000Y-99020000D02*
G01*
X61240000Y-99040000D01*
X61220000Y-99020000D01*
X61240000Y-99000000D01*
X61260000Y-99020000D01*
G37*
G36*
X61334013Y-100422763D02*
G01*
X61336842Y-100463334D01*
X61327073Y-100506015D01*
X61312675Y-100487500D01*
X61307906Y-100424985D01*
X61315833Y-100410834D01*
X61334013Y-100422763D01*
G37*
G36*
X59938960Y-99853648D02*
G01*
X59940000Y-99857640D01*
X59911970Y-99891791D01*
X59900000Y-99900000D01*
X59863140Y-99896829D01*
X59860000Y-99882361D01*
X59889036Y-99841628D01*
X59900000Y-99840000D01*
X59938960Y-99853648D01*
G37*
G36*
X61900000Y-98860000D02*
G01*
X61880000Y-98880000D01*
X61860000Y-98860000D01*
X61880000Y-98840000D01*
X61900000Y-98860000D01*
G37*
G36*
X60436946Y-100712459D02*
G01*
X60429381Y-100774717D01*
X60438740Y-100890647D01*
X60443495Y-100935278D01*
X60457851Y-101067008D01*
X60468764Y-101163482D01*
X60473334Y-101200000D01*
X60468303Y-101249060D01*
X60451255Y-101341370D01*
X60449450Y-101350000D01*
X60412411Y-101447243D01*
X60393333Y-101457225D01*
X60370436Y-101469206D01*
X60350257Y-101479764D01*
X60342407Y-101480001D01*
X60269422Y-101456880D01*
X60216395Y-101380244D01*
X60177233Y-101239178D01*
X60163742Y-101160000D01*
X60132066Y-100980804D01*
X60388546Y-100980804D01*
X60393333Y-100986667D01*
X60417113Y-100981176D01*
X60420000Y-100960000D01*
X60405364Y-100927076D01*
X60393333Y-100933334D01*
X60388546Y-100980804D01*
X60132066Y-100980804D01*
X60127295Y-100953815D01*
X60089425Y-100824369D01*
X60346284Y-100824369D01*
X60352675Y-100847500D01*
X60370436Y-100862652D01*
X60376842Y-100823334D01*
X60369487Y-100771453D01*
X60360000Y-100771023D01*
X60355833Y-100770834D01*
X60346284Y-100824369D01*
X60089425Y-100824369D01*
X60085068Y-100809477D01*
X60050436Y-100749083D01*
X60027407Y-100708924D01*
X59973304Y-100660000D01*
X60340000Y-100660000D01*
X60360000Y-100680000D01*
X60380000Y-100660000D01*
X60360000Y-100640000D01*
X60340000Y-100660000D01*
X59973304Y-100660000D01*
X59964020Y-100651605D01*
X59944659Y-100634098D01*
X59854139Y-100580743D01*
X59845159Y-100576258D01*
X59741301Y-100524390D01*
X59695943Y-100504369D01*
X60026284Y-100504369D01*
X60032675Y-100527500D01*
X60050436Y-100542652D01*
X60056842Y-100503334D01*
X60049487Y-100451453D01*
X60035833Y-100450834D01*
X60026284Y-100504369D01*
X59695943Y-100504369D01*
X59657759Y-100487515D01*
X59630158Y-100479220D01*
X59549620Y-100463762D01*
X59480979Y-100429754D01*
X59460000Y-100401506D01*
X59424728Y-100375512D01*
X59337249Y-100352496D01*
X59330469Y-100351450D01*
X59946206Y-100351450D01*
X59952426Y-100390000D01*
X59964020Y-100402450D01*
X59970333Y-100347140D01*
X59970719Y-100320000D01*
X59970066Y-100308609D01*
X60587834Y-100308609D01*
X60607226Y-100333894D01*
X60650068Y-100326582D01*
X60723277Y-100274864D01*
X60747226Y-100253077D01*
X60839327Y-100122656D01*
X60851853Y-99984535D01*
X60784788Y-99839367D01*
X60756444Y-99803070D01*
X60718541Y-99762246D01*
X60671605Y-99711693D01*
X60626568Y-99688623D01*
X60619691Y-99735069D01*
X60649330Y-99852241D01*
X60656939Y-99876348D01*
X60698275Y-99987837D01*
X60728401Y-100025946D01*
X60747188Y-100006348D01*
X60767338Y-99976705D01*
X60776328Y-100021601D01*
X60777188Y-100043580D01*
X60750640Y-100140901D01*
X60680000Y-100192722D01*
X60594685Y-100249690D01*
X60587834Y-100308609D01*
X59970066Y-100308609D01*
X59966549Y-100247228D01*
X59956166Y-100238651D01*
X59952426Y-100250000D01*
X59946206Y-100351450D01*
X59330469Y-100351450D01*
X59310000Y-100348292D01*
X59166587Y-100322716D01*
X59015406Y-100286940D01*
X59000000Y-100282652D01*
X58867326Y-100253280D01*
X58701012Y-100227428D01*
X58600000Y-100216416D01*
X58367762Y-100187511D01*
X58210212Y-100146446D01*
X58122728Y-100091522D01*
X58103759Y-100042361D01*
X60500000Y-100042361D01*
X60524505Y-100066251D01*
X60540000Y-100060000D01*
X60578159Y-100024056D01*
X60580000Y-100017640D01*
X60549052Y-100000459D01*
X60540000Y-100000000D01*
X60520000Y-100015990D01*
X60501537Y-100030751D01*
X60500000Y-100042361D01*
X58103759Y-100042361D01*
X58100000Y-100032619D01*
X58119273Y-99973649D01*
X58150635Y-99970872D01*
X58233248Y-99975785D01*
X58367658Y-99956618D01*
X58532250Y-99919505D01*
X58705405Y-99870584D01*
X58796697Y-99839453D01*
X59760000Y-99839453D01*
X59783600Y-99951000D01*
X59845159Y-99997566D01*
X59930815Y-99973145D01*
X59977273Y-99933562D01*
X60024090Y-99841701D01*
X60004011Y-99756935D01*
X59928304Y-99703390D01*
X59866319Y-99696015D01*
X59794341Y-99708713D01*
X59765007Y-99755734D01*
X59760000Y-99839453D01*
X58796697Y-99839453D01*
X58865508Y-99815988D01*
X58990942Y-99761853D01*
X59060089Y-99714314D01*
X59061609Y-99712319D01*
X59108642Y-99690271D01*
X59213235Y-99659297D01*
X59354373Y-99625489D01*
X59380567Y-99619881D01*
X59547124Y-99578025D01*
X59650470Y-99544253D01*
X60813119Y-99544253D01*
X60816579Y-99582498D01*
X60866758Y-99655987D01*
X60948734Y-99748973D01*
X61047585Y-99845706D01*
X61148389Y-99930436D01*
X61230000Y-99984236D01*
X61305342Y-100039390D01*
X61335925Y-100118281D01*
X61340000Y-100196130D01*
X61324514Y-100314686D01*
X61285299Y-100395071D01*
X61280000Y-100400000D01*
X61228441Y-100469567D01*
X61228447Y-100531816D01*
X61279623Y-100559962D01*
X61282360Y-100560000D01*
X61322869Y-100580806D01*
X61317642Y-100603815D01*
X61314848Y-100667967D01*
X61343433Y-100746416D01*
X61375349Y-100823313D01*
X61358939Y-100866739D01*
X61338151Y-100881989D01*
X61302025Y-100911760D01*
X61339308Y-100919330D01*
X61343887Y-100919388D01*
X61409663Y-100952021D01*
X61455124Y-101010000D01*
X61482576Y-101052638D01*
X61481851Y-101028331D01*
X61446176Y-100859924D01*
X61419960Y-100645512D01*
X61402959Y-100399192D01*
X61394928Y-100135060D01*
X61395226Y-100020000D01*
X62060000Y-100020000D01*
X62084365Y-100075091D01*
X62139685Y-100065161D01*
X62153333Y-100053334D01*
X62178812Y-99994787D01*
X62137180Y-99961342D01*
X62120000Y-99960000D01*
X62066969Y-99992019D01*
X62060000Y-100020000D01*
X61395226Y-100020000D01*
X61395622Y-99867212D01*
X61404795Y-99609745D01*
X61422203Y-99376753D01*
X61447600Y-99182334D01*
X61480741Y-99040583D01*
X61517660Y-98969007D01*
X61563438Y-98964480D01*
X61671084Y-98967844D01*
X61823023Y-98977554D01*
X62001681Y-98992064D01*
X62189482Y-99009830D01*
X62368854Y-99029306D01*
X62522222Y-99048948D01*
X62630000Y-99066795D01*
X62711817Y-99072183D01*
X62739393Y-99036600D01*
X62740000Y-99024664D01*
X62770037Y-98968698D01*
X62800000Y-98960000D01*
X62839345Y-98925238D01*
X62858843Y-98837306D01*
X62857673Y-98720739D01*
X62835017Y-98600073D01*
X62813929Y-98542651D01*
X62754513Y-98458815D01*
X62695289Y-98418505D01*
X62600948Y-98411509D01*
X62448590Y-98425582D01*
X62256201Y-98456823D01*
X62041768Y-98501328D01*
X61823275Y-98555195D01*
X61618708Y-98614520D01*
X61446053Y-98675400D01*
X61380000Y-98703933D01*
X61185448Y-98800053D01*
X61052322Y-98881822D01*
X60967504Y-98963930D01*
X60917876Y-99061067D01*
X60890321Y-99187920D01*
X60881212Y-99262465D01*
X60861135Y-99398699D01*
X60835870Y-99500896D01*
X60813119Y-99544253D01*
X59650470Y-99544253D01*
X59700889Y-99527777D01*
X59743101Y-99509099D01*
X60605245Y-99509099D01*
X60656793Y-99530752D01*
X60718541Y-99539838D01*
X60711118Y-99515148D01*
X60709262Y-99513263D01*
X60640113Y-99485065D01*
X60614531Y-99488490D01*
X60605245Y-99509099D01*
X59743101Y-99509099D01*
X59809254Y-99479828D01*
X59811244Y-99478666D01*
X59847728Y-99460000D01*
X60500000Y-99460000D01*
X60520000Y-99480000D01*
X60540000Y-99460000D01*
X60520000Y-99440000D01*
X60500000Y-99460000D01*
X59847728Y-99460000D01*
X59911674Y-99427284D01*
X59989286Y-99400922D01*
X59999184Y-99400000D01*
X60044233Y-99371495D01*
X60088268Y-99281853D01*
X60133518Y-99124889D01*
X60182215Y-98894416D01*
X60183053Y-98890000D01*
X60211170Y-98761224D01*
X60237992Y-98670970D01*
X60256303Y-98640000D01*
X60345260Y-98676285D01*
X60428766Y-98770596D01*
X60496339Y-98901117D01*
X60537495Y-99046033D01*
X60541752Y-99183528D01*
X60534549Y-99219042D01*
X60517505Y-99306533D01*
X60537923Y-99360585D01*
X60611184Y-99405668D01*
X60667378Y-99430351D01*
X60774756Y-99475896D01*
X60801613Y-99247948D01*
X60825702Y-99106058D01*
X60858751Y-98986224D01*
X60881203Y-98936035D01*
X60973704Y-98843610D01*
X61130571Y-98746049D01*
X61336850Y-98648606D01*
X61577585Y-98556539D01*
X61837822Y-98475102D01*
X62102605Y-98409552D01*
X62356979Y-98365144D01*
X62554665Y-98347917D01*
X62779863Y-98340000D01*
X62779931Y-98170000D01*
X62784714Y-98062870D01*
X62807564Y-98013619D01*
X62861405Y-98000292D01*
X62880000Y-98000000D01*
X62980000Y-98000000D01*
X62980000Y-98733477D01*
X62980917Y-98968382D01*
X62983508Y-99264845D01*
X62987528Y-99604448D01*
X62992733Y-99968773D01*
X62998880Y-100339402D01*
X63005724Y-100697915D01*
X63006528Y-100736764D01*
X63033057Y-102006573D01*
X62916528Y-101993287D01*
X62833336Y-101971014D01*
X62796891Y-101912242D01*
X62787456Y-101849877D01*
X62771730Y-101762337D01*
X62735104Y-101735343D01*
X62678022Y-101744071D01*
X62604027Y-101742667D01*
X62521123Y-101729652D01*
X62472678Y-101722047D01*
X62374126Y-101701677D01*
X62302947Y-101686965D01*
X62200000Y-101662585D01*
X62113805Y-101642172D01*
X62084365Y-101634446D01*
X61974639Y-101605649D01*
X61924224Y-101592418D01*
X61753176Y-101542457D01*
X61619632Y-101497040D01*
X61542564Y-101460919D01*
X61540000Y-101459036D01*
X61482576Y-101426636D01*
X61472205Y-101420785D01*
X61356336Y-101367836D01*
X61287910Y-101340000D01*
X62180000Y-101340000D01*
X62200000Y-101360000D01*
X62220000Y-101340000D01*
X62200000Y-101320000D01*
X62180000Y-101340000D01*
X61287910Y-101340000D01*
X61240000Y-101320510D01*
X61064797Y-101245736D01*
X60950239Y-101171257D01*
X60943536Y-101162451D01*
X61660000Y-101162451D01*
X61678469Y-101226587D01*
X61737365Y-101229997D01*
X61841916Y-101172548D01*
X61863825Y-101157277D01*
X61938973Y-101113410D01*
X61978313Y-101109265D01*
X61980000Y-101114916D01*
X61950759Y-101171722D01*
X61939347Y-101180404D01*
X61918504Y-101226883D01*
X61947134Y-101272247D01*
X61974639Y-101280000D01*
X62009561Y-101247865D01*
X62037678Y-101184315D01*
X62152826Y-101184315D01*
X62153501Y-101242924D01*
X62164694Y-101232131D01*
X62166538Y-101225957D01*
X62185822Y-101184829D01*
X62219203Y-101193338D01*
X62284166Y-101257205D01*
X62293711Y-101267551D01*
X62352611Y-101330156D01*
X62374126Y-101349858D01*
X62370000Y-101343594D01*
X62350271Y-101280147D01*
X62340297Y-101174852D01*
X62340000Y-101153289D01*
X62336709Y-101080000D01*
X62425511Y-101080000D01*
X62444678Y-101189976D01*
X62484180Y-101280000D01*
X62521123Y-101333239D01*
X62522681Y-101314931D01*
X62517814Y-101300000D01*
X62487186Y-101201536D01*
X62459146Y-101100000D01*
X62437833Y-101024193D01*
X62428608Y-101022538D01*
X62425511Y-101080000D01*
X62336709Y-101080000D01*
X62335664Y-101056715D01*
X62313573Y-101022214D01*
X62260098Y-101031967D01*
X62250000Y-101035604D01*
X62174251Y-101098314D01*
X62152826Y-101184315D01*
X62037678Y-101184315D01*
X62041802Y-101174995D01*
X62060091Y-101096700D01*
X62053160Y-101048285D01*
X62049375Y-101045834D01*
X61991746Y-101042738D01*
X61887005Y-101051590D01*
X61837499Y-101058285D01*
X61722906Y-101083246D01*
X61670072Y-101119813D01*
X61660000Y-101162451D01*
X60943536Y-101162451D01*
X60879329Y-101078101D01*
X60835067Y-100947295D01*
X60814764Y-100845891D01*
X60786868Y-100708497D01*
X60760151Y-100636431D01*
X60727692Y-100615434D01*
X60705290Y-100620329D01*
X60616976Y-100647314D01*
X60607226Y-100649605D01*
X60528610Y-100668080D01*
X60524505Y-100669132D01*
X60467875Y-100683652D01*
X60436946Y-100712459D01*
G37*
G36*
X59857113Y-99738825D02*
G01*
X59860000Y-99760000D01*
X59845364Y-99792925D01*
X59833333Y-99786667D01*
X59828546Y-99739197D01*
X59833333Y-99733334D01*
X59857113Y-99738825D01*
G37*
G36*
X61340000Y-99500000D02*
G01*
X61320000Y-99520000D01*
X61300000Y-99500000D01*
X61320000Y-99480000D01*
X61340000Y-99500000D01*
G37*
%TO.C,C4*%
X78777000Y-83029000D02*
X77527000Y-83029000D01*
X79887563Y-83894000D02*
X80952000Y-84958437D01*
X79887563Y-83894000D02*
X76902000Y-83894000D01*
X78152000Y-82404000D02*
X78152000Y-83654000D01*
X70432000Y-94414000D02*
X74482000Y-94414000D01*
X71496437Y-83894000D02*
X74482000Y-83894000D01*
X71496437Y-83894000D02*
X70432000Y-84958437D01*
X80952000Y-94414000D02*
X76902000Y-94414000D01*
X70432000Y-84958437D02*
X70432000Y-94414000D01*
X80952000Y-84958437D02*
X80952000Y-94414000D01*
%TO.C,TP2*%
X61700000Y-106000000D02*
G75*
G03*
X61700000Y-106000000I-700000J0D01*
G01*
%TO.C,TPb5*%
X95700000Y-110000000D02*
G75*
G03*
X95700000Y-110000000I-700000J0D01*
G01*
%TO.C,C3*%
X85879000Y-90162748D02*
X85879000Y-90685252D01*
X87349000Y-90162748D02*
X87349000Y-90685252D01*
%TO.C,TP7*%
X69700000Y-84000000D02*
G75*
G03*
X69700000Y-84000000I-700000J0D01*
G01*
%TO.C,REF\u002A\u002A*%
G36*
X71929862Y-116239129D02*
G01*
X71899671Y-116259539D01*
X71875318Y-116265662D01*
X71861274Y-116265990D01*
X71849221Y-116263165D01*
X71835859Y-116255104D01*
X71817889Y-116239727D01*
X71792008Y-116214953D01*
X71786772Y-116209840D01*
X71753552Y-116176605D01*
X71717760Y-116139586D01*
X71685814Y-116105446D01*
X71678255Y-116097115D01*
X71654723Y-116070433D01*
X71651306Y-116066033D01*
X71758790Y-116066033D01*
X71783106Y-116098388D01*
X71804370Y-116123522D01*
X71828119Y-116146776D01*
X71851139Y-116165571D01*
X71870217Y-116177326D01*
X71882139Y-116179462D01*
X71883182Y-116178725D01*
X71888766Y-116164884D01*
X71889117Y-116155112D01*
X71890928Y-116138405D01*
X71894259Y-116132294D01*
X71897168Y-116121079D01*
X71898007Y-116099776D01*
X71897045Y-116074801D01*
X71894546Y-116052565D01*
X71890780Y-116039485D01*
X71890369Y-116038955D01*
X71881828Y-116039388D01*
X71878396Y-116042089D01*
X71866653Y-116047164D01*
X71843447Y-116052914D01*
X71814706Y-116057949D01*
X71758790Y-116066033D01*
X71651306Y-116066033D01*
X71640662Y-116052327D01*
X71634161Y-116039201D01*
X71633307Y-116027456D01*
X71635430Y-116016543D01*
X71639921Y-116001559D01*
X71647062Y-115993820D01*
X71661633Y-115990837D01*
X71686139Y-115990152D01*
X71711826Y-115989064D01*
X71729958Y-115986842D01*
X71735080Y-115985060D01*
X71745528Y-115981175D01*
X71766054Y-115977038D01*
X71773688Y-115975913D01*
X71797313Y-115971008D01*
X71813997Y-115964470D01*
X71816429Y-115962635D01*
X71829135Y-115957170D01*
X71852453Y-115952449D01*
X71870838Y-115950393D01*
X71899215Y-115949462D01*
X71918005Y-115953531D01*
X71934023Y-115964644D01*
X71941114Y-115971451D01*
X71959574Y-115995719D01*
X71971634Y-116022145D01*
X71972312Y-116024777D01*
X71977165Y-116066890D01*
X71975433Y-116118063D01*
X71967963Y-116168929D01*
X71953685Y-116207820D01*
X71935792Y-116231335D01*
X71929862Y-116239129D01*
G37*
G36*
X70700746Y-117703354D02*
G01*
X70712533Y-117713161D01*
X70728818Y-117733921D01*
X70751348Y-117767196D01*
X70757176Y-117776136D01*
X70793454Y-117824166D01*
X70835474Y-117867003D01*
X70879324Y-117901123D01*
X70919354Y-117922343D01*
X70964175Y-117935836D01*
X71008789Y-117940892D01*
X71055103Y-117936957D01*
X71105024Y-117923479D01*
X71160459Y-117899905D01*
X71223316Y-117865680D01*
X71295502Y-117820254D01*
X71314020Y-117807897D01*
X71352306Y-117782341D01*
X71379396Y-117765110D01*
X71397790Y-117755030D01*
X71409984Y-117750924D01*
X71418477Y-117751617D01*
X71425262Y-117755550D01*
X71433452Y-117762688D01*
X71434157Y-117769427D01*
X71425556Y-117779178D01*
X71405832Y-117795349D01*
X71402713Y-117797818D01*
X71368315Y-117823283D01*
X71325726Y-117852208D01*
X71279087Y-117882028D01*
X71232540Y-117910185D01*
X71190229Y-117934115D01*
X71156296Y-117951256D01*
X71150514Y-117953799D01*
X71077714Y-117977099D01*
X71007350Y-117984599D01*
X70940395Y-117976278D01*
X70890652Y-117958556D01*
X70854829Y-117936727D01*
X70814630Y-117904104D01*
X70773895Y-117864396D01*
X70736461Y-117821311D01*
X70708995Y-117783069D01*
X70690928Y-117753660D01*
X70681301Y-117734340D01*
X70678898Y-117721616D01*
X70682502Y-117711991D01*
X70683680Y-117710338D01*
X70691710Y-117702934D01*
X70700746Y-117703354D01*
G37*
G36*
X69982796Y-116476177D02*
G01*
X69988517Y-116493054D01*
X69982076Y-116518145D01*
X69973068Y-116538600D01*
X69966264Y-116551491D01*
X69965245Y-116552813D01*
X69959011Y-116564974D01*
X69950365Y-116589501D01*
X69940387Y-116622461D01*
X69930156Y-116659922D01*
X69920750Y-116697953D01*
X69913249Y-116732620D01*
X69909012Y-116757730D01*
X69904220Y-116816307D01*
X69907025Y-116868978D01*
X69918193Y-116923106D01*
X69930293Y-116962544D01*
X69943072Y-116997797D01*
X69955662Y-117023397D01*
X69971995Y-117045840D01*
X69996011Y-117071620D01*
X69996995Y-117072619D01*
X70026318Y-117100269D01*
X70051291Y-117118253D01*
X70077369Y-117130378D01*
X70082094Y-117132059D01*
X70115260Y-117145420D01*
X70132793Y-117157656D01*
X70135611Y-117169626D01*
X70130325Y-117177335D01*
X70113740Y-117184912D01*
X70088963Y-117181573D01*
X70054688Y-117166975D01*
X70023777Y-117149532D01*
X69992067Y-117128700D01*
X69968402Y-117107887D01*
X69945619Y-117080537D01*
X69939603Y-117072428D01*
X69899341Y-117003525D01*
X69873308Y-116926997D01*
X69861622Y-116844088D01*
X69864405Y-116756044D01*
X69881777Y-116664114D01*
X69895821Y-116617521D01*
X69916915Y-116558638D01*
X69935203Y-116515391D01*
X69951124Y-116487064D01*
X69965116Y-116472946D01*
X69977619Y-116472325D01*
X69982796Y-116476177D01*
G37*
G36*
X69074117Y-117274248D02*
G01*
X69022240Y-117326622D01*
X68972347Y-117376289D01*
X68925814Y-117421857D01*
X68884021Y-117461934D01*
X68848344Y-117495125D01*
X68820161Y-117520039D01*
X68800848Y-117535282D01*
X68792654Y-117539584D01*
X68776578Y-117546048D01*
X68771096Y-117552554D01*
X68759545Y-117566365D01*
X68735844Y-117586117D01*
X68702676Y-117610149D01*
X68662722Y-117636800D01*
X68618663Y-117664409D01*
X68573184Y-117691313D01*
X68528965Y-117715854D01*
X68488687Y-117736369D01*
X68455035Y-117751198D01*
X68443833Y-117755230D01*
X68409149Y-117763969D01*
X68373936Y-117768651D01*
X68343956Y-117768785D01*
X68327246Y-117765125D01*
X68320380Y-117764070D01*
X68314872Y-117769848D01*
X68309780Y-117785036D01*
X68304165Y-117812209D01*
X68298953Y-117842544D01*
X68289683Y-117890730D01*
X68280233Y-117923075D01*
X68270188Y-117940399D01*
X68259129Y-117943526D01*
X68250617Y-117937765D01*
X68247176Y-117924494D01*
X68247764Y-117897306D01*
X68251957Y-117858342D01*
X68259333Y-117809744D01*
X68269466Y-117753657D01*
X68281931Y-117692221D01*
X68288658Y-117661977D01*
X68327425Y-117661977D01*
X68330022Y-117690653D01*
X68336463Y-117711109D01*
X68336548Y-117711252D01*
X68346262Y-117722562D01*
X68360412Y-117726092D01*
X68384629Y-117723183D01*
X68385701Y-117722987D01*
X68444003Y-117706348D01*
X68511801Y-117676280D01*
X68588879Y-117632899D01*
X68675023Y-117576322D01*
X68725263Y-117540302D01*
X68758869Y-117513714D01*
X68801735Y-117476923D01*
X68851782Y-117431941D01*
X68906928Y-117380777D01*
X68965093Y-117325443D01*
X69024197Y-117267949D01*
X69082159Y-117210303D01*
X69136898Y-117154520D01*
X69186333Y-117102605D01*
X69228385Y-117056572D01*
X69242180Y-117040827D01*
X69381922Y-116872889D01*
X69522803Y-116691889D01*
X69662482Y-116501066D01*
X69798621Y-116303659D01*
X69928877Y-116102906D01*
X69983008Y-116015521D01*
X70060270Y-115888948D01*
X70028388Y-115891843D01*
X70007217Y-115894674D01*
X69974551Y-115900098D01*
X69935206Y-115907281D01*
X69901881Y-115913788D01*
X69770699Y-115947081D01*
X69635957Y-115994343D01*
X69500607Y-116054201D01*
X69367600Y-116125282D01*
X69239889Y-116206213D01*
X69179028Y-116249880D01*
X69044416Y-116360856D01*
X68918769Y-116485419D01*
X68802592Y-116622795D01*
X68696390Y-116772214D01*
X68600668Y-116932900D01*
X68515929Y-117104082D01*
X68442680Y-117284986D01*
X68383414Y-117467868D01*
X68371076Y-117508857D01*
X68359221Y-117544582D01*
X68349044Y-117571678D01*
X68341744Y-117586780D01*
X68340649Y-117588153D01*
X68332944Y-117604574D01*
X68328468Y-117631233D01*
X68327425Y-117661977D01*
X68288658Y-117661977D01*
X68296308Y-117627580D01*
X68312172Y-117561877D01*
X68329096Y-117497254D01*
X68346659Y-117435853D01*
X68355711Y-117406515D01*
X68364680Y-117377363D01*
X68371161Y-117354582D01*
X68373886Y-117342661D01*
X68373901Y-117342210D01*
X68376671Y-117331703D01*
X68384110Y-117310804D01*
X68392293Y-117289837D01*
X68403388Y-117262393D01*
X68418469Y-117225123D01*
X68435265Y-117183650D01*
X68446626Y-117155609D01*
X68525136Y-116982075D01*
X68615930Y-116817889D01*
X68718304Y-116663744D01*
X68831558Y-116520331D01*
X68954987Y-116388342D01*
X69087889Y-116268467D01*
X69229562Y-116161400D01*
X69379303Y-116067831D01*
X69536410Y-115988452D01*
X69696869Y-115925085D01*
X69766856Y-115902612D01*
X69835511Y-115883374D01*
X69900785Y-115867723D01*
X69960623Y-115856009D01*
X70012976Y-115848582D01*
X70055793Y-115845794D01*
X70087022Y-115847995D01*
X70104500Y-115855419D01*
X70109870Y-115871114D01*
X70106374Y-115889702D01*
X70099049Y-115904338D01*
X70084525Y-115930232D01*
X70064466Y-115964527D01*
X70040537Y-116004367D01*
X70020683Y-116036767D01*
X69889686Y-116243382D01*
X69759425Y-116437848D01*
X69626994Y-116624282D01*
X69489489Y-116806799D01*
X69377079Y-116948798D01*
X69349890Y-116981131D01*
X69315040Y-117020505D01*
X69273909Y-117065527D01*
X69227873Y-117114805D01*
X69178312Y-117166946D01*
X69126600Y-117220557D01*
X69109701Y-117237845D01*
X69074117Y-117274248D01*
G37*
G36*
X70211094Y-115480272D02*
G01*
X70202459Y-115518354D01*
X70193829Y-115545941D01*
X70191785Y-115552911D01*
X70183170Y-115582292D01*
X70176816Y-115613136D01*
X70175590Y-115634142D01*
X70176348Y-115637880D01*
X70175903Y-115660390D01*
X70161947Y-115682611D01*
X70153985Y-115688667D01*
X70137370Y-115701305D01*
X70110141Y-115712040D01*
X70088165Y-115716565D01*
X70073876Y-115717387D01*
X70071760Y-115716613D01*
X70061656Y-115715764D01*
X70038013Y-115717716D01*
X70003637Y-115722028D01*
X69961338Y-115728259D01*
X69913923Y-115735967D01*
X69864202Y-115744711D01*
X69814981Y-115754048D01*
X69769068Y-115763539D01*
X69758536Y-115765860D01*
X69695904Y-115781561D01*
X69622602Y-115802697D01*
X69542811Y-115827834D01*
X69460708Y-115855545D01*
X69380475Y-115884399D01*
X69306289Y-115912963D01*
X69242331Y-115939810D01*
X69218653Y-115950640D01*
X69080260Y-116021873D01*
X68939738Y-116105179D01*
X68801903Y-116197480D01*
X68671573Y-116295700D01*
X68646149Y-116316344D01*
X68601257Y-116355253D01*
X68548697Y-116404025D01*
X68491405Y-116459670D01*
X68432325Y-116519199D01*
X68374394Y-116579621D01*
X68320553Y-116637948D01*
X68273742Y-116691189D01*
X68252430Y-116716763D01*
X68153345Y-116845429D01*
X68059935Y-116980153D01*
X67973672Y-117118339D01*
X67896029Y-117257389D01*
X67828476Y-117394708D01*
X67772487Y-117527698D01*
X67739372Y-117621778D01*
X67712452Y-117706011D01*
X67621670Y-117615229D01*
X67649301Y-117539742D01*
X67721015Y-117364533D01*
X67808446Y-117187378D01*
X67910932Y-117009442D01*
X68027816Y-116831891D01*
X68122716Y-116702062D01*
X68151378Y-116666757D01*
X68189812Y-116622806D01*
X68235948Y-116572304D01*
X68287723Y-116517340D01*
X68343070Y-116460008D01*
X68399922Y-116402398D01*
X68456213Y-116346603D01*
X68509877Y-116294714D01*
X68558848Y-116248823D01*
X68601059Y-116211023D01*
X68634443Y-116183405D01*
X68636874Y-116181543D01*
X68813612Y-116055738D01*
X68991717Y-115945985D01*
X69172535Y-115851666D01*
X69357410Y-115772165D01*
X69547684Y-115706867D01*
X69744704Y-115655156D01*
X69820102Y-115639240D01*
X69905817Y-115622288D01*
X69889901Y-115594012D01*
X69875185Y-115552037D01*
X69875470Y-115538498D01*
X69910517Y-115538498D01*
X69914232Y-115538320D01*
X69924762Y-115525959D01*
X69930132Y-115519006D01*
X69944930Y-115501615D01*
X69954541Y-115496398D01*
X69961066Y-115499853D01*
X69963959Y-115512778D01*
X69958895Y-115524199D01*
X69953416Y-115538822D01*
X69960923Y-115555378D01*
X69964638Y-115560120D01*
X69978527Y-115573616D01*
X69991059Y-115574398D01*
X70000632Y-115569598D01*
X70025487Y-115548518D01*
X70033883Y-115524877D01*
X70025820Y-115498639D01*
X70007838Y-115476076D01*
X70000552Y-115461470D01*
X70004249Y-115453148D01*
X70011773Y-115449500D01*
X70021558Y-115454952D01*
X70036929Y-115471600D01*
X70040654Y-115476079D01*
X70059639Y-115504849D01*
X70063746Y-115529744D01*
X70052781Y-115554526D01*
X70035534Y-115574320D01*
X70009383Y-115596004D01*
X69986962Y-115602803D01*
X69964797Y-115594858D01*
X69944977Y-115578045D01*
X69928192Y-115562314D01*
X69919818Y-115558036D01*
X69917329Y-115564092D01*
X69917307Y-115565766D01*
X69923736Y-115592615D01*
X69942577Y-115608412D01*
X69973725Y-115613112D01*
X70014978Y-115607177D01*
X70038189Y-115599759D01*
X70053047Y-115587730D01*
X70064847Y-115569711D01*
X70077698Y-115533768D01*
X70077577Y-115496982D01*
X70064895Y-115464455D01*
X70055491Y-115452856D01*
X70035492Y-115438500D01*
X70009624Y-115432613D01*
X69994660Y-115432096D01*
X69964363Y-115434911D01*
X69942832Y-115445016D01*
X69933378Y-115453309D01*
X69919700Y-115470603D01*
X69919883Y-115482069D01*
X69921004Y-115483361D01*
X69924692Y-115495322D01*
X69922130Y-115499912D01*
X69914868Y-115513729D01*
X69911409Y-115527494D01*
X69910517Y-115538498D01*
X69875470Y-115538498D01*
X69876099Y-115508616D01*
X69892156Y-115466559D01*
X69917558Y-115433774D01*
X69934806Y-115415421D01*
X69941510Y-115403196D01*
X69939451Y-115392000D01*
X69938521Y-115390344D01*
X70000317Y-115390344D01*
X70010474Y-115400391D01*
X70025598Y-115406290D01*
X70049669Y-115418079D01*
X70074217Y-115436086D01*
X70078558Y-115440126D01*
X70104114Y-115465241D01*
X70101424Y-115420791D01*
X70097874Y-115384305D01*
X70092164Y-115345653D01*
X70089820Y-115333312D01*
X70084068Y-115308317D01*
X70078631Y-115295932D01*
X70070999Y-115292340D01*
X70063260Y-115292975D01*
X70053257Y-115296147D01*
X70052890Y-115303766D01*
X70062477Y-115319725D01*
X70065874Y-115324625D01*
X70080507Y-115354088D01*
X70081911Y-115379933D01*
X70073083Y-115396099D01*
X70062421Y-115398638D01*
X70053467Y-115390062D01*
X70051267Y-115375589D01*
X70051634Y-115373940D01*
X70050593Y-115356975D01*
X70045315Y-115342765D01*
X70038474Y-115331859D01*
X70032038Y-115331981D01*
X70021894Y-115344372D01*
X70017083Y-115351290D01*
X70005653Y-115370235D01*
X70002698Y-115375133D01*
X70000317Y-115390344D01*
X69938521Y-115390344D01*
X69934944Y-115383978D01*
X69926899Y-115361370D01*
X69924956Y-115335464D01*
X69925360Y-115321197D01*
X69953853Y-115321197D01*
X69955051Y-115327011D01*
X69963546Y-115348837D01*
X69974554Y-115357100D01*
X69985886Y-115350467D01*
X69988063Y-115347127D01*
X70001511Y-115328207D01*
X70014873Y-115313049D01*
X70025066Y-115302191D01*
X70026234Y-115297193D01*
X70016070Y-115297207D01*
X69992271Y-115301387D01*
X69986250Y-115302539D01*
X69964352Y-115307324D01*
X69954887Y-115312496D01*
X69953853Y-115321197D01*
X69925360Y-115321197D01*
X69925467Y-115317400D01*
X69921970Y-115313271D01*
X69916796Y-115317108D01*
X69904425Y-115322037D01*
X69896058Y-115315757D01*
X69896210Y-115303716D01*
X69900587Y-115297538D01*
X69917740Y-115286751D01*
X69935442Y-115280784D01*
X69951449Y-115276310D01*
X69954987Y-115270018D01*
X69952728Y-115263498D01*
X69952743Y-115262233D01*
X70041530Y-115262233D01*
X70043858Y-115267930D01*
X70055033Y-115267242D01*
X70068059Y-115262790D01*
X70069425Y-115251540D01*
X70067655Y-115244469D01*
X70063034Y-115228842D01*
X70061050Y-115223131D01*
X70057242Y-115228721D01*
X70049265Y-115244179D01*
X70048428Y-115245904D01*
X70041530Y-115262233D01*
X69952743Y-115262233D01*
X69952922Y-115247351D01*
X69956812Y-115241312D01*
X69966485Y-115237549D01*
X69976558Y-115248497D01*
X69977006Y-115249237D01*
X69988027Y-115261047D01*
X70001783Y-115258430D01*
X70004024Y-115257173D01*
X70018477Y-115241507D01*
X70025291Y-115224569D01*
X70032021Y-115206242D01*
X70039947Y-115197220D01*
X70044035Y-115187650D01*
X70042772Y-115169467D01*
X70037713Y-115148731D01*
X70030412Y-115131504D01*
X70022424Y-115123845D01*
X70021148Y-115123922D01*
X70017142Y-115130262D01*
X70019916Y-115134438D01*
X70026607Y-115151041D01*
X70025345Y-115173322D01*
X70016868Y-115192744D01*
X70014658Y-115195252D01*
X69994869Y-115206956D01*
X69971161Y-115210895D01*
X69951148Y-115206182D01*
X69947186Y-115203130D01*
X69940226Y-115190443D01*
X69948868Y-115182542D01*
X69971878Y-115179895D01*
X69990040Y-115177599D01*
X69997019Y-115168660D01*
X69997686Y-115164308D01*
X69993176Y-115150756D01*
X69979201Y-115147185D01*
X69960194Y-115154373D01*
X69956345Y-115157045D01*
X69939687Y-115162446D01*
X69929470Y-115159642D01*
X69924462Y-115148920D01*
X69933193Y-115135241D01*
X69953499Y-115120644D01*
X69983221Y-115107165D01*
X69986318Y-115106065D01*
X70022944Y-115093332D01*
X70022944Y-115089370D01*
X70192833Y-115089370D01*
X70199403Y-115101388D01*
X70217625Y-115124975D01*
X70218903Y-115126535D01*
X70238784Y-115152344D01*
X70254658Y-115175890D01*
X70262863Y-115191570D01*
X70271559Y-115208251D01*
X70279363Y-115209028D01*
X70284345Y-115194633D01*
X70285158Y-115183135D01*
X70285042Y-115181369D01*
X70419916Y-115181369D01*
X70423696Y-115195568D01*
X70426624Y-115199237D01*
X70437819Y-115208468D01*
X70459896Y-115225232D01*
X70490098Y-115247485D01*
X70525667Y-115273183D01*
X70543049Y-115285580D01*
X70580523Y-115312202D01*
X70614333Y-115336223D01*
X70641599Y-115355600D01*
X70659444Y-115368285D01*
X70663614Y-115371253D01*
X70681312Y-115383037D01*
X70709988Y-115401213D01*
X70746267Y-115423699D01*
X70786777Y-115448412D01*
X70828140Y-115473270D01*
X70848392Y-115485283D01*
X70878385Y-115501628D01*
X70899923Y-115509337D01*
X70917830Y-115509835D01*
X70925674Y-115508175D01*
X70947679Y-115502231D01*
X70978569Y-115493818D01*
X71007403Y-115485927D01*
X71046394Y-115477282D01*
X71091006Y-115470369D01*
X71123512Y-115467266D01*
X71192714Y-115470591D01*
X71254970Y-115488021D01*
X71308832Y-115518294D01*
X71352849Y-115560146D01*
X71385571Y-115612314D01*
X71405546Y-115673535D01*
X71411015Y-115717713D01*
X71413313Y-115763005D01*
X71466602Y-115780542D01*
X71498999Y-115789854D01*
X71540918Y-115800039D01*
X71585403Y-115809460D01*
X71605343Y-115813180D01*
X71644105Y-115820320D01*
X71679266Y-115827314D01*
X71705929Y-115833162D01*
X71716062Y-115835780D01*
X71723027Y-115837268D01*
X71725713Y-115835707D01*
X71723034Y-115829843D01*
X71713900Y-115818419D01*
X71697226Y-115800180D01*
X71671922Y-115773871D01*
X71636903Y-115738237D01*
X71594508Y-115695474D01*
X71420464Y-115512843D01*
X71249645Y-115319090D01*
X71086780Y-115119687D01*
X71004576Y-115012614D01*
X70973432Y-114971153D01*
X70945434Y-114933966D01*
X70922221Y-114903222D01*
X70905427Y-114881086D01*
X70896692Y-114869728D01*
X70896096Y-114868989D01*
X70891234Y-114867202D01*
X70882685Y-114871584D01*
X70877538Y-114876031D01*
X70868672Y-114883692D01*
X70847417Y-114905078D01*
X70817141Y-114937301D01*
X70813601Y-114941122D01*
X70780114Y-114978043D01*
X70755704Y-115007186D01*
X70737544Y-115032435D01*
X70722807Y-115057676D01*
X70710575Y-115082635D01*
X70688159Y-115128265D01*
X70669118Y-115159984D01*
X70651815Y-115179777D01*
X70634606Y-115189625D01*
X70620401Y-115191679D01*
X70591471Y-115184480D01*
X70571670Y-115163578D01*
X70566150Y-115150139D01*
X70565699Y-115135216D01*
X70568531Y-115108225D01*
X70574106Y-115073318D01*
X70580024Y-115043216D01*
X70588897Y-115000950D01*
X70597403Y-114959495D01*
X70604347Y-114924721D01*
X70607407Y-114908757D01*
X70614004Y-114874864D01*
X70617345Y-114858619D01*
X70734306Y-114858619D01*
X70761353Y-114833737D01*
X70924003Y-114833737D01*
X70928725Y-114840923D01*
X70942107Y-114859435D01*
X70962713Y-114887337D01*
X70989107Y-114922691D01*
X71019859Y-114963561D01*
X71034925Y-114983485D01*
X71085655Y-115049592D01*
X71137815Y-115115685D01*
X71193319Y-115184087D01*
X71254083Y-115257121D01*
X71322022Y-115337112D01*
X71399053Y-115426382D01*
X71417787Y-115447931D01*
X71444919Y-115478291D01*
X71478522Y-115514629D01*
X71516828Y-115555154D01*
X71558065Y-115598071D01*
X71600466Y-115641594D01*
X71642261Y-115683929D01*
X71681680Y-115723286D01*
X71716954Y-115757873D01*
X71746313Y-115785902D01*
X71767988Y-115805578D01*
X71780209Y-115815114D01*
X71780919Y-115815474D01*
X71785213Y-115813234D01*
X71781925Y-115799069D01*
X71770840Y-115772518D01*
X71751750Y-115733125D01*
X71724444Y-115680429D01*
X71688710Y-115613973D01*
X71686309Y-115609566D01*
X71661708Y-115563479D01*
X71636273Y-115514194D01*
X71613010Y-115467629D01*
X71594985Y-115429832D01*
X71580600Y-115395975D01*
X71562290Y-115349093D01*
X71541059Y-115292082D01*
X71517914Y-115227839D01*
X71493856Y-115159260D01*
X71469894Y-115089239D01*
X71447029Y-115020674D01*
X71426267Y-114956460D01*
X71408613Y-114899494D01*
X71396200Y-114856772D01*
X71385748Y-114819910D01*
X71376620Y-114789318D01*
X71369853Y-114768366D01*
X71366610Y-114760507D01*
X71358134Y-114762573D01*
X71340287Y-114772058D01*
X71321957Y-114783617D01*
X71289930Y-114804374D01*
X71248231Y-114830458D01*
X71201650Y-114858923D01*
X71154981Y-114886821D01*
X71137717Y-114896952D01*
X71109281Y-114908281D01*
X71077334Y-114913279D01*
X71047777Y-114911711D01*
X71026511Y-114903344D01*
X71024370Y-114901456D01*
X71012938Y-114885730D01*
X71009263Y-114866797D01*
X71013582Y-114841325D01*
X71026132Y-114805987D01*
X71032191Y-114791426D01*
X71043930Y-114763185D01*
X71052055Y-114742297D01*
X71055261Y-114732174D01*
X71055029Y-114731769D01*
X71043002Y-114740382D01*
X71023037Y-114755414D01*
X70998564Y-114774196D01*
X70973017Y-114794055D01*
X70949826Y-114812324D01*
X70932420Y-114826331D01*
X70924233Y-114833405D01*
X70924003Y-114833737D01*
X70761353Y-114833737D01*
X70777945Y-114818473D01*
X70799441Y-114797934D01*
X70815024Y-114781590D01*
X70821546Y-114772758D01*
X70821582Y-114772487D01*
X70817273Y-114761389D01*
X70806774Y-114742815D01*
X70793726Y-114722752D01*
X70781979Y-114707412D01*
X70773931Y-114701484D01*
X70768229Y-114708816D01*
X70765589Y-114716333D01*
X70760743Y-114734335D01*
X70754117Y-114762739D01*
X70747099Y-114795585D01*
X70746710Y-114797497D01*
X70734306Y-114858619D01*
X70617345Y-114858619D01*
X70622118Y-114835408D01*
X70627383Y-114810882D01*
X70639057Y-114757739D01*
X70601605Y-114802782D01*
X70538461Y-114885779D01*
X70489411Y-114966685D01*
X70452741Y-115048690D01*
X70429840Y-115122369D01*
X70421920Y-115158035D01*
X70419916Y-115181369D01*
X70285042Y-115181369D01*
X70283999Y-115165448D01*
X70277530Y-115151582D01*
X70262482Y-115136221D01*
X70249801Y-115125564D01*
X70226664Y-115107632D01*
X70206372Y-115093607D01*
X70197798Y-115088715D01*
X70192833Y-115089370D01*
X70022944Y-115089370D01*
X70022944Y-115050269D01*
X70024207Y-115023227D01*
X70029648Y-115006492D01*
X70041743Y-114993798D01*
X70046733Y-114990060D01*
X70070523Y-114972913D01*
X69998534Y-114900924D01*
X69912436Y-114807223D01*
X69829109Y-114701805D01*
X69752392Y-114589583D01*
X69740597Y-114570692D01*
X69714258Y-114526427D01*
X69697404Y-114494052D01*
X69689596Y-114472071D01*
X69690392Y-114458985D01*
X69699351Y-114453297D01*
X69705879Y-114452753D01*
X69714907Y-114458215D01*
X69729356Y-114475290D01*
X69750000Y-114505014D01*
X69777613Y-114548424D01*
X69778415Y-114549719D01*
X69874010Y-114690583D01*
X69978291Y-114818076D01*
X70041898Y-114885169D01*
X70081867Y-114924024D01*
X70126489Y-114965564D01*
X70172563Y-115006968D01*
X70216889Y-115045417D01*
X70256265Y-115078088D01*
X70287491Y-115102160D01*
X70290854Y-115104561D01*
X70313261Y-115120345D01*
X70334322Y-115056477D01*
X70370376Y-114962512D01*
X70414707Y-114876429D01*
X70469784Y-114794095D01*
X70538079Y-114711380D01*
X70545469Y-114703214D01*
X70583149Y-114663220D01*
X70613173Y-114635065D01*
X70637932Y-114617290D01*
X70659811Y-114608432D01*
X70681199Y-114607030D01*
X70697948Y-114609893D01*
X70726084Y-114616749D01*
X70709198Y-114587798D01*
X70698845Y-114570266D01*
X70681957Y-114541903D01*
X70660592Y-114506161D01*
X70636810Y-114466488D01*
X70628170Y-114452103D01*
X70526441Y-114271741D01*
X70430682Y-114079944D01*
X70343092Y-113881513D01*
X70265872Y-113681249D01*
X70238368Y-113601667D01*
X70212235Y-113521719D01*
X70186291Y-113439265D01*
X70161404Y-113357281D01*
X70138442Y-113278747D01*
X70118274Y-113206639D01*
X70101768Y-113143933D01*
X70089791Y-113093609D01*
X70088654Y-113088325D01*
X70068029Y-112991097D01*
X70097294Y-113020075D01*
X70112434Y-113036928D01*
X70123300Y-113055068D01*
X70132001Y-113079269D01*
X70140639Y-113114307D01*
X70142386Y-113122298D01*
X70154617Y-113173260D01*
X70171810Y-113236822D01*
X70193016Y-113309999D01*
X70217291Y-113389807D01*
X70243686Y-113473261D01*
X70271255Y-113557377D01*
X70299052Y-113639169D01*
X70326128Y-113715654D01*
X70351539Y-113783846D01*
X70355408Y-113793842D01*
X70392763Y-113885643D01*
X70436093Y-113985222D01*
X70482517Y-114086240D01*
X70529156Y-114182355D01*
X70554184Y-114231462D01*
X70569155Y-114259245D01*
X70589763Y-114296056D01*
X70614850Y-114339949D01*
X70643254Y-114388975D01*
X70673815Y-114441186D01*
X70705373Y-114494633D01*
X70736769Y-114547370D01*
X70766841Y-114597446D01*
X70794431Y-114642914D01*
X70818378Y-114681825D01*
X70837520Y-114712231D01*
X70850700Y-114732184D01*
X70856756Y-114739735D01*
X70856839Y-114739751D01*
X70864481Y-114735146D01*
X70882807Y-114722453D01*
X70909151Y-114703561D01*
X70940847Y-114680360D01*
X70944038Y-114678002D01*
X70996978Y-114640145D01*
X71039530Y-114612874D01*
X71073432Y-114595348D01*
X71100423Y-114586722D01*
X71122243Y-114586152D01*
X71129720Y-114587928D01*
X71164100Y-114605307D01*
X71184108Y-114631045D01*
X71189791Y-114665248D01*
X71182162Y-114705068D01*
X71177566Y-114724669D01*
X71177812Y-114736524D01*
X71178241Y-114737129D01*
X71186840Y-114735015D01*
X71206204Y-114725500D01*
X71233123Y-114710261D01*
X71253733Y-114697716D01*
X71284530Y-114678642D01*
X71310348Y-114662956D01*
X71327721Y-114652750D01*
X71332776Y-114650070D01*
X71335148Y-114640912D01*
X71332838Y-114620672D01*
X71327782Y-114599166D01*
X71321354Y-114573827D01*
X71312795Y-114536609D01*
X71302756Y-114490703D01*
X71291886Y-114439299D01*
X71280834Y-114385587D01*
X71270250Y-114332759D01*
X71260783Y-114284007D01*
X71253083Y-114242518D01*
X71247800Y-114211486D01*
X71245722Y-114196040D01*
X71242979Y-114165470D01*
X71267142Y-114189633D01*
X71276470Y-114200594D01*
X71284452Y-114214672D01*
X71291914Y-114234499D01*
X71299681Y-114262702D01*
X71308578Y-114301911D01*
X71319433Y-114354755D01*
X71320176Y-114358474D01*
X71334328Y-114427589D01*
X71347630Y-114489086D01*
X71359670Y-114541254D01*
X71370032Y-114582378D01*
X71378303Y-114610748D01*
X71384072Y-114624651D01*
X71384612Y-114625302D01*
X71394349Y-114625289D01*
X71414394Y-114620322D01*
X71430335Y-114615046D01*
X71493097Y-114600026D01*
X71552681Y-114600851D01*
X71607851Y-114617246D01*
X71657371Y-114648934D01*
X71680028Y-114670867D01*
X71715480Y-114709848D01*
X71678404Y-114739954D01*
X71658583Y-114756608D01*
X71650799Y-114765141D01*
X71653749Y-114767424D01*
X71659788Y-114766634D01*
X71678573Y-114763497D01*
X71706112Y-114759278D01*
X71722929Y-114756826D01*
X71748328Y-114752718D01*
X71765992Y-114748960D01*
X71770913Y-114747145D01*
X71780751Y-114744744D01*
X71797782Y-114743845D01*
X71815737Y-114747154D01*
X71834710Y-114758906D01*
X71855763Y-114778255D01*
X71875020Y-114798554D01*
X71884061Y-114812360D01*
X71885071Y-114824314D01*
X71882105Y-114834234D01*
X71878746Y-114858484D01*
X71881879Y-114876767D01*
X71890546Y-114891967D01*
X71905533Y-114899095D01*
X71918202Y-114901131D01*
X71949679Y-114911046D01*
X71968895Y-114931014D01*
X71974559Y-114955977D01*
X71968348Y-114983205D01*
X71949308Y-115000877D01*
X71916834Y-115009416D01*
X71896386Y-115010397D01*
X71849061Y-115010396D01*
X71810350Y-114965719D01*
X71783526Y-114930473D01*
X71769190Y-114898830D01*
X71765711Y-114865548D01*
X71769528Y-114834820D01*
X71775545Y-114803134D01*
X71713176Y-114820799D01*
X71668106Y-114830963D01*
X71623139Y-114836573D01*
X71582037Y-114837582D01*
X71548565Y-114833944D01*
X71526482Y-114825610D01*
X71523544Y-114823160D01*
X71510055Y-114799601D01*
X71510194Y-114773664D01*
X71522537Y-114750114D01*
X71545654Y-114733717D01*
X71550890Y-114731880D01*
X71563159Y-114725594D01*
X71559830Y-114719603D01*
X71541965Y-114714657D01*
X71523231Y-114712371D01*
X71497002Y-114713076D01*
X71466573Y-114718003D01*
X71438322Y-114725685D01*
X71418631Y-114734657D01*
X71415611Y-114737107D01*
X71415671Y-114747105D01*
X71420341Y-114770665D01*
X71428958Y-114805539D01*
X71440857Y-114849483D01*
X71455376Y-114900247D01*
X71471852Y-114955584D01*
X71489620Y-115013247D01*
X71508018Y-115070988D01*
X71526382Y-115126561D01*
X71544048Y-115177716D01*
X71552979Y-115202477D01*
X71584594Y-115286726D01*
X71613087Y-115358367D01*
X71639952Y-115420808D01*
X71666679Y-115477454D01*
X71694762Y-115531713D01*
X71706816Y-115553704D01*
X71727275Y-115591260D01*
X71751760Y-115637370D01*
X71776907Y-115685646D01*
X71795467Y-115721985D01*
X71815594Y-115761467D01*
X71830033Y-115788292D01*
X71840420Y-115804771D01*
X71848393Y-115813219D01*
X71855590Y-115815944D01*
X71861748Y-115815582D01*
X71881520Y-115817849D01*
X71890326Y-115830128D01*
X71887110Y-115849028D01*
X71876986Y-115864571D01*
X71864845Y-115877227D01*
X71854766Y-115882787D01*
X71852139Y-115884235D01*
X71834019Y-115886830D01*
X71805632Y-115886247D01*
X71794221Y-115885626D01*
X71773592Y-115883586D01*
X71725473Y-115878827D01*
X71650746Y-115865573D01*
X71622908Y-115859440D01*
X71605438Y-115856358D01*
X71579660Y-115852774D01*
X71569134Y-115851503D01*
X71541480Y-115846687D01*
X71505720Y-115838283D01*
X71469515Y-115828095D01*
X71468947Y-115827919D01*
X71423377Y-115813773D01*
X71407239Y-115808763D01*
X71392286Y-115869454D01*
X71358956Y-115972249D01*
X71309319Y-116076655D01*
X71243613Y-116182292D01*
X71191549Y-116250293D01*
X71162079Y-116288783D01*
X71064957Y-116395746D01*
X71049428Y-116411438D01*
X70984323Y-116471911D01*
X70941848Y-116511364D01*
X70834940Y-116595377D01*
X70728930Y-116663353D01*
X70624042Y-116715171D01*
X70520499Y-116750706D01*
X70418530Y-116769836D01*
X70390743Y-116772207D01*
X70322013Y-116769085D01*
X70260193Y-116751652D01*
X70206713Y-116721337D01*
X70162999Y-116679566D01*
X70130479Y-116627766D01*
X70110581Y-116567366D01*
X70104732Y-116499794D01*
X70104735Y-116499727D01*
X70182513Y-116499727D01*
X70189393Y-116560604D01*
X70190796Y-116566066D01*
X70211685Y-116615850D01*
X70243816Y-116653652D01*
X70286709Y-116679337D01*
X70339876Y-116692765D01*
X70402837Y-116693797D01*
X70475105Y-116682297D01*
X70536678Y-116664851D01*
X70614202Y-116634078D01*
X70696789Y-116592104D01*
X70780053Y-116541459D01*
X70859614Y-116484670D01*
X70887406Y-116462466D01*
X70935329Y-116422917D01*
X70904438Y-116417722D01*
X70860137Y-116402647D01*
X70825899Y-116375028D01*
X70803264Y-116336642D01*
X70793801Y-116289911D01*
X70797525Y-116229227D01*
X70802810Y-116212194D01*
X70957759Y-116212194D01*
X70964866Y-116252977D01*
X70966795Y-116257902D01*
X70982731Y-116284623D01*
X71003443Y-116297801D01*
X71029852Y-116297312D01*
X71062883Y-116283035D01*
X71103459Y-116254845D01*
X71125276Y-116236859D01*
X71153223Y-116211968D01*
X71171487Y-116192567D01*
X71183706Y-116174126D01*
X71193517Y-116152116D01*
X71193702Y-116151640D01*
X71206112Y-116108380D01*
X71207892Y-116072359D01*
X71199543Y-116045385D01*
X71181567Y-116029264D01*
X71158689Y-116025464D01*
X71140276Y-116031316D01*
X71113037Y-116046002D01*
X71080473Y-116067139D01*
X71046084Y-116092344D01*
X71013371Y-116119235D01*
X70992545Y-116138574D01*
X70967049Y-116173765D01*
X70957759Y-116212194D01*
X70802810Y-116212194D01*
X70815427Y-116171530D01*
X70848099Y-116115856D01*
X70896127Y-116061243D01*
X70960103Y-116006728D01*
X70972611Y-115997397D01*
X71032922Y-115957199D01*
X71087186Y-115930016D01*
X71138134Y-115914693D01*
X71178844Y-115910186D01*
X71205953Y-115911195D01*
X71225182Y-115918457D01*
X71245068Y-115935335D01*
X71246682Y-115936940D01*
X71264504Y-115953218D01*
X71274739Y-115957854D01*
X71279826Y-115953145D01*
X71287201Y-115938625D01*
X71298919Y-115917367D01*
X71302004Y-115911969D01*
X71312157Y-115887433D01*
X71320836Y-115854521D01*
X71325044Y-115828901D01*
X71331126Y-115775288D01*
X71277190Y-115754761D01*
X71249399Y-115743209D01*
X71211423Y-115726090D01*
X71167863Y-115705536D01*
X71123312Y-115683682D01*
X71114502Y-115679249D01*
X71072472Y-115657922D01*
X71032754Y-115637630D01*
X70999180Y-115620340D01*
X70975584Y-115608021D01*
X70971264Y-115605718D01*
X70954274Y-115597106D01*
X70940648Y-115593358D01*
X70925944Y-115595094D01*
X70905722Y-115602936D01*
X70875540Y-115617499D01*
X70871115Y-115619690D01*
X70818869Y-115646358D01*
X70773723Y-115671587D01*
X70732885Y-115697487D01*
X70693561Y-115726172D01*
X70652955Y-115759756D01*
X70608275Y-115800352D01*
X70556726Y-115850072D01*
X70525196Y-115881314D01*
X70476295Y-115930421D01*
X70437645Y-115970147D01*
X70407389Y-116002565D01*
X70383668Y-116029743D01*
X70364625Y-116053756D01*
X70348403Y-116076673D01*
X70344085Y-116083219D01*
X70286517Y-116178710D01*
X70241313Y-116268934D01*
X70208736Y-116353063D01*
X70189049Y-116430270D01*
X70182513Y-116499727D01*
X70104735Y-116499727D01*
X70105296Y-116486760D01*
X70117958Y-116394238D01*
X70144642Y-116300197D01*
X70185768Y-116203651D01*
X70241762Y-116103620D01*
X70313043Y-115999120D01*
X70317089Y-115993662D01*
X70358824Y-115942043D01*
X70410666Y-115884910D01*
X70469314Y-115825380D01*
X70531466Y-115766566D01*
X70593825Y-115711588D01*
X70653089Y-115663555D01*
X70705958Y-115625588D01*
X70709259Y-115623436D01*
X70751071Y-115597045D01*
X70784984Y-115577578D01*
X70805174Y-115567731D01*
X70998509Y-115567731D01*
X71061624Y-115603107D01*
X71099386Y-115623446D01*
X71141451Y-115644741D01*
X71185144Y-115665797D01*
X71227786Y-115685418D01*
X71266703Y-115702406D01*
X71299215Y-115715566D01*
X71322645Y-115723697D01*
X71334319Y-115725606D01*
X71334888Y-115725284D01*
X71334490Y-115716303D01*
X71330393Y-115696026D01*
X71324730Y-115673571D01*
X71305053Y-115624518D01*
X71275265Y-115588178D01*
X71233727Y-115562911D01*
X71204055Y-115552807D01*
X71161143Y-115546151D01*
X71110368Y-115545770D01*
X71059187Y-115551368D01*
X71022638Y-115560052D01*
X70998509Y-115567731D01*
X70805174Y-115567731D01*
X70816586Y-115562165D01*
X70851464Y-115547937D01*
X70868879Y-115541460D01*
X70869630Y-115538265D01*
X70862436Y-115536741D01*
X70849136Y-115531787D01*
X70825437Y-115519754D01*
X70794863Y-115502729D01*
X70760937Y-115482794D01*
X70727184Y-115462032D01*
X70697127Y-115442526D01*
X70674291Y-115426363D01*
X70669828Y-115422848D01*
X70651587Y-115409461D01*
X70637738Y-115401817D01*
X70636609Y-115401480D01*
X70626765Y-115396025D01*
X70605974Y-115382466D01*
X70576760Y-115362516D01*
X70541647Y-115337888D01*
X70517920Y-115320947D01*
X70480879Y-115294525D01*
X70448651Y-115271918D01*
X70423618Y-115254765D01*
X70408159Y-115244705D01*
X70404383Y-115242748D01*
X70401764Y-115250368D01*
X70399398Y-115270376D01*
X70397785Y-115298497D01*
X70397753Y-115299457D01*
X70395035Y-115324700D01*
X70393305Y-115340778D01*
X70382544Y-115367905D01*
X70364438Y-115382453D01*
X70342321Y-115386133D01*
X70330568Y-115384824D01*
X70318393Y-115379538D01*
X70303019Y-115368239D01*
X70281666Y-115348895D01*
X70252199Y-115320103D01*
X70185647Y-115254073D01*
X70195620Y-115290042D01*
X70200993Y-115315421D01*
X70206392Y-115350831D01*
X70210847Y-115389667D01*
X70211754Y-115399797D01*
X70212090Y-115406822D01*
X70213850Y-115443547D01*
X70211094Y-115480272D01*
G37*
G36*
X72371539Y-115831572D02*
G01*
X72387565Y-115870862D01*
X72396102Y-115902176D01*
X72398327Y-115928758D01*
X72394302Y-115958262D01*
X72388461Y-115982267D01*
X72374033Y-116028999D01*
X72357479Y-116069969D01*
X72340249Y-116102340D01*
X72323794Y-116123272D01*
X72313132Y-116129693D01*
X72293545Y-116126929D01*
X72274101Y-116114080D01*
X72261708Y-116096294D01*
X72260352Y-116090335D01*
X72263708Y-116073128D01*
X72273666Y-116052711D01*
X72288575Y-116023769D01*
X72301893Y-115988013D01*
X72311440Y-115952348D01*
X72315036Y-115923673D01*
X72315001Y-115921874D01*
X72310611Y-115899273D01*
X72300609Y-115871643D01*
X72295800Y-115861462D01*
X72286001Y-115844069D01*
X72274758Y-115829363D01*
X72259417Y-115815229D01*
X72237328Y-115799554D01*
X72205839Y-115780228D01*
X72162504Y-115755252D01*
X72125206Y-115731449D01*
X72088472Y-115703708D01*
X72064398Y-115682212D01*
X72042453Y-115659140D01*
X72029850Y-115641401D01*
X72023477Y-115623254D01*
X72020419Y-115601033D01*
X72011777Y-115562820D01*
X71991672Y-115529831D01*
X71990392Y-115528264D01*
X71983045Y-115519969D01*
X72091340Y-115519969D01*
X72092210Y-115526052D01*
X72095944Y-115545069D01*
X72100043Y-115571792D01*
X72101333Y-115581639D01*
X72107157Y-115609338D01*
X72118441Y-115627706D01*
X72129676Y-115637495D01*
X72161567Y-115660209D01*
X72192062Y-115679743D01*
X72217494Y-115693920D01*
X72234192Y-115700562D01*
X72236296Y-115700796D01*
X72247282Y-115694190D01*
X72264265Y-115676620D01*
X72284743Y-115651461D01*
X72306218Y-115622086D01*
X72326186Y-115591870D01*
X72342146Y-115564187D01*
X72349738Y-115547755D01*
X72359548Y-115518981D01*
X72361073Y-115503842D01*
X72353807Y-115502205D01*
X72337242Y-115513938D01*
X72311961Y-115537814D01*
X72283065Y-115564847D01*
X72261606Y-115579642D01*
X72244942Y-115583228D01*
X72230427Y-115576638D01*
X72224993Y-115571749D01*
X72215301Y-115558780D01*
X72213780Y-115545010D01*
X72221568Y-115527958D01*
X72239806Y-115505143D01*
X72269630Y-115474080D01*
X72269933Y-115473775D01*
X72297218Y-115446094D01*
X72313708Y-115426862D01*
X72320402Y-115412755D01*
X72318301Y-115400447D01*
X72308403Y-115386611D01*
X72299230Y-115376297D01*
X72287705Y-115368873D01*
X72270651Y-115369489D01*
X72245703Y-115377381D01*
X72222428Y-115387742D01*
X72200217Y-115402013D01*
X72174966Y-115423220D01*
X72146391Y-115450596D01*
X72119234Y-115478009D01*
X72102328Y-115496867D01*
X72093692Y-115509933D01*
X72091340Y-115519969D01*
X71983045Y-115519969D01*
X71976640Y-115512738D01*
X71963427Y-115502514D01*
X71946204Y-115495601D01*
X71920421Y-115490003D01*
X71892716Y-115485466D01*
X71847244Y-115476373D01*
X71816764Y-115465246D01*
X71799643Y-115451219D01*
X71794247Y-115433427D01*
X71794247Y-115433274D01*
X71801198Y-115412259D01*
X71821716Y-115400424D01*
X71855299Y-115398020D01*
X71864441Y-115398785D01*
X71924320Y-115407334D01*
X71970320Y-115418660D01*
X72001353Y-115432461D01*
X72010119Y-115439372D01*
X72027592Y-115456845D01*
X72088939Y-115395497D01*
X72143620Y-115346267D01*
X72195260Y-115310681D01*
X72242770Y-115289382D01*
X72279493Y-115282983D01*
X72298732Y-115283733D01*
X72313852Y-115288824D01*
X72329990Y-115301038D01*
X72350720Y-115321537D01*
X72373905Y-115347015D01*
X72394682Y-115372506D01*
X72405762Y-115388218D01*
X72430223Y-115437723D01*
X72440880Y-115486297D01*
X72437457Y-115535662D01*
X72419678Y-115587538D01*
X72387263Y-115643648D01*
X72358258Y-115683150D01*
X72308222Y-115746780D01*
X72339541Y-115782983D01*
X72346226Y-115793134D01*
X72371539Y-115831572D01*
G37*
G36*
X73529647Y-117516078D02*
G01*
X73495430Y-117489470D01*
X73490751Y-117485786D01*
X73460550Y-117462163D01*
X73440735Y-117447722D01*
X73428670Y-117441244D01*
X73421715Y-117441512D01*
X73417237Y-117447306D01*
X73415503Y-117450999D01*
X73407922Y-117464951D01*
X73393371Y-117489393D01*
X73373961Y-117520840D01*
X73352512Y-117554714D01*
X73330253Y-117589452D01*
X73310498Y-117620298D01*
X73295432Y-117643837D01*
X73287357Y-117656472D01*
X73285193Y-117660312D01*
X73284211Y-117662053D01*
X73283385Y-117667791D01*
X73286227Y-117675344D01*
X73294085Y-117686368D01*
X73308308Y-117702517D01*
X73330244Y-117725448D01*
X73361242Y-117756818D01*
X73402650Y-117798282D01*
X73530194Y-117925825D01*
X73500731Y-117955288D01*
X73376987Y-117831545D01*
X73340017Y-117795015D01*
X73306991Y-117763222D01*
X73279699Y-117737819D01*
X73259930Y-117720458D01*
X73249471Y-117712795D01*
X73248377Y-117712668D01*
X73241634Y-117720964D01*
X73227180Y-117739616D01*
X73207306Y-117765651D01*
X73189550Y-117789118D01*
X73164874Y-117820570D01*
X73132318Y-117860221D01*
X73095289Y-117904015D01*
X73057199Y-117947893D01*
X73037283Y-117970314D01*
X73005526Y-118005959D01*
X72979034Y-118036135D01*
X72978042Y-118037266D01*
X72956614Y-118062165D01*
X72943027Y-118078581D01*
X72938974Y-118084358D01*
X72943338Y-118092251D01*
X72955252Y-118111284D01*
X72972953Y-118138775D01*
X72994679Y-118172042D01*
X73018664Y-118208404D01*
X73043145Y-118245179D01*
X73066359Y-118279685D01*
X73086542Y-118309243D01*
X73093114Y-118318712D01*
X73103992Y-118337363D01*
X73103876Y-118349990D01*
X73096463Y-118359556D01*
X73086943Y-118367633D01*
X73078984Y-118367188D01*
X73068351Y-118356346D01*
X73057657Y-118342383D01*
X73044103Y-118323390D01*
X73024025Y-118294118D01*
X72999944Y-118258288D01*
X72974377Y-118219621D01*
X72969661Y-118212418D01*
X72946402Y-118176929D01*
X72926482Y-118146735D01*
X72911625Y-118124437D01*
X72903556Y-118112632D01*
X72902668Y-118111473D01*
X72895899Y-118115605D01*
X72880289Y-118129176D01*
X72858634Y-118149692D01*
X72847282Y-118160904D01*
X72771589Y-118231116D01*
X72683146Y-118303800D01*
X72585202Y-118376741D01*
X72481002Y-118447724D01*
X72373791Y-118514535D01*
X72266818Y-118574959D01*
X72167029Y-118625055D01*
X71988846Y-118701412D01*
X71810328Y-118763549D01*
X71626259Y-118813177D01*
X71530572Y-118833825D01*
X71486720Y-118843076D01*
X71448352Y-118852146D01*
X71418618Y-118860212D01*
X71400665Y-118866457D01*
X71397217Y-118868507D01*
X71382624Y-118876444D01*
X71354954Y-118885932D01*
X71317638Y-118896218D01*
X71274105Y-118906551D01*
X71227785Y-118916176D01*
X71182108Y-118924343D01*
X71140504Y-118930297D01*
X71106403Y-118933287D01*
X71101180Y-118933454D01*
X71037776Y-118930497D01*
X70981044Y-118918020D01*
X70967846Y-118913582D01*
X70941176Y-118903627D01*
X70920690Y-118894119D01*
X70902459Y-118882295D01*
X70882552Y-118865390D01*
X70857035Y-118840640D01*
X70840587Y-118824095D01*
X70808488Y-118790818D01*
X70785352Y-118764160D01*
X70767773Y-118739577D01*
X70752340Y-118712525D01*
X70743190Y-118694243D01*
X70703284Y-118599744D01*
X70672418Y-118498119D01*
X70657585Y-118431825D01*
X70641649Y-118351373D01*
X70528940Y-118293406D01*
X70484155Y-118270763D01*
X70451966Y-118255548D01*
X70430445Y-118247016D01*
X70417662Y-118244427D01*
X70411688Y-118247035D01*
X70411166Y-118248050D01*
X70398051Y-118270331D01*
X70377698Y-118295317D01*
X70356273Y-118315805D01*
X70348483Y-118321308D01*
X70313182Y-118333546D01*
X70268155Y-118335208D01*
X70216199Y-118326714D01*
X70160114Y-118308485D01*
X70111510Y-118285770D01*
X70079191Y-118264474D01*
X70040486Y-118232755D01*
X69998596Y-118193822D01*
X69956729Y-118150884D01*
X69918085Y-118107149D01*
X69885870Y-118065824D01*
X69873269Y-118047216D01*
X69800836Y-117917841D01*
X69740612Y-117777368D01*
X69692709Y-117626164D01*
X69657234Y-117464595D01*
X69634299Y-117293023D01*
X69629597Y-117235649D01*
X69624177Y-117158100D01*
X69587099Y-117210630D01*
X69543325Y-117267827D01*
X69488677Y-117331602D01*
X69426022Y-117399100D01*
X69358226Y-117467466D01*
X69288156Y-117533845D01*
X69218678Y-117595384D01*
X69152661Y-117649228D01*
X69127588Y-117668175D01*
X68962256Y-117781423D01*
X68788674Y-117883679D01*
X68605045Y-117975870D01*
X68409573Y-118058924D01*
X68272144Y-118109551D01*
X68156283Y-118149843D01*
X68112039Y-118105599D01*
X68091083Y-118084283D01*
X68075926Y-118068173D01*
X68069348Y-118060240D01*
X68069292Y-118059906D01*
X68077291Y-118056957D01*
X68098543Y-118049677D01*
X68130464Y-118038936D01*
X68170474Y-118025604D01*
X68208141Y-118013139D01*
X68413876Y-117937747D01*
X68610647Y-117850459D01*
X68797250Y-117751910D01*
X68972487Y-117642737D01*
X69135155Y-117523576D01*
X69140398Y-117519398D01*
X69178804Y-117486868D01*
X69224132Y-117445539D01*
X69273229Y-117398565D01*
X69322942Y-117349095D01*
X69370114Y-117300282D01*
X69411593Y-117255279D01*
X69444223Y-117217237D01*
X69449872Y-117210153D01*
X69550549Y-117068767D01*
X69636167Y-116921107D01*
X69706415Y-116767832D01*
X69760984Y-116609598D01*
X69792406Y-116483432D01*
X69806968Y-116425139D01*
X69823016Y-116383309D01*
X69840706Y-116357793D01*
X69860187Y-116348440D01*
X69881612Y-116355101D01*
X69902782Y-116374779D01*
X69911296Y-116386198D01*
X69916064Y-116398182D01*
X69917146Y-116414280D01*
X69914604Y-116438044D01*
X69908498Y-116473027D01*
X69904784Y-116492446D01*
X69890023Y-116557144D01*
X69869460Y-116631045D01*
X69844780Y-116709112D01*
X69817673Y-116786313D01*
X69789824Y-116857610D01*
X69762921Y-116917970D01*
X69760572Y-116922758D01*
X69744764Y-116955990D01*
X69732869Y-116983562D01*
X69726215Y-117002219D01*
X69725579Y-117008563D01*
X69727868Y-117018442D01*
X69730242Y-117041399D01*
X69732398Y-117073847D01*
X69733841Y-117106460D01*
X69744484Y-117270300D01*
X69764476Y-117424671D01*
X69793563Y-117568796D01*
X69831490Y-117701895D01*
X69878004Y-117823195D01*
X69932848Y-117931920D01*
X69995770Y-118027291D01*
X70060045Y-118102036D01*
X70112733Y-118150419D01*
X70164257Y-118187701D01*
X70212654Y-118212697D01*
X70255959Y-118224228D01*
X70264288Y-118224830D01*
X70290668Y-118223431D01*
X70303968Y-118214995D01*
X70307276Y-118196542D01*
X70306331Y-118184220D01*
X70307400Y-118161813D01*
X70317871Y-118139861D01*
X70329721Y-118124214D01*
X70350578Y-118102282D01*
X70366252Y-118093962D01*
X70370368Y-118093919D01*
X70381474Y-118098092D01*
X70405201Y-118108826D01*
X70439345Y-118125061D01*
X70481706Y-118145739D01*
X70530081Y-118169802D01*
X70568195Y-118189034D01*
X70679004Y-118243864D01*
X70776345Y-118289036D01*
X70860304Y-118324583D01*
X70930971Y-118350543D01*
X70988433Y-118366953D01*
X70998335Y-118369090D01*
X71027459Y-118374719D01*
X71043340Y-118376333D01*
X71049057Y-118373297D01*
X71047688Y-118364978D01*
X71045586Y-118359359D01*
X71036459Y-118345531D01*
X71016458Y-118321813D01*
X70986911Y-118289669D01*
X70949146Y-118250566D01*
X70925380Y-118226650D01*
X70868749Y-118171690D01*
X70818859Y-118127046D01*
X70772096Y-118089973D01*
X70724849Y-118057724D01*
X70673505Y-118027554D01*
X70640087Y-118009750D01*
X70609725Y-117989792D01*
X70595642Y-117969087D01*
X70597456Y-117946416D01*
X70612848Y-117922766D01*
X70630051Y-117905678D01*
X70644854Y-117899861D01*
X70658240Y-117901126D01*
X70680286Y-117909139D01*
X70712375Y-117925224D01*
X70751243Y-117947413D01*
X70793633Y-117973736D01*
X70836281Y-118002222D01*
X70875929Y-118030905D01*
X70886200Y-118038821D01*
X70923004Y-118069738D01*
X70963792Y-118107464D01*
X71006014Y-118149275D01*
X71047112Y-118192448D01*
X71084536Y-118234262D01*
X71115732Y-118271994D01*
X71138144Y-118302922D01*
X71145272Y-118315009D01*
X71161298Y-118359247D01*
X71163228Y-118400577D01*
X71151796Y-118436612D01*
X71127733Y-118464962D01*
X71093890Y-118482587D01*
X71059421Y-118487344D01*
X71013346Y-118484348D01*
X70958501Y-118474175D01*
X70897718Y-118457396D01*
X70833832Y-118434588D01*
X70811580Y-118425422D01*
X70763750Y-118405016D01*
X70772216Y-118441216D01*
X70789603Y-118504856D01*
X70811666Y-118569453D01*
X70836160Y-118628956D01*
X70858312Y-118672958D01*
X70899767Y-118732870D01*
X70947362Y-118777388D01*
X71001611Y-118806804D01*
X71063030Y-118821410D01*
X71120568Y-118822447D01*
X71153206Y-118819085D01*
X71175110Y-118812936D01*
X71192198Y-118801894D01*
X71200747Y-118793919D01*
X71211912Y-118784099D01*
X71225029Y-118776425D01*
X71243044Y-118770070D01*
X71268901Y-118764207D01*
X71305548Y-118758006D01*
X71353424Y-118750995D01*
X71560777Y-118713753D01*
X71761806Y-118661728D01*
X71955773Y-118595195D01*
X72141941Y-118514431D01*
X72319573Y-118419710D01*
X72440050Y-118344176D01*
X72517094Y-118290450D01*
X72596460Y-118231128D01*
X72673511Y-118169861D01*
X72743608Y-118110299D01*
X72784620Y-118072932D01*
X72843753Y-118017118D01*
X72825788Y-117982050D01*
X72817521Y-117966061D01*
X72802628Y-117937416D01*
X72782211Y-117898228D01*
X72757372Y-117850607D01*
X72729212Y-117796667D01*
X72698832Y-117738518D01*
X72684417Y-117710942D01*
X72624197Y-117593016D01*
X72572276Y-117485008D01*
X72527163Y-117383347D01*
X72487364Y-117284465D01*
X72451387Y-117184794D01*
X72417736Y-117080765D01*
X72409780Y-117054555D01*
X72370345Y-116923107D01*
X72288994Y-116972377D01*
X72201390Y-117028070D01*
X72106093Y-117093351D01*
X72006686Y-117165524D01*
X71906749Y-117241902D01*
X71809863Y-117319791D01*
X71777087Y-117347648D01*
X71719609Y-117396502D01*
X71691897Y-117421092D01*
X71651158Y-117456944D01*
X71620263Y-117482049D01*
X71597295Y-117497471D01*
X71580336Y-117504271D01*
X71567470Y-117503513D01*
X71556780Y-117496260D01*
X71556609Y-117496090D01*
X71548765Y-117493198D01*
X71535381Y-117497154D01*
X71513885Y-117509119D01*
X71483562Y-117528986D01*
X71393947Y-117585365D01*
X71307058Y-117631409D01*
X71224234Y-117666693D01*
X71146813Y-117690791D01*
X71076134Y-117703280D01*
X71013537Y-117703732D01*
X70965302Y-117693527D01*
X70928329Y-117674311D01*
X70892391Y-117644890D01*
X70863044Y-117610441D01*
X70848969Y-117585092D01*
X70835751Y-117532288D01*
X70835360Y-117499355D01*
X70912053Y-117499355D01*
X70919189Y-117546139D01*
X70937937Y-117583374D01*
X70946308Y-117592896D01*
X70979998Y-117615070D01*
X71024043Y-117625640D01*
X71077231Y-117624995D01*
X71138347Y-117613528D01*
X71206175Y-117591630D01*
X71279503Y-117559692D01*
X71357115Y-117518105D01*
X71437799Y-117467262D01*
X71519447Y-117408238D01*
X71570662Y-117366211D01*
X71627788Y-117314947D01*
X71687356Y-117257918D01*
X71745897Y-117198593D01*
X71799940Y-117140447D01*
X71846015Y-117086946D01*
X71866522Y-117061000D01*
X71938798Y-116958391D01*
X71997023Y-116859837D01*
X72040801Y-116766107D01*
X72069733Y-116677972D01*
X72074122Y-116659157D01*
X72082039Y-116598483D01*
X72077813Y-116547880D01*
X72061704Y-116507915D01*
X72033975Y-116479156D01*
X71994884Y-116462172D01*
X71982635Y-116459714D01*
X71950894Y-116456808D01*
X71919927Y-116457297D01*
X71910820Y-116458398D01*
X71879839Y-116463608D01*
X71882480Y-116504264D01*
X71878965Y-116568546D01*
X71860411Y-116628308D01*
X71850295Y-116647904D01*
X71835705Y-116674402D01*
X71818735Y-116706999D01*
X71808734Y-116727052D01*
X71797359Y-116748498D01*
X71784356Y-116767970D01*
X71767038Y-116788657D01*
X71744035Y-116812391D01*
X71742722Y-116813745D01*
X71708722Y-116846422D01*
X71706173Y-116848829D01*
X71672527Y-116880209D01*
X71647461Y-116902255D01*
X71627654Y-116917300D01*
X71609786Y-116927680D01*
X71590538Y-116935728D01*
X71575028Y-116941040D01*
X71530424Y-116951145D01*
X71488631Y-116952539D01*
X71482058Y-116951780D01*
X71458780Y-116947560D01*
X71441986Y-116940878D01*
X71426270Y-116928396D01*
X71406226Y-116906777D01*
X71402742Y-116902802D01*
X71382439Y-116878412D01*
X71371091Y-116859840D01*
X71366054Y-116840935D01*
X71364686Y-116815547D01*
X71364669Y-116814185D01*
X71364125Y-116768492D01*
X71277789Y-116854829D01*
X71205669Y-116931308D01*
X71140111Y-117009488D01*
X71081674Y-117088117D01*
X71030921Y-117165947D01*
X70988413Y-117241727D01*
X70954710Y-117314208D01*
X70930375Y-117382140D01*
X70915969Y-117444271D01*
X70912053Y-117499355D01*
X70835360Y-117499355D01*
X70835015Y-117470294D01*
X70846296Y-117400409D01*
X70869124Y-117323932D01*
X70903034Y-117242164D01*
X70947556Y-117156403D01*
X71002226Y-117067950D01*
X71066573Y-116978104D01*
X71068027Y-116976209D01*
X71106443Y-116929387D01*
X71154644Y-116875535D01*
X71209336Y-116817945D01*
X71267223Y-116759915D01*
X71325011Y-116704739D01*
X71339498Y-116691681D01*
X71498050Y-116691681D01*
X71501369Y-116712978D01*
X71508883Y-116736767D01*
X71518713Y-116756972D01*
X71528021Y-116767084D01*
X71551901Y-116770689D01*
X71581922Y-116762276D01*
X71615308Y-116743907D01*
X71649286Y-116717642D01*
X71681080Y-116685544D01*
X71707915Y-116649676D01*
X71722717Y-116622430D01*
X71734080Y-116590058D01*
X71739763Y-116558351D01*
X71739273Y-116532265D01*
X71733078Y-116517618D01*
X71724338Y-116519339D01*
X71705035Y-116527705D01*
X71679025Y-116541009D01*
X71673855Y-116543837D01*
X71628405Y-116569908D01*
X71586930Y-116595486D01*
X71551576Y-116619073D01*
X71524487Y-116639172D01*
X71507806Y-116654283D01*
X71503617Y-116662797D01*
X71502918Y-116676115D01*
X71500802Y-116678956D01*
X71498050Y-116691681D01*
X71339498Y-116691681D01*
X71379404Y-116655713D01*
X71427106Y-116616132D01*
X71431529Y-116612707D01*
X71521390Y-116548162D01*
X71609886Y-116493285D01*
X71695716Y-116448543D01*
X71777582Y-116414405D01*
X71854183Y-116391338D01*
X71924221Y-116379810D01*
X71986394Y-116380288D01*
X72039404Y-116393240D01*
X72040411Y-116393650D01*
X72075261Y-116414680D01*
X72108863Y-116446354D01*
X72136038Y-116483118D01*
X72148847Y-116509982D01*
X72159749Y-116564809D01*
X72158086Y-116628845D01*
X72144232Y-116700792D01*
X72118558Y-116779353D01*
X72081437Y-116863228D01*
X72033240Y-116951117D01*
X72013031Y-116983833D01*
X71965816Y-117058062D01*
X72054721Y-116995309D01*
X72099389Y-116964596D01*
X72150101Y-116931007D01*
X72185311Y-116908444D01*
X72419024Y-116908444D01*
X72419257Y-116925353D01*
X72424374Y-116949781D01*
X72434246Y-116984125D01*
X72448743Y-117030781D01*
X72458986Y-117063669D01*
X72519334Y-117242719D01*
X72586568Y-117411078D01*
X72662851Y-117574038D01*
X72686174Y-117619512D01*
X72711417Y-117668166D01*
X72734195Y-117712728D01*
X72753298Y-117750779D01*
X72767519Y-117779903D01*
X72775651Y-117797683D01*
X72776934Y-117801095D01*
X72784266Y-117817692D01*
X72789804Y-117824300D01*
X72796578Y-117833565D01*
X72808512Y-117854243D01*
X72823576Y-117882715D01*
X72831921Y-117899298D01*
X72847730Y-117930574D01*
X72861289Y-117956167D01*
X72870605Y-117972367D01*
X72873086Y-117975824D01*
X72882559Y-117973817D01*
X72901015Y-117958116D01*
X72917597Y-117940785D01*
X72951945Y-117902399D01*
X72990015Y-117858572D01*
X73029123Y-117812516D01*
X73066585Y-117767445D01*
X73099716Y-117726570D01*
X73125835Y-117693105D01*
X73136171Y-117679116D01*
X73170564Y-117631013D01*
X73136483Y-117588676D01*
X73122093Y-117571303D01*
X73098526Y-117543447D01*
X73067562Y-117507185D01*
X73030981Y-117464595D01*
X72990563Y-117417752D01*
X72948085Y-117368734D01*
X72943507Y-117363464D01*
X72888876Y-117299811D01*
X72833001Y-117233283D01*
X72777632Y-117166067D01*
X72724516Y-117100348D01*
X72675401Y-117038313D01*
X72632037Y-116982147D01*
X72596172Y-116934037D01*
X72569555Y-116896167D01*
X72569000Y-116895335D01*
X72549546Y-116866784D01*
X72535058Y-116850677D01*
X72520991Y-116845770D01*
X72502803Y-116850819D01*
X72475952Y-116864580D01*
X72469498Y-116868075D01*
X72448910Y-116878870D01*
X72433722Y-116887599D01*
X72423802Y-116896658D01*
X72419024Y-116908444D01*
X72185311Y-116908444D01*
X72199737Y-116899200D01*
X72231403Y-116879664D01*
X72266013Y-116858532D01*
X72295718Y-116839882D01*
X72317398Y-116825705D01*
X72327931Y-116817997D01*
X72328008Y-116817921D01*
X72328268Y-116815977D01*
X72567660Y-116815977D01*
X72594069Y-116856434D01*
X72620923Y-116895397D01*
X72649285Y-116934003D01*
X72657133Y-116944684D01*
X72700980Y-117002165D01*
X72750745Y-117065708D01*
X72804708Y-117133184D01*
X72861149Y-117202461D01*
X72918349Y-117271412D01*
X72974587Y-117337903D01*
X73028145Y-117399807D01*
X73076634Y-117454254D01*
X73105844Y-117486750D01*
X73133483Y-117518008D01*
X73156144Y-117544149D01*
X73168903Y-117559386D01*
X73184722Y-117577635D01*
X73194704Y-117584327D01*
X73202554Y-117581570D01*
X73204575Y-117579693D01*
X73212177Y-117569436D01*
X73226270Y-117548216D01*
X73244780Y-117519363D01*
X73265631Y-117486208D01*
X73286749Y-117452087D01*
X73306057Y-117420328D01*
X73321481Y-117394264D01*
X73330945Y-117377228D01*
X73331923Y-117375232D01*
X73332130Y-117367614D01*
X73325054Y-117356815D01*
X73308693Y-117340515D01*
X73281545Y-117316819D01*
X73254960Y-117293949D01*
X73219925Y-117263373D01*
X73180373Y-117228545D01*
X73140234Y-117192916D01*
X73126406Y-117180565D01*
X73092554Y-117149617D01*
X73049904Y-117109603D01*
X73001369Y-117063315D01*
X72949862Y-117013545D01*
X72898295Y-116963087D01*
X72860605Y-116925746D01*
X72694322Y-116759970D01*
X72630991Y-116787974D01*
X72615080Y-116795009D01*
X72567660Y-116815977D01*
X72328268Y-116815977D01*
X72329561Y-116806320D01*
X72326057Y-116782171D01*
X72318062Y-116748616D01*
X72311435Y-116725575D01*
X72250016Y-116506646D01*
X72231944Y-116431503D01*
X72278586Y-116431503D01*
X72279065Y-116440900D01*
X72283817Y-116463330D01*
X72292012Y-116495961D01*
X72302817Y-116535961D01*
X72315399Y-116580499D01*
X72328927Y-116626741D01*
X72342567Y-116671859D01*
X72355488Y-116713018D01*
X72366858Y-116747386D01*
X72375844Y-116772132D01*
X72381613Y-116784424D01*
X72382555Y-116785253D01*
X72393858Y-116782694D01*
X72412744Y-116774331D01*
X72433680Y-116763150D01*
X72451132Y-116752140D01*
X72454309Y-116749181D01*
X72753853Y-116749181D01*
X72764996Y-116767791D01*
X72774685Y-116779607D01*
X72794996Y-116801197D01*
X72824318Y-116831017D01*
X72861041Y-116867522D01*
X72903552Y-116909169D01*
X72950242Y-116954413D01*
X72999498Y-117001710D01*
X73049708Y-117049516D01*
X73099263Y-117096286D01*
X73146550Y-117140477D01*
X73189960Y-117180543D01*
X73227879Y-117214941D01*
X73258697Y-117242126D01*
X73269549Y-117251369D01*
X73360287Y-117327439D01*
X73398337Y-117248758D01*
X73461677Y-117109229D01*
X73513245Y-116977130D01*
X73552645Y-116853558D01*
X73576299Y-116755908D01*
X73584162Y-116711098D01*
X73589740Y-116667177D01*
X73592820Y-116627552D01*
X73593190Y-116595629D01*
X73590636Y-116574810D01*
X73587970Y-116569388D01*
X73577504Y-116566768D01*
X73554745Y-116564850D01*
X73524064Y-116563961D01*
X73514758Y-116563940D01*
X73429807Y-116567561D01*
X73336872Y-116577339D01*
X73239436Y-116592492D01*
X73140982Y-116612241D01*
X73044994Y-116635802D01*
X72954955Y-116662394D01*
X72874350Y-116691236D01*
X72806662Y-116721545D01*
X72802319Y-116723795D01*
X72753853Y-116749181D01*
X72454309Y-116749181D01*
X72459567Y-116744284D01*
X72459713Y-116743609D01*
X72455696Y-116735086D01*
X72444602Y-116714771D01*
X72427857Y-116685201D01*
X72406895Y-116648914D01*
X72392228Y-116623853D01*
X72367561Y-116581602D01*
X72344491Y-116541536D01*
X72325001Y-116507136D01*
X72311071Y-116481883D01*
X72306883Y-116473916D01*
X72293345Y-116448010D01*
X72285054Y-116434504D01*
X72280204Y-116430697D01*
X72278586Y-116431503D01*
X72231944Y-116431503D01*
X72212426Y-116350348D01*
X72199978Y-116298207D01*
X72193829Y-116274545D01*
X72261965Y-116274545D01*
X72262531Y-116285801D01*
X72262851Y-116288138D01*
X72269784Y-116312200D01*
X72277040Y-116326983D01*
X72284726Y-116340372D01*
X72298582Y-116365523D01*
X72316990Y-116399461D01*
X72338334Y-116439210D01*
X72351760Y-116464395D01*
X72376797Y-116510659D01*
X72402681Y-116557074D01*
X72426911Y-116599242D01*
X72446982Y-116632765D01*
X72453284Y-116642767D01*
X72470046Y-116670175D01*
X72481775Y-116692130D01*
X72486651Y-116705105D01*
X72486359Y-116706919D01*
X72485359Y-116715985D01*
X72494893Y-116724382D01*
X72509072Y-116728595D01*
X72519552Y-116726726D01*
X72534315Y-116714243D01*
X72536809Y-116701141D01*
X72528865Y-116693284D01*
X72524154Y-116687118D01*
X72529690Y-116683126D01*
X72536650Y-116675322D01*
X72534982Y-116671341D01*
X72535476Y-116661617D01*
X72545776Y-116647501D01*
X72552403Y-116640053D01*
X72555500Y-116632464D01*
X72553902Y-116622869D01*
X72546441Y-116609399D01*
X72531954Y-116590188D01*
X72509274Y-116563367D01*
X72477233Y-116527068D01*
X72455195Y-116502381D01*
X72423260Y-116465747D01*
X72389718Y-116425775D01*
X72359575Y-116388495D01*
X72345570Y-116370410D01*
X72322513Y-116340473D01*
X72300758Y-116313208D01*
X72283969Y-116293179D01*
X72279944Y-116288723D01*
X72266815Y-116275486D01*
X72261965Y-116274545D01*
X72193829Y-116274545D01*
X72185397Y-116242101D01*
X72170519Y-116188846D01*
X72157442Y-116146061D01*
X72144897Y-116106285D01*
X72137725Y-116079043D01*
X72135487Y-116061245D01*
X72137747Y-116049805D01*
X72142826Y-116042825D01*
X72159195Y-116034959D01*
X72175529Y-116042769D01*
X72190738Y-116065296D01*
X72201726Y-116094497D01*
X72210122Y-116116927D01*
X72223326Y-116141545D01*
X72243244Y-116171379D01*
X72271786Y-116209453D01*
X72284294Y-116225448D01*
X72342182Y-116298349D01*
X72398400Y-116368077D01*
X72451078Y-116432358D01*
X72498345Y-116488918D01*
X72538327Y-116535483D01*
X72553801Y-116552967D01*
X72574561Y-116576414D01*
X72590231Y-116592386D01*
X72603593Y-116600405D01*
X72617429Y-116599999D01*
X72634518Y-116590690D01*
X72657643Y-116572003D01*
X72689584Y-116543464D01*
X72708389Y-116526551D01*
X72751737Y-116486283D01*
X72782324Y-116454185D01*
X72801074Y-116428912D01*
X72808908Y-116409121D01*
X72806754Y-116393466D01*
X72803418Y-116388210D01*
X72788638Y-116377087D01*
X72765210Y-116373449D01*
X72750411Y-116373915D01*
X72725096Y-116377154D01*
X72706567Y-116382393D01*
X72702085Y-116385127D01*
X72684343Y-116392804D01*
X72660411Y-116392261D01*
X72638188Y-116384185D01*
X72631579Y-116379030D01*
X72618006Y-116355073D01*
X72619443Y-116327482D01*
X72635541Y-116299088D01*
X72642421Y-116291584D01*
X72665155Y-116264444D01*
X72690252Y-116227330D01*
X72715789Y-116183977D01*
X72739839Y-116138120D01*
X72760474Y-116093496D01*
X72775768Y-116053841D01*
X72783796Y-116022889D01*
X72784488Y-116016104D01*
X72785692Y-115990557D01*
X72760322Y-116003471D01*
X72732904Y-116009777D01*
X72707639Y-116002985D01*
X72687896Y-115986328D01*
X72677045Y-115963040D01*
X72678454Y-115936355D01*
X72681796Y-115928118D01*
X72691681Y-115903534D01*
X72697124Y-115883134D01*
X72698525Y-115870486D01*
X72694453Y-115864875D01*
X72681030Y-115864679D01*
X72659715Y-115867510D01*
X72608335Y-115867639D01*
X72562590Y-115852149D01*
X72521628Y-115820750D01*
X72521575Y-115820698D01*
X72499456Y-115794282D01*
X72484797Y-115765614D01*
X72476060Y-115730211D01*
X72471705Y-115683590D01*
X72471287Y-115674185D01*
X72472678Y-115633117D01*
X72481279Y-115605882D01*
X72498032Y-115590875D01*
X72522567Y-115586481D01*
X72547984Y-115591729D01*
X72566196Y-115608433D01*
X72578059Y-115638036D01*
X72584427Y-115681981D01*
X72585079Y-115691941D01*
X72589070Y-115719175D01*
X72596553Y-115740878D01*
X72601025Y-115747435D01*
X72619830Y-115755950D01*
X72645832Y-115756102D01*
X72672314Y-115748696D01*
X72690534Y-115736712D01*
X72714398Y-115723567D01*
X72743555Y-115722355D01*
X72772064Y-115732695D01*
X72784905Y-115742753D01*
X72800791Y-115761712D01*
X72810719Y-115779118D01*
X72811094Y-115780246D01*
X72818031Y-115791112D01*
X72831975Y-115790345D01*
X72837096Y-115788571D01*
X72848416Y-115785438D01*
X72858718Y-115787107D01*
X72871508Y-115795594D01*
X72890291Y-115812916D01*
X72905370Y-115827862D01*
X72952551Y-115875042D01*
X72921723Y-115882517D01*
X72890030Y-115893799D01*
X72874482Y-115908511D01*
X72874857Y-115926932D01*
X72879564Y-115935624D01*
X72891311Y-115965331D01*
X72895597Y-116004549D01*
X72892244Y-116047796D01*
X72884325Y-116080446D01*
X72876894Y-116100159D01*
X72865062Y-116128363D01*
X72850594Y-116161203D01*
X72835251Y-116194827D01*
X72820801Y-116225381D01*
X72809004Y-116249013D01*
X72801625Y-116261867D01*
X72800885Y-116262757D01*
X72806672Y-116266082D01*
X72823031Y-116271998D01*
X72825590Y-116272822D01*
X72856602Y-116289127D01*
X72886943Y-116315679D01*
X72911921Y-116347375D01*
X72926844Y-116379111D01*
X72928067Y-116384266D01*
X72929569Y-116411683D01*
X72922380Y-116440036D01*
X72905253Y-116471861D01*
X72876944Y-116509692D01*
X72852586Y-116538002D01*
X72801276Y-116595543D01*
X72896505Y-116564293D01*
X73028846Y-116524295D01*
X73154241Y-116493917D01*
X73278444Y-116471991D01*
X73407211Y-116457344D01*
X73432139Y-116455328D01*
X73525709Y-116448201D01*
X73705750Y-116628242D01*
X73703066Y-116669567D01*
X73694811Y-116736165D01*
X73678422Y-116814154D01*
X73654763Y-116900900D01*
X73624697Y-116993765D01*
X73589091Y-117090113D01*
X73548808Y-117187309D01*
X73504713Y-117282716D01*
X73496591Y-117299189D01*
X73479208Y-117334550D01*
X73464950Y-117364426D01*
X73455272Y-117385705D01*
X73451628Y-117395277D01*
X73451627Y-117395325D01*
X73457953Y-117402401D01*
X73475494Y-117417748D01*
X73502093Y-117439694D01*
X73535593Y-117466561D01*
X73573836Y-117496674D01*
X73614664Y-117528358D01*
X73655922Y-117559938D01*
X73695451Y-117589738D01*
X73731095Y-117616082D01*
X73760697Y-117637295D01*
X73779977Y-117650351D01*
X73790237Y-117659323D01*
X73786884Y-117668148D01*
X73778309Y-117675589D01*
X73760004Y-117690123D01*
X73658925Y-117614426D01*
X73616266Y-117582284D01*
X73611523Y-117578674D01*
X73571550Y-117548258D01*
X73529647Y-117516078D01*
G37*
%TO.C,TP10*%
X107634000Y-83058000D02*
G75*
G03*
X107634000Y-83058000I-700000J0D01*
G01*
%TO.C,R7*%
X144796742Y-104633500D02*
X145271258Y-104633500D01*
X144796742Y-105678500D02*
X145271258Y-105678500D01*
%TO.C,TPa0*%
X79700000Y-114000000D02*
G75*
G03*
X79700000Y-114000000I-700000J0D01*
G01*
%TO.C,TPa6*%
X89700000Y-100000000D02*
G75*
G03*
X89700000Y-100000000I-700000J0D01*
G01*
%TO.C,TPa1*%
X79700000Y-100000000D02*
G75*
G03*
X79700000Y-100000000I-700000J0D01*
G01*
%TO.C,TPb2*%
X95700000Y-104000000D02*
G75*
G03*
X95700000Y-104000000I-700000J0D01*
G01*
%TO.C,TP6*%
X69700000Y-104000000D02*
G75*
G03*
X69700000Y-104000000I-700000J0D01*
G01*
%TO.C,TP15*%
X77700000Y-114000000D02*
G75*
G03*
X77700000Y-114000000I-700000J0D01*
G01*
%TO.C,R2*%
X76162500Y-102962742D02*
X76162500Y-103437258D01*
X75117500Y-102962742D02*
X75117500Y-103437258D01*
%TO.C,TPa5*%
X87700000Y-100000000D02*
G75*
G03*
X87700000Y-100000000I-700000J0D01*
G01*
%TO.C,U2*%
X94078000Y-93912000D02*
X92978000Y-93912000D01*
X94078000Y-94862000D02*
X94078000Y-93912000D01*
X95578000Y-94862000D02*
X94078000Y-94862000D01*
X94078000Y-84462000D02*
X94078000Y-85412000D01*
X94078000Y-85412000D02*
X88953000Y-85412000D01*
X95578000Y-84462000D02*
X94078000Y-84462000D01*
%TO.C,TPb7*%
X95700000Y-114000000D02*
G75*
G03*
X95700000Y-114000000I-700000J0D01*
G01*
%TO.C,TPb0*%
X95700000Y-100000000D02*
G75*
G03*
X95700000Y-100000000I-700000J0D01*
G01*
%TO.C,J1*%
X136500000Y-113000000D02*
X136500000Y-111000000D01*
X136690000Y-109700000D02*
X136690000Y-106890000D01*
X136690000Y-106890000D02*
X142750000Y-106890000D01*
X149910000Y-106890000D02*
X149910000Y-117110000D01*
X149910000Y-117110000D02*
X146850000Y-117110000D01*
X136690000Y-117110000D02*
X136690000Y-114300000D01*
X146850000Y-106890000D02*
X149910000Y-106890000D01*
X142750000Y-117110000D02*
X136690000Y-117110000D01*
%TO.C,TPb3*%
X95700000Y-106000000D02*
G75*
G03*
X95700000Y-106000000I-700000J0D01*
G01*
%TO.C,D1*%
X67600000Y-82424000D02*
X62200000Y-82424000D01*
X67600000Y-85724000D02*
X62200000Y-85724000D01*
X67600000Y-85724000D02*
X67600000Y-82424000D01*
%TO.C,TPc3*%
X87700000Y-114000000D02*
G75*
G03*
X87700000Y-114000000I-700000J0D01*
G01*
%TO.C,TPa3*%
X83700000Y-100000000D02*
G75*
G03*
X83700000Y-100000000I-700000J0D01*
G01*
%TO.C,TP4*%
X69700000Y-100000000D02*
G75*
G03*
X69700000Y-100000000I-700000J0D01*
G01*
%TO.C,TP5*%
X69700000Y-102000000D02*
G75*
G03*
X69700000Y-102000000I-700000J0D01*
G01*
%TO.C,TPb6*%
X95700000Y-112000000D02*
G75*
G03*
X95700000Y-112000000I-700000J0D01*
G01*
%TO.C,R6*%
X83847000Y-93752936D02*
X83847000Y-94207064D01*
X85317000Y-93752936D02*
X85317000Y-94207064D01*
%TD*%
M02*
