%TF.GenerationSoftware,KiCad,Pcbnew,6.0.11+dfsg-1~bpo11+1*%
%TF.CreationDate,2024-03-27T19:00:14-04:00*%
%TF.ProjectId,Module - Adjustable single rail PSU,4d6f6475-6c65-4202-9d20-41646a757374,1.0.0*%
%TF.SameCoordinates,Original*%
%TF.FileFunction,Soldermask,Top*%
%TF.FilePolarity,Negative*%
%FSLAX46Y46*%
G04 Gerber Fmt 4.6, Leading zero omitted, Abs format (unit mm)*
G04 Created by KiCad (PCBNEW 6.0.11+dfsg-1~bpo11+1) date 2024-03-27 19:00:14*
%MOMM*%
%LPD*%
G01*
G04 APERTURE LIST*
G04 Aperture macros list*
%AMRoundRect*
0 Rectangle with rounded corners*
0 $1 Rounding radius*
0 $2 $3 $4 $5 $6 $7 $8 $9 X,Y pos of 4 corners*
0 Add a 4 corners polygon primitive as box body*
4,1,4,$2,$3,$4,$5,$6,$7,$8,$9,$2,$3,0*
0 Add four circle primitives for the rounded corners*
1,1,$1+$1,$2,$3*
1,1,$1+$1,$4,$5*
1,1,$1+$1,$6,$7*
1,1,$1+$1,$8,$9*
0 Add four rect primitives between the rounded corners*
20,1,$1+$1,$2,$3,$4,$5,0*
20,1,$1+$1,$4,$5,$6,$7,0*
20,1,$1+$1,$6,$7,$8,$9,0*
20,1,$1+$1,$8,$9,$2,$3,0*%
G04 Aperture macros list end*
%ADD10RoundRect,0.225000X-0.017678X0.335876X-0.335876X0.017678X0.017678X-0.335876X0.335876X-0.017678X0*%
%ADD11RoundRect,0.200000X-0.200000X-0.275000X0.200000X-0.275000X0.200000X0.275000X-0.200000X0.275000X0*%
%ADD12C,1.000000*%
%ADD13RoundRect,0.225000X0.225000X0.250000X-0.225000X0.250000X-0.225000X-0.250000X0.225000X-0.250000X0*%
%ADD14R,5.400000X2.900000*%
%ADD15R,1.730000X1.190000*%
%ADD16RoundRect,0.200000X-0.275000X0.200000X-0.275000X-0.200000X0.275000X-0.200000X0.275000X0.200000X0*%
%ADD17RoundRect,0.218750X0.218750X0.256250X-0.218750X0.256250X-0.218750X-0.256250X0.218750X-0.256250X0*%
%ADD18RoundRect,0.250000X-0.450000X0.262500X-0.450000X-0.262500X0.450000X-0.262500X0.450000X0.262500X0*%
%ADD19R,1.200000X0.900000*%
%ADD20RoundRect,0.250000X1.950000X0.700000X-1.950000X0.700000X-1.950000X-0.700000X1.950000X-0.700000X0*%
%ADD21RoundRect,0.062500X0.062500X-0.350000X0.062500X0.350000X-0.062500X0.350000X-0.062500X-0.350000X0*%
%ADD22RoundRect,0.062500X0.350000X-0.062500X0.350000X0.062500X-0.350000X0.062500X-0.350000X-0.062500X0*%
%ADD23R,2.600000X2.600000*%
%ADD24RoundRect,0.250000X-0.700000X1.950000X-0.700000X-1.950000X0.700000X-1.950000X0.700000X1.950000X0*%
%ADD25RoundRect,0.250000X-0.475000X0.250000X-0.475000X-0.250000X0.475000X-0.250000X0.475000X0.250000X0*%
%ADD26R,4.600000X1.100000*%
%ADD27R,9.400000X10.800000*%
%ADD28C,1.600000*%
%ADD29R,2.000000X4.000000*%
%ADD30O,2.000000X3.300000*%
%ADD31O,3.500000X2.000000*%
%ADD32R,2.500000X1.800000*%
G04 APERTURE END LIST*
D10*
%TO.C,C2*%
X71620008Y-109639992D03*
X70523992Y-110736008D03*
%TD*%
D11*
%TO.C,R3*%
X75577000Y-107772000D03*
X77227000Y-107772000D03*
%TD*%
D12*
%TO.C,TP3*%
X69000000Y-106000000D03*
%TD*%
%TO.C,TP1*%
X61000000Y-94000000D03*
%TD*%
%TO.C,TPc4*%
X89000000Y-114000000D03*
%TD*%
D13*
%TO.C,C1*%
X84035000Y-110744000D03*
X82485000Y-110744000D03*
%TD*%
D14*
%TO.C,L1*%
X115062000Y-84204000D03*
X115062000Y-94104000D03*
%TD*%
D12*
%TO.C,TPb4*%
X95000000Y-108000000D03*
%TD*%
D15*
%TO.C,F1*%
X62176000Y-90350000D03*
X62176000Y-87450000D03*
%TD*%
D16*
%TO.C,R1*%
X77164000Y-102375000D03*
X77164000Y-104025000D03*
%TD*%
D17*
%TO.C,D3*%
X148869500Y-105156000D03*
X147294500Y-105156000D03*
%TD*%
D12*
%TO.C,TPa2*%
X81000000Y-100000000D03*
%TD*%
%TO.C,TPc5*%
X91000000Y-114000000D03*
%TD*%
D16*
%TO.C,R4*%
X79000000Y-109775000D03*
X79000000Y-111425000D03*
%TD*%
D12*
%TO.C,TP20*%
X110700000Y-97536000D03*
%TD*%
D18*
%TO.C,R5*%
X84582000Y-89511500D03*
X84582000Y-91336500D03*
%TD*%
D12*
%TO.C,TPa4*%
X85000000Y-100000000D03*
%TD*%
D19*
%TO.C,D2*%
X106934000Y-87758000D03*
X106934000Y-91058000D03*
%TD*%
D12*
%TO.C,TP11*%
X87122000Y-93218000D03*
%TD*%
%TO.C,TP19*%
X81000000Y-114000000D03*
%TD*%
D20*
%TO.C,C5*%
X113316000Y-105664000D03*
X104616000Y-105664000D03*
%TD*%
D12*
%TO.C,TPb1*%
X95000000Y-102000000D03*
%TD*%
%TO.C,TPc2*%
X85000000Y-114000000D03*
%TD*%
%TO.C,TPa7*%
X91000000Y-100000000D03*
%TD*%
D21*
%TO.C,U1*%
X82010000Y-108947500D03*
X82510000Y-108947500D03*
X83010000Y-108947500D03*
X83510000Y-108947500D03*
X84010000Y-108947500D03*
X84510000Y-108947500D03*
D22*
X85197500Y-108260000D03*
X85197500Y-107760000D03*
X85197500Y-107260000D03*
X85197500Y-106760000D03*
X85197500Y-106260000D03*
X85197500Y-105760000D03*
D21*
X84510000Y-105072500D03*
X84010000Y-105072500D03*
X83510000Y-105072500D03*
X83010000Y-105072500D03*
X82510000Y-105072500D03*
X82010000Y-105072500D03*
D22*
X81322500Y-105760000D03*
X81322500Y-106260000D03*
X81322500Y-106760000D03*
X81322500Y-107260000D03*
X81322500Y-107760000D03*
X81322500Y-108260000D03*
D23*
X83260000Y-107010000D03*
%TD*%
D24*
%TO.C,C4*%
X75692000Y-84804000D03*
X75692000Y-93504000D03*
%TD*%
D12*
%TO.C,TP2*%
X61000000Y-106000000D03*
%TD*%
%TO.C,TPb5*%
X95000000Y-110000000D03*
%TD*%
D25*
%TO.C,C3*%
X86614000Y-89474000D03*
X86614000Y-91374000D03*
%TD*%
D12*
%TO.C,TP7*%
X69000000Y-84000000D03*
%TD*%
%TO.C,TP10*%
X106934000Y-83058000D03*
%TD*%
D11*
%TO.C,R7*%
X144209000Y-105156000D03*
X145859000Y-105156000D03*
%TD*%
D12*
%TO.C,TPa0*%
X79000000Y-114000000D03*
%TD*%
%TO.C,TPa6*%
X89000000Y-100000000D03*
%TD*%
%TO.C,TPa1*%
X79000000Y-100000000D03*
%TD*%
%TO.C,TPb2*%
X95000000Y-104000000D03*
%TD*%
%TO.C,TP6*%
X69000000Y-104000000D03*
%TD*%
%TO.C,TP15*%
X77000000Y-114000000D03*
%TD*%
D16*
%TO.C,R2*%
X75640000Y-102375000D03*
X75640000Y-104025000D03*
%TD*%
D12*
%TO.C,TPa5*%
X87000000Y-100000000D03*
%TD*%
D26*
%TO.C,U2*%
X91253000Y-86262000D03*
X91253000Y-87962000D03*
D27*
X100403000Y-89662000D03*
D26*
X91253000Y-89662000D03*
X91253000Y-91362000D03*
X91253000Y-93062000D03*
%TD*%
D12*
%TO.C,TPb7*%
X95000000Y-114000000D03*
%TD*%
%TO.C,TPb0*%
X95000000Y-100000000D03*
%TD*%
D28*
%TO.C,J1*%
X146800000Y-112000000D03*
D29*
X137800000Y-112000000D03*
D30*
X143800000Y-112000000D03*
D31*
X144800000Y-116500000D03*
X144800000Y-107500000D03*
%TD*%
D12*
%TO.C,TPb3*%
X95000000Y-106000000D03*
%TD*%
D32*
%TO.C,D1*%
X66200000Y-84074000D03*
X62200000Y-84074000D03*
%TD*%
D12*
%TO.C,TPc3*%
X87000000Y-114000000D03*
%TD*%
%TO.C,TPa3*%
X83000000Y-100000000D03*
%TD*%
%TO.C,TP4*%
X69000000Y-100000000D03*
%TD*%
%TO.C,TP5*%
X69000000Y-102000000D03*
%TD*%
%TO.C,TPb6*%
X95000000Y-112000000D03*
%TD*%
D18*
%TO.C,R6*%
X84582000Y-93067500D03*
X84582000Y-94892500D03*
%TD*%
G36*
X56944163Y-90960607D02*
G01*
X57120737Y-90977998D01*
X57144963Y-90982816D01*
X57308809Y-91032518D01*
X57331629Y-91041971D01*
X57482628Y-91122681D01*
X57503166Y-91136404D01*
X57635515Y-91245020D01*
X57652980Y-91262485D01*
X57761596Y-91394834D01*
X57775319Y-91415372D01*
X57856029Y-91566371D01*
X57865482Y-91589191D01*
X57915184Y-91753037D01*
X57920002Y-91777263D01*
X57937393Y-91953837D01*
X57938000Y-91966187D01*
X57938000Y-107885813D01*
X57937393Y-107898163D01*
X57920002Y-108074737D01*
X57915184Y-108098963D01*
X57865482Y-108262809D01*
X57856029Y-108285629D01*
X57775319Y-108436628D01*
X57761596Y-108457166D01*
X57652980Y-108589515D01*
X57635515Y-108606980D01*
X57503166Y-108715596D01*
X57482628Y-108729319D01*
X57331629Y-108810029D01*
X57308809Y-108819482D01*
X57144963Y-108869184D01*
X57120737Y-108874002D01*
X56944163Y-108891393D01*
X56931813Y-108892000D01*
X50515629Y-108892000D01*
X50450833Y-108874062D01*
X50450311Y-108873749D01*
X50440048Y-108866890D01*
X50430088Y-108859503D01*
X50425214Y-108855700D01*
X50371050Y-108811249D01*
X50366366Y-108807208D01*
X50300884Y-108747858D01*
X50292142Y-108739116D01*
X50234868Y-108675925D01*
X50227022Y-108666365D01*
X50176223Y-108597869D01*
X50169354Y-108587589D01*
X50125508Y-108514437D01*
X50119679Y-108503531D01*
X50083213Y-108426429D01*
X50078482Y-108415006D01*
X50049756Y-108334723D01*
X50046166Y-108322890D01*
X50025442Y-108240153D01*
X50023030Y-108228027D01*
X50010062Y-108140609D01*
X50009305Y-108134471D01*
X50004968Y-108090440D01*
X50004702Y-108087357D01*
X50001432Y-108043019D01*
X50001129Y-108036844D01*
X50000038Y-107992419D01*
X50000000Y-107989326D01*
X50000000Y-92010674D01*
X50000038Y-92007581D01*
X50001129Y-91963156D01*
X50001432Y-91956981D01*
X50004702Y-91912643D01*
X50004968Y-91909560D01*
X50009305Y-91865529D01*
X50010062Y-91859392D01*
X50023029Y-91771976D01*
X50025441Y-91759849D01*
X50046164Y-91677117D01*
X50049753Y-91665284D01*
X50078482Y-91584991D01*
X50083214Y-91573567D01*
X50119679Y-91496468D01*
X50125508Y-91485563D01*
X50169354Y-91412411D01*
X50176223Y-91402131D01*
X50227018Y-91333641D01*
X50234862Y-91324083D01*
X50292140Y-91260885D01*
X50300885Y-91252140D01*
X50364076Y-91194867D01*
X50373635Y-91187022D01*
X50442131Y-91136223D01*
X50452411Y-91129354D01*
X50525563Y-91085508D01*
X50536469Y-91079679D01*
X50613565Y-91043216D01*
X50624988Y-91038485D01*
X50705285Y-91009754D01*
X50717118Y-91006164D01*
X50799849Y-90985441D01*
X50811976Y-90983029D01*
X50899392Y-90970062D01*
X50905529Y-90969305D01*
X50949560Y-90964968D01*
X50952643Y-90964702D01*
X50996981Y-90961432D01*
X51003156Y-90961129D01*
X51047581Y-90960038D01*
X51050674Y-90960000D01*
X56931813Y-90960000D01*
X56944163Y-90960607D01*
G37*
M02*
