%TF.GenerationSoftware,KiCad,Pcbnew,6.0.11+dfsg-1~bpo11+1*%
%TF.CreationDate,2024-03-27T19:00:14-04:00*%
%TF.ProjectId,Module - Adjustable single rail PSU,4d6f6475-6c65-4202-9d20-41646a757374,1.0.0*%
%TF.SameCoordinates,Original*%
%TF.FileFunction,Copper,L2,Bot*%
%TF.FilePolarity,Positive*%
%FSLAX46Y46*%
G04 Gerber Fmt 4.6, Leading zero omitted, Abs format (unit mm)*
G04 Created by KiCad (PCBNEW 6.0.11+dfsg-1~bpo11+1) date 2024-03-27 19:00:14*
%MOMM*%
%LPD*%
G01*
G04 APERTURE LIST*
%TA.AperFunction,ComponentPad*%
%ADD10C,1.000000*%
%TD*%
%TA.AperFunction,ComponentPad*%
%ADD11R,2.000000X4.000000*%
%TD*%
%TA.AperFunction,ComponentPad*%
%ADD12O,2.000000X3.300000*%
%TD*%
%TA.AperFunction,ComponentPad*%
%ADD13O,3.500000X2.000000*%
%TD*%
%TA.AperFunction,ViaPad*%
%ADD14C,0.600000*%
%TD*%
%TA.AperFunction,ViaPad*%
%ADD15C,0.800000*%
%TD*%
%TA.AperFunction,ViaPad*%
%ADD16C,1.600000*%
%TD*%
%TA.AperFunction,ViaPad*%
%ADD17C,0.500000*%
%TD*%
%TA.AperFunction,Conductor*%
%ADD18C,0.250000*%
%TD*%
G04 APERTURE END LIST*
D10*
%TO.P,TP3,1,1*%
%TO.N,Dat0*%
X69000000Y-106000000D03*
%TD*%
%TO.P,TP1,1,1*%
%TO.N,Vsrc*%
X61000000Y-94000000D03*
%TD*%
%TO.P,TPc4,1,1*%
%TO.N,PC4*%
X89000000Y-114000000D03*
%TD*%
%TO.P,TPb4,1,1*%
%TO.N,PB4*%
X95000000Y-108000000D03*
%TD*%
%TO.P,TPa2,1,1*%
%TO.N,PA2*%
X81000000Y-100000000D03*
%TD*%
%TO.P,TPc5,1,1*%
%TO.N,PC5*%
X91000000Y-114000000D03*
%TD*%
%TO.P,TP20,1,1*%
%TO.N,Vout*%
X110700000Y-97536000D03*
%TD*%
%TO.P,TPa4,1,1*%
%TO.N,PA4*%
X85000000Y-100000000D03*
%TD*%
%TO.P,TP11,1,1*%
%TO.N,PA1*%
X87122000Y-93218000D03*
%TD*%
%TO.P,TP19,1,1*%
%TO.N,GND*%
X81000000Y-114000000D03*
%TD*%
%TO.P,TPb1,1,1*%
%TO.N,PB1*%
X95000000Y-102000000D03*
%TD*%
%TO.P,TPc2,1,1*%
%TO.N,PC2*%
X85000000Y-114000000D03*
%TD*%
%TO.P,TPa7,1,1*%
%TO.N,PA7*%
X91000000Y-100000000D03*
%TD*%
%TO.P,TP2,1,1*%
%TO.N,GND*%
X61000000Y-106000000D03*
%TD*%
%TO.P,TPb5,1,1*%
%TO.N,PB5*%
X95000000Y-110000000D03*
%TD*%
%TO.P,TP7,1,1*%
%TO.N,/Vin*%
X69000000Y-84000000D03*
%TD*%
%TO.P,TP10,1,1*%
%TO.N,/Vmid*%
X106934000Y-83058000D03*
%TD*%
%TO.P,TPa0,1,1*%
%TO.N,~{RESET}*%
X79000000Y-114000000D03*
%TD*%
%TO.P,TPa6,1,1*%
%TO.N,PA6*%
X89000000Y-100000000D03*
%TD*%
%TO.P,TPa1,1,1*%
%TO.N,PA1*%
X79000000Y-100000000D03*
%TD*%
%TO.P,TPb2,1,1*%
%TO.N,PB2*%
X95000000Y-104000000D03*
%TD*%
%TO.P,TP6,1,1*%
%TO.N,SCL*%
X69000000Y-104000000D03*
%TD*%
%TO.P,TP15,1,1*%
%TO.N,I2C-Vcc*%
X77000000Y-114000000D03*
%TD*%
%TO.P,TPa5,1,1*%
%TO.N,PA5*%
X87000000Y-100000000D03*
%TD*%
%TO.P,TPb7,1,1*%
%TO.N,PB7*%
X95000000Y-114000000D03*
%TD*%
%TO.P,TPb0,1,1*%
%TO.N,PB0*%
X95000000Y-100000000D03*
%TD*%
D11*
%TO.P,J1,1*%
%TO.N,Vout*%
X137800000Y-112000000D03*
D12*
%TO.P,J1,2*%
%TO.N,GND*%
X143800000Y-112000000D03*
D13*
%TO.P,J1,3,MP*%
X144800000Y-116500000D03*
%TO.P,J1,4,MP*%
X144800000Y-107500000D03*
%TD*%
D10*
%TO.P,TPb3,1,1*%
%TO.N,PB3*%
X95000000Y-106000000D03*
%TD*%
%TO.P,TPc3,1,1*%
%TO.N,PC3*%
X87000000Y-114000000D03*
%TD*%
%TO.P,TPa3,1,1*%
%TO.N,PA3*%
X83000000Y-100000000D03*
%TD*%
%TO.P,TP4,1,1*%
%TO.N,I2C-Vcc*%
X69000000Y-100000000D03*
%TD*%
%TO.P,TP5,1,1*%
%TO.N,SDA*%
X69000000Y-102000000D03*
%TD*%
%TO.P,TPb6,1,1*%
%TO.N,PB6*%
X95000000Y-112000000D03*
%TD*%
D14*
%TO.N,I2C-Vcc*%
X58500000Y-98240000D03*
D15*
%TO.N,GND*%
X82360000Y-106200000D03*
D16*
X70040000Y-119000000D03*
D15*
X83260000Y-107010000D03*
D16*
X74000000Y-119000000D03*
X97282000Y-93472000D03*
X63000000Y-104000000D03*
X148000000Y-119000000D03*
X97282000Y-85852000D03*
X100584000Y-89662000D03*
X65532000Y-90170000D03*
X103886000Y-93472000D03*
D15*
X84160000Y-106200000D03*
X82360000Y-107900000D03*
D16*
X94742000Y-119000000D03*
X65532000Y-96012000D03*
X59000000Y-104000000D03*
X103886000Y-86106000D03*
D15*
X82485000Y-110701500D03*
X84160000Y-107900000D03*
D14*
%TO.N,Dat0*%
X58500000Y-101760000D03*
%TO.N,SDA*%
X58500000Y-99240000D03*
D15*
X78117000Y-104025000D03*
%TO.N,SCL*%
X74624000Y-104025000D03*
D14*
X58500000Y-100760000D03*
D17*
%TO.N,PA4*%
X85344000Y-109734193D03*
%TO.N,PA5*%
X85852000Y-109042000D03*
%TO.N,PA6*%
X86614000Y-108458000D03*
%TO.N,PA7*%
X87122000Y-107950000D03*
%TO.N,PA1*%
X80278500Y-108334500D03*
%TO.N,PA2*%
X80806212Y-108947500D03*
%TO.N,PA3*%
X81280000Y-109767057D03*
%TO.N,PC2*%
X78368658Y-105608314D03*
%TO.N,PC3*%
X78679577Y-106234919D03*
%TO.N,PC4*%
X79169830Y-106733874D03*
%TO.N,PC5*%
X79704000Y-107185500D03*
D16*
%TO.N,Vsrc*%
X63000000Y-96000000D03*
X59000000Y-96000000D03*
D15*
%TO.N,Vout*%
X85598000Y-89511500D03*
%TD*%
D18*
%TO.N,SDA*%
X69000000Y-102000000D02*
X76092000Y-102000000D01*
X76092000Y-102000000D02*
X78117000Y-104025000D01*
%TO.N,SCL*%
X74599000Y-104000000D02*
X74624000Y-104025000D01*
X69000000Y-104000000D02*
X74599000Y-104000000D01*
%TO.N,PA4*%
X85277000Y-109667193D02*
X85344000Y-109734193D01*
X85277000Y-100277000D02*
X85277000Y-109667193D01*
X85000000Y-100000000D02*
X85277000Y-100277000D01*
%TO.N,PA5*%
X85852000Y-109042000D02*
X85852000Y-101148000D01*
X85852000Y-101148000D02*
X87000000Y-100000000D01*
%TO.N,PA6*%
X86547000Y-108391000D02*
X86614000Y-108458000D01*
X89000000Y-100000000D02*
X86547000Y-102453000D01*
X86547000Y-102453000D02*
X86547000Y-108391000D01*
%TO.N,PA7*%
X87122000Y-103878000D02*
X91000000Y-100000000D01*
X87122000Y-107950000D02*
X87122000Y-103878000D01*
%TO.N,PA1*%
X80279000Y-108334000D02*
X80279000Y-101279000D01*
X80279000Y-101279000D02*
X79000000Y-100000000D01*
X79000000Y-98292000D02*
X79000000Y-100000000D01*
X87122000Y-93218000D02*
X84074000Y-93218000D01*
X80278500Y-108334500D02*
X80279000Y-108334000D01*
X84074000Y-93218000D02*
X79000000Y-98292000D01*
%TO.N,PA2*%
X80806212Y-108947500D02*
X80930712Y-108823000D01*
X80930712Y-100069288D02*
X81000000Y-100000000D01*
X80930712Y-108823000D02*
X80930712Y-100069288D01*
%TO.N,PA3*%
X81380712Y-109666345D02*
X81280000Y-109767057D01*
X81380712Y-101619288D02*
X81380712Y-109666345D01*
X83000000Y-100000000D02*
X81380712Y-101619288D01*
%TO.N,PC2*%
X78104577Y-110108577D02*
X78104577Y-105872395D01*
X78104577Y-105872395D02*
X78368658Y-105608314D01*
X85000000Y-114000000D02*
X83776000Y-112776000D01*
X83776000Y-112776000D02*
X80772000Y-112776000D01*
X80772000Y-112776000D02*
X78104577Y-110108577D01*
%TO.N,PC3*%
X87000000Y-114000000D02*
X85326000Y-112326000D01*
X85326000Y-112326000D02*
X80963000Y-112326000D01*
X80963000Y-112326000D02*
X78594830Y-109957830D01*
X78594830Y-106319666D02*
X78679577Y-106234919D01*
X78594830Y-109957830D02*
X78594830Y-106319666D01*
%TO.N,PC4*%
X89000000Y-114000000D02*
X86876000Y-111876000D01*
X79129000Y-109851000D02*
X79129000Y-106774704D01*
X79129000Y-106774704D02*
X79169830Y-106733874D01*
X86876000Y-111876000D02*
X81154000Y-111876000D01*
X81154000Y-111876000D02*
X79129000Y-109851000D01*
%TO.N,PC5*%
X91000000Y-114000000D02*
X88426000Y-111426000D01*
X81454000Y-111426000D02*
X80645000Y-110617000D01*
X79704000Y-107185500D02*
X79704000Y-109676000D01*
X79704000Y-109676000D02*
X80645000Y-110617000D01*
X88426000Y-111426000D02*
X81454000Y-111426000D01*
%TO.N,Vout*%
X110700000Y-97536000D02*
X98552000Y-97536000D01*
X98552000Y-97536000D02*
X90527500Y-89511500D01*
X90527500Y-89511500D02*
X85598000Y-89511500D01*
%TD*%
%TA.AperFunction,Conductor*%
%TO.N,SCL*%
G36*
X58389029Y-100508792D02*
G01*
X58537457Y-100525516D01*
X58564963Y-100531794D01*
X58699216Y-100578772D01*
X58724635Y-100591013D01*
X58845082Y-100666694D01*
X58867142Y-100684287D01*
X58967713Y-100784858D01*
X58985306Y-100806918D01*
X59060987Y-100927365D01*
X59073228Y-100952784D01*
X59120205Y-101087035D01*
X59126484Y-101114544D01*
X59142410Y-101255893D01*
X59142410Y-101284105D01*
X59137873Y-101324379D01*
X59110371Y-101389833D01*
X59051848Y-101430027D01*
X58980885Y-101432200D01*
X58920011Y-101395663D01*
X58912702Y-101386978D01*
X58900501Y-101371077D01*
X58900500Y-101371076D01*
X58895474Y-101364526D01*
X58888924Y-101359500D01*
X58888921Y-101359497D01*
X58786196Y-101280673D01*
X58786194Y-101280672D01*
X58779643Y-101275645D01*
X58644754Y-101219772D01*
X58500000Y-101200715D01*
X58491812Y-101201793D01*
X58363432Y-101218694D01*
X58363430Y-101218695D01*
X58355246Y-101219772D01*
X58307430Y-101239578D01*
X58227986Y-101272485D01*
X58227984Y-101272486D01*
X58220358Y-101275645D01*
X58104526Y-101364526D01*
X58015645Y-101480358D01*
X57959772Y-101615246D01*
X57940715Y-101760000D01*
X57941793Y-101768188D01*
X57957771Y-101889554D01*
X57946832Y-101959703D01*
X57899703Y-102012801D01*
X57832849Y-102032000D01*
X51531079Y-102032000D01*
X51516971Y-102031208D01*
X51368543Y-102014484D01*
X51341037Y-102008206D01*
X51206784Y-101961228D01*
X51181365Y-101948987D01*
X51060918Y-101873306D01*
X51038858Y-101855713D01*
X50938287Y-101755142D01*
X50920694Y-101733082D01*
X50845013Y-101612635D01*
X50832772Y-101587216D01*
X50785795Y-101452965D01*
X50779516Y-101425456D01*
X50763590Y-101284107D01*
X50763590Y-101255893D01*
X50779516Y-101114544D01*
X50785795Y-101087035D01*
X50832772Y-100952784D01*
X50845013Y-100927365D01*
X50920694Y-100806918D01*
X50938287Y-100784858D01*
X51038858Y-100684287D01*
X51060918Y-100666694D01*
X51181365Y-100591013D01*
X51206784Y-100578772D01*
X51341037Y-100531794D01*
X51368543Y-100525516D01*
X51516971Y-100508792D01*
X51531079Y-100508000D01*
X58374921Y-100508000D01*
X58389029Y-100508792D01*
G37*
%TD.AperFunction*%
%TD*%
%TA.AperFunction,Conductor*%
%TO.N,GND*%
G36*
X148987103Y-80256921D02*
G01*
X149000000Y-80259486D01*
X149012170Y-80257065D01*
X149019856Y-80257065D01*
X149032207Y-80257672D01*
X149133092Y-80267609D01*
X149157309Y-80272425D01*
X149273426Y-80307649D01*
X149296226Y-80317093D01*
X149403239Y-80374292D01*
X149423770Y-80388011D01*
X149517556Y-80464981D01*
X149535019Y-80482444D01*
X149611989Y-80576230D01*
X149625708Y-80596761D01*
X149682907Y-80703774D01*
X149692351Y-80726574D01*
X149727575Y-80842691D01*
X149732391Y-80866908D01*
X149742328Y-80967793D01*
X149742935Y-80980144D01*
X149742935Y-80987830D01*
X149740514Y-81000000D01*
X149742935Y-81012170D01*
X149743079Y-81012894D01*
X149745500Y-81037476D01*
X149745500Y-118962524D01*
X149743079Y-118987103D01*
X149740514Y-119000000D01*
X149742935Y-119012170D01*
X149742935Y-119019856D01*
X149742328Y-119032207D01*
X149732391Y-119133092D01*
X149727575Y-119157309D01*
X149692351Y-119273426D01*
X149682907Y-119296226D01*
X149625708Y-119403239D01*
X149611989Y-119423770D01*
X149535019Y-119517556D01*
X149517556Y-119535019D01*
X149423770Y-119611989D01*
X149403239Y-119625708D01*
X149296226Y-119682907D01*
X149273426Y-119692351D01*
X149157309Y-119727575D01*
X149133092Y-119732391D01*
X149032207Y-119742328D01*
X149019856Y-119742935D01*
X149012170Y-119742935D01*
X149000000Y-119740514D01*
X148987103Y-119743079D01*
X148962524Y-119745500D01*
X70180761Y-119745500D01*
X70156641Y-119743169D01*
X70143038Y-119740516D01*
X70130875Y-119742982D01*
X70118561Y-119743028D01*
X70107791Y-119742606D01*
X69971926Y-119731449D01*
X69950681Y-119727856D01*
X69841033Y-119699481D01*
X69794919Y-119687548D01*
X69774590Y-119680383D01*
X69653636Y-119625714D01*
X69627978Y-119614117D01*
X69609169Y-119603592D01*
X69476005Y-119513311D01*
X69459263Y-119499733D01*
X69361212Y-119405212D01*
X69354584Y-119396656D01*
X69353760Y-119397376D01*
X69345595Y-119388031D01*
X69339411Y-119377273D01*
X69318771Y-119361374D01*
X69306567Y-119350650D01*
X66723359Y-116767442D01*
X142820188Y-116767442D01*
X142882616Y-116970367D01*
X142886837Y-116980712D01*
X142984361Y-117169660D01*
X142990346Y-117179091D01*
X143119793Y-117347789D01*
X143127349Y-117356006D01*
X143284621Y-117499113D01*
X143293520Y-117505867D01*
X143473639Y-117618856D01*
X143483605Y-117623933D01*
X143680875Y-117703235D01*
X143691590Y-117706470D01*
X143900762Y-117749788D01*
X143909898Y-117750991D01*
X143960263Y-117753895D01*
X143963910Y-117754000D01*
X144527885Y-117754000D01*
X144543124Y-117749525D01*
X144544329Y-117748135D01*
X144546000Y-117740452D01*
X144546000Y-117735885D01*
X145054000Y-117735885D01*
X145058475Y-117751124D01*
X145059865Y-117752329D01*
X145067548Y-117754000D01*
X145603995Y-117754000D01*
X145609590Y-117753751D01*
X145767367Y-117739669D01*
X145778381Y-117737687D01*
X145983465Y-117681583D01*
X145993938Y-117677689D01*
X146185856Y-117586148D01*
X146195471Y-117580462D01*
X146368143Y-117456385D01*
X146376609Y-117449077D01*
X146524571Y-117296391D01*
X146531614Y-117287694D01*
X146650200Y-117111221D01*
X146655586Y-117101423D01*
X146741051Y-116906729D01*
X146744616Y-116896137D01*
X146774511Y-116771615D01*
X146773806Y-116757530D01*
X146764927Y-116754000D01*
X145072115Y-116754000D01*
X145056876Y-116758475D01*
X145055671Y-116759865D01*
X145054000Y-116767548D01*
X145054000Y-117735885D01*
X144546000Y-117735885D01*
X144546000Y-116772115D01*
X144541525Y-116756876D01*
X144540135Y-116755671D01*
X144532452Y-116754000D01*
X142835619Y-116754000D01*
X142821637Y-116758105D01*
X142820188Y-116767442D01*
X66723359Y-116767442D01*
X66184302Y-116228385D01*
X142825489Y-116228385D01*
X142826194Y-116242470D01*
X142835073Y-116246000D01*
X144527885Y-116246000D01*
X144543124Y-116241525D01*
X144544329Y-116240135D01*
X144546000Y-116232452D01*
X144546000Y-116227885D01*
X145054000Y-116227885D01*
X145058475Y-116243124D01*
X145059865Y-116244329D01*
X145067548Y-116246000D01*
X146764381Y-116246000D01*
X146778363Y-116241895D01*
X146779812Y-116232558D01*
X146717384Y-116029633D01*
X146713163Y-116019288D01*
X146615639Y-115830340D01*
X146609654Y-115820909D01*
X146480207Y-115652211D01*
X146472651Y-115643994D01*
X146315379Y-115500887D01*
X146306480Y-115494133D01*
X146126361Y-115381144D01*
X146116395Y-115376067D01*
X145919125Y-115296765D01*
X145908410Y-115293530D01*
X145699238Y-115250212D01*
X145690102Y-115249009D01*
X145639737Y-115246105D01*
X145636090Y-115246000D01*
X145072115Y-115246000D01*
X145056876Y-115250475D01*
X145055671Y-115251865D01*
X145054000Y-115259548D01*
X145054000Y-116227885D01*
X144546000Y-116227885D01*
X144546000Y-115264115D01*
X144541525Y-115248876D01*
X144540135Y-115247671D01*
X144532452Y-115246000D01*
X143996005Y-115246000D01*
X143990410Y-115246249D01*
X143832633Y-115260331D01*
X143821619Y-115262313D01*
X143616535Y-115318417D01*
X143606062Y-115322311D01*
X143414144Y-115413852D01*
X143404529Y-115419538D01*
X143231857Y-115543615D01*
X143223391Y-115550923D01*
X143075429Y-115703609D01*
X143068386Y-115712306D01*
X142949800Y-115888779D01*
X142944414Y-115898577D01*
X142858949Y-116093271D01*
X142855384Y-116103863D01*
X142825489Y-116228385D01*
X66184302Y-116228385D01*
X63945317Y-113989399D01*
X76240800Y-113989399D01*
X76257318Y-114157862D01*
X76310748Y-114318479D01*
X76314397Y-114324504D01*
X76341218Y-114368790D01*
X76398435Y-114463267D01*
X76403326Y-114468332D01*
X76403327Y-114468333D01*
X76427062Y-114492911D01*
X76516021Y-114585031D01*
X76657660Y-114677717D01*
X76816315Y-114736720D01*
X76823296Y-114737651D01*
X76823298Y-114737652D01*
X76977118Y-114758176D01*
X76977122Y-114758176D01*
X76984099Y-114759107D01*
X76991110Y-114758469D01*
X76991114Y-114758469D01*
X77145652Y-114744405D01*
X77152673Y-114743766D01*
X77313659Y-114691458D01*
X77459056Y-114604784D01*
X77581638Y-114488052D01*
X77585539Y-114482181D01*
X77671410Y-114352935D01*
X77671411Y-114352933D01*
X77675311Y-114347063D01*
X77735420Y-114188824D01*
X77748002Y-114099301D01*
X77758427Y-114025123D01*
X77758427Y-114025118D01*
X77758978Y-114021200D01*
X77759274Y-114000000D01*
X77758085Y-113989399D01*
X78240800Y-113989399D01*
X78257318Y-114157862D01*
X78310748Y-114318479D01*
X78314397Y-114324504D01*
X78341218Y-114368790D01*
X78398435Y-114463267D01*
X78403326Y-114468332D01*
X78403327Y-114468333D01*
X78427062Y-114492911D01*
X78516021Y-114585031D01*
X78657660Y-114677717D01*
X78816315Y-114736720D01*
X78823296Y-114737651D01*
X78823298Y-114737652D01*
X78977118Y-114758176D01*
X78977122Y-114758176D01*
X78984099Y-114759107D01*
X78991110Y-114758469D01*
X78991114Y-114758469D01*
X79145652Y-114744405D01*
X79152673Y-114743766D01*
X79313659Y-114691458D01*
X79327249Y-114683357D01*
X80681473Y-114683357D01*
X80684256Y-114687075D01*
X80809835Y-114733777D01*
X80823421Y-114737164D01*
X80977128Y-114757674D01*
X80991124Y-114757967D01*
X81145550Y-114743912D01*
X81159276Y-114741095D01*
X81306752Y-114693177D01*
X81311688Y-114690938D01*
X81318969Y-114683086D01*
X81315464Y-114674674D01*
X81012812Y-114372022D01*
X80998868Y-114364408D01*
X80997035Y-114364539D01*
X80990420Y-114368790D01*
X80688233Y-114670977D01*
X80681473Y-114683357D01*
X79327249Y-114683357D01*
X79459056Y-114604784D01*
X79581638Y-114488052D01*
X79585539Y-114482181D01*
X79671410Y-114352935D01*
X79671411Y-114352933D01*
X79675311Y-114347063D01*
X79735420Y-114188824D01*
X79748002Y-114099301D01*
X79758427Y-114025123D01*
X79758427Y-114025118D01*
X79758978Y-114021200D01*
X79759274Y-114000000D01*
X79758872Y-113996418D01*
X80241991Y-113996418D01*
X80257123Y-114150748D01*
X80260034Y-114164442D01*
X80308980Y-114311581D01*
X80309687Y-114313110D01*
X80316497Y-114319336D01*
X80325117Y-114315673D01*
X80627978Y-114012812D01*
X80634356Y-114001132D01*
X81364408Y-114001132D01*
X81364539Y-114002965D01*
X81368790Y-114009580D01*
X81670635Y-114311425D01*
X81683015Y-114318185D01*
X81686831Y-114315328D01*
X81732431Y-114195285D01*
X81735913Y-114181724D01*
X81757924Y-114025109D01*
X81758530Y-114017225D01*
X81758716Y-114003962D01*
X81758329Y-113996062D01*
X81740700Y-113838891D01*
X81737599Y-113825245D01*
X81690960Y-113691317D01*
X81682757Y-113679844D01*
X81678749Y-113680625D01*
X81678139Y-113681071D01*
X81372022Y-113987188D01*
X81364408Y-114001132D01*
X80634356Y-114001132D01*
X80635592Y-113998868D01*
X80635461Y-113997035D01*
X80631210Y-113990420D01*
X80328650Y-113687860D01*
X80316270Y-113681100D01*
X80312648Y-113683811D01*
X80264913Y-113814962D01*
X80261621Y-113828570D01*
X80242187Y-113982412D01*
X80241991Y-113996418D01*
X79758872Y-113996418D01*
X79745631Y-113878363D01*
X79741191Y-113838780D01*
X79741190Y-113838777D01*
X79740406Y-113831784D01*
X79684738Y-113671929D01*
X79595038Y-113528379D01*
X79475764Y-113408269D01*
X79332844Y-113317569D01*
X79305442Y-113307812D01*
X79180016Y-113263149D01*
X79180011Y-113263148D01*
X79173381Y-113260787D01*
X79166395Y-113259954D01*
X79166391Y-113259953D01*
X79047287Y-113245751D01*
X79005301Y-113240745D01*
X78998298Y-113241481D01*
X78998297Y-113241481D01*
X78843965Y-113257701D01*
X78843961Y-113257702D01*
X78836957Y-113258438D01*
X78830286Y-113260709D01*
X78683387Y-113310717D01*
X78683384Y-113310718D01*
X78676717Y-113312988D01*
X78670719Y-113316678D01*
X78670717Y-113316679D01*
X78538543Y-113397993D01*
X78538541Y-113397995D01*
X78532544Y-113401684D01*
X78411605Y-113520117D01*
X78319909Y-113662400D01*
X78309384Y-113691317D01*
X78264425Y-113814840D01*
X78264424Y-113814845D01*
X78262015Y-113821463D01*
X78240800Y-113989399D01*
X77758085Y-113989399D01*
X77745631Y-113878363D01*
X77741191Y-113838780D01*
X77741190Y-113838777D01*
X77740406Y-113831784D01*
X77684738Y-113671929D01*
X77595038Y-113528379D01*
X77475764Y-113408269D01*
X77332844Y-113317569D01*
X77305442Y-113307812D01*
X77180016Y-113263149D01*
X77180011Y-113263148D01*
X77173381Y-113260787D01*
X77166395Y-113259954D01*
X77166391Y-113259953D01*
X77047287Y-113245751D01*
X77005301Y-113240745D01*
X76998298Y-113241481D01*
X76998297Y-113241481D01*
X76843965Y-113257701D01*
X76843961Y-113257702D01*
X76836957Y-113258438D01*
X76830286Y-113260709D01*
X76683387Y-113310717D01*
X76683384Y-113310718D01*
X76676717Y-113312988D01*
X76670719Y-113316678D01*
X76670717Y-113316679D01*
X76538543Y-113397993D01*
X76538541Y-113397995D01*
X76532544Y-113401684D01*
X76411605Y-113520117D01*
X76319909Y-113662400D01*
X76309384Y-113691317D01*
X76264425Y-113814840D01*
X76264424Y-113814845D01*
X76262015Y-113821463D01*
X76240800Y-113989399D01*
X63945317Y-113989399D01*
X60046371Y-110090453D01*
X77720257Y-110090453D01*
X77721481Y-110100794D01*
X77724204Y-110123800D01*
X77724554Y-110129731D01*
X77724649Y-110129723D01*
X77725077Y-110134901D01*
X77725077Y-110140101D01*
X77725931Y-110145230D01*
X77725931Y-110145233D01*
X77728246Y-110159142D01*
X77729083Y-110165020D01*
X77733735Y-110204323D01*
X77735107Y-110215918D01*
X77739070Y-110224170D01*
X77740573Y-110233203D01*
X77745520Y-110242372D01*
X77745521Y-110242374D01*
X77764911Y-110278309D01*
X77767608Y-110283602D01*
X77786362Y-110322659D01*
X77786365Y-110322663D01*
X77789796Y-110329809D01*
X77793391Y-110334085D01*
X77795314Y-110336008D01*
X77797086Y-110337940D01*
X77797129Y-110338019D01*
X77797005Y-110338132D01*
X77797481Y-110338672D01*
X77800567Y-110344391D01*
X77808212Y-110351458D01*
X77840163Y-110380993D01*
X77843729Y-110384423D01*
X80465522Y-113006216D01*
X80480664Y-113024964D01*
X80481779Y-113026189D01*
X80487429Y-113034940D01*
X80495607Y-113041387D01*
X80495609Y-113041389D01*
X80513800Y-113055729D01*
X80518241Y-113059675D01*
X80518303Y-113059602D01*
X80522267Y-113062961D01*
X80525944Y-113066638D01*
X80541692Y-113077892D01*
X80546362Y-113081398D01*
X80586647Y-113113156D01*
X80595281Y-113116188D01*
X80602734Y-113121514D01*
X80612714Y-113124499D01*
X80622062Y-113129078D01*
X80621288Y-113130658D01*
X80670570Y-113162677D01*
X80699740Y-113227404D01*
X80689286Y-113297627D01*
X80680012Y-113311670D01*
X80679561Y-113314420D01*
X80684089Y-113324879D01*
X80987188Y-113627978D01*
X81001132Y-113635592D01*
X81002965Y-113635461D01*
X81009580Y-113631210D01*
X81312544Y-113328246D01*
X81320158Y-113314302D01*
X81318455Y-113290490D01*
X81333546Y-113221115D01*
X81383748Y-113170913D01*
X81444134Y-113155500D01*
X83566616Y-113155500D01*
X83634737Y-113175502D01*
X83655711Y-113192405D01*
X84220920Y-113757614D01*
X84254946Y-113819926D01*
X84256831Y-113862500D01*
X84240800Y-113989399D01*
X84257318Y-114157862D01*
X84310748Y-114318479D01*
X84314397Y-114324504D01*
X84341218Y-114368790D01*
X84398435Y-114463267D01*
X84403326Y-114468332D01*
X84403327Y-114468333D01*
X84427062Y-114492911D01*
X84516021Y-114585031D01*
X84657660Y-114677717D01*
X84816315Y-114736720D01*
X84823296Y-114737651D01*
X84823298Y-114737652D01*
X84977118Y-114758176D01*
X84977122Y-114758176D01*
X84984099Y-114759107D01*
X84991110Y-114758469D01*
X84991114Y-114758469D01*
X85145652Y-114744405D01*
X85152673Y-114743766D01*
X85313659Y-114691458D01*
X85459056Y-114604784D01*
X85581638Y-114488052D01*
X85585539Y-114482181D01*
X85671410Y-114352935D01*
X85671411Y-114352933D01*
X85675311Y-114347063D01*
X85735420Y-114188824D01*
X85748002Y-114099301D01*
X85758427Y-114025123D01*
X85758427Y-114025118D01*
X85758978Y-114021200D01*
X85759274Y-114000000D01*
X85745631Y-113878363D01*
X85741191Y-113838780D01*
X85741190Y-113838777D01*
X85740406Y-113831784D01*
X85684738Y-113671929D01*
X85595038Y-113528379D01*
X85475764Y-113408269D01*
X85332844Y-113317569D01*
X85305442Y-113307812D01*
X85180016Y-113263149D01*
X85180011Y-113263148D01*
X85173381Y-113260787D01*
X85166395Y-113259954D01*
X85166391Y-113259953D01*
X85047287Y-113245751D01*
X85005301Y-113240745D01*
X84998298Y-113241481D01*
X84998297Y-113241481D01*
X84858878Y-113256134D01*
X84789040Y-113243362D01*
X84756613Y-113219919D01*
X84457289Y-112920595D01*
X84423263Y-112858283D01*
X84428328Y-112787468D01*
X84470875Y-112730632D01*
X84537395Y-112705821D01*
X84546384Y-112705500D01*
X85116616Y-112705500D01*
X85184737Y-112725502D01*
X85205711Y-112742405D01*
X86220920Y-113757614D01*
X86254946Y-113819926D01*
X86256831Y-113862500D01*
X86240800Y-113989399D01*
X86257318Y-114157862D01*
X86310748Y-114318479D01*
X86314397Y-114324504D01*
X86341218Y-114368790D01*
X86398435Y-114463267D01*
X86403326Y-114468332D01*
X86403327Y-114468333D01*
X86427062Y-114492911D01*
X86516021Y-114585031D01*
X86657660Y-114677717D01*
X86816315Y-114736720D01*
X86823296Y-114737651D01*
X86823298Y-114737652D01*
X86977118Y-114758176D01*
X86977122Y-114758176D01*
X86984099Y-114759107D01*
X86991110Y-114758469D01*
X86991114Y-114758469D01*
X87145652Y-114744405D01*
X87152673Y-114743766D01*
X87313659Y-114691458D01*
X87459056Y-114604784D01*
X87581638Y-114488052D01*
X87585539Y-114482181D01*
X87671410Y-114352935D01*
X87671411Y-114352933D01*
X87675311Y-114347063D01*
X87735420Y-114188824D01*
X87748002Y-114099301D01*
X87758427Y-114025123D01*
X87758427Y-114025118D01*
X87758978Y-114021200D01*
X87759274Y-114000000D01*
X87745631Y-113878363D01*
X87741191Y-113838780D01*
X87741190Y-113838777D01*
X87740406Y-113831784D01*
X87684738Y-113671929D01*
X87595038Y-113528379D01*
X87475764Y-113408269D01*
X87332844Y-113317569D01*
X87305442Y-113307812D01*
X87180016Y-113263149D01*
X87180011Y-113263148D01*
X87173381Y-113260787D01*
X87166395Y-113259954D01*
X87166391Y-113259953D01*
X87047287Y-113245751D01*
X87005301Y-113240745D01*
X86998298Y-113241481D01*
X86998297Y-113241481D01*
X86858878Y-113256134D01*
X86789040Y-113243362D01*
X86756613Y-113219919D01*
X86007289Y-112470595D01*
X85973263Y-112408283D01*
X85978328Y-112337468D01*
X86020875Y-112280632D01*
X86087395Y-112255821D01*
X86096384Y-112255500D01*
X86666616Y-112255500D01*
X86734737Y-112275502D01*
X86755711Y-112292405D01*
X88220920Y-113757614D01*
X88254946Y-113819926D01*
X88256831Y-113862500D01*
X88240800Y-113989399D01*
X88257318Y-114157862D01*
X88310748Y-114318479D01*
X88314397Y-114324504D01*
X88341218Y-114368790D01*
X88398435Y-114463267D01*
X88403326Y-114468332D01*
X88403327Y-114468333D01*
X88427062Y-114492911D01*
X88516021Y-114585031D01*
X88657660Y-114677717D01*
X88816315Y-114736720D01*
X88823296Y-114737651D01*
X88823298Y-114737652D01*
X88977118Y-114758176D01*
X88977122Y-114758176D01*
X88984099Y-114759107D01*
X88991110Y-114758469D01*
X88991114Y-114758469D01*
X89145652Y-114744405D01*
X89152673Y-114743766D01*
X89313659Y-114691458D01*
X89459056Y-114604784D01*
X89581638Y-114488052D01*
X89585539Y-114482181D01*
X89671410Y-114352935D01*
X89671411Y-114352933D01*
X89675311Y-114347063D01*
X89735420Y-114188824D01*
X89748002Y-114099301D01*
X89758427Y-114025123D01*
X89758427Y-114025118D01*
X89758978Y-114021200D01*
X89759274Y-114000000D01*
X89745631Y-113878363D01*
X89741191Y-113838780D01*
X89741190Y-113838777D01*
X89740406Y-113831784D01*
X89684738Y-113671929D01*
X89595038Y-113528379D01*
X89475764Y-113408269D01*
X89332844Y-113317569D01*
X89305442Y-113307812D01*
X89180016Y-113263149D01*
X89180011Y-113263148D01*
X89173381Y-113260787D01*
X89166395Y-113259954D01*
X89166391Y-113259953D01*
X89047287Y-113245751D01*
X89005301Y-113240745D01*
X88998298Y-113241481D01*
X88998297Y-113241481D01*
X88858878Y-113256134D01*
X88789040Y-113243362D01*
X88756613Y-113219919D01*
X87557289Y-112020595D01*
X87523263Y-111958283D01*
X87528328Y-111887468D01*
X87570875Y-111830632D01*
X87637395Y-111805821D01*
X87646384Y-111805500D01*
X88216616Y-111805500D01*
X88284737Y-111825502D01*
X88305711Y-111842405D01*
X90220920Y-113757614D01*
X90254946Y-113819926D01*
X90256831Y-113862500D01*
X90240800Y-113989399D01*
X90257318Y-114157862D01*
X90310748Y-114318479D01*
X90314397Y-114324504D01*
X90341218Y-114368790D01*
X90398435Y-114463267D01*
X90403326Y-114468332D01*
X90403327Y-114468333D01*
X90427062Y-114492911D01*
X90516021Y-114585031D01*
X90657660Y-114677717D01*
X90816315Y-114736720D01*
X90823296Y-114737651D01*
X90823298Y-114737652D01*
X90977118Y-114758176D01*
X90977122Y-114758176D01*
X90984099Y-114759107D01*
X90991110Y-114758469D01*
X90991114Y-114758469D01*
X91145652Y-114744405D01*
X91152673Y-114743766D01*
X91313659Y-114691458D01*
X91459056Y-114604784D01*
X91581638Y-114488052D01*
X91585539Y-114482181D01*
X91671410Y-114352935D01*
X91671411Y-114352933D01*
X91675311Y-114347063D01*
X91735420Y-114188824D01*
X91748002Y-114099301D01*
X91758427Y-114025123D01*
X91758427Y-114025118D01*
X91758978Y-114021200D01*
X91759274Y-114000000D01*
X91758085Y-113989399D01*
X94240800Y-113989399D01*
X94257318Y-114157862D01*
X94310748Y-114318479D01*
X94314397Y-114324504D01*
X94341218Y-114368790D01*
X94398435Y-114463267D01*
X94403326Y-114468332D01*
X94403327Y-114468333D01*
X94427062Y-114492911D01*
X94516021Y-114585031D01*
X94657660Y-114677717D01*
X94816315Y-114736720D01*
X94823296Y-114737651D01*
X94823298Y-114737652D01*
X94977118Y-114758176D01*
X94977122Y-114758176D01*
X94984099Y-114759107D01*
X94991110Y-114758469D01*
X94991114Y-114758469D01*
X95145652Y-114744405D01*
X95152673Y-114743766D01*
X95313659Y-114691458D01*
X95459056Y-114604784D01*
X95581638Y-114488052D01*
X95585539Y-114482181D01*
X95671410Y-114352935D01*
X95671411Y-114352933D01*
X95675311Y-114347063D01*
X95735420Y-114188824D01*
X95748002Y-114099301D01*
X95758427Y-114025123D01*
X95758427Y-114025118D01*
X95758978Y-114021200D01*
X95759274Y-114000000D01*
X95745631Y-113878363D01*
X95741191Y-113838780D01*
X95741190Y-113838777D01*
X95740406Y-113831784D01*
X95684738Y-113671929D01*
X95595038Y-113528379D01*
X95475764Y-113408269D01*
X95332844Y-113317569D01*
X95305442Y-113307812D01*
X95180016Y-113263149D01*
X95180011Y-113263148D01*
X95173381Y-113260787D01*
X95166395Y-113259954D01*
X95166391Y-113259953D01*
X95047287Y-113245751D01*
X95005301Y-113240745D01*
X94998298Y-113241481D01*
X94998297Y-113241481D01*
X94843965Y-113257701D01*
X94843961Y-113257702D01*
X94836957Y-113258438D01*
X94830286Y-113260709D01*
X94683387Y-113310717D01*
X94683384Y-113310718D01*
X94676717Y-113312988D01*
X94670719Y-113316678D01*
X94670717Y-113316679D01*
X94538543Y-113397993D01*
X94538541Y-113397995D01*
X94532544Y-113401684D01*
X94411605Y-113520117D01*
X94319909Y-113662400D01*
X94309384Y-113691317D01*
X94264425Y-113814840D01*
X94264424Y-113814845D01*
X94262015Y-113821463D01*
X94240800Y-113989399D01*
X91758085Y-113989399D01*
X91745631Y-113878363D01*
X91741191Y-113838780D01*
X91741190Y-113838777D01*
X91740406Y-113831784D01*
X91684738Y-113671929D01*
X91595038Y-113528379D01*
X91475764Y-113408269D01*
X91332844Y-113317569D01*
X91305442Y-113307812D01*
X91180016Y-113263149D01*
X91180011Y-113263148D01*
X91173381Y-113260787D01*
X91166395Y-113259954D01*
X91166391Y-113259953D01*
X91047287Y-113245751D01*
X91005301Y-113240745D01*
X90998298Y-113241481D01*
X90998297Y-113241481D01*
X90858878Y-113256134D01*
X90789040Y-113243362D01*
X90756613Y-113219919D01*
X89526093Y-111989399D01*
X94240800Y-111989399D01*
X94257318Y-112157862D01*
X94310748Y-112318479D01*
X94314397Y-112324504D01*
X94362981Y-112404725D01*
X94398435Y-112463267D01*
X94403326Y-112468332D01*
X94403327Y-112468333D01*
X94427062Y-112492911D01*
X94516021Y-112585031D01*
X94657660Y-112677717D01*
X94816315Y-112736720D01*
X94823296Y-112737651D01*
X94823298Y-112737652D01*
X94977118Y-112758176D01*
X94977122Y-112758176D01*
X94984099Y-112759107D01*
X94991110Y-112758469D01*
X94991114Y-112758469D01*
X95145652Y-112744405D01*
X95152673Y-112743766D01*
X95313659Y-112691458D01*
X95459056Y-112604784D01*
X95581638Y-112488052D01*
X95585539Y-112482181D01*
X95671410Y-112352935D01*
X95671411Y-112352933D01*
X95675311Y-112347063D01*
X95735420Y-112188824D01*
X95758978Y-112021200D01*
X95759274Y-112000000D01*
X95746652Y-111887468D01*
X95741191Y-111838780D01*
X95741190Y-111838777D01*
X95740406Y-111831784D01*
X95684738Y-111671929D01*
X95595038Y-111528379D01*
X95475764Y-111408269D01*
X95467035Y-111402729D01*
X95421245Y-111373670D01*
X95332844Y-111317569D01*
X95272285Y-111296005D01*
X95180016Y-111263149D01*
X95180011Y-111263148D01*
X95173381Y-111260787D01*
X95166395Y-111259954D01*
X95166391Y-111259953D01*
X95034628Y-111244242D01*
X95005301Y-111240745D01*
X94998298Y-111241481D01*
X94998297Y-111241481D01*
X94843965Y-111257701D01*
X94843961Y-111257702D01*
X94836957Y-111258438D01*
X94830286Y-111260709D01*
X94683387Y-111310717D01*
X94683384Y-111310718D01*
X94676717Y-111312988D01*
X94670719Y-111316678D01*
X94670717Y-111316679D01*
X94538543Y-111397993D01*
X94538541Y-111397995D01*
X94532544Y-111401684D01*
X94411605Y-111520117D01*
X94407794Y-111526031D01*
X94407792Y-111526033D01*
X94354333Y-111608985D01*
X94319909Y-111662400D01*
X94317498Y-111669025D01*
X94264425Y-111814840D01*
X94264424Y-111814845D01*
X94262015Y-111821463D01*
X94240800Y-111989399D01*
X89526093Y-111989399D01*
X88732478Y-111195784D01*
X88717336Y-111177036D01*
X88716221Y-111175811D01*
X88710571Y-111167060D01*
X88702393Y-111160613D01*
X88702391Y-111160611D01*
X88684200Y-111146271D01*
X88679759Y-111142325D01*
X88679697Y-111142398D01*
X88675733Y-111139039D01*
X88672056Y-111135362D01*
X88656308Y-111124108D01*
X88651638Y-111120602D01*
X88611353Y-111088844D01*
X88602719Y-111085812D01*
X88595266Y-111080486D01*
X88546150Y-111065797D01*
X88540508Y-111063964D01*
X88499633Y-111049610D01*
X88499632Y-111049610D01*
X88492149Y-111046982D01*
X88486584Y-111046500D01*
X88483876Y-111046500D01*
X88481242Y-111046386D01*
X88481144Y-111046357D01*
X88481151Y-111046193D01*
X88480447Y-111046149D01*
X88474222Y-111044287D01*
X88420365Y-111046403D01*
X88415418Y-111046500D01*
X81663386Y-111046500D01*
X81595265Y-111026498D01*
X81574291Y-111009596D01*
X81306283Y-110741588D01*
X81031708Y-110467014D01*
X80997683Y-110404701D01*
X81002747Y-110333886D01*
X81045294Y-110277050D01*
X81111814Y-110252239D01*
X81158377Y-110257651D01*
X81189940Y-110267512D01*
X81189943Y-110267513D01*
X81198510Y-110270189D01*
X81342998Y-110272837D01*
X81362530Y-110267512D01*
X81473763Y-110237187D01*
X81473765Y-110237186D01*
X81482422Y-110234826D01*
X81605572Y-110159211D01*
X81702551Y-110052071D01*
X81765560Y-109922019D01*
X81789536Y-109779510D01*
X81789688Y-109767057D01*
X81779347Y-109694853D01*
X81770474Y-109632892D01*
X81770473Y-109632890D01*
X81769201Y-109624005D01*
X81765485Y-109615832D01*
X81765277Y-109615121D01*
X81760212Y-109579756D01*
X81760212Y-101828672D01*
X81780214Y-101760551D01*
X81797117Y-101739577D01*
X82757864Y-100778830D01*
X82820176Y-100744804D01*
X82863622Y-100743032D01*
X82896717Y-100747448D01*
X82977118Y-100758176D01*
X82977122Y-100758176D01*
X82984099Y-100759107D01*
X82991110Y-100758469D01*
X82991114Y-100758469D01*
X83145652Y-100744405D01*
X83152673Y-100743766D01*
X83313659Y-100691458D01*
X83459056Y-100604784D01*
X83581638Y-100488052D01*
X83586750Y-100480358D01*
X83671410Y-100352935D01*
X83671411Y-100352933D01*
X83675311Y-100347063D01*
X83735420Y-100188824D01*
X83758978Y-100021200D01*
X83759274Y-100000000D01*
X83758085Y-99989399D01*
X84240800Y-99989399D01*
X84257318Y-100157862D01*
X84310748Y-100318479D01*
X84398435Y-100463267D01*
X84403326Y-100468332D01*
X84403327Y-100468333D01*
X84427062Y-100492911D01*
X84516021Y-100585031D01*
X84657660Y-100677717D01*
X84799389Y-100730425D01*
X84815420Y-100736387D01*
X84872296Y-100778880D01*
X84897170Y-100845376D01*
X84897500Y-100854485D01*
X84897500Y-109469918D01*
X84885555Y-109523467D01*
X84856583Y-109585175D01*
X84855203Y-109594039D01*
X84855202Y-109594042D01*
X84838583Y-109700782D01*
X84834350Y-109727966D01*
X84835514Y-109736868D01*
X84835514Y-109736871D01*
X84847491Y-109828455D01*
X84853088Y-109871258D01*
X84911289Y-110003532D01*
X84917063Y-110010401D01*
X84993047Y-110100794D01*
X85004276Y-110114153D01*
X85011747Y-110119126D01*
X85011748Y-110119127D01*
X85117101Y-110189256D01*
X85117103Y-110189257D01*
X85124574Y-110194230D01*
X85133138Y-110196906D01*
X85133141Y-110196907D01*
X85191988Y-110215292D01*
X85262510Y-110237325D01*
X85406998Y-110239973D01*
X85426530Y-110234648D01*
X85537763Y-110204323D01*
X85537765Y-110204322D01*
X85546422Y-110201962D01*
X85669572Y-110126347D01*
X85766551Y-110019207D01*
X85780993Y-109989399D01*
X94240800Y-109989399D01*
X94257318Y-110157862D01*
X94310748Y-110318479D01*
X94398435Y-110463267D01*
X94403326Y-110468332D01*
X94403327Y-110468333D01*
X94427062Y-110492911D01*
X94516021Y-110585031D01*
X94657660Y-110677717D01*
X94816315Y-110736720D01*
X94823296Y-110737651D01*
X94823298Y-110737652D01*
X94977118Y-110758176D01*
X94977122Y-110758176D01*
X94984099Y-110759107D01*
X94991110Y-110758469D01*
X94991114Y-110758469D01*
X95145652Y-110744405D01*
X95152673Y-110743766D01*
X95313659Y-110691458D01*
X95459056Y-110604784D01*
X95581638Y-110488052D01*
X95585539Y-110482181D01*
X95671410Y-110352935D01*
X95671411Y-110352933D01*
X95675311Y-110347063D01*
X95735420Y-110188824D01*
X95750910Y-110078605D01*
X95758427Y-110025123D01*
X95758427Y-110025118D01*
X95758978Y-110021200D01*
X95759274Y-110000000D01*
X95756462Y-109974933D01*
X136545500Y-109974933D01*
X136545501Y-114025066D01*
X136560266Y-114099301D01*
X136616516Y-114183484D01*
X136700699Y-114239734D01*
X136774933Y-114254500D01*
X137799834Y-114254500D01*
X138825066Y-114254499D01*
X138860818Y-114247388D01*
X138887126Y-114242156D01*
X138887128Y-114242155D01*
X138899301Y-114239734D01*
X138909621Y-114232839D01*
X138909622Y-114232838D01*
X138973168Y-114190377D01*
X138983484Y-114183484D01*
X139039734Y-114099301D01*
X139054500Y-114025067D01*
X139054499Y-112703995D01*
X142546000Y-112703995D01*
X142546249Y-112709590D01*
X142560331Y-112867367D01*
X142562313Y-112878381D01*
X142618417Y-113083465D01*
X142622311Y-113093938D01*
X142713852Y-113285856D01*
X142719538Y-113295471D01*
X142843615Y-113468143D01*
X142850923Y-113476609D01*
X143003609Y-113624571D01*
X143012306Y-113631614D01*
X143188779Y-113750200D01*
X143198577Y-113755586D01*
X143393271Y-113841051D01*
X143403863Y-113844616D01*
X143528385Y-113874511D01*
X143542470Y-113873806D01*
X143546000Y-113864927D01*
X143546000Y-113864381D01*
X144054000Y-113864381D01*
X144058105Y-113878363D01*
X144067442Y-113879812D01*
X144270367Y-113817384D01*
X144280712Y-113813163D01*
X144469660Y-113715639D01*
X144479091Y-113709654D01*
X144647789Y-113580207D01*
X144656006Y-113572651D01*
X144799113Y-113415379D01*
X144805867Y-113406480D01*
X144918856Y-113226361D01*
X144923933Y-113216395D01*
X145003235Y-113019125D01*
X145006470Y-113008410D01*
X145049788Y-112799238D01*
X145050991Y-112790102D01*
X145053895Y-112739737D01*
X145054000Y-112736090D01*
X145054000Y-112272115D01*
X145049525Y-112256876D01*
X145048135Y-112255671D01*
X145040452Y-112254000D01*
X144072115Y-112254000D01*
X144056876Y-112258475D01*
X144055671Y-112259865D01*
X144054000Y-112267548D01*
X144054000Y-113864381D01*
X143546000Y-113864381D01*
X143546000Y-112272115D01*
X143541525Y-112256876D01*
X143540135Y-112255671D01*
X143532452Y-112254000D01*
X142564115Y-112254000D01*
X142548876Y-112258475D01*
X142547671Y-112259865D01*
X142546000Y-112267548D01*
X142546000Y-112703995D01*
X139054499Y-112703995D01*
X139054499Y-111992603D01*
X145740424Y-111992603D01*
X145759166Y-112198550D01*
X145817554Y-112396934D01*
X145820411Y-112402399D01*
X145910508Y-112574739D01*
X145910511Y-112574743D01*
X145913363Y-112580199D01*
X145917223Y-112584999D01*
X145917223Y-112585000D01*
X145920350Y-112588889D01*
X146042943Y-112741365D01*
X146201360Y-112874292D01*
X146382578Y-112973918D01*
X146579696Y-113036447D01*
X146585813Y-113037133D01*
X146585817Y-113037134D01*
X146661837Y-113045661D01*
X146740640Y-113054500D01*
X146852034Y-113054500D01*
X147005811Y-113039422D01*
X147203783Y-112979651D01*
X147314851Y-112920595D01*
X147380933Y-112885459D01*
X147380936Y-112885457D01*
X147386375Y-112882565D01*
X147391145Y-112878674D01*
X147391149Y-112878672D01*
X147541857Y-112755758D01*
X147541860Y-112755755D01*
X147546632Y-112751863D01*
X147552802Y-112744405D01*
X147674522Y-112597271D01*
X147674525Y-112597266D01*
X147678450Y-112592522D01*
X147681382Y-112587100D01*
X147773878Y-112416032D01*
X147773880Y-112416027D01*
X147776808Y-112410612D01*
X147837960Y-112213063D01*
X147839485Y-112198550D01*
X147858932Y-112013526D01*
X147858932Y-112013524D01*
X147859576Y-112007397D01*
X147840834Y-111801450D01*
X147782446Y-111603066D01*
X147746524Y-111534353D01*
X147689492Y-111425261D01*
X147689489Y-111425257D01*
X147686637Y-111419801D01*
X147681089Y-111412900D01*
X147587103Y-111296005D01*
X147557057Y-111258635D01*
X147398640Y-111125708D01*
X147217422Y-111026082D01*
X147020304Y-110963553D01*
X147014187Y-110962867D01*
X147014183Y-110962866D01*
X146938163Y-110954339D01*
X146859360Y-110945500D01*
X146747966Y-110945500D01*
X146594189Y-110960578D01*
X146396217Y-111020349D01*
X146346901Y-111046571D01*
X146219067Y-111114541D01*
X146219064Y-111114543D01*
X146213625Y-111117435D01*
X146208855Y-111121326D01*
X146208851Y-111121328D01*
X146058143Y-111244242D01*
X146058140Y-111244245D01*
X146053368Y-111248137D01*
X146049441Y-111252884D01*
X146049439Y-111252886D01*
X145925478Y-111402729D01*
X145925475Y-111402734D01*
X145921550Y-111407478D01*
X145918620Y-111412897D01*
X145918618Y-111412900D01*
X145826122Y-111583968D01*
X145826120Y-111583973D01*
X145823192Y-111589388D01*
X145762040Y-111786937D01*
X145761396Y-111793062D01*
X145761396Y-111793063D01*
X145757448Y-111830632D01*
X145740424Y-111992603D01*
X139054499Y-111992603D01*
X139054499Y-111727885D01*
X142546000Y-111727885D01*
X142550475Y-111743124D01*
X142551865Y-111744329D01*
X142559548Y-111746000D01*
X143527885Y-111746000D01*
X143543124Y-111741525D01*
X143544329Y-111740135D01*
X143546000Y-111732452D01*
X143546000Y-111727885D01*
X144054000Y-111727885D01*
X144058475Y-111743124D01*
X144059865Y-111744329D01*
X144067548Y-111746000D01*
X145035885Y-111746000D01*
X145051124Y-111741525D01*
X145052329Y-111740135D01*
X145054000Y-111732452D01*
X145054000Y-111296005D01*
X145053751Y-111290410D01*
X145039669Y-111132633D01*
X145037687Y-111121619D01*
X144981583Y-110916535D01*
X144977689Y-110906062D01*
X144886148Y-110714144D01*
X144880462Y-110704529D01*
X144756385Y-110531857D01*
X144749077Y-110523391D01*
X144596391Y-110375429D01*
X144587694Y-110368386D01*
X144411221Y-110249800D01*
X144401423Y-110244414D01*
X144206729Y-110158949D01*
X144196137Y-110155384D01*
X144071615Y-110125489D01*
X144057530Y-110126194D01*
X144054000Y-110135073D01*
X144054000Y-111727885D01*
X143546000Y-111727885D01*
X143546000Y-110135619D01*
X143541895Y-110121637D01*
X143532558Y-110120188D01*
X143329633Y-110182616D01*
X143319288Y-110186837D01*
X143130340Y-110284361D01*
X143120909Y-110290346D01*
X142952211Y-110419793D01*
X142943994Y-110427349D01*
X142800887Y-110584621D01*
X142794133Y-110593520D01*
X142681144Y-110773639D01*
X142676067Y-110783605D01*
X142596765Y-110980875D01*
X142593530Y-110991590D01*
X142550212Y-111200762D01*
X142549009Y-111209898D01*
X142546105Y-111260263D01*
X142546000Y-111263910D01*
X142546000Y-111727885D01*
X139054499Y-111727885D01*
X139054499Y-109974934D01*
X139045582Y-109930100D01*
X139042156Y-109912874D01*
X139042155Y-109912872D01*
X139039734Y-109900699D01*
X139032021Y-109889155D01*
X138990377Y-109826832D01*
X138983484Y-109816516D01*
X138899301Y-109760266D01*
X138825067Y-109745500D01*
X137800166Y-109745500D01*
X136774934Y-109745501D01*
X136742470Y-109751958D01*
X136712874Y-109757844D01*
X136712872Y-109757845D01*
X136700699Y-109760266D01*
X136690379Y-109767161D01*
X136690378Y-109767162D01*
X136664724Y-109784304D01*
X136616516Y-109816516D01*
X136560266Y-109900699D01*
X136545500Y-109974933D01*
X95756462Y-109974933D01*
X95749534Y-109913167D01*
X95741191Y-109838780D01*
X95741190Y-109838777D01*
X95740406Y-109831784D01*
X95684738Y-109671929D01*
X95595038Y-109528379D01*
X95560301Y-109493398D01*
X95480726Y-109413266D01*
X95475764Y-109408269D01*
X95454519Y-109394786D01*
X95411092Y-109367227D01*
X95332844Y-109317569D01*
X95282061Y-109299486D01*
X95180016Y-109263149D01*
X95180011Y-109263148D01*
X95173381Y-109260787D01*
X95166395Y-109259954D01*
X95166391Y-109259953D01*
X95047287Y-109245751D01*
X95005301Y-109240745D01*
X94998298Y-109241481D01*
X94998297Y-109241481D01*
X94843965Y-109257701D01*
X94843961Y-109257702D01*
X94836957Y-109258438D01*
X94830286Y-109260709D01*
X94683387Y-109310717D01*
X94683384Y-109310718D01*
X94676717Y-109312988D01*
X94670719Y-109316678D01*
X94670717Y-109316679D01*
X94538543Y-109397993D01*
X94538541Y-109397995D01*
X94532544Y-109401684D01*
X94411605Y-109520117D01*
X94407794Y-109526031D01*
X94407792Y-109526033D01*
X94365833Y-109591141D01*
X94319909Y-109662400D01*
X94317498Y-109669025D01*
X94264425Y-109814840D01*
X94264424Y-109814845D01*
X94262015Y-109821463D01*
X94240800Y-109989399D01*
X85780993Y-109989399D01*
X85813638Y-109922019D01*
X85825645Y-109897236D01*
X85825645Y-109897235D01*
X85829560Y-109889155D01*
X85853536Y-109746646D01*
X85853688Y-109734193D01*
X85846074Y-109681028D01*
X85856216Y-109610759D01*
X85902739Y-109557129D01*
X85937659Y-109541602D01*
X86045763Y-109512130D01*
X86045765Y-109512129D01*
X86054422Y-109509769D01*
X86177572Y-109434154D01*
X86274551Y-109327014D01*
X86308133Y-109257701D01*
X86333645Y-109205043D01*
X86333645Y-109205042D01*
X86337560Y-109196962D01*
X86361027Y-109057478D01*
X86392054Y-108993620D01*
X86452680Y-108956674D01*
X86514930Y-108957952D01*
X86515081Y-108957020D01*
X86521695Y-108958091D01*
X86522853Y-108958115D01*
X86523334Y-108958265D01*
X86523944Y-108958456D01*
X86523946Y-108958456D01*
X86532510Y-108961132D01*
X86676998Y-108963780D01*
X86686711Y-108961132D01*
X86807763Y-108928130D01*
X86807765Y-108928129D01*
X86816422Y-108925769D01*
X86939572Y-108850154D01*
X87036551Y-108743014D01*
X87099560Y-108612962D01*
X87109800Y-108552099D01*
X87140827Y-108488241D01*
X87200913Y-108451441D01*
X87209585Y-108449077D01*
X87324422Y-108417769D01*
X87447572Y-108342154D01*
X87544551Y-108235014D01*
X87607560Y-108104962D01*
X87627003Y-107989399D01*
X94240800Y-107989399D01*
X94257318Y-108157862D01*
X94310748Y-108318479D01*
X94324068Y-108340473D01*
X94393901Y-108455780D01*
X94398435Y-108463267D01*
X94403326Y-108468332D01*
X94403327Y-108468333D01*
X94422552Y-108488241D01*
X94516021Y-108585031D01*
X94657660Y-108677717D01*
X94816315Y-108736720D01*
X94823296Y-108737651D01*
X94823298Y-108737652D01*
X94977118Y-108758176D01*
X94977122Y-108758176D01*
X94984099Y-108759107D01*
X94991110Y-108758469D01*
X94991114Y-108758469D01*
X95145652Y-108744405D01*
X95152673Y-108743766D01*
X95313659Y-108691458D01*
X95426933Y-108623933D01*
X95453004Y-108608392D01*
X95453006Y-108608391D01*
X95459056Y-108604784D01*
X95581638Y-108488052D01*
X95593331Y-108470453D01*
X95671410Y-108352935D01*
X95671411Y-108352933D01*
X95675311Y-108347063D01*
X95735420Y-108188824D01*
X95748450Y-108096110D01*
X95758427Y-108025123D01*
X95758427Y-108025118D01*
X95758978Y-108021200D01*
X95759274Y-108000000D01*
X95740406Y-107831784D01*
X95718000Y-107767442D01*
X142820188Y-107767442D01*
X142882616Y-107970367D01*
X142886837Y-107980712D01*
X142984361Y-108169660D01*
X142990346Y-108179091D01*
X143119793Y-108347789D01*
X143127349Y-108356006D01*
X143284621Y-108499113D01*
X143293520Y-108505867D01*
X143473639Y-108618856D01*
X143483605Y-108623933D01*
X143680875Y-108703235D01*
X143691590Y-108706470D01*
X143900762Y-108749788D01*
X143909898Y-108750991D01*
X143960263Y-108753895D01*
X143963910Y-108754000D01*
X144527885Y-108754000D01*
X144543124Y-108749525D01*
X144544329Y-108748135D01*
X144546000Y-108740452D01*
X144546000Y-108735885D01*
X145054000Y-108735885D01*
X145058475Y-108751124D01*
X145059865Y-108752329D01*
X145067548Y-108754000D01*
X145603995Y-108754000D01*
X145609590Y-108753751D01*
X145767367Y-108739669D01*
X145778381Y-108737687D01*
X145983465Y-108681583D01*
X145993938Y-108677689D01*
X146185856Y-108586148D01*
X146195471Y-108580462D01*
X146368143Y-108456385D01*
X146376609Y-108449077D01*
X146524571Y-108296391D01*
X146531614Y-108287694D01*
X146650200Y-108111221D01*
X146655586Y-108101423D01*
X146741051Y-107906729D01*
X146744616Y-107896137D01*
X146774511Y-107771615D01*
X146773806Y-107757530D01*
X146764927Y-107754000D01*
X145072115Y-107754000D01*
X145056876Y-107758475D01*
X145055671Y-107759865D01*
X145054000Y-107767548D01*
X145054000Y-108735885D01*
X144546000Y-108735885D01*
X144546000Y-107772115D01*
X144541525Y-107756876D01*
X144540135Y-107755671D01*
X144532452Y-107754000D01*
X142835619Y-107754000D01*
X142821637Y-107758105D01*
X142820188Y-107767442D01*
X95718000Y-107767442D01*
X95684738Y-107671929D01*
X95595038Y-107528379D01*
X95475764Y-107408269D01*
X95332844Y-107317569D01*
X95305442Y-107307812D01*
X95180016Y-107263149D01*
X95180011Y-107263148D01*
X95173381Y-107260787D01*
X95166395Y-107259954D01*
X95166391Y-107259953D01*
X95047287Y-107245751D01*
X95005301Y-107240745D01*
X94998298Y-107241481D01*
X94998297Y-107241481D01*
X94843965Y-107257701D01*
X94843961Y-107257702D01*
X94836957Y-107258438D01*
X94830286Y-107260709D01*
X94683387Y-107310717D01*
X94683384Y-107310718D01*
X94676717Y-107312988D01*
X94670719Y-107316678D01*
X94670717Y-107316679D01*
X94538543Y-107397993D01*
X94538541Y-107397995D01*
X94532544Y-107401684D01*
X94411605Y-107520117D01*
X94407794Y-107526031D01*
X94407792Y-107526033D01*
X94367672Y-107588287D01*
X94319909Y-107662400D01*
X94317498Y-107669025D01*
X94264425Y-107814840D01*
X94264424Y-107814845D01*
X94262015Y-107821463D01*
X94240800Y-107989399D01*
X87627003Y-107989399D01*
X87631536Y-107962453D01*
X87631688Y-107950000D01*
X87614281Y-107828455D01*
X87612474Y-107815835D01*
X87612473Y-107815833D01*
X87611201Y-107806948D01*
X87551388Y-107675395D01*
X87532047Y-107652948D01*
X87502733Y-107588287D01*
X87501500Y-107570701D01*
X87501500Y-107228385D01*
X142825489Y-107228385D01*
X142826194Y-107242470D01*
X142835073Y-107246000D01*
X144527885Y-107246000D01*
X144543124Y-107241525D01*
X144544329Y-107240135D01*
X144546000Y-107232452D01*
X144546000Y-107227885D01*
X145054000Y-107227885D01*
X145058475Y-107243124D01*
X145059865Y-107244329D01*
X145067548Y-107246000D01*
X146764381Y-107246000D01*
X146778363Y-107241895D01*
X146779812Y-107232558D01*
X146717384Y-107029633D01*
X146713163Y-107019288D01*
X146615639Y-106830340D01*
X146609654Y-106820909D01*
X146480207Y-106652211D01*
X146472651Y-106643994D01*
X146315379Y-106500887D01*
X146306480Y-106494133D01*
X146126361Y-106381144D01*
X146116395Y-106376067D01*
X145919125Y-106296765D01*
X145908410Y-106293530D01*
X145699238Y-106250212D01*
X145690102Y-106249009D01*
X145639737Y-106246105D01*
X145636090Y-106246000D01*
X145072115Y-106246000D01*
X145056876Y-106250475D01*
X145055671Y-106251865D01*
X145054000Y-106259548D01*
X145054000Y-107227885D01*
X144546000Y-107227885D01*
X144546000Y-106264115D01*
X144541525Y-106248876D01*
X144540135Y-106247671D01*
X144532452Y-106246000D01*
X143996005Y-106246000D01*
X143990410Y-106246249D01*
X143832633Y-106260331D01*
X143821619Y-106262313D01*
X143616535Y-106318417D01*
X143606062Y-106322311D01*
X143414144Y-106413852D01*
X143404529Y-106419538D01*
X143231857Y-106543615D01*
X143223391Y-106550923D01*
X143075429Y-106703609D01*
X143068386Y-106712306D01*
X142949800Y-106888779D01*
X142944414Y-106898577D01*
X142858949Y-107093271D01*
X142855384Y-107103863D01*
X142825489Y-107228385D01*
X87501500Y-107228385D01*
X87501500Y-105989399D01*
X94240800Y-105989399D01*
X94257318Y-106157862D01*
X94310748Y-106318479D01*
X94314397Y-106324504D01*
X94391894Y-106452466D01*
X94398435Y-106463267D01*
X94403326Y-106468332D01*
X94403327Y-106468333D01*
X94427062Y-106492911D01*
X94516021Y-106585031D01*
X94657660Y-106677717D01*
X94816315Y-106736720D01*
X94823296Y-106737651D01*
X94823298Y-106737652D01*
X94977118Y-106758176D01*
X94977122Y-106758176D01*
X94984099Y-106759107D01*
X94991110Y-106758469D01*
X94991114Y-106758469D01*
X95145652Y-106744405D01*
X95152673Y-106743766D01*
X95313659Y-106691458D01*
X95459056Y-106604784D01*
X95581638Y-106488052D01*
X95585539Y-106482181D01*
X95671410Y-106352935D01*
X95671411Y-106352933D01*
X95675311Y-106347063D01*
X95735420Y-106188824D01*
X95758978Y-106021200D01*
X95759274Y-106000000D01*
X95742543Y-105850837D01*
X95741191Y-105838780D01*
X95741190Y-105838777D01*
X95740406Y-105831784D01*
X95684738Y-105671929D01*
X95595038Y-105528379D01*
X95475764Y-105408269D01*
X95332844Y-105317569D01*
X95305442Y-105307812D01*
X95180016Y-105263149D01*
X95180011Y-105263148D01*
X95173381Y-105260787D01*
X95166395Y-105259954D01*
X95166391Y-105259953D01*
X95047287Y-105245751D01*
X95005301Y-105240745D01*
X94998298Y-105241481D01*
X94998297Y-105241481D01*
X94843965Y-105257701D01*
X94843961Y-105257702D01*
X94836957Y-105258438D01*
X94830286Y-105260709D01*
X94683387Y-105310717D01*
X94683384Y-105310718D01*
X94676717Y-105312988D01*
X94670719Y-105316678D01*
X94670717Y-105316679D01*
X94538543Y-105397993D01*
X94538541Y-105397995D01*
X94532544Y-105401684D01*
X94411605Y-105520117D01*
X94407794Y-105526031D01*
X94407792Y-105526033D01*
X94357869Y-105603498D01*
X94319909Y-105662400D01*
X94309425Y-105691206D01*
X94264425Y-105814840D01*
X94264424Y-105814845D01*
X94262015Y-105821463D01*
X94240800Y-105989399D01*
X87501500Y-105989399D01*
X87501500Y-104087384D01*
X87521502Y-104019263D01*
X87538405Y-103998289D01*
X87547295Y-103989399D01*
X94240800Y-103989399D01*
X94257318Y-104157862D01*
X94310748Y-104318479D01*
X94314397Y-104324504D01*
X94390097Y-104449499D01*
X94398435Y-104463267D01*
X94403326Y-104468332D01*
X94403327Y-104468333D01*
X94427062Y-104492911D01*
X94516021Y-104585031D01*
X94657660Y-104677717D01*
X94816315Y-104736720D01*
X94823296Y-104737651D01*
X94823298Y-104737652D01*
X94977118Y-104758176D01*
X94977122Y-104758176D01*
X94984099Y-104759107D01*
X94991110Y-104758469D01*
X94991114Y-104758469D01*
X95145652Y-104744405D01*
X95152673Y-104743766D01*
X95313659Y-104691458D01*
X95459056Y-104604784D01*
X95581638Y-104488052D01*
X95592789Y-104471269D01*
X95671410Y-104352935D01*
X95671411Y-104352933D01*
X95675311Y-104347063D01*
X95735420Y-104188824D01*
X95746161Y-104112395D01*
X95758427Y-104025123D01*
X95758427Y-104025118D01*
X95758978Y-104021200D01*
X95759274Y-104000000D01*
X95740406Y-103831784D01*
X95684738Y-103671929D01*
X95595038Y-103528379D01*
X95475764Y-103408269D01*
X95332844Y-103317569D01*
X95305442Y-103307812D01*
X95180016Y-103263149D01*
X95180011Y-103263148D01*
X95173381Y-103260787D01*
X95166395Y-103259954D01*
X95166391Y-103259953D01*
X95047287Y-103245751D01*
X95005301Y-103240745D01*
X94998298Y-103241481D01*
X94998297Y-103241481D01*
X94843965Y-103257701D01*
X94843961Y-103257702D01*
X94836957Y-103258438D01*
X94830286Y-103260709D01*
X94683387Y-103310717D01*
X94683384Y-103310718D01*
X94676717Y-103312988D01*
X94670719Y-103316678D01*
X94670717Y-103316679D01*
X94538543Y-103397993D01*
X94538541Y-103397995D01*
X94532544Y-103401684D01*
X94527511Y-103406613D01*
X94443724Y-103488664D01*
X94411605Y-103520117D01*
X94407794Y-103526031D01*
X94407792Y-103526033D01*
X94385083Y-103561271D01*
X94319909Y-103662400D01*
X94317498Y-103669025D01*
X94264425Y-103814840D01*
X94264424Y-103814845D01*
X94262015Y-103821463D01*
X94240800Y-103989399D01*
X87547295Y-103989399D01*
X89547295Y-101989399D01*
X94240800Y-101989399D01*
X94257318Y-102157862D01*
X94310748Y-102318479D01*
X94314397Y-102324504D01*
X94354125Y-102390102D01*
X94398435Y-102463267D01*
X94403326Y-102468332D01*
X94403327Y-102468333D01*
X94427062Y-102492911D01*
X94516021Y-102585031D01*
X94657660Y-102677717D01*
X94816315Y-102736720D01*
X94823296Y-102737651D01*
X94823298Y-102737652D01*
X94977118Y-102758176D01*
X94977122Y-102758176D01*
X94984099Y-102759107D01*
X94991110Y-102758469D01*
X94991114Y-102758469D01*
X95145652Y-102744405D01*
X95152673Y-102743766D01*
X95313659Y-102691458D01*
X95459056Y-102604784D01*
X95581638Y-102488052D01*
X95585539Y-102482181D01*
X95671410Y-102352935D01*
X95671411Y-102352933D01*
X95675311Y-102347063D01*
X95735420Y-102188824D01*
X95758978Y-102021200D01*
X95759274Y-102000000D01*
X95740406Y-101831784D01*
X95684738Y-101671929D01*
X95595038Y-101528379D01*
X95475764Y-101408269D01*
X95332844Y-101317569D01*
X95298091Y-101305194D01*
X95180016Y-101263149D01*
X95180011Y-101263148D01*
X95173381Y-101260787D01*
X95166395Y-101259954D01*
X95166391Y-101259953D01*
X95047287Y-101245751D01*
X95005301Y-101240745D01*
X94998298Y-101241481D01*
X94998297Y-101241481D01*
X94843965Y-101257701D01*
X94843961Y-101257702D01*
X94836957Y-101258438D01*
X94830286Y-101260709D01*
X94683387Y-101310717D01*
X94683384Y-101310718D01*
X94676717Y-101312988D01*
X94670719Y-101316678D01*
X94670717Y-101316679D01*
X94538543Y-101397993D01*
X94538541Y-101397995D01*
X94532544Y-101401684D01*
X94411605Y-101520117D01*
X94407794Y-101526031D01*
X94407792Y-101526033D01*
X94385083Y-101561271D01*
X94319909Y-101662400D01*
X94317498Y-101669025D01*
X94264425Y-101814840D01*
X94264424Y-101814845D01*
X94262015Y-101821463D01*
X94240800Y-101989399D01*
X89547295Y-101989399D01*
X90757864Y-100778830D01*
X90820176Y-100744804D01*
X90863622Y-100743032D01*
X90896717Y-100747448D01*
X90977118Y-100758176D01*
X90977122Y-100758176D01*
X90984099Y-100759107D01*
X90991110Y-100758469D01*
X90991114Y-100758469D01*
X91145652Y-100744405D01*
X91152673Y-100743766D01*
X91313659Y-100691458D01*
X91459056Y-100604784D01*
X91581638Y-100488052D01*
X91586750Y-100480358D01*
X91671410Y-100352935D01*
X91671411Y-100352933D01*
X91675311Y-100347063D01*
X91735420Y-100188824D01*
X91758978Y-100021200D01*
X91759274Y-100000000D01*
X91758085Y-99989399D01*
X94240800Y-99989399D01*
X94257318Y-100157862D01*
X94310748Y-100318479D01*
X94398435Y-100463267D01*
X94403326Y-100468332D01*
X94403327Y-100468333D01*
X94427062Y-100492911D01*
X94516021Y-100585031D01*
X94657660Y-100677717D01*
X94816315Y-100736720D01*
X94823296Y-100737651D01*
X94823298Y-100737652D01*
X94977118Y-100758176D01*
X94977122Y-100758176D01*
X94984099Y-100759107D01*
X94991110Y-100758469D01*
X94991114Y-100758469D01*
X95145652Y-100744405D01*
X95152673Y-100743766D01*
X95313659Y-100691458D01*
X95459056Y-100604784D01*
X95581638Y-100488052D01*
X95586750Y-100480358D01*
X95671410Y-100352935D01*
X95671411Y-100352933D01*
X95675311Y-100347063D01*
X95735420Y-100188824D01*
X95758978Y-100021200D01*
X95759274Y-100000000D01*
X95740406Y-99831784D01*
X95684738Y-99671929D01*
X95595038Y-99528379D01*
X95475764Y-99408269D01*
X95459574Y-99397994D01*
X95421245Y-99373670D01*
X95332844Y-99317569D01*
X95305442Y-99307812D01*
X95180016Y-99263149D01*
X95180011Y-99263148D01*
X95173381Y-99260787D01*
X95166395Y-99259954D01*
X95166391Y-99259953D01*
X95047287Y-99245751D01*
X95005301Y-99240745D01*
X94998298Y-99241481D01*
X94998297Y-99241481D01*
X94843965Y-99257701D01*
X94843961Y-99257702D01*
X94836957Y-99258438D01*
X94830286Y-99260709D01*
X94683387Y-99310717D01*
X94683384Y-99310718D01*
X94676717Y-99312988D01*
X94670719Y-99316678D01*
X94670717Y-99316679D01*
X94538543Y-99397993D01*
X94538542Y-99397994D01*
X94532544Y-99401684D01*
X94411605Y-99520117D01*
X94319909Y-99662400D01*
X94317498Y-99669025D01*
X94264425Y-99814840D01*
X94264424Y-99814845D01*
X94262015Y-99821463D01*
X94240800Y-99989399D01*
X91758085Y-99989399D01*
X91740406Y-99831784D01*
X91684738Y-99671929D01*
X91595038Y-99528379D01*
X91475764Y-99408269D01*
X91459574Y-99397994D01*
X91421245Y-99373670D01*
X91332844Y-99317569D01*
X91305442Y-99307812D01*
X91180016Y-99263149D01*
X91180011Y-99263148D01*
X91173381Y-99260787D01*
X91166395Y-99259954D01*
X91166391Y-99259953D01*
X91047287Y-99245751D01*
X91005301Y-99240745D01*
X90998298Y-99241481D01*
X90998297Y-99241481D01*
X90843965Y-99257701D01*
X90843961Y-99257702D01*
X90836957Y-99258438D01*
X90830286Y-99260709D01*
X90683387Y-99310717D01*
X90683384Y-99310718D01*
X90676717Y-99312988D01*
X90670719Y-99316678D01*
X90670717Y-99316679D01*
X90538543Y-99397993D01*
X90538542Y-99397994D01*
X90532544Y-99401684D01*
X90411605Y-99520117D01*
X90319909Y-99662400D01*
X90317498Y-99669025D01*
X90264425Y-99814840D01*
X90264424Y-99814845D01*
X90262015Y-99821463D01*
X90240800Y-99989399D01*
X90255804Y-100142417D01*
X90242545Y-100212163D01*
X90219500Y-100243806D01*
X87141595Y-103321711D01*
X87079283Y-103355737D01*
X87008468Y-103350672D01*
X86951632Y-103308125D01*
X86926821Y-103241605D01*
X86926500Y-103232616D01*
X86926500Y-102662384D01*
X86946502Y-102594263D01*
X86963405Y-102573289D01*
X88757864Y-100778830D01*
X88820176Y-100744804D01*
X88863622Y-100743032D01*
X88896717Y-100747448D01*
X88977118Y-100758176D01*
X88977122Y-100758176D01*
X88984099Y-100759107D01*
X88991110Y-100758469D01*
X88991114Y-100758469D01*
X89145652Y-100744405D01*
X89152673Y-100743766D01*
X89313659Y-100691458D01*
X89459056Y-100604784D01*
X89581638Y-100488052D01*
X89586750Y-100480358D01*
X89671410Y-100352935D01*
X89671411Y-100352933D01*
X89675311Y-100347063D01*
X89735420Y-100188824D01*
X89758978Y-100021200D01*
X89759274Y-100000000D01*
X89740406Y-99831784D01*
X89684738Y-99671929D01*
X89595038Y-99528379D01*
X89475764Y-99408269D01*
X89459574Y-99397994D01*
X89421245Y-99373670D01*
X89332844Y-99317569D01*
X89305442Y-99307812D01*
X89180016Y-99263149D01*
X89180011Y-99263148D01*
X89173381Y-99260787D01*
X89166395Y-99259954D01*
X89166391Y-99259953D01*
X89047287Y-99245751D01*
X89005301Y-99240745D01*
X88998298Y-99241481D01*
X88998297Y-99241481D01*
X88843965Y-99257701D01*
X88843961Y-99257702D01*
X88836957Y-99258438D01*
X88830286Y-99260709D01*
X88683387Y-99310717D01*
X88683384Y-99310718D01*
X88676717Y-99312988D01*
X88670719Y-99316678D01*
X88670717Y-99316679D01*
X88538543Y-99397993D01*
X88538542Y-99397994D01*
X88532544Y-99401684D01*
X88411605Y-99520117D01*
X88319909Y-99662400D01*
X88317498Y-99669025D01*
X88264425Y-99814840D01*
X88264424Y-99814845D01*
X88262015Y-99821463D01*
X88240800Y-99989399D01*
X88255804Y-100142417D01*
X88242545Y-100212163D01*
X88219500Y-100243806D01*
X86446595Y-102016711D01*
X86384283Y-102050737D01*
X86313468Y-102045672D01*
X86256632Y-102003125D01*
X86231821Y-101936605D01*
X86231500Y-101927616D01*
X86231500Y-101357384D01*
X86251502Y-101289263D01*
X86268405Y-101268289D01*
X86757864Y-100778830D01*
X86820176Y-100744804D01*
X86863622Y-100743032D01*
X86896717Y-100747448D01*
X86977118Y-100758176D01*
X86977122Y-100758176D01*
X86984099Y-100759107D01*
X86991110Y-100758469D01*
X86991114Y-100758469D01*
X87145652Y-100744405D01*
X87152673Y-100743766D01*
X87313659Y-100691458D01*
X87459056Y-100604784D01*
X87581638Y-100488052D01*
X87586750Y-100480358D01*
X87671410Y-100352935D01*
X87671411Y-100352933D01*
X87675311Y-100347063D01*
X87735420Y-100188824D01*
X87758978Y-100021200D01*
X87759274Y-100000000D01*
X87740406Y-99831784D01*
X87684738Y-99671929D01*
X87595038Y-99528379D01*
X87475764Y-99408269D01*
X87459574Y-99397994D01*
X87421245Y-99373670D01*
X87332844Y-99317569D01*
X87305442Y-99307812D01*
X87180016Y-99263149D01*
X87180011Y-99263148D01*
X87173381Y-99260787D01*
X87166395Y-99259954D01*
X87166391Y-99259953D01*
X87047287Y-99245751D01*
X87005301Y-99240745D01*
X86998298Y-99241481D01*
X86998297Y-99241481D01*
X86843965Y-99257701D01*
X86843961Y-99257702D01*
X86836957Y-99258438D01*
X86830286Y-99260709D01*
X86683387Y-99310717D01*
X86683384Y-99310718D01*
X86676717Y-99312988D01*
X86670719Y-99316678D01*
X86670717Y-99316679D01*
X86538543Y-99397993D01*
X86538542Y-99397994D01*
X86532544Y-99401684D01*
X86411605Y-99520117D01*
X86319909Y-99662400D01*
X86317498Y-99669025D01*
X86264425Y-99814840D01*
X86264424Y-99814845D01*
X86262015Y-99821463D01*
X86240800Y-99989399D01*
X86255804Y-100142417D01*
X86242545Y-100212163D01*
X86219500Y-100243806D01*
X85871595Y-100591711D01*
X85809283Y-100625737D01*
X85738468Y-100620672D01*
X85681632Y-100578125D01*
X85656821Y-100511605D01*
X85656500Y-100502616D01*
X85656500Y-100412429D01*
X85670434Y-100354834D01*
X85671411Y-100352933D01*
X85675311Y-100347063D01*
X85735420Y-100188824D01*
X85758978Y-100021200D01*
X85759274Y-100000000D01*
X85740406Y-99831784D01*
X85684738Y-99671929D01*
X85595038Y-99528379D01*
X85475764Y-99408269D01*
X85459574Y-99397994D01*
X85421245Y-99373670D01*
X85332844Y-99317569D01*
X85305442Y-99307812D01*
X85180016Y-99263149D01*
X85180011Y-99263148D01*
X85173381Y-99260787D01*
X85166395Y-99259954D01*
X85166391Y-99259953D01*
X85047287Y-99245751D01*
X85005301Y-99240745D01*
X84998298Y-99241481D01*
X84998297Y-99241481D01*
X84843965Y-99257701D01*
X84843961Y-99257702D01*
X84836957Y-99258438D01*
X84830286Y-99260709D01*
X84683387Y-99310717D01*
X84683384Y-99310718D01*
X84676717Y-99312988D01*
X84670719Y-99316678D01*
X84670717Y-99316679D01*
X84538543Y-99397993D01*
X84538542Y-99397994D01*
X84532544Y-99401684D01*
X84411605Y-99520117D01*
X84319909Y-99662400D01*
X84317498Y-99669025D01*
X84264425Y-99814840D01*
X84264424Y-99814845D01*
X84262015Y-99821463D01*
X84240800Y-99989399D01*
X83758085Y-99989399D01*
X83740406Y-99831784D01*
X83684738Y-99671929D01*
X83595038Y-99528379D01*
X83475764Y-99408269D01*
X83459574Y-99397994D01*
X83421245Y-99373670D01*
X83332844Y-99317569D01*
X83305442Y-99307812D01*
X83180016Y-99263149D01*
X83180011Y-99263148D01*
X83173381Y-99260787D01*
X83166395Y-99259954D01*
X83166391Y-99259953D01*
X83047287Y-99245751D01*
X83005301Y-99240745D01*
X82998298Y-99241481D01*
X82998297Y-99241481D01*
X82843965Y-99257701D01*
X82843961Y-99257702D01*
X82836957Y-99258438D01*
X82830286Y-99260709D01*
X82683387Y-99310717D01*
X82683384Y-99310718D01*
X82676717Y-99312988D01*
X82670719Y-99316678D01*
X82670717Y-99316679D01*
X82538543Y-99397993D01*
X82538542Y-99397994D01*
X82532544Y-99401684D01*
X82411605Y-99520117D01*
X82319909Y-99662400D01*
X82317498Y-99669025D01*
X82264425Y-99814840D01*
X82264424Y-99814845D01*
X82262015Y-99821463D01*
X82240800Y-99989399D01*
X82255804Y-100142417D01*
X82242545Y-100212163D01*
X82219500Y-100243806D01*
X81525307Y-100937999D01*
X81462995Y-100972025D01*
X81392180Y-100966960D01*
X81335344Y-100924413D01*
X81310533Y-100857893D01*
X81310212Y-100848904D01*
X81310212Y-100765091D01*
X81330214Y-100696970D01*
X81371694Y-100656862D01*
X81459056Y-100604784D01*
X81581638Y-100488052D01*
X81586750Y-100480358D01*
X81671410Y-100352935D01*
X81671411Y-100352933D01*
X81675311Y-100347063D01*
X81735420Y-100188824D01*
X81758978Y-100021200D01*
X81759274Y-100000000D01*
X81740406Y-99831784D01*
X81684738Y-99671929D01*
X81595038Y-99528379D01*
X81475764Y-99408269D01*
X81459574Y-99397994D01*
X81421245Y-99373670D01*
X81332844Y-99317569D01*
X81305442Y-99307812D01*
X81180016Y-99263149D01*
X81180011Y-99263148D01*
X81173381Y-99260787D01*
X81166395Y-99259954D01*
X81166391Y-99259953D01*
X81047287Y-99245751D01*
X81005301Y-99240745D01*
X80998298Y-99241481D01*
X80998297Y-99241481D01*
X80843965Y-99257701D01*
X80843961Y-99257702D01*
X80836957Y-99258438D01*
X80830286Y-99260709D01*
X80683387Y-99310717D01*
X80683384Y-99310718D01*
X80676717Y-99312988D01*
X80670719Y-99316678D01*
X80670717Y-99316679D01*
X80538543Y-99397993D01*
X80538542Y-99397994D01*
X80532544Y-99401684D01*
X80411605Y-99520117D01*
X80319909Y-99662400D01*
X80317498Y-99669025D01*
X80264425Y-99814840D01*
X80264424Y-99814845D01*
X80262015Y-99821463D01*
X80240800Y-99989399D01*
X80257318Y-100157862D01*
X80310748Y-100318479D01*
X80398435Y-100463267D01*
X80403326Y-100468332D01*
X80403327Y-100468333D01*
X80515849Y-100584853D01*
X80548781Y-100647750D01*
X80551212Y-100672380D01*
X80551212Y-100710328D01*
X80531210Y-100778449D01*
X80477554Y-100824942D01*
X80407280Y-100835046D01*
X80342700Y-100805552D01*
X80336117Y-100799423D01*
X79778622Y-100241928D01*
X79744596Y-100179616D01*
X79742943Y-100135297D01*
X79758427Y-100025124D01*
X79758428Y-100025116D01*
X79758978Y-100021200D01*
X79759274Y-100000000D01*
X79740406Y-99831784D01*
X79684738Y-99671929D01*
X79595038Y-99528379D01*
X79475764Y-99408269D01*
X79437984Y-99384293D01*
X79391187Y-99330904D01*
X79379500Y-99277909D01*
X79379500Y-98501384D01*
X79399502Y-98433263D01*
X79416405Y-98412289D01*
X84194289Y-93634405D01*
X84256601Y-93600379D01*
X84283384Y-93597500D01*
X86398707Y-93597500D01*
X86466828Y-93617502D01*
X86506482Y-93658228D01*
X86520435Y-93681267D01*
X86638021Y-93803031D01*
X86779660Y-93895717D01*
X86938315Y-93954720D01*
X86945296Y-93955651D01*
X86945298Y-93955652D01*
X87099118Y-93976176D01*
X87099122Y-93976176D01*
X87106099Y-93977107D01*
X87113110Y-93976469D01*
X87113114Y-93976469D01*
X87267652Y-93962405D01*
X87274673Y-93961766D01*
X87435659Y-93909458D01*
X87525199Y-93856082D01*
X87575004Y-93826392D01*
X87575006Y-93826391D01*
X87581056Y-93822784D01*
X87703638Y-93706052D01*
X87724105Y-93675247D01*
X87793410Y-93570935D01*
X87793411Y-93570933D01*
X87797311Y-93565063D01*
X87857420Y-93406824D01*
X87877944Y-93260787D01*
X87880427Y-93243123D01*
X87880427Y-93243118D01*
X87880978Y-93239200D01*
X87881274Y-93218000D01*
X87862406Y-93049784D01*
X87806738Y-92889929D01*
X87717038Y-92746379D01*
X87597764Y-92626269D01*
X87454844Y-92535569D01*
X87427442Y-92525812D01*
X87302016Y-92481149D01*
X87302011Y-92481148D01*
X87295381Y-92478787D01*
X87288395Y-92477954D01*
X87288391Y-92477953D01*
X87169287Y-92463751D01*
X87127301Y-92458745D01*
X87120298Y-92459481D01*
X87120297Y-92459481D01*
X86965965Y-92475701D01*
X86965961Y-92475702D01*
X86958957Y-92476438D01*
X86952286Y-92478709D01*
X86805387Y-92528717D01*
X86805384Y-92528718D01*
X86798717Y-92530988D01*
X86792719Y-92534678D01*
X86792717Y-92534679D01*
X86660543Y-92615993D01*
X86660541Y-92615995D01*
X86654544Y-92619684D01*
X86533605Y-92738117D01*
X86529793Y-92744032D01*
X86529789Y-92744037D01*
X86506126Y-92780755D01*
X86452412Y-92827180D01*
X86400215Y-92838500D01*
X84127925Y-92838500D01*
X84103967Y-92835950D01*
X84102308Y-92835872D01*
X84092124Y-92833679D01*
X84081782Y-92834903D01*
X84081779Y-92834903D01*
X84058779Y-92837626D01*
X84052848Y-92837976D01*
X84052856Y-92838072D01*
X84047680Y-92838500D01*
X84042476Y-92838500D01*
X84023412Y-92841673D01*
X84017566Y-92842504D01*
X84006117Y-92843859D01*
X83966659Y-92848530D01*
X83958407Y-92852493D01*
X83949374Y-92853996D01*
X83940205Y-92858943D01*
X83940203Y-92858944D01*
X83904268Y-92878334D01*
X83898975Y-92881031D01*
X83866586Y-92896584D01*
X83852768Y-92903219D01*
X83848493Y-92906813D01*
X83846568Y-92908738D01*
X83844638Y-92910509D01*
X83844553Y-92910555D01*
X83844441Y-92910432D01*
X83843906Y-92910904D01*
X83838186Y-92913990D01*
X83831119Y-92921635D01*
X83801584Y-92953586D01*
X83798154Y-92957152D01*
X78769784Y-97985522D01*
X78751036Y-98000664D01*
X78749811Y-98001779D01*
X78741060Y-98007429D01*
X78734613Y-98015607D01*
X78734611Y-98015609D01*
X78720271Y-98033800D01*
X78716325Y-98038241D01*
X78716398Y-98038303D01*
X78713039Y-98042267D01*
X78709362Y-98045944D01*
X78698108Y-98061692D01*
X78694602Y-98066362D01*
X78662844Y-98106647D01*
X78659812Y-98115281D01*
X78654486Y-98122734D01*
X78651501Y-98132715D01*
X78639799Y-98171844D01*
X78637964Y-98177492D01*
X78623610Y-98218367D01*
X78620982Y-98225851D01*
X78620500Y-98231416D01*
X78620500Y-98234124D01*
X78620386Y-98236758D01*
X78620357Y-98236856D01*
X78620193Y-98236849D01*
X78620149Y-98237553D01*
X78618287Y-98243778D01*
X78618696Y-98254183D01*
X78620403Y-98297635D01*
X78620500Y-98302582D01*
X78620500Y-99277154D01*
X78600498Y-99345275D01*
X78560523Y-99384471D01*
X78532544Y-99401684D01*
X78411605Y-99520117D01*
X78319909Y-99662400D01*
X78317498Y-99669025D01*
X78264425Y-99814840D01*
X78264424Y-99814845D01*
X78262015Y-99821463D01*
X78240800Y-99989399D01*
X78257318Y-100157862D01*
X78310748Y-100318479D01*
X78398435Y-100463267D01*
X78403326Y-100468332D01*
X78403327Y-100468333D01*
X78427062Y-100492911D01*
X78516021Y-100585031D01*
X78657660Y-100677717D01*
X78816315Y-100736720D01*
X78823296Y-100737651D01*
X78823298Y-100737652D01*
X78977118Y-100758176D01*
X78977122Y-100758176D01*
X78984099Y-100759107D01*
X78991111Y-100758469D01*
X78991115Y-100758469D01*
X79143756Y-100744578D01*
X79213409Y-100758324D01*
X79244270Y-100780964D01*
X79862595Y-101399289D01*
X79896621Y-101461601D01*
X79899500Y-101488384D01*
X79899500Y-106538161D01*
X79879498Y-106606282D01*
X79825842Y-106652775D01*
X79755568Y-106662879D01*
X79690988Y-106633385D01*
X79658799Y-106590312D01*
X79637567Y-106543615D01*
X79599218Y-106459269D01*
X79593360Y-106452470D01*
X79593357Y-106452466D01*
X79510746Y-106356592D01*
X79510743Y-106356590D01*
X79504886Y-106349792D01*
X79383620Y-106271191D01*
X79263196Y-106235176D01*
X79203663Y-106196494D01*
X79174572Y-106132323D01*
X79170051Y-106100753D01*
X79170050Y-106100750D01*
X79168778Y-106091867D01*
X79108965Y-105960314D01*
X79103107Y-105953515D01*
X79103104Y-105953511D01*
X79020493Y-105857637D01*
X79020490Y-105857635D01*
X79014633Y-105850837D01*
X78926161Y-105793492D01*
X78879878Y-105739657D01*
X78870440Y-105666857D01*
X78876981Y-105627978D01*
X78878194Y-105620767D01*
X78878346Y-105608314D01*
X78857859Y-105465262D01*
X78798046Y-105333709D01*
X78792188Y-105326910D01*
X78792185Y-105326906D01*
X78709574Y-105231032D01*
X78709571Y-105231030D01*
X78703714Y-105224232D01*
X78582448Y-105145631D01*
X78565579Y-105140586D01*
X78452596Y-105106796D01*
X78452594Y-105106796D01*
X78443995Y-105104224D01*
X78435021Y-105104169D01*
X78435019Y-105104169D01*
X78371740Y-105103783D01*
X78299485Y-105103342D01*
X78290854Y-105105809D01*
X78290852Y-105105809D01*
X78169167Y-105140586D01*
X78169163Y-105140588D01*
X78160537Y-105143053D01*
X78038319Y-105220167D01*
X78032376Y-105226896D01*
X78032375Y-105226897D01*
X78002445Y-105260787D01*
X77942657Y-105328484D01*
X77881241Y-105459296D01*
X77879861Y-105468160D01*
X77879860Y-105468163D01*
X77870152Y-105530516D01*
X77844603Y-105589136D01*
X77824842Y-105614203D01*
X77820902Y-105618636D01*
X77820975Y-105618698D01*
X77817616Y-105622662D01*
X77813939Y-105626339D01*
X77802685Y-105642087D01*
X77799179Y-105646757D01*
X77767421Y-105687042D01*
X77764389Y-105695676D01*
X77759063Y-105703129D01*
X77756078Y-105713110D01*
X77744376Y-105752239D01*
X77742541Y-105757887D01*
X77725559Y-105806246D01*
X77725077Y-105811811D01*
X77725077Y-105814519D01*
X77724963Y-105817153D01*
X77724934Y-105817251D01*
X77724770Y-105817244D01*
X77724726Y-105817948D01*
X77722864Y-105824173D01*
X77723273Y-105834578D01*
X77724980Y-105878030D01*
X77725077Y-105882977D01*
X77725077Y-110054657D01*
X77722528Y-110078605D01*
X77722449Y-110080270D01*
X77720257Y-110090453D01*
X60046371Y-110090453D01*
X59357851Y-109401933D01*
X59351235Y-109394786D01*
X59347187Y-109390058D01*
X59341110Y-109379238D01*
X59333353Y-109373138D01*
X59328049Y-109367707D01*
X59327838Y-109367460D01*
X59327594Y-109367240D01*
X59182604Y-109218765D01*
X59179367Y-109216220D01*
X59179362Y-109216215D01*
X59081824Y-109139515D01*
X59005371Y-109079394D01*
X58968431Y-109057478D01*
X58815007Y-108966453D01*
X58815005Y-108966452D01*
X58811462Y-108964350D01*
X58807673Y-108962728D01*
X58807670Y-108962726D01*
X58607983Y-108877221D01*
X58604195Y-108875599D01*
X58387118Y-108814662D01*
X58383032Y-108814075D01*
X58383029Y-108814074D01*
X58181750Y-108785140D01*
X58181369Y-108785060D01*
X58180986Y-108785030D01*
X58173582Y-108783966D01*
X58164044Y-108781289D01*
X58151719Y-108782763D01*
X58136291Y-108784608D01*
X58121329Y-108785500D01*
X51037476Y-108785500D01*
X51012897Y-108783079D01*
X51000000Y-108780514D01*
X50987830Y-108782935D01*
X50980144Y-108782935D01*
X50967793Y-108782328D01*
X50866908Y-108772391D01*
X50842691Y-108767575D01*
X50726574Y-108732351D01*
X50703774Y-108722907D01*
X50596761Y-108665708D01*
X50576230Y-108651989D01*
X50482444Y-108575019D01*
X50464981Y-108557556D01*
X50388011Y-108463770D01*
X50374292Y-108443239D01*
X50317093Y-108336226D01*
X50307649Y-108313426D01*
X50272425Y-108197309D01*
X50267609Y-108173092D01*
X50257672Y-108072207D01*
X50257065Y-108059856D01*
X50257065Y-108052170D01*
X50259486Y-108040000D01*
X50256921Y-108027103D01*
X50254500Y-108002524D01*
X50254500Y-106683357D01*
X60681473Y-106683357D01*
X60684256Y-106687075D01*
X60809835Y-106733777D01*
X60823421Y-106737164D01*
X60977128Y-106757674D01*
X60991124Y-106757967D01*
X61145550Y-106743912D01*
X61159276Y-106741095D01*
X61306752Y-106693177D01*
X61311688Y-106690938D01*
X61318969Y-106683086D01*
X61315464Y-106674674D01*
X61012812Y-106372022D01*
X60998868Y-106364408D01*
X60997035Y-106364539D01*
X60990420Y-106368790D01*
X60688233Y-106670977D01*
X60681473Y-106683357D01*
X50254500Y-106683357D01*
X50254500Y-105996418D01*
X60241991Y-105996418D01*
X60257123Y-106150748D01*
X60260034Y-106164442D01*
X60308980Y-106311581D01*
X60309687Y-106313110D01*
X60316497Y-106319336D01*
X60325117Y-106315673D01*
X60627978Y-106012812D01*
X60634356Y-106001132D01*
X61364408Y-106001132D01*
X61364539Y-106002965D01*
X61368790Y-106009580D01*
X61670635Y-106311425D01*
X61683015Y-106318185D01*
X61686831Y-106315328D01*
X61732431Y-106195285D01*
X61735913Y-106181724D01*
X61757924Y-106025109D01*
X61758530Y-106017225D01*
X61758716Y-106003962D01*
X61758329Y-105996062D01*
X61757582Y-105989399D01*
X68240800Y-105989399D01*
X68257318Y-106157862D01*
X68310748Y-106318479D01*
X68314397Y-106324504D01*
X68391894Y-106452466D01*
X68398435Y-106463267D01*
X68403326Y-106468332D01*
X68403327Y-106468333D01*
X68427062Y-106492911D01*
X68516021Y-106585031D01*
X68657660Y-106677717D01*
X68816315Y-106736720D01*
X68823296Y-106737651D01*
X68823298Y-106737652D01*
X68977118Y-106758176D01*
X68977122Y-106758176D01*
X68984099Y-106759107D01*
X68991110Y-106758469D01*
X68991114Y-106758469D01*
X69145652Y-106744405D01*
X69152673Y-106743766D01*
X69313659Y-106691458D01*
X69459056Y-106604784D01*
X69581638Y-106488052D01*
X69585539Y-106482181D01*
X69671410Y-106352935D01*
X69671411Y-106352933D01*
X69675311Y-106347063D01*
X69735420Y-106188824D01*
X69758978Y-106021200D01*
X69759274Y-106000000D01*
X69742543Y-105850837D01*
X69741191Y-105838780D01*
X69741190Y-105838777D01*
X69740406Y-105831784D01*
X69684738Y-105671929D01*
X69595038Y-105528379D01*
X69475764Y-105408269D01*
X69332844Y-105317569D01*
X69305442Y-105307812D01*
X69180016Y-105263149D01*
X69180011Y-105263148D01*
X69173381Y-105260787D01*
X69166395Y-105259954D01*
X69166391Y-105259953D01*
X69047287Y-105245751D01*
X69005301Y-105240745D01*
X68998298Y-105241481D01*
X68998297Y-105241481D01*
X68843965Y-105257701D01*
X68843961Y-105257702D01*
X68836957Y-105258438D01*
X68830286Y-105260709D01*
X68683387Y-105310717D01*
X68683384Y-105310718D01*
X68676717Y-105312988D01*
X68670719Y-105316678D01*
X68670717Y-105316679D01*
X68538543Y-105397993D01*
X68538541Y-105397995D01*
X68532544Y-105401684D01*
X68411605Y-105520117D01*
X68407794Y-105526031D01*
X68407792Y-105526033D01*
X68357869Y-105603498D01*
X68319909Y-105662400D01*
X68309425Y-105691206D01*
X68264425Y-105814840D01*
X68264424Y-105814845D01*
X68262015Y-105821463D01*
X68240800Y-105989399D01*
X61757582Y-105989399D01*
X61740700Y-105838891D01*
X61737599Y-105825245D01*
X61690960Y-105691317D01*
X61682757Y-105679844D01*
X61678749Y-105680625D01*
X61678139Y-105681071D01*
X61372022Y-105987188D01*
X61364408Y-106001132D01*
X60634356Y-106001132D01*
X60635592Y-105998868D01*
X60635461Y-105997035D01*
X60631210Y-105990420D01*
X60328650Y-105687860D01*
X60316270Y-105681100D01*
X60312648Y-105683811D01*
X60264913Y-105814962D01*
X60261621Y-105828570D01*
X60242187Y-105982412D01*
X60241991Y-105996418D01*
X50254500Y-105996418D01*
X50254500Y-105316055D01*
X60680269Y-105316055D01*
X60684089Y-105324879D01*
X60987188Y-105627978D01*
X61001132Y-105635592D01*
X61002965Y-105635461D01*
X61009580Y-105631210D01*
X61312544Y-105328246D01*
X61319304Y-105315866D01*
X61316719Y-105312412D01*
X61316419Y-105312252D01*
X61179902Y-105263640D01*
X61166275Y-105260443D01*
X61012289Y-105242081D01*
X60998293Y-105241983D01*
X60844065Y-105258193D01*
X60830401Y-105261198D01*
X60685148Y-105310646D01*
X60680269Y-105316055D01*
X50254500Y-105316055D01*
X50254500Y-103989399D01*
X68240800Y-103989399D01*
X68257318Y-104157862D01*
X68310748Y-104318479D01*
X68314397Y-104324504D01*
X68390097Y-104449499D01*
X68398435Y-104463267D01*
X68403326Y-104468332D01*
X68403327Y-104468333D01*
X68427062Y-104492911D01*
X68516021Y-104585031D01*
X68657660Y-104677717D01*
X68816315Y-104736720D01*
X68823296Y-104737651D01*
X68823298Y-104737652D01*
X68977118Y-104758176D01*
X68977122Y-104758176D01*
X68984099Y-104759107D01*
X68991110Y-104758469D01*
X68991114Y-104758469D01*
X69145652Y-104744405D01*
X69152673Y-104743766D01*
X69313659Y-104691458D01*
X69459056Y-104604784D01*
X69581638Y-104488052D01*
X69616372Y-104435773D01*
X69670729Y-104390102D01*
X69721320Y-104379500D01*
X74006497Y-104379500D01*
X74074618Y-104399502D01*
X74111078Y-104435224D01*
X74124908Y-104455805D01*
X74242076Y-104562419D01*
X74381293Y-104638008D01*
X74534522Y-104678207D01*
X74618477Y-104679526D01*
X74685319Y-104680576D01*
X74685322Y-104680576D01*
X74692916Y-104680695D01*
X74847332Y-104645329D01*
X74920774Y-104608392D01*
X74982072Y-104577563D01*
X74982075Y-104577561D01*
X74988855Y-104574151D01*
X74994626Y-104569222D01*
X74994629Y-104569220D01*
X75103536Y-104476204D01*
X75103536Y-104476203D01*
X75109314Y-104471269D01*
X75201755Y-104342624D01*
X75260842Y-104195641D01*
X75283162Y-104038807D01*
X75283307Y-104025000D01*
X75264276Y-103867733D01*
X75208280Y-103719546D01*
X75140208Y-103620500D01*
X75122855Y-103595251D01*
X75122854Y-103595249D01*
X75118553Y-103588992D01*
X75000275Y-103483611D01*
X74992889Y-103479700D01*
X74866988Y-103413039D01*
X74866989Y-103413039D01*
X74860274Y-103409484D01*
X74706633Y-103370892D01*
X74699034Y-103370852D01*
X74699033Y-103370852D01*
X74633181Y-103370507D01*
X74548221Y-103370062D01*
X74540841Y-103371834D01*
X74540839Y-103371834D01*
X74401563Y-103405271D01*
X74401560Y-103405272D01*
X74394184Y-103407043D01*
X74253414Y-103479700D01*
X74247695Y-103484689D01*
X74159908Y-103561271D01*
X74134039Y-103583838D01*
X74133198Y-103582874D01*
X74079349Y-103616050D01*
X74046157Y-103620500D01*
X69722445Y-103620500D01*
X69654324Y-103600498D01*
X69615592Y-103561271D01*
X69598773Y-103534356D01*
X69598771Y-103534353D01*
X69595038Y-103528379D01*
X69475764Y-103408269D01*
X69332844Y-103317569D01*
X69305442Y-103307812D01*
X69180016Y-103263149D01*
X69180011Y-103263148D01*
X69173381Y-103260787D01*
X69166395Y-103259954D01*
X69166391Y-103259953D01*
X69047287Y-103245751D01*
X69005301Y-103240745D01*
X68998298Y-103241481D01*
X68998297Y-103241481D01*
X68843965Y-103257701D01*
X68843961Y-103257702D01*
X68836957Y-103258438D01*
X68830286Y-103260709D01*
X68683387Y-103310717D01*
X68683384Y-103310718D01*
X68676717Y-103312988D01*
X68670719Y-103316678D01*
X68670717Y-103316679D01*
X68538543Y-103397993D01*
X68538541Y-103397995D01*
X68532544Y-103401684D01*
X68527511Y-103406613D01*
X68443724Y-103488664D01*
X68411605Y-103520117D01*
X68407794Y-103526031D01*
X68407792Y-103526033D01*
X68385083Y-103561271D01*
X68319909Y-103662400D01*
X68317498Y-103669025D01*
X68264425Y-103814840D01*
X68264424Y-103814845D01*
X68262015Y-103821463D01*
X68240800Y-103989399D01*
X50254500Y-103989399D01*
X50254500Y-103254759D01*
X50274502Y-103186638D01*
X50283100Y-103174826D01*
X50285022Y-103172484D01*
X50302485Y-103155021D01*
X50434842Y-103046399D01*
X50455369Y-103032683D01*
X50606371Y-102951971D01*
X50629191Y-102942518D01*
X50793043Y-102892815D01*
X50817260Y-102887999D01*
X50993837Y-102870607D01*
X51006187Y-102870000D01*
X64516000Y-102870000D01*
X64516000Y-101989399D01*
X68240800Y-101989399D01*
X68257318Y-102157862D01*
X68310748Y-102318479D01*
X68314397Y-102324504D01*
X68354125Y-102390102D01*
X68398435Y-102463267D01*
X68403326Y-102468332D01*
X68403327Y-102468333D01*
X68427062Y-102492911D01*
X68516021Y-102585031D01*
X68657660Y-102677717D01*
X68816315Y-102736720D01*
X68823296Y-102737651D01*
X68823298Y-102737652D01*
X68977118Y-102758176D01*
X68977122Y-102758176D01*
X68984099Y-102759107D01*
X68991110Y-102758469D01*
X68991114Y-102758469D01*
X69145652Y-102744405D01*
X69152673Y-102743766D01*
X69313659Y-102691458D01*
X69459056Y-102604784D01*
X69581638Y-102488052D01*
X69616372Y-102435773D01*
X69670729Y-102390102D01*
X69721320Y-102379500D01*
X75882616Y-102379500D01*
X75950737Y-102399502D01*
X75971711Y-102416405D01*
X77427249Y-103871944D01*
X77461275Y-103934256D01*
X77463076Y-103977483D01*
X77457729Y-104018096D01*
X77465379Y-104087384D01*
X77473898Y-104164547D01*
X77475113Y-104175553D01*
X77477723Y-104182684D01*
X77477723Y-104182686D01*
X77482380Y-104195410D01*
X77529553Y-104324319D01*
X77533789Y-104330622D01*
X77533789Y-104330623D01*
X77613671Y-104449499D01*
X77617908Y-104455805D01*
X77623526Y-104460917D01*
X77623528Y-104460919D01*
X77631676Y-104468333D01*
X77735076Y-104562419D01*
X77874293Y-104638008D01*
X78027522Y-104678207D01*
X78111477Y-104679526D01*
X78178319Y-104680576D01*
X78178322Y-104680576D01*
X78185916Y-104680695D01*
X78340332Y-104645329D01*
X78413774Y-104608392D01*
X78475072Y-104577563D01*
X78475075Y-104577561D01*
X78481855Y-104574151D01*
X78487626Y-104569222D01*
X78487629Y-104569220D01*
X78596536Y-104476204D01*
X78596536Y-104476203D01*
X78602314Y-104471269D01*
X78694755Y-104342624D01*
X78753842Y-104195641D01*
X78776162Y-104038807D01*
X78776307Y-104025000D01*
X78757276Y-103867733D01*
X78701280Y-103719546D01*
X78633208Y-103620500D01*
X78615855Y-103595251D01*
X78615854Y-103595249D01*
X78611553Y-103588992D01*
X78493275Y-103483611D01*
X78485889Y-103479700D01*
X78359988Y-103413039D01*
X78359989Y-103413039D01*
X78353274Y-103409484D01*
X78199633Y-103370892D01*
X78192034Y-103370852D01*
X78192033Y-103370852D01*
X78131626Y-103370536D01*
X78050335Y-103370110D01*
X77982321Y-103349752D01*
X77961901Y-103333207D01*
X76398478Y-101769784D01*
X76383336Y-101751036D01*
X76382221Y-101749811D01*
X76376571Y-101741060D01*
X76368393Y-101734613D01*
X76368391Y-101734611D01*
X76350200Y-101720271D01*
X76345759Y-101716325D01*
X76345697Y-101716398D01*
X76341733Y-101713039D01*
X76338056Y-101709362D01*
X76322308Y-101698108D01*
X76317638Y-101694602D01*
X76277353Y-101662844D01*
X76268719Y-101659812D01*
X76261266Y-101654486D01*
X76212150Y-101639797D01*
X76206508Y-101637964D01*
X76165633Y-101623610D01*
X76165632Y-101623610D01*
X76158149Y-101620982D01*
X76152584Y-101620500D01*
X76149876Y-101620500D01*
X76147242Y-101620386D01*
X76147144Y-101620357D01*
X76147151Y-101620193D01*
X76146447Y-101620149D01*
X76140222Y-101618287D01*
X76086365Y-101620403D01*
X76081418Y-101620500D01*
X69722445Y-101620500D01*
X69654324Y-101600498D01*
X69615592Y-101561271D01*
X69598773Y-101534356D01*
X69598771Y-101534353D01*
X69595038Y-101528379D01*
X69475764Y-101408269D01*
X69332844Y-101317569D01*
X69298091Y-101305194D01*
X69180016Y-101263149D01*
X69180011Y-101263148D01*
X69173381Y-101260787D01*
X69166395Y-101259954D01*
X69166391Y-101259953D01*
X69047287Y-101245751D01*
X69005301Y-101240745D01*
X68998298Y-101241481D01*
X68998297Y-101241481D01*
X68843965Y-101257701D01*
X68843961Y-101257702D01*
X68836957Y-101258438D01*
X68830286Y-101260709D01*
X68683387Y-101310717D01*
X68683384Y-101310718D01*
X68676717Y-101312988D01*
X68670719Y-101316678D01*
X68670717Y-101316679D01*
X68538543Y-101397993D01*
X68538541Y-101397995D01*
X68532544Y-101401684D01*
X68411605Y-101520117D01*
X68407794Y-101526031D01*
X68407792Y-101526033D01*
X68385083Y-101561271D01*
X68319909Y-101662400D01*
X68317498Y-101669025D01*
X68264425Y-101814840D01*
X68264424Y-101814845D01*
X68262015Y-101821463D01*
X68240800Y-101989399D01*
X64516000Y-101989399D01*
X64516000Y-99989399D01*
X68240800Y-99989399D01*
X68257318Y-100157862D01*
X68310748Y-100318479D01*
X68398435Y-100463267D01*
X68403326Y-100468332D01*
X68403327Y-100468333D01*
X68427062Y-100492911D01*
X68516021Y-100585031D01*
X68657660Y-100677717D01*
X68816315Y-100736720D01*
X68823296Y-100737651D01*
X68823298Y-100737652D01*
X68977118Y-100758176D01*
X68977122Y-100758176D01*
X68984099Y-100759107D01*
X68991110Y-100758469D01*
X68991114Y-100758469D01*
X69145652Y-100744405D01*
X69152673Y-100743766D01*
X69313659Y-100691458D01*
X69459056Y-100604784D01*
X69581638Y-100488052D01*
X69586750Y-100480358D01*
X69671410Y-100352935D01*
X69671411Y-100352933D01*
X69675311Y-100347063D01*
X69735420Y-100188824D01*
X69758978Y-100021200D01*
X69759274Y-100000000D01*
X69740406Y-99831784D01*
X69684738Y-99671929D01*
X69595038Y-99528379D01*
X69475764Y-99408269D01*
X69459574Y-99397994D01*
X69421245Y-99373670D01*
X69332844Y-99317569D01*
X69305442Y-99307812D01*
X69180016Y-99263149D01*
X69180011Y-99263148D01*
X69173381Y-99260787D01*
X69166395Y-99259954D01*
X69166391Y-99259953D01*
X69047287Y-99245751D01*
X69005301Y-99240745D01*
X68998298Y-99241481D01*
X68998297Y-99241481D01*
X68843965Y-99257701D01*
X68843961Y-99257702D01*
X68836957Y-99258438D01*
X68830286Y-99260709D01*
X68683387Y-99310717D01*
X68683384Y-99310718D01*
X68676717Y-99312988D01*
X68670719Y-99316678D01*
X68670717Y-99316679D01*
X68538543Y-99397993D01*
X68538542Y-99397994D01*
X68532544Y-99401684D01*
X68411605Y-99520117D01*
X68319909Y-99662400D01*
X68317498Y-99669025D01*
X68264425Y-99814840D01*
X68264424Y-99814845D01*
X68262015Y-99821463D01*
X68240800Y-99989399D01*
X64516000Y-99989399D01*
X64516000Y-89504596D01*
X84938729Y-89504596D01*
X84956113Y-89662053D01*
X85010553Y-89810819D01*
X85014789Y-89817122D01*
X85014789Y-89817123D01*
X85089232Y-89927905D01*
X85098908Y-89942305D01*
X85104527Y-89947418D01*
X85104528Y-89947419D01*
X85121321Y-89962699D01*
X85216076Y-90048919D01*
X85355293Y-90124508D01*
X85508522Y-90164707D01*
X85592477Y-90166026D01*
X85659319Y-90167076D01*
X85659322Y-90167076D01*
X85666916Y-90167195D01*
X85821332Y-90131829D01*
X85891742Y-90096417D01*
X85956072Y-90064063D01*
X85956075Y-90064061D01*
X85962855Y-90060651D01*
X85968626Y-90055722D01*
X85968629Y-90055720D01*
X86077542Y-89962699D01*
X86077543Y-89962698D01*
X86083314Y-89957769D01*
X86093586Y-89943474D01*
X86149581Y-89899826D01*
X86195909Y-89891000D01*
X90318116Y-89891000D01*
X90386237Y-89911002D01*
X90407211Y-89927905D01*
X98245522Y-97766216D01*
X98260664Y-97784964D01*
X98261779Y-97786189D01*
X98267429Y-97794940D01*
X98275607Y-97801387D01*
X98275609Y-97801389D01*
X98293800Y-97815729D01*
X98298241Y-97819675D01*
X98298303Y-97819602D01*
X98302267Y-97822961D01*
X98305944Y-97826638D01*
X98321692Y-97837892D01*
X98326362Y-97841398D01*
X98366647Y-97873156D01*
X98375281Y-97876188D01*
X98382734Y-97881514D01*
X98431850Y-97896203D01*
X98437492Y-97898036D01*
X98478367Y-97912390D01*
X98485851Y-97915018D01*
X98491416Y-97915500D01*
X98494124Y-97915500D01*
X98496758Y-97915614D01*
X98496856Y-97915643D01*
X98496849Y-97915807D01*
X98497553Y-97915851D01*
X98503778Y-97917713D01*
X98557635Y-97915597D01*
X98562582Y-97915500D01*
X109976707Y-97915500D01*
X110044828Y-97935502D01*
X110084482Y-97976228D01*
X110098435Y-97999267D01*
X110216021Y-98121031D01*
X110357660Y-98213717D01*
X110516315Y-98272720D01*
X110523296Y-98273651D01*
X110523298Y-98273652D01*
X110677118Y-98294176D01*
X110677122Y-98294176D01*
X110684099Y-98295107D01*
X110691110Y-98294469D01*
X110691114Y-98294469D01*
X110845652Y-98280405D01*
X110852673Y-98279766D01*
X111013659Y-98227458D01*
X111159056Y-98140784D01*
X111281638Y-98024052D01*
X111287248Y-98015609D01*
X111371410Y-97888935D01*
X111371411Y-97888933D01*
X111375311Y-97883063D01*
X111435420Y-97724824D01*
X111458978Y-97557200D01*
X111459274Y-97536000D01*
X111440406Y-97367784D01*
X111384738Y-97207929D01*
X111295038Y-97064379D01*
X111175764Y-96944269D01*
X111032844Y-96853569D01*
X111005442Y-96843812D01*
X110880016Y-96799149D01*
X110880011Y-96799148D01*
X110873381Y-96796787D01*
X110866395Y-96795954D01*
X110866391Y-96795953D01*
X110747287Y-96781751D01*
X110705301Y-96776745D01*
X110698298Y-96777481D01*
X110698297Y-96777481D01*
X110543965Y-96793701D01*
X110543961Y-96793702D01*
X110536957Y-96794438D01*
X110530286Y-96796709D01*
X110383387Y-96846717D01*
X110383384Y-96846718D01*
X110376717Y-96848988D01*
X110370719Y-96852678D01*
X110370717Y-96852679D01*
X110238543Y-96933993D01*
X110238541Y-96933995D01*
X110232544Y-96937684D01*
X110111605Y-97056117D01*
X110107793Y-97062032D01*
X110107789Y-97062037D01*
X110084126Y-97098755D01*
X110030412Y-97145180D01*
X109978215Y-97156500D01*
X98761384Y-97156500D01*
X98693263Y-97136498D01*
X98672289Y-97119595D01*
X90833978Y-89281284D01*
X90818836Y-89262536D01*
X90817721Y-89261311D01*
X90812071Y-89252560D01*
X90803893Y-89246113D01*
X90803891Y-89246111D01*
X90785700Y-89231771D01*
X90781259Y-89227825D01*
X90781197Y-89227898D01*
X90777233Y-89224539D01*
X90773556Y-89220862D01*
X90757808Y-89209608D01*
X90753138Y-89206102D01*
X90712853Y-89174344D01*
X90704219Y-89171312D01*
X90696766Y-89165986D01*
X90647650Y-89151297D01*
X90642008Y-89149464D01*
X90601133Y-89135110D01*
X90601132Y-89135110D01*
X90593649Y-89132482D01*
X90588084Y-89132000D01*
X90585376Y-89132000D01*
X90582742Y-89131886D01*
X90582644Y-89131857D01*
X90582651Y-89131693D01*
X90581947Y-89131649D01*
X90575722Y-89129787D01*
X90521865Y-89131903D01*
X90516918Y-89132000D01*
X86197682Y-89132000D01*
X86129561Y-89111998D01*
X86103114Y-89086360D01*
X86101878Y-89087449D01*
X86096855Y-89081751D01*
X86092553Y-89075492D01*
X85974275Y-88970111D01*
X85966889Y-88966200D01*
X85840988Y-88899539D01*
X85840989Y-88899539D01*
X85834274Y-88895984D01*
X85680633Y-88857392D01*
X85673034Y-88857352D01*
X85673033Y-88857352D01*
X85607181Y-88857007D01*
X85522221Y-88856562D01*
X85514841Y-88858334D01*
X85514839Y-88858334D01*
X85375563Y-88891771D01*
X85375560Y-88891772D01*
X85368184Y-88893543D01*
X85227414Y-88966200D01*
X85108039Y-89070338D01*
X85016950Y-89199944D01*
X84959406Y-89347537D01*
X84938729Y-89504596D01*
X64516000Y-89504596D01*
X64516000Y-83989399D01*
X68240800Y-83989399D01*
X68257318Y-84157862D01*
X68310748Y-84318479D01*
X68398435Y-84463267D01*
X68403326Y-84468332D01*
X68403327Y-84468333D01*
X68427062Y-84492911D01*
X68516021Y-84585031D01*
X68657660Y-84677717D01*
X68816315Y-84736720D01*
X68823296Y-84737651D01*
X68823298Y-84737652D01*
X68977118Y-84758176D01*
X68977122Y-84758176D01*
X68984099Y-84759107D01*
X68991110Y-84758469D01*
X68991114Y-84758469D01*
X69145652Y-84744405D01*
X69152673Y-84743766D01*
X69313659Y-84691458D01*
X69459056Y-84604784D01*
X69581638Y-84488052D01*
X69585539Y-84482181D01*
X69671410Y-84352935D01*
X69671411Y-84352933D01*
X69675311Y-84347063D01*
X69735420Y-84188824D01*
X69758978Y-84021200D01*
X69759274Y-84000000D01*
X69740406Y-83831784D01*
X69684738Y-83671929D01*
X69595038Y-83528379D01*
X69581995Y-83515244D01*
X69480726Y-83413266D01*
X69475764Y-83408269D01*
X69332844Y-83317569D01*
X69305442Y-83307812D01*
X69180016Y-83263149D01*
X69180011Y-83263148D01*
X69173381Y-83260787D01*
X69166395Y-83259954D01*
X69166391Y-83259953D01*
X69047287Y-83245751D01*
X69005301Y-83240745D01*
X68998298Y-83241481D01*
X68998297Y-83241481D01*
X68843965Y-83257701D01*
X68843961Y-83257702D01*
X68836957Y-83258438D01*
X68830286Y-83260709D01*
X68683387Y-83310717D01*
X68683384Y-83310718D01*
X68676717Y-83312988D01*
X68670719Y-83316678D01*
X68670717Y-83316679D01*
X68538543Y-83397993D01*
X68538541Y-83397995D01*
X68532544Y-83401684D01*
X68411605Y-83520117D01*
X68407794Y-83526031D01*
X68407792Y-83526033D01*
X68394891Y-83546052D01*
X68319909Y-83662400D01*
X68317498Y-83669025D01*
X68264425Y-83814840D01*
X68264424Y-83814845D01*
X68262015Y-83821463D01*
X68240800Y-83989399D01*
X64516000Y-83989399D01*
X64516000Y-83047399D01*
X106174800Y-83047399D01*
X106191318Y-83215862D01*
X106244748Y-83376479D01*
X106332435Y-83521267D01*
X106337326Y-83526332D01*
X106337327Y-83526333D01*
X106361062Y-83550911D01*
X106450021Y-83643031D01*
X106591660Y-83735717D01*
X106750315Y-83794720D01*
X106757296Y-83795651D01*
X106757298Y-83795652D01*
X106911118Y-83816176D01*
X106911122Y-83816176D01*
X106918099Y-83817107D01*
X106925110Y-83816469D01*
X106925114Y-83816469D01*
X107079652Y-83802405D01*
X107086673Y-83801766D01*
X107247659Y-83749458D01*
X107337199Y-83696082D01*
X107387004Y-83666392D01*
X107387006Y-83666391D01*
X107393056Y-83662784D01*
X107515638Y-83546052D01*
X107527380Y-83528379D01*
X107605410Y-83410935D01*
X107605411Y-83410933D01*
X107609311Y-83405063D01*
X107669420Y-83246824D01*
X107692978Y-83079200D01*
X107693274Y-83058000D01*
X107674406Y-82889784D01*
X107618738Y-82729929D01*
X107529038Y-82586379D01*
X107409764Y-82466269D01*
X107266844Y-82375569D01*
X107239442Y-82365812D01*
X107114016Y-82321149D01*
X107114011Y-82321148D01*
X107107381Y-82318787D01*
X107100395Y-82317954D01*
X107100391Y-82317953D01*
X106981287Y-82303751D01*
X106939301Y-82298745D01*
X106932298Y-82299481D01*
X106932297Y-82299481D01*
X106777965Y-82315701D01*
X106777961Y-82315702D01*
X106770957Y-82316438D01*
X106764286Y-82318709D01*
X106617387Y-82368717D01*
X106617384Y-82368718D01*
X106610717Y-82370988D01*
X106604719Y-82374678D01*
X106604717Y-82374679D01*
X106472543Y-82455993D01*
X106472541Y-82455995D01*
X106466544Y-82459684D01*
X106345605Y-82578117D01*
X106253909Y-82720400D01*
X106251498Y-82727025D01*
X106198425Y-82872840D01*
X106198424Y-82872845D01*
X106196015Y-82879463D01*
X106174800Y-83047399D01*
X64516000Y-83047399D01*
X64516000Y-81006187D01*
X64516607Y-80993837D01*
X64520815Y-80951109D01*
X64533999Y-80817260D01*
X64538815Y-80793043D01*
X64588518Y-80629190D01*
X64597971Y-80606371D01*
X64678681Y-80455372D01*
X64692399Y-80434842D01*
X64801021Y-80302485D01*
X64818484Y-80285022D01*
X64820826Y-80283100D01*
X64886174Y-80255347D01*
X64900759Y-80254500D01*
X148962524Y-80254500D01*
X148987103Y-80256921D01*
G37*
%TD.AperFunction*%
%TD*%
%TA.AperFunction,Conductor*%
%TO.N,SDA*%
G36*
X57900970Y-97988002D02*
G01*
X57947463Y-98041658D01*
X57957771Y-98110446D01*
X57940715Y-98240000D01*
X57959772Y-98384754D01*
X58015645Y-98519642D01*
X58104526Y-98635474D01*
X58111076Y-98640500D01*
X58111079Y-98640503D01*
X58213804Y-98719327D01*
X58220357Y-98724355D01*
X58355246Y-98780228D01*
X58500000Y-98799285D01*
X58508188Y-98798207D01*
X58636566Y-98781306D01*
X58644754Y-98780228D01*
X58779643Y-98724355D01*
X58786196Y-98719327D01*
X58888921Y-98640503D01*
X58888924Y-98640500D01*
X58895474Y-98635474D01*
X58912702Y-98613022D01*
X58970040Y-98571155D01*
X59040911Y-98566933D01*
X59102814Y-98601697D01*
X59136095Y-98664410D01*
X59137873Y-98675621D01*
X59142410Y-98715895D01*
X59142410Y-98744107D01*
X59126484Y-98885456D01*
X59120205Y-98912965D01*
X59073228Y-99047216D01*
X59060987Y-99072635D01*
X58985306Y-99193082D01*
X58967713Y-99215142D01*
X58867142Y-99315713D01*
X58845082Y-99333306D01*
X58724635Y-99408987D01*
X58699216Y-99421228D01*
X58564963Y-99468206D01*
X58537457Y-99474484D01*
X58389029Y-99491208D01*
X58374921Y-99492000D01*
X51531079Y-99492000D01*
X51516971Y-99491208D01*
X51368543Y-99474484D01*
X51341037Y-99468206D01*
X51206784Y-99421228D01*
X51181365Y-99408987D01*
X51060918Y-99333306D01*
X51038858Y-99315713D01*
X50938287Y-99215142D01*
X50920694Y-99193082D01*
X50845013Y-99072635D01*
X50832772Y-99047216D01*
X50785795Y-98912965D01*
X50779516Y-98885456D01*
X50763590Y-98744107D01*
X50763590Y-98715893D01*
X50779516Y-98574544D01*
X50785795Y-98547035D01*
X50832772Y-98412784D01*
X50845013Y-98387365D01*
X50920694Y-98266918D01*
X50938287Y-98244858D01*
X51038858Y-98144287D01*
X51060918Y-98126694D01*
X51181365Y-98051013D01*
X51206784Y-98038772D01*
X51341037Y-97991794D01*
X51368543Y-97985516D01*
X51516971Y-97968792D01*
X51531079Y-97968000D01*
X57832849Y-97968000D01*
X57900970Y-97988002D01*
G37*
%TD.AperFunction*%
%TD*%
%TA.AperFunction,Conductor*%
%TO.N,Vsrc*%
G36*
X63014163Y-89154607D02*
G01*
X63190740Y-89171999D01*
X63214957Y-89176815D01*
X63378809Y-89226518D01*
X63401629Y-89235971D01*
X63552631Y-89316683D01*
X63573158Y-89330399D01*
X63705521Y-89439026D01*
X63722974Y-89456479D01*
X63831601Y-89588842D01*
X63845319Y-89609372D01*
X63926029Y-89760371D01*
X63935482Y-89783190D01*
X63985185Y-89947043D01*
X63990002Y-89971263D01*
X64007393Y-90147837D01*
X64008000Y-90160187D01*
X64008000Y-96021813D01*
X64007393Y-96034163D01*
X63990002Y-96210737D01*
X63985185Y-96234957D01*
X63935482Y-96398809D01*
X63926029Y-96421629D01*
X63845319Y-96572628D01*
X63831601Y-96593158D01*
X63722974Y-96725521D01*
X63705521Y-96742974D01*
X63573158Y-96851601D01*
X63552631Y-96865317D01*
X63460417Y-96914607D01*
X63401629Y-96946029D01*
X63378810Y-96955482D01*
X63214957Y-97005185D01*
X63190740Y-97010001D01*
X63014163Y-97027393D01*
X63001813Y-97028000D01*
X51006187Y-97028000D01*
X50993837Y-97027393D01*
X50817260Y-97010001D01*
X50793043Y-97005185D01*
X50629190Y-96955482D01*
X50606371Y-96946029D01*
X50547583Y-96914607D01*
X50455369Y-96865317D01*
X50434842Y-96851601D01*
X50302485Y-96742979D01*
X50285022Y-96725516D01*
X50283100Y-96723174D01*
X50255347Y-96657826D01*
X50254500Y-96643241D01*
X50254500Y-94683357D01*
X60681473Y-94683357D01*
X60684256Y-94687075D01*
X60809835Y-94733777D01*
X60823421Y-94737164D01*
X60977128Y-94757674D01*
X60991124Y-94757967D01*
X61145550Y-94743912D01*
X61159276Y-94741095D01*
X61306752Y-94693177D01*
X61311688Y-94690938D01*
X61318969Y-94683086D01*
X61315464Y-94674674D01*
X61012812Y-94372022D01*
X60998868Y-94364408D01*
X60997035Y-94364539D01*
X60990420Y-94368790D01*
X60688233Y-94670977D01*
X60681473Y-94683357D01*
X50254500Y-94683357D01*
X50254500Y-93996418D01*
X60241991Y-93996418D01*
X60257123Y-94150748D01*
X60260034Y-94164442D01*
X60308980Y-94311581D01*
X60309687Y-94313110D01*
X60316497Y-94319336D01*
X60325117Y-94315673D01*
X60627978Y-94012812D01*
X60634356Y-94001132D01*
X61364408Y-94001132D01*
X61364539Y-94002965D01*
X61368790Y-94009580D01*
X61670635Y-94311425D01*
X61683015Y-94318185D01*
X61686831Y-94315328D01*
X61732431Y-94195285D01*
X61735913Y-94181724D01*
X61757924Y-94025109D01*
X61758530Y-94017225D01*
X61758716Y-94003962D01*
X61758329Y-93996062D01*
X61740700Y-93838891D01*
X61737599Y-93825245D01*
X61690960Y-93691317D01*
X61682757Y-93679844D01*
X61678749Y-93680625D01*
X61678139Y-93681071D01*
X61372022Y-93987188D01*
X61364408Y-94001132D01*
X60634356Y-94001132D01*
X60635592Y-93998868D01*
X60635461Y-93997035D01*
X60631210Y-93990420D01*
X60328650Y-93687860D01*
X60316270Y-93681100D01*
X60312648Y-93683811D01*
X60264913Y-93814962D01*
X60261621Y-93828570D01*
X60242187Y-93982412D01*
X60241991Y-93996418D01*
X50254500Y-93996418D01*
X50254500Y-93316055D01*
X60680269Y-93316055D01*
X60684089Y-93324879D01*
X60987188Y-93627978D01*
X61001132Y-93635592D01*
X61002965Y-93635461D01*
X61009580Y-93631210D01*
X61312544Y-93328246D01*
X61319304Y-93315866D01*
X61316719Y-93312412D01*
X61316419Y-93312252D01*
X61179902Y-93263640D01*
X61166275Y-93260443D01*
X61012289Y-93242081D01*
X60998293Y-93241983D01*
X60844065Y-93258193D01*
X60830401Y-93261198D01*
X60685148Y-93310646D01*
X60680269Y-93316055D01*
X50254500Y-93316055D01*
X50254500Y-91997476D01*
X50256921Y-91972894D01*
X50257065Y-91972170D01*
X50259486Y-91960000D01*
X50257065Y-91947830D01*
X50257065Y-91940144D01*
X50257672Y-91927793D01*
X50267609Y-91826908D01*
X50272425Y-91802691D01*
X50307649Y-91686574D01*
X50317093Y-91663774D01*
X50374292Y-91556761D01*
X50388011Y-91536230D01*
X50464981Y-91442444D01*
X50482444Y-91424981D01*
X50576230Y-91348011D01*
X50596761Y-91334292D01*
X50703774Y-91277093D01*
X50726574Y-91267649D01*
X50842691Y-91232425D01*
X50866908Y-91227609D01*
X50967793Y-91217672D01*
X50980144Y-91217065D01*
X50987830Y-91217065D01*
X51000000Y-91219486D01*
X51012897Y-91216921D01*
X51037476Y-91214500D01*
X58106524Y-91214500D01*
X58131103Y-91216921D01*
X58144000Y-91219486D01*
X58153209Y-91217654D01*
X58340854Y-91202886D01*
X58345661Y-91201732D01*
X58345667Y-91201731D01*
X58466853Y-91172637D01*
X58532860Y-91156790D01*
X58537433Y-91154896D01*
X58710718Y-91083119D01*
X58710722Y-91083117D01*
X58715292Y-91081224D01*
X58883657Y-90978050D01*
X58887412Y-90974843D01*
X58887416Y-90974840D01*
X59030052Y-90853016D01*
X59033808Y-90849808D01*
X59043230Y-90838776D01*
X59158840Y-90703416D01*
X59158843Y-90703412D01*
X59162050Y-90699657D01*
X59265224Y-90531292D01*
X59340790Y-90348860D01*
X59386886Y-90156854D01*
X59401654Y-89969209D01*
X59403486Y-89960000D01*
X59400921Y-89947103D01*
X59398500Y-89922524D01*
X59398500Y-89285134D01*
X59418502Y-89217013D01*
X59472158Y-89170520D01*
X59504790Y-89160685D01*
X59516873Y-89158772D01*
X59537209Y-89155551D01*
X59556918Y-89154000D01*
X63001813Y-89154000D01*
X63014163Y-89154607D01*
G37*
%TD.AperFunction*%
%TD*%
M02*
