%TF.GenerationSoftware,KiCad,Pcbnew,6.0.11+dfsg-1~bpo11+1*%
%TF.CreationDate,2024-03-27T19:00:14-04:00*%
%TF.ProjectId,Module - Adjustable single rail PSU,4d6f6475-6c65-4202-9d20-41646a757374,1.0.0*%
%TF.SameCoordinates,Original*%
%TF.FileFunction,Copper,L1,Top*%
%TF.FilePolarity,Positive*%
%FSLAX46Y46*%
G04 Gerber Fmt 4.6, Leading zero omitted, Abs format (unit mm)*
G04 Created by KiCad (PCBNEW 6.0.11+dfsg-1~bpo11+1) date 2024-03-27 19:00:14*
%MOMM*%
%LPD*%
G01*
G04 APERTURE LIST*
G04 Aperture macros list*
%AMRoundRect*
0 Rectangle with rounded corners*
0 $1 Rounding radius*
0 $2 $3 $4 $5 $6 $7 $8 $9 X,Y pos of 4 corners*
0 Add a 4 corners polygon primitive as box body*
4,1,4,$2,$3,$4,$5,$6,$7,$8,$9,$2,$3,0*
0 Add four circle primitives for the rounded corners*
1,1,$1+$1,$2,$3*
1,1,$1+$1,$4,$5*
1,1,$1+$1,$6,$7*
1,1,$1+$1,$8,$9*
0 Add four rect primitives between the rounded corners*
20,1,$1+$1,$2,$3,$4,$5,0*
20,1,$1+$1,$4,$5,$6,$7,0*
20,1,$1+$1,$6,$7,$8,$9,0*
20,1,$1+$1,$8,$9,$2,$3,0*%
G04 Aperture macros list end*
%TA.AperFunction,SMDPad,CuDef*%
%ADD10RoundRect,0.225000X-0.017678X0.335876X-0.335876X0.017678X0.017678X-0.335876X0.335876X-0.017678X0*%
%TD*%
%TA.AperFunction,SMDPad,CuDef*%
%ADD11RoundRect,0.200000X-0.200000X-0.275000X0.200000X-0.275000X0.200000X0.275000X-0.200000X0.275000X0*%
%TD*%
%TA.AperFunction,ComponentPad*%
%ADD12C,1.000000*%
%TD*%
%TA.AperFunction,SMDPad,CuDef*%
%ADD13RoundRect,0.225000X0.225000X0.250000X-0.225000X0.250000X-0.225000X-0.250000X0.225000X-0.250000X0*%
%TD*%
%TA.AperFunction,SMDPad,CuDef*%
%ADD14R,5.400000X2.900000*%
%TD*%
%TA.AperFunction,SMDPad,CuDef*%
%ADD15R,1.730000X1.190000*%
%TD*%
%TA.AperFunction,SMDPad,CuDef*%
%ADD16RoundRect,0.200000X-0.275000X0.200000X-0.275000X-0.200000X0.275000X-0.200000X0.275000X0.200000X0*%
%TD*%
%TA.AperFunction,SMDPad,CuDef*%
%ADD17RoundRect,0.218750X0.218750X0.256250X-0.218750X0.256250X-0.218750X-0.256250X0.218750X-0.256250X0*%
%TD*%
%TA.AperFunction,SMDPad,CuDef*%
%ADD18RoundRect,0.250000X-0.450000X0.262500X-0.450000X-0.262500X0.450000X-0.262500X0.450000X0.262500X0*%
%TD*%
%TA.AperFunction,SMDPad,CuDef*%
%ADD19R,1.200000X0.900000*%
%TD*%
%TA.AperFunction,SMDPad,CuDef*%
%ADD20RoundRect,0.250000X1.950000X0.700000X-1.950000X0.700000X-1.950000X-0.700000X1.950000X-0.700000X0*%
%TD*%
%TA.AperFunction,SMDPad,CuDef*%
%ADD21RoundRect,0.062500X0.062500X-0.350000X0.062500X0.350000X-0.062500X0.350000X-0.062500X-0.350000X0*%
%TD*%
%TA.AperFunction,SMDPad,CuDef*%
%ADD22RoundRect,0.062500X0.350000X-0.062500X0.350000X0.062500X-0.350000X0.062500X-0.350000X-0.062500X0*%
%TD*%
%TA.AperFunction,SMDPad,CuDef*%
%ADD23R,2.600000X2.600000*%
%TD*%
%TA.AperFunction,SMDPad,CuDef*%
%ADD24RoundRect,0.250000X-0.700000X1.950000X-0.700000X-1.950000X0.700000X-1.950000X0.700000X1.950000X0*%
%TD*%
%TA.AperFunction,SMDPad,CuDef*%
%ADD25RoundRect,0.250000X-0.475000X0.250000X-0.475000X-0.250000X0.475000X-0.250000X0.475000X0.250000X0*%
%TD*%
%TA.AperFunction,SMDPad,CuDef*%
%ADD26R,4.600000X1.100000*%
%TD*%
%TA.AperFunction,SMDPad,CuDef*%
%ADD27R,9.400000X10.800000*%
%TD*%
%TA.AperFunction,ComponentPad*%
%ADD28R,2.000000X4.000000*%
%TD*%
%TA.AperFunction,ComponentPad*%
%ADD29O,2.000000X3.300000*%
%TD*%
%TA.AperFunction,ComponentPad*%
%ADD30O,3.500000X2.000000*%
%TD*%
%TA.AperFunction,SMDPad,CuDef*%
%ADD31R,2.500000X1.800000*%
%TD*%
%TA.AperFunction,ViaPad*%
%ADD32C,0.600000*%
%TD*%
%TA.AperFunction,ViaPad*%
%ADD33C,0.800000*%
%TD*%
%TA.AperFunction,ViaPad*%
%ADD34C,1.600000*%
%TD*%
%TA.AperFunction,ViaPad*%
%ADD35C,0.500000*%
%TD*%
%TA.AperFunction,Conductor*%
%ADD36C,0.250000*%
%TD*%
G04 APERTURE END LIST*
D10*
%TO.P,C2,1*%
%TO.N,I2C-Vcc*%
X71620008Y-109639992D03*
%TO.P,C2,2*%
%TO.N,GND*%
X70523992Y-110736008D03*
%TD*%
D11*
%TO.P,R3,1*%
%TO.N,I2C-Vcc*%
X75577000Y-107772000D03*
%TO.P,R3,2*%
%TO.N,/PA0*%
X77227000Y-107772000D03*
%TD*%
D12*
%TO.P,TP3,1,1*%
%TO.N,Dat0*%
X69000000Y-106000000D03*
%TD*%
%TO.P,TP1,1,1*%
%TO.N,Vsrc*%
X61000000Y-94000000D03*
%TD*%
%TO.P,TPc4,1,1*%
%TO.N,PC4*%
X89000000Y-114000000D03*
%TD*%
D13*
%TO.P,C1,1*%
%TO.N,I2C-Vcc*%
X84035000Y-110744000D03*
%TO.P,C1,2*%
%TO.N,GND*%
X82485000Y-110744000D03*
%TD*%
D14*
%TO.P,L1,1,1*%
%TO.N,/Vmid*%
X115062000Y-84204000D03*
%TO.P,L1,2,2*%
%TO.N,Vout*%
X115062000Y-94104000D03*
%TD*%
D12*
%TO.P,TPb4,1,1*%
%TO.N,PB4*%
X95000000Y-108000000D03*
%TD*%
D15*
%TO.P,F1,1*%
%TO.N,Vsrc*%
X62176000Y-90350000D03*
%TO.P,F1,2*%
%TO.N,/Vprot*%
X62176000Y-87450000D03*
%TD*%
D16*
%TO.P,R1,1*%
%TO.N,I2C-Vcc*%
X77164000Y-102375000D03*
%TO.P,R1,2*%
%TO.N,SDA*%
X77164000Y-104025000D03*
%TD*%
D17*
%TO.P,D3,1,K*%
%TO.N,GND*%
X148869500Y-105156000D03*
%TO.P,D3,2,A*%
%TO.N,Net-(D3-Pad2)*%
X147294500Y-105156000D03*
%TD*%
D12*
%TO.P,TPa2,1,1*%
%TO.N,PA2*%
X81000000Y-100000000D03*
%TD*%
%TO.P,TPc5,1,1*%
%TO.N,PC5*%
X91000000Y-114000000D03*
%TD*%
D16*
%TO.P,R4,1*%
%TO.N,/PA0*%
X79000000Y-109775000D03*
%TO.P,R4,2*%
%TO.N,~{RESET}*%
X79000000Y-111425000D03*
%TD*%
D12*
%TO.P,TP20,1,1*%
%TO.N,Vout*%
X110700000Y-97536000D03*
%TD*%
D18*
%TO.P,R5,1*%
%TO.N,Vout*%
X84582000Y-89511500D03*
%TO.P,R5,2*%
%TO.N,/Feedback*%
X84582000Y-91336500D03*
%TD*%
D12*
%TO.P,TPa4,1,1*%
%TO.N,PA4*%
X85000000Y-100000000D03*
%TD*%
D19*
%TO.P,D2,1,K*%
%TO.N,/Vmid*%
X106934000Y-87758000D03*
%TO.P,D2,2,A*%
%TO.N,GND*%
X106934000Y-91058000D03*
%TD*%
D12*
%TO.P,TP11,1,1*%
%TO.N,PA1*%
X87122000Y-93218000D03*
%TD*%
%TO.P,TP19,1,1*%
%TO.N,GND*%
X81000000Y-114000000D03*
%TD*%
D20*
%TO.P,C5,1*%
%TO.N,Vout*%
X113316000Y-105664000D03*
%TO.P,C5,2*%
%TO.N,GND*%
X104616000Y-105664000D03*
%TD*%
D12*
%TO.P,TPb1,1,1*%
%TO.N,PB1*%
X95000000Y-102000000D03*
%TD*%
%TO.P,TPc2,1,1*%
%TO.N,PC2*%
X85000000Y-114000000D03*
%TD*%
%TO.P,TPa7,1,1*%
%TO.N,PA7*%
X91000000Y-100000000D03*
%TD*%
D21*
%TO.P,U1,1,PA2*%
%TO.N,PA2*%
X82010000Y-108947500D03*
%TO.P,U1,2,PA3*%
%TO.N,PA3*%
X82510000Y-108947500D03*
%TO.P,U1,3,GND*%
%TO.N,GND*%
X83010000Y-108947500D03*
%TO.P,U1,4,VCC*%
%TO.N,I2C-Vcc*%
X83510000Y-108947500D03*
%TO.P,U1,5,PA4*%
%TO.N,PA4*%
X84010000Y-108947500D03*
%TO.P,U1,6,PA5*%
%TO.N,PA5*%
X84510000Y-108947500D03*
D22*
%TO.P,U1,7,PA6*%
%TO.N,PA6*%
X85197500Y-108260000D03*
%TO.P,U1,8,PA7*%
%TO.N,PA7*%
X85197500Y-107760000D03*
%TO.P,U1,9,PB7*%
%TO.N,PB7*%
X85197500Y-107260000D03*
%TO.P,U1,10,PB6*%
%TO.N,PB6*%
X85197500Y-106760000D03*
%TO.P,U1,11,PB5*%
%TO.N,PB5*%
X85197500Y-106260000D03*
%TO.P,U1,12,PB4*%
%TO.N,PB4*%
X85197500Y-105760000D03*
D21*
%TO.P,U1,13,PB3*%
%TO.N,PB3*%
X84510000Y-105072500D03*
%TO.P,U1,14,PB2*%
%TO.N,PB2*%
X84010000Y-105072500D03*
%TO.P,U1,15,PB1*%
%TO.N,PB1*%
X83510000Y-105072500D03*
%TO.P,U1,16,PB0*%
%TO.N,PB0*%
X83010000Y-105072500D03*
%TO.P,U1,17,PC0*%
%TO.N,SCL*%
X82510000Y-105072500D03*
%TO.P,U1,18,PC1*%
%TO.N,SDA*%
X82010000Y-105072500D03*
D22*
%TO.P,U1,19,PC2*%
%TO.N,PC2*%
X81322500Y-105760000D03*
%TO.P,U1,20,PC3*%
%TO.N,PC3*%
X81322500Y-106260000D03*
%TO.P,U1,21,PC4*%
%TO.N,PC4*%
X81322500Y-106760000D03*
%TO.P,U1,22,PC5*%
%TO.N,PC5*%
X81322500Y-107260000D03*
%TO.P,U1,23,~{RESET}/PA0*%
%TO.N,/PA0*%
X81322500Y-107760000D03*
%TO.P,U1,24,PA1*%
%TO.N,PA1*%
X81322500Y-108260000D03*
D23*
%TO.P,U1,25,GND*%
%TO.N,GND*%
X83260000Y-107010000D03*
%TD*%
D24*
%TO.P,C4,1*%
%TO.N,/Vin*%
X75692000Y-84804000D03*
%TO.P,C4,2*%
%TO.N,GND*%
X75692000Y-93504000D03*
%TD*%
D12*
%TO.P,TP2,1,1*%
%TO.N,GND*%
X61000000Y-106000000D03*
%TD*%
%TO.P,TPb5,1,1*%
%TO.N,PB5*%
X95000000Y-110000000D03*
%TD*%
D25*
%TO.P,C3,1*%
%TO.N,Vout*%
X86614000Y-89474000D03*
%TO.P,C3,2*%
%TO.N,/Feedback*%
X86614000Y-91374000D03*
%TD*%
D12*
%TO.P,TP7,1,1*%
%TO.N,/Vin*%
X69000000Y-84000000D03*
%TD*%
%TO.P,TP10,1,1*%
%TO.N,/Vmid*%
X106934000Y-83058000D03*
%TD*%
D11*
%TO.P,R7,1*%
%TO.N,Vout*%
X144209000Y-105156000D03*
%TO.P,R7,2*%
%TO.N,Net-(D3-Pad2)*%
X145859000Y-105156000D03*
%TD*%
D12*
%TO.P,TPa0,1,1*%
%TO.N,~{RESET}*%
X79000000Y-114000000D03*
%TD*%
%TO.P,TPa6,1,1*%
%TO.N,PA6*%
X89000000Y-100000000D03*
%TD*%
%TO.P,TPa1,1,1*%
%TO.N,PA1*%
X79000000Y-100000000D03*
%TD*%
%TO.P,TPb2,1,1*%
%TO.N,PB2*%
X95000000Y-104000000D03*
%TD*%
%TO.P,TP6,1,1*%
%TO.N,SCL*%
X69000000Y-104000000D03*
%TD*%
%TO.P,TP15,1,1*%
%TO.N,I2C-Vcc*%
X77000000Y-114000000D03*
%TD*%
D16*
%TO.P,R2,1*%
%TO.N,I2C-Vcc*%
X75640000Y-102375000D03*
%TO.P,R2,2*%
%TO.N,SCL*%
X75640000Y-104025000D03*
%TD*%
D12*
%TO.P,TPa5,1,1*%
%TO.N,PA5*%
X87000000Y-100000000D03*
%TD*%
D26*
%TO.P,U2,1,VIN*%
%TO.N,/Vin*%
X91253000Y-86262000D03*
%TO.P,U2,2,OUT*%
%TO.N,/Vmid*%
X91253000Y-87962000D03*
D27*
%TO.P,U2,3,GND*%
%TO.N,GND*%
X100403000Y-89662000D03*
D26*
X91253000Y-89662000D03*
%TO.P,U2,4,FB*%
%TO.N,/Feedback*%
X91253000Y-91362000D03*
%TO.P,U2,5,~{ON}/OFF*%
%TO.N,PA1*%
X91253000Y-93062000D03*
%TD*%
D12*
%TO.P,TPb7,1,1*%
%TO.N,PB7*%
X95000000Y-114000000D03*
%TD*%
%TO.P,TPb0,1,1*%
%TO.N,PB0*%
X95000000Y-100000000D03*
%TD*%
D28*
%TO.P,J1,1*%
%TO.N,Vout*%
X137800000Y-112000000D03*
D29*
%TO.P,J1,2*%
%TO.N,GND*%
X143800000Y-112000000D03*
D30*
%TO.P,J1,3,MP*%
X144800000Y-116500000D03*
%TO.P,J1,4,MP*%
X144800000Y-107500000D03*
%TD*%
D12*
%TO.P,TPb3,1,1*%
%TO.N,PB3*%
X95000000Y-106000000D03*
%TD*%
D31*
%TO.P,D1,1,K*%
%TO.N,/Vin*%
X66200000Y-84074000D03*
%TO.P,D1,2,A*%
%TO.N,/Vprot*%
X62200000Y-84074000D03*
%TD*%
D12*
%TO.P,TPc3,1,1*%
%TO.N,PC3*%
X87000000Y-114000000D03*
%TD*%
%TO.P,TPa3,1,1*%
%TO.N,PA3*%
X83000000Y-100000000D03*
%TD*%
%TO.P,TP4,1,1*%
%TO.N,I2C-Vcc*%
X69000000Y-100000000D03*
%TD*%
%TO.P,TP5,1,1*%
%TO.N,SDA*%
X69000000Y-102000000D03*
%TD*%
%TO.P,TPb6,1,1*%
%TO.N,PB6*%
X95000000Y-112000000D03*
%TD*%
D18*
%TO.P,R6,1*%
%TO.N,/Feedback*%
X84582000Y-93067500D03*
%TO.P,R6,2*%
%TO.N,GND*%
X84582000Y-94892500D03*
%TD*%
D32*
%TO.N,I2C-Vcc*%
X58500000Y-98240000D03*
D33*
%TO.N,GND*%
X82360000Y-106200000D03*
D34*
X70040000Y-119000000D03*
D33*
X83260000Y-107010000D03*
D34*
X74000000Y-119000000D03*
X97282000Y-93472000D03*
X63000000Y-104000000D03*
X148000000Y-119000000D03*
X97282000Y-85852000D03*
X100584000Y-89662000D03*
X65532000Y-90170000D03*
X103886000Y-93472000D03*
D33*
X84160000Y-106200000D03*
X82360000Y-107900000D03*
D34*
X94742000Y-119000000D03*
X65532000Y-96012000D03*
X59000000Y-104000000D03*
X103886000Y-86106000D03*
D33*
X82485000Y-110701500D03*
X84160000Y-107900000D03*
D32*
%TO.N,Dat0*%
X58500000Y-101760000D03*
%TO.N,SDA*%
X58500000Y-99240000D03*
D33*
X78117000Y-104025000D03*
%TO.N,SCL*%
X74624000Y-104025000D03*
D32*
X58500000Y-100760000D03*
D35*
%TO.N,PA4*%
X85344000Y-109734193D03*
%TO.N,PA5*%
X85852000Y-109042000D03*
%TO.N,PA6*%
X86614000Y-108458000D03*
%TO.N,PA7*%
X87122000Y-107950000D03*
%TO.N,PA1*%
X80278500Y-108334500D03*
%TO.N,PA2*%
X80806212Y-108947500D03*
%TO.N,PA3*%
X81280000Y-109767057D03*
%TO.N,PC2*%
X78368658Y-105608314D03*
%TO.N,PC3*%
X78679577Y-106234919D03*
%TO.N,PC4*%
X79169830Y-106733874D03*
%TO.N,PC5*%
X79704000Y-107185500D03*
D34*
%TO.N,Vsrc*%
X63000000Y-96000000D03*
X59000000Y-96000000D03*
D33*
%TO.N,Vout*%
X85598000Y-89511500D03*
%TD*%
D36*
%TO.N,I2C-Vcc*%
X83510000Y-110219000D02*
X84035000Y-110744000D01*
X83510000Y-108947500D02*
X83510000Y-110219000D01*
%TO.N,GND*%
X82485000Y-110744000D02*
X83010000Y-110219000D01*
X146525500Y-107500000D02*
X148869500Y-105156000D01*
X144800000Y-107500000D02*
X146525500Y-107500000D01*
X83010000Y-110219000D02*
X83010000Y-108947500D01*
%TO.N,~{RESET}*%
X79000000Y-114000000D02*
X79000000Y-111425000D01*
%TO.N,Dat0*%
X58500000Y-101760000D02*
X64760000Y-101760000D01*
X64760000Y-101760000D02*
X69000000Y-106000000D01*
%TO.N,SDA*%
X77164000Y-104025000D02*
X78117000Y-104025000D01*
X82010000Y-105072500D02*
X82010000Y-104490000D01*
X66822000Y-99822000D02*
X69000000Y-102000000D01*
X81545000Y-104025000D02*
X78117000Y-104025000D01*
X59082000Y-99822000D02*
X66822000Y-99822000D01*
X82010000Y-104490000D02*
X81545000Y-104025000D01*
X58500000Y-99240000D02*
X59082000Y-99822000D01*
%TO.N,SCL*%
X58500000Y-100760000D02*
X58988000Y-100272000D01*
X74624000Y-104025000D02*
X75640000Y-104025000D01*
X82510000Y-105072500D02*
X82510000Y-104353604D01*
X75640000Y-103708000D02*
X75640000Y-104025000D01*
X65272000Y-100272000D02*
X69000000Y-104000000D01*
X58988000Y-100272000D02*
X65272000Y-100272000D01*
X82510000Y-104353604D02*
X81356396Y-103200000D01*
X76148000Y-103200000D02*
X75640000Y-103708000D01*
X81356396Y-103200000D02*
X76148000Y-103200000D01*
%TO.N,/PA0*%
X79692000Y-107760000D02*
X78994000Y-108458000D01*
X81322500Y-107760000D02*
X77239000Y-107760000D01*
X81322500Y-107760000D02*
X79692000Y-107760000D01*
X78994000Y-108458000D02*
X78994000Y-109769000D01*
X78994000Y-109769000D02*
X79000000Y-109775000D01*
X77239000Y-107760000D02*
X77227000Y-107772000D01*
%TO.N,PA4*%
X85344000Y-109734193D02*
X84336185Y-109734193D01*
X84336185Y-109734193D02*
X84010000Y-109408008D01*
X84010000Y-109408008D02*
X84010000Y-108947500D01*
%TO.N,PA5*%
X85757500Y-108947500D02*
X84510000Y-108947500D01*
X85852000Y-109042000D02*
X85757500Y-108947500D01*
%TO.N,PA6*%
X86416000Y-108260000D02*
X85197500Y-108260000D01*
X86614000Y-108458000D02*
X86416000Y-108260000D01*
%TO.N,PA7*%
X86932000Y-107760000D02*
X85197500Y-107760000D01*
X87122000Y-107950000D02*
X86932000Y-107760000D01*
%TO.N,PB2*%
X84614000Y-104140000D02*
X84582000Y-104108000D01*
X84582000Y-104108000D02*
X84384000Y-104108000D01*
X84010000Y-104482000D02*
X84010000Y-105072500D01*
X94860000Y-104140000D02*
X84614000Y-104140000D01*
X84384000Y-104108000D02*
X84010000Y-104482000D01*
X95000000Y-104000000D02*
X94860000Y-104140000D01*
%TO.N,PB3*%
X95000000Y-106000000D02*
X94072500Y-105072500D01*
X94072500Y-105072500D02*
X84510000Y-105072500D01*
%TO.N,PA1*%
X80353000Y-108260000D02*
X81322500Y-108260000D01*
X80278500Y-108334500D02*
X80353000Y-108260000D01*
X87122000Y-93218000D02*
X91097000Y-93218000D01*
X91097000Y-93218000D02*
X91253000Y-93062000D01*
%TO.N,PA2*%
X80806212Y-108947500D02*
X82010000Y-108947500D01*
%TO.N,PA3*%
X82150951Y-109767057D02*
X82510000Y-109408008D01*
X81280000Y-109767057D02*
X82150951Y-109767057D01*
X82510000Y-109408008D02*
X82510000Y-108947500D01*
%TO.N,PB0*%
X83010000Y-104209208D02*
X83010000Y-105072500D01*
X84011208Y-103208000D02*
X83010000Y-104209208D01*
X95000000Y-100000000D02*
X91792000Y-103208000D01*
X91792000Y-103208000D02*
X84011208Y-103208000D01*
%TO.N,PB1*%
X84197604Y-103658000D02*
X83510000Y-104345604D01*
X93342000Y-103658000D02*
X84197604Y-103658000D01*
X95000000Y-102000000D02*
X93342000Y-103658000D01*
X83510000Y-104345604D02*
X83510000Y-105072500D01*
%TO.N,PB4*%
X92760000Y-105760000D02*
X85197500Y-105760000D01*
X95000000Y-108000000D02*
X92760000Y-105760000D01*
%TO.N,PB5*%
X95000000Y-110000000D02*
X91260000Y-106260000D01*
X91260000Y-106260000D02*
X85197500Y-106260000D01*
%TO.N,PB6*%
X95000000Y-112000000D02*
X92719000Y-109719000D01*
X85197500Y-106760000D02*
X89760000Y-106760000D01*
X89760000Y-106760000D02*
X92719000Y-109719000D01*
%TO.N,PB7*%
X88260000Y-107260000D02*
X95000000Y-114000000D01*
X85197500Y-107260000D02*
X88260000Y-107260000D01*
%TO.N,PC2*%
X80740000Y-105760000D02*
X80466000Y-105486000D01*
X81322500Y-105760000D02*
X80740000Y-105760000D01*
X80466000Y-105486000D02*
X78490972Y-105486000D01*
X78490972Y-105486000D02*
X78368658Y-105608314D01*
%TO.N,PC3*%
X78679577Y-106110568D02*
X78679577Y-106234919D01*
X78738145Y-106052000D02*
X78679577Y-106110568D01*
X81322500Y-106260000D02*
X80352396Y-106260000D01*
X80352396Y-106260000D02*
X80144396Y-106052000D01*
X80144396Y-106052000D02*
X78738145Y-106052000D01*
%TO.N,PC4*%
X81322500Y-106760000D02*
X80091673Y-106760000D01*
X79958000Y-106502000D02*
X79401704Y-106502000D01*
X80091673Y-106760000D02*
X79958000Y-106626327D01*
X79401704Y-106502000D02*
X79169830Y-106733874D01*
X79958000Y-106626327D02*
X79958000Y-106502000D01*
%TO.N,PC5*%
X79778500Y-107260000D02*
X79704000Y-107185500D01*
X81322500Y-107260000D02*
X79778500Y-107260000D01*
%TO.N,Vout*%
X86614000Y-89812500D02*
X85598000Y-89812500D01*
X86576500Y-89511500D02*
X86614000Y-89474000D01*
X84582000Y-89511500D02*
X86576500Y-89511500D01*
%TO.N,/Feedback*%
X84607500Y-91362000D02*
X91253000Y-91362000D01*
X84582000Y-91336500D02*
X84582000Y-93067500D01*
X84582000Y-91336500D02*
X84607500Y-91362000D01*
%TO.N,Net-(D3-Pad2)*%
X145859000Y-105156000D02*
X147294500Y-105156000D01*
%TD*%
%TA.AperFunction,Conductor*%
%TO.N,GND*%
G36*
X108458000Y-116332000D02*
G01*
X97028000Y-116332000D01*
X97028000Y-106408292D01*
X102162001Y-106408292D01*
X102162370Y-106415110D01*
X102167841Y-106465482D01*
X102171470Y-106480741D01*
X102216222Y-106600118D01*
X102224754Y-106615704D01*
X102300572Y-106716867D01*
X102313133Y-106729428D01*
X102414296Y-106805246D01*
X102429882Y-106813778D01*
X102549265Y-106858533D01*
X102564510Y-106862158D01*
X102614892Y-106867631D01*
X102621706Y-106868000D01*
X104343885Y-106868000D01*
X104359124Y-106863525D01*
X104360329Y-106862135D01*
X104362000Y-106854452D01*
X104362000Y-106849884D01*
X104870000Y-106849884D01*
X104874475Y-106865123D01*
X104875865Y-106866328D01*
X104883548Y-106867999D01*
X106610292Y-106867999D01*
X106617110Y-106867630D01*
X106667482Y-106862159D01*
X106682741Y-106858530D01*
X106802118Y-106813778D01*
X106817704Y-106805246D01*
X106918867Y-106729428D01*
X106931428Y-106716867D01*
X107007246Y-106615704D01*
X107015778Y-106600118D01*
X107060533Y-106480735D01*
X107064158Y-106465490D01*
X107069631Y-106415108D01*
X107070000Y-106408294D01*
X107070000Y-105936115D01*
X107065525Y-105920876D01*
X107064135Y-105919671D01*
X107056452Y-105918000D01*
X104888115Y-105918000D01*
X104872876Y-105922475D01*
X104871671Y-105923865D01*
X104870000Y-105931548D01*
X104870000Y-106849884D01*
X104362000Y-106849884D01*
X104362000Y-105936115D01*
X104357525Y-105920876D01*
X104356135Y-105919671D01*
X104348452Y-105918000D01*
X102180116Y-105918000D01*
X102164877Y-105922475D01*
X102163672Y-105923865D01*
X102162001Y-105931548D01*
X102162001Y-106408292D01*
X97028000Y-106408292D01*
X97028000Y-105391885D01*
X102162000Y-105391885D01*
X102166475Y-105407124D01*
X102167865Y-105408329D01*
X102175548Y-105410000D01*
X104343885Y-105410000D01*
X104359124Y-105405525D01*
X104360329Y-105404135D01*
X104362000Y-105396452D01*
X104362000Y-105391885D01*
X104870000Y-105391885D01*
X104874475Y-105407124D01*
X104875865Y-105408329D01*
X104883548Y-105410000D01*
X107051884Y-105410000D01*
X107067123Y-105405525D01*
X107068328Y-105404135D01*
X107069999Y-105396452D01*
X107069999Y-104919708D01*
X107069630Y-104912890D01*
X107064159Y-104862518D01*
X107060530Y-104847259D01*
X107015778Y-104727882D01*
X107007246Y-104712296D01*
X106931428Y-104611133D01*
X106918867Y-104598572D01*
X106817704Y-104522754D01*
X106802118Y-104514222D01*
X106682735Y-104469467D01*
X106667490Y-104465842D01*
X106617108Y-104460369D01*
X106610294Y-104460000D01*
X104888115Y-104460000D01*
X104872876Y-104464475D01*
X104871671Y-104465865D01*
X104870000Y-104473548D01*
X104870000Y-105391885D01*
X104362000Y-105391885D01*
X104362000Y-104478116D01*
X104357525Y-104462877D01*
X104356135Y-104461672D01*
X104348452Y-104460001D01*
X102621708Y-104460001D01*
X102614890Y-104460370D01*
X102564518Y-104465841D01*
X102549259Y-104469470D01*
X102429882Y-104514222D01*
X102414296Y-104522754D01*
X102313133Y-104598572D01*
X102300572Y-104611133D01*
X102224754Y-104712296D01*
X102216222Y-104727882D01*
X102171467Y-104847265D01*
X102167842Y-104862510D01*
X102162369Y-104912892D01*
X102162000Y-104919706D01*
X102162000Y-105391885D01*
X97028000Y-105391885D01*
X97028000Y-97028000D01*
X108458000Y-97028000D01*
X108458000Y-116332000D01*
G37*
%TD.AperFunction*%
%TD*%
%TA.AperFunction,Conductor*%
%TO.N,Vsrc*%
G36*
X62987899Y-89237360D02*
G01*
X63164132Y-89254682D01*
X63188311Y-89259482D01*
X63351850Y-89308985D01*
X63374626Y-89318398D01*
X63525409Y-89398800D01*
X63545912Y-89412464D01*
X63678164Y-89520693D01*
X63695604Y-89538078D01*
X63804248Y-89669980D01*
X63817979Y-89690443D01*
X63898856Y-89840962D01*
X63908344Y-89863713D01*
X63958368Y-90027099D01*
X63963243Y-90051259D01*
X63967493Y-90093124D01*
X63981126Y-90227438D01*
X63981769Y-90239755D01*
X63982886Y-90591338D01*
X64000086Y-96005592D01*
X63999518Y-96017957D01*
X63982649Y-96194793D01*
X63977898Y-96219053D01*
X63928609Y-96383224D01*
X63919214Y-96406083D01*
X63838813Y-96557463D01*
X63825128Y-96578056D01*
X63756276Y-96662370D01*
X63716714Y-96710815D01*
X63699272Y-96728338D01*
X63675378Y-96748036D01*
X63567016Y-96837368D01*
X63546486Y-96851148D01*
X63395487Y-96932247D01*
X63372660Y-96941753D01*
X63208730Y-96991801D01*
X63184486Y-96996666D01*
X63007740Y-97014354D01*
X62995377Y-97014980D01*
X56686398Y-97024216D01*
X51007656Y-97032529D01*
X50995296Y-97031939D01*
X50818526Y-97014773D01*
X50794279Y-97009983D01*
X50630222Y-96960430D01*
X50607371Y-96950994D01*
X50583238Y-96938126D01*
X50456146Y-96870359D01*
X50435589Y-96856650D01*
X50303018Y-96748034D01*
X50285539Y-96730583D01*
X50283165Y-96727695D01*
X50255359Y-96662370D01*
X50254500Y-96647683D01*
X50254500Y-94683357D01*
X60681473Y-94683357D01*
X60684256Y-94687075D01*
X60809835Y-94733777D01*
X60823421Y-94737164D01*
X60977128Y-94757674D01*
X60991124Y-94757967D01*
X61145550Y-94743912D01*
X61159276Y-94741095D01*
X61306752Y-94693177D01*
X61311688Y-94690938D01*
X61318969Y-94683086D01*
X61315464Y-94674674D01*
X61012812Y-94372022D01*
X60998868Y-94364408D01*
X60997035Y-94364539D01*
X60990420Y-94368790D01*
X60688233Y-94670977D01*
X60681473Y-94683357D01*
X50254500Y-94683357D01*
X50254500Y-93996418D01*
X60241991Y-93996418D01*
X60257123Y-94150748D01*
X60260034Y-94164442D01*
X60308980Y-94311581D01*
X60309687Y-94313110D01*
X60316497Y-94319336D01*
X60325117Y-94315673D01*
X60627978Y-94012812D01*
X60634356Y-94001132D01*
X61364408Y-94001132D01*
X61364539Y-94002965D01*
X61368790Y-94009580D01*
X61670635Y-94311425D01*
X61683015Y-94318185D01*
X61686831Y-94315328D01*
X61732431Y-94195285D01*
X61735913Y-94181724D01*
X61757924Y-94025109D01*
X61758530Y-94017225D01*
X61758716Y-94003962D01*
X61758329Y-93996062D01*
X61740700Y-93838891D01*
X61737599Y-93825245D01*
X61690960Y-93691317D01*
X61682757Y-93679844D01*
X61678749Y-93680625D01*
X61678139Y-93681071D01*
X61372022Y-93987188D01*
X61364408Y-94001132D01*
X60634356Y-94001132D01*
X60635592Y-93998868D01*
X60635461Y-93997035D01*
X60631210Y-93990420D01*
X60328650Y-93687860D01*
X60316270Y-93681100D01*
X60312648Y-93683811D01*
X60264913Y-93814962D01*
X60261621Y-93828570D01*
X60242187Y-93982412D01*
X60241991Y-93996418D01*
X50254500Y-93996418D01*
X50254500Y-93316055D01*
X60680269Y-93316055D01*
X60684089Y-93324879D01*
X60987188Y-93627978D01*
X61001132Y-93635592D01*
X61002965Y-93635461D01*
X61009580Y-93631210D01*
X61312544Y-93328246D01*
X61319304Y-93315866D01*
X61316719Y-93312412D01*
X61316419Y-93312252D01*
X61179902Y-93263640D01*
X61166275Y-93260443D01*
X61012289Y-93242081D01*
X60998293Y-93241983D01*
X60844065Y-93258193D01*
X60830401Y-93261198D01*
X60685148Y-93310646D01*
X60680269Y-93316055D01*
X50254500Y-93316055D01*
X50254500Y-91997476D01*
X50256921Y-91972894D01*
X50257065Y-91972170D01*
X50259486Y-91960000D01*
X50257065Y-91947830D01*
X50257065Y-91940144D01*
X50257672Y-91927793D01*
X50267609Y-91826908D01*
X50272425Y-91802691D01*
X50307649Y-91686574D01*
X50317093Y-91663774D01*
X50374292Y-91556761D01*
X50388011Y-91536230D01*
X50464981Y-91442444D01*
X50482444Y-91424981D01*
X50576230Y-91348011D01*
X50596761Y-91334292D01*
X50703774Y-91277093D01*
X50726574Y-91267649D01*
X50842691Y-91232425D01*
X50866908Y-91227609D01*
X50967793Y-91217672D01*
X50980144Y-91217065D01*
X50987830Y-91217065D01*
X51000000Y-91219486D01*
X51012897Y-91216921D01*
X51037476Y-91214500D01*
X58106524Y-91214500D01*
X58131103Y-91216921D01*
X58144000Y-91219486D01*
X58153209Y-91217654D01*
X58340854Y-91202886D01*
X58345661Y-91201732D01*
X58345667Y-91201731D01*
X58466853Y-91172637D01*
X58532860Y-91156790D01*
X58626971Y-91117808D01*
X58710718Y-91083119D01*
X58710722Y-91083117D01*
X58715292Y-91081224D01*
X58883657Y-90978050D01*
X58887412Y-90974843D01*
X58887416Y-90974840D01*
X58900309Y-90963828D01*
X61057001Y-90963828D01*
X61058209Y-90976088D01*
X61069315Y-91031931D01*
X61078633Y-91054427D01*
X61120983Y-91117808D01*
X61138192Y-91135017D01*
X61201575Y-91177368D01*
X61224066Y-91186684D01*
X61279915Y-91197793D01*
X61292170Y-91199000D01*
X61903885Y-91199000D01*
X61919124Y-91194525D01*
X61920329Y-91193135D01*
X61922000Y-91185452D01*
X61922000Y-91180884D01*
X62430000Y-91180884D01*
X62434475Y-91196123D01*
X62435865Y-91197328D01*
X62443548Y-91198999D01*
X63059828Y-91198999D01*
X63072088Y-91197791D01*
X63127931Y-91186685D01*
X63150427Y-91177367D01*
X63213808Y-91135017D01*
X63231017Y-91117808D01*
X63273368Y-91054425D01*
X63282684Y-91031934D01*
X63293793Y-90976085D01*
X63295000Y-90963830D01*
X63295000Y-90622115D01*
X63290525Y-90606876D01*
X63289135Y-90605671D01*
X63281452Y-90604000D01*
X62448115Y-90604000D01*
X62432876Y-90608475D01*
X62431671Y-90609865D01*
X62430000Y-90617548D01*
X62430000Y-91180884D01*
X61922000Y-91180884D01*
X61922000Y-90622115D01*
X61917525Y-90606876D01*
X61916135Y-90605671D01*
X61908452Y-90604000D01*
X61075116Y-90604000D01*
X61059877Y-90608475D01*
X61058672Y-90609865D01*
X61057001Y-90617548D01*
X61057001Y-90963828D01*
X58900309Y-90963828D01*
X59030052Y-90853016D01*
X59033808Y-90849808D01*
X59043230Y-90838776D01*
X59158840Y-90703416D01*
X59158843Y-90703412D01*
X59162050Y-90699657D01*
X59265224Y-90531292D01*
X59340790Y-90348860D01*
X59365655Y-90245290D01*
X59385731Y-90161667D01*
X59385732Y-90161661D01*
X59386886Y-90156854D01*
X59393101Y-90077885D01*
X61057000Y-90077885D01*
X61061475Y-90093124D01*
X61062865Y-90094329D01*
X61070548Y-90096000D01*
X61903885Y-90096000D01*
X61919124Y-90091525D01*
X61920329Y-90090135D01*
X61922000Y-90082452D01*
X61922000Y-90077885D01*
X62430000Y-90077885D01*
X62434475Y-90093124D01*
X62435865Y-90094329D01*
X62443548Y-90096000D01*
X63276884Y-90096000D01*
X63292123Y-90091525D01*
X63293328Y-90090135D01*
X63294999Y-90082452D01*
X63294999Y-89736172D01*
X63293791Y-89723912D01*
X63282685Y-89668069D01*
X63273367Y-89645573D01*
X63231017Y-89582192D01*
X63213808Y-89564983D01*
X63150425Y-89522632D01*
X63127934Y-89513316D01*
X63072085Y-89502207D01*
X63059830Y-89501000D01*
X62448115Y-89501000D01*
X62432876Y-89505475D01*
X62431671Y-89506865D01*
X62430000Y-89514548D01*
X62430000Y-90077885D01*
X61922000Y-90077885D01*
X61922000Y-89519116D01*
X61917525Y-89503877D01*
X61916135Y-89502672D01*
X61908452Y-89501001D01*
X61292172Y-89501001D01*
X61279912Y-89502209D01*
X61224069Y-89513315D01*
X61201573Y-89522633D01*
X61138192Y-89564983D01*
X61120983Y-89582192D01*
X61078632Y-89645575D01*
X61069316Y-89668066D01*
X61058207Y-89723915D01*
X61057000Y-89736170D01*
X61057000Y-90077885D01*
X59393101Y-90077885D01*
X59401654Y-89969209D01*
X59403486Y-89960000D01*
X59400921Y-89947103D01*
X59398500Y-89922524D01*
X59398500Y-89362756D01*
X59418502Y-89294635D01*
X59472158Y-89248142D01*
X59524500Y-89236756D01*
X62975574Y-89236756D01*
X62987899Y-89237360D01*
G37*
%TD.AperFunction*%
%TD*%
%TA.AperFunction,Conductor*%
%TO.N,I2C-Vcc*%
G36*
X59652000Y-99442500D02*
G01*
X59291384Y-99442500D01*
X59223263Y-99422498D01*
X59202289Y-99405595D01*
X59092954Y-99296260D01*
X59058928Y-99233948D01*
X59057127Y-99223611D01*
X59041306Y-99103432D01*
X59041305Y-99103430D01*
X59040228Y-99095246D01*
X58984355Y-98960358D01*
X58895474Y-98844526D01*
X58888924Y-98839500D01*
X58888921Y-98839497D01*
X58786196Y-98760673D01*
X58786194Y-98760672D01*
X58779643Y-98755645D01*
X58644754Y-98699772D01*
X58500000Y-98680715D01*
X58491812Y-98681793D01*
X58363432Y-98698694D01*
X58363430Y-98698695D01*
X58355246Y-98699772D01*
X58316327Y-98715893D01*
X58227986Y-98752485D01*
X58227984Y-98752486D01*
X58220358Y-98755645D01*
X58104526Y-98844526D01*
X58015645Y-98960358D01*
X57959772Y-99095246D01*
X57940715Y-99240000D01*
X57941793Y-99248188D01*
X57955138Y-99349554D01*
X57944199Y-99419703D01*
X57897071Y-99472801D01*
X57830216Y-99492000D01*
X51531079Y-99492000D01*
X51516971Y-99491208D01*
X51368543Y-99474484D01*
X51341037Y-99468206D01*
X51206784Y-99421228D01*
X51181365Y-99408987D01*
X51060918Y-99333306D01*
X51038858Y-99315713D01*
X50938287Y-99215142D01*
X50920694Y-99193082D01*
X50845013Y-99072635D01*
X50832772Y-99047216D01*
X50805048Y-98967986D01*
X50785794Y-98912963D01*
X50779516Y-98885456D01*
X50763590Y-98744107D01*
X50763590Y-98715893D01*
X50779516Y-98574544D01*
X50785795Y-98547035D01*
X50832772Y-98412784D01*
X50845013Y-98387365D01*
X50920694Y-98266918D01*
X50938287Y-98244858D01*
X51038858Y-98144287D01*
X51060918Y-98126694D01*
X51181365Y-98051013D01*
X51206784Y-98038772D01*
X51341037Y-97991794D01*
X51368543Y-97985516D01*
X51516971Y-97968792D01*
X51531079Y-97968000D01*
X59652000Y-97968000D01*
X59652000Y-99442500D01*
G37*
%TD.AperFunction*%
%TD*%
%TA.AperFunction,Conductor*%
%TO.N,I2C-Vcc*%
G36*
X95272163Y-97536607D02*
G01*
X95448740Y-97553999D01*
X95472957Y-97558815D01*
X95636809Y-97608518D01*
X95659629Y-97617971D01*
X95810631Y-97698683D01*
X95831158Y-97712399D01*
X95963521Y-97821026D01*
X95980974Y-97838479D01*
X96089601Y-97970842D01*
X96103319Y-97991372D01*
X96184029Y-98142371D01*
X96193482Y-98165190D01*
X96243185Y-98329043D01*
X96248002Y-98353263D01*
X96265393Y-98529837D01*
X96266000Y-98542187D01*
X96266000Y-115071813D01*
X96265393Y-115084163D01*
X96248002Y-115260737D01*
X96243185Y-115284957D01*
X96193482Y-115448809D01*
X96184029Y-115471629D01*
X96103319Y-115622628D01*
X96089601Y-115643158D01*
X95980974Y-115775521D01*
X95963521Y-115792974D01*
X95831158Y-115901601D01*
X95810631Y-115915317D01*
X95718417Y-115964607D01*
X95659629Y-115996029D01*
X95636810Y-116005482D01*
X95472957Y-116055185D01*
X95448740Y-116060001D01*
X95272315Y-116077378D01*
X95272163Y-116077393D01*
X95259813Y-116078000D01*
X77388063Y-116078000D01*
X77375565Y-116077378D01*
X77331616Y-116072997D01*
X77196879Y-116059564D01*
X77172373Y-116054629D01*
X77061819Y-116020662D01*
X77006732Y-116003736D01*
X76983683Y-115994060D01*
X76831349Y-115911466D01*
X76810664Y-115897430D01*
X76672803Y-115782355D01*
X76663609Y-115773871D01*
X76525956Y-115633570D01*
X75593672Y-114683357D01*
X76681473Y-114683357D01*
X76684256Y-114687075D01*
X76809835Y-114733777D01*
X76823421Y-114737164D01*
X76977128Y-114757674D01*
X76991124Y-114757967D01*
X77145550Y-114743912D01*
X77159276Y-114741095D01*
X77306752Y-114693177D01*
X77311688Y-114690938D01*
X77318969Y-114683086D01*
X77315464Y-114674674D01*
X77012812Y-114372022D01*
X76998868Y-114364408D01*
X76997035Y-114364539D01*
X76990420Y-114368790D01*
X76688233Y-114670977D01*
X76681473Y-114683357D01*
X75593672Y-114683357D01*
X74919694Y-113996418D01*
X76241991Y-113996418D01*
X76257123Y-114150748D01*
X76260034Y-114164442D01*
X76308980Y-114311581D01*
X76309687Y-114313110D01*
X76316497Y-114319336D01*
X76325117Y-114315673D01*
X76627978Y-114012812D01*
X76634356Y-114001132D01*
X77364408Y-114001132D01*
X77364539Y-114002965D01*
X77368790Y-114009580D01*
X77670635Y-114311425D01*
X77683015Y-114318185D01*
X77686831Y-114315328D01*
X77732431Y-114195285D01*
X77735913Y-114181724D01*
X77757924Y-114025109D01*
X77758530Y-114017225D01*
X77758716Y-114003962D01*
X77758329Y-113996062D01*
X77757582Y-113989399D01*
X78240800Y-113989399D01*
X78257318Y-114157862D01*
X78310748Y-114318479D01*
X78314397Y-114324504D01*
X78341218Y-114368790D01*
X78398435Y-114463267D01*
X78403326Y-114468332D01*
X78403327Y-114468333D01*
X78427062Y-114492911D01*
X78516021Y-114585031D01*
X78657660Y-114677717D01*
X78816315Y-114736720D01*
X78823296Y-114737651D01*
X78823298Y-114737652D01*
X78977118Y-114758176D01*
X78977122Y-114758176D01*
X78984099Y-114759107D01*
X78991110Y-114758469D01*
X78991114Y-114758469D01*
X79145652Y-114744405D01*
X79152673Y-114743766D01*
X79313659Y-114691458D01*
X79459056Y-114604784D01*
X79581638Y-114488052D01*
X79585539Y-114482181D01*
X79671410Y-114352935D01*
X79671411Y-114352933D01*
X79675311Y-114347063D01*
X79735420Y-114188824D01*
X79758978Y-114021200D01*
X79759274Y-114000000D01*
X79758085Y-113989399D01*
X80240800Y-113989399D01*
X80257318Y-114157862D01*
X80310748Y-114318479D01*
X80314397Y-114324504D01*
X80341218Y-114368790D01*
X80398435Y-114463267D01*
X80403326Y-114468332D01*
X80403327Y-114468333D01*
X80427062Y-114492911D01*
X80516021Y-114585031D01*
X80657660Y-114677717D01*
X80816315Y-114736720D01*
X80823296Y-114737651D01*
X80823298Y-114737652D01*
X80977118Y-114758176D01*
X80977122Y-114758176D01*
X80984099Y-114759107D01*
X80991110Y-114758469D01*
X80991114Y-114758469D01*
X81145652Y-114744405D01*
X81152673Y-114743766D01*
X81313659Y-114691458D01*
X81459056Y-114604784D01*
X81581638Y-114488052D01*
X81585539Y-114482181D01*
X81671410Y-114352935D01*
X81671411Y-114352933D01*
X81675311Y-114347063D01*
X81735420Y-114188824D01*
X81758978Y-114021200D01*
X81759274Y-114000000D01*
X81758085Y-113989399D01*
X84240800Y-113989399D01*
X84257318Y-114157862D01*
X84310748Y-114318479D01*
X84314397Y-114324504D01*
X84341218Y-114368790D01*
X84398435Y-114463267D01*
X84403326Y-114468332D01*
X84403327Y-114468333D01*
X84427062Y-114492911D01*
X84516021Y-114585031D01*
X84657660Y-114677717D01*
X84816315Y-114736720D01*
X84823296Y-114737651D01*
X84823298Y-114737652D01*
X84977118Y-114758176D01*
X84977122Y-114758176D01*
X84984099Y-114759107D01*
X84991110Y-114758469D01*
X84991114Y-114758469D01*
X85145652Y-114744405D01*
X85152673Y-114743766D01*
X85313659Y-114691458D01*
X85459056Y-114604784D01*
X85581638Y-114488052D01*
X85585539Y-114482181D01*
X85671410Y-114352935D01*
X85671411Y-114352933D01*
X85675311Y-114347063D01*
X85735420Y-114188824D01*
X85758978Y-114021200D01*
X85759274Y-114000000D01*
X85758085Y-113989399D01*
X86240800Y-113989399D01*
X86257318Y-114157862D01*
X86310748Y-114318479D01*
X86314397Y-114324504D01*
X86341218Y-114368790D01*
X86398435Y-114463267D01*
X86403326Y-114468332D01*
X86403327Y-114468333D01*
X86427062Y-114492911D01*
X86516021Y-114585031D01*
X86657660Y-114677717D01*
X86816315Y-114736720D01*
X86823296Y-114737651D01*
X86823298Y-114737652D01*
X86977118Y-114758176D01*
X86977122Y-114758176D01*
X86984099Y-114759107D01*
X86991110Y-114758469D01*
X86991114Y-114758469D01*
X87145652Y-114744405D01*
X87152673Y-114743766D01*
X87313659Y-114691458D01*
X87459056Y-114604784D01*
X87581638Y-114488052D01*
X87585539Y-114482181D01*
X87671410Y-114352935D01*
X87671411Y-114352933D01*
X87675311Y-114347063D01*
X87735420Y-114188824D01*
X87758978Y-114021200D01*
X87759274Y-114000000D01*
X87758085Y-113989399D01*
X88240800Y-113989399D01*
X88257318Y-114157862D01*
X88310748Y-114318479D01*
X88314397Y-114324504D01*
X88341218Y-114368790D01*
X88398435Y-114463267D01*
X88403326Y-114468332D01*
X88403327Y-114468333D01*
X88427062Y-114492911D01*
X88516021Y-114585031D01*
X88657660Y-114677717D01*
X88816315Y-114736720D01*
X88823296Y-114737651D01*
X88823298Y-114737652D01*
X88977118Y-114758176D01*
X88977122Y-114758176D01*
X88984099Y-114759107D01*
X88991110Y-114758469D01*
X88991114Y-114758469D01*
X89145652Y-114744405D01*
X89152673Y-114743766D01*
X89313659Y-114691458D01*
X89459056Y-114604784D01*
X89581638Y-114488052D01*
X89585539Y-114482181D01*
X89671410Y-114352935D01*
X89671411Y-114352933D01*
X89675311Y-114347063D01*
X89735420Y-114188824D01*
X89758978Y-114021200D01*
X89759274Y-114000000D01*
X89758085Y-113989399D01*
X90240800Y-113989399D01*
X90257318Y-114157862D01*
X90310748Y-114318479D01*
X90314397Y-114324504D01*
X90341218Y-114368790D01*
X90398435Y-114463267D01*
X90403326Y-114468332D01*
X90403327Y-114468333D01*
X90427062Y-114492911D01*
X90516021Y-114585031D01*
X90657660Y-114677717D01*
X90816315Y-114736720D01*
X90823296Y-114737651D01*
X90823298Y-114737652D01*
X90977118Y-114758176D01*
X90977122Y-114758176D01*
X90984099Y-114759107D01*
X90991110Y-114758469D01*
X90991114Y-114758469D01*
X91145652Y-114744405D01*
X91152673Y-114743766D01*
X91313659Y-114691458D01*
X91459056Y-114604784D01*
X91581638Y-114488052D01*
X91585539Y-114482181D01*
X91671410Y-114352935D01*
X91671411Y-114352933D01*
X91675311Y-114347063D01*
X91735420Y-114188824D01*
X91758978Y-114021200D01*
X91759274Y-114000000D01*
X91752078Y-113935842D01*
X91741191Y-113838780D01*
X91741190Y-113838777D01*
X91740406Y-113831784D01*
X91684738Y-113671929D01*
X91595038Y-113528379D01*
X91475764Y-113408269D01*
X91459574Y-113397994D01*
X91421245Y-113373670D01*
X91332844Y-113317569D01*
X91305442Y-113307812D01*
X91180016Y-113263149D01*
X91180011Y-113263148D01*
X91173381Y-113260787D01*
X91166395Y-113259954D01*
X91166391Y-113259953D01*
X91047287Y-113245751D01*
X91005301Y-113240745D01*
X90998298Y-113241481D01*
X90998297Y-113241481D01*
X90843965Y-113257701D01*
X90843961Y-113257702D01*
X90836957Y-113258438D01*
X90830286Y-113260709D01*
X90683387Y-113310717D01*
X90683384Y-113310718D01*
X90676717Y-113312988D01*
X90670719Y-113316678D01*
X90670717Y-113316679D01*
X90538543Y-113397993D01*
X90538542Y-113397994D01*
X90532544Y-113401684D01*
X90411605Y-113520117D01*
X90319909Y-113662400D01*
X90309384Y-113691317D01*
X90264425Y-113814840D01*
X90264424Y-113814845D01*
X90262015Y-113821463D01*
X90240800Y-113989399D01*
X89758085Y-113989399D01*
X89752078Y-113935842D01*
X89741191Y-113838780D01*
X89741190Y-113838777D01*
X89740406Y-113831784D01*
X89684738Y-113671929D01*
X89595038Y-113528379D01*
X89475764Y-113408269D01*
X89459574Y-113397994D01*
X89421245Y-113373670D01*
X89332844Y-113317569D01*
X89305442Y-113307812D01*
X89180016Y-113263149D01*
X89180011Y-113263148D01*
X89173381Y-113260787D01*
X89166395Y-113259954D01*
X89166391Y-113259953D01*
X89047287Y-113245751D01*
X89005301Y-113240745D01*
X88998298Y-113241481D01*
X88998297Y-113241481D01*
X88843965Y-113257701D01*
X88843961Y-113257702D01*
X88836957Y-113258438D01*
X88830286Y-113260709D01*
X88683387Y-113310717D01*
X88683384Y-113310718D01*
X88676717Y-113312988D01*
X88670719Y-113316678D01*
X88670717Y-113316679D01*
X88538543Y-113397993D01*
X88538542Y-113397994D01*
X88532544Y-113401684D01*
X88411605Y-113520117D01*
X88319909Y-113662400D01*
X88309384Y-113691317D01*
X88264425Y-113814840D01*
X88264424Y-113814845D01*
X88262015Y-113821463D01*
X88240800Y-113989399D01*
X87758085Y-113989399D01*
X87752078Y-113935842D01*
X87741191Y-113838780D01*
X87741190Y-113838777D01*
X87740406Y-113831784D01*
X87684738Y-113671929D01*
X87595038Y-113528379D01*
X87475764Y-113408269D01*
X87459574Y-113397994D01*
X87421245Y-113373670D01*
X87332844Y-113317569D01*
X87305442Y-113307812D01*
X87180016Y-113263149D01*
X87180011Y-113263148D01*
X87173381Y-113260787D01*
X87166395Y-113259954D01*
X87166391Y-113259953D01*
X87047287Y-113245751D01*
X87005301Y-113240745D01*
X86998298Y-113241481D01*
X86998297Y-113241481D01*
X86843965Y-113257701D01*
X86843961Y-113257702D01*
X86836957Y-113258438D01*
X86830286Y-113260709D01*
X86683387Y-113310717D01*
X86683384Y-113310718D01*
X86676717Y-113312988D01*
X86670719Y-113316678D01*
X86670717Y-113316679D01*
X86538543Y-113397993D01*
X86538542Y-113397994D01*
X86532544Y-113401684D01*
X86411605Y-113520117D01*
X86319909Y-113662400D01*
X86309384Y-113691317D01*
X86264425Y-113814840D01*
X86264424Y-113814845D01*
X86262015Y-113821463D01*
X86240800Y-113989399D01*
X85758085Y-113989399D01*
X85752078Y-113935842D01*
X85741191Y-113838780D01*
X85741190Y-113838777D01*
X85740406Y-113831784D01*
X85684738Y-113671929D01*
X85595038Y-113528379D01*
X85475764Y-113408269D01*
X85459574Y-113397994D01*
X85421245Y-113373670D01*
X85332844Y-113317569D01*
X85305442Y-113307812D01*
X85180016Y-113263149D01*
X85180011Y-113263148D01*
X85173381Y-113260787D01*
X85166395Y-113259954D01*
X85166391Y-113259953D01*
X85047287Y-113245751D01*
X85005301Y-113240745D01*
X84998298Y-113241481D01*
X84998297Y-113241481D01*
X84843965Y-113257701D01*
X84843961Y-113257702D01*
X84836957Y-113258438D01*
X84830286Y-113260709D01*
X84683387Y-113310717D01*
X84683384Y-113310718D01*
X84676717Y-113312988D01*
X84670719Y-113316678D01*
X84670717Y-113316679D01*
X84538543Y-113397993D01*
X84538542Y-113397994D01*
X84532544Y-113401684D01*
X84411605Y-113520117D01*
X84319909Y-113662400D01*
X84309384Y-113691317D01*
X84264425Y-113814840D01*
X84264424Y-113814845D01*
X84262015Y-113821463D01*
X84240800Y-113989399D01*
X81758085Y-113989399D01*
X81752078Y-113935842D01*
X81741191Y-113838780D01*
X81741190Y-113838777D01*
X81740406Y-113831784D01*
X81684738Y-113671929D01*
X81595038Y-113528379D01*
X81475764Y-113408269D01*
X81459574Y-113397994D01*
X81421245Y-113373670D01*
X81332844Y-113317569D01*
X81305442Y-113307812D01*
X81180016Y-113263149D01*
X81180011Y-113263148D01*
X81173381Y-113260787D01*
X81166395Y-113259954D01*
X81166391Y-113259953D01*
X81047287Y-113245751D01*
X81005301Y-113240745D01*
X80998298Y-113241481D01*
X80998297Y-113241481D01*
X80843965Y-113257701D01*
X80843961Y-113257702D01*
X80836957Y-113258438D01*
X80830286Y-113260709D01*
X80683387Y-113310717D01*
X80683384Y-113310718D01*
X80676717Y-113312988D01*
X80670719Y-113316678D01*
X80670717Y-113316679D01*
X80538543Y-113397993D01*
X80538542Y-113397994D01*
X80532544Y-113401684D01*
X80411605Y-113520117D01*
X80319909Y-113662400D01*
X80309384Y-113691317D01*
X80264425Y-113814840D01*
X80264424Y-113814845D01*
X80262015Y-113821463D01*
X80240800Y-113989399D01*
X79758085Y-113989399D01*
X79752078Y-113935842D01*
X79741191Y-113838780D01*
X79741190Y-113838777D01*
X79740406Y-113831784D01*
X79684738Y-113671929D01*
X79595038Y-113528379D01*
X79475764Y-113408269D01*
X79437984Y-113384293D01*
X79391187Y-113330904D01*
X79379500Y-113277909D01*
X79379500Y-112159336D01*
X79399502Y-112091215D01*
X79453158Y-112044722D01*
X79463750Y-112040454D01*
X79490076Y-112031209D01*
X79600010Y-111950010D01*
X79681209Y-111840076D01*
X79726493Y-111711127D01*
X79729500Y-111679315D01*
X79729499Y-111170686D01*
X79726493Y-111138873D01*
X79681209Y-111009924D01*
X79600010Y-110899990D01*
X79490076Y-110818791D01*
X79361127Y-110773507D01*
X79353485Y-110772785D01*
X79353482Y-110772784D01*
X79338579Y-110771376D01*
X79329315Y-110770500D01*
X79000223Y-110770500D01*
X78670686Y-110770501D01*
X78667738Y-110770780D01*
X78667729Y-110770780D01*
X78646522Y-110772784D01*
X78646520Y-110772784D01*
X78638873Y-110773507D01*
X78509924Y-110818791D01*
X78399990Y-110899990D01*
X78318791Y-111009924D01*
X78273507Y-111138873D01*
X78270500Y-111170685D01*
X78270501Y-111679314D01*
X78273507Y-111711127D01*
X78318791Y-111840076D01*
X78399990Y-111950010D01*
X78509924Y-112031209D01*
X78536250Y-112040454D01*
X78593895Y-112081898D01*
X78619982Y-112147928D01*
X78620500Y-112159336D01*
X78620500Y-113277154D01*
X78600498Y-113345275D01*
X78560523Y-113384471D01*
X78532544Y-113401684D01*
X78411605Y-113520117D01*
X78319909Y-113662400D01*
X78309384Y-113691317D01*
X78264425Y-113814840D01*
X78264424Y-113814845D01*
X78262015Y-113821463D01*
X78240800Y-113989399D01*
X77757582Y-113989399D01*
X77740700Y-113838891D01*
X77737599Y-113825245D01*
X77690960Y-113691317D01*
X77682757Y-113679844D01*
X77678749Y-113680625D01*
X77678139Y-113681071D01*
X77372022Y-113987188D01*
X77364408Y-114001132D01*
X76634356Y-114001132D01*
X76635592Y-113998868D01*
X76635461Y-113997035D01*
X76631210Y-113990420D01*
X76328650Y-113687860D01*
X76316270Y-113681100D01*
X76312648Y-113683811D01*
X76264913Y-113814962D01*
X76261621Y-113828570D01*
X76242187Y-113982412D01*
X76241991Y-113996418D01*
X74919694Y-113996418D01*
X74252168Y-113316055D01*
X76680269Y-113316055D01*
X76684089Y-113324879D01*
X76987188Y-113627978D01*
X77001132Y-113635592D01*
X77002965Y-113635461D01*
X77009580Y-113631210D01*
X77312544Y-113328246D01*
X77319304Y-113315866D01*
X77316719Y-113312412D01*
X77316419Y-113312252D01*
X77179902Y-113263640D01*
X77166275Y-113260443D01*
X77012289Y-113242081D01*
X76998293Y-113241983D01*
X76844065Y-113258193D01*
X76830401Y-113261198D01*
X76685148Y-113310646D01*
X76680269Y-113316055D01*
X74252168Y-113316055D01*
X71647275Y-110661068D01*
X71613845Y-110598435D01*
X71619584Y-110527671D01*
X71662670Y-110471243D01*
X71719353Y-110448098D01*
X71764622Y-110441615D01*
X71781681Y-110436626D01*
X71891219Y-110386822D01*
X71904566Y-110378603D01*
X71941668Y-110348773D01*
X71943476Y-110347150D01*
X71950686Y-110333946D01*
X71950555Y-110332113D01*
X71946304Y-110325498D01*
X71261930Y-109641124D01*
X71984416Y-109641124D01*
X71984547Y-109642957D01*
X71988798Y-109649572D01*
X72302282Y-109963056D01*
X72316226Y-109970670D01*
X72318059Y-109970539D01*
X72324567Y-109966357D01*
X72328789Y-109961652D01*
X72358619Y-109924550D01*
X72366838Y-109911203D01*
X72416642Y-109801665D01*
X72421632Y-109784605D01*
X72438537Y-109666552D01*
X72438537Y-109648787D01*
X72421632Y-109530734D01*
X72416643Y-109513674D01*
X72366838Y-109404137D01*
X72358619Y-109390790D01*
X72328789Y-109353688D01*
X72324233Y-109348611D01*
X72310228Y-109334606D01*
X72296284Y-109326992D01*
X72294451Y-109327123D01*
X72287836Y-109331374D01*
X71992030Y-109627180D01*
X71984416Y-109641124D01*
X71261930Y-109641124D01*
X70937734Y-109316928D01*
X70923790Y-109309314D01*
X70921957Y-109309445D01*
X70915449Y-109313627D01*
X70911227Y-109318332D01*
X70881397Y-109355434D01*
X70873178Y-109368781D01*
X70823374Y-109478319D01*
X70818384Y-109495379D01*
X70814426Y-109523024D01*
X70784970Y-109587622D01*
X70725266Y-109626040D01*
X70654269Y-109626081D01*
X70599758Y-109593407D01*
X69964603Y-108946038D01*
X71289330Y-108946038D01*
X71289461Y-108947871D01*
X71293712Y-108954486D01*
X71607196Y-109267970D01*
X71621140Y-109275584D01*
X71622973Y-109275453D01*
X71629588Y-109271202D01*
X71925394Y-108975396D01*
X71933008Y-108961452D01*
X71932877Y-108959619D01*
X71928626Y-108953004D01*
X71911389Y-108935767D01*
X71906312Y-108931211D01*
X71869210Y-108901381D01*
X71855863Y-108893162D01*
X71746326Y-108843357D01*
X71729266Y-108838368D01*
X71611213Y-108821463D01*
X71593448Y-108821463D01*
X71475395Y-108838368D01*
X71458335Y-108843358D01*
X71348797Y-108893162D01*
X71335450Y-108901381D01*
X71298348Y-108931211D01*
X71296540Y-108932834D01*
X71289330Y-108946038D01*
X69964603Y-108946038D01*
X69132844Y-108098283D01*
X74923001Y-108098283D01*
X74923280Y-108104207D01*
X74925281Y-108125382D01*
X74928549Y-108140280D01*
X74968116Y-108252951D01*
X74976837Y-108269420D01*
X75046752Y-108364078D01*
X75059922Y-108377248D01*
X75154580Y-108447163D01*
X75171049Y-108455884D01*
X75283723Y-108495452D01*
X75298614Y-108498719D01*
X75309235Y-108499723D01*
X75320124Y-108496525D01*
X75321329Y-108495135D01*
X75323000Y-108487452D01*
X75323000Y-108482884D01*
X75831000Y-108482884D01*
X75835475Y-108498123D01*
X75836865Y-108499328D01*
X75840521Y-108500123D01*
X75855382Y-108498719D01*
X75870280Y-108495451D01*
X75982951Y-108455884D01*
X75999420Y-108447163D01*
X76094078Y-108377248D01*
X76107248Y-108364078D01*
X76177163Y-108269420D01*
X76185884Y-108252951D01*
X76225452Y-108140277D01*
X76228719Y-108125386D01*
X76230721Y-108104201D01*
X76231000Y-108098287D01*
X76231000Y-108044115D01*
X76226525Y-108028876D01*
X76225135Y-108027671D01*
X76217452Y-108026000D01*
X75849115Y-108026000D01*
X75833876Y-108030475D01*
X75832671Y-108031865D01*
X75831000Y-108039548D01*
X75831000Y-108482884D01*
X75323000Y-108482884D01*
X75323000Y-108044115D01*
X75318525Y-108028876D01*
X75317135Y-108027671D01*
X75309452Y-108026000D01*
X74941116Y-108026000D01*
X74925877Y-108030475D01*
X74924672Y-108031865D01*
X74923001Y-108039548D01*
X74923001Y-108098283D01*
X69132844Y-108098283D01*
X69063564Y-108027671D01*
X68545736Y-107499885D01*
X74923000Y-107499885D01*
X74927475Y-107515124D01*
X74928865Y-107516329D01*
X74936548Y-107518000D01*
X75304885Y-107518000D01*
X75320124Y-107513525D01*
X75321329Y-107512135D01*
X75323000Y-107504452D01*
X75323000Y-107499885D01*
X75831000Y-107499885D01*
X75835475Y-107515124D01*
X75836865Y-107516329D01*
X75844548Y-107518000D01*
X76212884Y-107518000D01*
X76228123Y-107513525D01*
X76229328Y-107512135D01*
X76230999Y-107504452D01*
X76230999Y-107445717D01*
X76230720Y-107439793D01*
X76228719Y-107418618D01*
X76225451Y-107403720D01*
X76185884Y-107291049D01*
X76177163Y-107274580D01*
X76107248Y-107179922D01*
X76094078Y-107166752D01*
X75999420Y-107096837D01*
X75982951Y-107088116D01*
X75870277Y-107048548D01*
X75855386Y-107045281D01*
X75844765Y-107044277D01*
X75833876Y-107047475D01*
X75832671Y-107048865D01*
X75831000Y-107056548D01*
X75831000Y-107499885D01*
X75323000Y-107499885D01*
X75323000Y-107061116D01*
X75318525Y-107045877D01*
X75317135Y-107044672D01*
X75313479Y-107043877D01*
X75298618Y-107045281D01*
X75283720Y-107048549D01*
X75171049Y-107088116D01*
X75154580Y-107096837D01*
X75059922Y-107166752D01*
X75046752Y-107179922D01*
X74976837Y-107274580D01*
X74968116Y-107291049D01*
X74928548Y-107403723D01*
X74925281Y-107418614D01*
X74923279Y-107439799D01*
X74923000Y-107445713D01*
X74923000Y-107499885D01*
X68545736Y-107499885D01*
X64048005Y-102915659D01*
X63754000Y-102616000D01*
X60442187Y-102616000D01*
X60429837Y-102615393D01*
X60253260Y-102598001D01*
X60229043Y-102593185D01*
X60065190Y-102543482D01*
X60042371Y-102534029D01*
X59965444Y-102492911D01*
X59891369Y-102453317D01*
X59870842Y-102439601D01*
X59777378Y-102362898D01*
X59737410Y-102304222D01*
X59735510Y-102233251D01*
X59772281Y-102172518D01*
X59836049Y-102141307D01*
X59857313Y-102139500D01*
X64550616Y-102139500D01*
X64618737Y-102159502D01*
X64639711Y-102176405D01*
X68220920Y-105757614D01*
X68254946Y-105819926D01*
X68256831Y-105862500D01*
X68240800Y-105989399D01*
X68257318Y-106157862D01*
X68310748Y-106318479D01*
X68398435Y-106463267D01*
X68403326Y-106468332D01*
X68403327Y-106468333D01*
X68444653Y-106511127D01*
X68516021Y-106585031D01*
X68657660Y-106677717D01*
X68816315Y-106736720D01*
X68823296Y-106737651D01*
X68823298Y-106737652D01*
X68977118Y-106758176D01*
X68977122Y-106758176D01*
X68984099Y-106759107D01*
X68991110Y-106758469D01*
X68991114Y-106758469D01*
X69145652Y-106744405D01*
X69152673Y-106743766D01*
X69313659Y-106691458D01*
X69433778Y-106619853D01*
X69453004Y-106608392D01*
X69453006Y-106608391D01*
X69459056Y-106604784D01*
X69581638Y-106488052D01*
X69585539Y-106482181D01*
X69671410Y-106352935D01*
X69671411Y-106352933D01*
X69675311Y-106347063D01*
X69735420Y-106188824D01*
X69750392Y-106082292D01*
X69758427Y-106025123D01*
X69758427Y-106025118D01*
X69758978Y-106021200D01*
X69759274Y-106000000D01*
X69752078Y-105935842D01*
X69741191Y-105838780D01*
X69741190Y-105838777D01*
X69740406Y-105831784D01*
X69684738Y-105671929D01*
X69595038Y-105528379D01*
X69475764Y-105408269D01*
X69332844Y-105317569D01*
X69305442Y-105307812D01*
X69180016Y-105263149D01*
X69180011Y-105263148D01*
X69173381Y-105260787D01*
X69166395Y-105259954D01*
X69166391Y-105259953D01*
X69047287Y-105245751D01*
X69005301Y-105240745D01*
X68998298Y-105241481D01*
X68998297Y-105241481D01*
X68858878Y-105256134D01*
X68789040Y-105243362D01*
X68756613Y-105219919D01*
X65066478Y-101529784D01*
X65051336Y-101511036D01*
X65050221Y-101509811D01*
X65044571Y-101501060D01*
X65036393Y-101494613D01*
X65036391Y-101494611D01*
X65018200Y-101480271D01*
X65013759Y-101476325D01*
X65013697Y-101476398D01*
X65009733Y-101473039D01*
X65006056Y-101469362D01*
X64990308Y-101458108D01*
X64985638Y-101454602D01*
X64945353Y-101422844D01*
X64936719Y-101419812D01*
X64929266Y-101414486D01*
X64880150Y-101399797D01*
X64874508Y-101397964D01*
X64833633Y-101383610D01*
X64833632Y-101383610D01*
X64826149Y-101380982D01*
X64820584Y-101380500D01*
X64817876Y-101380500D01*
X64815242Y-101380386D01*
X64815144Y-101380357D01*
X64815151Y-101380193D01*
X64814447Y-101380149D01*
X64808222Y-101378287D01*
X64754365Y-101380403D01*
X64749418Y-101380500D01*
X59562000Y-101380500D01*
X59493879Y-101360498D01*
X59447386Y-101306842D01*
X59436000Y-101254500D01*
X59436000Y-100777500D01*
X59456002Y-100709379D01*
X59509658Y-100662886D01*
X59562000Y-100651500D01*
X65062616Y-100651500D01*
X65130737Y-100671502D01*
X65151711Y-100688405D01*
X68220920Y-103757614D01*
X68254946Y-103819926D01*
X68256831Y-103862500D01*
X68240800Y-103989399D01*
X68257318Y-104157862D01*
X68310748Y-104318479D01*
X68314397Y-104324504D01*
X68394624Y-104456974D01*
X68398435Y-104463267D01*
X68403326Y-104468332D01*
X68403327Y-104468333D01*
X68454909Y-104521748D01*
X68516021Y-104585031D01*
X68657660Y-104677717D01*
X68816315Y-104736720D01*
X68823296Y-104737651D01*
X68823298Y-104737652D01*
X68977118Y-104758176D01*
X68977122Y-104758176D01*
X68984099Y-104759107D01*
X68991110Y-104758469D01*
X68991114Y-104758469D01*
X69145652Y-104744405D01*
X69152673Y-104743766D01*
X69313659Y-104691458D01*
X69414728Y-104631209D01*
X69453004Y-104608392D01*
X69453006Y-104608391D01*
X69459056Y-104604784D01*
X69581638Y-104488052D01*
X69592789Y-104471269D01*
X69671410Y-104352935D01*
X69671411Y-104352933D01*
X69675311Y-104347063D01*
X69735420Y-104188824D01*
X69746161Y-104112395D01*
X69758427Y-104025123D01*
X69758427Y-104025118D01*
X69758978Y-104021200D01*
X69759021Y-104018096D01*
X73964729Y-104018096D01*
X73965563Y-104025646D01*
X73980898Y-104164547D01*
X73982113Y-104175553D01*
X73984723Y-104182684D01*
X73984723Y-104182686D01*
X74020084Y-104279314D01*
X74036553Y-104324319D01*
X74040789Y-104330622D01*
X74040789Y-104330623D01*
X74115232Y-104441405D01*
X74124908Y-104455805D01*
X74130527Y-104460918D01*
X74130528Y-104460919D01*
X74233049Y-104554205D01*
X74242076Y-104562419D01*
X74381293Y-104638008D01*
X74534522Y-104678207D01*
X74618477Y-104679526D01*
X74685319Y-104680576D01*
X74685322Y-104680576D01*
X74692916Y-104680695D01*
X74847332Y-104645329D01*
X74947240Y-104595081D01*
X74969537Y-104583867D01*
X75039382Y-104571129D01*
X75101011Y-104595081D01*
X75149924Y-104631209D01*
X75278873Y-104676493D01*
X75286515Y-104677215D01*
X75286518Y-104677216D01*
X75301421Y-104678624D01*
X75310685Y-104679500D01*
X75639777Y-104679500D01*
X75969314Y-104679499D01*
X75972262Y-104679220D01*
X75972271Y-104679220D01*
X75993478Y-104677216D01*
X75993480Y-104677216D01*
X76001127Y-104676493D01*
X76130076Y-104631209D01*
X76240010Y-104550010D01*
X76300649Y-104467912D01*
X76357210Y-104425002D01*
X76427992Y-104419482D01*
X76490521Y-104453106D01*
X76503351Y-104467912D01*
X76563990Y-104550010D01*
X76673924Y-104631209D01*
X76802873Y-104676493D01*
X76810515Y-104677215D01*
X76810518Y-104677216D01*
X76825421Y-104678624D01*
X76834685Y-104679500D01*
X77163777Y-104679500D01*
X77493314Y-104679499D01*
X77496262Y-104679220D01*
X77496271Y-104679220D01*
X77517478Y-104677216D01*
X77517480Y-104677216D01*
X77525127Y-104676493D01*
X77654076Y-104631209D01*
X77661648Y-104625616D01*
X77661652Y-104625614D01*
X77677563Y-104613861D01*
X77744241Y-104589478D01*
X77812543Y-104604480D01*
X77874293Y-104638008D01*
X78027522Y-104678207D01*
X78111477Y-104679526D01*
X78178319Y-104680576D01*
X78178322Y-104680576D01*
X78185916Y-104680695D01*
X78340332Y-104645329D01*
X78413774Y-104608392D01*
X78475072Y-104577563D01*
X78475075Y-104577561D01*
X78481855Y-104574151D01*
X78487626Y-104569222D01*
X78487629Y-104569220D01*
X78596542Y-104476199D01*
X78596543Y-104476198D01*
X78602314Y-104471269D01*
X78612586Y-104456974D01*
X78668581Y-104413326D01*
X78714909Y-104404500D01*
X81335616Y-104404500D01*
X81403737Y-104424502D01*
X81424711Y-104441405D01*
X81593595Y-104610289D01*
X81627621Y-104672601D01*
X81630500Y-104699384D01*
X81630500Y-105254500D01*
X81610498Y-105322621D01*
X81556842Y-105369114D01*
X81504500Y-105380500D01*
X80949384Y-105380500D01*
X80881263Y-105360498D01*
X80860289Y-105343595D01*
X80772478Y-105255784D01*
X80757336Y-105237036D01*
X80756221Y-105235811D01*
X80750571Y-105227060D01*
X80742393Y-105220613D01*
X80742391Y-105220611D01*
X80724200Y-105206271D01*
X80719759Y-105202325D01*
X80719697Y-105202398D01*
X80715733Y-105199039D01*
X80712056Y-105195362D01*
X80696308Y-105184108D01*
X80691638Y-105180602D01*
X80651353Y-105148844D01*
X80642719Y-105145812D01*
X80635266Y-105140486D01*
X80586150Y-105125797D01*
X80580508Y-105123964D01*
X80539633Y-105109610D01*
X80539632Y-105109610D01*
X80532149Y-105106982D01*
X80526584Y-105106500D01*
X80523876Y-105106500D01*
X80521242Y-105106386D01*
X80521144Y-105106357D01*
X80521151Y-105106193D01*
X80520447Y-105106149D01*
X80514222Y-105104287D01*
X80460365Y-105106403D01*
X80455418Y-105106500D01*
X78544892Y-105106500D01*
X78520944Y-105103951D01*
X78519279Y-105103872D01*
X78509096Y-105101680D01*
X78487070Y-105104287D01*
X78475749Y-105105627D01*
X78460939Y-105106500D01*
X78459975Y-105106500D01*
X78448835Y-105105672D01*
X78443995Y-105104224D01*
X78435021Y-105104169D01*
X78435019Y-105104169D01*
X78371740Y-105103783D01*
X78299485Y-105103342D01*
X78290854Y-105105809D01*
X78290852Y-105105809D01*
X78169167Y-105140586D01*
X78169163Y-105140588D01*
X78160537Y-105143053D01*
X78152950Y-105147840D01*
X78152948Y-105147841D01*
X78045912Y-105215376D01*
X78038319Y-105220167D01*
X78032376Y-105226896D01*
X78032375Y-105226897D01*
X78017834Y-105243362D01*
X77942657Y-105328484D01*
X77938843Y-105336607D01*
X77938842Y-105336609D01*
X77909182Y-105399783D01*
X77881241Y-105459296D01*
X77879861Y-105468160D01*
X77879860Y-105468163D01*
X77870485Y-105528379D01*
X77859008Y-105602087D01*
X77860172Y-105610989D01*
X77860172Y-105610992D01*
X77867509Y-105667095D01*
X77877746Y-105745379D01*
X77935947Y-105877653D01*
X78028934Y-105988274D01*
X78036405Y-105993247D01*
X78036406Y-105993248D01*
X78123526Y-106051240D01*
X78169149Y-106105637D01*
X78178207Y-106175511D01*
X78171308Y-106219818D01*
X78171308Y-106219823D01*
X78169927Y-106228692D01*
X78171091Y-106237594D01*
X78171091Y-106237597D01*
X78180794Y-106311793D01*
X78188665Y-106371984D01*
X78246866Y-106504258D01*
X78339853Y-106614879D01*
X78347324Y-106619852D01*
X78347325Y-106619853D01*
X78452678Y-106689982D01*
X78452680Y-106689983D01*
X78460151Y-106694956D01*
X78468715Y-106697632D01*
X78468720Y-106697634D01*
X78545009Y-106721468D01*
X78587331Y-106734690D01*
X78646387Y-106774096D01*
X78674691Y-106838617D01*
X78678918Y-106870939D01*
X78737119Y-107003213D01*
X78830106Y-107113834D01*
X78837577Y-107118807D01*
X78837578Y-107118808D01*
X78883856Y-107149613D01*
X78929479Y-107204010D01*
X78938450Y-107274438D01*
X78907920Y-107338535D01*
X78847584Y-107375952D01*
X78814037Y-107380500D01*
X77957122Y-107380500D01*
X77889001Y-107360498D01*
X77842508Y-107306842D01*
X77838241Y-107296252D01*
X77836331Y-107290813D01*
X77836330Y-107290811D01*
X77833209Y-107281924D01*
X77752010Y-107171990D01*
X77642076Y-107090791D01*
X77513127Y-107045507D01*
X77505485Y-107044785D01*
X77505482Y-107044784D01*
X77490579Y-107043376D01*
X77481315Y-107042500D01*
X77227172Y-107042500D01*
X76972686Y-107042501D01*
X76969738Y-107042780D01*
X76969729Y-107042780D01*
X76948522Y-107044784D01*
X76948520Y-107044784D01*
X76940873Y-107045507D01*
X76933623Y-107048053D01*
X76932211Y-107048549D01*
X76811924Y-107090791D01*
X76701990Y-107171990D01*
X76620791Y-107281924D01*
X76575507Y-107410873D01*
X76572500Y-107442685D01*
X76572501Y-108101314D01*
X76572780Y-108104262D01*
X76572780Y-108104271D01*
X76574784Y-108125478D01*
X76575507Y-108133127D01*
X76620791Y-108262076D01*
X76701990Y-108372010D01*
X76811924Y-108453209D01*
X76940873Y-108498493D01*
X76948515Y-108499215D01*
X76948518Y-108499216D01*
X76963421Y-108500624D01*
X76972685Y-108501500D01*
X77226828Y-108501500D01*
X77481314Y-108501499D01*
X77484262Y-108501220D01*
X77484271Y-108501220D01*
X77505478Y-108499216D01*
X77505480Y-108499216D01*
X77513127Y-108498493D01*
X77521787Y-108495452D01*
X77544567Y-108487452D01*
X77642076Y-108453209D01*
X77752010Y-108372010D01*
X77833209Y-108262076D01*
X77844450Y-108230067D01*
X77846668Y-108223751D01*
X77888111Y-108166106D01*
X77954141Y-108140018D01*
X77965550Y-108139500D01*
X78523921Y-108139500D01*
X78592042Y-108159502D01*
X78638535Y-108213158D01*
X78648639Y-108283432D01*
X78644639Y-108301597D01*
X78636662Y-108328273D01*
X78633799Y-108337845D01*
X78631964Y-108343492D01*
X78620110Y-108377248D01*
X78614982Y-108391851D01*
X78614500Y-108397416D01*
X78614500Y-108400124D01*
X78614386Y-108402758D01*
X78614357Y-108402856D01*
X78614193Y-108402849D01*
X78614149Y-108403553D01*
X78612287Y-108409778D01*
X78614116Y-108456330D01*
X78614403Y-108463635D01*
X78614500Y-108468582D01*
X78614500Y-109042771D01*
X78594498Y-109110892D01*
X78540842Y-109157385D01*
X78530252Y-109161652D01*
X78509924Y-109168791D01*
X78399990Y-109249990D01*
X78318791Y-109359924D01*
X78273507Y-109488873D01*
X78270500Y-109520685D01*
X78270501Y-110029314D01*
X78273507Y-110061127D01*
X78318791Y-110190076D01*
X78399990Y-110300010D01*
X78509924Y-110381209D01*
X78638873Y-110426493D01*
X78646515Y-110427215D01*
X78646518Y-110427216D01*
X78661421Y-110428624D01*
X78670685Y-110429500D01*
X78999777Y-110429500D01*
X79329314Y-110429499D01*
X79332262Y-110429220D01*
X79332271Y-110429220D01*
X79353478Y-110427216D01*
X79353480Y-110427216D01*
X79361127Y-110426493D01*
X79490076Y-110381209D01*
X79600010Y-110300010D01*
X79681209Y-110190076D01*
X79726493Y-110061127D01*
X79728182Y-110043265D01*
X79728831Y-110036396D01*
X79729500Y-110029315D01*
X79729499Y-109520686D01*
X79728837Y-109513674D01*
X79727216Y-109496522D01*
X79727215Y-109496518D01*
X79726493Y-109488873D01*
X79681209Y-109359924D01*
X79600010Y-109249990D01*
X79490076Y-109168791D01*
X79457751Y-109157439D01*
X79400106Y-109115996D01*
X79374018Y-109049966D01*
X79373500Y-109038557D01*
X79373500Y-108667384D01*
X79393502Y-108599263D01*
X79410405Y-108578289D01*
X79577121Y-108411573D01*
X79639433Y-108377547D01*
X79710248Y-108382612D01*
X79767084Y-108425159D01*
X79786742Y-108465094D01*
X79787588Y-108471565D01*
X79845789Y-108603839D01*
X79851563Y-108610708D01*
X79860251Y-108621043D01*
X79938776Y-108714460D01*
X79946247Y-108719433D01*
X79946248Y-108719434D01*
X80051601Y-108789563D01*
X80051603Y-108789564D01*
X80059074Y-108794537D01*
X80067638Y-108797213D01*
X80067641Y-108797214D01*
X80132753Y-108817556D01*
X80195371Y-108837120D01*
X80197010Y-108837632D01*
X80196936Y-108837869D01*
X80256124Y-108866184D01*
X80293437Y-108926584D01*
X80296864Y-108943585D01*
X80311362Y-109054453D01*
X80315300Y-109084565D01*
X80373501Y-109216839D01*
X80379275Y-109223708D01*
X80422882Y-109275584D01*
X80466488Y-109327460D01*
X80473959Y-109332433D01*
X80473960Y-109332434D01*
X80579313Y-109402563D01*
X80579315Y-109402564D01*
X80586786Y-109407537D01*
X80595350Y-109410213D01*
X80595353Y-109410214D01*
X80650682Y-109427500D01*
X80715067Y-109447615D01*
X80774122Y-109487021D01*
X80802499Y-109552100D01*
X80797985Y-109604721D01*
X80796396Y-109609917D01*
X80792583Y-109618039D01*
X80791203Y-109626903D01*
X80791202Y-109626906D01*
X80773741Y-109739053D01*
X80770350Y-109760830D01*
X80771514Y-109769732D01*
X80771514Y-109769735D01*
X80780543Y-109838780D01*
X80789088Y-109904122D01*
X80847289Y-110036396D01*
X80853063Y-110043265D01*
X80930012Y-110134806D01*
X80940276Y-110147017D01*
X80947747Y-110151990D01*
X80947748Y-110151991D01*
X81053101Y-110222120D01*
X81053103Y-110222121D01*
X81060574Y-110227094D01*
X81069138Y-110229770D01*
X81069141Y-110229771D01*
X81101268Y-110239808D01*
X81198510Y-110270189D01*
X81342998Y-110272837D01*
X81363594Y-110267222D01*
X81473763Y-110237187D01*
X81473765Y-110237186D01*
X81482422Y-110234826D01*
X81595848Y-110165182D01*
X81661776Y-110146557D01*
X81696325Y-110146557D01*
X81764446Y-110166559D01*
X81810939Y-110220215D01*
X81821043Y-110290489D01*
X81814307Y-110316785D01*
X81789643Y-110382578D01*
X81786870Y-110389976D01*
X81780500Y-110448611D01*
X81780501Y-111039388D01*
X81780870Y-111042782D01*
X81780870Y-111042788D01*
X81786006Y-111090066D01*
X81786870Y-111098024D01*
X81813001Y-111167729D01*
X81827716Y-111206982D01*
X81835083Y-111226635D01*
X81840463Y-111233814D01*
X81840465Y-111233817D01*
X81912077Y-111329367D01*
X81917456Y-111336544D01*
X81924633Y-111341923D01*
X82020183Y-111413535D01*
X82020186Y-111413537D01*
X82027365Y-111418917D01*
X82035769Y-111422067D01*
X82035770Y-111422068D01*
X82148581Y-111464358D01*
X82148582Y-111464358D01*
X82155976Y-111467130D01*
X82163826Y-111467983D01*
X82163827Y-111467983D01*
X82183535Y-111470124D01*
X82214611Y-111473500D01*
X82484920Y-111473500D01*
X82755388Y-111473499D01*
X82758782Y-111473130D01*
X82758788Y-111473130D01*
X82806166Y-111467984D01*
X82806170Y-111467983D01*
X82814024Y-111467130D01*
X82942635Y-111418917D01*
X82949814Y-111413537D01*
X82949817Y-111413535D01*
X83045367Y-111341923D01*
X83052544Y-111336544D01*
X83057923Y-111329367D01*
X83129535Y-111233817D01*
X83129537Y-111233814D01*
X83134917Y-111226635D01*
X83142285Y-111206980D01*
X83184927Y-111150216D01*
X83251488Y-111125516D01*
X83320837Y-111140724D01*
X83370955Y-111191010D01*
X83378249Y-111206982D01*
X83382374Y-111217986D01*
X83390908Y-111233575D01*
X83462434Y-111329010D01*
X83474990Y-111341566D01*
X83570425Y-111413092D01*
X83586012Y-111421625D01*
X83698689Y-111463865D01*
X83713934Y-111467490D01*
X83761259Y-111472631D01*
X83763693Y-111472763D01*
X83778124Y-111468525D01*
X83779329Y-111467135D01*
X83781000Y-111459452D01*
X83781000Y-111454885D01*
X84289000Y-111454885D01*
X84293475Y-111470124D01*
X84294865Y-111471329D01*
X84302424Y-111472973D01*
X84308741Y-111472631D01*
X84356066Y-111467490D01*
X84371311Y-111463865D01*
X84483988Y-111421625D01*
X84499575Y-111413092D01*
X84595010Y-111341566D01*
X84607566Y-111329010D01*
X84679092Y-111233575D01*
X84687625Y-111217988D01*
X84729865Y-111105311D01*
X84733490Y-111090066D01*
X84738631Y-111042741D01*
X84739000Y-111035927D01*
X84739000Y-111016115D01*
X84734525Y-111000876D01*
X84733135Y-110999671D01*
X84725452Y-110998000D01*
X84307115Y-110998000D01*
X84291876Y-111002475D01*
X84290671Y-111003865D01*
X84289000Y-111011548D01*
X84289000Y-111454885D01*
X83781000Y-111454885D01*
X83781000Y-110616000D01*
X83801002Y-110547879D01*
X83854658Y-110501386D01*
X83907000Y-110490000D01*
X84720885Y-110490000D01*
X84736124Y-110485525D01*
X84737329Y-110484135D01*
X84739000Y-110476452D01*
X84739000Y-110452073D01*
X84738631Y-110445259D01*
X84733490Y-110397934D01*
X84729865Y-110382689D01*
X84692839Y-110283922D01*
X84687656Y-110213115D01*
X84721577Y-110150746D01*
X84783833Y-110116617D01*
X84810821Y-110113693D01*
X84965484Y-110113693D01*
X85035302Y-110134806D01*
X85052956Y-110146557D01*
X85117101Y-110189256D01*
X85117103Y-110189257D01*
X85124574Y-110194230D01*
X85133138Y-110196906D01*
X85133141Y-110196907D01*
X85185020Y-110213115D01*
X85262510Y-110237325D01*
X85406998Y-110239973D01*
X85444419Y-110229771D01*
X85537763Y-110204323D01*
X85537765Y-110204322D01*
X85546422Y-110201962D01*
X85669572Y-110126347D01*
X85766551Y-110019207D01*
X85808302Y-109933032D01*
X85825645Y-109897236D01*
X85825645Y-109897235D01*
X85829560Y-109889155D01*
X85853536Y-109746646D01*
X85853688Y-109734193D01*
X85846074Y-109681028D01*
X85856216Y-109610759D01*
X85902739Y-109557129D01*
X85937659Y-109541602D01*
X86045763Y-109512130D01*
X86045765Y-109512129D01*
X86054422Y-109509769D01*
X86177572Y-109434154D01*
X86274551Y-109327014D01*
X86315080Y-109243362D01*
X86333645Y-109205043D01*
X86333645Y-109205042D01*
X86337560Y-109196962D01*
X86361027Y-109057478D01*
X86392054Y-108993620D01*
X86452680Y-108956674D01*
X86514930Y-108957952D01*
X86515081Y-108957020D01*
X86521695Y-108958091D01*
X86522853Y-108958115D01*
X86523334Y-108958265D01*
X86523944Y-108958456D01*
X86523946Y-108958456D01*
X86532510Y-108961132D01*
X86676998Y-108963780D01*
X86692261Y-108959619D01*
X86807763Y-108928130D01*
X86807765Y-108928129D01*
X86816422Y-108925769D01*
X86939572Y-108850154D01*
X86945724Y-108843358D01*
X87030526Y-108749670D01*
X87036551Y-108743014D01*
X87099560Y-108612962D01*
X87109800Y-108552099D01*
X87140827Y-108488241D01*
X87200913Y-108451441D01*
X87315762Y-108420130D01*
X87324422Y-108417769D01*
X87447572Y-108342154D01*
X87544551Y-108235014D01*
X87607560Y-108104962D01*
X87631536Y-107962453D01*
X87631688Y-107950000D01*
X87611201Y-107806948D01*
X87608097Y-107800121D01*
X87608176Y-107729864D01*
X87646628Y-107670182D01*
X87711242Y-107640762D01*
X87729032Y-107639500D01*
X88050616Y-107639500D01*
X88118737Y-107659502D01*
X88139711Y-107676405D01*
X94220920Y-113757614D01*
X94254946Y-113819926D01*
X94256831Y-113862500D01*
X94240800Y-113989399D01*
X94257318Y-114157862D01*
X94310748Y-114318479D01*
X94314397Y-114324504D01*
X94341218Y-114368790D01*
X94398435Y-114463267D01*
X94403326Y-114468332D01*
X94403327Y-114468333D01*
X94427062Y-114492911D01*
X94516021Y-114585031D01*
X94657660Y-114677717D01*
X94816315Y-114736720D01*
X94823296Y-114737651D01*
X94823298Y-114737652D01*
X94977118Y-114758176D01*
X94977122Y-114758176D01*
X94984099Y-114759107D01*
X94991110Y-114758469D01*
X94991114Y-114758469D01*
X95145652Y-114744405D01*
X95152673Y-114743766D01*
X95313659Y-114691458D01*
X95459056Y-114604784D01*
X95581638Y-114488052D01*
X95585539Y-114482181D01*
X95671410Y-114352935D01*
X95671411Y-114352933D01*
X95675311Y-114347063D01*
X95735420Y-114188824D01*
X95758978Y-114021200D01*
X95759274Y-114000000D01*
X95752078Y-113935842D01*
X95741191Y-113838780D01*
X95741190Y-113838777D01*
X95740406Y-113831784D01*
X95684738Y-113671929D01*
X95595038Y-113528379D01*
X95475764Y-113408269D01*
X95459574Y-113397994D01*
X95421245Y-113373670D01*
X95332844Y-113317569D01*
X95305442Y-113307812D01*
X95180016Y-113263149D01*
X95180011Y-113263148D01*
X95173381Y-113260787D01*
X95166395Y-113259954D01*
X95166391Y-113259953D01*
X95047287Y-113245751D01*
X95005301Y-113240745D01*
X94998298Y-113241481D01*
X94998297Y-113241481D01*
X94858878Y-113256134D01*
X94789040Y-113243362D01*
X94756613Y-113219919D01*
X88891289Y-107354595D01*
X88857263Y-107292283D01*
X88862328Y-107221468D01*
X88904875Y-107164632D01*
X88971395Y-107139821D01*
X88980384Y-107139500D01*
X89550616Y-107139500D01*
X89618737Y-107159502D01*
X89639711Y-107176405D01*
X94220920Y-111757614D01*
X94254946Y-111819926D01*
X94256831Y-111862500D01*
X94240800Y-111989399D01*
X94257318Y-112157862D01*
X94310748Y-112318479D01*
X94398435Y-112463267D01*
X94403326Y-112468332D01*
X94403327Y-112468333D01*
X94427062Y-112492911D01*
X94516021Y-112585031D01*
X94657660Y-112677717D01*
X94816315Y-112736720D01*
X94823296Y-112737651D01*
X94823298Y-112737652D01*
X94977118Y-112758176D01*
X94977122Y-112758176D01*
X94984099Y-112759107D01*
X94991110Y-112758469D01*
X94991114Y-112758469D01*
X95145652Y-112744405D01*
X95152673Y-112743766D01*
X95313659Y-112691458D01*
X95459056Y-112604784D01*
X95581638Y-112488052D01*
X95585539Y-112482181D01*
X95671410Y-112352935D01*
X95671411Y-112352933D01*
X95675311Y-112347063D01*
X95735420Y-112188824D01*
X95749138Y-112091215D01*
X95758427Y-112025123D01*
X95758427Y-112025118D01*
X95758978Y-112021200D01*
X95759274Y-112000000D01*
X95752078Y-111935842D01*
X95741191Y-111838780D01*
X95741190Y-111838777D01*
X95740406Y-111831784D01*
X95684738Y-111671929D01*
X95595038Y-111528379D01*
X95475764Y-111408269D01*
X95332844Y-111317569D01*
X95305442Y-111307812D01*
X95180016Y-111263149D01*
X95180011Y-111263148D01*
X95173381Y-111260787D01*
X95166395Y-111259954D01*
X95166391Y-111259953D01*
X95047287Y-111245751D01*
X95005301Y-111240745D01*
X94998298Y-111241481D01*
X94998297Y-111241481D01*
X94858878Y-111256134D01*
X94789040Y-111243362D01*
X94756613Y-111219919D01*
X90391289Y-106854595D01*
X90357263Y-106792283D01*
X90362328Y-106721468D01*
X90404875Y-106664632D01*
X90471395Y-106639821D01*
X90480384Y-106639500D01*
X91050616Y-106639500D01*
X91118737Y-106659502D01*
X91139711Y-106676405D01*
X94220920Y-109757614D01*
X94254946Y-109819926D01*
X94256831Y-109862500D01*
X94240800Y-109989399D01*
X94257318Y-110157862D01*
X94310748Y-110318479D01*
X94314397Y-110324504D01*
X94391656Y-110452073D01*
X94398435Y-110463267D01*
X94403326Y-110468332D01*
X94403327Y-110468333D01*
X94424251Y-110490000D01*
X94516021Y-110585031D01*
X94657660Y-110677717D01*
X94816315Y-110736720D01*
X94823296Y-110737651D01*
X94823298Y-110737652D01*
X94977118Y-110758176D01*
X94977122Y-110758176D01*
X94984099Y-110759107D01*
X94991110Y-110758469D01*
X94991114Y-110758469D01*
X95145652Y-110744405D01*
X95152673Y-110743766D01*
X95313659Y-110691458D01*
X95403199Y-110638082D01*
X95453004Y-110608392D01*
X95453006Y-110608391D01*
X95459056Y-110604784D01*
X95581638Y-110488052D01*
X95592806Y-110471243D01*
X95671410Y-110352935D01*
X95671411Y-110352933D01*
X95675311Y-110347063D01*
X95735420Y-110188824D01*
X95748572Y-110095244D01*
X95758427Y-110025123D01*
X95758427Y-110025118D01*
X95758978Y-110021200D01*
X95759124Y-110010749D01*
X95759219Y-110003962D01*
X95759219Y-110003957D01*
X95759274Y-110000000D01*
X95748520Y-109904122D01*
X95741191Y-109838780D01*
X95741190Y-109838777D01*
X95740406Y-109831784D01*
X95684738Y-109671929D01*
X95595038Y-109528379D01*
X95580436Y-109513674D01*
X95501469Y-109434154D01*
X95475764Y-109408269D01*
X95332844Y-109317569D01*
X95305442Y-109307812D01*
X95180016Y-109263149D01*
X95180011Y-109263148D01*
X95173381Y-109260787D01*
X95166395Y-109259954D01*
X95166391Y-109259953D01*
X95035936Y-109244398D01*
X95005301Y-109240745D01*
X94998298Y-109241481D01*
X94998297Y-109241481D01*
X94858878Y-109256134D01*
X94789040Y-109243362D01*
X94756613Y-109219919D01*
X91891289Y-106354595D01*
X91857263Y-106292283D01*
X91862328Y-106221468D01*
X91904875Y-106164632D01*
X91971395Y-106139821D01*
X91980384Y-106139500D01*
X92550616Y-106139500D01*
X92618737Y-106159502D01*
X92639711Y-106176405D01*
X94220920Y-107757614D01*
X94254946Y-107819926D01*
X94256831Y-107862500D01*
X94240800Y-107989399D01*
X94257318Y-108157862D01*
X94310748Y-108318479D01*
X94327930Y-108346850D01*
X94394234Y-108456330D01*
X94398435Y-108463267D01*
X94403326Y-108468332D01*
X94403327Y-108468333D01*
X94433259Y-108499328D01*
X94516021Y-108585031D01*
X94657660Y-108677717D01*
X94816315Y-108736720D01*
X94823296Y-108737651D01*
X94823298Y-108737652D01*
X94977118Y-108758176D01*
X94977122Y-108758176D01*
X94984099Y-108759107D01*
X94991110Y-108758469D01*
X94991114Y-108758469D01*
X95145652Y-108744405D01*
X95152673Y-108743766D01*
X95313659Y-108691458D01*
X95403199Y-108638082D01*
X95453004Y-108608392D01*
X95453006Y-108608391D01*
X95459056Y-108604784D01*
X95581638Y-108488052D01*
X95585539Y-108482181D01*
X95671410Y-108352935D01*
X95671411Y-108352933D01*
X95675311Y-108347063D01*
X95735420Y-108188824D01*
X95755758Y-108044115D01*
X95758427Y-108025123D01*
X95758427Y-108025118D01*
X95758978Y-108021200D01*
X95759274Y-108000000D01*
X95752078Y-107935842D01*
X95741191Y-107838780D01*
X95741190Y-107838777D01*
X95740406Y-107831784D01*
X95684738Y-107671929D01*
X95595038Y-107528379D01*
X95580288Y-107513525D01*
X95509940Y-107442685D01*
X95475764Y-107408269D01*
X95332844Y-107317569D01*
X95272979Y-107296252D01*
X95180016Y-107263149D01*
X95180011Y-107263148D01*
X95173381Y-107260787D01*
X95166395Y-107259954D01*
X95166391Y-107259953D01*
X95047287Y-107245751D01*
X95005301Y-107240745D01*
X94998298Y-107241481D01*
X94998297Y-107241481D01*
X94858878Y-107256134D01*
X94789040Y-107243362D01*
X94756613Y-107219919D01*
X93203789Y-105667095D01*
X93169763Y-105604783D01*
X93174828Y-105533968D01*
X93217375Y-105477132D01*
X93283895Y-105452321D01*
X93292884Y-105452000D01*
X93863116Y-105452000D01*
X93931237Y-105472002D01*
X93952211Y-105488905D01*
X94220920Y-105757614D01*
X94254946Y-105819926D01*
X94256831Y-105862500D01*
X94240800Y-105989399D01*
X94257318Y-106157862D01*
X94310748Y-106318479D01*
X94398435Y-106463267D01*
X94403326Y-106468332D01*
X94403327Y-106468333D01*
X94444653Y-106511127D01*
X94516021Y-106585031D01*
X94657660Y-106677717D01*
X94816315Y-106736720D01*
X94823296Y-106737651D01*
X94823298Y-106737652D01*
X94977118Y-106758176D01*
X94977122Y-106758176D01*
X94984099Y-106759107D01*
X94991110Y-106758469D01*
X94991114Y-106758469D01*
X95145652Y-106744405D01*
X95152673Y-106743766D01*
X95313659Y-106691458D01*
X95433778Y-106619853D01*
X95453004Y-106608392D01*
X95453006Y-106608391D01*
X95459056Y-106604784D01*
X95581638Y-106488052D01*
X95585539Y-106482181D01*
X95671410Y-106352935D01*
X95671411Y-106352933D01*
X95675311Y-106347063D01*
X95735420Y-106188824D01*
X95750392Y-106082292D01*
X95758427Y-106025123D01*
X95758427Y-106025118D01*
X95758978Y-106021200D01*
X95759274Y-106000000D01*
X95752078Y-105935842D01*
X95741191Y-105838780D01*
X95741190Y-105838777D01*
X95740406Y-105831784D01*
X95684738Y-105671929D01*
X95595038Y-105528379D01*
X95475764Y-105408269D01*
X95332844Y-105317569D01*
X95305442Y-105307812D01*
X95180016Y-105263149D01*
X95180011Y-105263148D01*
X95173381Y-105260787D01*
X95166395Y-105259954D01*
X95166391Y-105259953D01*
X95047287Y-105245751D01*
X95005301Y-105240745D01*
X94998298Y-105241481D01*
X94998297Y-105241481D01*
X94858878Y-105256134D01*
X94789040Y-105243362D01*
X94756613Y-105219919D01*
X94378978Y-104842284D01*
X94363836Y-104823536D01*
X94362721Y-104822311D01*
X94357071Y-104813560D01*
X94348893Y-104807113D01*
X94348891Y-104807111D01*
X94330700Y-104792771D01*
X94326259Y-104788825D01*
X94326197Y-104788898D01*
X94322233Y-104785539D01*
X94318556Y-104781862D01*
X94302808Y-104770608D01*
X94298138Y-104767102D01*
X94269401Y-104744448D01*
X94228289Y-104686567D01*
X94224997Y-104615647D01*
X94260569Y-104554205D01*
X94323712Y-104521748D01*
X94347409Y-104519500D01*
X94399255Y-104519500D01*
X94467376Y-104539502D01*
X94489891Y-104557972D01*
X94516021Y-104585031D01*
X94657660Y-104677717D01*
X94816315Y-104736720D01*
X94823296Y-104737651D01*
X94823298Y-104737652D01*
X94977118Y-104758176D01*
X94977122Y-104758176D01*
X94984099Y-104759107D01*
X94991110Y-104758469D01*
X94991114Y-104758469D01*
X95145652Y-104744405D01*
X95152673Y-104743766D01*
X95313659Y-104691458D01*
X95414728Y-104631209D01*
X95453004Y-104608392D01*
X95453006Y-104608391D01*
X95459056Y-104604784D01*
X95581638Y-104488052D01*
X95592789Y-104471269D01*
X95671410Y-104352935D01*
X95671411Y-104352933D01*
X95675311Y-104347063D01*
X95735420Y-104188824D01*
X95746161Y-104112395D01*
X95758427Y-104025123D01*
X95758427Y-104025118D01*
X95758978Y-104021200D01*
X95759274Y-104000000D01*
X95750244Y-103919497D01*
X95741191Y-103838780D01*
X95741190Y-103838777D01*
X95740406Y-103831784D01*
X95684738Y-103671929D01*
X95595038Y-103528379D01*
X95475764Y-103408269D01*
X95464878Y-103401360D01*
X95415623Y-103370102D01*
X95332844Y-103317569D01*
X95305442Y-103307812D01*
X95180016Y-103263149D01*
X95180011Y-103263148D01*
X95173381Y-103260787D01*
X95166395Y-103259954D01*
X95166391Y-103259953D01*
X95033395Y-103244095D01*
X95005301Y-103240745D01*
X94998298Y-103241481D01*
X94998297Y-103241481D01*
X94843965Y-103257701D01*
X94843961Y-103257702D01*
X94836957Y-103258438D01*
X94830286Y-103260709D01*
X94683387Y-103310717D01*
X94683384Y-103310718D01*
X94676717Y-103312988D01*
X94670719Y-103316678D01*
X94670717Y-103316679D01*
X94538543Y-103397993D01*
X94538541Y-103397995D01*
X94532544Y-103401684D01*
X94411605Y-103520117D01*
X94407794Y-103526031D01*
X94407792Y-103526033D01*
X94362561Y-103596217D01*
X94319909Y-103662400D01*
X94314379Y-103677595D01*
X94272286Y-103734765D01*
X94205965Y-103760104D01*
X94195978Y-103760500D01*
X94080384Y-103760500D01*
X94012263Y-103740498D01*
X93965770Y-103686842D01*
X93955666Y-103616568D01*
X93985160Y-103551988D01*
X93991289Y-103545405D01*
X94757864Y-102778830D01*
X94820176Y-102744804D01*
X94863622Y-102743032D01*
X94896717Y-102747448D01*
X94977118Y-102758176D01*
X94977122Y-102758176D01*
X94984099Y-102759107D01*
X94991110Y-102758469D01*
X94991114Y-102758469D01*
X95145652Y-102744405D01*
X95152673Y-102743766D01*
X95313659Y-102691458D01*
X95440241Y-102616000D01*
X95453004Y-102608392D01*
X95453006Y-102608391D01*
X95459056Y-102604784D01*
X95581638Y-102488052D01*
X95585539Y-102482181D01*
X95671410Y-102352935D01*
X95671411Y-102352933D01*
X95675311Y-102347063D01*
X95735420Y-102188824D01*
X95750472Y-102081723D01*
X95758427Y-102025123D01*
X95758427Y-102025118D01*
X95758978Y-102021200D01*
X95759274Y-102000000D01*
X95749493Y-101912801D01*
X95741191Y-101838780D01*
X95741190Y-101838777D01*
X95740406Y-101831784D01*
X95684738Y-101671929D01*
X95595038Y-101528379D01*
X95475764Y-101408269D01*
X95462418Y-101399799D01*
X95400489Y-101360498D01*
X95332844Y-101317569D01*
X95302719Y-101306842D01*
X95180016Y-101263149D01*
X95180011Y-101263148D01*
X95173381Y-101260787D01*
X95166395Y-101259954D01*
X95166391Y-101259953D01*
X95047287Y-101245751D01*
X95005301Y-101240745D01*
X94998298Y-101241481D01*
X94998297Y-101241481D01*
X94843965Y-101257701D01*
X94843961Y-101257702D01*
X94836957Y-101258438D01*
X94830286Y-101260709D01*
X94683387Y-101310717D01*
X94683384Y-101310718D01*
X94676717Y-101312988D01*
X94670719Y-101316678D01*
X94670717Y-101316679D01*
X94538543Y-101397993D01*
X94538541Y-101397995D01*
X94532544Y-101401684D01*
X94411605Y-101520117D01*
X94319909Y-101662400D01*
X94317498Y-101669025D01*
X94264425Y-101814840D01*
X94264424Y-101814845D01*
X94262015Y-101821463D01*
X94240800Y-101989399D01*
X94255804Y-102142417D01*
X94242545Y-102212163D01*
X94219500Y-102243806D01*
X93221711Y-103241595D01*
X93159399Y-103275621D01*
X93132616Y-103278500D01*
X92562384Y-103278500D01*
X92494263Y-103258498D01*
X92447770Y-103204842D01*
X92437666Y-103134568D01*
X92467160Y-103069988D01*
X92473289Y-103063405D01*
X94757864Y-100778830D01*
X94820176Y-100744804D01*
X94863622Y-100743032D01*
X94896717Y-100747448D01*
X94977118Y-100758176D01*
X94977122Y-100758176D01*
X94984099Y-100759107D01*
X94991110Y-100758469D01*
X94991114Y-100758469D01*
X95145652Y-100744405D01*
X95152673Y-100743766D01*
X95313659Y-100691458D01*
X95459056Y-100604784D01*
X95581638Y-100488052D01*
X95585539Y-100482181D01*
X95671410Y-100352935D01*
X95671411Y-100352933D01*
X95675311Y-100347063D01*
X95735420Y-100188824D01*
X95758978Y-100021200D01*
X95759274Y-100000000D01*
X95740406Y-99831784D01*
X95684738Y-99671929D01*
X95595038Y-99528379D01*
X95586859Y-99520142D01*
X95509660Y-99442403D01*
X95475764Y-99408269D01*
X95332844Y-99317569D01*
X95305442Y-99307812D01*
X95180016Y-99263149D01*
X95180011Y-99263148D01*
X95173381Y-99260787D01*
X95166395Y-99259954D01*
X95166391Y-99259953D01*
X95047287Y-99245751D01*
X95005301Y-99240745D01*
X94998298Y-99241481D01*
X94998297Y-99241481D01*
X94843965Y-99257701D01*
X94843961Y-99257702D01*
X94836957Y-99258438D01*
X94830286Y-99260709D01*
X94683387Y-99310717D01*
X94683384Y-99310718D01*
X94676717Y-99312988D01*
X94670719Y-99316678D01*
X94670717Y-99316679D01*
X94538543Y-99397993D01*
X94538541Y-99397995D01*
X94532544Y-99401684D01*
X94490864Y-99442500D01*
X94450721Y-99481812D01*
X94411605Y-99520117D01*
X94407794Y-99526031D01*
X94407792Y-99526033D01*
X94388086Y-99556611D01*
X94319909Y-99662400D01*
X94309384Y-99691317D01*
X94264425Y-99814840D01*
X94264424Y-99814845D01*
X94262015Y-99821463D01*
X94240800Y-99989399D01*
X94255804Y-100142417D01*
X94242545Y-100212163D01*
X94219500Y-100243806D01*
X91671711Y-102791595D01*
X91609399Y-102825621D01*
X91582616Y-102828500D01*
X84065128Y-102828500D01*
X84041180Y-102825951D01*
X84039515Y-102825872D01*
X84029332Y-102823680D01*
X84018991Y-102824904D01*
X83995985Y-102827627D01*
X83990054Y-102827977D01*
X83990062Y-102828072D01*
X83984884Y-102828500D01*
X83979684Y-102828500D01*
X83974555Y-102829354D01*
X83974552Y-102829354D01*
X83960643Y-102831669D01*
X83954765Y-102832506D01*
X83914207Y-102837306D01*
X83914206Y-102837306D01*
X83903867Y-102838530D01*
X83895615Y-102842493D01*
X83886582Y-102843996D01*
X83877413Y-102848943D01*
X83877411Y-102848944D01*
X83841476Y-102868334D01*
X83836183Y-102871031D01*
X83797126Y-102889785D01*
X83797122Y-102889788D01*
X83789976Y-102893219D01*
X83785700Y-102896814D01*
X83783777Y-102898737D01*
X83781845Y-102900509D01*
X83781766Y-102900552D01*
X83781653Y-102900428D01*
X83781113Y-102900904D01*
X83775394Y-102903990D01*
X83768327Y-102911635D01*
X83738792Y-102943586D01*
X83735362Y-102947152D01*
X82779784Y-103902730D01*
X82759021Y-103919497D01*
X82755512Y-103921762D01*
X82687431Y-103941900D01*
X82619271Y-103922034D01*
X82598085Y-103904995D01*
X81662874Y-102969784D01*
X81647732Y-102951036D01*
X81646617Y-102949811D01*
X81640967Y-102941060D01*
X81632789Y-102934613D01*
X81632787Y-102934611D01*
X81614596Y-102920271D01*
X81610155Y-102916325D01*
X81610093Y-102916398D01*
X81606129Y-102913039D01*
X81602452Y-102909362D01*
X81586704Y-102898108D01*
X81582034Y-102894602D01*
X81541749Y-102862844D01*
X81533115Y-102859812D01*
X81525662Y-102854486D01*
X81476546Y-102839797D01*
X81470904Y-102837964D01*
X81430029Y-102823610D01*
X81430028Y-102823610D01*
X81422545Y-102820982D01*
X81416980Y-102820500D01*
X81414272Y-102820500D01*
X81411638Y-102820386D01*
X81411540Y-102820357D01*
X81411547Y-102820193D01*
X81410843Y-102820149D01*
X81404618Y-102818287D01*
X81350761Y-102820403D01*
X81345814Y-102820500D01*
X78010696Y-102820500D01*
X77942575Y-102800498D01*
X77896082Y-102746842D01*
X77885978Y-102676568D01*
X77887623Y-102667500D01*
X77890718Y-102653391D01*
X77891723Y-102642765D01*
X77888525Y-102631876D01*
X77887135Y-102630671D01*
X77879452Y-102629000D01*
X76453118Y-102629000D01*
X76442410Y-102632144D01*
X76380131Y-102634368D01*
X76355453Y-102629000D01*
X74929116Y-102629000D01*
X74913877Y-102633475D01*
X74912672Y-102634865D01*
X74911877Y-102638521D01*
X74913281Y-102653382D01*
X74916549Y-102668280D01*
X74956116Y-102780951D01*
X74964837Y-102797420D01*
X75034752Y-102892078D01*
X75047922Y-102905248D01*
X75142580Y-102975163D01*
X75159049Y-102983884D01*
X75271723Y-103023452D01*
X75286614Y-103026719D01*
X75307799Y-103028721D01*
X75313713Y-103029000D01*
X75478116Y-103029000D01*
X75546237Y-103049002D01*
X75592730Y-103102658D01*
X75602834Y-103172932D01*
X75573340Y-103237512D01*
X75567211Y-103244095D01*
X75477710Y-103333596D01*
X75415398Y-103367622D01*
X75388615Y-103370501D01*
X75310686Y-103370501D01*
X75307738Y-103370780D01*
X75307729Y-103370780D01*
X75286522Y-103372784D01*
X75286520Y-103372784D01*
X75278873Y-103373507D01*
X75149924Y-103418791D01*
X75142350Y-103424386D01*
X75142345Y-103424388D01*
X75100085Y-103455602D01*
X75033407Y-103479985D01*
X74966269Y-103465606D01*
X74860274Y-103409484D01*
X74706633Y-103370892D01*
X74699034Y-103370852D01*
X74699033Y-103370852D01*
X74633181Y-103370507D01*
X74548221Y-103370062D01*
X74540841Y-103371834D01*
X74540839Y-103371834D01*
X74401563Y-103405271D01*
X74401560Y-103405272D01*
X74394184Y-103407043D01*
X74253414Y-103479700D01*
X74134039Y-103583838D01*
X74042950Y-103713444D01*
X74014178Y-103787241D01*
X73994084Y-103838780D01*
X73985406Y-103861037D01*
X73984414Y-103868570D01*
X73984414Y-103868571D01*
X73966590Y-104003962D01*
X73964729Y-104018096D01*
X69759021Y-104018096D01*
X69759274Y-104000000D01*
X69750244Y-103919497D01*
X69741191Y-103838780D01*
X69741190Y-103838777D01*
X69740406Y-103831784D01*
X69684738Y-103671929D01*
X69595038Y-103528379D01*
X69475764Y-103408269D01*
X69464878Y-103401360D01*
X69415623Y-103370102D01*
X69332844Y-103317569D01*
X69305442Y-103307812D01*
X69180016Y-103263149D01*
X69180011Y-103263148D01*
X69173381Y-103260787D01*
X69166395Y-103259954D01*
X69166391Y-103259953D01*
X69033395Y-103244095D01*
X69005301Y-103240745D01*
X68998298Y-103241481D01*
X68998297Y-103241481D01*
X68858878Y-103256134D01*
X68789040Y-103243362D01*
X68756613Y-103219919D01*
X65953289Y-100416595D01*
X65919263Y-100354283D01*
X65924328Y-100283468D01*
X65966875Y-100226632D01*
X66033395Y-100201821D01*
X66042384Y-100201500D01*
X66612616Y-100201500D01*
X66680737Y-100221502D01*
X66701711Y-100238405D01*
X68220920Y-101757614D01*
X68254946Y-101819926D01*
X68256831Y-101862500D01*
X68240800Y-101989399D01*
X68257318Y-102157862D01*
X68310748Y-102318479D01*
X68398435Y-102463267D01*
X68403326Y-102468332D01*
X68403327Y-102468333D01*
X68427062Y-102492911D01*
X68516021Y-102585031D01*
X68657660Y-102677717D01*
X68816315Y-102736720D01*
X68823296Y-102737651D01*
X68823298Y-102737652D01*
X68977118Y-102758176D01*
X68977122Y-102758176D01*
X68984099Y-102759107D01*
X68991110Y-102758469D01*
X68991114Y-102758469D01*
X69145652Y-102744405D01*
X69152673Y-102743766D01*
X69313659Y-102691458D01*
X69440241Y-102616000D01*
X69453004Y-102608392D01*
X69453006Y-102608391D01*
X69459056Y-102604784D01*
X69581638Y-102488052D01*
X69585539Y-102482181D01*
X69671410Y-102352935D01*
X69671411Y-102352933D01*
X69675311Y-102347063D01*
X69735420Y-102188824D01*
X69746887Y-102107235D01*
X74912277Y-102107235D01*
X74915475Y-102118124D01*
X74916865Y-102119329D01*
X74924548Y-102121000D01*
X75367885Y-102121000D01*
X75383124Y-102116525D01*
X75384329Y-102115135D01*
X75386000Y-102107452D01*
X75386000Y-102102885D01*
X75894000Y-102102885D01*
X75898475Y-102118124D01*
X75899865Y-102119329D01*
X75907548Y-102121000D01*
X76350882Y-102121000D01*
X76361590Y-102117856D01*
X76423869Y-102115632D01*
X76448547Y-102121000D01*
X76891885Y-102121000D01*
X76907124Y-102116525D01*
X76908329Y-102115135D01*
X76910000Y-102107452D01*
X76910000Y-102102885D01*
X77418000Y-102102885D01*
X77422475Y-102118124D01*
X77423865Y-102119329D01*
X77431548Y-102121000D01*
X77874884Y-102121000D01*
X77890123Y-102116525D01*
X77891328Y-102115135D01*
X77892123Y-102111479D01*
X77890719Y-102096618D01*
X77887451Y-102081720D01*
X77847884Y-101969049D01*
X77839163Y-101952580D01*
X77769248Y-101857922D01*
X77756078Y-101844752D01*
X77661420Y-101774837D01*
X77644951Y-101766116D01*
X77532277Y-101726548D01*
X77517386Y-101723281D01*
X77496201Y-101721279D01*
X77490287Y-101721000D01*
X77436115Y-101721000D01*
X77420876Y-101725475D01*
X77419671Y-101726865D01*
X77418000Y-101734548D01*
X77418000Y-102102885D01*
X76910000Y-102102885D01*
X76910000Y-101739116D01*
X76905525Y-101723877D01*
X76904135Y-101722672D01*
X76896452Y-101721001D01*
X76837717Y-101721001D01*
X76831793Y-101721280D01*
X76810618Y-101723281D01*
X76795720Y-101726549D01*
X76683049Y-101766116D01*
X76666580Y-101774837D01*
X76571922Y-101844752D01*
X76558752Y-101857922D01*
X76503351Y-101932929D01*
X76446790Y-101975840D01*
X76376009Y-101981360D01*
X76313479Y-101947736D01*
X76300649Y-101932929D01*
X76245248Y-101857922D01*
X76232078Y-101844752D01*
X76137420Y-101774837D01*
X76120951Y-101766116D01*
X76008277Y-101726548D01*
X75993386Y-101723281D01*
X75972201Y-101721279D01*
X75966287Y-101721000D01*
X75912115Y-101721000D01*
X75896876Y-101725475D01*
X75895671Y-101726865D01*
X75894000Y-101734548D01*
X75894000Y-102102885D01*
X75386000Y-102102885D01*
X75386000Y-101739116D01*
X75381525Y-101723877D01*
X75380135Y-101722672D01*
X75372452Y-101721001D01*
X75313717Y-101721001D01*
X75307793Y-101721280D01*
X75286618Y-101723281D01*
X75271720Y-101726549D01*
X75159049Y-101766116D01*
X75142580Y-101774837D01*
X75047922Y-101844752D01*
X75034752Y-101857922D01*
X74964837Y-101952580D01*
X74956116Y-101969049D01*
X74916548Y-102081723D01*
X74913281Y-102096614D01*
X74912277Y-102107235D01*
X69746887Y-102107235D01*
X69750472Y-102081723D01*
X69758427Y-102025123D01*
X69758427Y-102025118D01*
X69758978Y-102021200D01*
X69759274Y-102000000D01*
X69749493Y-101912801D01*
X69741191Y-101838780D01*
X69741190Y-101838777D01*
X69740406Y-101831784D01*
X69684738Y-101671929D01*
X69595038Y-101528379D01*
X69475764Y-101408269D01*
X69462418Y-101399799D01*
X69400489Y-101360498D01*
X69332844Y-101317569D01*
X69302719Y-101306842D01*
X69180016Y-101263149D01*
X69180011Y-101263148D01*
X69173381Y-101260787D01*
X69166395Y-101259954D01*
X69166391Y-101259953D01*
X69047287Y-101245751D01*
X69005301Y-101240745D01*
X68998298Y-101241481D01*
X68998297Y-101241481D01*
X68858878Y-101256134D01*
X68789040Y-101243362D01*
X68756613Y-101219919D01*
X68220051Y-100683357D01*
X68681473Y-100683357D01*
X68684256Y-100687075D01*
X68809835Y-100733777D01*
X68823421Y-100737164D01*
X68977128Y-100757674D01*
X68991124Y-100757967D01*
X69145550Y-100743912D01*
X69159276Y-100741095D01*
X69306752Y-100693177D01*
X69311688Y-100690938D01*
X69318969Y-100683086D01*
X69315464Y-100674674D01*
X69012812Y-100372022D01*
X68998868Y-100364408D01*
X68997035Y-100364539D01*
X68990420Y-100368790D01*
X68688233Y-100670977D01*
X68681473Y-100683357D01*
X68220051Y-100683357D01*
X67533112Y-99996418D01*
X68241991Y-99996418D01*
X68257123Y-100150748D01*
X68260034Y-100164442D01*
X68308980Y-100311581D01*
X68309687Y-100313110D01*
X68316497Y-100319336D01*
X68325117Y-100315673D01*
X68627978Y-100012812D01*
X68634356Y-100001132D01*
X69364408Y-100001132D01*
X69364539Y-100002965D01*
X69368790Y-100009580D01*
X69670635Y-100311425D01*
X69683015Y-100318185D01*
X69686831Y-100315328D01*
X69732431Y-100195285D01*
X69735913Y-100181724D01*
X69757924Y-100025109D01*
X69758530Y-100017225D01*
X69758716Y-100003962D01*
X69758329Y-99996062D01*
X69757582Y-99989399D01*
X78240800Y-99989399D01*
X78257318Y-100157862D01*
X78310748Y-100318479D01*
X78314397Y-100324504D01*
X78341218Y-100368790D01*
X78398435Y-100463267D01*
X78403326Y-100468332D01*
X78403327Y-100468333D01*
X78427062Y-100492911D01*
X78516021Y-100585031D01*
X78657660Y-100677717D01*
X78816315Y-100736720D01*
X78823296Y-100737651D01*
X78823298Y-100737652D01*
X78977118Y-100758176D01*
X78977122Y-100758176D01*
X78984099Y-100759107D01*
X78991110Y-100758469D01*
X78991114Y-100758469D01*
X79145652Y-100744405D01*
X79152673Y-100743766D01*
X79313659Y-100691458D01*
X79459056Y-100604784D01*
X79581638Y-100488052D01*
X79585539Y-100482181D01*
X79671410Y-100352935D01*
X79671411Y-100352933D01*
X79675311Y-100347063D01*
X79735420Y-100188824D01*
X79758978Y-100021200D01*
X79759274Y-100000000D01*
X79758085Y-99989399D01*
X80240800Y-99989399D01*
X80257318Y-100157862D01*
X80310748Y-100318479D01*
X80314397Y-100324504D01*
X80341218Y-100368790D01*
X80398435Y-100463267D01*
X80403326Y-100468332D01*
X80403327Y-100468333D01*
X80427062Y-100492911D01*
X80516021Y-100585031D01*
X80657660Y-100677717D01*
X80816315Y-100736720D01*
X80823296Y-100737651D01*
X80823298Y-100737652D01*
X80977118Y-100758176D01*
X80977122Y-100758176D01*
X80984099Y-100759107D01*
X80991110Y-100758469D01*
X80991114Y-100758469D01*
X81145652Y-100744405D01*
X81152673Y-100743766D01*
X81313659Y-100691458D01*
X81459056Y-100604784D01*
X81581638Y-100488052D01*
X81585539Y-100482181D01*
X81671410Y-100352935D01*
X81671411Y-100352933D01*
X81675311Y-100347063D01*
X81735420Y-100188824D01*
X81758978Y-100021200D01*
X81759274Y-100000000D01*
X81758085Y-99989399D01*
X82240800Y-99989399D01*
X82257318Y-100157862D01*
X82310748Y-100318479D01*
X82314397Y-100324504D01*
X82341218Y-100368790D01*
X82398435Y-100463267D01*
X82403326Y-100468332D01*
X82403327Y-100468333D01*
X82427062Y-100492911D01*
X82516021Y-100585031D01*
X82657660Y-100677717D01*
X82816315Y-100736720D01*
X82823296Y-100737651D01*
X82823298Y-100737652D01*
X82977118Y-100758176D01*
X82977122Y-100758176D01*
X82984099Y-100759107D01*
X82991110Y-100758469D01*
X82991114Y-100758469D01*
X83145652Y-100744405D01*
X83152673Y-100743766D01*
X83313659Y-100691458D01*
X83459056Y-100604784D01*
X83581638Y-100488052D01*
X83585539Y-100482181D01*
X83671410Y-100352935D01*
X83671411Y-100352933D01*
X83675311Y-100347063D01*
X83735420Y-100188824D01*
X83758978Y-100021200D01*
X83759274Y-100000000D01*
X83758085Y-99989399D01*
X84240800Y-99989399D01*
X84257318Y-100157862D01*
X84310748Y-100318479D01*
X84314397Y-100324504D01*
X84341218Y-100368790D01*
X84398435Y-100463267D01*
X84403326Y-100468332D01*
X84403327Y-100468333D01*
X84427062Y-100492911D01*
X84516021Y-100585031D01*
X84657660Y-100677717D01*
X84816315Y-100736720D01*
X84823296Y-100737651D01*
X84823298Y-100737652D01*
X84977118Y-100758176D01*
X84977122Y-100758176D01*
X84984099Y-100759107D01*
X84991110Y-100758469D01*
X84991114Y-100758469D01*
X85145652Y-100744405D01*
X85152673Y-100743766D01*
X85313659Y-100691458D01*
X85459056Y-100604784D01*
X85581638Y-100488052D01*
X85585539Y-100482181D01*
X85671410Y-100352935D01*
X85671411Y-100352933D01*
X85675311Y-100347063D01*
X85735420Y-100188824D01*
X85758978Y-100021200D01*
X85759274Y-100000000D01*
X85758085Y-99989399D01*
X86240800Y-99989399D01*
X86257318Y-100157862D01*
X86310748Y-100318479D01*
X86314397Y-100324504D01*
X86341218Y-100368790D01*
X86398435Y-100463267D01*
X86403326Y-100468332D01*
X86403327Y-100468333D01*
X86427062Y-100492911D01*
X86516021Y-100585031D01*
X86657660Y-100677717D01*
X86816315Y-100736720D01*
X86823296Y-100737651D01*
X86823298Y-100737652D01*
X86977118Y-100758176D01*
X86977122Y-100758176D01*
X86984099Y-100759107D01*
X86991110Y-100758469D01*
X86991114Y-100758469D01*
X87145652Y-100744405D01*
X87152673Y-100743766D01*
X87313659Y-100691458D01*
X87459056Y-100604784D01*
X87581638Y-100488052D01*
X87585539Y-100482181D01*
X87671410Y-100352935D01*
X87671411Y-100352933D01*
X87675311Y-100347063D01*
X87735420Y-100188824D01*
X87758978Y-100021200D01*
X87759274Y-100000000D01*
X87758085Y-99989399D01*
X88240800Y-99989399D01*
X88257318Y-100157862D01*
X88310748Y-100318479D01*
X88314397Y-100324504D01*
X88341218Y-100368790D01*
X88398435Y-100463267D01*
X88403326Y-100468332D01*
X88403327Y-100468333D01*
X88427062Y-100492911D01*
X88516021Y-100585031D01*
X88657660Y-100677717D01*
X88816315Y-100736720D01*
X88823296Y-100737651D01*
X88823298Y-100737652D01*
X88977118Y-100758176D01*
X88977122Y-100758176D01*
X88984099Y-100759107D01*
X88991110Y-100758469D01*
X88991114Y-100758469D01*
X89145652Y-100744405D01*
X89152673Y-100743766D01*
X89313659Y-100691458D01*
X89459056Y-100604784D01*
X89581638Y-100488052D01*
X89585539Y-100482181D01*
X89671410Y-100352935D01*
X89671411Y-100352933D01*
X89675311Y-100347063D01*
X89735420Y-100188824D01*
X89758978Y-100021200D01*
X89759274Y-100000000D01*
X89758085Y-99989399D01*
X90240800Y-99989399D01*
X90257318Y-100157862D01*
X90310748Y-100318479D01*
X90314397Y-100324504D01*
X90341218Y-100368790D01*
X90398435Y-100463267D01*
X90403326Y-100468332D01*
X90403327Y-100468333D01*
X90427062Y-100492911D01*
X90516021Y-100585031D01*
X90657660Y-100677717D01*
X90816315Y-100736720D01*
X90823296Y-100737651D01*
X90823298Y-100737652D01*
X90977118Y-100758176D01*
X90977122Y-100758176D01*
X90984099Y-100759107D01*
X90991110Y-100758469D01*
X90991114Y-100758469D01*
X91145652Y-100744405D01*
X91152673Y-100743766D01*
X91313659Y-100691458D01*
X91459056Y-100604784D01*
X91581638Y-100488052D01*
X91585539Y-100482181D01*
X91671410Y-100352935D01*
X91671411Y-100352933D01*
X91675311Y-100347063D01*
X91735420Y-100188824D01*
X91758978Y-100021200D01*
X91759274Y-100000000D01*
X91740406Y-99831784D01*
X91684738Y-99671929D01*
X91595038Y-99528379D01*
X91586859Y-99520142D01*
X91509660Y-99442403D01*
X91475764Y-99408269D01*
X91332844Y-99317569D01*
X91305442Y-99307812D01*
X91180016Y-99263149D01*
X91180011Y-99263148D01*
X91173381Y-99260787D01*
X91166395Y-99259954D01*
X91166391Y-99259953D01*
X91047287Y-99245751D01*
X91005301Y-99240745D01*
X90998298Y-99241481D01*
X90998297Y-99241481D01*
X90843965Y-99257701D01*
X90843961Y-99257702D01*
X90836957Y-99258438D01*
X90830286Y-99260709D01*
X90683387Y-99310717D01*
X90683384Y-99310718D01*
X90676717Y-99312988D01*
X90670719Y-99316678D01*
X90670717Y-99316679D01*
X90538543Y-99397993D01*
X90538541Y-99397995D01*
X90532544Y-99401684D01*
X90490864Y-99442500D01*
X90450721Y-99481812D01*
X90411605Y-99520117D01*
X90407794Y-99526031D01*
X90407792Y-99526033D01*
X90388086Y-99556611D01*
X90319909Y-99662400D01*
X90309384Y-99691317D01*
X90264425Y-99814840D01*
X90264424Y-99814845D01*
X90262015Y-99821463D01*
X90240800Y-99989399D01*
X89758085Y-99989399D01*
X89740406Y-99831784D01*
X89684738Y-99671929D01*
X89595038Y-99528379D01*
X89586859Y-99520142D01*
X89509660Y-99442403D01*
X89475764Y-99408269D01*
X89332844Y-99317569D01*
X89305442Y-99307812D01*
X89180016Y-99263149D01*
X89180011Y-99263148D01*
X89173381Y-99260787D01*
X89166395Y-99259954D01*
X89166391Y-99259953D01*
X89047287Y-99245751D01*
X89005301Y-99240745D01*
X88998298Y-99241481D01*
X88998297Y-99241481D01*
X88843965Y-99257701D01*
X88843961Y-99257702D01*
X88836957Y-99258438D01*
X88830286Y-99260709D01*
X88683387Y-99310717D01*
X88683384Y-99310718D01*
X88676717Y-99312988D01*
X88670719Y-99316678D01*
X88670717Y-99316679D01*
X88538543Y-99397993D01*
X88538541Y-99397995D01*
X88532544Y-99401684D01*
X88490864Y-99442500D01*
X88450721Y-99481812D01*
X88411605Y-99520117D01*
X88407794Y-99526031D01*
X88407792Y-99526033D01*
X88388086Y-99556611D01*
X88319909Y-99662400D01*
X88309384Y-99691317D01*
X88264425Y-99814840D01*
X88264424Y-99814845D01*
X88262015Y-99821463D01*
X88240800Y-99989399D01*
X87758085Y-99989399D01*
X87740406Y-99831784D01*
X87684738Y-99671929D01*
X87595038Y-99528379D01*
X87586859Y-99520142D01*
X87509660Y-99442403D01*
X87475764Y-99408269D01*
X87332844Y-99317569D01*
X87305442Y-99307812D01*
X87180016Y-99263149D01*
X87180011Y-99263148D01*
X87173381Y-99260787D01*
X87166395Y-99259954D01*
X87166391Y-99259953D01*
X87047287Y-99245751D01*
X87005301Y-99240745D01*
X86998298Y-99241481D01*
X86998297Y-99241481D01*
X86843965Y-99257701D01*
X86843961Y-99257702D01*
X86836957Y-99258438D01*
X86830286Y-99260709D01*
X86683387Y-99310717D01*
X86683384Y-99310718D01*
X86676717Y-99312988D01*
X86670719Y-99316678D01*
X86670717Y-99316679D01*
X86538543Y-99397993D01*
X86538541Y-99397995D01*
X86532544Y-99401684D01*
X86490864Y-99442500D01*
X86450721Y-99481812D01*
X86411605Y-99520117D01*
X86407794Y-99526031D01*
X86407792Y-99526033D01*
X86388086Y-99556611D01*
X86319909Y-99662400D01*
X86309384Y-99691317D01*
X86264425Y-99814840D01*
X86264424Y-99814845D01*
X86262015Y-99821463D01*
X86240800Y-99989399D01*
X85758085Y-99989399D01*
X85740406Y-99831784D01*
X85684738Y-99671929D01*
X85595038Y-99528379D01*
X85586859Y-99520142D01*
X85509660Y-99442403D01*
X85475764Y-99408269D01*
X85332844Y-99317569D01*
X85305442Y-99307812D01*
X85180016Y-99263149D01*
X85180011Y-99263148D01*
X85173381Y-99260787D01*
X85166395Y-99259954D01*
X85166391Y-99259953D01*
X85047287Y-99245751D01*
X85005301Y-99240745D01*
X84998298Y-99241481D01*
X84998297Y-99241481D01*
X84843965Y-99257701D01*
X84843961Y-99257702D01*
X84836957Y-99258438D01*
X84830286Y-99260709D01*
X84683387Y-99310717D01*
X84683384Y-99310718D01*
X84676717Y-99312988D01*
X84670719Y-99316678D01*
X84670717Y-99316679D01*
X84538543Y-99397993D01*
X84538541Y-99397995D01*
X84532544Y-99401684D01*
X84490864Y-99442500D01*
X84450721Y-99481812D01*
X84411605Y-99520117D01*
X84407794Y-99526031D01*
X84407792Y-99526033D01*
X84388086Y-99556611D01*
X84319909Y-99662400D01*
X84309384Y-99691317D01*
X84264425Y-99814840D01*
X84264424Y-99814845D01*
X84262015Y-99821463D01*
X84240800Y-99989399D01*
X83758085Y-99989399D01*
X83740406Y-99831784D01*
X83684738Y-99671929D01*
X83595038Y-99528379D01*
X83586859Y-99520142D01*
X83509660Y-99442403D01*
X83475764Y-99408269D01*
X83332844Y-99317569D01*
X83305442Y-99307812D01*
X83180016Y-99263149D01*
X83180011Y-99263148D01*
X83173381Y-99260787D01*
X83166395Y-99259954D01*
X83166391Y-99259953D01*
X83047287Y-99245751D01*
X83005301Y-99240745D01*
X82998298Y-99241481D01*
X82998297Y-99241481D01*
X82843965Y-99257701D01*
X82843961Y-99257702D01*
X82836957Y-99258438D01*
X82830286Y-99260709D01*
X82683387Y-99310717D01*
X82683384Y-99310718D01*
X82676717Y-99312988D01*
X82670719Y-99316678D01*
X82670717Y-99316679D01*
X82538543Y-99397993D01*
X82538541Y-99397995D01*
X82532544Y-99401684D01*
X82490864Y-99442500D01*
X82450721Y-99481812D01*
X82411605Y-99520117D01*
X82407794Y-99526031D01*
X82407792Y-99526033D01*
X82388086Y-99556611D01*
X82319909Y-99662400D01*
X82309384Y-99691317D01*
X82264425Y-99814840D01*
X82264424Y-99814845D01*
X82262015Y-99821463D01*
X82240800Y-99989399D01*
X81758085Y-99989399D01*
X81740406Y-99831784D01*
X81684738Y-99671929D01*
X81595038Y-99528379D01*
X81586859Y-99520142D01*
X81509660Y-99442403D01*
X81475764Y-99408269D01*
X81332844Y-99317569D01*
X81305442Y-99307812D01*
X81180016Y-99263149D01*
X81180011Y-99263148D01*
X81173381Y-99260787D01*
X81166395Y-99259954D01*
X81166391Y-99259953D01*
X81047287Y-99245751D01*
X81005301Y-99240745D01*
X80998298Y-99241481D01*
X80998297Y-99241481D01*
X80843965Y-99257701D01*
X80843961Y-99257702D01*
X80836957Y-99258438D01*
X80830286Y-99260709D01*
X80683387Y-99310717D01*
X80683384Y-99310718D01*
X80676717Y-99312988D01*
X80670719Y-99316678D01*
X80670717Y-99316679D01*
X80538543Y-99397993D01*
X80538541Y-99397995D01*
X80532544Y-99401684D01*
X80490864Y-99442500D01*
X80450721Y-99481812D01*
X80411605Y-99520117D01*
X80407794Y-99526031D01*
X80407792Y-99526033D01*
X80388086Y-99556611D01*
X80319909Y-99662400D01*
X80309384Y-99691317D01*
X80264425Y-99814840D01*
X80264424Y-99814845D01*
X80262015Y-99821463D01*
X80240800Y-99989399D01*
X79758085Y-99989399D01*
X79740406Y-99831784D01*
X79684738Y-99671929D01*
X79595038Y-99528379D01*
X79586859Y-99520142D01*
X79509660Y-99442403D01*
X79475764Y-99408269D01*
X79332844Y-99317569D01*
X79305442Y-99307812D01*
X79180016Y-99263149D01*
X79180011Y-99263148D01*
X79173381Y-99260787D01*
X79166395Y-99259954D01*
X79166391Y-99259953D01*
X79047287Y-99245751D01*
X79005301Y-99240745D01*
X78998298Y-99241481D01*
X78998297Y-99241481D01*
X78843965Y-99257701D01*
X78843961Y-99257702D01*
X78836957Y-99258438D01*
X78830286Y-99260709D01*
X78683387Y-99310717D01*
X78683384Y-99310718D01*
X78676717Y-99312988D01*
X78670719Y-99316678D01*
X78670717Y-99316679D01*
X78538543Y-99397993D01*
X78538541Y-99397995D01*
X78532544Y-99401684D01*
X78490864Y-99442500D01*
X78450721Y-99481812D01*
X78411605Y-99520117D01*
X78407794Y-99526031D01*
X78407792Y-99526033D01*
X78388086Y-99556611D01*
X78319909Y-99662400D01*
X78309384Y-99691317D01*
X78264425Y-99814840D01*
X78264424Y-99814845D01*
X78262015Y-99821463D01*
X78240800Y-99989399D01*
X69757582Y-99989399D01*
X69740700Y-99838891D01*
X69737599Y-99825245D01*
X69690960Y-99691317D01*
X69682757Y-99679844D01*
X69678749Y-99680625D01*
X69678139Y-99681071D01*
X69372022Y-99987188D01*
X69364408Y-100001132D01*
X68634356Y-100001132D01*
X68635592Y-99998868D01*
X68635461Y-99997035D01*
X68631210Y-99990420D01*
X68328650Y-99687860D01*
X68316270Y-99681100D01*
X68312648Y-99683811D01*
X68264913Y-99814962D01*
X68261621Y-99828570D01*
X68242187Y-99982412D01*
X68241991Y-99996418D01*
X67533112Y-99996418D01*
X67128478Y-99591784D01*
X67113336Y-99573036D01*
X67112221Y-99571811D01*
X67106571Y-99563060D01*
X67098393Y-99556613D01*
X67098391Y-99556611D01*
X67080200Y-99542271D01*
X67075759Y-99538325D01*
X67075697Y-99538398D01*
X67071733Y-99535039D01*
X67068056Y-99531362D01*
X67052308Y-99520108D01*
X67047638Y-99516602D01*
X67007353Y-99484844D01*
X66998719Y-99481812D01*
X66991266Y-99476486D01*
X66942150Y-99461797D01*
X66936508Y-99459964D01*
X66895633Y-99445610D01*
X66895632Y-99445610D01*
X66888149Y-99442982D01*
X66882584Y-99442500D01*
X66879876Y-99442500D01*
X66877242Y-99442386D01*
X66877144Y-99442357D01*
X66877151Y-99442193D01*
X66876447Y-99442149D01*
X66870222Y-99440287D01*
X66816365Y-99442403D01*
X66811418Y-99442500D01*
X59562000Y-99442500D01*
X59493879Y-99422498D01*
X59447386Y-99368842D01*
X59436000Y-99316500D01*
X59436000Y-99316055D01*
X68680269Y-99316055D01*
X68684089Y-99324879D01*
X68987188Y-99627978D01*
X69001132Y-99635592D01*
X69002965Y-99635461D01*
X69009580Y-99631210D01*
X69312544Y-99328246D01*
X69319304Y-99315866D01*
X69316719Y-99312412D01*
X69316419Y-99312252D01*
X69179902Y-99263640D01*
X69166275Y-99260443D01*
X69012289Y-99242081D01*
X68998293Y-99241983D01*
X68844065Y-99258193D01*
X68830401Y-99261198D01*
X68685148Y-99310646D01*
X68680269Y-99316055D01*
X59436000Y-99316055D01*
X59436000Y-98542187D01*
X59436607Y-98529837D01*
X59453998Y-98353263D01*
X59458815Y-98329043D01*
X59508518Y-98165190D01*
X59517971Y-98142371D01*
X59598681Y-97991372D01*
X59612399Y-97970842D01*
X59721026Y-97838479D01*
X59738479Y-97821026D01*
X59870842Y-97712399D01*
X59891369Y-97698683D01*
X60042371Y-97617971D01*
X60065191Y-97608518D01*
X60229043Y-97558815D01*
X60253260Y-97553999D01*
X60429837Y-97536607D01*
X60442187Y-97536000D01*
X95259813Y-97536000D01*
X95272163Y-97536607D01*
G37*
%TD.AperFunction*%
%TD*%
%TA.AperFunction,Conductor*%
%TO.N,/Vprot*%
G36*
X63691362Y-80274502D02*
G01*
X63703174Y-80283100D01*
X63705516Y-80285022D01*
X63722979Y-80302485D01*
X63831601Y-80434842D01*
X63845319Y-80455372D01*
X63926029Y-80606371D01*
X63935482Y-80629190D01*
X63985185Y-80793043D01*
X63990001Y-80817260D01*
X64003185Y-80951109D01*
X64007393Y-80993837D01*
X64008000Y-81006187D01*
X64008000Y-87639813D01*
X64007393Y-87652163D01*
X64002288Y-87704000D01*
X63990002Y-87828737D01*
X63985185Y-87852957D01*
X63935482Y-88016809D01*
X63926029Y-88039629D01*
X63894607Y-88098417D01*
X63864669Y-88154427D01*
X63845319Y-88190628D01*
X63831601Y-88211158D01*
X63722974Y-88343521D01*
X63705521Y-88360974D01*
X63573158Y-88469601D01*
X63552631Y-88483317D01*
X63460417Y-88532607D01*
X63401629Y-88564029D01*
X63378810Y-88573482D01*
X63214957Y-88623185D01*
X63190740Y-88628001D01*
X63014163Y-88645393D01*
X63001813Y-88646000D01*
X60150187Y-88646000D01*
X60137837Y-88645393D01*
X59961260Y-88628001D01*
X59937043Y-88623185D01*
X59773190Y-88573482D01*
X59750371Y-88564029D01*
X59691583Y-88532607D01*
X59599369Y-88483317D01*
X59578842Y-88469601D01*
X59446485Y-88360979D01*
X59429022Y-88343516D01*
X59427100Y-88341174D01*
X59399347Y-88275826D01*
X59398500Y-88261241D01*
X59398500Y-88063828D01*
X61057001Y-88063828D01*
X61058209Y-88076088D01*
X61069315Y-88131931D01*
X61078633Y-88154427D01*
X61120983Y-88217808D01*
X61138192Y-88235017D01*
X61201575Y-88277368D01*
X61224066Y-88286684D01*
X61279915Y-88297793D01*
X61292170Y-88299000D01*
X61903885Y-88299000D01*
X61919124Y-88294525D01*
X61920329Y-88293135D01*
X61922000Y-88285452D01*
X61922000Y-88280884D01*
X62430000Y-88280884D01*
X62434475Y-88296123D01*
X62435865Y-88297328D01*
X62443548Y-88298999D01*
X63059828Y-88298999D01*
X63072088Y-88297791D01*
X63127931Y-88286685D01*
X63150427Y-88277367D01*
X63213808Y-88235017D01*
X63231017Y-88217808D01*
X63273368Y-88154425D01*
X63282684Y-88131934D01*
X63293793Y-88076085D01*
X63295000Y-88063830D01*
X63295000Y-87722115D01*
X63290525Y-87706876D01*
X63289135Y-87705671D01*
X63281452Y-87704000D01*
X62448115Y-87704000D01*
X62432876Y-87708475D01*
X62431671Y-87709865D01*
X62430000Y-87717548D01*
X62430000Y-88280884D01*
X61922000Y-88280884D01*
X61922000Y-87722115D01*
X61917525Y-87706876D01*
X61916135Y-87705671D01*
X61908452Y-87704000D01*
X61075116Y-87704000D01*
X61059877Y-87708475D01*
X61058672Y-87709865D01*
X61057001Y-87717548D01*
X61057001Y-88063828D01*
X59398500Y-88063828D01*
X59398500Y-87177885D01*
X61057000Y-87177885D01*
X61061475Y-87193124D01*
X61062865Y-87194329D01*
X61070548Y-87196000D01*
X61903885Y-87196000D01*
X61919124Y-87191525D01*
X61920329Y-87190135D01*
X61922000Y-87182452D01*
X61922000Y-87177885D01*
X62430000Y-87177885D01*
X62434475Y-87193124D01*
X62435865Y-87194329D01*
X62443548Y-87196000D01*
X63276884Y-87196000D01*
X63292123Y-87191525D01*
X63293328Y-87190135D01*
X63294999Y-87182452D01*
X63294999Y-86836172D01*
X63293791Y-86823912D01*
X63282685Y-86768069D01*
X63273367Y-86745573D01*
X63231017Y-86682192D01*
X63213808Y-86664983D01*
X63150425Y-86622632D01*
X63127934Y-86613316D01*
X63072085Y-86602207D01*
X63059830Y-86601000D01*
X62448115Y-86601000D01*
X62432876Y-86605475D01*
X62431671Y-86606865D01*
X62430000Y-86614548D01*
X62430000Y-87177885D01*
X61922000Y-87177885D01*
X61922000Y-86619116D01*
X61917525Y-86603877D01*
X61916135Y-86602672D01*
X61908452Y-86601001D01*
X61292172Y-86601001D01*
X61279912Y-86602209D01*
X61224069Y-86613315D01*
X61201573Y-86622633D01*
X61138192Y-86664983D01*
X61120983Y-86682192D01*
X61078632Y-86745575D01*
X61069316Y-86768066D01*
X61058207Y-86823915D01*
X61057000Y-86836170D01*
X61057000Y-87177885D01*
X59398500Y-87177885D01*
X59398500Y-84992828D01*
X60696001Y-84992828D01*
X60697209Y-85005088D01*
X60708315Y-85060931D01*
X60717633Y-85083427D01*
X60759983Y-85146808D01*
X60777192Y-85164017D01*
X60840575Y-85206368D01*
X60863066Y-85215684D01*
X60918915Y-85226793D01*
X60931170Y-85228000D01*
X61927885Y-85228000D01*
X61943124Y-85223525D01*
X61944329Y-85222135D01*
X61946000Y-85214452D01*
X61946000Y-85209884D01*
X62454000Y-85209884D01*
X62458475Y-85225123D01*
X62459865Y-85226328D01*
X62467548Y-85227999D01*
X63468828Y-85227999D01*
X63481088Y-85226791D01*
X63536931Y-85215685D01*
X63559427Y-85206367D01*
X63622808Y-85164017D01*
X63640017Y-85146808D01*
X63682368Y-85083425D01*
X63691684Y-85060934D01*
X63702793Y-85005085D01*
X63704000Y-84992830D01*
X63704000Y-84346115D01*
X63699525Y-84330876D01*
X63698135Y-84329671D01*
X63690452Y-84328000D01*
X62472115Y-84328000D01*
X62456876Y-84332475D01*
X62455671Y-84333865D01*
X62454000Y-84341548D01*
X62454000Y-85209884D01*
X61946000Y-85209884D01*
X61946000Y-84346115D01*
X61941525Y-84330876D01*
X61940135Y-84329671D01*
X61932452Y-84328000D01*
X60714116Y-84328000D01*
X60698877Y-84332475D01*
X60697672Y-84333865D01*
X60696001Y-84341548D01*
X60696001Y-84992828D01*
X59398500Y-84992828D01*
X59398500Y-83801885D01*
X60696000Y-83801885D01*
X60700475Y-83817124D01*
X60701865Y-83818329D01*
X60709548Y-83820000D01*
X61927885Y-83820000D01*
X61943124Y-83815525D01*
X61944329Y-83814135D01*
X61946000Y-83806452D01*
X61946000Y-83801885D01*
X62454000Y-83801885D01*
X62458475Y-83817124D01*
X62459865Y-83818329D01*
X62467548Y-83820000D01*
X63685884Y-83820000D01*
X63701123Y-83815525D01*
X63702328Y-83814135D01*
X63703999Y-83806452D01*
X63703999Y-83155172D01*
X63702791Y-83142912D01*
X63691685Y-83087069D01*
X63682367Y-83064573D01*
X63640017Y-83001192D01*
X63622808Y-82983983D01*
X63559425Y-82941632D01*
X63536934Y-82932316D01*
X63481085Y-82921207D01*
X63468830Y-82920000D01*
X62472115Y-82920000D01*
X62456876Y-82924475D01*
X62455671Y-82925865D01*
X62454000Y-82933548D01*
X62454000Y-83801885D01*
X61946000Y-83801885D01*
X61946000Y-82938116D01*
X61941525Y-82922877D01*
X61940135Y-82921672D01*
X61932452Y-82920001D01*
X60931172Y-82920001D01*
X60918912Y-82921209D01*
X60863069Y-82932315D01*
X60840573Y-82941633D01*
X60777192Y-82983983D01*
X60759983Y-83001192D01*
X60717632Y-83064575D01*
X60708316Y-83087066D01*
X60697207Y-83142915D01*
X60696000Y-83155170D01*
X60696000Y-83801885D01*
X59398500Y-83801885D01*
X59398500Y-81037476D01*
X59400921Y-81012894D01*
X59401065Y-81012170D01*
X59403486Y-81000000D01*
X59401065Y-80987830D01*
X59401065Y-80980144D01*
X59401672Y-80967793D01*
X59411609Y-80866908D01*
X59416425Y-80842691D01*
X59451649Y-80726574D01*
X59461093Y-80703774D01*
X59518292Y-80596761D01*
X59532011Y-80576230D01*
X59608981Y-80482444D01*
X59626444Y-80464981D01*
X59720230Y-80388011D01*
X59740761Y-80374292D01*
X59847774Y-80317093D01*
X59870574Y-80307649D01*
X59986691Y-80272425D01*
X60010908Y-80267609D01*
X60111793Y-80257672D01*
X60124144Y-80257065D01*
X60131830Y-80257065D01*
X60144000Y-80259486D01*
X60156897Y-80256921D01*
X60181476Y-80254500D01*
X63623241Y-80254500D01*
X63691362Y-80274502D01*
G37*
%TD.AperFunction*%
%TD*%
%TA.AperFunction,Conductor*%
%TO.N,Dat0*%
G36*
X57898337Y-100528002D02*
G01*
X57944830Y-100581658D01*
X57955138Y-100650446D01*
X57940715Y-100760000D01*
X57959772Y-100904754D01*
X58015645Y-101039642D01*
X58104526Y-101155474D01*
X58111076Y-101160500D01*
X58111079Y-101160503D01*
X58145573Y-101186971D01*
X58220357Y-101244355D01*
X58355246Y-101300228D01*
X58500000Y-101319285D01*
X58508188Y-101318207D01*
X58636566Y-101301306D01*
X58644754Y-101300228D01*
X58779643Y-101244355D01*
X58854427Y-101186971D01*
X58888921Y-101160503D01*
X58888924Y-101160500D01*
X58895474Y-101155474D01*
X58900501Y-101148923D01*
X58900505Y-101148919D01*
X58910738Y-101135583D01*
X58968076Y-101093716D01*
X59038947Y-101089494D01*
X59100850Y-101124258D01*
X59134131Y-101186971D01*
X59135908Y-101198181D01*
X59142410Y-101255894D01*
X59142410Y-101284107D01*
X59126484Y-101425456D01*
X59120205Y-101452965D01*
X59073228Y-101587216D01*
X59060987Y-101612635D01*
X58985306Y-101733082D01*
X58967713Y-101755142D01*
X58867142Y-101855713D01*
X58845082Y-101873306D01*
X58724635Y-101948987D01*
X58699216Y-101961228D01*
X58564963Y-102008206D01*
X58537457Y-102014484D01*
X58389029Y-102031208D01*
X58374921Y-102032000D01*
X51531079Y-102032000D01*
X51516971Y-102031208D01*
X51368543Y-102014484D01*
X51341037Y-102008206D01*
X51206784Y-101961228D01*
X51181365Y-101948987D01*
X51060918Y-101873306D01*
X51038858Y-101855713D01*
X50938287Y-101755142D01*
X50920694Y-101733082D01*
X50845013Y-101612635D01*
X50832772Y-101587216D01*
X50785795Y-101452965D01*
X50779516Y-101425456D01*
X50763590Y-101284107D01*
X50763590Y-101255893D01*
X50779516Y-101114544D01*
X50785795Y-101087035D01*
X50800087Y-101046193D01*
X50832772Y-100952784D01*
X50845013Y-100927365D01*
X50920694Y-100806918D01*
X50938287Y-100784858D01*
X51038858Y-100684287D01*
X51060918Y-100666694D01*
X51181365Y-100591013D01*
X51206784Y-100578772D01*
X51341037Y-100531794D01*
X51368543Y-100525516D01*
X51516971Y-100508792D01*
X51531079Y-100508000D01*
X57830216Y-100508000D01*
X57898337Y-100528002D01*
G37*
%TD.AperFunction*%
%TD*%
%TA.AperFunction,Conductor*%
%TO.N,/Vmid*%
G36*
X121095362Y-80274502D02*
G01*
X121107174Y-80283100D01*
X121109516Y-80285022D01*
X121126979Y-80302485D01*
X121235601Y-80434842D01*
X121249319Y-80455372D01*
X121330029Y-80606371D01*
X121339482Y-80629190D01*
X121389185Y-80793043D01*
X121394002Y-80817263D01*
X121411393Y-80993837D01*
X121412000Y-81006187D01*
X121412000Y-87639813D01*
X121411393Y-87652163D01*
X121405894Y-87708000D01*
X121394002Y-87828737D01*
X121389185Y-87852957D01*
X121340941Y-88012000D01*
X121339482Y-88016809D01*
X121330029Y-88039629D01*
X121249319Y-88190628D01*
X121235601Y-88211158D01*
X121126974Y-88343521D01*
X121109521Y-88360974D01*
X120977158Y-88469601D01*
X120956631Y-88483317D01*
X120888002Y-88520000D01*
X120805629Y-88564029D01*
X120782810Y-88573482D01*
X120618957Y-88623185D01*
X120594740Y-88628001D01*
X120418163Y-88645393D01*
X120405813Y-88646000D01*
X107751041Y-88646000D01*
X107682920Y-88625998D01*
X107636427Y-88572342D01*
X107626323Y-88502068D01*
X107655817Y-88437488D01*
X107681040Y-88415235D01*
X107706806Y-88398019D01*
X107724017Y-88380808D01*
X107766368Y-88317425D01*
X107775684Y-88294934D01*
X107786793Y-88239085D01*
X107788000Y-88226830D01*
X107788000Y-88030115D01*
X107783525Y-88014876D01*
X107782135Y-88013671D01*
X107774452Y-88012000D01*
X106098116Y-88012000D01*
X106082877Y-88016475D01*
X106081672Y-88017865D01*
X106080001Y-88025548D01*
X106080001Y-88226828D01*
X106081209Y-88239088D01*
X106092315Y-88294931D01*
X106101633Y-88317427D01*
X106143983Y-88380808D01*
X106161194Y-88398019D01*
X106186960Y-88415235D01*
X106232488Y-88469711D01*
X106241337Y-88540154D01*
X106210696Y-88604199D01*
X106150294Y-88641510D01*
X106116959Y-88646000D01*
X105483499Y-88646000D01*
X105415378Y-88625998D01*
X105368885Y-88572342D01*
X105357499Y-88520000D01*
X105357499Y-87485885D01*
X106080000Y-87485885D01*
X106084475Y-87501124D01*
X106085865Y-87502329D01*
X106093548Y-87504000D01*
X106661885Y-87504000D01*
X106677124Y-87499525D01*
X106678329Y-87498135D01*
X106680000Y-87490452D01*
X106680000Y-87485885D01*
X107188000Y-87485885D01*
X107192475Y-87501124D01*
X107193865Y-87502329D01*
X107201548Y-87504000D01*
X107769884Y-87504000D01*
X107785123Y-87499525D01*
X107786328Y-87498135D01*
X107787999Y-87490452D01*
X107787999Y-87289172D01*
X107786791Y-87276912D01*
X107775685Y-87221069D01*
X107766367Y-87198573D01*
X107724017Y-87135192D01*
X107706808Y-87117983D01*
X107643425Y-87075632D01*
X107620934Y-87066316D01*
X107565085Y-87055207D01*
X107552830Y-87054000D01*
X107206115Y-87054000D01*
X107190876Y-87058475D01*
X107189671Y-87059865D01*
X107188000Y-87067548D01*
X107188000Y-87485885D01*
X106680000Y-87485885D01*
X106680000Y-87072116D01*
X106675525Y-87056877D01*
X106674135Y-87055672D01*
X106666452Y-87054001D01*
X106315172Y-87054001D01*
X106302912Y-87055209D01*
X106247069Y-87066315D01*
X106224573Y-87075633D01*
X106161192Y-87117983D01*
X106143983Y-87135192D01*
X106101632Y-87198575D01*
X106092316Y-87221066D01*
X106081207Y-87276915D01*
X106080000Y-87289170D01*
X106080000Y-87485885D01*
X105357499Y-87485885D01*
X105357499Y-85672828D01*
X112108001Y-85672828D01*
X112109209Y-85685088D01*
X112120315Y-85740931D01*
X112129633Y-85763427D01*
X112171983Y-85826808D01*
X112189192Y-85844017D01*
X112252575Y-85886368D01*
X112275066Y-85895684D01*
X112330915Y-85906793D01*
X112343170Y-85908000D01*
X114789885Y-85908000D01*
X114805124Y-85903525D01*
X114806329Y-85902135D01*
X114808000Y-85894452D01*
X114808000Y-85889884D01*
X115316000Y-85889884D01*
X115320475Y-85905123D01*
X115321865Y-85906328D01*
X115329548Y-85907999D01*
X117780828Y-85907999D01*
X117793088Y-85906791D01*
X117848931Y-85895685D01*
X117871427Y-85886367D01*
X117934808Y-85844017D01*
X117952017Y-85826808D01*
X117994368Y-85763425D01*
X118003684Y-85740934D01*
X118014793Y-85685085D01*
X118016000Y-85672830D01*
X118016000Y-84476115D01*
X118011525Y-84460876D01*
X118010135Y-84459671D01*
X118002452Y-84458000D01*
X115334115Y-84458000D01*
X115318876Y-84462475D01*
X115317671Y-84463865D01*
X115316000Y-84471548D01*
X115316000Y-85889884D01*
X114808000Y-85889884D01*
X114808000Y-84476115D01*
X114803525Y-84460876D01*
X114802135Y-84459671D01*
X114794452Y-84458000D01*
X112126116Y-84458000D01*
X112110877Y-84462475D01*
X112109672Y-84463865D01*
X112108001Y-84471548D01*
X112108001Y-85672828D01*
X105357499Y-85672828D01*
X105357499Y-84236934D01*
X105342734Y-84162699D01*
X105286484Y-84078516D01*
X105202301Y-84022266D01*
X105128067Y-84007500D01*
X100403382Y-84007500D01*
X95677934Y-84007501D01*
X95642182Y-84014612D01*
X95615874Y-84019844D01*
X95615872Y-84019845D01*
X95603699Y-84022266D01*
X95593379Y-84029161D01*
X95593378Y-84029162D01*
X95532985Y-84069516D01*
X95519516Y-84078516D01*
X95463266Y-84162699D01*
X95448500Y-84236933D01*
X95448500Y-88520000D01*
X95428498Y-88588121D01*
X95374842Y-88634614D01*
X95322500Y-88646000D01*
X94224187Y-88646000D01*
X94211837Y-88645393D01*
X94035260Y-88628001D01*
X94011041Y-88623185D01*
X93896424Y-88588416D01*
X93837043Y-88549502D01*
X93808127Y-88484660D01*
X93807000Y-88467842D01*
X93807000Y-88234115D01*
X93802525Y-88218876D01*
X93801135Y-88217671D01*
X93793452Y-88216000D01*
X93398372Y-88216000D01*
X93386530Y-88201570D01*
X93294120Y-88028683D01*
X93237215Y-87841090D01*
X93224107Y-87708000D01*
X93788884Y-87708000D01*
X93804123Y-87703525D01*
X93805328Y-87702135D01*
X93806999Y-87694452D01*
X93806999Y-87393172D01*
X93805791Y-87380912D01*
X93794685Y-87325069D01*
X93785367Y-87302573D01*
X93743017Y-87239192D01*
X93725807Y-87221982D01*
X93718447Y-87217064D01*
X93672920Y-87162587D01*
X93664073Y-87092144D01*
X93694714Y-87028100D01*
X93718445Y-87007537D01*
X93736484Y-86995484D01*
X93792734Y-86911301D01*
X93807500Y-86837067D01*
X93807499Y-85686934D01*
X93792734Y-85612699D01*
X93736484Y-85528516D01*
X93652301Y-85472266D01*
X93578067Y-85457500D01*
X93344000Y-85457500D01*
X93275879Y-85437498D01*
X93229386Y-85383842D01*
X93218000Y-85331500D01*
X93218000Y-83931885D01*
X112108000Y-83931885D01*
X112112475Y-83947124D01*
X112113865Y-83948329D01*
X112121548Y-83950000D01*
X114789885Y-83950000D01*
X114805124Y-83945525D01*
X114806329Y-83944135D01*
X114808000Y-83936452D01*
X114808000Y-83931885D01*
X115316000Y-83931885D01*
X115320475Y-83947124D01*
X115321865Y-83948329D01*
X115329548Y-83950000D01*
X117997884Y-83950000D01*
X118013123Y-83945525D01*
X118014328Y-83944135D01*
X118015999Y-83936452D01*
X118015999Y-82735172D01*
X118014791Y-82722912D01*
X118003685Y-82667069D01*
X117994367Y-82644573D01*
X117952017Y-82581192D01*
X117934808Y-82563983D01*
X117871425Y-82521632D01*
X117848934Y-82512316D01*
X117793085Y-82501207D01*
X117780830Y-82500000D01*
X115334115Y-82500000D01*
X115318876Y-82504475D01*
X115317671Y-82505865D01*
X115316000Y-82513548D01*
X115316000Y-83931885D01*
X114808000Y-83931885D01*
X114808000Y-82518116D01*
X114803525Y-82502877D01*
X114802135Y-82501672D01*
X114794452Y-82500001D01*
X112343172Y-82500001D01*
X112330912Y-82501209D01*
X112275069Y-82512315D01*
X112252573Y-82521633D01*
X112189192Y-82563983D01*
X112171983Y-82581192D01*
X112129632Y-82644575D01*
X112120316Y-82667066D01*
X112109207Y-82722915D01*
X112108000Y-82735170D01*
X112108000Y-83931885D01*
X93218000Y-83931885D01*
X93218000Y-83741357D01*
X106615473Y-83741357D01*
X106618256Y-83745075D01*
X106743835Y-83791777D01*
X106757421Y-83795164D01*
X106911128Y-83815674D01*
X106925124Y-83815967D01*
X107079550Y-83801912D01*
X107093276Y-83799095D01*
X107240752Y-83751177D01*
X107245688Y-83748938D01*
X107252969Y-83741086D01*
X107249464Y-83732674D01*
X106946812Y-83430022D01*
X106932868Y-83422408D01*
X106931035Y-83422539D01*
X106924420Y-83426790D01*
X106622233Y-83728977D01*
X106615473Y-83741357D01*
X93218000Y-83741357D01*
X93218000Y-83054418D01*
X106175991Y-83054418D01*
X106191123Y-83208748D01*
X106194034Y-83222442D01*
X106242980Y-83369581D01*
X106243687Y-83371110D01*
X106250497Y-83377336D01*
X106259117Y-83373673D01*
X106561978Y-83070812D01*
X106568356Y-83059132D01*
X107298408Y-83059132D01*
X107298539Y-83060965D01*
X107302790Y-83067580D01*
X107604635Y-83369425D01*
X107617015Y-83376185D01*
X107620831Y-83373328D01*
X107666431Y-83253285D01*
X107669913Y-83239724D01*
X107691924Y-83083109D01*
X107692530Y-83075225D01*
X107692716Y-83061962D01*
X107692329Y-83054062D01*
X107674700Y-82896891D01*
X107671599Y-82883245D01*
X107624960Y-82749317D01*
X107616757Y-82737844D01*
X107612749Y-82738625D01*
X107612139Y-82739071D01*
X107306022Y-83045188D01*
X107298408Y-83059132D01*
X106568356Y-83059132D01*
X106569592Y-83056868D01*
X106569461Y-83055035D01*
X106565210Y-83048420D01*
X106262650Y-82745860D01*
X106250270Y-82739100D01*
X106246648Y-82741811D01*
X106198913Y-82872962D01*
X106195621Y-82886570D01*
X106176187Y-83040412D01*
X106175991Y-83054418D01*
X93218000Y-83054418D01*
X93218000Y-82374055D01*
X106614269Y-82374055D01*
X106618089Y-82382879D01*
X106921188Y-82685978D01*
X106935132Y-82693592D01*
X106936965Y-82693461D01*
X106943580Y-82689210D01*
X107246544Y-82386246D01*
X107253304Y-82373866D01*
X107250719Y-82370412D01*
X107250419Y-82370252D01*
X107113902Y-82321640D01*
X107100275Y-82318443D01*
X106946289Y-82300081D01*
X106932293Y-82299983D01*
X106778065Y-82316193D01*
X106764401Y-82319198D01*
X106619148Y-82368646D01*
X106614269Y-82374055D01*
X93218000Y-82374055D01*
X93218000Y-81006187D01*
X93218607Y-80993837D01*
X93235998Y-80817263D01*
X93240815Y-80793043D01*
X93290518Y-80629190D01*
X93299971Y-80606371D01*
X93380681Y-80455372D01*
X93394399Y-80434842D01*
X93503021Y-80302485D01*
X93520484Y-80285022D01*
X93522826Y-80283100D01*
X93588174Y-80255347D01*
X93602759Y-80254500D01*
X121027241Y-80254500D01*
X121095362Y-80274502D01*
G37*
%TD.AperFunction*%
%TD*%
%TA.AperFunction,Conductor*%
%TO.N,GND*%
G36*
X83569621Y-89174002D02*
G01*
X83616114Y-89227658D01*
X83627500Y-89280000D01*
X83627500Y-89821756D01*
X83627869Y-89825152D01*
X83627869Y-89825153D01*
X83629574Y-89840843D01*
X83634202Y-89883448D01*
X83684929Y-90018764D01*
X83690309Y-90025943D01*
X83690311Y-90025946D01*
X83728742Y-90077224D01*
X83771596Y-90134404D01*
X83778776Y-90139785D01*
X83880054Y-90215689D01*
X83880057Y-90215691D01*
X83887236Y-90221071D01*
X83976954Y-90254704D01*
X84015157Y-90269026D01*
X84015159Y-90269026D01*
X84022552Y-90271798D01*
X84030402Y-90272651D01*
X84030403Y-90272651D01*
X84080847Y-90278131D01*
X84084244Y-90278500D01*
X85079756Y-90278500D01*
X85083153Y-90278131D01*
X85133597Y-90272651D01*
X85133598Y-90272651D01*
X85141448Y-90271798D01*
X85148841Y-90269026D01*
X85148843Y-90269026D01*
X85187046Y-90254704D01*
X85276764Y-90221071D01*
X85283943Y-90215691D01*
X85283946Y-90215689D01*
X85331169Y-90180297D01*
X85397676Y-90155449D01*
X85448483Y-90162241D01*
X85499899Y-90180297D01*
X85531851Y-90191518D01*
X85537416Y-90192000D01*
X85927224Y-90192000D01*
X85971453Y-90200018D01*
X86022157Y-90219026D01*
X86022159Y-90219026D01*
X86029552Y-90221798D01*
X86037402Y-90222651D01*
X86037403Y-90222651D01*
X86087847Y-90228131D01*
X86091244Y-90228500D01*
X87136756Y-90228500D01*
X87140153Y-90228131D01*
X87190597Y-90222651D01*
X87190598Y-90222651D01*
X87198448Y-90221798D01*
X87205841Y-90219026D01*
X87205843Y-90219026D01*
X87277935Y-90192000D01*
X87333764Y-90171071D01*
X87340943Y-90165691D01*
X87340946Y-90165689D01*
X87442224Y-90089785D01*
X87449404Y-90084404D01*
X87493216Y-90025946D01*
X87530689Y-89975946D01*
X87530691Y-89975943D01*
X87536071Y-89968764D01*
X87586798Y-89833448D01*
X87593500Y-89771756D01*
X87593500Y-89280000D01*
X87613502Y-89211879D01*
X87667158Y-89165386D01*
X87719500Y-89154000D01*
X88573000Y-89154000D01*
X88641121Y-89174002D01*
X88687614Y-89227658D01*
X88699000Y-89280000D01*
X88699000Y-89389885D01*
X88703475Y-89405124D01*
X88704865Y-89406329D01*
X88712548Y-89408000D01*
X93788884Y-89408000D01*
X93804123Y-89403525D01*
X93805328Y-89402135D01*
X93806999Y-89394452D01*
X93806999Y-89280000D01*
X93827001Y-89211879D01*
X93880657Y-89165386D01*
X93932999Y-89154000D01*
X95323000Y-89154000D01*
X95391121Y-89174002D01*
X95437614Y-89227658D01*
X95449000Y-89280000D01*
X95449000Y-89389885D01*
X95453475Y-89405124D01*
X95454865Y-89406329D01*
X95462548Y-89408000D01*
X105338884Y-89408000D01*
X105354123Y-89403525D01*
X105355328Y-89402135D01*
X105356999Y-89394452D01*
X105356999Y-89280000D01*
X105377001Y-89211879D01*
X105430657Y-89165386D01*
X105482999Y-89154000D01*
X107451813Y-89154000D01*
X107464163Y-89154607D01*
X107640740Y-89171999D01*
X107664957Y-89176815D01*
X107828809Y-89226518D01*
X107851629Y-89235971D01*
X108002631Y-89316683D01*
X108023158Y-89330399D01*
X108155521Y-89439026D01*
X108172974Y-89456479D01*
X108281601Y-89588842D01*
X108295319Y-89609372D01*
X108376029Y-89760371D01*
X108385482Y-89783190D01*
X108435185Y-89947043D01*
X108440001Y-89971260D01*
X108445388Y-90025946D01*
X108457393Y-90147837D01*
X108458000Y-90160187D01*
X108458000Y-97028000D01*
X65522187Y-97028000D01*
X65509837Y-97027393D01*
X65333260Y-97010001D01*
X65309043Y-97005185D01*
X65145190Y-96955482D01*
X65122371Y-96946029D01*
X65063583Y-96914607D01*
X64971369Y-96865317D01*
X64950842Y-96851601D01*
X64818479Y-96742974D01*
X64801026Y-96725521D01*
X64692399Y-96593158D01*
X64678681Y-96572628D01*
X64597971Y-96421629D01*
X64588518Y-96398809D01*
X64538815Y-96234957D01*
X64533998Y-96210737D01*
X64516607Y-96034163D01*
X64516000Y-96021813D01*
X64516000Y-95498292D01*
X74488001Y-95498292D01*
X74488370Y-95505110D01*
X74493841Y-95555482D01*
X74497470Y-95570741D01*
X74542222Y-95690118D01*
X74550754Y-95705704D01*
X74626572Y-95806867D01*
X74639133Y-95819428D01*
X74740296Y-95895246D01*
X74755882Y-95903778D01*
X74875265Y-95948533D01*
X74890510Y-95952158D01*
X74940892Y-95957631D01*
X74947706Y-95958000D01*
X75419885Y-95958000D01*
X75435124Y-95953525D01*
X75436329Y-95952135D01*
X75438000Y-95944452D01*
X75438000Y-95939884D01*
X75946000Y-95939884D01*
X75950475Y-95955123D01*
X75951865Y-95956328D01*
X75959548Y-95957999D01*
X76436292Y-95957999D01*
X76443110Y-95957630D01*
X76493482Y-95952159D01*
X76508741Y-95948530D01*
X76628118Y-95903778D01*
X76643704Y-95895246D01*
X76744867Y-95819428D01*
X76757428Y-95806867D01*
X76833246Y-95705704D01*
X76841778Y-95690118D01*
X76886533Y-95570735D01*
X76890158Y-95555490D01*
X76895631Y-95505108D01*
X76896000Y-95498294D01*
X76896000Y-95199292D01*
X83628001Y-95199292D01*
X83628370Y-95206110D01*
X83633841Y-95256482D01*
X83637470Y-95271741D01*
X83682222Y-95391118D01*
X83690754Y-95406704D01*
X83766572Y-95507867D01*
X83779133Y-95520428D01*
X83880296Y-95596246D01*
X83895882Y-95604778D01*
X84015265Y-95649533D01*
X84030510Y-95653158D01*
X84080892Y-95658631D01*
X84087706Y-95659000D01*
X84309885Y-95659000D01*
X84325124Y-95654525D01*
X84326329Y-95653135D01*
X84328000Y-95645452D01*
X84328000Y-95640884D01*
X84836000Y-95640884D01*
X84840475Y-95656123D01*
X84841865Y-95657328D01*
X84849548Y-95658999D01*
X85076292Y-95658999D01*
X85083110Y-95658630D01*
X85133482Y-95653159D01*
X85148741Y-95649530D01*
X85268118Y-95604778D01*
X85283704Y-95596246D01*
X85384867Y-95520428D01*
X85397428Y-95507867D01*
X85473246Y-95406704D01*
X85481778Y-95391118D01*
X85526533Y-95271735D01*
X85530158Y-95256490D01*
X85535631Y-95206108D01*
X85536000Y-95199294D01*
X85536000Y-95164615D01*
X85531525Y-95149376D01*
X85530135Y-95148171D01*
X85522452Y-95146500D01*
X84854115Y-95146500D01*
X84838876Y-95150975D01*
X84837671Y-95152365D01*
X84836000Y-95160048D01*
X84836000Y-95640884D01*
X84328000Y-95640884D01*
X84328000Y-95164615D01*
X84323525Y-95149376D01*
X84322135Y-95148171D01*
X84314452Y-95146500D01*
X83646116Y-95146500D01*
X83630877Y-95150975D01*
X83629672Y-95152365D01*
X83628001Y-95160048D01*
X83628001Y-95199292D01*
X76896000Y-95199292D01*
X76896000Y-94620385D01*
X83628000Y-94620385D01*
X83632475Y-94635624D01*
X83633865Y-94636829D01*
X83641548Y-94638500D01*
X84309885Y-94638500D01*
X84325124Y-94634025D01*
X84326329Y-94632635D01*
X84328000Y-94624952D01*
X84328000Y-94620385D01*
X84836000Y-94620385D01*
X84840475Y-94635624D01*
X84841865Y-94636829D01*
X84849548Y-94638500D01*
X85517884Y-94638500D01*
X85533123Y-94634025D01*
X85534328Y-94632635D01*
X85535999Y-94624952D01*
X85535999Y-94585708D01*
X85535630Y-94578890D01*
X85530159Y-94528518D01*
X85526530Y-94513259D01*
X85481778Y-94393882D01*
X85473246Y-94378296D01*
X85397428Y-94277133D01*
X85384867Y-94264572D01*
X85283704Y-94188754D01*
X85268118Y-94180222D01*
X85148735Y-94135467D01*
X85133490Y-94131842D01*
X85083108Y-94126369D01*
X85076294Y-94126000D01*
X84854115Y-94126000D01*
X84838876Y-94130475D01*
X84837671Y-94131865D01*
X84836000Y-94139548D01*
X84836000Y-94620385D01*
X84328000Y-94620385D01*
X84328000Y-94144116D01*
X84323525Y-94128877D01*
X84322135Y-94127672D01*
X84314452Y-94126001D01*
X84087708Y-94126001D01*
X84080890Y-94126370D01*
X84030518Y-94131841D01*
X84015259Y-94135470D01*
X83895882Y-94180222D01*
X83880296Y-94188754D01*
X83779133Y-94264572D01*
X83766572Y-94277133D01*
X83690754Y-94378296D01*
X83682222Y-94393882D01*
X83637467Y-94513265D01*
X83633842Y-94528510D01*
X83628369Y-94578892D01*
X83628000Y-94585706D01*
X83628000Y-94620385D01*
X76896000Y-94620385D01*
X76896000Y-93776115D01*
X76891525Y-93760876D01*
X76890135Y-93759671D01*
X76882452Y-93758000D01*
X75964115Y-93758000D01*
X75948876Y-93762475D01*
X75947671Y-93763865D01*
X75946000Y-93771548D01*
X75946000Y-95939884D01*
X75438000Y-95939884D01*
X75438000Y-93776115D01*
X75433525Y-93760876D01*
X75432135Y-93759671D01*
X75424452Y-93758000D01*
X74506116Y-93758000D01*
X74490877Y-93762475D01*
X74489672Y-93763865D01*
X74488001Y-93771548D01*
X74488001Y-95498292D01*
X64516000Y-95498292D01*
X64516000Y-93377756D01*
X83627500Y-93377756D01*
X83634202Y-93439448D01*
X83684929Y-93574764D01*
X83690309Y-93581943D01*
X83690311Y-93581946D01*
X83731622Y-93637067D01*
X83771596Y-93690404D01*
X83792023Y-93705713D01*
X83880054Y-93771689D01*
X83880057Y-93771691D01*
X83887236Y-93777071D01*
X83966777Y-93806889D01*
X84015157Y-93825026D01*
X84015159Y-93825026D01*
X84022552Y-93827798D01*
X84030402Y-93828651D01*
X84030403Y-93828651D01*
X84080847Y-93834131D01*
X84084244Y-93834500D01*
X85079756Y-93834500D01*
X85083153Y-93834131D01*
X85133597Y-93828651D01*
X85133598Y-93828651D01*
X85141448Y-93827798D01*
X85148841Y-93825026D01*
X85148843Y-93825026D01*
X85197223Y-93806889D01*
X85276764Y-93777071D01*
X85283943Y-93771691D01*
X85283946Y-93771689D01*
X85371977Y-93705713D01*
X85392404Y-93690404D01*
X85432378Y-93637067D01*
X85473689Y-93581946D01*
X85473691Y-93581943D01*
X85479071Y-93574764D01*
X85529798Y-93439448D01*
X85536500Y-93377756D01*
X85536500Y-92757244D01*
X85529798Y-92695552D01*
X85479071Y-92560236D01*
X85473691Y-92553057D01*
X85473689Y-92553054D01*
X85397785Y-92451776D01*
X85392404Y-92444596D01*
X85336075Y-92402380D01*
X85283946Y-92363311D01*
X85283943Y-92363309D01*
X85276764Y-92357929D01*
X85175539Y-92319982D01*
X85118774Y-92277341D01*
X85094074Y-92210780D01*
X85109281Y-92141431D01*
X85159567Y-92091312D01*
X85175539Y-92084018D01*
X85276764Y-92046071D01*
X85283943Y-92040691D01*
X85283946Y-92040689D01*
X85385224Y-91964785D01*
X85392404Y-91959404D01*
X85477638Y-91845677D01*
X85534496Y-91803162D01*
X85605314Y-91798136D01*
X85667608Y-91832196D01*
X85688854Y-91860560D01*
X85691929Y-91868764D01*
X85778596Y-91984404D01*
X85785776Y-91989785D01*
X85887054Y-92065689D01*
X85887057Y-92065691D01*
X85894236Y-92071071D01*
X85983954Y-92104704D01*
X86022157Y-92119026D01*
X86022159Y-92119026D01*
X86029552Y-92121798D01*
X86037402Y-92122651D01*
X86037403Y-92122651D01*
X86084800Y-92127800D01*
X86091244Y-92128500D01*
X87136756Y-92128500D01*
X87143200Y-92127800D01*
X87190597Y-92122651D01*
X87190598Y-92122651D01*
X87198448Y-92121798D01*
X87205841Y-92119026D01*
X87205843Y-92119026D01*
X87244046Y-92104704D01*
X87333764Y-92071071D01*
X87340943Y-92065691D01*
X87340946Y-92065689D01*
X87442224Y-91989785D01*
X87449404Y-91984404D01*
X87468140Y-91959404D01*
X87530689Y-91875946D01*
X87530691Y-91875943D01*
X87536071Y-91868764D01*
X87545443Y-91843764D01*
X87553125Y-91823272D01*
X87595765Y-91766507D01*
X87662327Y-91741806D01*
X87671107Y-91741500D01*
X88572501Y-91741500D01*
X88640622Y-91761502D01*
X88687115Y-91815158D01*
X88698501Y-91867500D01*
X88698501Y-91937066D01*
X88701516Y-91952224D01*
X88708987Y-91989785D01*
X88713266Y-92011301D01*
X88720161Y-92021620D01*
X88720162Y-92021622D01*
X88755308Y-92074221D01*
X88769516Y-92095484D01*
X88779832Y-92102377D01*
X88787104Y-92107236D01*
X88832630Y-92161714D01*
X88841477Y-92232157D01*
X88810835Y-92296200D01*
X88787104Y-92316764D01*
X88769516Y-92328516D01*
X88713266Y-92412699D01*
X88698500Y-92486933D01*
X88698500Y-92712500D01*
X88678498Y-92780621D01*
X88624842Y-92827114D01*
X88572500Y-92838500D01*
X87844445Y-92838500D01*
X87776324Y-92818498D01*
X87737592Y-92779271D01*
X87720773Y-92752356D01*
X87720772Y-92752355D01*
X87717038Y-92746379D01*
X87597764Y-92626269D01*
X87454844Y-92535569D01*
X87427442Y-92525812D01*
X87302016Y-92481149D01*
X87302011Y-92481148D01*
X87295381Y-92478787D01*
X87288395Y-92477954D01*
X87288391Y-92477953D01*
X87169287Y-92463751D01*
X87127301Y-92458745D01*
X87120298Y-92459481D01*
X87120297Y-92459481D01*
X86965965Y-92475701D01*
X86965961Y-92475702D01*
X86958957Y-92476438D01*
X86952286Y-92478709D01*
X86805387Y-92528717D01*
X86805384Y-92528718D01*
X86798717Y-92530988D01*
X86792719Y-92534678D01*
X86792717Y-92534679D01*
X86660543Y-92615993D01*
X86660541Y-92615995D01*
X86654544Y-92619684D01*
X86649511Y-92624613D01*
X86569054Y-92703403D01*
X86533605Y-92738117D01*
X86529794Y-92744031D01*
X86529792Y-92744033D01*
X86521278Y-92757244D01*
X86441909Y-92880400D01*
X86439498Y-92887025D01*
X86386425Y-93032840D01*
X86386424Y-93032845D01*
X86384015Y-93039463D01*
X86362800Y-93207399D01*
X86379318Y-93375862D01*
X86432748Y-93536479D01*
X86436397Y-93542504D01*
X86514313Y-93671158D01*
X86520435Y-93681267D01*
X86525326Y-93686332D01*
X86525327Y-93686333D01*
X86549062Y-93710911D01*
X86638021Y-93803031D01*
X86779660Y-93895717D01*
X86938315Y-93954720D01*
X86945296Y-93955651D01*
X86945298Y-93955652D01*
X87099118Y-93976176D01*
X87099122Y-93976176D01*
X87106099Y-93977107D01*
X87113110Y-93976469D01*
X87113114Y-93976469D01*
X87267652Y-93962405D01*
X87274673Y-93961766D01*
X87435659Y-93909458D01*
X87532492Y-93851734D01*
X87575004Y-93826392D01*
X87575006Y-93826391D01*
X87581056Y-93822784D01*
X87703638Y-93706052D01*
X87738372Y-93653773D01*
X87792729Y-93608102D01*
X87843320Y-93597500D01*
X88587225Y-93597500D01*
X88655346Y-93617502D01*
X88701839Y-93671158D01*
X88710803Y-93698918D01*
X88713266Y-93711301D01*
X88720161Y-93721620D01*
X88720162Y-93721622D01*
X88753522Y-93771548D01*
X88769516Y-93795484D01*
X88779832Y-93802377D01*
X88815773Y-93826392D01*
X88853699Y-93851734D01*
X88927933Y-93866500D01*
X91252812Y-93866500D01*
X93578066Y-93866499D01*
X93613818Y-93859388D01*
X93640126Y-93854156D01*
X93640128Y-93854155D01*
X93652301Y-93851734D01*
X93662621Y-93844839D01*
X93662622Y-93844838D01*
X93726168Y-93802377D01*
X93736484Y-93795484D01*
X93792734Y-93711301D01*
X93807500Y-93637067D01*
X93807499Y-92486934D01*
X93792734Y-92412699D01*
X93736484Y-92328516D01*
X93718896Y-92316764D01*
X93673370Y-92262286D01*
X93664523Y-92191843D01*
X93695165Y-92127800D01*
X93718896Y-92107236D01*
X93726168Y-92102377D01*
X93736484Y-92095484D01*
X93792734Y-92011301D01*
X93807500Y-91937067D01*
X93807499Y-90786934D01*
X93792734Y-90712699D01*
X93736484Y-90628516D01*
X93718448Y-90616464D01*
X93672921Y-90561989D01*
X93664072Y-90491546D01*
X93694713Y-90427502D01*
X93718447Y-90406936D01*
X93725807Y-90402018D01*
X93743017Y-90384808D01*
X93785368Y-90321425D01*
X93794684Y-90298934D01*
X93805793Y-90243085D01*
X93807000Y-90230830D01*
X93807000Y-89934115D01*
X93805659Y-89929548D01*
X95449000Y-89929548D01*
X95449001Y-95080828D01*
X95450209Y-95093088D01*
X95461315Y-95148931D01*
X95470633Y-95171427D01*
X95512983Y-95234808D01*
X95530192Y-95252017D01*
X95593575Y-95294368D01*
X95616066Y-95303684D01*
X95671915Y-95314793D01*
X95684170Y-95316000D01*
X100130885Y-95316000D01*
X100146124Y-95311525D01*
X100147329Y-95310135D01*
X100149000Y-95302452D01*
X100149000Y-95297884D01*
X100657000Y-95297884D01*
X100661475Y-95313123D01*
X100662865Y-95314328D01*
X100670548Y-95315999D01*
X105121828Y-95315999D01*
X105134088Y-95314791D01*
X105189931Y-95303685D01*
X105212427Y-95294367D01*
X105275808Y-95252017D01*
X105293017Y-95234808D01*
X105335368Y-95171425D01*
X105344684Y-95148934D01*
X105355793Y-95093085D01*
X105357000Y-95080830D01*
X105356999Y-91526828D01*
X106080001Y-91526828D01*
X106081209Y-91539088D01*
X106092315Y-91594931D01*
X106101633Y-91617427D01*
X106143983Y-91680808D01*
X106161192Y-91698017D01*
X106224575Y-91740368D01*
X106247066Y-91749684D01*
X106302915Y-91760793D01*
X106315170Y-91762000D01*
X106661885Y-91762000D01*
X106677124Y-91757525D01*
X106678329Y-91756135D01*
X106680000Y-91748452D01*
X106680000Y-91743884D01*
X107188000Y-91743884D01*
X107192475Y-91759123D01*
X107193865Y-91760328D01*
X107201548Y-91761999D01*
X107552828Y-91761999D01*
X107565088Y-91760791D01*
X107620931Y-91749685D01*
X107643427Y-91740367D01*
X107706808Y-91698017D01*
X107724017Y-91680808D01*
X107766368Y-91617425D01*
X107775684Y-91594934D01*
X107786793Y-91539085D01*
X107788000Y-91526830D01*
X107788000Y-91330115D01*
X107783525Y-91314876D01*
X107782135Y-91313671D01*
X107774452Y-91312000D01*
X107206115Y-91312000D01*
X107190876Y-91316475D01*
X107189671Y-91317865D01*
X107188000Y-91325548D01*
X107188000Y-91743884D01*
X106680000Y-91743884D01*
X106680000Y-91330115D01*
X106675525Y-91314876D01*
X106674135Y-91313671D01*
X106666452Y-91312000D01*
X106098116Y-91312000D01*
X106082877Y-91316475D01*
X106081672Y-91317865D01*
X106080001Y-91325548D01*
X106080001Y-91526828D01*
X105356999Y-91526828D01*
X105356999Y-90785885D01*
X106080000Y-90785885D01*
X106084475Y-90801124D01*
X106085865Y-90802329D01*
X106093548Y-90804000D01*
X106661885Y-90804000D01*
X106677124Y-90799525D01*
X106678329Y-90798135D01*
X106680000Y-90790452D01*
X106680000Y-90785885D01*
X107188000Y-90785885D01*
X107192475Y-90801124D01*
X107193865Y-90802329D01*
X107201548Y-90804000D01*
X107769884Y-90804000D01*
X107785123Y-90799525D01*
X107786328Y-90798135D01*
X107787999Y-90790452D01*
X107787999Y-90589172D01*
X107786791Y-90576912D01*
X107775685Y-90521069D01*
X107766367Y-90498573D01*
X107724017Y-90435192D01*
X107706808Y-90417983D01*
X107643425Y-90375632D01*
X107620934Y-90366316D01*
X107565085Y-90355207D01*
X107552830Y-90354000D01*
X107206115Y-90354000D01*
X107190876Y-90358475D01*
X107189671Y-90359865D01*
X107188000Y-90367548D01*
X107188000Y-90785885D01*
X106680000Y-90785885D01*
X106680000Y-90372116D01*
X106675525Y-90356877D01*
X106674135Y-90355672D01*
X106666452Y-90354001D01*
X106315172Y-90354001D01*
X106302912Y-90355209D01*
X106247069Y-90366315D01*
X106224573Y-90375633D01*
X106161192Y-90417983D01*
X106143983Y-90435192D01*
X106101632Y-90498575D01*
X106092316Y-90521066D01*
X106081207Y-90576915D01*
X106080000Y-90589170D01*
X106080000Y-90785885D01*
X105356999Y-90785885D01*
X105356999Y-89934115D01*
X105352524Y-89918876D01*
X105351134Y-89917671D01*
X105343451Y-89916000D01*
X100675115Y-89916000D01*
X100659876Y-89920475D01*
X100658671Y-89921865D01*
X100657000Y-89929548D01*
X100657000Y-95297884D01*
X100149000Y-95297884D01*
X100149000Y-89934115D01*
X100144525Y-89918876D01*
X100143135Y-89917671D01*
X100135452Y-89916000D01*
X95467115Y-89916000D01*
X95451876Y-89920475D01*
X95450671Y-89921865D01*
X95449000Y-89929548D01*
X93805659Y-89929548D01*
X93802525Y-89918876D01*
X93801135Y-89917671D01*
X93793452Y-89916000D01*
X88717116Y-89916000D01*
X88701877Y-89920475D01*
X88700672Y-89921865D01*
X88699001Y-89929548D01*
X88699001Y-90230828D01*
X88700209Y-90243088D01*
X88711315Y-90298931D01*
X88720633Y-90321427D01*
X88762983Y-90384808D01*
X88780193Y-90402018D01*
X88787553Y-90406936D01*
X88833080Y-90461413D01*
X88841927Y-90531856D01*
X88811286Y-90595900D01*
X88787555Y-90616463D01*
X88769516Y-90628516D01*
X88713266Y-90712699D01*
X88698500Y-90786933D01*
X88698500Y-90856500D01*
X88678498Y-90924621D01*
X88624842Y-90971114D01*
X88572500Y-90982500D01*
X87662110Y-90982500D01*
X87593989Y-90962498D01*
X87547496Y-90908842D01*
X87544135Y-90900748D01*
X87536071Y-90879236D01*
X87530691Y-90872057D01*
X87530689Y-90872054D01*
X87454785Y-90770776D01*
X87449404Y-90763596D01*
X87397737Y-90724874D01*
X87340946Y-90682311D01*
X87340943Y-90682309D01*
X87333764Y-90676929D01*
X87214744Y-90632311D01*
X87205843Y-90628974D01*
X87205841Y-90628974D01*
X87198448Y-90626202D01*
X87190598Y-90625349D01*
X87190597Y-90625349D01*
X87140153Y-90619869D01*
X87140152Y-90619869D01*
X87136756Y-90619500D01*
X86091244Y-90619500D01*
X86087848Y-90619869D01*
X86087847Y-90619869D01*
X86037403Y-90625349D01*
X86037402Y-90625349D01*
X86029552Y-90626202D01*
X86022159Y-90628974D01*
X86022157Y-90628974D01*
X86013256Y-90632311D01*
X85894236Y-90676929D01*
X85887057Y-90682309D01*
X85887054Y-90682311D01*
X85830263Y-90724874D01*
X85778596Y-90763596D01*
X85749567Y-90802329D01*
X85700559Y-90867721D01*
X85643700Y-90910236D01*
X85572882Y-90915262D01*
X85510588Y-90881202D01*
X85487341Y-90845073D01*
X85486533Y-90845515D01*
X85482221Y-90837638D01*
X85479071Y-90829236D01*
X85473691Y-90822057D01*
X85473689Y-90822054D01*
X85397785Y-90720776D01*
X85392404Y-90713596D01*
X85371977Y-90698287D01*
X85283946Y-90632311D01*
X85283943Y-90632309D01*
X85276764Y-90626929D01*
X85176041Y-90589170D01*
X85148843Y-90578974D01*
X85148841Y-90578974D01*
X85141448Y-90576202D01*
X85133598Y-90575349D01*
X85133597Y-90575349D01*
X85083153Y-90569869D01*
X85083152Y-90569869D01*
X85079756Y-90569500D01*
X84084244Y-90569500D01*
X84080848Y-90569869D01*
X84080847Y-90569869D01*
X84030403Y-90575349D01*
X84030402Y-90575349D01*
X84022552Y-90576202D01*
X84015159Y-90578974D01*
X84015157Y-90578974D01*
X83987959Y-90589170D01*
X83887236Y-90626929D01*
X83880057Y-90632309D01*
X83880054Y-90632311D01*
X83792023Y-90698287D01*
X83771596Y-90713596D01*
X83766215Y-90720776D01*
X83690311Y-90822054D01*
X83690309Y-90822057D01*
X83684929Y-90829236D01*
X83634202Y-90964552D01*
X83627500Y-91026244D01*
X83627500Y-91646756D01*
X83634202Y-91708448D01*
X83684929Y-91843764D01*
X83690309Y-91850943D01*
X83690311Y-91850946D01*
X83754855Y-91937066D01*
X83771596Y-91959404D01*
X83778776Y-91964785D01*
X83880054Y-92040689D01*
X83880057Y-92040691D01*
X83887236Y-92046071D01*
X83988461Y-92084018D01*
X84045226Y-92126659D01*
X84069926Y-92193220D01*
X84054719Y-92262569D01*
X84004433Y-92312688D01*
X83988461Y-92319982D01*
X83887236Y-92357929D01*
X83880057Y-92363309D01*
X83880054Y-92363311D01*
X83827925Y-92402380D01*
X83771596Y-92444596D01*
X83766215Y-92451776D01*
X83690311Y-92553054D01*
X83690309Y-92553057D01*
X83684929Y-92560236D01*
X83634202Y-92695552D01*
X83627500Y-92757244D01*
X83627500Y-93377756D01*
X64516000Y-93377756D01*
X64516000Y-93231885D01*
X74488000Y-93231885D01*
X74492475Y-93247124D01*
X74493865Y-93248329D01*
X74501548Y-93250000D01*
X75419885Y-93250000D01*
X75435124Y-93245525D01*
X75436329Y-93244135D01*
X75438000Y-93236452D01*
X75438000Y-93231885D01*
X75946000Y-93231885D01*
X75950475Y-93247124D01*
X75951865Y-93248329D01*
X75959548Y-93250000D01*
X76877884Y-93250000D01*
X76893123Y-93245525D01*
X76894328Y-93244135D01*
X76895999Y-93236452D01*
X76895999Y-91509708D01*
X76895630Y-91502890D01*
X76890159Y-91452518D01*
X76886530Y-91437259D01*
X76841778Y-91317882D01*
X76833246Y-91302296D01*
X76757428Y-91201133D01*
X76744867Y-91188572D01*
X76643704Y-91112754D01*
X76628118Y-91104222D01*
X76508735Y-91059467D01*
X76493490Y-91055842D01*
X76443108Y-91050369D01*
X76436294Y-91050000D01*
X75964115Y-91050000D01*
X75948876Y-91054475D01*
X75947671Y-91055865D01*
X75946000Y-91063548D01*
X75946000Y-93231885D01*
X75438000Y-93231885D01*
X75438000Y-91068116D01*
X75433525Y-91052877D01*
X75432135Y-91051672D01*
X75424452Y-91050001D01*
X74947708Y-91050001D01*
X74940890Y-91050370D01*
X74890518Y-91055841D01*
X74875259Y-91059470D01*
X74755882Y-91104222D01*
X74740296Y-91112754D01*
X74639133Y-91188572D01*
X74626572Y-91201133D01*
X74550754Y-91302296D01*
X74542222Y-91317882D01*
X74497467Y-91437265D01*
X74493842Y-91452510D01*
X74488369Y-91502892D01*
X74488000Y-91509706D01*
X74488000Y-93231885D01*
X64516000Y-93231885D01*
X64516000Y-90160187D01*
X64516607Y-90147837D01*
X64528612Y-90025946D01*
X64533999Y-89971260D01*
X64538815Y-89947043D01*
X64588518Y-89783190D01*
X64597971Y-89760371D01*
X64678681Y-89609372D01*
X64692399Y-89588842D01*
X64801026Y-89456479D01*
X64818479Y-89439026D01*
X64950842Y-89330399D01*
X64971369Y-89316683D01*
X65122371Y-89235971D01*
X65145191Y-89226518D01*
X65309043Y-89176815D01*
X65333260Y-89171999D01*
X65509837Y-89154607D01*
X65522187Y-89154000D01*
X83501500Y-89154000D01*
X83569621Y-89174002D01*
G37*
%TD.AperFunction*%
%TD*%
%TA.AperFunction,Conductor*%
%TO.N,Vout*%
G36*
X149006163Y-89154607D02*
G01*
X149182740Y-89171999D01*
X149206957Y-89176815D01*
X149370809Y-89226518D01*
X149393629Y-89235971D01*
X149544631Y-89316683D01*
X149565158Y-89330399D01*
X149697514Y-89439020D01*
X149714978Y-89456484D01*
X149716900Y-89458826D01*
X149744653Y-89524174D01*
X149745500Y-89538759D01*
X149745500Y-104614757D01*
X149725498Y-104682878D01*
X149671842Y-104729371D01*
X149601568Y-104739475D01*
X149536988Y-104709981D01*
X149510039Y-104676577D01*
X149507628Y-104670147D01*
X149502246Y-104662965D01*
X149431711Y-104568850D01*
X149426330Y-104561670D01*
X149317853Y-104480372D01*
X149309452Y-104477222D01*
X149309449Y-104477221D01*
X149211624Y-104440548D01*
X149190919Y-104432786D01*
X149183066Y-104431933D01*
X149183062Y-104431932D01*
X149136452Y-104426869D01*
X149136448Y-104426869D01*
X149133053Y-104426500D01*
X148869539Y-104426500D01*
X148605948Y-104426501D01*
X148548081Y-104432786D01*
X148493245Y-104453343D01*
X148429551Y-104477221D01*
X148429548Y-104477222D01*
X148421147Y-104480372D01*
X148312670Y-104561670D01*
X148231372Y-104670147D01*
X148228222Y-104678548D01*
X148228221Y-104678551D01*
X148199982Y-104753879D01*
X148157340Y-104810643D01*
X148090779Y-104835343D01*
X148021430Y-104820135D01*
X147971312Y-104769849D01*
X147964018Y-104753879D01*
X147935779Y-104678551D01*
X147935778Y-104678548D01*
X147932628Y-104670147D01*
X147851330Y-104561670D01*
X147742853Y-104480372D01*
X147734452Y-104477222D01*
X147734449Y-104477221D01*
X147636624Y-104440548D01*
X147615919Y-104432786D01*
X147608066Y-104431933D01*
X147608062Y-104431932D01*
X147561452Y-104426869D01*
X147561448Y-104426869D01*
X147558053Y-104426500D01*
X147294539Y-104426500D01*
X147030948Y-104426501D01*
X146973081Y-104432786D01*
X146918245Y-104453343D01*
X146854551Y-104477221D01*
X146854548Y-104477222D01*
X146846147Y-104480372D01*
X146737670Y-104561670D01*
X146663757Y-104660294D01*
X146663229Y-104660998D01*
X146606370Y-104703514D01*
X146535551Y-104708540D01*
X146473258Y-104674481D01*
X146461051Y-104660294D01*
X146389602Y-104563561D01*
X146384010Y-104555990D01*
X146274076Y-104474791D01*
X146145127Y-104429507D01*
X146137485Y-104428785D01*
X146137482Y-104428784D01*
X146122579Y-104427376D01*
X146113315Y-104426500D01*
X145859172Y-104426500D01*
X145604686Y-104426501D01*
X145601738Y-104426780D01*
X145601729Y-104426780D01*
X145580522Y-104428784D01*
X145580520Y-104428784D01*
X145572873Y-104429507D01*
X145565623Y-104432053D01*
X145564211Y-104432549D01*
X145443924Y-104474791D01*
X145333990Y-104555990D01*
X145252791Y-104665924D01*
X145207507Y-104794873D01*
X145204500Y-104826685D01*
X145204501Y-105485314D01*
X145204780Y-105488262D01*
X145204780Y-105488271D01*
X145206784Y-105509478D01*
X145207507Y-105517127D01*
X145252791Y-105646076D01*
X145333990Y-105756010D01*
X145443924Y-105837209D01*
X145572873Y-105882493D01*
X145580515Y-105883215D01*
X145580518Y-105883216D01*
X145595421Y-105884624D01*
X145604685Y-105885500D01*
X145858828Y-105885500D01*
X146113314Y-105885499D01*
X146116262Y-105885220D01*
X146116271Y-105885220D01*
X146137478Y-105883216D01*
X146137480Y-105883216D01*
X146145127Y-105882493D01*
X146153787Y-105879452D01*
X146176567Y-105871452D01*
X146274076Y-105837209D01*
X146384010Y-105756010D01*
X146427416Y-105697243D01*
X146461051Y-105651706D01*
X146517612Y-105608795D01*
X146588394Y-105603276D01*
X146650924Y-105636900D01*
X146663227Y-105651000D01*
X146737670Y-105750330D01*
X146846147Y-105831628D01*
X146854548Y-105834778D01*
X146854551Y-105834779D01*
X146930475Y-105863242D01*
X146973081Y-105879214D01*
X146980934Y-105880067D01*
X146980938Y-105880068D01*
X147027548Y-105885131D01*
X147027552Y-105885131D01*
X147030947Y-105885500D01*
X147037814Y-105885500D01*
X147299119Y-105885499D01*
X147367237Y-105905501D01*
X147413730Y-105959156D01*
X147423835Y-106029430D01*
X147394342Y-106094011D01*
X147388212Y-106100594D01*
X146736892Y-106751914D01*
X146674580Y-106785940D01*
X146603765Y-106780875D01*
X146547834Y-106739522D01*
X146480587Y-106651883D01*
X146480582Y-106651878D01*
X146477167Y-106647427D01*
X146473021Y-106643654D01*
X146473016Y-106643649D01*
X146315689Y-106500493D01*
X146311536Y-106496714D01*
X146121833Y-106377714D01*
X145914056Y-106294188D01*
X145908564Y-106293051D01*
X145908562Y-106293050D01*
X145757754Y-106261819D01*
X145694772Y-106248776D01*
X145690161Y-106248510D01*
X145690160Y-106248510D01*
X145639775Y-106245605D01*
X145639771Y-106245605D01*
X145637952Y-106245500D01*
X143993181Y-106245500D01*
X143990394Y-106245749D01*
X143990388Y-106245749D01*
X143921038Y-106251939D01*
X143826949Y-106260336D01*
X143610949Y-106319427D01*
X143605891Y-106321839D01*
X143605887Y-106321841D01*
X143424638Y-106408292D01*
X143408826Y-106415834D01*
X143404265Y-106419111D01*
X143404264Y-106419112D01*
X143291011Y-106500493D01*
X143226970Y-106546511D01*
X143071129Y-106707326D01*
X143068001Y-106711981D01*
X142963162Y-106868000D01*
X142946230Y-106893197D01*
X142856218Y-107098248D01*
X142803941Y-107315998D01*
X142791051Y-107539564D01*
X142817954Y-107761880D01*
X142883800Y-107975917D01*
X142986509Y-108174912D01*
X143122833Y-108352573D01*
X143126979Y-108356346D01*
X143126984Y-108356351D01*
X143229309Y-108449459D01*
X143288464Y-108503286D01*
X143478167Y-108622286D01*
X143685944Y-108705812D01*
X143691436Y-108706949D01*
X143691438Y-108706950D01*
X143832059Y-108736071D01*
X143905228Y-108751224D01*
X143909839Y-108751490D01*
X143909840Y-108751490D01*
X143960225Y-108754395D01*
X143960229Y-108754395D01*
X143962048Y-108754500D01*
X145606819Y-108754500D01*
X145609606Y-108754251D01*
X145609612Y-108754251D01*
X145678962Y-108748061D01*
X145773051Y-108739664D01*
X145989051Y-108680573D01*
X145994109Y-108678161D01*
X145994113Y-108678159D01*
X146186107Y-108586583D01*
X146186109Y-108586582D01*
X146191174Y-108584166D01*
X146299578Y-108506270D01*
X146368470Y-108456766D01*
X146368472Y-108456764D01*
X146373030Y-108453489D01*
X146528871Y-108292674D01*
X146608003Y-108174912D01*
X146650641Y-108111460D01*
X146650643Y-108111457D01*
X146653770Y-108106803D01*
X146743782Y-107901752D01*
X146761654Y-107827309D01*
X146791646Y-107771197D01*
X146797901Y-107764430D01*
X146801333Y-107760861D01*
X148639789Y-105922405D01*
X148702101Y-105888379D01*
X148728884Y-105885500D01*
X149104986Y-105885499D01*
X149133052Y-105885499D01*
X149190919Y-105879214D01*
X149245755Y-105858657D01*
X149309449Y-105834779D01*
X149309452Y-105834778D01*
X149317853Y-105831628D01*
X149426330Y-105750330D01*
X149507628Y-105641853D01*
X149509885Y-105635832D01*
X149559238Y-105586588D01*
X149628629Y-105571574D01*
X149695121Y-105596459D01*
X149737605Y-105653342D01*
X149745500Y-105697243D01*
X149745500Y-115439241D01*
X149725498Y-115507362D01*
X149716900Y-115519174D01*
X149714978Y-115521516D01*
X149697515Y-115538979D01*
X149565158Y-115647601D01*
X149544631Y-115661317D01*
X149466088Y-115703299D01*
X149393629Y-115742029D01*
X149370810Y-115751482D01*
X149206957Y-115801185D01*
X149182740Y-115806001D01*
X149006163Y-115823393D01*
X148993813Y-115824000D01*
X146674793Y-115824000D01*
X146606672Y-115803998D01*
X146574830Y-115774704D01*
X146480582Y-115651878D01*
X146477167Y-115647427D01*
X146473021Y-115643654D01*
X146473016Y-115643649D01*
X146315689Y-115500493D01*
X146311536Y-115496714D01*
X146121833Y-115377714D01*
X145914056Y-115294188D01*
X145908564Y-115293051D01*
X145908562Y-115293050D01*
X145757754Y-115261819D01*
X145694772Y-115248776D01*
X145690161Y-115248510D01*
X145690160Y-115248510D01*
X145639775Y-115245605D01*
X145639771Y-115245605D01*
X145637952Y-115245500D01*
X143993181Y-115245500D01*
X143990394Y-115245749D01*
X143990388Y-115245749D01*
X143921038Y-115251939D01*
X143826949Y-115260336D01*
X143610949Y-115319427D01*
X143605891Y-115321839D01*
X143605887Y-115321841D01*
X143413893Y-115413417D01*
X143408826Y-115415834D01*
X143404265Y-115419111D01*
X143404264Y-115419112D01*
X143237452Y-115538979D01*
X143226970Y-115546511D01*
X143071129Y-115707326D01*
X143047810Y-115742029D01*
X143030173Y-115768276D01*
X142975577Y-115813661D01*
X142925591Y-115824000D01*
X109972187Y-115824000D01*
X109959837Y-115823393D01*
X109783260Y-115806001D01*
X109759043Y-115801185D01*
X109595190Y-115751482D01*
X109572371Y-115742029D01*
X109499912Y-115703299D01*
X109421369Y-115661317D01*
X109400842Y-115647601D01*
X109268479Y-115538974D01*
X109251026Y-115521521D01*
X109142399Y-115389158D01*
X109128681Y-115368628D01*
X109047971Y-115217629D01*
X109038518Y-115194809D01*
X108988815Y-115030957D01*
X108983998Y-115006737D01*
X108966607Y-114830163D01*
X108966000Y-114817813D01*
X108966000Y-114018828D01*
X136546001Y-114018828D01*
X136547209Y-114031088D01*
X136558315Y-114086931D01*
X136567633Y-114109427D01*
X136609983Y-114172808D01*
X136627192Y-114190017D01*
X136690575Y-114232368D01*
X136713066Y-114241684D01*
X136768915Y-114252793D01*
X136781170Y-114254000D01*
X137527885Y-114254000D01*
X137543124Y-114249525D01*
X137544329Y-114248135D01*
X137546000Y-114240452D01*
X137546000Y-114235884D01*
X138054000Y-114235884D01*
X138058475Y-114251123D01*
X138059865Y-114252328D01*
X138067548Y-114253999D01*
X138818828Y-114253999D01*
X138831088Y-114252791D01*
X138886931Y-114241685D01*
X138909427Y-114232367D01*
X138972808Y-114190017D01*
X138990017Y-114172808D01*
X139032368Y-114109425D01*
X139041684Y-114086934D01*
X139052793Y-114031085D01*
X139054000Y-114018830D01*
X139054000Y-112706819D01*
X142545500Y-112706819D01*
X142545749Y-112709606D01*
X142545749Y-112709612D01*
X142549096Y-112747114D01*
X142560336Y-112873051D01*
X142619427Y-113089051D01*
X142715834Y-113291174D01*
X142846511Y-113473030D01*
X143007326Y-113628871D01*
X143011981Y-113631999D01*
X143188540Y-113750641D01*
X143188543Y-113750643D01*
X143193197Y-113753770D01*
X143398248Y-113843782D01*
X143615998Y-113896059D01*
X143700143Y-113900911D01*
X143833957Y-113908626D01*
X143833960Y-113908626D01*
X143839564Y-113908949D01*
X144061880Y-113882046D01*
X144275917Y-113816200D01*
X144280897Y-113813630D01*
X144280901Y-113813628D01*
X144469929Y-113716063D01*
X144469930Y-113716063D01*
X144474912Y-113713491D01*
X144652573Y-113577167D01*
X144656346Y-113573021D01*
X144656351Y-113573016D01*
X144799507Y-113415689D01*
X144803286Y-113411536D01*
X144922286Y-113221833D01*
X145005812Y-113014056D01*
X145013537Y-112976757D01*
X145050287Y-112799296D01*
X145051224Y-112794772D01*
X145054500Y-112737952D01*
X145054500Y-111992603D01*
X145740424Y-111992603D01*
X145759166Y-112198550D01*
X145817554Y-112396934D01*
X145820411Y-112402399D01*
X145910508Y-112574739D01*
X145910511Y-112574743D01*
X145913363Y-112580199D01*
X145917223Y-112584999D01*
X145917223Y-112585000D01*
X145923271Y-112592522D01*
X146042943Y-112741365D01*
X146201360Y-112874292D01*
X146382578Y-112973918D01*
X146579696Y-113036447D01*
X146585813Y-113037133D01*
X146585817Y-113037134D01*
X146661837Y-113045661D01*
X146740640Y-113054500D01*
X146852034Y-113054500D01*
X147005811Y-113039422D01*
X147203783Y-112979651D01*
X147295079Y-112931108D01*
X147380933Y-112885459D01*
X147380936Y-112885457D01*
X147386375Y-112882565D01*
X147391145Y-112878674D01*
X147391149Y-112878672D01*
X147541857Y-112755758D01*
X147541860Y-112755755D01*
X147546632Y-112751863D01*
X147586214Y-112704017D01*
X147674522Y-112597271D01*
X147674525Y-112597266D01*
X147678450Y-112592522D01*
X147685113Y-112580199D01*
X147773878Y-112416032D01*
X147773880Y-112416027D01*
X147776808Y-112410612D01*
X147837960Y-112213063D01*
X147859576Y-112007397D01*
X147840834Y-111801450D01*
X147782446Y-111603066D01*
X147772462Y-111583968D01*
X147689492Y-111425261D01*
X147689489Y-111425257D01*
X147686637Y-111419801D01*
X147681089Y-111412900D01*
X147587085Y-111295983D01*
X147557057Y-111258635D01*
X147398640Y-111125708D01*
X147217422Y-111026082D01*
X147020304Y-110963553D01*
X147014187Y-110962867D01*
X147014183Y-110962866D01*
X146938163Y-110954339D01*
X146859360Y-110945500D01*
X146747966Y-110945500D01*
X146594189Y-110960578D01*
X146396217Y-111020349D01*
X146304921Y-111068892D01*
X146219067Y-111114541D01*
X146219064Y-111114543D01*
X146213625Y-111117435D01*
X146208855Y-111121326D01*
X146208851Y-111121328D01*
X146058143Y-111244242D01*
X146058140Y-111244245D01*
X146053368Y-111248137D01*
X146049441Y-111252884D01*
X146049439Y-111252886D01*
X145925478Y-111402729D01*
X145925475Y-111402734D01*
X145921550Y-111407478D01*
X145918620Y-111412897D01*
X145918618Y-111412900D01*
X145826122Y-111583968D01*
X145826120Y-111583973D01*
X145823192Y-111589388D01*
X145762040Y-111786937D01*
X145740424Y-111992603D01*
X145054500Y-111992603D01*
X145054500Y-111293181D01*
X145051722Y-111262048D01*
X145046650Y-111205228D01*
X145039664Y-111126949D01*
X144980573Y-110910949D01*
X144884166Y-110708826D01*
X144753489Y-110526970D01*
X144592674Y-110371129D01*
X144466745Y-110286509D01*
X144411460Y-110249359D01*
X144411457Y-110249357D01*
X144406803Y-110246230D01*
X144201752Y-110156218D01*
X143984002Y-110103941D01*
X143899857Y-110099089D01*
X143766043Y-110091374D01*
X143766040Y-110091374D01*
X143760436Y-110091051D01*
X143538120Y-110117954D01*
X143324083Y-110183800D01*
X143319103Y-110186370D01*
X143319099Y-110186372D01*
X143130071Y-110283937D01*
X143125088Y-110286509D01*
X142947427Y-110422833D01*
X142943654Y-110426979D01*
X142943649Y-110426984D01*
X142852669Y-110526970D01*
X142796714Y-110588464D01*
X142677714Y-110778167D01*
X142594188Y-110985944D01*
X142593051Y-110991436D01*
X142593050Y-110991438D01*
X142585876Y-111026082D01*
X142548776Y-111205228D01*
X142545500Y-111262048D01*
X142545500Y-112706819D01*
X139054000Y-112706819D01*
X139054000Y-112272115D01*
X139049525Y-112256876D01*
X139048135Y-112255671D01*
X139040452Y-112254000D01*
X138072115Y-112254000D01*
X138056876Y-112258475D01*
X138055671Y-112259865D01*
X138054000Y-112267548D01*
X138054000Y-114235884D01*
X137546000Y-114235884D01*
X137546000Y-112272115D01*
X137541525Y-112256876D01*
X137540135Y-112255671D01*
X137532452Y-112254000D01*
X136564116Y-112254000D01*
X136548877Y-112258475D01*
X136547672Y-112259865D01*
X136546001Y-112267548D01*
X136546001Y-114018828D01*
X108966000Y-114018828D01*
X108966000Y-111727885D01*
X136546000Y-111727885D01*
X136550475Y-111743124D01*
X136551865Y-111744329D01*
X136559548Y-111746000D01*
X137527885Y-111746000D01*
X137543124Y-111741525D01*
X137544329Y-111740135D01*
X137546000Y-111732452D01*
X137546000Y-111727885D01*
X138054000Y-111727885D01*
X138058475Y-111743124D01*
X138059865Y-111744329D01*
X138067548Y-111746000D01*
X139035884Y-111746000D01*
X139051123Y-111741525D01*
X139052328Y-111740135D01*
X139053999Y-111732452D01*
X139053999Y-109981172D01*
X139052791Y-109968912D01*
X139041685Y-109913069D01*
X139032367Y-109890573D01*
X138990017Y-109827192D01*
X138972808Y-109809983D01*
X138909425Y-109767632D01*
X138886934Y-109758316D01*
X138831085Y-109747207D01*
X138818830Y-109746000D01*
X138072115Y-109746000D01*
X138056876Y-109750475D01*
X138055671Y-109751865D01*
X138054000Y-109759548D01*
X138054000Y-111727885D01*
X137546000Y-111727885D01*
X137546000Y-109764116D01*
X137541525Y-109748877D01*
X137540135Y-109747672D01*
X137532452Y-109746001D01*
X136781172Y-109746001D01*
X136768912Y-109747209D01*
X136713069Y-109758315D01*
X136690573Y-109767633D01*
X136627192Y-109809983D01*
X136609983Y-109827192D01*
X136567632Y-109890575D01*
X136558316Y-109913066D01*
X136547207Y-109968915D01*
X136546000Y-109981170D01*
X136546000Y-111727885D01*
X108966000Y-111727885D01*
X108966000Y-106408292D01*
X110862001Y-106408292D01*
X110862370Y-106415110D01*
X110867841Y-106465482D01*
X110871470Y-106480741D01*
X110916222Y-106600118D01*
X110924754Y-106615704D01*
X111000572Y-106716867D01*
X111013133Y-106729428D01*
X111114296Y-106805246D01*
X111129882Y-106813778D01*
X111249265Y-106858533D01*
X111264510Y-106862158D01*
X111314892Y-106867631D01*
X111321706Y-106868000D01*
X113043885Y-106868000D01*
X113059124Y-106863525D01*
X113060329Y-106862135D01*
X113062000Y-106854452D01*
X113062000Y-106849884D01*
X113570000Y-106849884D01*
X113574475Y-106865123D01*
X113575865Y-106866328D01*
X113583548Y-106867999D01*
X115310292Y-106867999D01*
X115317110Y-106867630D01*
X115367482Y-106862159D01*
X115382741Y-106858530D01*
X115502118Y-106813778D01*
X115517704Y-106805246D01*
X115618867Y-106729428D01*
X115631428Y-106716867D01*
X115707246Y-106615704D01*
X115715778Y-106600118D01*
X115760533Y-106480735D01*
X115764158Y-106465490D01*
X115769631Y-106415108D01*
X115770000Y-106408294D01*
X115770000Y-105936115D01*
X115765525Y-105920876D01*
X115764135Y-105919671D01*
X115756452Y-105918000D01*
X113588115Y-105918000D01*
X113572876Y-105922475D01*
X113571671Y-105923865D01*
X113570000Y-105931548D01*
X113570000Y-106849884D01*
X113062000Y-106849884D01*
X113062000Y-105936115D01*
X113057525Y-105920876D01*
X113056135Y-105919671D01*
X113048452Y-105918000D01*
X110880116Y-105918000D01*
X110864877Y-105922475D01*
X110863672Y-105923865D01*
X110862001Y-105931548D01*
X110862001Y-106408292D01*
X108966000Y-106408292D01*
X108966000Y-105482283D01*
X143555001Y-105482283D01*
X143555280Y-105488207D01*
X143557281Y-105509382D01*
X143560549Y-105524280D01*
X143600116Y-105636951D01*
X143608837Y-105653420D01*
X143678752Y-105748078D01*
X143691922Y-105761248D01*
X143786580Y-105831163D01*
X143803049Y-105839884D01*
X143915723Y-105879452D01*
X143930614Y-105882719D01*
X143941235Y-105883723D01*
X143952124Y-105880525D01*
X143953329Y-105879135D01*
X143955000Y-105871452D01*
X143955000Y-105866884D01*
X144463000Y-105866884D01*
X144467475Y-105882123D01*
X144468865Y-105883328D01*
X144472521Y-105884123D01*
X144487382Y-105882719D01*
X144502280Y-105879451D01*
X144614951Y-105839884D01*
X144631420Y-105831163D01*
X144726078Y-105761248D01*
X144739248Y-105748078D01*
X144809163Y-105653420D01*
X144817884Y-105636951D01*
X144857452Y-105524277D01*
X144860719Y-105509386D01*
X144862721Y-105488201D01*
X144863000Y-105482287D01*
X144863000Y-105428115D01*
X144858525Y-105412876D01*
X144857135Y-105411671D01*
X144849452Y-105410000D01*
X144481115Y-105410000D01*
X144465876Y-105414475D01*
X144464671Y-105415865D01*
X144463000Y-105423548D01*
X144463000Y-105866884D01*
X143955000Y-105866884D01*
X143955000Y-105428115D01*
X143950525Y-105412876D01*
X143949135Y-105411671D01*
X143941452Y-105410000D01*
X143573116Y-105410000D01*
X143557877Y-105414475D01*
X143556672Y-105415865D01*
X143555001Y-105423548D01*
X143555001Y-105482283D01*
X108966000Y-105482283D01*
X108966000Y-105391885D01*
X110862000Y-105391885D01*
X110866475Y-105407124D01*
X110867865Y-105408329D01*
X110875548Y-105410000D01*
X113043885Y-105410000D01*
X113059124Y-105405525D01*
X113060329Y-105404135D01*
X113062000Y-105396452D01*
X113062000Y-105391885D01*
X113570000Y-105391885D01*
X113574475Y-105407124D01*
X113575865Y-105408329D01*
X113583548Y-105410000D01*
X115751884Y-105410000D01*
X115767123Y-105405525D01*
X115768328Y-105404135D01*
X115769999Y-105396452D01*
X115769999Y-104919708D01*
X115769630Y-104912890D01*
X115766480Y-104883885D01*
X143555000Y-104883885D01*
X143559475Y-104899124D01*
X143560865Y-104900329D01*
X143568548Y-104902000D01*
X143936885Y-104902000D01*
X143952124Y-104897525D01*
X143953329Y-104896135D01*
X143955000Y-104888452D01*
X143955000Y-104883885D01*
X144463000Y-104883885D01*
X144467475Y-104899124D01*
X144468865Y-104900329D01*
X144476548Y-104902000D01*
X144844884Y-104902000D01*
X144860123Y-104897525D01*
X144861328Y-104896135D01*
X144862999Y-104888452D01*
X144862999Y-104829717D01*
X144862720Y-104823793D01*
X144860719Y-104802618D01*
X144857451Y-104787720D01*
X144817884Y-104675049D01*
X144809163Y-104658580D01*
X144739248Y-104563922D01*
X144726078Y-104550752D01*
X144631420Y-104480837D01*
X144614951Y-104472116D01*
X144502277Y-104432548D01*
X144487386Y-104429281D01*
X144476765Y-104428277D01*
X144465876Y-104431475D01*
X144464671Y-104432865D01*
X144463000Y-104440548D01*
X144463000Y-104883885D01*
X143955000Y-104883885D01*
X143955000Y-104445116D01*
X143950525Y-104429877D01*
X143949135Y-104428672D01*
X143945479Y-104427877D01*
X143930618Y-104429281D01*
X143915720Y-104432549D01*
X143803049Y-104472116D01*
X143786580Y-104480837D01*
X143691922Y-104550752D01*
X143678752Y-104563922D01*
X143608837Y-104658580D01*
X143600116Y-104675049D01*
X143560548Y-104787723D01*
X143557281Y-104802614D01*
X143555279Y-104823799D01*
X143555000Y-104829713D01*
X143555000Y-104883885D01*
X115766480Y-104883885D01*
X115764159Y-104862518D01*
X115760530Y-104847259D01*
X115715778Y-104727882D01*
X115707246Y-104712296D01*
X115631428Y-104611133D01*
X115618867Y-104598572D01*
X115517704Y-104522754D01*
X115502118Y-104514222D01*
X115382735Y-104469467D01*
X115367490Y-104465842D01*
X115317108Y-104460369D01*
X115310294Y-104460000D01*
X113588115Y-104460000D01*
X113572876Y-104464475D01*
X113571671Y-104465865D01*
X113570000Y-104473548D01*
X113570000Y-105391885D01*
X113062000Y-105391885D01*
X113062000Y-104478116D01*
X113057525Y-104462877D01*
X113056135Y-104461672D01*
X113048452Y-104460001D01*
X111321708Y-104460001D01*
X111314890Y-104460370D01*
X111264518Y-104465841D01*
X111249259Y-104469470D01*
X111129882Y-104514222D01*
X111114296Y-104522754D01*
X111013133Y-104598572D01*
X111000572Y-104611133D01*
X110924754Y-104712296D01*
X110916222Y-104727882D01*
X110871467Y-104847265D01*
X110867842Y-104862510D01*
X110862369Y-104912892D01*
X110862000Y-104919706D01*
X110862000Y-105391885D01*
X108966000Y-105391885D01*
X108966000Y-98219357D01*
X110381473Y-98219357D01*
X110384256Y-98223075D01*
X110509835Y-98269777D01*
X110523421Y-98273164D01*
X110677128Y-98293674D01*
X110691124Y-98293967D01*
X110845550Y-98279912D01*
X110859276Y-98277095D01*
X111006752Y-98229177D01*
X111011688Y-98226938D01*
X111018969Y-98219086D01*
X111015464Y-98210674D01*
X110712812Y-97908022D01*
X110698868Y-97900408D01*
X110697035Y-97900539D01*
X110690420Y-97904790D01*
X110388233Y-98206977D01*
X110381473Y-98219357D01*
X108966000Y-98219357D01*
X108966000Y-97532418D01*
X109941991Y-97532418D01*
X109957123Y-97686748D01*
X109960034Y-97700442D01*
X110008980Y-97847581D01*
X110009687Y-97849110D01*
X110016497Y-97855336D01*
X110025117Y-97851673D01*
X110327978Y-97548812D01*
X110334356Y-97537132D01*
X111064408Y-97537132D01*
X111064539Y-97538965D01*
X111068790Y-97545580D01*
X111370635Y-97847425D01*
X111383015Y-97854185D01*
X111386831Y-97851328D01*
X111432431Y-97731285D01*
X111435913Y-97717724D01*
X111457924Y-97561109D01*
X111458530Y-97553225D01*
X111458716Y-97539962D01*
X111458329Y-97532062D01*
X111440700Y-97374891D01*
X111437599Y-97361245D01*
X111390960Y-97227317D01*
X111382757Y-97215844D01*
X111378749Y-97216625D01*
X111378139Y-97217071D01*
X111072022Y-97523188D01*
X111064408Y-97537132D01*
X110334356Y-97537132D01*
X110335592Y-97534868D01*
X110335461Y-97533035D01*
X110331210Y-97526420D01*
X110028650Y-97223860D01*
X110016270Y-97217100D01*
X110012648Y-97219811D01*
X109964913Y-97350962D01*
X109961621Y-97364570D01*
X109942187Y-97518412D01*
X109941991Y-97532418D01*
X108966000Y-97532418D01*
X108966000Y-96852055D01*
X110380269Y-96852055D01*
X110384089Y-96860879D01*
X110687188Y-97163978D01*
X110701132Y-97171592D01*
X110702965Y-97171461D01*
X110709580Y-97167210D01*
X111012544Y-96864246D01*
X111019304Y-96851866D01*
X111016719Y-96848412D01*
X111016419Y-96848252D01*
X110879902Y-96799640D01*
X110866275Y-96796443D01*
X110712289Y-96778081D01*
X110698293Y-96777983D01*
X110544065Y-96794193D01*
X110530401Y-96797198D01*
X110385148Y-96846646D01*
X110380269Y-96852055D01*
X108966000Y-96852055D01*
X108966000Y-95572828D01*
X112108001Y-95572828D01*
X112109209Y-95585088D01*
X112120315Y-95640931D01*
X112129633Y-95663427D01*
X112171983Y-95726808D01*
X112189192Y-95744017D01*
X112252575Y-95786368D01*
X112275066Y-95795684D01*
X112330915Y-95806793D01*
X112343170Y-95808000D01*
X114789885Y-95808000D01*
X114805124Y-95803525D01*
X114806329Y-95802135D01*
X114808000Y-95794452D01*
X114808000Y-95789884D01*
X115316000Y-95789884D01*
X115320475Y-95805123D01*
X115321865Y-95806328D01*
X115329548Y-95807999D01*
X117780828Y-95807999D01*
X117793088Y-95806791D01*
X117848931Y-95795685D01*
X117871427Y-95786367D01*
X117934808Y-95744017D01*
X117952017Y-95726808D01*
X117994368Y-95663425D01*
X118003684Y-95640934D01*
X118014793Y-95585085D01*
X118016000Y-95572830D01*
X118016000Y-94376115D01*
X118011525Y-94360876D01*
X118010135Y-94359671D01*
X118002452Y-94358000D01*
X115334115Y-94358000D01*
X115318876Y-94362475D01*
X115317671Y-94363865D01*
X115316000Y-94371548D01*
X115316000Y-95789884D01*
X114808000Y-95789884D01*
X114808000Y-94376115D01*
X114803525Y-94360876D01*
X114802135Y-94359671D01*
X114794452Y-94358000D01*
X112126116Y-94358000D01*
X112110877Y-94362475D01*
X112109672Y-94363865D01*
X112108001Y-94371548D01*
X112108001Y-95572828D01*
X108966000Y-95572828D01*
X108966000Y-93831885D01*
X112108000Y-93831885D01*
X112112475Y-93847124D01*
X112113865Y-93848329D01*
X112121548Y-93850000D01*
X114789885Y-93850000D01*
X114805124Y-93845525D01*
X114806329Y-93844135D01*
X114808000Y-93836452D01*
X114808000Y-93831885D01*
X115316000Y-93831885D01*
X115320475Y-93847124D01*
X115321865Y-93848329D01*
X115329548Y-93850000D01*
X117997884Y-93850000D01*
X118013123Y-93845525D01*
X118014328Y-93844135D01*
X118015999Y-93836452D01*
X118015999Y-92635172D01*
X118014791Y-92622912D01*
X118003685Y-92567069D01*
X117994367Y-92544573D01*
X117952017Y-92481192D01*
X117934808Y-92463983D01*
X117871425Y-92421632D01*
X117848934Y-92412316D01*
X117793085Y-92401207D01*
X117780830Y-92400000D01*
X115334115Y-92400000D01*
X115318876Y-92404475D01*
X115317671Y-92405865D01*
X115316000Y-92413548D01*
X115316000Y-93831885D01*
X114808000Y-93831885D01*
X114808000Y-92418116D01*
X114803525Y-92402877D01*
X114802135Y-92401672D01*
X114794452Y-92400001D01*
X112343172Y-92400001D01*
X112330912Y-92401209D01*
X112275069Y-92412315D01*
X112252573Y-92421633D01*
X112189192Y-92463983D01*
X112171983Y-92481192D01*
X112129632Y-92544575D01*
X112120316Y-92567066D01*
X112109207Y-92622915D01*
X112108000Y-92635170D01*
X112108000Y-93831885D01*
X108966000Y-93831885D01*
X108966000Y-90160187D01*
X108966607Y-90147837D01*
X108983998Y-89971263D01*
X108988815Y-89947043D01*
X109038518Y-89783190D01*
X109047971Y-89760371D01*
X109128681Y-89609372D01*
X109142399Y-89588842D01*
X109251026Y-89456479D01*
X109268479Y-89439026D01*
X109400842Y-89330399D01*
X109421369Y-89316683D01*
X109572371Y-89235971D01*
X109595191Y-89226518D01*
X109759043Y-89176815D01*
X109783260Y-89171999D01*
X109959837Y-89154607D01*
X109972187Y-89154000D01*
X148993813Y-89154000D01*
X149006163Y-89154607D01*
G37*
%TD.AperFunction*%
%TD*%
%TA.AperFunction,Conductor*%
%TO.N,/Vin*%
G36*
X92393362Y-80274502D02*
G01*
X92405174Y-80283100D01*
X92407516Y-80285022D01*
X92424979Y-80302485D01*
X92533601Y-80434842D01*
X92547319Y-80455372D01*
X92628029Y-80606371D01*
X92637482Y-80629190D01*
X92687185Y-80793043D01*
X92692002Y-80817263D01*
X92709393Y-80993837D01*
X92710000Y-81006187D01*
X92710000Y-85332000D01*
X92689998Y-85400121D01*
X92636342Y-85446614D01*
X92584000Y-85458000D01*
X91525115Y-85458000D01*
X91509876Y-85462475D01*
X91508671Y-85463865D01*
X91507000Y-85471548D01*
X91507000Y-86390000D01*
X91486998Y-86458121D01*
X91433342Y-86504614D01*
X91381000Y-86516000D01*
X88717116Y-86516000D01*
X88701877Y-86520475D01*
X88700672Y-86521865D01*
X88699001Y-86529548D01*
X88699001Y-86830828D01*
X88700209Y-86843088D01*
X88711315Y-86898931D01*
X88720633Y-86921427D01*
X88762983Y-86984808D01*
X88780193Y-87002018D01*
X88787553Y-87006936D01*
X88833080Y-87061413D01*
X88841927Y-87131856D01*
X88811286Y-87195900D01*
X88787555Y-87216463D01*
X88769516Y-87228516D01*
X88713266Y-87312699D01*
X88698500Y-87386933D01*
X88698500Y-87393120D01*
X88698501Y-88520000D01*
X88678499Y-88588121D01*
X88624843Y-88634614D01*
X88572501Y-88646000D01*
X65522187Y-88646000D01*
X65509837Y-88645393D01*
X65333260Y-88628001D01*
X65309043Y-88623185D01*
X65145190Y-88573482D01*
X65122371Y-88564029D01*
X65039998Y-88520000D01*
X64971369Y-88483317D01*
X64950842Y-88469601D01*
X64818479Y-88360974D01*
X64801026Y-88343521D01*
X64692399Y-88211158D01*
X64678681Y-88190628D01*
X64597971Y-88039629D01*
X64588518Y-88016809D01*
X64538815Y-87852957D01*
X64533998Y-87828737D01*
X64516607Y-87652163D01*
X64516000Y-87639813D01*
X64516000Y-86798292D01*
X74488001Y-86798292D01*
X74488370Y-86805110D01*
X74493841Y-86855482D01*
X74497470Y-86870741D01*
X74542222Y-86990118D01*
X74550754Y-87005704D01*
X74626572Y-87106867D01*
X74639133Y-87119428D01*
X74740296Y-87195246D01*
X74755882Y-87203778D01*
X74875265Y-87248533D01*
X74890510Y-87252158D01*
X74940892Y-87257631D01*
X74947706Y-87258000D01*
X75419885Y-87258000D01*
X75435124Y-87253525D01*
X75436329Y-87252135D01*
X75438000Y-87244452D01*
X75438000Y-87239884D01*
X75946000Y-87239884D01*
X75950475Y-87255123D01*
X75951865Y-87256328D01*
X75959548Y-87257999D01*
X76436292Y-87257999D01*
X76443110Y-87257630D01*
X76493482Y-87252159D01*
X76508741Y-87248530D01*
X76628118Y-87203778D01*
X76643704Y-87195246D01*
X76744867Y-87119428D01*
X76757428Y-87106867D01*
X76833246Y-87005704D01*
X76841778Y-86990118D01*
X76886533Y-86870735D01*
X76890158Y-86855490D01*
X76895631Y-86805108D01*
X76896000Y-86798294D01*
X76896000Y-85989885D01*
X88699000Y-85989885D01*
X88703475Y-86005124D01*
X88704865Y-86006329D01*
X88712548Y-86008000D01*
X90980885Y-86008000D01*
X90996124Y-86003525D01*
X90997329Y-86002135D01*
X90999000Y-85994452D01*
X90999000Y-85476115D01*
X90994525Y-85460876D01*
X90993135Y-85459671D01*
X90985452Y-85458000D01*
X88934173Y-85458001D01*
X88921912Y-85459209D01*
X88866069Y-85470315D01*
X88843573Y-85479633D01*
X88780192Y-85521983D01*
X88762983Y-85539192D01*
X88720632Y-85602575D01*
X88711316Y-85625066D01*
X88700207Y-85680915D01*
X88699000Y-85693170D01*
X88699000Y-85989885D01*
X76896000Y-85989885D01*
X76896000Y-85076115D01*
X76891525Y-85060876D01*
X76890135Y-85059671D01*
X76882452Y-85058000D01*
X75964115Y-85058000D01*
X75948876Y-85062475D01*
X75947671Y-85063865D01*
X75946000Y-85071548D01*
X75946000Y-87239884D01*
X75438000Y-87239884D01*
X75438000Y-85076115D01*
X75433525Y-85060876D01*
X75432135Y-85059671D01*
X75424452Y-85058000D01*
X74506116Y-85058000D01*
X74490877Y-85062475D01*
X74489672Y-85063865D01*
X74488001Y-85071548D01*
X74488001Y-86798292D01*
X64516000Y-86798292D01*
X64516000Y-85197028D01*
X64536002Y-85128907D01*
X64589658Y-85082414D01*
X64659932Y-85072310D01*
X64724512Y-85101804D01*
X64746765Y-85127026D01*
X64759983Y-85146808D01*
X64777192Y-85164017D01*
X64840575Y-85206368D01*
X64863066Y-85215684D01*
X64918915Y-85226793D01*
X64931170Y-85228000D01*
X65927885Y-85228000D01*
X65943124Y-85223525D01*
X65944329Y-85222135D01*
X65946000Y-85214452D01*
X65946000Y-85209884D01*
X66454000Y-85209884D01*
X66458475Y-85225123D01*
X66459865Y-85226328D01*
X66467548Y-85227999D01*
X67468828Y-85227999D01*
X67481088Y-85226791D01*
X67536931Y-85215685D01*
X67559427Y-85206367D01*
X67622808Y-85164017D01*
X67640017Y-85146808D01*
X67682368Y-85083425D01*
X67691684Y-85060934D01*
X67702793Y-85005085D01*
X67704000Y-84992830D01*
X67704000Y-84683357D01*
X68681473Y-84683357D01*
X68684256Y-84687075D01*
X68809835Y-84733777D01*
X68823421Y-84737164D01*
X68977128Y-84757674D01*
X68991124Y-84757967D01*
X69145550Y-84743912D01*
X69159276Y-84741095D01*
X69306752Y-84693177D01*
X69311688Y-84690938D01*
X69318969Y-84683086D01*
X69315464Y-84674674D01*
X69172675Y-84531885D01*
X74488000Y-84531885D01*
X74492475Y-84547124D01*
X74493865Y-84548329D01*
X74501548Y-84550000D01*
X75419885Y-84550000D01*
X75435124Y-84545525D01*
X75436329Y-84544135D01*
X75438000Y-84536452D01*
X75438000Y-84531885D01*
X75946000Y-84531885D01*
X75950475Y-84547124D01*
X75951865Y-84548329D01*
X75959548Y-84550000D01*
X76877884Y-84550000D01*
X76893123Y-84545525D01*
X76894328Y-84544135D01*
X76895999Y-84536452D01*
X76895999Y-82809708D01*
X76895630Y-82802890D01*
X76890159Y-82752518D01*
X76886530Y-82737259D01*
X76841778Y-82617882D01*
X76833246Y-82602296D01*
X76757428Y-82501133D01*
X76744867Y-82488572D01*
X76643704Y-82412754D01*
X76628118Y-82404222D01*
X76508735Y-82359467D01*
X76493490Y-82355842D01*
X76443108Y-82350369D01*
X76436294Y-82350000D01*
X75964115Y-82350000D01*
X75948876Y-82354475D01*
X75947671Y-82355865D01*
X75946000Y-82363548D01*
X75946000Y-84531885D01*
X75438000Y-84531885D01*
X75438000Y-82368116D01*
X75433525Y-82352877D01*
X75432135Y-82351672D01*
X75424452Y-82350001D01*
X74947708Y-82350001D01*
X74940890Y-82350370D01*
X74890518Y-82355841D01*
X74875259Y-82359470D01*
X74755882Y-82404222D01*
X74740296Y-82412754D01*
X74639133Y-82488572D01*
X74626572Y-82501133D01*
X74550754Y-82602296D01*
X74542222Y-82617882D01*
X74497467Y-82737265D01*
X74493842Y-82752510D01*
X74488369Y-82802892D01*
X74488000Y-82809706D01*
X74488000Y-84531885D01*
X69172675Y-84531885D01*
X69012812Y-84372022D01*
X68998868Y-84364408D01*
X68997035Y-84364539D01*
X68990420Y-84368790D01*
X68688233Y-84670977D01*
X68681473Y-84683357D01*
X67704000Y-84683357D01*
X67704000Y-84346115D01*
X67699525Y-84330876D01*
X67698135Y-84329671D01*
X67690452Y-84328000D01*
X66472115Y-84328000D01*
X66456876Y-84332475D01*
X66455671Y-84333865D01*
X66454000Y-84341548D01*
X66454000Y-85209884D01*
X65946000Y-85209884D01*
X65946000Y-83996418D01*
X68241991Y-83996418D01*
X68257123Y-84150748D01*
X68260034Y-84164442D01*
X68308980Y-84311581D01*
X68309687Y-84313110D01*
X68316497Y-84319336D01*
X68325117Y-84315673D01*
X68627978Y-84012812D01*
X68634356Y-84001132D01*
X69364408Y-84001132D01*
X69364539Y-84002965D01*
X69368790Y-84009580D01*
X69670635Y-84311425D01*
X69683015Y-84318185D01*
X69686831Y-84315328D01*
X69732431Y-84195285D01*
X69735913Y-84181724D01*
X69757924Y-84025109D01*
X69758530Y-84017225D01*
X69758716Y-84003962D01*
X69758329Y-83996062D01*
X69740700Y-83838891D01*
X69737599Y-83825245D01*
X69690960Y-83691317D01*
X69682757Y-83679844D01*
X69678749Y-83680625D01*
X69678139Y-83681071D01*
X69372022Y-83987188D01*
X69364408Y-84001132D01*
X68634356Y-84001132D01*
X68635592Y-83998868D01*
X68635461Y-83997035D01*
X68631210Y-83990420D01*
X68328650Y-83687860D01*
X68316270Y-83681100D01*
X68312648Y-83683811D01*
X68264913Y-83814962D01*
X68261621Y-83828570D01*
X68242187Y-83982412D01*
X68241991Y-83996418D01*
X65946000Y-83996418D01*
X65946000Y-83801885D01*
X66454000Y-83801885D01*
X66458475Y-83817124D01*
X66459865Y-83818329D01*
X66467548Y-83820000D01*
X67685884Y-83820000D01*
X67701123Y-83815525D01*
X67702328Y-83814135D01*
X67703999Y-83806452D01*
X67703999Y-83316055D01*
X68680269Y-83316055D01*
X68684089Y-83324879D01*
X68987188Y-83627978D01*
X69001132Y-83635592D01*
X69002965Y-83635461D01*
X69009580Y-83631210D01*
X69312544Y-83328246D01*
X69319304Y-83315866D01*
X69316719Y-83312412D01*
X69316419Y-83312252D01*
X69179902Y-83263640D01*
X69166275Y-83260443D01*
X69012289Y-83242081D01*
X68998293Y-83241983D01*
X68844065Y-83258193D01*
X68830401Y-83261198D01*
X68685148Y-83310646D01*
X68680269Y-83316055D01*
X67703999Y-83316055D01*
X67703999Y-83155172D01*
X67702791Y-83142912D01*
X67691685Y-83087069D01*
X67682367Y-83064573D01*
X67640017Y-83001192D01*
X67622808Y-82983983D01*
X67559425Y-82941632D01*
X67536934Y-82932316D01*
X67481085Y-82921207D01*
X67468830Y-82920000D01*
X66472115Y-82920000D01*
X66456876Y-82924475D01*
X66455671Y-82925865D01*
X66454000Y-82933548D01*
X66454000Y-83801885D01*
X65946000Y-83801885D01*
X65946000Y-82938116D01*
X65941525Y-82922877D01*
X65940135Y-82921672D01*
X65932452Y-82920001D01*
X64931172Y-82920001D01*
X64918912Y-82921209D01*
X64863069Y-82932315D01*
X64840573Y-82941633D01*
X64777192Y-82983983D01*
X64759983Y-83001192D01*
X64746765Y-83020974D01*
X64692288Y-83066502D01*
X64621845Y-83075349D01*
X64557801Y-83044708D01*
X64520489Y-82984306D01*
X64516000Y-82950972D01*
X64516000Y-81006187D01*
X64516607Y-80993837D01*
X64533998Y-80817263D01*
X64538815Y-80793043D01*
X64588518Y-80629190D01*
X64597971Y-80606371D01*
X64678681Y-80455372D01*
X64692399Y-80434842D01*
X64801021Y-80302485D01*
X64818484Y-80285022D01*
X64820826Y-80283100D01*
X64886174Y-80255347D01*
X64900759Y-80254500D01*
X92325241Y-80254500D01*
X92393362Y-80274502D01*
G37*
%TD.AperFunction*%
%TD*%
%TA.AperFunction,Conductor*%
%TO.N,GND*%
G36*
X63086435Y-102870622D02*
G01*
X63130384Y-102875003D01*
X63265121Y-102888436D01*
X63289627Y-102893371D01*
X63400181Y-102927338D01*
X63455268Y-102944264D01*
X63478317Y-102953940D01*
X63630651Y-103036534D01*
X63651336Y-103050570D01*
X63785900Y-103162893D01*
X63789193Y-103165642D01*
X63798387Y-103174126D01*
X64289723Y-103674910D01*
X66213411Y-105635592D01*
X70287229Y-109787753D01*
X70320659Y-109850387D01*
X70314920Y-109921151D01*
X70271834Y-109977579D01*
X70259398Y-109984865D01*
X70259504Y-109985038D01*
X70239434Y-109997397D01*
X70202332Y-110027227D01*
X70200524Y-110028850D01*
X70193314Y-110042054D01*
X70193445Y-110043887D01*
X70197696Y-110050502D01*
X71206266Y-111059072D01*
X71220210Y-111066686D01*
X71222043Y-111066555D01*
X71228551Y-111062373D01*
X71232773Y-111057668D01*
X71262603Y-111020567D01*
X71268462Y-111011052D01*
X71321214Y-110963535D01*
X71391281Y-110952082D01*
X71456417Y-110980327D01*
X71465691Y-110988878D01*
X73464827Y-113026458D01*
X76708000Y-116332000D01*
X148993813Y-116332000D01*
X149006163Y-116332607D01*
X149182740Y-116349999D01*
X149206957Y-116354815D01*
X149370809Y-116404518D01*
X149393629Y-116413971D01*
X149544631Y-116494683D01*
X149565158Y-116508399D01*
X149697515Y-116617021D01*
X149714978Y-116634484D01*
X149716900Y-116636826D01*
X149744653Y-116702174D01*
X149745500Y-116716759D01*
X149745500Y-118962524D01*
X149743079Y-118987103D01*
X149740514Y-119000000D01*
X149742935Y-119012170D01*
X149742935Y-119019856D01*
X149742328Y-119032207D01*
X149732391Y-119133092D01*
X149727575Y-119157309D01*
X149692351Y-119273426D01*
X149682907Y-119296226D01*
X149625708Y-119403239D01*
X149611989Y-119423770D01*
X149535019Y-119517556D01*
X149517556Y-119535019D01*
X149423770Y-119611989D01*
X149403239Y-119625708D01*
X149296226Y-119682907D01*
X149273426Y-119692351D01*
X149157309Y-119727575D01*
X149133092Y-119732391D01*
X149032207Y-119742328D01*
X149019856Y-119742935D01*
X149012170Y-119742935D01*
X149000000Y-119740514D01*
X148987103Y-119743079D01*
X148962524Y-119745500D01*
X70180761Y-119745500D01*
X70156641Y-119743169D01*
X70143038Y-119740516D01*
X70130875Y-119742982D01*
X70118561Y-119743028D01*
X70107791Y-119742606D01*
X69971926Y-119731449D01*
X69950681Y-119727856D01*
X69841033Y-119699481D01*
X69794919Y-119687548D01*
X69774590Y-119680383D01*
X69653636Y-119625714D01*
X69627978Y-119614117D01*
X69609169Y-119603592D01*
X69476005Y-119513311D01*
X69459263Y-119499733D01*
X69361212Y-119405212D01*
X69354584Y-119396656D01*
X69353760Y-119397376D01*
X69345595Y-119388031D01*
X69339411Y-119377273D01*
X69318771Y-119361374D01*
X69306567Y-119350650D01*
X66723359Y-116767442D01*
X142820188Y-116767442D01*
X142882616Y-116970367D01*
X142886837Y-116980712D01*
X142984361Y-117169660D01*
X142990346Y-117179091D01*
X143119793Y-117347789D01*
X143127349Y-117356006D01*
X143284621Y-117499113D01*
X143293520Y-117505867D01*
X143473639Y-117618856D01*
X143483605Y-117623933D01*
X143680875Y-117703235D01*
X143691590Y-117706470D01*
X143900762Y-117749788D01*
X143909898Y-117750991D01*
X143960263Y-117753895D01*
X143963910Y-117754000D01*
X144527885Y-117754000D01*
X144543124Y-117749525D01*
X144544329Y-117748135D01*
X144546000Y-117740452D01*
X144546000Y-117735885D01*
X145054000Y-117735885D01*
X145058475Y-117751124D01*
X145059865Y-117752329D01*
X145067548Y-117754000D01*
X145603995Y-117754000D01*
X145609590Y-117753751D01*
X145767367Y-117739669D01*
X145778381Y-117737687D01*
X145983465Y-117681583D01*
X145993938Y-117677689D01*
X146185856Y-117586148D01*
X146195471Y-117580462D01*
X146368143Y-117456385D01*
X146376609Y-117449077D01*
X146524571Y-117296391D01*
X146531614Y-117287694D01*
X146650200Y-117111221D01*
X146655586Y-117101423D01*
X146741051Y-116906729D01*
X146744616Y-116896137D01*
X146774511Y-116771615D01*
X146773806Y-116757530D01*
X146764927Y-116754000D01*
X145072115Y-116754000D01*
X145056876Y-116758475D01*
X145055671Y-116759865D01*
X145054000Y-116767548D01*
X145054000Y-117735885D01*
X144546000Y-117735885D01*
X144546000Y-116772115D01*
X144541525Y-116756876D01*
X144540135Y-116755671D01*
X144532452Y-116754000D01*
X142835619Y-116754000D01*
X142821637Y-116758105D01*
X142820188Y-116767442D01*
X66723359Y-116767442D01*
X61370466Y-111414548D01*
X70210992Y-111414548D01*
X70211123Y-111416381D01*
X70215374Y-111422996D01*
X70232611Y-111440233D01*
X70237688Y-111444789D01*
X70274790Y-111474619D01*
X70288137Y-111482838D01*
X70397674Y-111532643D01*
X70414734Y-111537632D01*
X70532787Y-111554537D01*
X70550552Y-111554537D01*
X70668605Y-111537632D01*
X70685665Y-111532642D01*
X70795203Y-111482838D01*
X70808550Y-111474619D01*
X70845652Y-111444789D01*
X70847460Y-111443166D01*
X70854670Y-111429962D01*
X70854539Y-111428129D01*
X70850288Y-111421514D01*
X70536804Y-111108030D01*
X70522860Y-111100416D01*
X70521027Y-111100547D01*
X70514412Y-111104798D01*
X70218606Y-111400604D01*
X70210992Y-111414548D01*
X61370466Y-111414548D01*
X60683131Y-110727213D01*
X69705463Y-110727213D01*
X69722368Y-110845266D01*
X69727357Y-110862326D01*
X69777162Y-110971863D01*
X69785381Y-110985210D01*
X69815211Y-111022312D01*
X69819767Y-111027389D01*
X69833772Y-111041394D01*
X69847716Y-111049008D01*
X69849549Y-111048877D01*
X69856164Y-111044626D01*
X70151970Y-110748820D01*
X70159584Y-110734876D01*
X70159453Y-110733043D01*
X70155202Y-110726428D01*
X69841718Y-110412944D01*
X69827774Y-110405330D01*
X69825941Y-110405461D01*
X69819433Y-110409643D01*
X69815211Y-110414348D01*
X69785381Y-110451450D01*
X69777162Y-110464797D01*
X69727358Y-110574335D01*
X69722368Y-110591395D01*
X69705463Y-110709448D01*
X69705463Y-110727213D01*
X60683131Y-110727213D01*
X59357851Y-109401933D01*
X59351235Y-109394786D01*
X59347187Y-109390058D01*
X59341110Y-109379238D01*
X59333353Y-109373138D01*
X59328049Y-109367707D01*
X59327838Y-109367460D01*
X59327594Y-109367240D01*
X59182604Y-109218765D01*
X59179367Y-109216220D01*
X59179362Y-109216215D01*
X59066993Y-109127852D01*
X59005371Y-109079394D01*
X58969395Y-109058050D01*
X58815007Y-108966453D01*
X58815005Y-108966452D01*
X58811462Y-108964350D01*
X58807673Y-108962728D01*
X58807670Y-108962726D01*
X58607983Y-108877221D01*
X58604195Y-108875599D01*
X58387118Y-108814662D01*
X58383032Y-108814075D01*
X58383029Y-108814074D01*
X58181750Y-108785140D01*
X58181369Y-108785060D01*
X58180986Y-108785030D01*
X58173582Y-108783966D01*
X58164044Y-108781289D01*
X58151719Y-108782763D01*
X58136291Y-108784608D01*
X58121329Y-108785500D01*
X51037476Y-108785500D01*
X51012897Y-108783079D01*
X51000000Y-108780514D01*
X50987830Y-108782935D01*
X50980144Y-108782935D01*
X50967793Y-108782328D01*
X50866908Y-108772391D01*
X50842691Y-108767575D01*
X50726574Y-108732351D01*
X50703774Y-108722907D01*
X50596761Y-108665708D01*
X50576230Y-108651989D01*
X50482444Y-108575019D01*
X50464981Y-108557556D01*
X50388011Y-108463770D01*
X50374292Y-108443239D01*
X50317093Y-108336226D01*
X50307649Y-108313426D01*
X50272425Y-108197309D01*
X50267609Y-108173092D01*
X50257672Y-108072207D01*
X50257065Y-108059856D01*
X50257065Y-108052170D01*
X50259486Y-108040000D01*
X50256921Y-108027103D01*
X50254500Y-108002524D01*
X50254500Y-106683357D01*
X60681473Y-106683357D01*
X60684256Y-106687075D01*
X60809835Y-106733777D01*
X60823421Y-106737164D01*
X60977128Y-106757674D01*
X60991124Y-106757967D01*
X61145550Y-106743912D01*
X61159276Y-106741095D01*
X61306752Y-106693177D01*
X61311688Y-106690938D01*
X61318969Y-106683086D01*
X61315464Y-106674674D01*
X61012812Y-106372022D01*
X60998868Y-106364408D01*
X60997035Y-106364539D01*
X60990420Y-106368790D01*
X60688233Y-106670977D01*
X60681473Y-106683357D01*
X50254500Y-106683357D01*
X50254500Y-105996418D01*
X60241991Y-105996418D01*
X60257123Y-106150748D01*
X60260034Y-106164442D01*
X60308980Y-106311581D01*
X60309687Y-106313110D01*
X60316497Y-106319336D01*
X60325117Y-106315673D01*
X60627978Y-106012812D01*
X60634356Y-106001132D01*
X61364408Y-106001132D01*
X61364539Y-106002965D01*
X61368790Y-106009580D01*
X61670635Y-106311425D01*
X61683015Y-106318185D01*
X61686831Y-106315328D01*
X61732431Y-106195285D01*
X61735913Y-106181724D01*
X61757924Y-106025109D01*
X61758530Y-106017225D01*
X61758716Y-106003962D01*
X61758329Y-105996062D01*
X61740700Y-105838891D01*
X61737599Y-105825245D01*
X61690960Y-105691317D01*
X61682757Y-105679844D01*
X61678749Y-105680625D01*
X61678139Y-105681071D01*
X61372022Y-105987188D01*
X61364408Y-106001132D01*
X60634356Y-106001132D01*
X60635592Y-105998868D01*
X60635461Y-105997035D01*
X60631210Y-105990420D01*
X60328650Y-105687860D01*
X60316270Y-105681100D01*
X60312648Y-105683811D01*
X60264913Y-105814962D01*
X60261621Y-105828570D01*
X60242187Y-105982412D01*
X60241991Y-105996418D01*
X50254500Y-105996418D01*
X50254500Y-105316055D01*
X60680269Y-105316055D01*
X60684089Y-105324879D01*
X60987188Y-105627978D01*
X61001132Y-105635592D01*
X61002965Y-105635461D01*
X61009580Y-105631210D01*
X61312544Y-105328246D01*
X61319304Y-105315866D01*
X61316719Y-105312412D01*
X61316419Y-105312252D01*
X61179902Y-105263640D01*
X61166275Y-105260443D01*
X61012289Y-105242081D01*
X60998293Y-105241983D01*
X60844065Y-105258193D01*
X60830401Y-105261198D01*
X60685148Y-105310646D01*
X60680269Y-105316055D01*
X50254500Y-105316055D01*
X50254500Y-103254759D01*
X50274502Y-103186638D01*
X50283100Y-103174826D01*
X50285022Y-103172484D01*
X50302485Y-103155021D01*
X50434842Y-103046399D01*
X50455369Y-103032683D01*
X50606371Y-102951971D01*
X50629191Y-102942518D01*
X50793043Y-102892815D01*
X50817260Y-102887999D01*
X50993837Y-102870607D01*
X51006187Y-102870000D01*
X63073937Y-102870000D01*
X63086435Y-102870622D01*
G37*
%TD.AperFunction*%
%TD*%
M02*
