  0
SECTION
  2
HEADER
  9
$ANGBASE
  50
0.0
  9
$ANGDIR
  70
1
  9
$MEASUREMENT
  70
1
  0
ENDSEC
  0
SECTION
  2
TABLES
  0
TABLE
  2
LTYPE
  70
4
  0
LTYPE
  5
40F
  2
CONTINUOUS
  70
0
  3
Solid line
  72
65
  73
0
  40
0.0
  0
LTYPE
  5
410
  2
DASHDOT
 70
0
  3
Dash Dot ____ _ ____ _
 72
65
 73
4
 40
2.0
 49
1.25
 49
-0.25
 49
0.25
 49
-0.25
  0
LTYPE
  5
411
  2
DASHED
 70
0
  3
Dashed __ __ __ __ __
 72
65
 73
2
 40
0.75
 49
0.5
 49
-0.25
  0
LTYPE
  5
43B
  2
DOTTED
 70
0
  3
Dotted .  .  .  .
 72
65
 73
2
 40
0.2
 49
0.0
 49
-0.2
  0
ENDTAB
  0
TABLE
  2
STYLE
  70
4
  0
STYLE
  2
KICAD
  70
0
  40
0
  41
1
  42
1
  50
0
  71
0
  3
isocp.shx
  0
STYLE
  2
KICADB
  70
0
  40
0
  41
1
  42
1
  50
0
  71
0
  3
isocp.shx
  0
STYLE
  2
KICADI
  70
0
  40
0
  41
1
  42
1
  50
15
  71
0
  3
isocp.shx
  0
STYLE
  2
KICADBI
  70
0
  40
0
  41
1
  42
1
  50
15
  71
0
  3
isocp.shx
  0
ENDTAB
  0
TABLE
  2
LAYER
  70
1
  0
LAYER
  2
BLACK
  70
0
  62
7
  6
CONTINUOUS
  0
ENDTAB
  0
ENDSEC
  0
SECTION
  2
ENTITIES
0
LINE
8
BLACK
6
CONTINUOUS
10
80.0728
20
-98.1821
11
80.0761
21
-98.1816
0
LINE
8
BLACK
6
CONTINUOUS
10
80.0761
20
-98.1816
11
80.079
21
-98.1832
0
LINE
8
BLACK
6
CONTINUOUS
10
80.079
20
-98.1832
11
80.0888
21
-98.1849
0
LINE
8
BLACK
6
CONTINUOUS
10
80.0888
20
-98.1849
11
80.1037
21
-98.1975
0
LINE
8
BLACK
6
CONTINUOUS
10
80.1037
20
-98.1975
11
80.1206
21
-98.2072
0
LINE
8
BLACK
6
CONTINUOUS
10
80.1206
20
-98.2072
11
80.1229
21
-98.2136
0
LINE
8
BLACK
6
CONTINUOUS
10
80.1229
20
-98.2136
11
80.1281
21
-98.2179
0
LINE
8
BLACK
6
CONTINUOUS
10
80.1281
20
-98.2179
11
80.1314
21
-98.2371
0
LINE
8
BLACK
6
CONTINUOUS
10
80.1314
20
-98.2371
11
80.1381
21
-98.2554
0
LINE
8
BLACK
6
CONTINUOUS
10
80.1381
20
-98.2554
11
80.1381
21
-98.2958
0
LINE
8
BLACK
6
CONTINUOUS
10
80.1381
20
-98.2958
11
80.1364
21
-98.3056
0
LINE
8
BLACK
6
CONTINUOUS
10
80.1364
20
-98.3056
11
80.137
21
-98.3088
0
LINE
8
BLACK
6
CONTINUOUS
10
80.137
20
-98.3088
11
80.1353
21
-98.3117
0
LINE
8
BLACK
6
CONTINUOUS
10
80.1353
20
-98.3117
11
80.1353
21
-98.3119
0
LINE
8
BLACK
6
CONTINUOUS
10
80.1353
20
-98.3119
11
80.1355
21
-98.3152
0
LINE
8
BLACK
6
CONTINUOUS
10
80.1355
20
-98.3152
11
80.1344
21
-98.3169
0
LINE
8
BLACK
6
CONTINUOUS
10
80.1344
20
-98.3169
11
80.1336
21
-98.3215
0
LINE
8
BLACK
6
CONTINUOUS
10
80.1336
20
-98.3215
11
80.1211
21
-98.3364
0
LINE
8
BLACK
6
CONTINUOUS
10
80.1211
20
-98.3364
11
80.1113
21
-98.3533
0
LINE
8
BLACK
6
CONTINUOUS
10
80.1113
20
-98.3533
11
80.1081
21
-98.3544
0
LINE
8
BLACK
6
CONTINUOUS
10
80.1081
20
-98.3544
11
80.1061
21
-98.3573
0
LINE
8
BLACK
6
CONTINUOUS
10
80.1061
20
-98.3573
11
80.1028
21
-98.3581
0
LINE
8
BLACK
6
CONTINUOUS
10
80.1028
20
-98.3581
11
80.1006
21
-98.3608
0
LINE
8
BLACK
6
CONTINUOUS
10
80.1006
20
-98.3608
11
80.0814
21
-98.3642
0
LINE
8
BLACK
6
CONTINUOUS
10
80.0814
20
-98.3642
11
80.0631
21
-98.3708
0
LINE
8
BLACK
6
CONTINUOUS
10
80.0631
20
-98.3708
11
80.0227
21
-98.3708
0
LINE
8
BLACK
6
CONTINUOUS
10
80.0227
20
-98.3708
11
80.013
21
-98.3691
0
LINE
8
BLACK
6
CONTINUOUS
10
80.013
20
-98.3691
11
80.0097
21
-98.3697
0
LINE
8
BLACK
6
CONTINUOUS
10
80.0097
20
-98.3697
11
80.0068
21
-98.368
0
LINE
8
BLACK
6
CONTINUOUS
10
80.0068
20
-98.368
11
79.997
21
-98.3663
0
LINE
8
BLACK
6
CONTINUOUS
10
79.997
20
-98.3663
11
79.9821
21
-98.3538
0
LINE
8
BLACK
6
CONTINUOUS
10
79.9821
20
-98.3538
11
79.9652
21
-98.344
0
LINE
8
BLACK
6
CONTINUOUS
10
79.9652
20
-98.344
11
79.9629
21
-98.3377
0
LINE
8
BLACK
6
CONTINUOUS
10
79.9629
20
-98.3377
11
79.9577
21
-98.3333
0
LINE
8
BLACK
6
CONTINUOUS
10
79.9577
20
-98.3333
11
79.9544
21
-98.3141
0
LINE
8
BLACK
6
CONTINUOUS
10
79.9544
20
-98.3141
11
79.9477
21
-98.2958
0
LINE
8
BLACK
6
CONTINUOUS
10
79.9477
20
-98.2958
11
79.9477
21
-98.2554
0
LINE
8
BLACK
6
CONTINUOUS
10
79.9477
20
-98.2554
11
79.9494
21
-98.2457
0
LINE
8
BLACK
6
CONTINUOUS
10
79.9494
20
-98.2457
11
79.9488
21
-98.2424
0
LINE
8
BLACK
6
CONTINUOUS
10
79.9488
20
-98.2424
11
79.9505
21
-98.2395
0
LINE
8
BLACK
6
CONTINUOUS
10
79.9505
20
-98.2395
11
79.9505
21
-98.2393
0
LINE
8
BLACK
6
CONTINUOUS
10
79.9505
20
-98.2393
11
79.9503
21
-98.236
0
LINE
8
BLACK
6
CONTINUOUS
10
79.9503
20
-98.236
11
79.9514
21
-98.2343
0
LINE
8
BLACK
6
CONTINUOUS
10
79.9514
20
-98.2343
11
79.9522
21
-98.2298
0
LINE
8
BLACK
6
CONTINUOUS
10
79.9522
20
-98.2298
11
79.9647
21
-98.2148
0
LINE
8
BLACK
6
CONTINUOUS
10
79.9647
20
-98.2148
11
79.9745
21
-98.198
0
LINE
8
BLACK
6
CONTINUOUS
10
79.9745
20
-98.198
11
79.9777
21
-98.1968
0
LINE
8
BLACK
6
CONTINUOUS
10
79.9777
20
-98.1968
11
79.9797
21
-98.194
0
LINE
8
BLACK
6
CONTINUOUS
10
79.9797
20
-98.194
11
79.983
21
-98.1931
0
LINE
8
BLACK
6
CONTINUOUS
10
79.983
20
-98.1931
11
79.9852
21
-98.1905
0
LINE
8
BLACK
6
CONTINUOUS
10
79.9852
20
-98.1905
11
80.0044
21
-98.1871
0
LINE
8
BLACK
6
CONTINUOUS
10
80.0044
20
-98.1871
11
80.0227
21
-98.1804
0
LINE
8
BLACK
6
CONTINUOUS
10
80.0227
20
-98.1804
11
80.0631
21
-98.1804
0
LINE
8
BLACK
6
CONTINUOUS
10
80.0631
20
-98.1804
11
80.0728
21
-98.1821
0
LINE
8
BLACK
6
CONTINUOUS
10
80.1766
20
-97.5987
11
80.1878
21
-97.5984
0
LINE
8
BLACK
6
CONTINUOUS
10
80.1878
20
-97.5984
11
80.2484
21
-97.6186
0
LINE
8
BLACK
6
CONTINUOUS
10
80.2484
20
-97.6186
11
80.2714
21
-97.631
0
LINE
8
BLACK
6
CONTINUOUS
10
80.2714
20
-97.631
11
80.2737
21
-97.6348
0
LINE
8
BLACK
6
CONTINUOUS
10
80.2737
20
-97.6348
11
80.2778
21
-97.6367
0
LINE
8
BLACK
6
CONTINUOUS
10
80.2778
20
-97.6367
11
80.4394
21
-97.7983
0
LINE
8
BLACK
6
CONTINUOUS
10
80.4394
20
-97.7983
11
80.4543
21
-97.8197
0
LINE
8
BLACK
6
CONTINUOUS
10
80.4543
20
-97.8197
11
80.4547
21
-97.8241
0
LINE
8
BLACK
6
CONTINUOUS
10
80.4547
20
-97.8241
11
80.4575
21
-97.8276
0
LINE
8
BLACK
6
CONTINUOUS
10
80.4575
20
-97.8276
11
80.4777
21
-97.8882
0
LINE
8
BLACK
6
CONTINUOUS
10
80.4777
20
-97.8882
11
80.4815
21
-97.914
0
LINE
8
BLACK
6
CONTINUOUS
10
80.4815
20
-97.914
11
80.4774
21
-97.9245
0
LINE
8
BLACK
6
CONTINUOUS
10
80.4774
20
-97.9245
11
80.4777
21
-97.9357
0
LINE
8
BLACK
6
CONTINUOUS
10
80.4777
20
-97.9357
11
80.4575
21
-97.9963
0
LINE
8
BLACK
6
CONTINUOUS
10
80.4575
20
-97.9963
11
80.4451
21
-98.0192
0
LINE
8
BLACK
6
CONTINUOUS
10
80.4451
20
-98.0192
11
80.4413
21
-98.0215
0
LINE
8
BLACK
6
CONTINUOUS
10
80.4413
20
-98.0215
11
80.4394
21
-98.0256
0
LINE
8
BLACK
6
CONTINUOUS
10
80.4394
20
-98.0256
11
80.3586
21
-98.1064
0
LINE
8
BLACK
6
CONTINUOUS
10
80.3586
20
-98.1064
11
80.3372
21
-98.1214
0
LINE
8
BLACK
6
CONTINUOUS
10
80.3372
20
-98.1214
11
80.3328
21
-98.1217
0
LINE
8
BLACK
6
CONTINUOUS
10
80.3328
20
-98.1217
11
80.3293
21
-98.1245
0
LINE
8
BLACK
6
CONTINUOUS
10
80.3293
20
-98.1245
11
80.2686
21
-98.1447
0
LINE
8
BLACK
6
CONTINUOUS
10
80.2686
20
-98.1447
11
80.2429
21
-98.1486
0
LINE
8
BLACK
6
CONTINUOUS
10
80.2429
20
-98.1486
11
80.1952
21
-98.1297
0
LINE
8
BLACK
6
CONTINUOUS
10
80.1952
20
-98.1297
11
80.1707
21
-98.0846
0
LINE
8
BLACK
6
CONTINUOUS
10
80.1707
20
-98.0846
11
80.181
21
-98.0343
0
LINE
8
BLACK
6
CONTINUOUS
10
80.181
20
-98.0343
11
80.2212
21
-98.0024
0
LINE
8
BLACK
6
CONTINUOUS
10
80.2212
20
-98.0024
11
80.265
21
-97.9878
0
LINE
8
BLACK
6
CONTINUOUS
10
80.265
20
-97.9878
11
80.3208
21
-97.9321
0
LINE
8
BLACK
6
CONTINUOUS
10
80.3208
20
-97.9321
11
80.3275
21
-97.912
0
LINE
8
BLACK
6
CONTINUOUS
10
80.3275
20
-97.912
11
80.3208
21
-97.8919
0
LINE
8
BLACK
6
CONTINUOUS
10
80.3208
20
-97.8919
11
80.296
21
-97.867
0
LINE
8
BLACK
6
CONTINUOUS
10
80.296
20
-97.867
11
80.1047
21
-97.9946
0
LINE
8
BLACK
6
CONTINUOUS
10
80.1047
20
-97.9946
11
80.0809
21
-98.005
0
LINE
8
BLACK
6
CONTINUOUS
10
80.0809
20
-98.005
11
80.0685
21
-98.0037
0
LINE
8
BLACK
6
CONTINUOUS
10
80.0685
20
-98.0037
11
80.0566
21
-98.0069
0
LINE
8
BLACK
6
CONTINUOUS
10
80.0566
20
-98.0069
11
80.0438
21
-98.0009
0
LINE
8
BLACK
6
CONTINUOUS
10
80.0438
20
-98.0009
11
80.0299
21
-97.9994
0
LINE
8
BLACK
6
CONTINUOUS
10
80.0299
20
-97.9994
11
80.0213
21
-97.9904
0
LINE
8
BLACK
6
CONTINUOUS
10
80.0213
20
-97.9904
11
80.0101
21
-97.9852
0
LINE
8
BLACK
6
CONTINUOUS
10
80.0101
20
-97.9852
11
79.9697
21
-97.9448
0
LINE
8
BLACK
6
CONTINUOUS
10
79.9697
20
-97.9448
11
79.9547
21
-97.9235
0
LINE
8
BLACK
6
CONTINUOUS
10
79.9547
20
-97.9235
11
79.9543
21
-97.919
0
LINE
8
BLACK
6
CONTINUOUS
10
79.9543
20
-97.919
11
79.9515
21
-97.9155
0
LINE
8
BLACK
6
CONTINUOUS
10
79.9515
20
-97.9155
11
79.9313
21
-97.8549
0
LINE
8
BLACK
6
CONTINUOUS
10
79.9313
20
-97.8549
11
79.9275
21
-97.8291
0
LINE
8
BLACK
6
CONTINUOUS
10
79.9275
20
-97.8291
11
79.9317
21
-97.8187
0
LINE
8
BLACK
6
CONTINUOUS
10
79.9317
20
-97.8187
11
79.9313
21
-97.8074
0
LINE
8
BLACK
6
CONTINUOUS
10
79.9313
20
-97.8074
11
79.9515
21
-97.7468
0
LINE
8
BLACK
6
CONTINUOUS
10
79.9515
20
-97.7468
11
79.9639
21
-97.7239
0
LINE
8
BLACK
6
CONTINUOUS
10
79.9639
20
-97.7239
11
79.9678
21
-97.7216
0
LINE
8
BLACK
6
CONTINUOUS
10
79.9678
20
-97.7216
11
79.9697
21
-97.7175
0
LINE
8
BLACK
6
CONTINUOUS
10
79.9697
20
-97.7175
11
80.0505
21
-97.6367
0
LINE
8
BLACK
6
CONTINUOUS
10
80.0505
20
-97.6367
11
80.0718
21
-97.6218
0
LINE
8
BLACK
6
CONTINUOUS
10
80.0718
20
-97.6218
11
80.0763
21
-97.6214
0
LINE
8
BLACK
6
CONTINUOUS
10
80.0763
20
-97.6214
11
80.0798
21
-97.6186
0
LINE
8
BLACK
6
CONTINUOUS
10
80.0798
20
-97.6186
11
80.1404
21
-97.5984
0
LINE
8
BLACK
6
CONTINUOUS
10
80.1404
20
-97.5984
11
80.1662
21
-97.5946
0
LINE
8
BLACK
6
CONTINUOUS
10
80.1662
20
-97.5946
11
80.1766
21
-97.5987
0
LINE
8
BLACK
6
CONTINUOUS
10
80.144
20
-97.7553
11
80.0883
21
-97.8111
0
LINE
8
BLACK
6
CONTINUOUS
10
80.0883
20
-97.8111
11
80.0822
21
-97.8293
0
LINE
8
BLACK
6
CONTINUOUS
10
80.0822
20
-97.8293
11
80.1878
21
-97.7589
0
LINE
8
BLACK
6
CONTINUOUS
10
80.1878
20
-97.7589
11
80.1842
21
-97.7553
0
LINE
8
BLACK
6
CONTINUOUS
10
80.1842
20
-97.7553
11
80.1641
21
-97.7486
0
LINE
8
BLACK
6
CONTINUOUS
10
80.1641
20
-97.7486
11
80.144
21
-97.7553
0
LINE
8
BLACK
6
CONTINUOUS
10
80.5903
20
-97.2348
11
80.5919
21
-97.2347
0
LINE
8
BLACK
6
CONTINUOUS
10
80.5919
20
-97.2347
11
80.6525
21
-97.2549
0
LINE
8
BLACK
6
CONTINUOUS
10
80.6525
20
-97.2549
11
80.6754
21
-97.2673
0
LINE
8
BLACK
6
CONTINUOUS
10
80.6754
20
-97.2673
11
80.6778
21
-97.2711
0
LINE
8
BLACK
6
CONTINUOUS
10
80.6778
20
-97.2711
11
80.6818
21
-97.273
0
LINE
8
BLACK
6
CONTINUOUS
10
80.6818
20
-97.273
11
80.803
21
-97.3943
0
LINE
8
BLACK
6
CONTINUOUS
10
80.803
20
-97.3943
11
80.818
21
-97.4156
0
LINE
8
BLACK
6
CONTINUOUS
10
80.818
20
-97.4156
11
80.8184
21
-97.4201
0
LINE
8
BLACK
6
CONTINUOUS
10
80.8184
20
-97.4201
11
80.8212
21
-97.4236
0
LINE
8
BLACK
6
CONTINUOUS
10
80.8212
20
-97.4236
11
80.8414
21
-97.4842
0
LINE
8
BLACK
6
CONTINUOUS
10
80.8414
20
-97.4842
11
80.8447
21
-97.5064
0
LINE
8
BLACK
6
CONTINUOUS
10
80.8447
20
-97.5064
11
80.8452
21
-97.5079
0
LINE
8
BLACK
6
CONTINUOUS
10
80.8452
20
-97.5079
11
80.8452
21
-97.5483
0
LINE
8
BLACK
6
CONTINUOUS
10
80.8452
20
-97.5483
11
80.8413
21
-97.5704
0
LINE
8
BLACK
6
CONTINUOUS
10
80.8413
20
-97.5704
11
80.8414
21
-97.572
0
LINE
8
BLACK
6
CONTINUOUS
10
80.8414
20
-97.572
11
80.8212
21
-97.6326
0
LINE
8
BLACK
6
CONTINUOUS
10
80.8212
20
-97.6326
11
80.8088
21
-97.6555
0
LINE
8
BLACK
6
CONTINUOUS
10
80.8088
20
-97.6555
11
80.8049
21
-97.6579
0
LINE
8
BLACK
6
CONTINUOUS
10
80.8049
20
-97.6579
11
80.803
21
-97.6619
0
LINE
8
BLACK
6
CONTINUOUS
10
80.803
20
-97.6619
11
80.7373
21
-97.7277
0
LINE
8
BLACK
6
CONTINUOUS
10
80.7373
20
-97.7277
11
80.7622
21
-97.7359
0
LINE
8
BLACK
6
CONTINUOUS
10
80.7622
20
-97.7359
11
80.7782
21
-97.7359
0
LINE
8
BLACK
6
CONTINUOUS
10
80.7782
20
-97.7359
11
80.8105
21
-97.7252
0
LINE
8
BLACK
6
CONTINUOUS
10
80.8105
20
-97.7252
11
80.8461
21
-97.6896
0
LINE
8
BLACK
6
CONTINUOUS
10
80.8461
20
-97.6896
11
80.8607
21
-97.6458
0
LINE
8
BLACK
6
CONTINUOUS
10
80.8607
20
-97.6458
11
80.8731
21
-97.6229
0
LINE
8
BLACK
6
CONTINUOUS
10
80.8731
20
-97.6229
11
80.9168
21
-97.596
0
LINE
8
BLACK
6
CONTINUOUS
10
80.9168
20
-97.596
11
80.9675
21
-97.6036
0
LINE
8
BLACK
6
CONTINUOUS
10
80.9675
20
-97.6036
11
81.0016
21
-97.642
0
LINE
8
BLACK
6
CONTINUOUS
10
81.0016
20
-97.642
11
81.003
21
-97.6932
0
LINE
8
BLACK
6
CONTINUOUS
10
81.003
20
-97.6932
11
80.9828
21
-97.7538
0
LINE
8
BLACK
6
CONTINUOUS
10
80.9828
20
-97.7538
11
80.9704
21
-97.7768
0
LINE
8
BLACK
6
CONTINUOUS
10
80.9704
20
-97.7768
11
80.9666
21
-97.7791
0
LINE
8
BLACK
6
CONTINUOUS
10
80.9666
20
-97.7791
11
80.9647
21
-97.7832
0
LINE
8
BLACK
6
CONTINUOUS
10
80.9647
20
-97.7832
11
80.9041
21
-97.8438
0
LINE
8
BLACK
6
CONTINUOUS
10
80.9041
20
-97.8438
11
80.8827
21
-97.8587
0
LINE
8
BLACK
6
CONTINUOUS
10
80.8827
20
-97.8587
11
80.8783
21
-97.8591
0
LINE
8
BLACK
6
CONTINUOUS
10
80.8783
20
-97.8591
11
80.8747
21
-97.8619
0
LINE
8
BLACK
6
CONTINUOUS
10
80.8747
20
-97.8619
11
80.8141
21
-97.8821
0
LINE
8
BLACK
6
CONTINUOUS
10
80.8141
20
-97.8821
11
80.792
21
-97.8854
0
LINE
8
BLACK
6
CONTINUOUS
10
80.792
20
-97.8854
11
80.7904
21
-97.8859
0
LINE
8
BLACK
6
CONTINUOUS
10
80.7904
20
-97.8859
11
80.75
21
-97.8859
0
LINE
8
BLACK
6
CONTINUOUS
10
80.75
20
-97.8859
11
80.7279
21
-97.882
0
LINE
8
BLACK
6
CONTINUOUS
10
80.7279
20
-97.882
11
80.7263
21
-97.8821
0
LINE
8
BLACK
6
CONTINUOUS
10
80.7263
20
-97.8821
11
80.6657
21
-97.8619
0
LINE
8
BLACK
6
CONTINUOUS
10
80.6657
20
-97.8619
11
80.6428
21
-97.8495
0
LINE
8
BLACK
6
CONTINUOUS
10
80.6428
20
-97.8495
11
80.6404
21
-97.8457
0
LINE
8
BLACK
6
CONTINUOUS
10
80.6404
20
-97.8457
11
80.6364
21
-97.8438
0
LINE
8
BLACK
6
CONTINUOUS
10
80.6364
20
-97.8438
11
80.2929
21
-97.5003
0
LINE
8
BLACK
6
CONTINUOUS
10
80.2929
20
-97.5003
11
80.278
21
-97.479
0
LINE
8
BLACK
6
CONTINUOUS
10
80.278
20
-97.479
11
80.2735
21
-97.4279
0
LINE
8
BLACK
6
CONTINUOUS
10
80.2735
20
-97.4279
11
80.3029
21
-97.3859
0
LINE
8
BLACK
6
CONTINUOUS
10
80.3029
20
-97.3859
11
80.3156
21
-97.3825
0
LINE
8
BLACK
6
CONTINUOUS
10
80.3156
20
-97.3825
11
80.3276
21
-97.3603
0
LINE
8
BLACK
6
CONTINUOUS
10
80.3276
20
-97.3603
11
80.3314
21
-97.3579
0
LINE
8
BLACK
6
CONTINUOUS
10
80.3314
20
-97.3579
11
80.3333
21
-97.3538
0
LINE
8
BLACK
6
CONTINUOUS
10
80.3333
20
-97.3538
11
80.4141
21
-97.273
0
LINE
8
BLACK
6
CONTINUOUS
10
80.4141
20
-97.273
11
80.4355
21
-97.2581
0
LINE
8
BLACK
6
CONTINUOUS
10
80.4355
20
-97.2581
11
80.4399
21
-97.2577
0
LINE
8
BLACK
6
CONTINUOUS
10
80.4399
20
-97.2577
11
80.4434
21
-97.2549
0
LINE
8
BLACK
6
CONTINUOUS
10
80.4434
20
-97.2549
11
80.5041
21
-97.2347
0
LINE
8
BLACK
6
CONTINUOUS
10
80.5041
20
-97.2347
11
80.5262
21
-97.2314
0
LINE
8
BLACK
6
CONTINUOUS
10
80.5262
20
-97.2314
11
80.5278
21
-97.2309
0
LINE
8
BLACK
6
CONTINUOUS
10
80.5278
20
-97.2309
11
80.5682
21
-97.2309
0
LINE
8
BLACK
6
CONTINUOUS
10
80.5682
20
-97.2309
11
80.5903
21
-97.2348
0
LINE
8
BLACK
6
CONTINUOUS
10
80.5399
20
-97.3809
11
80.5077
21
-97.3916
0
LINE
8
BLACK
6
CONTINUOUS
10
80.5077
20
-97.3916
11
80.452
21
-97.4473
0
LINE
8
BLACK
6
CONTINUOUS
10
80.452
20
-97.4473
11
80.6288
21
-97.6241
0
LINE
8
BLACK
6
CONTINUOUS
10
80.6288
20
-97.6241
11
80.6845
21
-97.5684
0
LINE
8
BLACK
6
CONTINUOUS
10
80.6845
20
-97.5684
11
80.6952
21
-97.5361
0
LINE
8
BLACK
6
CONTINUOUS
10
80.6952
20
-97.5361
11
80.6952
21
-97.5201
0
LINE
8
BLACK
6
CONTINUOUS
10
80.6952
20
-97.5201
11
80.6845
21
-97.4878
0
LINE
8
BLACK
6
CONTINUOUS
10
80.6845
20
-97.4878
11
80.5883
21
-97.3916
0
LINE
8
BLACK
6
CONTINUOUS
10
80.5883
20
-97.3916
11
80.556
21
-97.3809
0
LINE
8
BLACK
6
CONTINUOUS
10
80.556
20
-97.3809
11
80.5399
21
-97.3809
0
LINE
8
BLACK
6
CONTINUOUS
10
79.6221
20
-97.2667
11
79.6254
21
-97.2661
0
LINE
8
BLACK
6
CONTINUOUS
10
79.6254
20
-97.2661
11
79.6283
21
-97.2678
0
LINE
8
BLACK
6
CONTINUOUS
10
79.6283
20
-97.2678
11
79.638
21
-97.2695
0
LINE
8
BLACK
6
CONTINUOUS
10
79.638
20
-97.2695
11
79.653
21
-97.2821
0
LINE
8
BLACK
6
CONTINUOUS
10
79.653
20
-97.2821
11
79.6698
21
-97.2918
0
LINE
8
BLACK
6
CONTINUOUS
10
79.6698
20
-97.2918
11
79.6721
21
-97.2982
0
LINE
8
BLACK
6
CONTINUOUS
10
79.6721
20
-97.2982
11
79.6773
21
-97.3025
0
LINE
8
BLACK
6
CONTINUOUS
10
79.6773
20
-97.3025
11
79.6807
21
-97.3217
0
LINE
8
BLACK
6
CONTINUOUS
10
79.6807
20
-97.3217
11
79.6874
21
-97.34
0
LINE
8
BLACK
6
CONTINUOUS
10
79.6874
20
-97.34
11
79.6874
21
-97.3804
0
LINE
8
BLACK
6
CONTINUOUS
10
79.6874
20
-97.3804
11
79.6857
21
-97.3902
0
LINE
8
BLACK
6
CONTINUOUS
10
79.6857
20
-97.3902
11
79.6862
21
-97.3934
0
LINE
8
BLACK
6
CONTINUOUS
10
79.6862
20
-97.3934
11
79.6846
21
-97.3963
0
LINE
8
BLACK
6
CONTINUOUS
10
79.6846
20
-97.3963
11
79.6845
21
-97.3965
0
LINE
8
BLACK
6
CONTINUOUS
10
79.6845
20
-97.3965
11
79.6848
21
-97.3998
0
LINE
8
BLACK
6
CONTINUOUS
10
79.6848
20
-97.3998
11
79.6837
21
-97.4015
0
LINE
8
BLACK
6
CONTINUOUS
10
79.6837
20
-97.4015
11
79.6829
21
-97.4061
0
LINE
8
BLACK
6
CONTINUOUS
10
79.6829
20
-97.4061
11
79.6703
21
-97.421
0
LINE
8
BLACK
6
CONTINUOUS
10
79.6703
20
-97.421
11
79.6606
21
-97.4379
0
LINE
8
BLACK
6
CONTINUOUS
10
79.6606
20
-97.4379
11
79.6574
21
-97.439
0
LINE
8
BLACK
6
CONTINUOUS
10
79.6574
20
-97.439
11
79.6554
21
-97.4419
0
LINE
8
BLACK
6
CONTINUOUS
10
79.6554
20
-97.4419
11
79.6521
21
-97.4427
0
LINE
8
BLACK
6
CONTINUOUS
10
79.6521
20
-97.4427
11
79.6499
21
-97.4454
0
LINE
8
BLACK
6
CONTINUOUS
10
79.6499
20
-97.4454
11
79.6307
21
-97.4488
0
LINE
8
BLACK
6
CONTINUOUS
10
79.6307
20
-97.4488
11
79.6124
21
-97.4554
0
LINE
8
BLACK
6
CONTINUOUS
10
79.6124
20
-97.4554
11
79.572
21
-97.4554
0
LINE
8
BLACK
6
CONTINUOUS
10
79.572
20
-97.4554
11
79.5622
21
-97.4537
0
LINE
8
BLACK
6
CONTINUOUS
10
79.5622
20
-97.4537
11
79.5589
21
-97.4543
0
LINE
8
BLACK
6
CONTINUOUS
10
79.5589
20
-97.4543
11
79.5561
21
-97.4526
0
LINE
8
BLACK
6
CONTINUOUS
10
79.5561
20
-97.4526
11
79.5463
21
-97.4509
0
LINE
8
BLACK
6
CONTINUOUS
10
79.5463
20
-97.4509
11
79.5314
21
-97.4384
0
LINE
8
BLACK
6
CONTINUOUS
10
79.5314
20
-97.4384
11
79.5145
21
-97.4286
0
LINE
8
BLACK
6
CONTINUOUS
10
79.5145
20
-97.4286
11
79.5122
21
-97.4223
0
LINE
8
BLACK
6
CONTINUOUS
10
79.5122
20
-97.4223
11
79.507
21
-97.4179
0
LINE
8
BLACK
6
CONTINUOUS
10
79.507
20
-97.4179
11
79.5036
21
-97.3987
0
LINE
8
BLACK
6
CONTINUOUS
10
79.5036
20
-97.3987
11
79.497
21
-97.3804
0
LINE
8
BLACK
6
CONTINUOUS
10
79.497
20
-97.3804
11
79.497
21
-97.34
0
LINE
8
BLACK
6
CONTINUOUS
10
79.497
20
-97.34
11
79.4987
21
-97.3303
0
LINE
8
BLACK
6
CONTINUOUS
10
79.4987
20
-97.3303
11
79.4981
21
-97.327
0
LINE
8
BLACK
6
CONTINUOUS
10
79.4981
20
-97.327
11
79.4998
21
-97.3241
0
LINE
8
BLACK
6
CONTINUOUS
10
79.4998
20
-97.3241
11
79.4998
21
-97.3239
0
LINE
8
BLACK
6
CONTINUOUS
10
79.4998
20
-97.3239
11
79.4995
21
-97.3206
0
LINE
8
BLACK
6
CONTINUOUS
10
79.4995
20
-97.3206
11
79.5007
21
-97.3189
0
LINE
8
BLACK
6
CONTINUOUS
10
79.5007
20
-97.3189
11
79.5015
21
-97.3144
0
LINE
8
BLACK
6
CONTINUOUS
10
79.5015
20
-97.3144
11
79.514
21
-97.2994
0
LINE
8
BLACK
6
CONTINUOUS
10
79.514
20
-97.2994
11
79.5238
21
-97.2826
0
LINE
8
BLACK
6
CONTINUOUS
10
79.5238
20
-97.2826
11
79.527
21
-97.2814
0
LINE
8
BLACK
6
CONTINUOUS
10
79.527
20
-97.2814
11
79.529
21
-97.2786
0
LINE
8
BLACK
6
CONTINUOUS
10
79.529
20
-97.2786
11
79.5323
21
-97.2777
0
LINE
8
BLACK
6
CONTINUOUS
10
79.5323
20
-97.2777
11
79.5345
21
-97.2751
0
LINE
8
BLACK
6
CONTINUOUS
10
79.5345
20
-97.2751
11
79.5537
21
-97.2717
0
LINE
8
BLACK
6
CONTINUOUS
10
79.5537
20
-97.2717
11
79.572
21
-97.265
0
LINE
8
BLACK
6
CONTINUOUS
10
79.572
20
-97.265
11
79.6124
21
-97.265
0
LINE
8
BLACK
6
CONTINUOUS
10
79.6124
20
-97.265
11
79.6221
21
-97.2667
0
LINE
8
BLACK
6
CONTINUOUS
10
80.9741
20
-96.8509
11
80.9758
21
-96.8509
0
LINE
8
BLACK
6
CONTINUOUS
10
80.9758
20
-96.8509
11
81.0364
21
-96.8711
0
LINE
8
BLACK
6
CONTINUOUS
10
81.0364
20
-96.8711
11
81.0593
21
-96.8835
0
LINE
8
BLACK
6
CONTINUOUS
10
81.0593
20
-96.8835
11
81.0616
21
-96.8873
0
LINE
8
BLACK
6
CONTINUOUS
10
81.0616
20
-96.8873
11
81.0657
21
-96.8892
0
LINE
8
BLACK
6
CONTINUOUS
10
81.0657
20
-96.8892
11
81.1869
21
-97.0104
0
LINE
8
BLACK
6
CONTINUOUS
10
81.1869
20
-97.0104
11
81.2018
21
-97.0317
0
LINE
8
BLACK
6
CONTINUOUS
10
81.2018
20
-97.0317
11
81.2022
21
-97.0362
0
LINE
8
BLACK
6
CONTINUOUS
10
81.2022
20
-97.0362
11
81.205
21
-97.0397
0
LINE
8
BLACK
6
CONTINUOUS
10
81.205
20
-97.0397
11
81.2252
21
-97.1003
0
LINE
8
BLACK
6
CONTINUOUS
10
81.2252
20
-97.1003
11
81.2285
21
-97.1225
0
LINE
8
BLACK
6
CONTINUOUS
10
81.2285
20
-97.1225
11
81.2291
21
-97.124
0
LINE
8
BLACK
6
CONTINUOUS
10
81.2291
20
-97.124
11
81.2291
21
-97.1644
0
LINE
8
BLACK
6
CONTINUOUS
10
81.2291
20
-97.1644
11
81.2252
21
-97.1865
0
LINE
8
BLACK
6
CONTINUOUS
10
81.2252
20
-97.1865
11
81.2252
21
-97.1882
0
LINE
8
BLACK
6
CONTINUOUS
10
81.2252
20
-97.1882
11
81.205
21
-97.2488
0
LINE
8
BLACK
6
CONTINUOUS
10
81.205
20
-97.2488
11
81.1926
21
-97.2717
0
LINE
8
BLACK
6
CONTINUOUS
10
81.1926
20
-97.2717
11
81.1888
21
-97.274
0
LINE
8
BLACK
6
CONTINUOUS
10
81.1888
20
-97.274
11
81.1869
21
-97.2781
0
LINE
8
BLACK
6
CONTINUOUS
10
81.1869
20
-97.2781
11
81.1061
21
-97.3589
0
LINE
8
BLACK
6
CONTINUOUS
10
81.1061
20
-97.3589
11
81.0847
21
-97.3738
0
LINE
8
BLACK
6
CONTINUOUS
10
81.0847
20
-97.3738
11
81.0803
21
-97.3742
0
LINE
8
BLACK
6
CONTINUOUS
10
81.0803
20
-97.3742
11
81.0776
21
-97.3763
0
LINE
8
BLACK
6
CONTINUOUS
10
81.0776
20
-97.3763
11
81.0557
21
-97.4077
0
LINE
8
BLACK
6
CONTINUOUS
10
81.0557
20
-97.4077
11
81.0061
21
-97.421
0
LINE
8
BLACK
6
CONTINUOUS
10
81.0061
20
-97.421
11
80.9596
21
-97.3993
0
LINE
8
BLACK
6
CONTINUOUS
10
80.9596
20
-97.3993
11
80.5354
21
-96.975
0
LINE
8
BLACK
6
CONTINUOUS
10
80.5354
20
-96.975
11
80.5204
21
-96.9537
0
LINE
8
BLACK
6
CONTINUOUS
10
80.5204
20
-96.9537
11
80.5159
21
-96.9026
0
LINE
8
BLACK
6
CONTINUOUS
10
80.5159
20
-96.9026
11
80.5454
21
-96.8606
0
LINE
8
BLACK
6
CONTINUOUS
10
80.5454
20
-96.8606
11
80.5949
21
-96.8473
0
LINE
8
BLACK
6
CONTINUOUS
10
80.5949
20
-96.8473
11
80.6414
21
-96.869
0
LINE
8
BLACK
6
CONTINUOUS
10
80.6414
20
-96.869
11
80.7298
21
-96.9574
0
LINE
8
BLACK
6
CONTINUOUS
10
80.7298
20
-96.9574
11
80.798
21
-96.8892
0
LINE
8
BLACK
6
CONTINUOUS
10
80.798
20
-96.8892
11
80.8193
21
-96.8742
0
LINE
8
BLACK
6
CONTINUOUS
10
80.8193
20
-96.8742
11
80.8238
21
-96.8738
0
LINE
8
BLACK
6
CONTINUOUS
10
80.8238
20
-96.8738
11
80.8273
21
-96.8711
0
LINE
8
BLACK
6
CONTINUOUS
10
80.8273
20
-96.8711
11
80.8879
21
-96.8509
0
LINE
8
BLACK
6
CONTINUOUS
10
80.8879
20
-96.8509
11
80.9101
21
-96.8476
0
LINE
8
BLACK
6
CONTINUOUS
10
80.9101
20
-96.8476
11
80.9116
21
-96.847
0
LINE
8
BLACK
6
CONTINUOUS
10
80.9116
20
-96.847
11
80.952
21
-96.847
0
LINE
8
BLACK
6
CONTINUOUS
10
80.952
20
-96.847
11
80.9741
21
-96.8509
0
LINE
8
BLACK
6
CONTINUOUS
10
80.9238
20
-96.997
11
80.8915
21
-97.0078
0
LINE
8
BLACK
6
CONTINUOUS
10
80.8915
20
-97.0078
11
80.8359
21
-97.0634
0
LINE
8
BLACK
6
CONTINUOUS
10
80.8359
20
-97.0634
11
81.0126
21
-97.2402
0
LINE
8
BLACK
6
CONTINUOUS
10
81.0126
20
-97.2402
11
81.0683
21
-97.1845
0
LINE
8
BLACK
6
CONTINUOUS
10
81.0683
20
-97.1845
11
81.0791
21
-97.1523
0
LINE
8
BLACK
6
CONTINUOUS
10
81.0791
20
-97.1523
11
81.0791
21
-97.1362
0
LINE
8
BLACK
6
CONTINUOUS
10
81.0791
20
-97.1362
11
81.0683
21
-97.1039
0
LINE
8
BLACK
6
CONTINUOUS
10
81.0683
20
-97.1039
11
80.9721
21
-97.0078
0
LINE
8
BLACK
6
CONTINUOUS
10
80.9721
20
-97.0078
11
80.9399
21
-96.997
0
LINE
8
BLACK
6
CONTINUOUS
10
80.9399
20
-96.997
11
80.9238
21
-96.997
0
LINE
8
BLACK
6
CONTINUOUS
10
79.8241
20
-97.0647
11
79.8274
21
-97.0641
0
LINE
8
BLACK
6
CONTINUOUS
10
79.8274
20
-97.0641
11
79.8303
21
-97.0658
0
LINE
8
BLACK
6
CONTINUOUS
10
79.8303
20
-97.0658
11
79.8401
21
-97.0675
0
LINE
8
BLACK
6
CONTINUOUS
10
79.8401
20
-97.0675
11
79.855
21
-97.08
0
LINE
8
BLACK
6
CONTINUOUS
10
79.855
20
-97.08
11
79.8719
21
-97.0898
0
LINE
8
BLACK
6
CONTINUOUS
10
79.8719
20
-97.0898
11
79.8742
21
-97.0961
0
LINE
8
BLACK
6
CONTINUOUS
10
79.8742
20
-97.0961
11
79.8794
21
-97.1005
0
LINE
8
BLACK
6
CONTINUOUS
10
79.8794
20
-97.1005
11
79.8827
21
-97.1197
0
LINE
8
BLACK
6
CONTINUOUS
10
79.8827
20
-97.1197
11
79.8894
21
-97.138
0
LINE
8
BLACK
6
CONTINUOUS
10
79.8894
20
-97.138
11
79.8894
21
-97.1784
0
LINE
8
BLACK
6
CONTINUOUS
10
79.8894
20
-97.1784
11
79.8877
21
-97.1881
0
LINE
8
BLACK
6
CONTINUOUS
10
79.8877
20
-97.1881
11
79.8883
21
-97.1914
0
LINE
8
BLACK
6
CONTINUOUS
10
79.8883
20
-97.1914
11
79.8866
21
-97.1943
0
LINE
8
BLACK
6
CONTINUOUS
10
79.8866
20
-97.1943
11
79.8866
21
-97.1945
0
LINE
8
BLACK
6
CONTINUOUS
10
79.8866
20
-97.1945
11
79.8868
21
-97.1978
0
LINE
8
BLACK
6
CONTINUOUS
10
79.8868
20
-97.1978
11
79.8857
21
-97.1995
0
LINE
8
BLACK
6
CONTINUOUS
10
79.8857
20
-97.1995
11
79.8849
21
-97.204
0
LINE
8
BLACK
6
CONTINUOUS
10
79.8849
20
-97.204
11
79.8724
21
-97.219
0
LINE
8
BLACK
6
CONTINUOUS
10
79.8724
20
-97.219
11
79.8626
21
-97.2358
0
LINE
8
BLACK
6
CONTINUOUS
10
79.8626
20
-97.2358
11
79.8594
21
-97.237
0
LINE
8
BLACK
6
CONTINUOUS
10
79.8594
20
-97.237
11
79.8574
21
-97.2398
0
LINE
8
BLACK
6
CONTINUOUS
10
79.8574
20
-97.2398
11
79.8541
21
-97.2407
0
LINE
8
BLACK
6
CONTINUOUS
10
79.8541
20
-97.2407
11
79.8519
21
-97.2433
0
LINE
8
BLACK
6
CONTINUOUS
10
79.8519
20
-97.2433
11
79.8327
21
-97.2467
0
LINE
8
BLACK
6
CONTINUOUS
10
79.8327
20
-97.2467
11
79.8144
21
-97.2534
0
LINE
8
BLACK
6
CONTINUOUS
10
79.8144
20
-97.2534
11
79.774
21
-97.2534
0
LINE
8
BLACK
6
CONTINUOUS
10
79.774
20
-97.2534
11
79.7643
21
-97.2517
0
LINE
8
BLACK
6
CONTINUOUS
10
79.7643
20
-97.2517
11
79.761
21
-97.2522
0
LINE
8
BLACK
6
CONTINUOUS
10
79.761
20
-97.2522
11
79.7581
21
-97.2506
0
LINE
8
BLACK
6
CONTINUOUS
10
79.7581
20
-97.2506
11
79.7483
21
-97.2489
0
LINE
8
BLACK
6
CONTINUOUS
10
79.7483
20
-97.2489
11
79.7334
21
-97.2363
0
LINE
8
BLACK
6
CONTINUOUS
10
79.7334
20
-97.2363
11
79.7165
21
-97.2266
0
LINE
8
BLACK
6
CONTINUOUS
10
79.7165
20
-97.2266
11
79.7142
21
-97.2202
0
LINE
8
BLACK
6
CONTINUOUS
10
79.7142
20
-97.2202
11
79.709
21
-97.2159
0
LINE
8
BLACK
6
CONTINUOUS
10
79.709
20
-97.2159
11
79.7057
21
-97.1967
0
LINE
8
BLACK
6
CONTINUOUS
10
79.7057
20
-97.1967
11
79.699
21
-97.1784
0
LINE
8
BLACK
6
CONTINUOUS
10
79.699
20
-97.1784
11
79.699
21
-97.138
0
LINE
8
BLACK
6
CONTINUOUS
10
79.699
20
-97.138
11
79.7007
21
-97.1282
0
LINE
8
BLACK
6
CONTINUOUS
10
79.7007
20
-97.1282
11
79.7001
21
-97.125
0
LINE
8
BLACK
6
CONTINUOUS
10
79.7001
20
-97.125
11
79.7018
21
-97.1221
0
LINE
8
BLACK
6
CONTINUOUS
10
79.7018
20
-97.1221
11
79.7018
21
-97.1219
0
LINE
8
BLACK
6
CONTINUOUS
10
79.7018
20
-97.1219
11
79.7016
21
-97.1186
0
LINE
8
BLACK
6
CONTINUOUS
10
79.7016
20
-97.1186
11
79.7027
21
-97.1169
0
LINE
8
BLACK
6
CONTINUOUS
10
79.7027
20
-97.1169
11
79.7035
21
-97.1123
0
LINE
8
BLACK
6
CONTINUOUS
10
79.7035
20
-97.1123
11
79.716
21
-97.0974
0
LINE
8
BLACK
6
CONTINUOUS
10
79.716
20
-97.0974
11
79.7258
21
-97.0805
0
LINE
8
BLACK
6
CONTINUOUS
10
79.7258
20
-97.0805
11
79.729
21
-97.0794
0
LINE
8
BLACK
6
CONTINUOUS
10
79.729
20
-97.0794
11
79.731
21
-97.0765
0
LINE
8
BLACK
6
CONTINUOUS
10
79.731
20
-97.0765
11
79.7343
21
-97.0757
0
LINE
8
BLACK
6
CONTINUOUS
10
79.7343
20
-97.0757
11
79.7365
21
-97.073
0
LINE
8
BLACK
6
CONTINUOUS
10
79.7365
20
-97.073
11
79.7557
21
-97.0696
0
LINE
8
BLACK
6
CONTINUOUS
10
79.7557
20
-97.0696
11
79.774
21
-97.063
0
LINE
8
BLACK
6
CONTINUOUS
10
79.774
20
-97.063
11
79.8144
21
-97.063
0
LINE
8
BLACK
6
CONTINUOUS
10
79.8144
20
-97.063
11
79.8241
21
-97.0647
0
LINE
8
BLACK
6
CONTINUOUS
10
80.0262
20
-96.8627
11
80.0295
21
-96.8621
0
LINE
8
BLACK
6
CONTINUOUS
10
80.0295
20
-96.8621
11
80.0323
21
-96.8638
0
LINE
8
BLACK
6
CONTINUOUS
10
80.0323
20
-96.8638
11
80.0421
21
-96.8655
0
LINE
8
BLACK
6
CONTINUOUS
10
80.0421
20
-96.8655
11
80.057
21
-96.878
0
LINE
8
BLACK
6
CONTINUOUS
10
80.057
20
-96.878
11
80.0739
21
-96.8877
0
LINE
8
BLACK
6
CONTINUOUS
10
80.0739
20
-96.8877
11
80.0762
21
-96.8941
0
LINE
8
BLACK
6
CONTINUOUS
10
80.0762
20
-96.8941
11
80.0814
21
-96.8984
0
LINE
8
BLACK
6
CONTINUOUS
10
80.0814
20
-96.8984
11
80.0848
21
-96.9176
0
LINE
8
BLACK
6
CONTINUOUS
10
80.0848
20
-96.9176
11
80.0914
21
-96.9359
0
LINE
8
BLACK
6
CONTINUOUS
10
80.0914
20
-96.9359
11
80.0914
21
-96.9764
0
LINE
8
BLACK
6
CONTINUOUS
10
80.0914
20
-96.9764
11
80.0897
21
-96.9861
0
LINE
8
BLACK
6
CONTINUOUS
10
80.0897
20
-96.9861
11
80.0903
21
-96.9894
0
LINE
8
BLACK
6
CONTINUOUS
10
80.0903
20
-96.9894
11
80.0886
21
-96.9923
0
LINE
8
BLACK
6
CONTINUOUS
10
80.0886
20
-96.9923
11
80.0886
21
-96.9925
0
LINE
8
BLACK
6
CONTINUOUS
10
80.0886
20
-96.9925
11
80.0889
21
-96.9958
0
LINE
8
BLACK
6
CONTINUOUS
10
80.0889
20
-96.9958
11
80.0877
21
-96.9974
0
LINE
8
BLACK
6
CONTINUOUS
10
80.0877
20
-96.9974
11
80.0869
21
-97.002
0
LINE
8
BLACK
6
CONTINUOUS
10
80.0869
20
-97.002
11
80.0744
21
-97.0169
0
LINE
8
BLACK
6
CONTINUOUS
10
80.0744
20
-97.0169
11
80.0646
21
-97.0338
0
LINE
8
BLACK
6
CONTINUOUS
10
80.0646
20
-97.0338
11
80.0614
21
-97.035
0
LINE
8
BLACK
6
CONTINUOUS
10
80.0614
20
-97.035
11
80.0595
21
-97.0378
0
LINE
8
BLACK
6
CONTINUOUS
10
80.0595
20
-97.0378
11
80.0561
21
-97.0387
0
LINE
8
BLACK
6
CONTINUOUS
10
80.0561
20
-97.0387
11
80.0539
21
-97.0413
0
LINE
8
BLACK
6
CONTINUOUS
10
80.0539
20
-97.0413
11
80.0347
21
-97.0447
0
LINE
8
BLACK
6
CONTINUOUS
10
80.0347
20
-97.0447
11
80.0164
21
-97.0514
0
LINE
8
BLACK
6
CONTINUOUS
10
80.0164
20
-97.0514
11
79.976
21
-97.0514
0
LINE
8
BLACK
6
CONTINUOUS
10
79.976
20
-97.0514
11
79.9663
21
-97.0496
0
LINE
8
BLACK
6
CONTINUOUS
10
79.9663
20
-97.0496
11
79.963
21
-97.0502
0
LINE
8
BLACK
6
CONTINUOUS
10
79.963
20
-97.0502
11
79.9601
21
-97.0486
0
LINE
8
BLACK
6
CONTINUOUS
10
79.9601
20
-97.0486
11
79.9504
21
-97.0468
0
LINE
8
BLACK
6
CONTINUOUS
10
79.9504
20
-97.0468
11
79.9355
21
-97.0343
0
LINE
8
BLACK
6
CONTINUOUS
10
79.9355
20
-97.0343
11
79.9186
21
-97.0246
0
LINE
8
BLACK
6
CONTINUOUS
10
79.9186
20
-97.0246
11
79.9163
21
-97.0182
0
LINE
8
BLACK
6
CONTINUOUS
10
79.9163
20
-97.0182
11
79.9111
21
-97.0139
0
LINE
8
BLACK
6
CONTINUOUS
10
79.9111
20
-97.0139
11
79.9077
21
-96.9947
0
LINE
8
BLACK
6
CONTINUOUS
10
79.9077
20
-96.9947
11
79.901
21
-96.9764
0
LINE
8
BLACK
6
CONTINUOUS
10
79.901
20
-96.9764
11
79.901
21
-96.9359
0
LINE
8
BLACK
6
CONTINUOUS
10
79.901
20
-96.9359
11
79.9027
21
-96.9262
0
LINE
8
BLACK
6
CONTINUOUS
10
79.9027
20
-96.9262
11
79.9022
21
-96.9229
0
LINE
8
BLACK
6
CONTINUOUS
10
79.9022
20
-96.9229
11
79.9038
21
-96.92
0
LINE
8
BLACK
6
CONTINUOUS
10
79.9038
20
-96.92
11
79.9039
21
-96.9198
0
LINE
8
BLACK
6
CONTINUOUS
10
79.9039
20
-96.9198
11
79.9036
21
-96.9165
0
LINE
8
BLACK
6
CONTINUOUS
10
79.9036
20
-96.9165
11
79.9047
21
-96.9149
0
LINE
8
BLACK
6
CONTINUOUS
10
79.9047
20
-96.9149
11
79.9056
21
-96.9103
0
LINE
8
BLACK
6
CONTINUOUS
10
79.9056
20
-96.9103
11
79.9181
21
-96.8954
0
LINE
8
BLACK
6
CONTINUOUS
10
79.9181
20
-96.8954
11
79.9278
21
-96.8785
0
LINE
8
BLACK
6
CONTINUOUS
10
79.9278
20
-96.8785
11
79.931
21
-96.8773
0
LINE
8
BLACK
6
CONTINUOUS
10
79.931
20
-96.8773
11
79.933
21
-96.8745
0
LINE
8
BLACK
6
CONTINUOUS
10
79.933
20
-96.8745
11
79.9363
21
-96.8736
0
LINE
8
BLACK
6
CONTINUOUS
10
79.9363
20
-96.8736
11
79.9385
21
-96.871
0
LINE
8
BLACK
6
CONTINUOUS
10
79.9385
20
-96.871
11
79.9577
21
-96.8676
0
LINE
8
BLACK
6
CONTINUOUS
10
79.9577
20
-96.8676
11
79.976
21
-96.861
0
LINE
8
BLACK
6
CONTINUOUS
10
79.976
20
-96.861
11
80.0164
21
-96.861
0
LINE
8
BLACK
6
CONTINUOUS
10
80.0164
20
-96.861
11
80.0262
21
-96.8627
0
LINE
8
BLACK
6
CONTINUOUS
10
81.358
20
-96.467
11
81.3596
21
-96.467
0
LINE
8
BLACK
6
CONTINUOUS
10
81.3596
20
-96.467
11
81.4202
21
-96.4872
0
LINE
8
BLACK
6
CONTINUOUS
10
81.4202
20
-96.4872
11
81.4431
21
-96.4996
0
LINE
8
BLACK
6
CONTINUOUS
10
81.4431
20
-96.4996
11
81.4455
21
-96.5034
0
LINE
8
BLACK
6
CONTINUOUS
10
81.4455
20
-96.5034
11
81.4495
21
-96.5053
0
LINE
8
BLACK
6
CONTINUOUS
10
81.4495
20
-96.5053
11
81.5708
21
-96.6265
0
LINE
8
BLACK
6
CONTINUOUS
10
81.5708
20
-96.6265
11
81.5857
21
-96.6479
0
LINE
8
BLACK
6
CONTINUOUS
10
81.5857
20
-96.6479
11
81.5861
21
-96.6523
0
LINE
8
BLACK
6
CONTINUOUS
10
81.5861
20
-96.6523
11
81.5889
21
-96.6559
0
LINE
8
BLACK
6
CONTINUOUS
10
81.5889
20
-96.6559
11
81.6091
21
-96.7165
0
LINE
8
BLACK
6
CONTINUOUS
10
81.6091
20
-96.7165
11
81.6124
21
-96.7386
0
LINE
8
BLACK
6
CONTINUOUS
10
81.6124
20
-96.7386
11
81.6129
21
-96.7402
0
LINE
8
BLACK
6
CONTINUOUS
10
81.6129
20
-96.7402
11
81.6129
21
-96.7806
0
LINE
8
BLACK
6
CONTINUOUS
10
81.6129
20
-96.7806
11
81.609
21
-96.8027
0
LINE
8
BLACK
6
CONTINUOUS
10
81.609
20
-96.8027
11
81.6091
21
-96.8043
0
LINE
8
BLACK
6
CONTINUOUS
10
81.6091
20
-96.8043
11
81.5889
21
-96.8649
0
LINE
8
BLACK
6
CONTINUOUS
10
81.5889
20
-96.8649
11
81.5765
21
-96.8878
0
LINE
8
BLACK
6
CONTINUOUS
10
81.5765
20
-96.8878
11
81.5727
21
-96.8902
0
LINE
8
BLACK
6
CONTINUOUS
10
81.5727
20
-96.8902
11
81.5708
21
-96.8942
0
LINE
8
BLACK
6
CONTINUOUS
10
81.5708
20
-96.8942
11
81.5101
21
-96.9548
0
LINE
8
BLACK
6
CONTINUOUS
10
81.5101
20
-96.9548
11
81.4888
21
-96.9698
0
LINE
8
BLACK
6
CONTINUOUS
10
81.4888
20
-96.9698
11
81.4843
21
-96.9702
0
LINE
8
BLACK
6
CONTINUOUS
10
81.4843
20
-96.9702
11
81.4808
21
-96.973
0
LINE
8
BLACK
6
CONTINUOUS
10
81.4808
20
-96.973
11
81.4202
21
-96.9932
0
LINE
8
BLACK
6
CONTINUOUS
10
81.4202
20
-96.9932
11
81.398
21
-96.9964
0
LINE
8
BLACK
6
CONTINUOUS
10
81.398
20
-96.9964
11
81.3965
21
-96.997
0
LINE
8
BLACK
6
CONTINUOUS
10
81.3965
20
-96.997
11
81.3561
21
-96.997
0
LINE
8
BLACK
6
CONTINUOUS
10
81.3561
20
-96.997
11
81.334
21
-96.9931
0
LINE
8
BLACK
6
CONTINUOUS
10
81.334
20
-96.9931
11
81.3324
21
-96.9932
0
LINE
8
BLACK
6
CONTINUOUS
10
81.3324
20
-96.9932
11
81.2718
21
-96.973
0
LINE
8
BLACK
6
CONTINUOUS
10
81.2718
20
-96.973
11
81.2489
21
-96.9606
0
LINE
8
BLACK
6
CONTINUOUS
10
81.2489
20
-96.9606
11
81.2465
21
-96.9567
0
LINE
8
BLACK
6
CONTINUOUS
10
81.2465
20
-96.9567
11
81.2425
21
-96.9548
0
LINE
8
BLACK
6
CONTINUOUS
10
81.2425
20
-96.9548
11
81.1212
21
-96.8336
0
LINE
8
BLACK
6
CONTINUOUS
10
81.1212
20
-96.8336
11
81.1063
21
-96.8123
0
LINE
8
BLACK
6
CONTINUOUS
10
81.1063
20
-96.8123
11
81.1059
21
-96.8078
0
LINE
8
BLACK
6
CONTINUOUS
10
81.1059
20
-96.8078
11
81.1031
21
-96.8043
0
LINE
8
BLACK
6
CONTINUOUS
10
81.1031
20
-96.8043
11
81.0829
21
-96.7437
0
LINE
8
BLACK
6
CONTINUOUS
10
81.0829
20
-96.7437
11
81.0796
21
-96.7215
0
LINE
8
BLACK
6
CONTINUOUS
10
81.0796
20
-96.7215
11
81.0791
21
-96.72
0
LINE
8
BLACK
6
CONTINUOUS
10
81.0791
20
-96.72
11
81.0791
21
-96.6796
0
LINE
8
BLACK
6
CONTINUOUS
10
81.0791
20
-96.6796
11
81.083
21
-96.6575
0
LINE
8
BLACK
6
CONTINUOUS
10
81.083
20
-96.6575
11
81.0829
21
-96.6559
0
LINE
8
BLACK
6
CONTINUOUS
10
81.0829
20
-96.6559
11
81.1031
21
-96.5952
0
LINE
8
BLACK
6
CONTINUOUS
10
81.1031
20
-96.5952
11
81.1155
21
-96.5723
0
LINE
8
BLACK
6
CONTINUOUS
10
81.1155
20
-96.5723
11
81.1193
21
-96.57
0
LINE
8
BLACK
6
CONTINUOUS
10
81.1193
20
-96.57
11
81.1212
21
-96.5659
0
LINE
8
BLACK
6
CONTINUOUS
10
81.1212
20
-96.5659
11
81.1818
21
-96.5053
0
LINE
8
BLACK
6
CONTINUOUS
10
81.1818
20
-96.5053
11
81.2032
21
-96.4904
0
LINE
8
BLACK
6
CONTINUOUS
10
81.2032
20
-96.4904
11
81.2077
21
-96.49
0
LINE
8
BLACK
6
CONTINUOUS
10
81.2077
20
-96.49
11
81.2112
21
-96.4872
0
LINE
8
BLACK
6
CONTINUOUS
10
81.2112
20
-96.4872
11
81.2718
21
-96.467
0
LINE
8
BLACK
6
CONTINUOUS
10
81.2718
20
-96.467
11
81.294
21
-96.4637
0
LINE
8
BLACK
6
CONTINUOUS
10
81.294
20
-96.4637
11
81.2955
21
-96.4632
0
LINE
8
BLACK
6
CONTINUOUS
10
81.2955
20
-96.4632
11
81.3359
21
-96.4632
0
LINE
8
BLACK
6
CONTINUOUS
10
81.3359
20
-96.4632
11
81.358
21
-96.467
0
LINE
8
BLACK
6
CONTINUOUS
10
81.3077
20
-96.6132
11
81.2754
21
-96.6239
0
LINE
8
BLACK
6
CONTINUOUS
10
81.2754
20
-96.6239
11
81.2398
21
-96.6595
0
LINE
8
BLACK
6
CONTINUOUS
10
81.2398
20
-96.6595
11
81.2291
21
-96.6917
0
LINE
8
BLACK
6
CONTINUOUS
10
81.2291
20
-96.6917
11
81.2291
21
-96.7078
0
LINE
8
BLACK
6
CONTINUOUS
10
81.2291
20
-96.7078
11
81.2398
21
-96.7401
0
LINE
8
BLACK
6
CONTINUOUS
10
81.2398
20
-96.7401
11
81.336
21
-96.8363
0
LINE
8
BLACK
6
CONTINUOUS
10
81.336
20
-96.8363
11
81.3683
21
-96.847
0
LINE
8
BLACK
6
CONTINUOUS
10
81.3683
20
-96.847
11
81.3843
21
-96.847
0
LINE
8
BLACK
6
CONTINUOUS
10
81.3843
20
-96.847
11
81.4166
21
-96.8363
0
LINE
8
BLACK
6
CONTINUOUS
10
81.4166
20
-96.8363
11
81.4522
21
-96.8007
0
LINE
8
BLACK
6
CONTINUOUS
10
81.4522
20
-96.8007
11
81.4629
21
-96.7684
0
LINE
8
BLACK
6
CONTINUOUS
10
81.4629
20
-96.7684
11
81.4629
21
-96.7524
0
LINE
8
BLACK
6
CONTINUOUS
10
81.4629
20
-96.7524
11
81.4522
21
-96.7201
0
LINE
8
BLACK
6
CONTINUOUS
10
81.4522
20
-96.7201
11
81.356
21
-96.6239
0
LINE
8
BLACK
6
CONTINUOUS
10
81.356
20
-96.6239
11
81.3237
21
-96.6132
0
LINE
8
BLACK
6
CONTINUOUS
10
81.3237
20
-96.6132
11
81.3077
21
-96.6132
0
LINE
8
BLACK
6
CONTINUOUS
10
80.0493
20
-96.3778
11
80.3321
21
-96.6607
0
LINE
8
BLACK
6
CONTINUOUS
10
80.3321
20
-96.6607
11
80.347
21
-96.682
0
LINE
8
BLACK
6
CONTINUOUS
10
80.347
20
-96.682
11
80.3515
21
-96.7331
0
LINE
8
BLACK
6
CONTINUOUS
10
80.3515
20
-96.7331
11
80.3221
21
-96.7752
0
LINE
8
BLACK
6
CONTINUOUS
10
80.3221
20
-96.7752
11
80.2725
21
-96.7884
0
LINE
8
BLACK
6
CONTINUOUS
10
80.2725
20
-96.7884
11
80.226
21
-96.7667
0
LINE
8
BLACK
6
CONTINUOUS
10
80.226
20
-96.7667
11
80.0365
21
-96.5772
0
LINE
8
BLACK
6
CONTINUOUS
10
80.0365
20
-96.5772
11
80.0043
21
-96.5665
0
LINE
8
BLACK
6
CONTINUOUS
10
80.0043
20
-96.5665
11
79.9882
21
-96.5665
0
LINE
8
BLACK
6
CONTINUOUS
10
79.9882
20
-96.5665
11
79.9559
21
-96.5772
0
LINE
8
BLACK
6
CONTINUOUS
10
79.9559
20
-96.5772
11
79.928
21
-96.6051
0
LINE
8
BLACK
6
CONTINUOUS
10
79.928
20
-96.6051
11
79.9067
21
-96.6201
0
LINE
8
BLACK
6
CONTINUOUS
10
79.9067
20
-96.6201
11
79.8556
21
-96.6245
0
LINE
8
BLACK
6
CONTINUOUS
10
79.8556
20
-96.6245
11
79.8136
21
-96.5951
0
LINE
8
BLACK
6
CONTINUOUS
10
79.8136
20
-96.5951
11
79.8003
21
-96.5456
0
LINE
8
BLACK
6
CONTINUOUS
10
79.8003
20
-96.5456
11
79.822
21
-96.4991
0
LINE
8
BLACK
6
CONTINUOUS
10
79.822
20
-96.4991
11
79.8624
21
-96.4587
0
LINE
8
BLACK
6
CONTINUOUS
10
79.8624
20
-96.4587
11
79.8837
21
-96.4437
0
LINE
8
BLACK
6
CONTINUOUS
10
79.8837
20
-96.4437
11
79.8882
21
-96.4433
0
LINE
8
BLACK
6
CONTINUOUS
10
79.8882
20
-96.4433
11
79.8917
21
-96.4405
0
LINE
8
BLACK
6
CONTINUOUS
10
79.8917
20
-96.4405
11
79.9253
21
-96.4293
0
LINE
8
BLACK
6
CONTINUOUS
10
79.9253
20
-96.4293
11
79.9238
21
-96.4115
0
LINE
8
BLACK
6
CONTINUOUS
10
79.9238
20
-96.4115
11
79.9532
21
-96.3694
0
LINE
8
BLACK
6
CONTINUOUS
10
79.9532
20
-96.3694
11
80.0028
21
-96.3562
0
LINE
8
BLACK
6
CONTINUOUS
10
80.0028
20
-96.3562
11
80.0493
21
-96.3778
0
LINE
8
BLACK
6
CONTINUOUS
10
81.591
20
-95.9194
11
82.0152
21
-96.3437
0
LINE
8
BLACK
6
CONTINUOUS
10
82.0152
20
-96.3437
11
82.0302
21
-96.365
0
LINE
8
BLACK
6
CONTINUOUS
10
82.0302
20
-96.365
11
82.0346
21
-96.4161
0
LINE
8
BLACK
6
CONTINUOUS
10
82.0346
20
-96.4161
11
82.0052
21
-96.4582
0
LINE
8
BLACK
6
CONTINUOUS
10
82.0052
20
-96.4582
11
81.9926
21
-96.4616
0
LINE
8
BLACK
6
CONTINUOUS
10
81.9926
20
-96.4616
11
81.9805
21
-96.4838
0
LINE
8
BLACK
6
CONTINUOUS
10
81.9805
20
-96.4838
11
81.9767
21
-96.4861
0
LINE
8
BLACK
6
CONTINUOUS
10
81.9767
20
-96.4861
11
81.9748
21
-96.4902
0
LINE
8
BLACK
6
CONTINUOUS
10
81.9748
20
-96.4902
11
81.894
21
-96.571
0
LINE
8
BLACK
6
CONTINUOUS
10
81.894
20
-96.571
11
81.8727
21
-96.5859
0
LINE
8
BLACK
6
CONTINUOUS
10
81.8727
20
-96.5859
11
81.8682
21
-96.5863
0
LINE
8
BLACK
6
CONTINUOUS
10
81.8682
20
-96.5863
11
81.8647
21
-96.5891
0
LINE
8
BLACK
6
CONTINUOUS
10
81.8647
20
-96.5891
11
81.8041
21
-96.6093
0
LINE
8
BLACK
6
CONTINUOUS
10
81.8041
20
-96.6093
11
81.7819
21
-96.6126
0
LINE
8
BLACK
6
CONTINUOUS
10
81.7819
20
-96.6126
11
81.7804
21
-96.6132
0
LINE
8
BLACK
6
CONTINUOUS
10
81.7804
20
-96.6132
11
81.74
21
-96.6132
0
LINE
8
BLACK
6
CONTINUOUS
10
81.74
20
-96.6132
11
81.7179
21
-96.6093
0
LINE
8
BLACK
6
CONTINUOUS
10
81.7179
20
-96.6093
11
81.7162
21
-96.6093
0
LINE
8
BLACK
6
CONTINUOUS
10
81.7162
20
-96.6093
11
81.6556
21
-96.5891
0
LINE
8
BLACK
6
CONTINUOUS
10
81.6556
20
-96.5891
11
81.6327
21
-96.5767
0
LINE
8
BLACK
6
CONTINUOUS
10
81.6327
20
-96.5767
11
81.6304
21
-96.5729
0
LINE
8
BLACK
6
CONTINUOUS
10
81.6304
20
-96.5729
11
81.6263
21
-96.571
0
LINE
8
BLACK
6
CONTINUOUS
10
81.6263
20
-96.571
11
81.5051
21
-96.4498
0
LINE
8
BLACK
6
CONTINUOUS
10
81.5051
20
-96.4498
11
81.4902
21
-96.4284
0
LINE
8
BLACK
6
CONTINUOUS
10
81.4902
20
-96.4284
11
81.4898
21
-96.424
0
LINE
8
BLACK
6
CONTINUOUS
10
81.4898
20
-96.424
11
81.487
21
-96.4204
0
LINE
8
BLACK
6
CONTINUOUS
10
81.487
20
-96.4204
11
81.4668
21
-96.3598
0
LINE
8
BLACK
6
CONTINUOUS
10
81.4668
20
-96.3598
11
81.4635
21
-96.3377
0
LINE
8
BLACK
6
CONTINUOUS
10
81.4635
20
-96.3377
11
81.4629
21
-96.3361
0
LINE
8
BLACK
6
CONTINUOUS
10
81.4629
20
-96.3361
11
81.4629
21
-96.2957
0
LINE
8
BLACK
6
CONTINUOUS
10
81.4629
20
-96.2957
11
81.4668
21
-96.2736
0
LINE
8
BLACK
6
CONTINUOUS
10
81.4668
20
-96.2736
11
81.4668
21
-96.272
0
LINE
8
BLACK
6
CONTINUOUS
10
81.4668
20
-96.272
11
81.487
21
-96.2114
0
LINE
8
BLACK
6
CONTINUOUS
10
81.487
20
-96.2114
11
81.4994
21
-96.1885
0
LINE
8
BLACK
6
CONTINUOUS
10
81.4994
20
-96.1885
11
81.5032
21
-96.1861
0
LINE
8
BLACK
6
CONTINUOUS
10
81.5032
20
-96.1861
11
81.5051
21
-96.1821
0
LINE
8
BLACK
6
CONTINUOUS
10
81.5051
20
-96.1821
11
81.5733
21
-96.1139
0
LINE
8
BLACK
6
CONTINUOUS
10
81.5733
20
-96.1139
11
81.4849
21
-96.0255
0
LINE
8
BLACK
6
CONTINUOUS
10
81.4849
20
-96.0255
11
81.47
21
-96.0042
0
LINE
8
BLACK
6
CONTINUOUS
10
81.47
20
-96.0042
11
81.4655
21
-95.9531
0
LINE
8
BLACK
6
CONTINUOUS
10
81.4655
20
-95.9531
11
81.4949
21
-95.911
0
LINE
8
BLACK
6
CONTINUOUS
10
81.4949
20
-95.911
11
81.5445
21
-95.8978
0
LINE
8
BLACK
6
CONTINUOUS
10
81.5445
20
-95.8978
11
81.591
21
-95.9194
0
LINE
8
BLACK
6
CONTINUOUS
10
81.6237
20
-96.2756
11
81.6129
21
-96.3079
0
LINE
8
BLACK
6
CONTINUOUS
10
81.6129
20
-96.3079
11
81.6129
21
-96.324
0
LINE
8
BLACK
6
CONTINUOUS
10
81.6129
20
-96.324
11
81.6237
21
-96.3562
0
LINE
8
BLACK
6
CONTINUOUS
10
81.6237
20
-96.3562
11
81.7199
21
-96.4524
0
LINE
8
BLACK
6
CONTINUOUS
10
81.7199
20
-96.4524
11
81.7521
21
-96.4632
0
LINE
8
BLACK
6
CONTINUOUS
10
81.7521
20
-96.4632
11
81.7682
21
-96.4632
0
LINE
8
BLACK
6
CONTINUOUS
10
81.7682
20
-96.4632
11
81.8005
21
-96.4524
0
LINE
8
BLACK
6
CONTINUOUS
10
81.8005
20
-96.4524
11
81.8561
21
-96.3967
0
LINE
8
BLACK
6
CONTINUOUS
10
81.8561
20
-96.3967
11
81.6793
21
-96.22
0
LINE
8
BLACK
6
CONTINUOUS
10
81.6793
20
-96.22
11
81.6237
21
-96.2756
0
LINE
8
BLACK
6
CONTINUOUS
10
80.4426
20
-96.0163
11
80.4442
21
-96.0163
0
LINE
8
BLACK
6
CONTINUOUS
10
80.4442
20
-96.0163
11
80.5048
21
-96.0365
0
LINE
8
BLACK
6
CONTINUOUS
10
80.5048
20
-96.0365
11
80.5277
21
-96.0489
0
LINE
8
BLACK
6
CONTINUOUS
10
80.5277
20
-96.0489
11
80.5301
21
-96.0527
0
LINE
8
BLACK
6
CONTINUOUS
10
80.5301
20
-96.0527
11
80.5341
21
-96.0546
0
LINE
8
BLACK
6
CONTINUOUS
10
80.5341
20
-96.0546
11
80.6554
21
-96.1758
0
LINE
8
BLACK
6
CONTINUOUS
10
80.6554
20
-96.1758
11
80.6703
21
-96.1971
0
LINE
8
BLACK
6
CONTINUOUS
10
80.6703
20
-96.1971
11
80.6707
21
-96.2016
0
LINE
8
BLACK
6
CONTINUOUS
10
80.6707
20
-96.2016
11
80.6735
21
-96.2051
0
LINE
8
BLACK
6
CONTINUOUS
10
80.6735
20
-96.2051
11
80.6937
21
-96.2657
0
LINE
8
BLACK
6
CONTINUOUS
10
80.6937
20
-96.2657
11
80.697
21
-96.2879
0
LINE
8
BLACK
6
CONTINUOUS
10
80.697
20
-96.2879
11
80.6975
21
-96.2895
0
LINE
8
BLACK
6
CONTINUOUS
10
80.6975
20
-96.2895
11
80.6975
21
-96.3299
0
LINE
8
BLACK
6
CONTINUOUS
10
80.6975
20
-96.3299
11
80.6936
21
-96.3519
0
LINE
8
BLACK
6
CONTINUOUS
10
80.6936
20
-96.3519
11
80.6937
21
-96.3536
0
LINE
8
BLACK
6
CONTINUOUS
10
80.6937
20
-96.3536
11
80.6735
21
-96.4142
0
LINE
8
BLACK
6
CONTINUOUS
10
80.6735
20
-96.4142
11
80.6611
21
-96.4371
0
LINE
8
BLACK
6
CONTINUOUS
10
80.6611
20
-96.4371
11
80.6573
21
-96.4394
0
LINE
8
BLACK
6
CONTINUOUS
10
80.6573
20
-96.4394
11
80.6554
21
-96.4435
0
LINE
8
BLACK
6
CONTINUOUS
10
80.6554
20
-96.4435
11
80.5947
21
-96.5041
0
LINE
8
BLACK
6
CONTINUOUS
10
80.5947
20
-96.5041
11
80.5734
21
-96.519
0
LINE
8
BLACK
6
CONTINUOUS
10
80.5734
20
-96.519
11
80.5689
21
-96.5194
0
LINE
8
BLACK
6
CONTINUOUS
10
80.5689
20
-96.5194
11
80.5654
21
-96.5222
0
LINE
8
BLACK
6
CONTINUOUS
10
80.5654
20
-96.5222
11
80.5048
21
-96.5424
0
LINE
8
BLACK
6
CONTINUOUS
10
80.5048
20
-96.5424
11
80.4826
21
-96.5457
0
LINE
8
BLACK
6
CONTINUOUS
10
80.4826
20
-96.5457
11
80.4811
21
-96.5463
0
LINE
8
BLACK
6
CONTINUOUS
10
80.4811
20
-96.5463
11
80.4407
21
-96.5463
0
LINE
8
BLACK
6
CONTINUOUS
10
80.4407
20
-96.5463
11
80.4186
21
-96.5424
0
LINE
8
BLACK
6
CONTINUOUS
10
80.4186
20
-96.5424
11
80.417
21
-96.5424
0
LINE
8
BLACK
6
CONTINUOUS
10
80.417
20
-96.5424
11
80.3564
21
-96.5222
0
LINE
8
BLACK
6
CONTINUOUS
10
80.3564
20
-96.5222
11
80.3335
21
-96.5098
0
LINE
8
BLACK
6
CONTINUOUS
10
80.3335
20
-96.5098
11
80.3311
21
-96.506
0
LINE
8
BLACK
6
CONTINUOUS
10
80.3311
20
-96.506
11
80.3271
21
-96.5041
0
LINE
8
BLACK
6
CONTINUOUS
10
80.3271
20
-96.5041
11
80.2058
21
-96.3829
0
LINE
8
BLACK
6
CONTINUOUS
10
80.2058
20
-96.3829
11
80.1909
21
-96.3616
0
LINE
8
BLACK
6
CONTINUOUS
10
80.1909
20
-96.3616
11
80.1905
21
-96.3571
0
LINE
8
BLACK
6
CONTINUOUS
10
80.1905
20
-96.3571
11
80.1877
21
-96.3536
0
LINE
8
BLACK
6
CONTINUOUS
10
80.1877
20
-96.3536
11
80.1675
21
-96.293
0
LINE
8
BLACK
6
CONTINUOUS
10
80.1675
20
-96.293
11
80.1642
21
-96.2708
0
LINE
8
BLACK
6
CONTINUOUS
10
80.1642
20
-96.2708
11
80.1637
21
-96.2692
0
LINE
8
BLACK
6
CONTINUOUS
10
80.1637
20
-96.2692
11
80.1637
21
-96.2288
0
LINE
8
BLACK
6
CONTINUOUS
10
80.1637
20
-96.2288
11
80.1676
21
-96.2068
0
LINE
8
BLACK
6
CONTINUOUS
10
80.1676
20
-96.2068
11
80.1675
21
-96.2051
0
LINE
8
BLACK
6
CONTINUOUS
10
80.1675
20
-96.2051
11
80.1877
21
-96.1445
0
LINE
8
BLACK
6
CONTINUOUS
10
80.1877
20
-96.1445
11
80.2001
21
-96.1216
0
LINE
8
BLACK
6
CONTINUOUS
10
80.2001
20
-96.1216
11
80.2039
21
-96.1193
0
LINE
8
BLACK
6
CONTINUOUS
10
80.2039
20
-96.1193
11
80.2058
21
-96.1152
0
LINE
8
BLACK
6
CONTINUOUS
10
80.2058
20
-96.1152
11
80.2664
21
-96.0546
0
LINE
8
BLACK
6
CONTINUOUS
10
80.2664
20
-96.0546
11
80.2878
21
-96.0397
0
LINE
8
BLACK
6
CONTINUOUS
10
80.2878
20
-96.0397
11
80.2923
21
-96.0393
0
LINE
8
BLACK
6
CONTINUOUS
10
80.2923
20
-96.0393
11
80.2958
21
-96.0365
0
LINE
8
BLACK
6
CONTINUOUS
10
80.2958
20
-96.0365
11
80.3564
21
-96.0163
0
LINE
8
BLACK
6
CONTINUOUS
10
80.3564
20
-96.0163
11
80.3786
21
-96.013
0
LINE
8
BLACK
6
CONTINUOUS
10
80.3786
20
-96.013
11
80.3801
21
-96.0124
0
LINE
8
BLACK
6
CONTINUOUS
10
80.3801
20
-96.0124
11
80.4205
21
-96.0124
0
LINE
8
BLACK
6
CONTINUOUS
10
80.4205
20
-96.0124
11
80.4426
21
-96.0163
0
LINE
8
BLACK
6
CONTINUOUS
10
80.3923
20
-96.1624
11
80.36
21
-96.1732
0
LINE
8
BLACK
6
CONTINUOUS
10
80.36
20
-96.1732
11
80.3244
21
-96.2087
0
LINE
8
BLACK
6
CONTINUOUS
10
80.3244
20
-96.2087
11
80.3137
21
-96.241
0
LINE
8
BLACK
6
CONTINUOUS
10
80.3137
20
-96.241
11
80.3137
21
-96.2571
0
LINE
8
BLACK
6
CONTINUOUS
10
80.3137
20
-96.2571
11
80.3244
21
-96.2893
0
LINE
8
BLACK
6
CONTINUOUS
10
80.3244
20
-96.2893
11
80.4206
21
-96.3855
0
LINE
8
BLACK
6
CONTINUOUS
10
80.4206
20
-96.3855
11
80.4529
21
-96.3963
0
LINE
8
BLACK
6
CONTINUOUS
10
80.4529
20
-96.3963
11
80.4689
21
-96.3963
0
LINE
8
BLACK
6
CONTINUOUS
10
80.4689
20
-96.3963
11
80.5012
21
-96.3855
0
LINE
8
BLACK
6
CONTINUOUS
10
80.5012
20
-96.3855
11
80.5368
21
-96.35
0
LINE
8
BLACK
6
CONTINUOUS
10
80.5368
20
-96.35
11
80.5475
21
-96.3177
0
LINE
8
BLACK
6
CONTINUOUS
10
80.5475
20
-96.3177
11
80.5475
21
-96.3016
0
LINE
8
BLACK
6
CONTINUOUS
10
80.5475
20
-96.3016
11
80.5368
21
-96.2694
0
LINE
8
BLACK
6
CONTINUOUS
10
80.5368
20
-96.2694
11
80.4406
21
-96.1732
0
LINE
8
BLACK
6
CONTINUOUS
10
80.4406
20
-96.1732
11
80.4083
21
-96.1624
0
LINE
8
BLACK
6
CONTINUOUS
10
80.4083
20
-96.1624
11
80.3923
21
-96.1624
0
LINE
8
BLACK
6
CONTINUOUS
10
80.6958
20
-95.7313
11
80.9786
21
-96.0142
0
LINE
8
BLACK
6
CONTINUOUS
10
80.9786
20
-96.0142
11
80.9935
21
-96.0355
0
LINE
8
BLACK
6
CONTINUOUS
10
80.9935
20
-96.0355
11
80.998
21
-96.0866
0
LINE
8
BLACK
6
CONTINUOUS
10
80.998
20
-96.0866
11
80.9686
21
-96.1287
0
LINE
8
BLACK
6
CONTINUOUS
10
80.9686
20
-96.1287
11
80.919
21
-96.1419
0
LINE
8
BLACK
6
CONTINUOUS
10
80.919
20
-96.1419
11
80.8725
21
-96.1203
0
LINE
8
BLACK
6
CONTINUOUS
10
80.8725
20
-96.1203
11
80.683
21
-95.9307
0
LINE
8
BLACK
6
CONTINUOUS
10
80.683
20
-95.9307
11
80.6508
21
-95.92
0
LINE
8
BLACK
6
CONTINUOUS
10
80.6508
20
-95.92
11
80.6347
21
-95.92
0
LINE
8
BLACK
6
CONTINUOUS
10
80.6347
20
-95.92
11
80.6024
21
-95.9307
0
LINE
8
BLACK
6
CONTINUOUS
10
80.6024
20
-95.9307
11
80.5745
21
-95.9586
0
LINE
8
BLACK
6
CONTINUOUS
10
80.5745
20
-95.9586
11
80.5532
21
-95.9736
0
LINE
8
BLACK
6
CONTINUOUS
10
80.5532
20
-95.9736
11
80.5021
21
-95.978
0
LINE
8
BLACK
6
CONTINUOUS
10
80.5021
20
-95.978
11
80.4601
21
-95.9486
0
LINE
8
BLACK
6
CONTINUOUS
10
80.4601
20
-95.9486
11
80.4468
21
-95.8991
0
LINE
8
BLACK
6
CONTINUOUS
10
80.4468
20
-95.8991
11
80.4685
21
-95.8526
0
LINE
8
BLACK
6
CONTINUOUS
10
80.4685
20
-95.8526
11
80.5089
21
-95.8122
0
LINE
8
BLACK
6
CONTINUOUS
10
80.5089
20
-95.8122
11
80.5302
21
-95.7972
0
LINE
8
BLACK
6
CONTINUOUS
10
80.5302
20
-95.7972
11
80.5347
21
-95.7968
0
LINE
8
BLACK
6
CONTINUOUS
10
80.5347
20
-95.7968
11
80.5382
21
-95.794
0
LINE
8
BLACK
6
CONTINUOUS
10
80.5382
20
-95.794
11
80.5718
21
-95.7828
0
LINE
8
BLACK
6
CONTINUOUS
10
80.5718
20
-95.7828
11
80.5703
21
-95.765
0
LINE
8
BLACK
6
CONTINUOUS
10
80.5703
20
-95.765
11
80.5997
21
-95.7229
0
LINE
8
BLACK
6
CONTINUOUS
10
80.5997
20
-95.7229
11
80.6493
21
-95.7097
0
LINE
8
BLACK
6
CONTINUOUS
10
80.6493
20
-95.7097
11
80.6958
21
-95.7313
0
LINE
8
BLACK
6
CONTINUOUS
10
82.3383
20
-95.1541
11
82.3496
21
-95.1538
0
LINE
8
BLACK
6
CONTINUOUS
10
82.3496
20
-95.1538
11
82.4102
21
-95.174
0
LINE
8
BLACK
6
CONTINUOUS
10
82.4102
20
-95.174
11
82.4331
21
-95.1864
0
LINE
8
BLACK
6
CONTINUOUS
10
82.4331
20
-95.1864
11
82.4354
21
-95.1902
0
LINE
8
BLACK
6
CONTINUOUS
10
82.4354
20
-95.1902
11
82.4395
21
-95.1921
0
LINE
8
BLACK
6
CONTINUOUS
10
82.4395
20
-95.1921
11
82.4799
21
-95.2325
0
LINE
8
BLACK
6
CONTINUOUS
10
82.4799
20
-95.2325
11
82.4928
21
-95.2509
0
LINE
8
BLACK
6
CONTINUOUS
10
82.4928
20
-95.2509
11
82.4939
21
-95.252
0
LINE
8
BLACK
6
CONTINUOUS
10
82.4939
20
-95.252
11
82.5271
21
-95.3183
0
LINE
8
BLACK
6
CONTINUOUS
10
82.5271
20
-95.3183
11
82.5536
21
-95.313
0
LINE
8
BLACK
6
CONTINUOUS
10
82.5536
20
-95.313
11
82.565
21
-95.3128
0
LINE
8
BLACK
6
CONTINUOUS
10
82.565
20
-95.3128
11
82.5683
21
-95.3116
0
LINE
8
BLACK
6
CONTINUOUS
10
82.5683
20
-95.3116
11
82.6087
21
-95.3116
0
LINE
8
BLACK
6
CONTINUOUS
10
82.6087
20
-95.3116
11
82.6308
21
-95.3155
0
LINE
8
BLACK
6
CONTINUOUS
10
82.6308
20
-95.3155
11
82.6324
21
-95.3154
0
LINE
8
BLACK
6
CONTINUOUS
10
82.6324
20
-95.3154
11
82.693
21
-95.3356
0
LINE
8
BLACK
6
CONTINUOUS
10
82.693
20
-95.3356
11
82.7159
21
-95.348
0
LINE
8
BLACK
6
CONTINUOUS
10
82.7159
20
-95.348
11
82.7183
21
-95.3519
0
LINE
8
BLACK
6
CONTINUOUS
10
82.7183
20
-95.3519
11
82.7223
21
-95.3537
0
LINE
8
BLACK
6
CONTINUOUS
10
82.7223
20
-95.3537
11
82.7829
21
-95.4144
0
LINE
8
BLACK
6
CONTINUOUS
10
82.7829
20
-95.4144
11
82.7979
21
-95.4357
0
LINE
8
BLACK
6
CONTINUOUS
10
82.7979
20
-95.4357
11
82.7983
21
-95.4402
0
LINE
8
BLACK
6
CONTINUOUS
10
82.7983
20
-95.4402
11
82.8011
21
-95.4437
0
LINE
8
BLACK
6
CONTINUOUS
10
82.8011
20
-95.4437
11
82.8213
21
-95.5043
0
LINE
8
BLACK
6
CONTINUOUS
10
82.8213
20
-95.5043
11
82.8246
21
-95.5265
0
LINE
8
BLACK
6
CONTINUOUS
10
82.8246
20
-95.5265
11
82.8251
21
-95.528
0
LINE
8
BLACK
6
CONTINUOUS
10
82.8251
20
-95.528
11
82.8251
21
-95.5684
0
LINE
8
BLACK
6
CONTINUOUS
10
82.8251
20
-95.5684
11
82.8212
21
-95.5905
0
LINE
8
BLACK
6
CONTINUOUS
10
82.8212
20
-95.5905
11
82.8213
21
-95.5921
0
LINE
8
BLACK
6
CONTINUOUS
10
82.8213
20
-95.5921
11
82.8011
21
-95.6527
0
LINE
8
BLACK
6
CONTINUOUS
10
82.8011
20
-95.6527
11
82.7887
21
-95.6756
0
LINE
8
BLACK
6
CONTINUOUS
10
82.7887
20
-95.6756
11
82.7848
21
-95.678
0
LINE
8
BLACK
6
CONTINUOUS
10
82.7848
20
-95.678
11
82.7829
21
-95.682
0
LINE
8
BLACK
6
CONTINUOUS
10
82.7829
20
-95.682
11
82.7223
21
-95.7427
0
LINE
8
BLACK
6
CONTINUOUS
10
82.7223
20
-95.7427
11
82.701
21
-95.7576
0
LINE
8
BLACK
6
CONTINUOUS
10
82.701
20
-95.7576
11
82.6965
21
-95.758
0
LINE
8
BLACK
6
CONTINUOUS
10
82.6965
20
-95.758
11
82.693
21
-95.7608
0
LINE
8
BLACK
6
CONTINUOUS
10
82.693
20
-95.7608
11
82.6324
21
-95.781
0
LINE
8
BLACK
6
CONTINUOUS
10
82.6324
20
-95.781
11
82.6102
21
-95.7843
0
LINE
8
BLACK
6
CONTINUOUS
10
82.6102
20
-95.7843
11
82.6087
21
-95.7848
0
LINE
8
BLACK
6
CONTINUOUS
10
82.6087
20
-95.7848
11
82.5827
21
-95.7848
0
LINE
8
BLACK
6
CONTINUOUS
10
82.5827
20
-95.7848
11
82.5827
21
-95.8108
0
LINE
8
BLACK
6
CONTINUOUS
10
82.5827
20
-95.8108
11
82.5788
21
-95.8329
0
LINE
8
BLACK
6
CONTINUOUS
10
82.5788
20
-95.8329
11
82.5788
21
-95.8346
0
LINE
8
BLACK
6
CONTINUOUS
10
82.5788
20
-95.8346
11
82.5586
21
-95.8952
0
LINE
8
BLACK
6
CONTINUOUS
10
82.5586
20
-95.8952
11
82.5462
21
-95.9181
0
LINE
8
BLACK
6
CONTINUOUS
10
82.5462
20
-95.9181
11
82.5424
21
-95.9204
0
LINE
8
BLACK
6
CONTINUOUS
10
82.5424
20
-95.9204
11
82.5405
21
-95.9245
0
LINE
8
BLACK
6
CONTINUOUS
10
82.5405
20
-95.9245
11
82.5203
21
-95.9447
0
LINE
8
BLACK
6
CONTINUOUS
10
82.5203
20
-95.9447
11
82.499
21
-95.9596
0
LINE
8
BLACK
6
CONTINUOUS
10
82.499
20
-95.9596
11
82.4479
21
-95.9641
0
LINE
8
BLACK
6
CONTINUOUS
10
82.4479
20
-95.9641
11
82.4058
21
-95.9347
0
LINE
8
BLACK
6
CONTINUOUS
10
82.4058
20
-95.9347
11
82.3926
21
-95.8851
0
LINE
8
BLACK
6
CONTINUOUS
10
82.3926
20
-95.8851
11
82.4142
21
-95.8386
0
LINE
8
BLACK
6
CONTINUOUS
10
82.4142
20
-95.8386
11
82.4219
21
-95.8309
0
LINE
8
BLACK
6
CONTINUOUS
10
82.4219
20
-95.8309
11
82.4327
21
-95.7987
0
LINE
8
BLACK
6
CONTINUOUS
10
82.4327
20
-95.7987
11
82.4327
21
-95.7662
0
LINE
8
BLACK
6
CONTINUOUS
10
82.4327
20
-95.7662
11
82.4163
21
-95.7639
0
LINE
8
BLACK
6
CONTINUOUS
10
82.4163
20
-95.7639
11
82.3949
21
-95.7569
0
LINE
8
BLACK
6
CONTINUOUS
10
82.3949
20
-95.7569
11
82.3933
21
-95.7567
0
LINE
8
BLACK
6
CONTINUOUS
10
82.3933
20
-95.7567
11
82.3125
21
-95.7163
0
LINE
8
BLACK
6
CONTINUOUS
10
82.3125
20
-95.7163
11
82.2945
21
-95.7029
0
LINE
8
BLACK
6
CONTINUOUS
10
82.2945
20
-95.7029
11
82.293
21
-95.7022
0
LINE
8
BLACK
6
CONTINUOUS
10
82.293
20
-95.7022
11
82.2526
21
-95.6618
0
LINE
8
BLACK
6
CONTINUOUS
10
82.2526
20
-95.6618
11
82.2377
21
-95.6405
0
LINE
8
BLACK
6
CONTINUOUS
10
82.2377
20
-95.6405
11
82.2332
21
-95.5894
0
LINE
8
BLACK
6
CONTINUOUS
10
82.2332
20
-95.5894
11
82.2626
21
-95.5474
0
LINE
8
BLACK
6
CONTINUOUS
10
82.2626
20
-95.5474
11
82.3122
21
-95.5341
0
LINE
8
BLACK
6
CONTINUOUS
10
82.3122
20
-95.5341
11
82.3587
21
-95.5558
0
LINE
8
BLACK
6
CONTINUOUS
10
82.3587
20
-95.5558
11
82.3905
21
-95.5876
0
LINE
8
BLACK
6
CONTINUOUS
10
82.3905
20
-95.5876
11
82.4246
21
-95.6047
0
LINE
8
BLACK
6
CONTINUOUS
10
82.4246
20
-95.6047
11
82.4146
21
-95.4938
0
LINE
8
BLACK
6
CONTINUOUS
10
82.4146
20
-95.4938
11
82.381
21
-95.5005
0
LINE
8
BLACK
6
CONTINUOUS
10
82.381
20
-95.5005
11
82.3695
21
-95.5008
0
LINE
8
BLACK
6
CONTINUOUS
10
82.3695
20
-95.5008
11
82.3663
21
-95.502
0
LINE
8
BLACK
6
CONTINUOUS
10
82.3663
20
-95.502
11
82.3258
21
-95.502
0
LINE
8
BLACK
6
CONTINUOUS
10
82.3258
20
-95.502
11
82.3038
21
-95.4981
0
LINE
8
BLACK
6
CONTINUOUS
10
82.3038
20
-95.4981
11
82.3021
21
-95.4981
0
LINE
8
BLACK
6
CONTINUOUS
10
82.3021
20
-95.4981
11
82.2415
21
-95.4779
0
LINE
8
BLACK
6
CONTINUOUS
10
82.2415
20
-95.4779
11
82.2186
21
-95.4655
0
LINE
8
BLACK
6
CONTINUOUS
10
82.2186
20
-95.4655
11
82.2163
21
-95.4617
0
LINE
8
BLACK
6
CONTINUOUS
10
82.2163
20
-95.4617
11
82.2122
21
-95.4598
0
LINE
8
BLACK
6
CONTINUOUS
10
82.2122
20
-95.4598
11
82.192
21
-95.4396
0
LINE
8
BLACK
6
CONTINUOUS
10
82.192
20
-95.4396
11
82.1771
21
-95.4183
0
LINE
8
BLACK
6
CONTINUOUS
10
82.1771
20
-95.4183
11
82.1767
21
-95.4138
0
LINE
8
BLACK
6
CONTINUOUS
10
82.1767
20
-95.4138
11
82.1739
21
-95.4103
0
LINE
8
BLACK
6
CONTINUOUS
10
82.1739
20
-95.4103
11
82.1537
21
-95.3497
0
LINE
8
BLACK
6
CONTINUOUS
10
82.1537
20
-95.3497
11
82.1499
21
-95.3239
0
LINE
8
BLACK
6
CONTINUOUS
10
82.1499
20
-95.3239
11
82.154
21
-95.3135
0
LINE
8
BLACK
6
CONTINUOUS
10
82.154
20
-95.3135
11
82.1537
21
-95.3023
0
LINE
8
BLACK
6
CONTINUOUS
10
82.1537
20
-95.3023
11
82.1739
21
-95.2416
0
LINE
8
BLACK
6
CONTINUOUS
10
82.1739
20
-95.2416
11
82.1863
21
-95.2187
0
LINE
8
BLACK
6
CONTINUOUS
10
82.1863
20
-95.2187
11
82.1901
21
-95.2164
0
LINE
8
BLACK
6
CONTINUOUS
10
82.1901
20
-95.2164
11
82.192
21
-95.2123
0
LINE
8
BLACK
6
CONTINUOUS
10
82.192
20
-95.2123
11
82.2122
21
-95.1921
0
LINE
8
BLACK
6
CONTINUOUS
10
82.2122
20
-95.1921
11
82.2335
21
-95.1772
0
LINE
8
BLACK
6
CONTINUOUS
10
82.2335
20
-95.1772
11
82.238
21
-95.1768
0
LINE
8
BLACK
6
CONTINUOUS
10
82.238
20
-95.1768
11
82.2415
21
-95.174
0
LINE
8
BLACK
6
CONTINUOUS
10
82.2415
20
-95.174
11
82.3021
21
-95.1538
0
LINE
8
BLACK
6
CONTINUOUS
10
82.3021
20
-95.1538
11
82.3279
21
-95.15
0
LINE
8
BLACK
6
CONTINUOUS
10
82.3279
20
-95.15
11
82.3383
21
-95.1541
0
LINE
8
BLACK
6
CONTINUOUS
10
82.5757
20
-95.4616
11
82.5625
21
-95.4642
0
LINE
8
BLACK
6
CONTINUOUS
10
82.5625
20
-95.4642
11
82.578
21
-95.6348
0
LINE
8
BLACK
6
CONTINUOUS
10
82.578
20
-95.6348
11
82.5965
21
-95.6348
0
LINE
8
BLACK
6
CONTINUOUS
10
82.5965
20
-95.6348
11
82.6288
21
-95.6241
0
LINE
8
BLACK
6
CONTINUOUS
10
82.6288
20
-95.6241
11
82.6644
21
-95.5885
0
LINE
8
BLACK
6
CONTINUOUS
10
82.6644
20
-95.5885
11
82.6751
21
-95.5562
0
LINE
8
BLACK
6
CONTINUOUS
10
82.6751
20
-95.5562
11
82.6751
21
-95.5402
0
LINE
8
BLACK
6
CONTINUOUS
10
82.6751
20
-95.5402
11
82.6644
21
-95.5079
0
LINE
8
BLACK
6
CONTINUOUS
10
82.6644
20
-95.5079
11
82.6288
21
-95.4723
0
LINE
8
BLACK
6
CONTINUOUS
10
82.6288
20
-95.4723
11
82.5965
21
-95.4616
0
LINE
8
BLACK
6
CONTINUOUS
10
82.5965
20
-95.4616
11
82.5757
21
-95.4616
0
LINE
8
BLACK
6
CONTINUOUS
10
82.3094
20
-95.3095
11
82.3039
21
-95.326
0
LINE
8
BLACK
6
CONTINUOUS
10
82.3039
20
-95.326
11
82.3094
21
-95.3424
0
LINE
8
BLACK
6
CONTINUOUS
10
82.3094
20
-95.3424
11
82.338
21
-95.352
0
LINE
8
BLACK
6
CONTINUOUS
10
82.338
20
-95.352
11
82.3588
21
-95.352
0
LINE
8
BLACK
6
CONTINUOUS
10
82.3588
20
-95.352
11
82.3746
21
-95.3488
0
LINE
8
BLACK
6
CONTINUOUS
10
82.3746
20
-95.3488
11
82.3652
21
-95.33
0
LINE
8
BLACK
6
CONTINUOUS
10
82.3652
20
-95.33
11
82.3459
21
-95.3107
0
LINE
8
BLACK
6
CONTINUOUS
10
82.3459
20
-95.3107
11
82.3258
21
-95.304
0
LINE
8
BLACK
6
CONTINUOUS
10
82.3258
20
-95.304
11
82.3094
21
-95.3095
0
LINE
8
BLACK
6
CONTINUOUS
10
80.9584
20
-95.4687
11
81.2412
21
-95.7515
0
LINE
8
BLACK
6
CONTINUOUS
10
81.2412
20
-95.7515
11
81.2562
21
-95.7729
0
LINE
8
BLACK
6
CONTINUOUS
10
81.2562
20
-95.7729
11
81.2607
21
-95.824
0
LINE
8
BLACK
6
CONTINUOUS
10
81.2607
20
-95.824
11
81.2312
21
-95.866
0
LINE
8
BLACK
6
CONTINUOUS
10
81.2312
20
-95.866
11
81.1817
21
-95.8793
0
LINE
8
BLACK
6
CONTINUOUS
10
81.1817
20
-95.8793
11
81.1352
21
-95.8576
0
LINE
8
BLACK
6
CONTINUOUS
10
81.1352
20
-95.8576
11
80.9457
21
-95.6681
0
LINE
8
BLACK
6
CONTINUOUS
10
80.9457
20
-95.6681
11
80.9134
21
-95.6573
0
LINE
8
BLACK
6
CONTINUOUS
10
80.9134
20
-95.6573
11
80.8973
21
-95.6573
0
LINE
8
BLACK
6
CONTINUOUS
10
80.8973
20
-95.6573
11
80.8651
21
-95.6681
0
LINE
8
BLACK
6
CONTINUOUS
10
80.8651
20
-95.6681
11
80.8372
21
-95.696
0
LINE
8
BLACK
6
CONTINUOUS
10
80.8372
20
-95.696
11
80.8158
21
-95.7109
0
LINE
8
BLACK
6
CONTINUOUS
10
80.8158
20
-95.7109
11
80.7647
21
-95.7154
0
LINE
8
BLACK
6
CONTINUOUS
10
80.7647
20
-95.7154
11
80.7227
21
-95.686
0
LINE
8
BLACK
6
CONTINUOUS
10
80.7227
20
-95.686
11
80.7094
21
-95.6364
0
LINE
8
BLACK
6
CONTINUOUS
10
80.7094
20
-95.6364
11
80.7311
21
-95.5899
0
LINE
8
BLACK
6
CONTINUOUS
10
80.7311
20
-95.5899
11
80.7715
21
-95.5495
0
LINE
8
BLACK
6
CONTINUOUS
10
80.7715
20
-95.5495
11
80.7929
21
-95.5346
0
LINE
8
BLACK
6
CONTINUOUS
10
80.7929
20
-95.5346
11
80.7973
21
-95.5342
0
LINE
8
BLACK
6
CONTINUOUS
10
80.7973
20
-95.5342
11
80.8008
21
-95.5314
0
LINE
8
BLACK
6
CONTINUOUS
10
80.8008
20
-95.5314
11
80.8345
21
-95.5202
0
LINE
8
BLACK
6
CONTINUOUS
10
80.8345
20
-95.5202
11
80.8329
21
-95.5023
0
LINE
8
BLACK
6
CONTINUOUS
10
80.8329
20
-95.5023
11
80.8624
21
-95.4603
0
LINE
8
BLACK
6
CONTINUOUS
10
80.8624
20
-95.4603
11
80.9119
21
-95.447
0
LINE
8
BLACK
6
CONTINUOUS
10
80.9119
20
-95.447
11
80.9584
21
-95.4687
0
LINE
8
BLACK
6
CONTINUOUS
10
81.3017
20
-95.1074
11
81.3129
21
-95.1071
0
LINE
8
BLACK
6
CONTINUOUS
10
81.3129
20
-95.1071
11
81.3736
21
-95.1273
0
LINE
8
BLACK
6
CONTINUOUS
10
81.3736
20
-95.1273
11
81.3965
21
-95.1397
0
LINE
8
BLACK
6
CONTINUOUS
10
81.3965
20
-95.1397
11
81.3988
21
-95.1436
0
LINE
8
BLACK
6
CONTINUOUS
10
81.3988
20
-95.1436
11
81.4029
21
-95.1455
0
LINE
8
BLACK
6
CONTINUOUS
10
81.4029
20
-95.1455
11
81.5645
21
-95.3071
0
LINE
8
BLACK
6
CONTINUOUS
10
81.5645
20
-95.3071
11
81.5794
21
-95.3284
0
LINE
8
BLACK
6
CONTINUOUS
10
81.5794
20
-95.3284
11
81.5798
21
-95.3329
0
LINE
8
BLACK
6
CONTINUOUS
10
81.5798
20
-95.3329
11
81.5826
21
-95.3364
0
LINE
8
BLACK
6
CONTINUOUS
10
81.5826
20
-95.3364
11
81.6028
21
-95.397
0
LINE
8
BLACK
6
CONTINUOUS
10
81.6028
20
-95.397
11
81.6066
21
-95.4228
0
LINE
8
BLACK
6
CONTINUOUS
10
81.6066
20
-95.4228
11
81.6025
21
-95.4332
0
LINE
8
BLACK
6
CONTINUOUS
10
81.6025
20
-95.4332
11
81.6028
21
-95.4444
0
LINE
8
BLACK
6
CONTINUOUS
10
81.6028
20
-95.4444
11
81.5826
21
-95.505
0
LINE
8
BLACK
6
CONTINUOUS
10
81.5826
20
-95.505
11
81.5702
21
-95.528
0
LINE
8
BLACK
6
CONTINUOUS
10
81.5702
20
-95.528
11
81.5664
21
-95.5303
0
LINE
8
BLACK
6
CONTINUOUS
10
81.5664
20
-95.5303
11
81.5645
21
-95.5344
0
LINE
8
BLACK
6
CONTINUOUS
10
81.5645
20
-95.5344
11
81.4837
21
-95.6152
0
LINE
8
BLACK
6
CONTINUOUS
10
81.4837
20
-95.6152
11
81.4623
21
-95.6301
0
LINE
8
BLACK
6
CONTINUOUS
10
81.4623
20
-95.6301
11
81.4579
21
-95.6305
0
LINE
8
BLACK
6
CONTINUOUS
10
81.4579
20
-95.6305
11
81.4544
21
-95.6333
0
LINE
8
BLACK
6
CONTINUOUS
10
81.4544
20
-95.6333
11
81.3938
21
-95.6535
0
LINE
8
BLACK
6
CONTINUOUS
10
81.3938
20
-95.6535
11
81.368
21
-95.6573
0
LINE
8
BLACK
6
CONTINUOUS
10
81.368
20
-95.6573
11
81.3203
21
-95.6385
0
LINE
8
BLACK
6
CONTINUOUS
10
81.3203
20
-95.6385
11
81.2959
21
-95.5933
0
LINE
8
BLACK
6
CONTINUOUS
10
81.2959
20
-95.5933
11
81.3061
21
-95.5431
0
LINE
8
BLACK
6
CONTINUOUS
10
81.3061
20
-95.5431
11
81.3463
21
-95.5112
0
LINE
8
BLACK
6
CONTINUOUS
10
81.3463
20
-95.5112
11
81.3901
21
-95.4966
0
LINE
8
BLACK
6
CONTINUOUS
10
81.3901
20
-95.4966
11
81.4459
21
-95.4408
0
LINE
8
BLACK
6
CONTINUOUS
10
81.4459
20
-95.4408
11
81.4526
21
-95.4207
0
LINE
8
BLACK
6
CONTINUOUS
10
81.4526
20
-95.4207
11
81.4459
21
-95.4006
0
LINE
8
BLACK
6
CONTINUOUS
10
81.4459
20
-95.4006
11
81.4211
21
-95.3758
0
LINE
8
BLACK
6
CONTINUOUS
10
81.4211
20
-95.3758
11
81.2298
21
-95.5033
0
LINE
8
BLACK
6
CONTINUOUS
10
81.2298
20
-95.5033
11
81.206
21
-95.5138
0
LINE
8
BLACK
6
CONTINUOUS
10
81.206
20
-95.5138
11
81.1936
21
-95.5124
0
LINE
8
BLACK
6
CONTINUOUS
10
81.1936
20
-95.5124
11
81.1817
21
-95.5156
0
LINE
8
BLACK
6
CONTINUOUS
10
81.1817
20
-95.5156
11
81.1689
21
-95.5097
0
LINE
8
BLACK
6
CONTINUOUS
10
81.1689
20
-95.5097
11
81.155
21
-95.5082
0
LINE
8
BLACK
6
CONTINUOUS
10
81.155
20
-95.5082
11
81.1464
21
-95.4992
0
LINE
8
BLACK
6
CONTINUOUS
10
81.1464
20
-95.4992
11
81.1352
21
-95.494
0
LINE
8
BLACK
6
CONTINUOUS
10
81.1352
20
-95.494
11
81.0948
21
-95.4536
0
LINE
8
BLACK
6
CONTINUOUS
10
81.0948
20
-95.4536
11
81.0798
21
-95.4322
0
LINE
8
BLACK
6
CONTINUOUS
10
81.0798
20
-95.4322
11
81.0794
21
-95.4277
0
LINE
8
BLACK
6
CONTINUOUS
10
81.0794
20
-95.4277
11
81.0767
21
-95.4242
0
LINE
8
BLACK
6
CONTINUOUS
10
81.0767
20
-95.4242
11
81.0565
21
-95.3636
0
LINE
8
BLACK
6
CONTINUOUS
10
81.0565
20
-95.3636
11
81.0526
21
-95.3379
0
LINE
8
BLACK
6
CONTINUOUS
10
81.0526
20
-95.3379
11
81.0568
21
-95.3274
0
LINE
8
BLACK
6
CONTINUOUS
10
81.0568
20
-95.3274
11
81.0565
21
-95.3162
0
LINE
8
BLACK
6
CONTINUOUS
10
81.0565
20
-95.3162
11
81.0767
21
-95.2556
0
LINE
8
BLACK
6
CONTINUOUS
10
81.0767
20
-95.2556
11
81.0891
21
-95.2327
0
LINE
8
BLACK
6
CONTINUOUS
10
81.0891
20
-95.2327
11
81.0929
21
-95.2303
0
LINE
8
BLACK
6
CONTINUOUS
10
81.0929
20
-95.2303
11
81.0948
21
-95.2263
0
LINE
8
BLACK
6
CONTINUOUS
10
81.0948
20
-95.2263
11
81.1756
21
-95.1455
0
LINE
8
BLACK
6
CONTINUOUS
10
81.1756
20
-95.1455
11
81.1969
21
-95.1305
0
LINE
8
BLACK
6
CONTINUOUS
10
81.1969
20
-95.1305
11
81.2014
21
-95.1301
0
LINE
8
BLACK
6
CONTINUOUS
10
81.2014
20
-95.1301
11
81.2049
21
-95.1273
0
LINE
8
BLACK
6
CONTINUOUS
10
81.2049
20
-95.1273
11
81.2655
21
-95.1071
0
LINE
8
BLACK
6
CONTINUOUS
10
81.2655
20
-95.1071
11
81.2913
21
-95.1033
0
LINE
8
BLACK
6
CONTINUOUS
10
81.2913
20
-95.1033
11
81.3017
21
-95.1074
0
LINE
8
BLACK
6
CONTINUOUS
10
81.2691
20
-95.264
11
81.2134
21
-95.3198
0
LINE
8
BLACK
6
CONTINUOUS
10
81.2134
20
-95.3198
11
81.2073
21
-95.3381
0
LINE
8
BLACK
6
CONTINUOUS
10
81.2073
20
-95.3381
11
81.3129
21
-95.2676
0
LINE
8
BLACK
6
CONTINUOUS
10
81.3129
20
-95.2676
11
81.3093
21
-95.264
0
LINE
8
BLACK
6
CONTINUOUS
10
81.3093
20
-95.264
11
81.2892
21
-95.2573
0
LINE
8
BLACK
6
CONTINUOUS
10
81.2892
20
-95.2573
11
81.2691
21
-95.264
0
LINE
8
BLACK
6
CONTINUOUS
10
83.1062
20
-94.4042
11
83.5305
21
-94.8285
0
LINE
8
BLACK
6
CONTINUOUS
10
83.5305
20
-94.8285
11
83.5454
21
-94.8498
0
LINE
8
BLACK
6
CONTINUOUS
10
83.5454
20
-94.8498
11
83.5499
21
-94.9009
0
LINE
8
BLACK
6
CONTINUOUS
10
83.5499
20
-94.9009
11
83.5204
21
-94.9429
0
LINE
8
BLACK
6
CONTINUOUS
10
83.5204
20
-94.9429
11
83.4709
21
-94.9562
0
LINE
8
BLACK
6
CONTINUOUS
10
83.4709
20
-94.9562
11
83.4244
21
-94.9345
0
LINE
8
BLACK
6
CONTINUOUS
10
83.4244
20
-94.9345
11
83.368
21
-94.8781
0
LINE
8
BLACK
6
CONTINUOUS
10
83.368
20
-94.8781
11
83.39
21
-95.0325
0
LINE
8
BLACK
6
CONTINUOUS
10
83.39
20
-95.0325
11
83.3892
21
-95.0586
0
LINE
8
BLACK
6
CONTINUOUS
10
83.3892
20
-95.0586
11
83.3621
21
-95.1021
0
LINE
8
BLACK
6
CONTINUOUS
10
83.3621
20
-95.1021
11
83.3133
21
-95.1181
0
LINE
8
BLACK
6
CONTINUOUS
10
83.3133
20
-95.1181
11
83.2657
21
-95.099
0
LINE
8
BLACK
6
CONTINUOUS
10
83.2657
20
-95.099
11
83.2415
21
-95.0537
0
LINE
8
BLACK
6
CONTINUOUS
10
83.2415
20
-95.0537
11
83.2103
21
-94.8353
0
LINE
8
BLACK
6
CONTINUOUS
10
83.2103
20
-94.8353
11
83.033
21
-94.8353
0
LINE
8
BLACK
6
CONTINUOUS
10
83.033
20
-94.8353
11
83.0073
21
-94.8308
0
LINE
8
BLACK
6
CONTINUOUS
10
83.0073
20
-94.8308
11
82.968
21
-94.7978
0
LINE
8
BLACK
6
CONTINUOUS
10
82.968
20
-94.7978
11
82.9591
21
-94.7473
0
LINE
8
BLACK
6
CONTINUOUS
10
82.9591
20
-94.7473
11
82.9847
21
-94.7028
0
LINE
8
BLACK
6
CONTINUOUS
10
82.9847
20
-94.7028
11
83.033
21
-94.6853
0
LINE
8
BLACK
6
CONTINUOUS
10
83.033
20
-94.6853
11
83.1751
21
-94.6853
0
LINE
8
BLACK
6
CONTINUOUS
10
83.1751
20
-94.6853
11
83.0001
21
-94.5103
0
LINE
8
BLACK
6
CONTINUOUS
10
83.0001
20
-94.5103
11
82.9852
21
-94.4889
0
LINE
8
BLACK
6
CONTINUOUS
10
82.9852
20
-94.4889
11
82.9807
21
-94.4378
0
LINE
8
BLACK
6
CONTINUOUS
10
82.9807
20
-94.4378
11
83.0101
21
-94.3958
0
LINE
8
BLACK
6
CONTINUOUS
10
83.0101
20
-94.3958
11
83.0597
21
-94.3825
0
LINE
8
BLACK
6
CONTINUOUS
10
83.0597
20
-94.3825
11
83.1062
21
-94.4042
0
LINE
8
BLACK
6
CONTINUOUS
10
81.7058
20
-94.4205
11
81.717
21
-94.4202
0
LINE
8
BLACK
6
CONTINUOUS
10
81.717
20
-94.4202
11
81.7776
21
-94.4404
0
LINE
8
BLACK
6
CONTINUOUS
10
81.7776
20
-94.4404
11
81.8005
21
-94.4528
0
LINE
8
BLACK
6
CONTINUOUS
10
81.8005
20
-94.4528
11
81.8029
21
-94.4567
0
LINE
8
BLACK
6
CONTINUOUS
10
81.8029
20
-94.4567
11
81.8069
21
-94.4586
0
LINE
8
BLACK
6
CONTINUOUS
10
81.8069
20
-94.4586
11
81.8347
21
-94.4863
0
LINE
8
BLACK
6
CONTINUOUS
10
81.8347
20
-94.4863
11
81.8423
21
-94.4788
0
LINE
8
BLACK
6
CONTINUOUS
10
81.8423
20
-94.4788
11
81.8636
21
-94.4638
0
LINE
8
BLACK
6
CONTINUOUS
10
81.8636
20
-94.4638
11
81.9147
21
-94.4593
0
LINE
8
BLACK
6
CONTINUOUS
10
81.9147
20
-94.4593
11
81.9568
21
-94.4888
0
LINE
8
BLACK
6
CONTINUOUS
10
81.9568
20
-94.4888
11
81.97
21
-94.5383
0
LINE
8
BLACK
6
CONTINUOUS
10
81.97
20
-94.5383
11
81.9484
21
-94.5848
0
LINE
8
BLACK
6
CONTINUOUS
10
81.9484
20
-94.5848
11
81.9408
21
-94.5924
0
LINE
8
BLACK
6
CONTINUOUS
10
81.9408
20
-94.5924
11
82.1706
21
-94.8222
0
LINE
8
BLACK
6
CONTINUOUS
10
82.1706
20
-94.8222
11
82.1855
21
-94.8435
0
LINE
8
BLACK
6
CONTINUOUS
10
82.1855
20
-94.8435
11
82.19
21
-94.8947
0
LINE
8
BLACK
6
CONTINUOUS
10
82.19
20
-94.8947
11
82.1606
21
-94.9367
0
LINE
8
BLACK
6
CONTINUOUS
10
82.1606
20
-94.9367
11
82.111
21
-94.95
0
LINE
8
BLACK
6
CONTINUOUS
10
82.111
20
-94.95
11
82.0645
21
-94.9283
0
LINE
8
BLACK
6
CONTINUOUS
10
82.0645
20
-94.9283
11
81.8347
21
-94.6985
0
LINE
8
BLACK
6
CONTINUOUS
10
81.8347
20
-94.6985
11
81.7867
21
-94.7464
0
LINE
8
BLACK
6
CONTINUOUS
10
81.7867
20
-94.7464
11
81.7654
21
-94.7614
0
LINE
8
BLACK
6
CONTINUOUS
10
81.7654
20
-94.7614
11
81.7143
21
-94.7659
0
LINE
8
BLACK
6
CONTINUOUS
10
81.7143
20
-94.7659
11
81.6723
21
-94.7364
0
LINE
8
BLACK
6
CONTINUOUS
10
81.6723
20
-94.7364
11
81.659
21
-94.6869
0
LINE
8
BLACK
6
CONTINUOUS
10
81.659
20
-94.6869
11
81.6807
21
-94.6404
0
LINE
8
BLACK
6
CONTINUOUS
10
81.6807
20
-94.6404
11
81.7286
21
-94.5924
0
LINE
8
BLACK
6
CONTINUOUS
10
81.7286
20
-94.5924
11
81.7134
21
-94.5771
0
LINE
8
BLACK
6
CONTINUOUS
10
81.7134
20
-94.5771
11
81.6933
21
-94.5704
0
LINE
8
BLACK
6
CONTINUOUS
10
81.6933
20
-94.5704
11
81.6732
21
-94.5771
0
LINE
8
BLACK
6
CONTINUOUS
10
81.6732
20
-94.5771
11
81.6453
21
-94.605
0
LINE
8
BLACK
6
CONTINUOUS
10
81.6453
20
-94.605
11
81.624
21
-94.62
0
LINE
8
BLACK
6
CONTINUOUS
10
81.624
20
-94.62
11
81.5729
21
-94.6244
0
LINE
8
BLACK
6
CONTINUOUS
10
81.5729
20
-94.6244
11
81.5308
21
-94.595
0
LINE
8
BLACK
6
CONTINUOUS
10
81.5308
20
-94.595
11
81.5176
21
-94.5455
0
LINE
8
BLACK
6
CONTINUOUS
10
81.5176
20
-94.5455
11
81.5392
21
-94.499
0
LINE
8
BLACK
6
CONTINUOUS
10
81.5392
20
-94.499
11
81.5796
21
-94.4586
0
LINE
8
BLACK
6
CONTINUOUS
10
81.5796
20
-94.4586
11
81.601
21
-94.4436
0
LINE
8
BLACK
6
CONTINUOUS
10
81.601
20
-94.4436
11
81.6055
21
-94.4432
0
LINE
8
BLACK
6
CONTINUOUS
10
81.6055
20
-94.4432
11
81.609
21
-94.4404
0
LINE
8
BLACK
6
CONTINUOUS
10
81.609
20
-94.4404
11
81.6696
21
-94.4202
0
LINE
8
BLACK
6
CONTINUOUS
10
81.6696
20
-94.4202
11
81.6953
21
-94.4164
0
LINE
8
BLACK
6
CONTINUOUS
10
81.6953
20
-94.4164
11
81.7058
21
-94.4205
0
LINE
8
BLACK
6
CONTINUOUS
10
83.6207
20
-94.2043
11
83.6224
21
-94.2043
0
LINE
8
BLACK
6
CONTINUOUS
10
83.6224
20
-94.2043
11
83.683
21
-94.2245
0
LINE
8
BLACK
6
CONTINUOUS
10
83.683
20
-94.2245
11
83.7059
21
-94.2369
0
LINE
8
BLACK
6
CONTINUOUS
10
83.7059
20
-94.2369
11
83.7082
21
-94.2407
0
LINE
8
BLACK
6
CONTINUOUS
10
83.7082
20
-94.2407
11
83.7123
21
-94.2426
0
LINE
8
BLACK
6
CONTINUOUS
10
83.7123
20
-94.2426
11
83.8335
21
-94.3638
0
LINE
8
BLACK
6
CONTINUOUS
10
83.8335
20
-94.3638
11
83.8484
21
-94.3851
0
LINE
8
BLACK
6
CONTINUOUS
10
83.8484
20
-94.3851
11
83.8488
21
-94.3896
0
LINE
8
BLACK
6
CONTINUOUS
10
83.8488
20
-94.3896
11
83.8516
21
-94.3931
0
LINE
8
BLACK
6
CONTINUOUS
10
83.8516
20
-94.3931
11
83.8718
21
-94.4537
0
LINE
8
BLACK
6
CONTINUOUS
10
83.8718
20
-94.4537
11
83.8751
21
-94.4759
0
LINE
8
BLACK
6
CONTINUOUS
10
83.8751
20
-94.4759
11
83.8757
21
-94.4774
0
LINE
8
BLACK
6
CONTINUOUS
10
83.8757
20
-94.4774
11
83.8757
21
-94.5178
0
LINE
8
BLACK
6
CONTINUOUS
10
83.8757
20
-94.5178
11
83.8718
21
-94.5399
0
LINE
8
BLACK
6
CONTINUOUS
10
83.8718
20
-94.5399
11
83.8718
21
-94.5416
0
LINE
8
BLACK
6
CONTINUOUS
10
83.8718
20
-94.5416
11
83.8516
21
-94.6022
0
LINE
8
BLACK
6
CONTINUOUS
10
83.8516
20
-94.6022
11
83.8392
21
-94.6251
0
LINE
8
BLACK
6
CONTINUOUS
10
83.8392
20
-94.6251
11
83.8354
21
-94.6274
0
LINE
8
BLACK
6
CONTINUOUS
10
83.8354
20
-94.6274
11
83.8335
21
-94.6315
0
LINE
8
BLACK
6
CONTINUOUS
10
83.8335
20
-94.6315
11
83.7527
21
-94.7123
0
LINE
8
BLACK
6
CONTINUOUS
10
83.7527
20
-94.7123
11
83.7313
21
-94.7272
0
LINE
8
BLACK
6
CONTINUOUS
10
83.7313
20
-94.7272
11
83.7269
21
-94.7276
0
LINE
8
BLACK
6
CONTINUOUS
10
83.7269
20
-94.7276
11
83.7234
21
-94.7304
0
LINE
8
BLACK
6
CONTINUOUS
10
83.7234
20
-94.7304
11
83.6628
21
-94.7506
0
LINE
8
BLACK
6
CONTINUOUS
10
83.6628
20
-94.7506
11
83.637
21
-94.7544
0
LINE
8
BLACK
6
CONTINUOUS
10
83.637
20
-94.7544
11
83.5893
21
-94.7356
0
LINE
8
BLACK
6
CONTINUOUS
10
83.5893
20
-94.7356
11
83.5649
21
-94.6905
0
LINE
8
BLACK
6
CONTINUOUS
10
83.5649
20
-94.6905
11
83.5751
21
-94.6402
0
LINE
8
BLACK
6
CONTINUOUS
10
83.5751
20
-94.6402
11
83.6153
21
-94.6083
0
LINE
8
BLACK
6
CONTINUOUS
10
83.6153
20
-94.6083
11
83.6591
21
-94.5937
0
LINE
8
BLACK
6
CONTINUOUS
10
83.6591
20
-94.5937
11
83.7149
21
-94.5379
0
LINE
8
BLACK
6
CONTINUOUS
10
83.7149
20
-94.5379
11
83.7257
21
-94.5057
0
LINE
8
BLACK
6
CONTINUOUS
10
83.7257
20
-94.5057
11
83.7257
21
-94.4896
0
LINE
8
BLACK
6
CONTINUOUS
10
83.7257
20
-94.4896
11
83.7149
21
-94.4573
0
LINE
8
BLACK
6
CONTINUOUS
10
83.7149
20
-94.4573
11
83.6187
21
-94.3612
0
LINE
8
BLACK
6
CONTINUOUS
10
83.6187
20
-94.3612
11
83.5865
21
-94.3504
0
LINE
8
BLACK
6
CONTINUOUS
10
83.5865
20
-94.3504
11
83.5704
21
-94.3504
0
LINE
8
BLACK
6
CONTINUOUS
10
83.5704
20
-94.3504
11
83.5381
21
-94.3612
0
LINE
8
BLACK
6
CONTINUOUS
10
83.5381
20
-94.3612
11
83.4824
21
-94.4169
0
LINE
8
BLACK
6
CONTINUOUS
10
83.4824
20
-94.4169
11
83.4678
21
-94.4608
0
LINE
8
BLACK
6
CONTINUOUS
10
83.4678
20
-94.4608
11
83.4554
21
-94.4837
0
LINE
8
BLACK
6
CONTINUOUS
10
83.4554
20
-94.4837
11
83.4116
21
-94.5105
0
LINE
8
BLACK
6
CONTINUOUS
10
83.4116
20
-94.5105
11
83.3609
21
-94.503
0
LINE
8
BLACK
6
CONTINUOUS
10
83.3609
20
-94.503
11
83.3269
21
-94.4646
0
LINE
8
BLACK
6
CONTINUOUS
10
83.3269
20
-94.4646
11
83.3255
21
-94.4133
0
LINE
8
BLACK
6
CONTINUOUS
10
83.3255
20
-94.4133
11
83.3457
21
-94.3527
0
LINE
8
BLACK
6
CONTINUOUS
10
83.3457
20
-94.3527
11
83.3581
21
-94.3298
0
LINE
8
BLACK
6
CONTINUOUS
10
83.3581
20
-94.3298
11
83.3619
21
-94.3275
0
LINE
8
BLACK
6
CONTINUOUS
10
83.3619
20
-94.3275
11
83.3638
21
-94.3234
0
LINE
8
BLACK
6
CONTINUOUS
10
83.3638
20
-94.3234
11
83.4446
21
-94.2426
0
LINE
8
BLACK
6
CONTINUOUS
10
83.4446
20
-94.2426
11
83.4659
21
-94.2276
0
LINE
8
BLACK
6
CONTINUOUS
10
83.4659
20
-94.2276
11
83.4704
21
-94.2272
0
LINE
8
BLACK
6
CONTINUOUS
10
83.4704
20
-94.2272
11
83.4739
21
-94.2245
0
LINE
8
BLACK
6
CONTINUOUS
10
83.4739
20
-94.2245
11
83.5345
21
-94.2043
0
LINE
8
BLACK
6
CONTINUOUS
10
83.5345
20
-94.2043
11
83.5567
21
-94.201
0
LINE
8
BLACK
6
CONTINUOUS
10
83.5567
20
-94.201
11
83.5582
21
-94.2004
0
LINE
8
BLACK
6
CONTINUOUS
10
83.5582
20
-94.2004
11
83.5986
21
-94.2004
0
LINE
8
BLACK
6
CONTINUOUS
10
83.5986
20
-94.2004
11
83.6207
21
-94.2043
0
LINE
8
BLACK
6
CONTINUOUS
10
82.2811
20
-94.1778
11
82.2827
21
-94.1778
0
LINE
8
BLACK
6
CONTINUOUS
10
82.2827
20
-94.1778
11
82.3433
21
-94.198
0
LINE
8
BLACK
6
CONTINUOUS
10
82.3433
20
-94.198
11
82.3662
21
-94.2104
0
LINE
8
BLACK
6
CONTINUOUS
10
82.3662
20
-94.2104
11
82.3686
21
-94.2142
0
LINE
8
BLACK
6
CONTINUOUS
10
82.3686
20
-94.2142
11
82.3726
21
-94.2161
0
LINE
8
BLACK
6
CONTINUOUS
10
82.3726
20
-94.2161
11
82.4938
21
-94.3373
0
LINE
8
BLACK
6
CONTINUOUS
10
82.4938
20
-94.3373
11
82.5088
21
-94.3587
0
LINE
8
BLACK
6
CONTINUOUS
10
82.5088
20
-94.3587
11
82.5092
21
-94.3631
0
LINE
8
BLACK
6
CONTINUOUS
10
82.5092
20
-94.3631
11
82.512
21
-94.3666
0
LINE
8
BLACK
6
CONTINUOUS
10
82.512
20
-94.3666
11
82.5322
21
-94.4273
0
LINE
8
BLACK
6
CONTINUOUS
10
82.5322
20
-94.4273
11
82.5354
21
-94.4494
0
LINE
8
BLACK
6
CONTINUOUS
10
82.5354
20
-94.4494
11
82.536
21
-94.451
0
LINE
8
BLACK
6
CONTINUOUS
10
82.536
20
-94.451
11
82.536
21
-94.4914
0
LINE
8
BLACK
6
CONTINUOUS
10
82.536
20
-94.4914
11
82.5321
21
-94.5135
0
LINE
8
BLACK
6
CONTINUOUS
10
82.5321
20
-94.5135
11
82.5322
21
-94.5151
0
LINE
8
BLACK
6
CONTINUOUS
10
82.5322
20
-94.5151
11
82.512
21
-94.5757
0
LINE
8
BLACK
6
CONTINUOUS
10
82.512
20
-94.5757
11
82.4995
21
-94.5986
0
LINE
8
BLACK
6
CONTINUOUS
10
82.4995
20
-94.5986
11
82.4957
21
-94.601
0
LINE
8
BLACK
6
CONTINUOUS
10
82.4957
20
-94.601
11
82.4938
21
-94.605
0
LINE
8
BLACK
6
CONTINUOUS
10
82.4938
20
-94.605
11
82.4332
21
-94.6656
0
LINE
8
BLACK
6
CONTINUOUS
10
82.4332
20
-94.6656
11
82.4119
21
-94.6806
0
LINE
8
BLACK
6
CONTINUOUS
10
82.4119
20
-94.6806
11
82.4074
21
-94.681
0
LINE
8
BLACK
6
CONTINUOUS
10
82.4074
20
-94.681
11
82.4039
21
-94.6837
0
LINE
8
BLACK
6
CONTINUOUS
10
82.4039
20
-94.6837
11
82.3433
21
-94.704
0
LINE
8
BLACK
6
CONTINUOUS
10
82.3433
20
-94.704
11
82.3211
21
-94.7072
0
LINE
8
BLACK
6
CONTINUOUS
10
82.3211
20
-94.7072
11
82.3196
21
-94.7078
0
LINE
8
BLACK
6
CONTINUOUS
10
82.3196
20
-94.7078
11
82.2792
21
-94.7078
0
LINE
8
BLACK
6
CONTINUOUS
10
82.2792
20
-94.7078
11
82.2571
21
-94.7039
0
LINE
8
BLACK
6
CONTINUOUS
10
82.2571
20
-94.7039
11
82.2555
21
-94.704
0
LINE
8
BLACK
6
CONTINUOUS
10
82.2555
20
-94.704
11
82.1949
21
-94.6837
0
LINE
8
BLACK
6
CONTINUOUS
10
82.1949
20
-94.6837
11
82.1719
21
-94.6713
0
LINE
8
BLACK
6
CONTINUOUS
10
82.1719
20
-94.6713
11
82.1696
21
-94.6675
0
LINE
8
BLACK
6
CONTINUOUS
10
82.1696
20
-94.6675
11
82.1655
21
-94.6656
0
LINE
8
BLACK
6
CONTINUOUS
10
82.1655
20
-94.6656
11
82.0443
21
-94.5444
0
LINE
8
BLACK
6
CONTINUOUS
10
82.0443
20
-94.5444
11
82.0294
21
-94.5231
0
LINE
8
BLACK
6
CONTINUOUS
10
82.0294
20
-94.5231
11
82.029
21
-94.5186
0
LINE
8
BLACK
6
CONTINUOUS
10
82.029
20
-94.5186
11
82.0262
21
-94.5151
0
LINE
8
BLACK
6
CONTINUOUS
10
82.0262
20
-94.5151
11
82.006
21
-94.4545
0
LINE
8
BLACK
6
CONTINUOUS
10
82.006
20
-94.4545
11
82.0027
21
-94.4323
0
LINE
8
BLACK
6
CONTINUOUS
10
82.0027
20
-94.4323
11
82.0021
21
-94.4308
0
LINE
8
BLACK
6
CONTINUOUS
10
82.0021
20
-94.4308
11
82.0021
21
-94.3904
0
LINE
8
BLACK
6
CONTINUOUS
10
82.0021
20
-94.3904
11
82.006
21
-94.3683
0
LINE
8
BLACK
6
CONTINUOUS
10
82.006
20
-94.3683
11
82.006
21
-94.3666
0
LINE
8
BLACK
6
CONTINUOUS
10
82.006
20
-94.3666
11
82.0262
21
-94.306
0
LINE
8
BLACK
6
CONTINUOUS
10
82.0262
20
-94.306
11
82.0386
21
-94.2831
0
LINE
8
BLACK
6
CONTINUOUS
10
82.0386
20
-94.2831
11
82.0424
21
-94.2808
0
LINE
8
BLACK
6
CONTINUOUS
10
82.0424
20
-94.2808
11
82.0443
21
-94.2767
0
LINE
8
BLACK
6
CONTINUOUS
10
82.0443
20
-94.2767
11
82.1049
21
-94.2161
0
LINE
8
BLACK
6
CONTINUOUS
10
82.1049
20
-94.2161
11
82.1263
21
-94.2012
0
LINE
8
BLACK
6
CONTINUOUS
10
82.1263
20
-94.2012
11
82.1307
21
-94.2008
0
LINE
8
BLACK
6
CONTINUOUS
10
82.1307
20
-94.2008
11
82.1342
21
-94.198
0
LINE
8
BLACK
6
CONTINUOUS
10
82.1342
20
-94.198
11
82.1949
21
-94.1778
0
LINE
8
BLACK
6
CONTINUOUS
10
82.1949
20
-94.1778
11
82.217
21
-94.1745
0
LINE
8
BLACK
6
CONTINUOUS
10
82.217
20
-94.1745
11
82.2186
21
-94.1739
0
LINE
8
BLACK
6
CONTINUOUS
10
82.2186
20
-94.1739
11
82.259
21
-94.1739
0
LINE
8
BLACK
6
CONTINUOUS
10
82.259
20
-94.1739
11
82.2811
21
-94.1778
0
LINE
8
BLACK
6
CONTINUOUS
10
82.2307
20
-94.3239
11
82.1985
21
-94.3347
0
LINE
8
BLACK
6
CONTINUOUS
10
82.1985
20
-94.3347
11
82.1629
21
-94.3703
0
LINE
8
BLACK
6
CONTINUOUS
10
82.1629
20
-94.3703
11
82.1521
21
-94.4025
0
LINE
8
BLACK
6
CONTINUOUS
10
82.1521
20
-94.4025
11
82.1521
21
-94.4186
0
LINE
8
BLACK
6
CONTINUOUS
10
82.1521
20
-94.4186
11
82.1629
21
-94.4509
0
LINE
8
BLACK
6
CONTINUOUS
10
82.1629
20
-94.4509
11
82.2591
21
-94.547
0
LINE
8
BLACK
6
CONTINUOUS
10
82.2591
20
-94.547
11
82.2913
21
-94.5578
0
LINE
8
BLACK
6
CONTINUOUS
10
82.2913
20
-94.5578
11
82.3074
21
-94.5578
0
LINE
8
BLACK
6
CONTINUOUS
10
82.3074
20
-94.5578
11
82.3397
21
-94.547
0
LINE
8
BLACK
6
CONTINUOUS
10
82.3397
20
-94.547
11
82.3752
21
-94.5115
0
LINE
8
BLACK
6
CONTINUOUS
10
82.3752
20
-94.5115
11
82.386
21
-94.4792
0
LINE
8
BLACK
6
CONTINUOUS
10
82.386
20
-94.4792
11
82.386
21
-94.4631
0
LINE
8
BLACK
6
CONTINUOUS
10
82.386
20
-94.4631
11
82.3752
21
-94.4309
0
LINE
8
BLACK
6
CONTINUOUS
10
82.3752
20
-94.4309
11
82.2791
21
-94.3347
0
LINE
8
BLACK
6
CONTINUOUS
10
82.2791
20
-94.3347
11
82.2468
21
-94.3239
0
LINE
8
BLACK
6
CONTINUOUS
10
82.2468
20
-94.3239
11
82.2307
21
-94.3239
0
LINE
8
BLACK
6
CONTINUOUS
10
84.0121
20
-93.8152
11
84.0365
21
-93.8603
0
LINE
8
BLACK
6
CONTINUOUS
10
84.0365
20
-93.8603
11
84.0262
21
-93.9106
0
LINE
8
BLACK
6
CONTINUOUS
10
84.0262
20
-93.9106
11
83.986
21
-93.9425
0
LINE
8
BLACK
6
CONTINUOUS
10
83.986
20
-93.9425
11
83.9422
21
-93.9571
0
LINE
8
BLACK
6
CONTINUOUS
10
83.9422
20
-93.9571
11
83.8864
21
-94.0129
0
LINE
8
BLACK
6
CONTINUOUS
10
83.8864
20
-94.0129
11
83.8797
21
-94.033
0
LINE
8
BLACK
6
CONTINUOUS
10
83.8797
20
-94.033
11
83.884
21
-94.0457
0
LINE
8
BLACK
6
CONTINUOUS
10
83.884
20
-94.0457
11
83.9699
21
-93.9597
0
LINE
8
BLACK
6
CONTINUOUS
10
83.9699
20
-93.9597
11
83.9912
21
-93.9448
0
LINE
8
BLACK
6
CONTINUOUS
10
83.9912
20
-93.9448
11
83.9957
21
-93.9444
0
LINE
8
BLACK
6
CONTINUOUS
10
83.9957
20
-93.9444
11
83.9992
21
-93.9416
0
LINE
8
BLACK
6
CONTINUOUS
10
83.9992
20
-93.9416
11
84.0598
21
-93.9214
0
LINE
8
BLACK
6
CONTINUOUS
10
84.0598
20
-93.9214
11
84.0856
21
-93.9176
0
LINE
8
BLACK
6
CONTINUOUS
10
84.0856
20
-93.9176
11
84.096
21
-93.9217
0
LINE
8
BLACK
6
CONTINUOUS
10
84.096
20
-93.9217
11
84.1072
21
-93.9214
0
LINE
8
BLACK
6
CONTINUOUS
10
84.1072
20
-93.9214
11
84.1678
21
-93.9416
0
LINE
8
BLACK
6
CONTINUOUS
10
84.1678
20
-93.9416
11
84.1907
21
-93.954
0
LINE
8
BLACK
6
CONTINUOUS
10
84.1907
20
-93.954
11
84.1931
21
-93.9578
0
LINE
8
BLACK
6
CONTINUOUS
10
84.1931
20
-93.9578
11
84.1972
21
-93.9597
0
LINE
8
BLACK
6
CONTINUOUS
10
84.1972
20
-93.9597
11
84.2376
21
-94.0001
0
LINE
8
BLACK
6
CONTINUOUS
10
84.2376
20
-94.0001
11
84.2525
21
-94.0215
0
LINE
8
BLACK
6
CONTINUOUS
10
84.2525
20
-94.0215
11
84.2529
21
-94.0259
0
LINE
8
BLACK
6
CONTINUOUS
10
84.2529
20
-94.0259
11
84.2557
21
-94.0295
0
LINE
8
BLACK
6
CONTINUOUS
10
84.2557
20
-94.0295
11
84.2759
21
-94.0901
0
LINE
8
BLACK
6
CONTINUOUS
10
84.2759
20
-94.0901
11
84.2797
21
-94.1158
0
LINE
8
BLACK
6
CONTINUOUS
10
84.2797
20
-94.1158
11
84.2756
21
-94.1263
0
LINE
8
BLACK
6
CONTINUOUS
10
84.2756
20
-94.1263
11
84.2759
21
-94.1375
0
LINE
8
BLACK
6
CONTINUOUS
10
84.2759
20
-94.1375
11
84.2557
21
-94.1981
0
LINE
8
BLACK
6
CONTINUOUS
10
84.2557
20
-94.1981
11
84.2433
21
-94.221
0
LINE
8
BLACK
6
CONTINUOUS
10
84.2433
20
-94.221
11
84.2395
21
-94.2234
0
LINE
8
BLACK
6
CONTINUOUS
10
84.2395
20
-94.2234
11
84.2376
21
-94.2274
0
LINE
8
BLACK
6
CONTINUOUS
10
84.2376
20
-94.2274
11
84.1365
21
-94.3284
0
LINE
8
BLACK
6
CONTINUOUS
10
84.1365
20
-94.3284
11
84.1152
21
-94.3434
0
LINE
8
BLACK
6
CONTINUOUS
10
84.1152
20
-94.3434
11
84.1107
21
-94.3438
0
LINE
8
BLACK
6
CONTINUOUS
10
84.1107
20
-94.3438
11
84.1081
21
-94.3459
0
LINE
8
BLACK
6
CONTINUOUS
10
84.1081
20
-94.3459
11
84.0861
21
-94.3773
0
LINE
8
BLACK
6
CONTINUOUS
10
84.0861
20
-94.3773
11
84.0366
21
-94.3905
0
LINE
8
BLACK
6
CONTINUOUS
10
84.0366
20
-94.3905
11
83.9901
21
-94.3688
0
LINE
8
BLACK
6
CONTINUOUS
10
83.9901
20
-94.3688
11
83.7678
21
-94.1466
0
LINE
8
BLACK
6
CONTINUOUS
10
83.7678
20
-94.1466
11
83.7529
21
-94.1253
0
LINE
8
BLACK
6
CONTINUOUS
10
83.7529
20
-94.1253
11
83.7525
21
-94.1208
0
LINE
8
BLACK
6
CONTINUOUS
10
83.7525
20
-94.1208
11
83.7497
21
-94.1173
0
LINE
8
BLACK
6
CONTINUOUS
10
83.7497
20
-94.1173
11
83.7295
21
-94.0567
0
LINE
8
BLACK
6
CONTINUOUS
10
83.7295
20
-94.0567
11
83.7257
21
-94.0309
0
LINE
8
BLACK
6
CONTINUOUS
10
83.7257
20
-94.0309
11
83.7298
21
-94.0205
0
LINE
8
BLACK
6
CONTINUOUS
10
83.7298
20
-94.0205
11
83.7295
21
-94.0093
0
LINE
8
BLACK
6
CONTINUOUS
10
83.7295
20
-94.0093
11
83.7497
21
-93.9486
0
LINE
8
BLACK
6
CONTINUOUS
10
83.7497
20
-93.9486
11
83.7621
21
-93.9257
0
LINE
8
BLACK
6
CONTINUOUS
10
83.7621
20
-93.9257
11
83.7659
21
-93.9234
0
LINE
8
BLACK
6
CONTINUOUS
10
83.7659
20
-93.9234
11
83.7678
21
-93.9193
0
LINE
8
BLACK
6
CONTINUOUS
10
83.7678
20
-93.9193
11
83.8487
21
-93.8385
0
LINE
8
BLACK
6
CONTINUOUS
10
83.8487
20
-93.8385
11
83.87
21
-93.8236
0
LINE
8
BLACK
6
CONTINUOUS
10
83.87
20
-93.8236
11
83.8745
21
-93.8232
0
LINE
8
BLACK
6
CONTINUOUS
10
83.8745
20
-93.8232
11
83.878
21
-93.8204
0
LINE
8
BLACK
6
CONTINUOUS
10
83.878
20
-93.8204
11
83.9386
21
-93.8002
0
LINE
8
BLACK
6
CONTINUOUS
10
83.9386
20
-93.8002
11
83.9643
21
-93.7964
0
LINE
8
BLACK
6
CONTINUOUS
10
83.9643
20
-93.7964
11
84.0121
21
-93.8152
0
LINE
8
BLACK
6
CONTINUOUS
10
84.0634
20
-94.0783
11
83.9875
21
-94.1542
0
LINE
8
BLACK
6
CONTINUOUS
10
83.9875
20
-94.1542
11
84.0431
21
-94.2097
0
LINE
8
BLACK
6
CONTINUOUS
10
84.0431
20
-94.2097
11
84.119
21
-94.1339
0
LINE
8
BLACK
6
CONTINUOUS
10
84.119
20
-94.1339
11
84.1257
21
-94.1138
0
LINE
8
BLACK
6
CONTINUOUS
10
84.1257
20
-94.1138
11
84.119
21
-94.0937
0
LINE
8
BLACK
6
CONTINUOUS
10
84.119
20
-94.0937
11
84.1036
21
-94.0783
0
LINE
8
BLACK
6
CONTINUOUS
10
84.1036
20
-94.0783
11
84.0835
21
-94.0716
0
LINE
8
BLACK
6
CONTINUOUS
10
84.0835
20
-94.0716
11
84.0634
21
-94.0783
0
LINE
8
BLACK
6
CONTINUOUS
10
82.9382
20
-93.471
11
82.9494
21
-93.4707
0
LINE
8
BLACK
6
CONTINUOUS
10
82.9494
20
-93.4707
11
83.01
21
-93.4909
0
LINE
8
BLACK
6
CONTINUOUS
10
83.01
20
-93.4909
11
83.0329
21
-93.5033
0
LINE
8
BLACK
6
CONTINUOUS
10
83.0329
20
-93.5033
11
83.0353
21
-93.5071
0
LINE
8
BLACK
6
CONTINUOUS
10
83.0353
20
-93.5071
11
83.0393
21
-93.509
0
LINE
8
BLACK
6
CONTINUOUS
10
83.0393
20
-93.509
11
83.2009
21
-93.6706
0
LINE
8
BLACK
6
CONTINUOUS
10
83.2009
20
-93.6706
11
83.2159
21
-93.692
0
LINE
8
BLACK
6
CONTINUOUS
10
83.2159
20
-93.692
11
83.2163
21
-93.6964
0
LINE
8
BLACK
6
CONTINUOUS
10
83.2163
20
-93.6964
11
83.2191
21
-93.6999
0
LINE
8
BLACK
6
CONTINUOUS
10
83.2191
20
-93.6999
11
83.2393
21
-93.7606
0
LINE
8
BLACK
6
CONTINUOUS
10
83.2393
20
-93.7606
11
83.2431
21
-93.7863
0
LINE
8
BLACK
6
CONTINUOUS
10
83.2431
20
-93.7863
11
83.239
21
-93.7968
0
LINE
8
BLACK
6
CONTINUOUS
10
83.239
20
-93.7968
11
83.2393
21
-93.808
0
LINE
8
BLACK
6
CONTINUOUS
10
83.2393
20
-93.808
11
83.2191
21
-93.8686
0
LINE
8
BLACK
6
CONTINUOUS
10
83.2191
20
-93.8686
11
83.2067
21
-93.8915
0
LINE
8
BLACK
6
CONTINUOUS
10
83.2067
20
-93.8915
11
83.2028
21
-93.8939
0
LINE
8
BLACK
6
CONTINUOUS
10
83.2028
20
-93.8939
11
83.2009
21
-93.8979
0
LINE
8
BLACK
6
CONTINUOUS
10
83.2009
20
-93.8979
11
83.1201
21
-93.9787
0
LINE
8
BLACK
6
CONTINUOUS
10
83.1201
20
-93.9787
11
83.0988
21
-93.9937
0
LINE
8
BLACK
6
CONTINUOUS
10
83.0988
20
-93.9937
11
83.0943
21
-93.9941
0
LINE
8
BLACK
6
CONTINUOUS
10
83.0943
20
-93.9941
11
83.0908
21
-93.9968
0
LINE
8
BLACK
6
CONTINUOUS
10
83.0908
20
-93.9968
11
83.0302
21
-94.017
0
LINE
8
BLACK
6
CONTINUOUS
10
83.0302
20
-94.017
11
83.0044
21
-94.0209
0
LINE
8
BLACK
6
CONTINUOUS
10
83.0044
20
-94.0209
11
82.9567
21
-94.002
0
LINE
8
BLACK
6
CONTINUOUS
10
82.9567
20
-94.002
11
82.9323
21
-93.9569
0
LINE
8
BLACK
6
CONTINUOUS
10
82.9323
20
-93.9569
11
82.9426
21
-93.9066
0
LINE
8
BLACK
6
CONTINUOUS
10
82.9426
20
-93.9066
11
82.9828
21
-93.8747
0
LINE
8
BLACK
6
CONTINUOUS
10
82.9828
20
-93.8747
11
83.0266
21
-93.8601
0
LINE
8
BLACK
6
CONTINUOUS
10
83.0266
20
-93.8601
11
83.0824
21
-93.8044
0
LINE
8
BLACK
6
CONTINUOUS
10
83.0824
20
-93.8044
11
83.0891
21
-93.7843
0
LINE
8
BLACK
6
CONTINUOUS
10
83.0891
20
-93.7843
11
83.0824
21
-93.7642
0
LINE
8
BLACK
6
CONTINUOUS
10
83.0824
20
-93.7642
11
83.0575
21
-93.7394
0
LINE
8
BLACK
6
CONTINUOUS
10
83.0575
20
-93.7394
11
82.8663
21
-93.8669
0
LINE
8
BLACK
6
CONTINUOUS
10
82.8663
20
-93.8669
11
82.8424
21
-93.8773
0
LINE
8
BLACK
6
CONTINUOUS
10
82.8424
20
-93.8773
11
82.8301
21
-93.876
0
LINE
8
BLACK
6
CONTINUOUS
10
82.8301
20
-93.876
11
82.8181
21
-93.8792
0
LINE
8
BLACK
6
CONTINUOUS
10
82.8181
20
-93.8792
11
82.8054
21
-93.8733
0
LINE
8
BLACK
6
CONTINUOUS
10
82.8054
20
-93.8733
11
82.7914
21
-93.8717
0
LINE
8
BLACK
6
CONTINUOUS
10
82.7914
20
-93.8717
11
82.7829
21
-93.8627
0
LINE
8
BLACK
6
CONTINUOUS
10
82.7829
20
-93.8627
11
82.7716
21
-93.8575
0
LINE
8
BLACK
6
CONTINUOUS
10
82.7716
20
-93.8575
11
82.7312
21
-93.8171
0
LINE
8
BLACK
6
CONTINUOUS
10
82.7312
20
-93.8171
11
82.7163
21
-93.7958
0
LINE
8
BLACK
6
CONTINUOUS
10
82.7163
20
-93.7958
11
82.7159
21
-93.7913
0
LINE
8
BLACK
6
CONTINUOUS
10
82.7159
20
-93.7913
11
82.7131
21
-93.7878
0
LINE
8
BLACK
6
CONTINUOUS
10
82.7131
20
-93.7878
11
82.6929
21
-93.7272
0
LINE
8
BLACK
6
CONTINUOUS
10
82.6929
20
-93.7272
11
82.6891
21
-93.7014
0
LINE
8
BLACK
6
CONTINUOUS
10
82.6891
20
-93.7014
11
82.6932
21
-93.691
0
LINE
8
BLACK
6
CONTINUOUS
10
82.6932
20
-93.691
11
82.6929
21
-93.6797
0
LINE
8
BLACK
6
CONTINUOUS
10
82.6929
20
-93.6797
11
82.7131
21
-93.6191
0
LINE
8
BLACK
6
CONTINUOUS
10
82.7131
20
-93.6191
11
82.7255
21
-93.5962
0
LINE
8
BLACK
6
CONTINUOUS
10
82.7255
20
-93.5962
11
82.7293
21
-93.5939
0
LINE
8
BLACK
6
CONTINUOUS
10
82.7293
20
-93.5939
11
82.7312
21
-93.5898
0
LINE
8
BLACK
6
CONTINUOUS
10
82.7312
20
-93.5898
11
82.812
21
-93.509
0
LINE
8
BLACK
6
CONTINUOUS
10
82.812
20
-93.509
11
82.8334
21
-93.4941
0
LINE
8
BLACK
6
CONTINUOUS
10
82.8334
20
-93.4941
11
82.8378
21
-93.4937
0
LINE
8
BLACK
6
CONTINUOUS
10
82.8378
20
-93.4937
11
82.8413
21
-93.4909
0
LINE
8
BLACK
6
CONTINUOUS
10
82.8413
20
-93.4909
11
82.902
21
-93.4707
0
LINE
8
BLACK
6
CONTINUOUS
10
82.902
20
-93.4707
11
82.9277
21
-93.4669
0
LINE
8
BLACK
6
CONTINUOUS
10
82.9277
20
-93.4669
11
82.9382
21
-93.471
0
LINE
8
BLACK
6
CONTINUOUS
10
82.9056
20
-93.6276
11
82.8498
21
-93.6834
0
LINE
8
BLACK
6
CONTINUOUS
10
82.8498
20
-93.6834
11
82.8437
21
-93.7016
0
LINE
8
BLACK
6
CONTINUOUS
10
82.8437
20
-93.7016
11
82.9494
21
-93.6312
0
LINE
8
BLACK
6
CONTINUOUS
10
82.9494
20
-93.6312
11
82.9458
21
-93.6276
0
LINE
8
BLACK
6
CONTINUOUS
10
82.9458
20
-93.6276
11
82.9257
21
-93.6209
0
LINE
8
BLACK
6
CONTINUOUS
10
82.9257
20
-93.6209
11
82.9056
21
-93.6276
0
LINE
8
BLACK
6
CONTINUOUS
10
84.2578
20
-93.5355
11
84.5406
21
-93.8183
0
LINE
8
BLACK
6
CONTINUOUS
10
84.5406
20
-93.8183
11
84.5555
21
-93.8397
0
LINE
8
BLACK
6
CONTINUOUS
10
84.5555
20
-93.8397
11
84.56
21
-93.8908
0
LINE
8
BLACK
6
CONTINUOUS
10
84.56
20
-93.8908
11
84.5306
21
-93.9328
0
LINE
8
BLACK
6
CONTINUOUS
10
84.5306
20
-93.9328
11
84.481
21
-93.9461
0
LINE
8
BLACK
6
CONTINUOUS
10
84.481
20
-93.9461
11
84.4345
21
-93.9244
0
LINE
8
BLACK
6
CONTINUOUS
10
84.4345
20
-93.9244
11
84.245
21
-93.7349
0
LINE
8
BLACK
6
CONTINUOUS
10
84.245
20
-93.7349
11
84.2128
21
-93.7241
0
LINE
8
BLACK
6
CONTINUOUS
10
84.2128
20
-93.7241
11
84.1967
21
-93.7241
0
LINE
8
BLACK
6
CONTINUOUS
10
84.1967
20
-93.7241
11
84.1644
21
-93.7349
0
LINE
8
BLACK
6
CONTINUOUS
10
84.1644
20
-93.7349
11
84.1365
21
-93.7628
0
LINE
8
BLACK
6
CONTINUOUS
10
84.1365
20
-93.7628
11
84.1152
21
-93.7777
0
LINE
8
BLACK
6
CONTINUOUS
10
84.1152
20
-93.7777
11
84.0641
21
-93.7822
0
LINE
8
BLACK
6
CONTINUOUS
10
84.0641
20
-93.7822
11
84.0221
21
-93.7527
0
LINE
8
BLACK
6
CONTINUOUS
10
84.0221
20
-93.7527
11
84.0088
21
-93.7032
0
LINE
8
BLACK
6
CONTINUOUS
10
84.0088
20
-93.7032
11
84.0305
21
-93.6567
0
LINE
8
BLACK
6
CONTINUOUS
10
84.0305
20
-93.6567
11
84.0709
21
-93.6163
0
LINE
8
BLACK
6
CONTINUOUS
10
84.0709
20
-93.6163
11
84.0922
21
-93.6013
0
LINE
8
BLACK
6
CONTINUOUS
10
84.0922
20
-93.6013
11
84.0967
21
-93.601
0
LINE
8
BLACK
6
CONTINUOUS
10
84.0967
20
-93.601
11
84.1002
21
-93.5982
0
LINE
8
BLACK
6
CONTINUOUS
10
84.1002
20
-93.5982
11
84.1338
21
-93.587
0
LINE
8
BLACK
6
CONTINUOUS
10
84.1338
20
-93.587
11
84.1323
21
-93.5691
0
LINE
8
BLACK
6
CONTINUOUS
10
84.1323
20
-93.5691
11
84.1617
21
-93.5271
0
LINE
8
BLACK
6
CONTINUOUS
10
84.1617
20
-93.5271
11
84.2113
21
-93.5138
0
LINE
8
BLACK
6
CONTINUOUS
10
84.2113
20
-93.5138
11
84.2578
21
-93.5355
0
LINE
8
BLACK
6
CONTINUOUS
10
84.3588
20
-93.1516
11
84.4472
21
-93.24
0
LINE
8
BLACK
6
CONTINUOUS
10
84.4472
20
-93.24
11
84.4547
21
-93.2324
0
LINE
8
BLACK
6
CONTINUOUS
10
84.4547
20
-93.2324
11
84.4761
21
-93.2175
0
LINE
8
BLACK
6
CONTINUOUS
10
84.4761
20
-93.2175
11
84.5272
21
-93.213
0
LINE
8
BLACK
6
CONTINUOUS
10
84.5272
20
-93.213
11
84.5692
21
-93.2424
0
LINE
8
BLACK
6
CONTINUOUS
10
84.5692
20
-93.2424
11
84.5825
21
-93.292
0
LINE
8
BLACK
6
CONTINUOUS
10
84.5825
20
-93.292
11
84.5608
21
-93.3385
0
LINE
8
BLACK
6
CONTINUOUS
10
84.5608
20
-93.3385
11
84.5532
21
-93.3461
0
LINE
8
BLACK
6
CONTINUOUS
10
84.5532
20
-93.3461
11
84.7224
21
-93.5153
0
LINE
8
BLACK
6
CONTINUOUS
10
84.7224
20
-93.5153
11
84.7374
21
-93.5366
0
LINE
8
BLACK
6
CONTINUOUS
10
84.7374
20
-93.5366
11
84.7378
21
-93.5411
0
LINE
8
BLACK
6
CONTINUOUS
10
84.7378
20
-93.5411
11
84.7406
21
-93.5446
0
LINE
8
BLACK
6
CONTINUOUS
10
84.7406
20
-93.5446
11
84.7608
21
-93.6052
0
LINE
8
BLACK
6
CONTINUOUS
10
84.7608
20
-93.6052
11
84.7646
21
-93.631
0
LINE
8
BLACK
6
CONTINUOUS
10
84.7646
20
-93.631
11
84.7604
21
-93.6414
0
LINE
8
BLACK
6
CONTINUOUS
10
84.7604
20
-93.6414
11
84.7608
21
-93.6526
0
LINE
8
BLACK
6
CONTINUOUS
10
84.7608
20
-93.6526
11
84.7406
21
-93.7132
0
LINE
8
BLACK
6
CONTINUOUS
10
84.7406
20
-93.7132
11
84.7281
21
-93.7361
0
LINE
8
BLACK
6
CONTINUOUS
10
84.7281
20
-93.7361
11
84.7243
21
-93.7385
0
LINE
8
BLACK
6
CONTINUOUS
10
84.7243
20
-93.7385
11
84.7224
21
-93.7426
0
LINE
8
BLACK
6
CONTINUOUS
10
84.7224
20
-93.7426
11
84.682
21
-93.783
0
LINE
8
BLACK
6
CONTINUOUS
10
84.682
20
-93.783
11
84.6607
21
-93.7979
0
LINE
8
BLACK
6
CONTINUOUS
10
84.6607
20
-93.7979
11
84.6096
21
-93.8024
0
LINE
8
BLACK
6
CONTINUOUS
10
84.6096
20
-93.8024
11
84.5676
21
-93.7729
0
LINE
8
BLACK
6
CONTINUOUS
10
84.5676
20
-93.7729
11
84.5543
21
-93.7234
0
LINE
8
BLACK
6
CONTINUOUS
10
84.5543
20
-93.7234
11
84.576
21
-93.6769
0
LINE
8
BLACK
6
CONTINUOUS
10
84.576
20
-93.6769
11
84.6038
21
-93.649
0
LINE
8
BLACK
6
CONTINUOUS
10
84.6038
20
-93.649
11
84.6105
21
-93.6289
0
LINE
8
BLACK
6
CONTINUOUS
10
84.6105
20
-93.6289
11
84.6038
21
-93.6088
0
LINE
8
BLACK
6
CONTINUOUS
10
84.6038
20
-93.6088
11
84.4472
21
-93.4521
0
LINE
8
BLACK
6
CONTINUOUS
10
84.4472
20
-93.4521
11
84.3992
21
-93.5001
0
LINE
8
BLACK
6
CONTINUOUS
10
84.3992
20
-93.5001
11
84.3778
21
-93.5151
0
LINE
8
BLACK
6
CONTINUOUS
10
84.3778
20
-93.5151
11
84.3267
21
-93.5195
0
LINE
8
BLACK
6
CONTINUOUS
10
84.3267
20
-93.5195
11
84.2847
21
-93.4901
0
LINE
8
BLACK
6
CONTINUOUS
10
84.2847
20
-93.4901
11
84.2714
21
-93.4405
0
LINE
8
BLACK
6
CONTINUOUS
10
84.2714
20
-93.4405
11
84.2931
21
-93.3941
0
LINE
8
BLACK
6
CONTINUOUS
10
84.2931
20
-93.3941
11
84.3411
21
-93.3461
0
LINE
8
BLACK
6
CONTINUOUS
10
84.3411
20
-93.3461
11
84.2527
21
-93.2577
0
LINE
8
BLACK
6
CONTINUOUS
10
84.2527
20
-93.2577
11
84.2378
21
-93.2363
0
LINE
8
BLACK
6
CONTINUOUS
10
84.2378
20
-93.2363
11
84.2333
21
-93.1852
0
LINE
8
BLACK
6
CONTINUOUS
10
84.2333
20
-93.1852
11
84.2627
21
-93.1432
0
LINE
8
BLACK
6
CONTINUOUS
10
84.2627
20
-93.1432
11
84.3123
21
-93.1299
0
LINE
8
BLACK
6
CONTINUOUS
10
84.3123
20
-93.1299
11
84.3588
21
-93.1516
0
LINE
8
BLACK
6
CONTINUOUS
10
83.2816
20
-93.1275
11
83.2928
21
-93.1272
0
LINE
8
BLACK
6
CONTINUOUS
10
83.2928
20
-93.1272
11
83.3535
21
-93.1474
0
LINE
8
BLACK
6
CONTINUOUS
10
83.3535
20
-93.1474
11
83.3764
21
-93.1598
0
LINE
8
BLACK
6
CONTINUOUS
10
83.3764
20
-93.1598
11
83.3787
21
-93.1637
0
LINE
8
BLACK
6
CONTINUOUS
10
83.3787
20
-93.1637
11
83.3828
21
-93.1656
0
LINE
8
BLACK
6
CONTINUOUS
10
83.3828
20
-93.1656
11
83.403
21
-93.1858
0
LINE
8
BLACK
6
CONTINUOUS
10
83.403
20
-93.1858
11
83.4179
21
-93.2071
0
LINE
8
BLACK
6
CONTINUOUS
10
83.4179
20
-93.2071
11
83.4183
21
-93.2116
0
LINE
8
BLACK
6
CONTINUOUS
10
83.4183
20
-93.2116
11
83.4211
21
-93.2151
0
LINE
8
BLACK
6
CONTINUOUS
10
83.4211
20
-93.2151
11
83.4413
21
-93.2757
0
LINE
8
BLACK
6
CONTINUOUS
10
83.4413
20
-93.2757
11
83.4451
21
-93.3015
0
LINE
8
BLACK
6
CONTINUOUS
10
83.4451
20
-93.3015
11
83.441
21
-93.3119
0
LINE
8
BLACK
6
CONTINUOUS
10
83.441
20
-93.3119
11
83.4413
21
-93.3231
0
LINE
8
BLACK
6
CONTINUOUS
10
83.4413
20
-93.3231
11
83.4211
21
-93.3837
0
LINE
8
BLACK
6
CONTINUOUS
10
83.4211
20
-93.3837
11
83.4087
21
-93.4066
0
LINE
8
BLACK
6
CONTINUOUS
10
83.4087
20
-93.4066
11
83.4049
21
-93.409
0
LINE
8
BLACK
6
CONTINUOUS
10
83.4049
20
-93.409
11
83.403
21
-93.413
0
LINE
8
BLACK
6
CONTINUOUS
10
83.403
20
-93.413
11
83.3549
21
-93.4611
0
LINE
8
BLACK
6
CONTINUOUS
10
83.3549
20
-93.4611
11
83.3482
21
-93.4812
0
LINE
8
BLACK
6
CONTINUOUS
10
83.3482
20
-93.4812
11
83.3537
21
-93.4977
0
LINE
8
BLACK
6
CONTINUOUS
10
83.3537
20
-93.4977
11
83.3701
21
-93.5032
0
LINE
8
BLACK
6
CONTINUOUS
10
83.3701
20
-93.5032
11
83.3902
21
-93.4965
0
LINE
8
BLACK
6
CONTINUOUS
10
83.3902
20
-93.4965
11
83.446
21
-93.4407
0
LINE
8
BLACK
6
CONTINUOUS
10
83.446
20
-93.4407
11
83.4606
21
-93.3969
0
LINE
8
BLACK
6
CONTINUOUS
10
83.4606
20
-93.3969
11
83.473
21
-93.374
0
LINE
8
BLACK
6
CONTINUOUS
10
83.473
20
-93.374
11
83.5167
21
-93.3471
0
LINE
8
BLACK
6
CONTINUOUS
10
83.5167
20
-93.3471
11
83.5675
21
-93.3547
0
LINE
8
BLACK
6
CONTINUOUS
10
83.5675
20
-93.3547
11
83.6015
21
-93.3931
0
LINE
8
BLACK
6
CONTINUOUS
10
83.6015
20
-93.3931
11
83.6029
21
-93.4443
0
LINE
8
BLACK
6
CONTINUOUS
10
83.6029
20
-93.4443
11
83.5827
21
-93.5049
0
LINE
8
BLACK
6
CONTINUOUS
10
83.5827
20
-93.5049
11
83.5703
21
-93.5279
0
LINE
8
BLACK
6
CONTINUOUS
10
83.5703
20
-93.5279
11
83.5665
21
-93.5302
0
LINE
8
BLACK
6
CONTINUOUS
10
83.5665
20
-93.5302
11
83.5646
21
-93.5343
0
LINE
8
BLACK
6
CONTINUOUS
10
83.5646
20
-93.5343
11
83.4838
21
-93.6151
0
LINE
8
BLACK
6
CONTINUOUS
10
83.4838
20
-93.6151
11
83.4624
21
-93.63
0
LINE
8
BLACK
6
CONTINUOUS
10
83.4624
20
-93.63
11
83.458
21
-93.6304
0
LINE
8
BLACK
6
CONTINUOUS
10
83.458
20
-93.6304
11
83.4545
21
-93.6332
0
LINE
8
BLACK
6
CONTINUOUS
10
83.4545
20
-93.6332
11
83.3939
21
-93.6534
0
LINE
8
BLACK
6
CONTINUOUS
10
83.3939
20
-93.6534
11
83.3681
21
-93.6572
0
LINE
8
BLACK
6
CONTINUOUS
10
83.3681
20
-93.6572
11
83.3576
21
-93.6531
0
LINE
8
BLACK
6
CONTINUOUS
10
83.3576
20
-93.6531
11
83.3464
21
-93.6534
0
LINE
8
BLACK
6
CONTINUOUS
10
83.3464
20
-93.6534
11
83.2858
21
-93.6332
0
LINE
8
BLACK
6
CONTINUOUS
10
83.2858
20
-93.6332
11
83.2629
21
-93.6208
0
LINE
8
BLACK
6
CONTINUOUS
10
83.2629
20
-93.6208
11
83.2606
21
-93.617
0
LINE
8
BLACK
6
CONTINUOUS
10
83.2606
20
-93.617
11
83.2565
21
-93.6151
0
LINE
8
BLACK
6
CONTINUOUS
10
83.2565
20
-93.6151
11
83.2363
21
-93.5949
0
LINE
8
BLACK
6
CONTINUOUS
10
83.2363
20
-93.5949
11
83.2214
21
-93.5735
0
LINE
8
BLACK
6
CONTINUOUS
10
83.2214
20
-93.5735
11
83.221
21
-93.5691
0
LINE
8
BLACK
6
CONTINUOUS
10
83.221
20
-93.5691
11
83.2182
21
-93.5656
0
LINE
8
BLACK
6
CONTINUOUS
10
83.2182
20
-93.5656
11
83.198
21
-93.5049
0
LINE
8
BLACK
6
CONTINUOUS
10
83.198
20
-93.5049
11
83.1942
21
-93.4792
0
LINE
8
BLACK
6
CONTINUOUS
10
83.1942
20
-93.4792
11
83.1983
21
-93.4687
0
LINE
8
BLACK
6
CONTINUOUS
10
83.1983
20
-93.4687
11
83.198
21
-93.4575
0
LINE
8
BLACK
6
CONTINUOUS
10
83.198
20
-93.4575
11
83.2182
21
-93.3969
0
LINE
8
BLACK
6
CONTINUOUS
10
83.2182
20
-93.3969
11
83.2306
21
-93.374
0
LINE
8
BLACK
6
CONTINUOUS
10
83.2306
20
-93.374
11
83.2344
21
-93.3716
0
LINE
8
BLACK
6
CONTINUOUS
10
83.2344
20
-93.3716
11
83.2363
21
-93.3676
0
LINE
8
BLACK
6
CONTINUOUS
10
83.2363
20
-93.3676
11
83.2844
21
-93.3195
0
LINE
8
BLACK
6
CONTINUOUS
10
83.2844
20
-93.3195
11
83.2911
21
-93.2994
0
LINE
8
BLACK
6
CONTINUOUS
10
83.2911
20
-93.2994
11
83.2856
21
-93.2829
0
LINE
8
BLACK
6
CONTINUOUS
10
83.2856
20
-93.2829
11
83.2691
21
-93.2774
0
LINE
8
BLACK
6
CONTINUOUS
10
83.2691
20
-93.2774
11
83.249
21
-93.2841
0
LINE
8
BLACK
6
CONTINUOUS
10
83.249
20
-93.2841
11
83.2135
21
-93.3197
0
LINE
8
BLACK
6
CONTINUOUS
10
83.2135
20
-93.3197
11
83.1989
21
-93.3635
0
LINE
8
BLACK
6
CONTINUOUS
10
83.1989
20
-93.3635
11
83.1865
21
-93.3864
0
LINE
8
BLACK
6
CONTINUOUS
10
83.1865
20
-93.3864
11
83.1427
21
-93.4133
0
LINE
8
BLACK
6
CONTINUOUS
10
83.1427
20
-93.4133
11
83.092
21
-93.4058
0
LINE
8
BLACK
6
CONTINUOUS
10
83.092
20
-93.4058
11
83.058
21
-93.3674
0
LINE
8
BLACK
6
CONTINUOUS
10
83.058
20
-93.3674
11
83.0566
21
-93.3161
0
LINE
8
BLACK
6
CONTINUOUS
10
83.0566
20
-93.3161
11
83.0768
21
-93.2555
0
LINE
8
BLACK
6
CONTINUOUS
10
83.0768
20
-93.2555
11
83.0892
21
-93.2326
0
LINE
8
BLACK
6
CONTINUOUS
10
83.0892
20
-93.2326
11
83.093
21
-93.2302
0
LINE
8
BLACK
6
CONTINUOUS
10
83.093
20
-93.2302
11
83.0949
21
-93.2262
0
LINE
8
BLACK
6
CONTINUOUS
10
83.0949
20
-93.2262
11
83.1555
21
-93.1656
0
LINE
8
BLACK
6
CONTINUOUS
10
83.1555
20
-93.1656
11
83.1768
21
-93.1506
0
LINE
8
BLACK
6
CONTINUOUS
10
83.1768
20
-93.1506
11
83.1813
21
-93.1502
0
LINE
8
BLACK
6
CONTINUOUS
10
83.1813
20
-93.1502
11
83.1848
21
-93.1474
0
LINE
8
BLACK
6
CONTINUOUS
10
83.1848
20
-93.1474
11
83.2454
21
-93.1272
0
LINE
8
BLACK
6
CONTINUOUS
10
83.2454
20
-93.1272
11
83.2712
21
-93.1234
0
LINE
8
BLACK
6
CONTINUOUS
10
83.2712
20
-93.1234
11
83.2816
21
-93.1275
0
LINE
8
BLACK
6
CONTINUOUS
10
83.7027
20
-92.7584
11
83.7272
21
-92.8035
0
LINE
8
BLACK
6
CONTINUOUS
10
83.7272
20
-92.8035
11
83.7169
21
-92.8538
0
LINE
8
BLACK
6
CONTINUOUS
10
83.7169
20
-92.8538
11
83.6767
21
-92.8857
0
LINE
8
BLACK
6
CONTINUOUS
10
83.6767
20
-92.8857
11
83.6329
21
-92.9003
0
LINE
8
BLACK
6
CONTINUOUS
10
83.6329
20
-92.9003
11
83.5771
21
-92.9561
0
LINE
8
BLACK
6
CONTINUOUS
10
83.5771
20
-92.9561
11
83.5704
21
-92.9762
0
LINE
8
BLACK
6
CONTINUOUS
10
83.5704
20
-92.9762
11
83.5746
21
-92.9888
0
LINE
8
BLACK
6
CONTINUOUS
10
83.5746
20
-92.9888
11
83.6606
21
-92.9029
0
LINE
8
BLACK
6
CONTINUOUS
10
83.6606
20
-92.9029
11
83.6819
21
-92.888
0
LINE
8
BLACK
6
CONTINUOUS
10
83.6819
20
-92.888
11
83.6864
21
-92.8876
0
LINE
8
BLACK
6
CONTINUOUS
10
83.6864
20
-92.8876
11
83.6899
21
-92.8848
0
LINE
8
BLACK
6
CONTINUOUS
10
83.6899
20
-92.8848
11
83.7505
21
-92.8646
0
LINE
8
BLACK
6
CONTINUOUS
10
83.7505
20
-92.8646
11
83.7763
21
-92.8608
0
LINE
8
BLACK
6
CONTINUOUS
10
83.7763
20
-92.8608
11
83.7867
21
-92.8649
0
LINE
8
BLACK
6
CONTINUOUS
10
83.7867
20
-92.8649
11
83.7979
21
-92.8646
0
LINE
8
BLACK
6
CONTINUOUS
10
83.7979
20
-92.8646
11
83.8585
21
-92.8848
0
LINE
8
BLACK
6
CONTINUOUS
10
83.8585
20
-92.8848
11
83.8814
21
-92.8972
0
LINE
8
BLACK
6
CONTINUOUS
10
83.8814
20
-92.8972
11
83.8838
21
-92.901
0
LINE
8
BLACK
6
CONTINUOUS
10
83.8838
20
-92.901
11
83.8878
21
-92.9029
0
LINE
8
BLACK
6
CONTINUOUS
10
83.8878
20
-92.9029
11
83.9283
21
-92.9433
0
LINE
8
BLACK
6
CONTINUOUS
10
83.9283
20
-92.9433
11
83.9432
21
-92.9647
0
LINE
8
BLACK
6
CONTINUOUS
10
83.9432
20
-92.9647
11
83.9436
21
-92.9691
0
LINE
8
BLACK
6
CONTINUOUS
10
83.9436
20
-92.9691
11
83.9464
21
-92.9726
0
LINE
8
BLACK
6
CONTINUOUS
10
83.9464
20
-92.9726
11
83.9666
21
-93.0332
0
LINE
8
BLACK
6
CONTINUOUS
10
83.9666
20
-93.0332
11
83.9704
21
-93.059
0
LINE
8
BLACK
6
CONTINUOUS
10
83.9704
20
-93.059
11
83.9663
21
-93.0695
0
LINE
8
BLACK
6
CONTINUOUS
10
83.9663
20
-93.0695
11
83.9666
21
-93.0807
0
LINE
8
BLACK
6
CONTINUOUS
10
83.9666
20
-93.0807
11
83.9464
21
-93.1413
0
LINE
8
BLACK
6
CONTINUOUS
10
83.9464
20
-93.1413
11
83.934
21
-93.1642
0
LINE
8
BLACK
6
CONTINUOUS
10
83.934
20
-93.1642
11
83.9301
21
-93.1665
0
LINE
8
BLACK
6
CONTINUOUS
10
83.9301
20
-93.1665
11
83.9283
21
-93.1706
0
LINE
8
BLACK
6
CONTINUOUS
10
83.9283
20
-93.1706
11
83.8272
21
-93.2716
0
LINE
8
BLACK
6
CONTINUOUS
10
83.8272
20
-93.2716
11
83.8059
21
-93.2866
0
LINE
8
BLACK
6
CONTINUOUS
10
83.8059
20
-93.2866
11
83.8014
21
-93.287
0
LINE
8
BLACK
6
CONTINUOUS
10
83.8014
20
-93.287
11
83.7988
21
-93.289
0
LINE
8
BLACK
6
CONTINUOUS
10
83.7988
20
-93.289
11
83.7768
21
-93.3204
0
LINE
8
BLACK
6
CONTINUOUS
10
83.7768
20
-93.3204
11
83.7273
21
-93.3337
0
LINE
8
BLACK
6
CONTINUOUS
10
83.7273
20
-93.3337
11
83.6808
21
-93.312
0
LINE
8
BLACK
6
CONTINUOUS
10
83.6808
20
-93.312
11
83.4585
21
-93.0898
0
LINE
8
BLACK
6
CONTINUOUS
10
83.4585
20
-93.0898
11
83.4436
21
-93.0685
0
LINE
8
BLACK
6
CONTINUOUS
10
83.4436
20
-93.0685
11
83.4432
21
-93.064
0
LINE
8
BLACK
6
CONTINUOUS
10
83.4432
20
-93.064
11
83.4404
21
-93.0605
0
LINE
8
BLACK
6
CONTINUOUS
10
83.4404
20
-93.0605
11
83.4202
21
-92.9999
0
LINE
8
BLACK
6
CONTINUOUS
10
83.4202
20
-92.9999
11
83.4164
21
-92.9741
0
LINE
8
BLACK
6
CONTINUOUS
10
83.4164
20
-92.9741
11
83.4205
21
-92.9637
0
LINE
8
BLACK
6
CONTINUOUS
10
83.4205
20
-92.9637
11
83.4202
21
-92.9524
0
LINE
8
BLACK
6
CONTINUOUS
10
83.4202
20
-92.9524
11
83.4404
21
-92.8918
0
LINE
8
BLACK
6
CONTINUOUS
10
83.4404
20
-92.8918
11
83.4528
21
-92.8689
0
LINE
8
BLACK
6
CONTINUOUS
10
83.4528
20
-92.8689
11
83.4566
21
-92.8666
0
LINE
8
BLACK
6
CONTINUOUS
10
83.4566
20
-92.8666
11
83.4585
21
-92.8625
0
LINE
8
BLACK
6
CONTINUOUS
10
83.4585
20
-92.8625
11
83.5393
21
-92.7817
0
LINE
8
BLACK
6
CONTINUOUS
10
83.5393
20
-92.7817
11
83.5607
21
-92.7668
0
LINE
8
BLACK
6
CONTINUOUS
10
83.5607
20
-92.7668
11
83.5651
21
-92.7664
0
LINE
8
BLACK
6
CONTINUOUS
10
83.5651
20
-92.7664
11
83.5687
21
-92.7636
0
LINE
8
BLACK
6
CONTINUOUS
10
83.5687
20
-92.7636
11
83.6293
21
-92.7434
0
LINE
8
BLACK
6
CONTINUOUS
10
83.6293
20
-92.7434
11
83.655
21
-92.7396
0
LINE
8
BLACK
6
CONTINUOUS
10
83.655
20
-92.7396
11
83.7027
21
-92.7584
0
LINE
8
BLACK
6
CONTINUOUS
10
83.7541
20
-93.0215
11
83.6782
21
-93.0974
0
LINE
8
BLACK
6
CONTINUOUS
10
83.6782
20
-93.0974
11
83.7338
21
-93.1529
0
LINE
8
BLACK
6
CONTINUOUS
10
83.7338
20
-93.1529
11
83.8097
21
-93.0771
0
LINE
8
BLACK
6
CONTINUOUS
10
83.8097
20
-93.0771
11
83.8164
21
-93.057
0
LINE
8
BLACK
6
CONTINUOUS
10
83.8164
20
-93.057
11
83.8097
21
-93.0369
0
LINE
8
BLACK
6
CONTINUOUS
10
83.8097
20
-93.0369
11
83.7943
21
-93.0215
0
LINE
8
BLACK
6
CONTINUOUS
10
83.7943
20
-93.0215
11
83.7742
21
-93.0148
0
LINE
8
BLACK
6
CONTINUOUS
10
83.7742
20
-93.0148
11
83.7541
21
-93.0215
0
LINE
8
BLACK
6
CONTINUOUS
10
84.9245
20
-92.5859
11
85.0129
21
-92.6743
0
LINE
8
BLACK
6
CONTINUOUS
10
85.0129
20
-92.6743
11
85.0204
21
-92.6667
0
LINE
8
BLACK
6
CONTINUOUS
10
85.0204
20
-92.6667
11
85.0418
21
-92.6518
0
LINE
8
BLACK
6
CONTINUOUS
10
85.0418
20
-92.6518
11
85.0929
21
-92.6473
0
LINE
8
BLACK
6
CONTINUOUS
10
85.0929
20
-92.6473
11
85.1349
21
-92.6768
0
LINE
8
BLACK
6
CONTINUOUS
10
85.1349
20
-92.6768
11
85.1482
21
-92.7263
0
LINE
8
BLACK
6
CONTINUOUS
10
85.1482
20
-92.7263
11
85.1265
21
-92.7728
0
LINE
8
BLACK
6
CONTINUOUS
10
85.1265
20
-92.7728
11
85.1189
21
-92.7804
0
LINE
8
BLACK
6
CONTINUOUS
10
85.1189
20
-92.7804
11
85.2881
21
-92.9496
0
LINE
8
BLACK
6
CONTINUOUS
10
85.2881
20
-92.9496
11
85.3031
21
-92.9709
0
LINE
8
BLACK
6
CONTINUOUS
10
85.3031
20
-92.9709
11
85.3035
21
-92.9754
0
LINE
8
BLACK
6
CONTINUOUS
10
85.3035
20
-92.9754
11
85.3062
21
-92.9789
0
LINE
8
BLACK
6
CONTINUOUS
10
85.3062
20
-92.9789
11
85.3264
21
-93.0395
0
LINE
8
BLACK
6
CONTINUOUS
10
85.3264
20
-93.0395
11
85.3303
21
-93.0653
0
LINE
8
BLACK
6
CONTINUOUS
10
85.3303
20
-93.0653
11
85.3261
21
-93.0757
0
LINE
8
BLACK
6
CONTINUOUS
10
85.3261
20
-93.0757
11
85.3264
21
-93.0869
0
LINE
8
BLACK
6
CONTINUOUS
10
85.3264
20
-93.0869
11
85.3062
21
-93.1476
0
LINE
8
BLACK
6
CONTINUOUS
10
85.3062
20
-93.1476
11
85.2938
21
-93.1705
0
LINE
8
BLACK
6
CONTINUOUS
10
85.2938
20
-93.1705
11
85.29
21
-93.1728
0
LINE
8
BLACK
6
CONTINUOUS
10
85.29
20
-93.1728
11
85.2881
21
-93.1769
0
LINE
8
BLACK
6
CONTINUOUS
10
85.2881
20
-93.1769
11
85.2477
21
-93.2173
0
LINE
8
BLACK
6
CONTINUOUS
10
85.2477
20
-93.2173
11
85.2264
21
-93.2322
0
LINE
8
BLACK
6
CONTINUOUS
10
85.2264
20
-93.2322
11
85.1753
21
-93.2367
0
LINE
8
BLACK
6
CONTINUOUS
10
85.1753
20
-93.2367
11
85.1332
21
-93.2073
0
LINE
8
BLACK
6
CONTINUOUS
10
85.1332
20
-93.2073
11
85.12
21
-93.1577
0
LINE
8
BLACK
6
CONTINUOUS
10
85.12
20
-93.1577
11
85.1416
21
-93.1112
0
LINE
8
BLACK
6
CONTINUOUS
10
85.1416
20
-93.1112
11
85.1695
21
-93.0833
0
LINE
8
BLACK
6
CONTINUOUS
10
85.1695
20
-93.0833
11
85.1762
21
-93.0632
0
LINE
8
BLACK
6
CONTINUOUS
10
85.1762
20
-93.0632
11
85.1695
21
-93.0431
0
LINE
8
BLACK
6
CONTINUOUS
10
85.1695
20
-93.0431
11
85.0129
21
-92.8865
0
LINE
8
BLACK
6
CONTINUOUS
10
85.0129
20
-92.8865
11
84.9649
21
-92.9344
0
LINE
8
BLACK
6
CONTINUOUS
10
84.9649
20
-92.9344
11
84.9435
21
-92.9494
0
LINE
8
BLACK
6
CONTINUOUS
10
84.9435
20
-92.9494
11
84.8924
21
-92.9538
0
LINE
8
BLACK
6
CONTINUOUS
10
84.8924
20
-92.9538
11
84.8504
21
-92.9244
0
LINE
8
BLACK
6
CONTINUOUS
10
84.8504
20
-92.9244
11
84.8371
21
-92.8749
0
LINE
8
BLACK
6
CONTINUOUS
10
84.8371
20
-92.8749
11
84.8588
21
-92.8284
0
LINE
8
BLACK
6
CONTINUOUS
10
84.8588
20
-92.8284
11
84.9068
21
-92.7804
0
LINE
8
BLACK
6
CONTINUOUS
10
84.9068
20
-92.7804
11
84.8184
21
-92.692
0
LINE
8
BLACK
6
CONTINUOUS
10
84.8184
20
-92.692
11
84.8035
21
-92.6707
0
LINE
8
BLACK
6
CONTINUOUS
10
84.8035
20
-92.6707
11
84.799
21
-92.6196
0
LINE
8
BLACK
6
CONTINUOUS
10
84.799
20
-92.6196
11
84.8284
21
-92.5775
0
LINE
8
BLACK
6
CONTINUOUS
10
84.8284
20
-92.5775
11
84.878
21
-92.5642
0
LINE
8
BLACK
6
CONTINUOUS
10
84.878
20
-92.5642
11
84.9245
21
-92.5859
0
LINE
8
BLACK
6
CONTINUOUS
10
84.0589
20
-92.4
11
84.0606
21
-92.3999
0
LINE
8
BLACK
6
CONTINUOUS
10
84.0606
20
-92.3999
11
84.1212
21
-92.4201
0
LINE
8
BLACK
6
CONTINUOUS
10
84.1212
20
-92.4201
11
84.1441
21
-92.4325
0
LINE
8
BLACK
6
CONTINUOUS
10
84.1441
20
-92.4325
11
84.1464
21
-92.4364
0
LINE
8
BLACK
6
CONTINUOUS
10
84.1464
20
-92.4364
11
84.1505
21
-92.4382
0
LINE
8
BLACK
6
CONTINUOUS
10
84.1505
20
-92.4382
11
84.2717
21
-92.5595
0
LINE
8
BLACK
6
CONTINUOUS
10
84.2717
20
-92.5595
11
84.2866
21
-92.5808
0
LINE
8
BLACK
6
CONTINUOUS
10
84.2866
20
-92.5808
11
84.287
21
-92.5853
0
LINE
8
BLACK
6
CONTINUOUS
10
84.287
20
-92.5853
11
84.2898
21
-92.5888
0
LINE
8
BLACK
6
CONTINUOUS
10
84.2898
20
-92.5888
11
84.31
21
-92.6494
0
LINE
8
BLACK
6
CONTINUOUS
10
84.31
20
-92.6494
11
84.3133
21
-92.6716
0
LINE
8
BLACK
6
CONTINUOUS
10
84.3133
20
-92.6716
11
84.3139
21
-92.6731
0
LINE
8
BLACK
6
CONTINUOUS
10
84.3139
20
-92.6731
11
84.3139
21
-92.7135
0
LINE
8
BLACK
6
CONTINUOUS
10
84.3139
20
-92.7135
11
84.31
21
-92.7356
0
LINE
8
BLACK
6
CONTINUOUS
10
84.31
20
-92.7356
11
84.31
21
-92.7372
0
LINE
8
BLACK
6
CONTINUOUS
10
84.31
20
-92.7372
11
84.2898
21
-92.7978
0
LINE
8
BLACK
6
CONTINUOUS
10
84.2898
20
-92.7978
11
84.2774
21
-92.8207
0
LINE
8
BLACK
6
CONTINUOUS
10
84.2774
20
-92.8207
11
84.2736
21
-92.8231
0
LINE
8
BLACK
6
CONTINUOUS
10
84.2736
20
-92.8231
11
84.2717
21
-92.8272
0
LINE
8
BLACK
6
CONTINUOUS
10
84.2717
20
-92.8272
11
84.1909
21
-92.908
0
LINE
8
BLACK
6
CONTINUOUS
10
84.1909
20
-92.908
11
84.1696
21
-92.9229
0
LINE
8
BLACK
6
CONTINUOUS
10
84.1696
20
-92.9229
11
84.1651
21
-92.9233
0
LINE
8
BLACK
6
CONTINUOUS
10
84.1651
20
-92.9233
11
84.1616
21
-92.9261
0
LINE
8
BLACK
6
CONTINUOUS
10
84.1616
20
-92.9261
11
84.101
21
-92.9463
0
LINE
8
BLACK
6
CONTINUOUS
10
84.101
20
-92.9463
11
84.0752
21
-92.9501
0
LINE
8
BLACK
6
CONTINUOUS
10
84.0752
20
-92.9501
11
84.0275
21
-92.9313
0
LINE
8
BLACK
6
CONTINUOUS
10
84.0275
20
-92.9313
11
84.0031
21
-92.8861
0
LINE
8
BLACK
6
CONTINUOUS
10
84.0031
20
-92.8861
11
84.0133
21
-92.8359
0
LINE
8
BLACK
6
CONTINUOUS
10
84.0133
20
-92.8359
11
84.0535
21
-92.804
0
LINE
8
BLACK
6
CONTINUOUS
10
84.0535
20
-92.804
11
84.0973
21
-92.7894
0
LINE
8
BLACK
6
CONTINUOUS
10
84.0973
20
-92.7894
11
84.1531
21
-92.7336
0
LINE
8
BLACK
6
CONTINUOUS
10
84.1531
20
-92.7336
11
84.1639
21
-92.7013
0
LINE
8
BLACK
6
CONTINUOUS
10
84.1639
20
-92.7013
11
84.1639
21
-92.6853
0
LINE
8
BLACK
6
CONTINUOUS
10
84.1639
20
-92.6853
11
84.1531
21
-92.653
0
LINE
8
BLACK
6
CONTINUOUS
10
84.1531
20
-92.653
11
84.0569
21
-92.5568
0
LINE
8
BLACK
6
CONTINUOUS
10
84.0569
20
-92.5568
11
84.0247
21
-92.5461
0
LINE
8
BLACK
6
CONTINUOUS
10
84.0247
20
-92.5461
11
84.0086
21
-92.5461
0
LINE
8
BLACK
6
CONTINUOUS
10
84.0086
20
-92.5461
11
83.9763
21
-92.5568
0
LINE
8
BLACK
6
CONTINUOUS
10
83.9763
20
-92.5568
11
83.9206
21
-92.6126
0
LINE
8
BLACK
6
CONTINUOUS
10
83.9206
20
-92.6126
11
83.906
21
-92.6564
0
LINE
8
BLACK
6
CONTINUOUS
10
83.906
20
-92.6564
11
83.8936
21
-92.6793
0
LINE
8
BLACK
6
CONTINUOUS
10
83.8936
20
-92.6793
11
83.8498
21
-92.7062
0
LINE
8
BLACK
6
CONTINUOUS
10
83.8498
20
-92.7062
11
83.7991
21
-92.6987
0
LINE
8
BLACK
6
CONTINUOUS
10
83.7991
20
-92.6987
11
83.7651
21
-92.6603
0
LINE
8
BLACK
6
CONTINUOUS
10
83.7651
20
-92.6603
11
83.7637
21
-92.609
0
LINE
8
BLACK
6
CONTINUOUS
10
83.7637
20
-92.609
11
83.7839
21
-92.5484
0
LINE
8
BLACK
6
CONTINUOUS
10
83.7839
20
-92.5484
11
83.7963
21
-92.5255
0
LINE
8
BLACK
6
CONTINUOUS
10
83.7963
20
-92.5255
11
83.8001
21
-92.5231
0
LINE
8
BLACK
6
CONTINUOUS
10
83.8001
20
-92.5231
11
83.802
21
-92.5191
0
LINE
8
BLACK
6
CONTINUOUS
10
83.802
20
-92.5191
11
83.8828
21
-92.4382
0
LINE
8
BLACK
6
CONTINUOUS
10
83.8828
20
-92.4382
11
83.9041
21
-92.4233
0
LINE
8
BLACK
6
CONTINUOUS
10
83.9041
20
-92.4233
11
83.9086
21
-92.4229
0
LINE
8
BLACK
6
CONTINUOUS
10
83.9086
20
-92.4229
11
83.9121
21
-92.4201
0
LINE
8
BLACK
6
CONTINUOUS
10
83.9121
20
-92.4201
11
83.9727
21
-92.3999
0
LINE
8
BLACK
6
CONTINUOUS
10
83.9727
20
-92.3999
11
83.9949
21
-92.3966
0
LINE
8
BLACK
6
CONTINUOUS
10
83.9949
20
-92.3966
11
83.9964
21
-92.3961
0
LINE
8
BLACK
6
CONTINUOUS
10
83.9964
20
-92.3961
11
84.0368
21
-92.3961
0
LINE
8
BLACK
6
CONTINUOUS
10
84.0368
20
-92.3961
11
84.0589
21
-92.4
0
LINE
8
BLACK
6
CONTINUOUS
10
85.4497
20
-92.3435
11
85.672
21
-92.5657
0
LINE
8
BLACK
6
CONTINUOUS
10
85.672
20
-92.5657
11
85.6869
21
-92.5871
0
LINE
8
BLACK
6
CONTINUOUS
10
85.6869
20
-92.5871
11
85.6873
21
-92.5915
0
LINE
8
BLACK
6
CONTINUOUS
10
85.6873
20
-92.5915
11
85.6901
21
-92.595
0
LINE
8
BLACK
6
CONTINUOUS
10
85.6901
20
-92.595
11
85.7103
21
-92.6557
0
LINE
8
BLACK
6
CONTINUOUS
10
85.7103
20
-92.6557
11
85.7141
21
-92.6814
0
LINE
8
BLACK
6
CONTINUOUS
10
85.7141
20
-92.6814
11
85.71
21
-92.6919
0
LINE
8
BLACK
6
CONTINUOUS
10
85.71
20
-92.6919
11
85.7103
21
-92.7031
0
LINE
8
BLACK
6
CONTINUOUS
10
85.7103
20
-92.7031
11
85.6901
21
-92.7637
0
LINE
8
BLACK
6
CONTINUOUS
10
85.6901
20
-92.7637
11
85.6777
21
-92.7866
0
LINE
8
BLACK
6
CONTINUOUS
10
85.6777
20
-92.7866
11
85.6739
21
-92.7889
0
LINE
8
BLACK
6
CONTINUOUS
10
85.6739
20
-92.7889
11
85.672
21
-92.793
0
LINE
8
BLACK
6
CONTINUOUS
10
85.672
20
-92.793
11
85.6114
21
-92.8536
0
LINE
8
BLACK
6
CONTINUOUS
10
85.6114
20
-92.8536
11
85.59
21
-92.8686
0
LINE
8
BLACK
6
CONTINUOUS
10
85.59
20
-92.8686
11
85.5856
21
-92.869
0
LINE
8
BLACK
6
CONTINUOUS
10
85.5856
20
-92.869
11
85.5821
21
-92.8717
0
LINE
8
BLACK
6
CONTINUOUS
10
85.5821
20
-92.8717
11
85.5698
21
-92.8758
0
LINE
8
BLACK
6
CONTINUOUS
10
85.5698
20
-92.8758
11
85.5702
21
-92.8806
0
LINE
8
BLACK
6
CONTINUOUS
10
85.5702
20
-92.8806
11
85.5407
21
-92.9226
0
LINE
8
BLACK
6
CONTINUOUS
10
85.5407
20
-92.9226
11
85.4912
21
-92.9359
0
LINE
8
BLACK
6
CONTINUOUS
10
85.4912
20
-92.9359
11
85.4447
21
-92.9142
0
LINE
8
BLACK
6
CONTINUOUS
10
85.4447
20
-92.9142
11
85.1619
21
-92.6314
0
LINE
8
BLACK
6
CONTINUOUS
10
85.1619
20
-92.6314
11
85.1469
21
-92.6101
0
LINE
8
BLACK
6
CONTINUOUS
10
85.1469
20
-92.6101
11
85.1424
21
-92.5589
0
LINE
8
BLACK
6
CONTINUOUS
10
85.1424
20
-92.5589
11
85.1719
21
-92.5169
0
LINE
8
BLACK
6
CONTINUOUS
10
85.1719
20
-92.5169
11
85.2214
21
-92.5036
0
LINE
8
BLACK
6
CONTINUOUS
10
85.2214
20
-92.5036
11
85.2679
21
-92.5253
0
LINE
8
BLACK
6
CONTINUOUS
10
85.2679
20
-92.5253
11
85.4877
21
-92.7451
0
LINE
8
BLACK
6
CONTINUOUS
10
85.4877
20
-92.7451
11
85.5178
21
-92.735
0
LINE
8
BLACK
6
CONTINUOUS
10
85.5178
20
-92.735
11
85.5534
21
-92.6995
0
LINE
8
BLACK
6
CONTINUOUS
10
85.5534
20
-92.6995
11
85.5601
21
-92.6794
0
LINE
8
BLACK
6
CONTINUOUS
10
85.5601
20
-92.6794
11
85.5534
21
-92.6593
0
LINE
8
BLACK
6
CONTINUOUS
10
85.5534
20
-92.6593
11
85.3437
21
-92.4496
0
LINE
8
BLACK
6
CONTINUOUS
10
85.3437
20
-92.4496
11
85.3287
21
-92.4282
0
LINE
8
BLACK
6
CONTINUOUS
10
85.3287
20
-92.4282
11
85.3243
21
-92.3771
0
LINE
8
BLACK
6
CONTINUOUS
10
85.3243
20
-92.3771
11
85.3537
21
-92.3351
0
LINE
8
BLACK
6
CONTINUOUS
10
85.3537
20
-92.3351
11
85.4032
21
-92.3218
0
LINE
8
BLACK
6
CONTINUOUS
10
85.4032
20
-92.3218
11
85.4497
21
-92.3435
0
LINE
8
BLACK
6
CONTINUOUS
10
85.742
20
-91.8405
11
85.7437
21
-91.8405
0
LINE
8
BLACK
6
CONTINUOUS
10
85.7437
20
-91.8405
11
85.8043
21
-91.8607
0
LINE
8
BLACK
6
CONTINUOUS
10
85.8043
20
-91.8607
11
85.8157
21
-91.8669
0
LINE
8
BLACK
6
CONTINUOUS
10
85.8157
20
-91.8669
11
85.8192
21
-91.8675
0
LINE
8
BLACK
6
CONTINUOUS
10
85.8192
20
-91.8675
11
85.9202
21
-91.9282
0
LINE
8
BLACK
6
CONTINUOUS
10
85.9202
20
-91.9282
11
85.9315
21
-91.938
0
LINE
8
BLACK
6
CONTINUOUS
10
85.9315
20
-91.938
11
85.9346
21
-91.9394
0
LINE
8
BLACK
6
CONTINUOUS
10
85.9346
20
-91.9394
11
85.9952
21
-92
0
LINE
8
BLACK
6
CONTINUOUS
10
85.9952
20
-92
11
86.0038
21
-92.0123
0
LINE
8
BLACK
6
CONTINUOUS
10
86.0038
20
-92.0123
11
86.0065
21
-92.0145
0
LINE
8
BLACK
6
CONTINUOUS
10
86.0065
20
-92.0145
11
86.0671
21
-92.1155
0
LINE
8
BLACK
6
CONTINUOUS
10
86.0671
20
-92.1155
11
86.0717
21
-92.1276
0
LINE
8
BLACK
6
CONTINUOUS
10
86.0717
20
-92.1276
11
86.074
21
-92.1304
0
LINE
8
BLACK
6
CONTINUOUS
10
86.074
20
-92.1304
11
86.0942
21
-92.191
0
LINE
8
BLACK
6
CONTINUOUS
10
86.0942
20
-92.191
11
86.0974
21
-92.2132
0
LINE
8
BLACK
6
CONTINUOUS
10
86.0974
20
-92.2132
11
86.098
21
-92.2147
0
LINE
8
BLACK
6
CONTINUOUS
10
86.098
20
-92.2147
11
86.098
21
-92.2955
0
LINE
8
BLACK
6
CONTINUOUS
10
86.098
20
-92.2955
11
86.0935
21
-92.3212
0
LINE
8
BLACK
6
CONTINUOUS
10
86.0935
20
-92.3212
11
86.0906
21
-92.3246
0
LINE
8
BLACK
6
CONTINUOUS
10
86.0906
20
-92.3246
11
86.0901
21
-92.3291
0
LINE
8
BLACK
6
CONTINUOUS
10
86.0901
20
-92.3291
11
86.0497
21
-92.4099
0
LINE
8
BLACK
6
CONTINUOUS
10
86.0497
20
-92.4099
11
86.0363
21
-92.4279
0
LINE
8
BLACK
6
CONTINUOUS
10
86.0363
20
-92.4279
11
86.0356
21
-92.4294
0
LINE
8
BLACK
6
CONTINUOUS
10
86.0356
20
-92.4294
11
85.9952
21
-92.4698
0
LINE
8
BLACK
6
CONTINUOUS
10
85.9952
20
-92.4698
11
85.9769
21
-92.4826
0
LINE
8
BLACK
6
CONTINUOUS
10
85.9769
20
-92.4826
11
85.9757
21
-92.4838
0
LINE
8
BLACK
6
CONTINUOUS
10
85.9757
20
-92.4838
11
85.8949
21
-92.5242
0
LINE
8
BLACK
6
CONTINUOUS
10
85.8949
20
-92.5242
11
85.87
21
-92.5316
0
LINE
8
BLACK
6
CONTINUOUS
10
85.87
20
-92.5316
11
85.8656
21
-92.5306
0
LINE
8
BLACK
6
CONTINUOUS
10
85.8656
20
-92.5306
11
85.8614
21
-92.5321
0
LINE
8
BLACK
6
CONTINUOUS
10
85.8614
20
-92.5321
11
85.821
21
-92.5321
0
LINE
8
BLACK
6
CONTINUOUS
10
85.821
20
-92.5321
11
85.7953
21
-92.5276
0
LINE
8
BLACK
6
CONTINUOUS
10
85.7953
20
-92.5276
11
85.756
21
-92.4946
0
LINE
8
BLACK
6
CONTINUOUS
10
85.756
20
-92.4946
11
85.7471
21
-92.4441
0
LINE
8
BLACK
6
CONTINUOUS
10
85.7471
20
-92.4441
11
85.7728
21
-92.3997
0
LINE
8
BLACK
6
CONTINUOUS
10
85.7728
20
-92.3997
11
85.821
21
-92.3821
0
LINE
8
BLACK
6
CONTINUOUS
10
85.821
20
-92.3821
11
85.8437
21
-92.3821
0
LINE
8
BLACK
6
CONTINUOUS
10
85.8437
20
-92.3821
11
85.8978
21
-92.3551
0
LINE
8
BLACK
6
CONTINUOUS
10
85.8978
20
-92.3551
11
85.921
21
-92.3319
0
LINE
8
BLACK
6
CONTINUOUS
10
85.921
20
-92.3319
11
85.948
21
-92.2778
0
LINE
8
BLACK
6
CONTINUOUS
10
85.948
20
-92.2778
11
85.948
21
-92.2269
0
LINE
8
BLACK
6
CONTINUOUS
10
85.948
20
-92.2269
11
85.9343
21
-92.1856
0
LINE
8
BLACK
6
CONTINUOUS
10
85.9343
20
-92.1856
11
85.8826
21
-92.0996
0
LINE
8
BLACK
6
CONTINUOUS
10
85.8826
20
-92.0996
11
85.8351
21
-92.052
0
LINE
8
BLACK
6
CONTINUOUS
10
85.8351
20
-92.052
11
85.749
21
-92.0004
0
LINE
8
BLACK
6
CONTINUOUS
10
85.749
20
-92.0004
11
85.7078
21
-91.9867
0
LINE
8
BLACK
6
CONTINUOUS
10
85.7078
20
-91.9867
11
85.6569
21
-91.9867
0
LINE
8
BLACK
6
CONTINUOUS
10
85.6569
20
-91.9867
11
85.6028
21
-92.0137
0
LINE
8
BLACK
6
CONTINUOUS
10
85.6028
20
-92.0137
11
85.5796
21
-92.0369
0
LINE
8
BLACK
6
CONTINUOUS
10
85.5796
20
-92.0369
11
85.5525
21
-92.091
0
LINE
8
BLACK
6
CONTINUOUS
10
85.5525
20
-92.091
11
85.5525
21
-92.1137
0
LINE
8
BLACK
6
CONTINUOUS
10
85.5525
20
-92.1137
11
85.548
21
-92.1393
0
LINE
8
BLACK
6
CONTINUOUS
10
85.548
20
-92.1393
11
85.515
21
-92.1786
0
LINE
8
BLACK
6
CONTINUOUS
10
85.515
20
-92.1786
11
85.4645
21
-92.1875
0
LINE
8
BLACK
6
CONTINUOUS
10
85.4645
20
-92.1875
11
85.4201
21
-92.1619
0
LINE
8
BLACK
6
CONTINUOUS
10
85.4201
20
-92.1619
11
85.4025
21
-92.1137
0
LINE
8
BLACK
6
CONTINUOUS
10
85.4025
20
-92.1137
11
85.4025
21
-92.0733
0
LINE
8
BLACK
6
CONTINUOUS
10
85.4025
20
-92.0733
11
85.407
21
-92.0476
0
LINE
8
BLACK
6
CONTINUOUS
10
85.407
20
-92.0476
11
85.4099
21
-92.0442
0
LINE
8
BLACK
6
CONTINUOUS
10
85.4099
20
-92.0442
11
85.4104
21
-92.0397
0
LINE
8
BLACK
6
CONTINUOUS
10
85.4104
20
-92.0397
11
85.4508
21
-91.9589
0
LINE
8
BLACK
6
CONTINUOUS
10
85.4508
20
-91.9589
11
85.4642
21
-91.9409
0
LINE
8
BLACK
6
CONTINUOUS
10
85.4642
20
-91.9409
11
85.4649
21
-91.9394
0
LINE
8
BLACK
6
CONTINUOUS
10
85.4649
20
-91.9394
11
85.5053
21
-91.899
0
LINE
8
BLACK
6
CONTINUOUS
10
85.5053
20
-91.899
11
85.5237
21
-91.8862
0
LINE
8
BLACK
6
CONTINUOUS
10
85.5237
20
-91.8862
11
85.5248
21
-91.885
0
LINE
8
BLACK
6
CONTINUOUS
10
85.5248
20
-91.885
11
85.6056
21
-91.8446
0
LINE
8
BLACK
6
CONTINUOUS
10
85.6056
20
-91.8446
11
85.6306
21
-91.8371
0
LINE
8
BLACK
6
CONTINUOUS
10
85.6306
20
-91.8371
11
85.6349
21
-91.8382
0
LINE
8
BLACK
6
CONTINUOUS
10
85.6349
20
-91.8382
11
85.6391
21
-91.8367
0
LINE
8
BLACK
6
CONTINUOUS
10
85.6391
20
-91.8367
11
85.72
21
-91.8367
0
LINE
8
BLACK
6
CONTINUOUS
10
85.72
20
-91.8367
11
85.742
21
-91.8405
0
LINE
8
BLACK
6
CONTINUOUS
10
84.7566
20
-91.6705
11
85.0394
21
-91.9534
0
LINE
8
BLACK
6
CONTINUOUS
10
85.0394
20
-91.9534
11
85.0544
21
-91.9747
0
LINE
8
BLACK
6
CONTINUOUS
10
85.0544
20
-91.9747
11
85.0588
21
-92.0258
0
LINE
8
BLACK
6
CONTINUOUS
10
85.0588
20
-92.0258
11
85.0294
21
-92.0678
0
LINE
8
BLACK
6
CONTINUOUS
10
85.0294
20
-92.0678
11
84.9798
21
-92.0811
0
LINE
8
BLACK
6
CONTINUOUS
10
84.9798
20
-92.0811
11
84.9334
21
-92.0594
0
LINE
8
BLACK
6
CONTINUOUS
10
84.9334
20
-92.0594
11
84.7136
21
-91.8397
0
LINE
8
BLACK
6
CONTINUOUS
10
84.7136
20
-91.8397
11
84.6834
21
-91.8497
0
LINE
8
BLACK
6
CONTINUOUS
10
84.6834
20
-91.8497
11
84.6479
21
-91.8853
0
LINE
8
BLACK
6
CONTINUOUS
10
84.6479
20
-91.8853
11
84.6412
21
-91.9054
0
LINE
8
BLACK
6
CONTINUOUS
10
84.6412
20
-91.9054
11
84.6479
21
-91.9255
0
LINE
8
BLACK
6
CONTINUOUS
10
84.6479
20
-91.9255
11
84.8576
21
-92.1352
0
LINE
8
BLACK
6
CONTINUOUS
10
84.8576
20
-92.1352
11
84.8725
21
-92.1565
0
LINE
8
BLACK
6
CONTINUOUS
10
84.8725
20
-92.1565
11
84.877
21
-92.2076
0
LINE
8
BLACK
6
CONTINUOUS
10
84.877
20
-92.2076
11
84.8476
21
-92.2497
0
LINE
8
BLACK
6
CONTINUOUS
10
84.8476
20
-92.2497
11
84.798
21
-92.2629
0
LINE
8
BLACK
6
CONTINUOUS
10
84.798
20
-92.2629
11
84.7515
21
-92.2413
0
LINE
8
BLACK
6
CONTINUOUS
10
84.7515
20
-92.2413
11
84.5293
21
-92.019
0
LINE
8
BLACK
6
CONTINUOUS
10
84.5293
20
-92.019
11
84.5144
21
-91.9977
0
LINE
8
BLACK
6
CONTINUOUS
10
84.5144
20
-91.9977
11
84.514
21
-91.9932
0
LINE
8
BLACK
6
CONTINUOUS
10
84.514
20
-91.9932
11
84.5112
21
-91.9897
0
LINE
8
BLACK
6
CONTINUOUS
10
84.5112
20
-91.9897
11
84.491
21
-91.9291
0
LINE
8
BLACK
6
CONTINUOUS
10
84.491
20
-91.9291
11
84.4871
21
-91.9033
0
LINE
8
BLACK
6
CONTINUOUS
10
84.4871
20
-91.9033
11
84.4913
21
-91.8929
0
LINE
8
BLACK
6
CONTINUOUS
10
84.4913
20
-91.8929
11
84.491
21
-91.8817
0
LINE
8
BLACK
6
CONTINUOUS
10
84.491
20
-91.8817
11
84.5112
21
-91.8211
0
LINE
8
BLACK
6
CONTINUOUS
10
84.5112
20
-91.8211
11
84.5236
21
-91.7982
0
LINE
8
BLACK
6
CONTINUOUS
10
84.5236
20
-91.7982
11
84.5274
21
-91.7958
0
LINE
8
BLACK
6
CONTINUOUS
10
84.5274
20
-91.7958
11
84.5293
21
-91.7917
0
LINE
8
BLACK
6
CONTINUOUS
10
84.5293
20
-91.7917
11
84.5899
21
-91.7311
0
LINE
8
BLACK
6
CONTINUOUS
10
84.5899
20
-91.7311
11
84.6112
21
-91.7162
0
LINE
8
BLACK
6
CONTINUOUS
10
84.6112
20
-91.7162
11
84.6157
21
-91.7158
0
LINE
8
BLACK
6
CONTINUOUS
10
84.6157
20
-91.7158
11
84.6192
21
-91.713
0
LINE
8
BLACK
6
CONTINUOUS
10
84.6192
20
-91.713
11
84.6315
21
-91.7089
0
LINE
8
BLACK
6
CONTINUOUS
10
84.6315
20
-91.7089
11
84.6311
21
-91.7042
0
LINE
8
BLACK
6
CONTINUOUS
10
84.6311
20
-91.7042
11
84.6605
21
-91.6621
0
LINE
8
BLACK
6
CONTINUOUS
10
84.6605
20
-91.6621
11
84.7101
21
-91.6488
0
LINE
8
BLACK
6
CONTINUOUS
10
84.7101
20
-91.6488
11
84.7566
21
-91.6705
0
LINE
8
BLACK
6
CONTINUOUS
10
84.8172
20
-91.3271
11
85.2415
21
-91.7513
0
LINE
8
BLACK
6
CONTINUOUS
10
85.2415
20
-91.7513
11
85.2564
21
-91.7727
0
LINE
8
BLACK
6
CONTINUOUS
10
85.2564
20
-91.7727
11
85.2609
21
-91.8238
0
LINE
8
BLACK
6
CONTINUOUS
10
85.2609
20
-91.8238
11
85.2314
21
-91.8658
0
LINE
8
BLACK
6
CONTINUOUS
10
85.2314
20
-91.8658
11
85.1819
21
-91.8791
0
LINE
8
BLACK
6
CONTINUOUS
10
85.1819
20
-91.8791
11
85.1354
21
-91.8574
0
LINE
8
BLACK
6
CONTINUOUS
10
85.1354
20
-91.8574
11
84.7111
21
-91.4331
0
LINE
8
BLACK
6
CONTINUOUS
10
84.7111
20
-91.4331
11
84.6962
21
-91.4118
0
LINE
8
BLACK
6
CONTINUOUS
10
84.6962
20
-91.4118
11
84.6917
21
-91.3607
0
LINE
8
BLACK
6
CONTINUOUS
10
84.6917
20
-91.3607
11
84.7211
21
-91.3187
0
LINE
8
BLACK
6
CONTINUOUS
10
84.7211
20
-91.3187
11
84.7707
21
-91.3054
0
LINE
8
BLACK
6
CONTINUOUS
10
84.7707
20
-91.3054
11
84.8172
21
-91.3271
0
LINE
8
BLACK
6
CONTINUOUS
10
62.5211
20
-98.2703
11
62.604
21
-98.2573
0
LINE
8
BLACK
6
CONTINUOUS
10
62.604
20
-98.2573
11
62.678
21
-98.2559
0
LINE
8
BLACK
6
CONTINUOUS
10
62.678
20
-98.2559
11
62.7351
21
-98.2647
0
LINE
8
BLACK
6
CONTINUOUS
10
62.7351
20
-98.2647
11
62.7717
21
-98.2377
0
LINE
8
BLACK
6
CONTINUOUS
10
62.7717
20
-98.2377
11
62.7875
21
-98.1501
0
LINE
8
BLACK
6
CONTINUOUS
10
62.7875
20
-98.1501
11
62.7969
21
-98.0878
0
LINE
8
BLACK
6
CONTINUOUS
10
62.7969
20
-98.0878
11
62.8333
21
-98.029
0
LINE
8
BLACK
6
CONTINUOUS
10
62.8333
20
-98.029
11
62.9165
21
-98.0067
0
LINE
8
BLACK
6
CONTINUOUS
10
62.9165
20
-98.0067
11
63.0331
21
-97.9934
0
LINE
8
BLACK
6
CONTINUOUS
10
63.0331
20
-97.9934
11
63.0065
21
-99.2632
0
LINE
8
BLACK
6
CONTINUOUS
10
63.0065
20
-99.2632
11
63.0057
21
-99.3021
0
LINE
8
BLACK
6
CONTINUOUS
10
63.0057
20
-99.3021
11
62.9989
21
-99.6606
0
LINE
8
BLACK
6
CONTINUOUS
10
62.9989
20
-99.6606
11
62.9927
21
-100.031
0
LINE
8
BLACK
6
CONTINUOUS
10
62.9927
20
-100.031
11
62.9875
21
-100.396
0
LINE
8
BLACK
6
CONTINUOUS
10
62.9875
20
-100.396
11
62.9835
21
-100.735
0
LINE
8
BLACK
6
CONTINUOUS
10
62.9835
20
-100.735
11
62.9809
21
-101.032
0
LINE
8
BLACK
6
CONTINUOUS
10
62.9809
20
-101.032
11
62.98
21
-101.267
0
LINE
8
BLACK
6
CONTINUOUS
10
62.98
20
-101.267
11
62.98
21
-102
0
LINE
8
BLACK
6
CONTINUOUS
10
62.98
20
-102
11
62.88
21
-102
0
LINE
8
BLACK
6
CONTINUOUS
10
62.88
20
-102
11
62.8614
21
-102
0
LINE
8
BLACK
6
CONTINUOUS
10
62.8614
20
-102
11
62.8076
21
-101.986
0
LINE
8
BLACK
6
CONTINUOUS
10
62.8076
20
-101.986
11
62.7847
21
-101.937
0
LINE
8
BLACK
6
CONTINUOUS
10
62.7847
20
-101.937
11
62.7799
21
-101.83
0
LINE
8
BLACK
6
CONTINUOUS
10
62.7799
20
-101.83
11
62.7799
21
-101.66
0
LINE
8
BLACK
6
CONTINUOUS
10
62.7799
20
-101.66
11
62.5547
21
-101.652
0
LINE
8
BLACK
6
CONTINUOUS
10
62.5547
20
-101.652
11
62.357
21
-101.635
0
LINE
8
BLACK
6
CONTINUOUS
10
62.357
20
-101.635
11
62.1026
21
-101.59
0
LINE
8
BLACK
6
CONTINUOUS
10
62.1026
20
-101.59
11
61.8378
21
-101.525
0
LINE
8
BLACK
6
CONTINUOUS
10
61.8378
20
-101.525
11
61.5776
21
-101.443
0
LINE
8
BLACK
6
CONTINUOUS
10
61.5776
20
-101.443
11
61.3368
21
-101.351
0
LINE
8
BLACK
6
CONTINUOUS
10
61.3368
20
-101.351
11
61.1306
21
-101.254
0
LINE
8
BLACK
6
CONTINUOUS
10
61.1306
20
-101.254
11
60.9737
21
-101.156
0
LINE
8
BLACK
6
CONTINUOUS
10
60.9737
20
-101.156
11
60.8812
21
-101.064
0
LINE
8
BLACK
6
CONTINUOUS
10
60.8812
20
-101.064
11
60.8588
21
-101.014
0
LINE
8
BLACK
6
CONTINUOUS
10
60.8588
20
-101.014
11
60.8257
21
-100.894
0
LINE
8
BLACK
6
CONTINUOUS
10
60.8257
20
-100.894
11
60.8016
21
-100.752
0
LINE
8
BLACK
6
CONTINUOUS
10
60.8016
20
-100.752
11
60.7748
21
-100.524
0
LINE
8
BLACK
6
CONTINUOUS
10
60.7748
20
-100.524
11
60.6674
21
-100.57
0
LINE
8
BLACK
6
CONTINUOUS
10
60.6674
20
-100.57
11
60.6112
21
-100.594
0
LINE
8
BLACK
6
CONTINUOUS
10
60.6112
20
-100.594
11
60.5379
21
-100.639
0
LINE
8
BLACK
6
CONTINUOUS
10
60.5379
20
-100.639
11
60.5175
21
-100.693
0
LINE
8
BLACK
6
CONTINUOUS
10
60.5175
20
-100.693
11
60.5345
21
-100.781
0
LINE
8
BLACK
6
CONTINUOUS
10
60.5345
20
-100.781
11
60.5418
21
-100.816
0
LINE
8
BLACK
6
CONTINUOUS
10
60.5418
20
-100.816
11
60.5375
21
-100.954
0
LINE
8
BLACK
6
CONTINUOUS
10
60.5375
20
-100.954
11
60.4963
21
-101.099
0
LINE
8
BLACK
6
CONTINUOUS
10
60.4963
20
-101.099
11
60.4288
21
-101.229
0
LINE
8
BLACK
6
CONTINUOUS
10
60.4288
20
-101.229
11
60.3453
21
-101.324
0
LINE
8
BLACK
6
CONTINUOUS
10
60.3453
20
-101.324
11
60.2563
21
-101.36
0
LINE
8
BLACK
6
CONTINUOUS
10
60.2563
20
-101.36
11
60.238
21
-101.329
0
LINE
8
BLACK
6
CONTINUOUS
10
60.238
20
-101.329
11
60.2112
21
-101.239
0
LINE
8
BLACK
6
CONTINUOUS
10
60.2112
20
-101.239
11
60.1831
21
-101.11
0
LINE
8
BLACK
6
CONTINUOUS
10
60.1831
20
-101.11
11
60.1822
21
-101.106
0
LINE
8
BLACK
6
CONTINUOUS
10
60.1822
20
-101.106
11
60.1335
21
-100.875
0
LINE
8
BLACK
6
CONTINUOUS
10
60.1335
20
-100.875
11
60.0883
21
-100.718
0
LINE
8
BLACK
6
CONTINUOUS
10
60.0883
20
-100.718
11
60.0442
21
-100.629
0
LINE
8
BLACK
6
CONTINUOUS
10
60.0442
20
-100.629
11
59.9992
21
-100.6
0
LINE
8
BLACK
6
CONTINUOUS
10
59.9992
20
-100.6
11
59.9893
21
-100.599
0
LINE
8
BLACK
6
CONTINUOUS
10
59.9893
20
-100.599
11
59.9117
21
-100.573
0
LINE
8
BLACK
6
CONTINUOUS
10
59.9117
20
-100.573
11
59.8112
21
-100.521
0
LINE
8
BLACK
6
CONTINUOUS
10
59.8112
20
-100.521
11
59.8093
21
-100.52
0
LINE
8
BLACK
6
CONTINUOUS
10
59.8093
20
-100.52
11
59.7009
21
-100.472
0
LINE
8
BLACK
6
CONTINUOUS
10
59.7009
20
-100.472
11
59.5471
21
-100.422
0
LINE
8
BLACK
6
CONTINUOUS
10
59.5471
20
-100.422
11
59.3806
21
-100.38
0
LINE
8
BLACK
6
CONTINUOUS
10
59.3806
20
-100.38
11
59.3544
21
-100.375
0
LINE
8
BLACK
6
CONTINUOUS
10
59.3544
20
-100.375
11
59.2132
21
-100.341
0
LINE
8
BLACK
6
CONTINUOUS
10
59.2132
20
-100.341
11
59.1086
21
-100.31
0
LINE
8
BLACK
6
CONTINUOUS
10
59.1086
20
-100.31
11
59.0616
21
-100.288
0
LINE
8
BLACK
6
CONTINUOUS
10
59.0616
20
-100.288
11
59.0601
21
-100.286
0
LINE
8
BLACK
6
CONTINUOUS
10
59.0601
20
-100.286
11
58.9909
21
-100.238
0
LINE
8
BLACK
6
CONTINUOUS
10
58.9909
20
-100.238
11
58.8655
21
-100.184
0
LINE
8
BLACK
6
CONTINUOUS
10
58.8655
20
-100.184
11
58.7054
21
-100.129
0
LINE
8
BLACK
6
CONTINUOUS
10
58.7054
20
-100.129
11
58.5322
21
-100.08
0
LINE
8
BLACK
6
CONTINUOUS
10
58.5322
20
-100.08
11
58.3677
21
-100.043
0
LINE
8
BLACK
6
CONTINUOUS
10
58.3677
20
-100.043
11
58.2332
21
-100.024
0
LINE
8
BLACK
6
CONTINUOUS
10
58.2332
20
-100.024
11
58.1506
21
-100.029
0
LINE
8
BLACK
6
CONTINUOUS
10
58.1506
20
-100.029
11
58.1193
21
-100.026
0
LINE
8
BLACK
6
CONTINUOUS
10
58.1193
20
-100.026
11
58.1
21
-99.9674
0
LINE
8
BLACK
6
CONTINUOUS
10
58.1
20
-99.9674
11
58.1227
21
-99.9085
0
LINE
8
BLACK
6
CONTINUOUS
10
58.1227
20
-99.9085
11
58.2102
21
-99.8536
0
LINE
8
BLACK
6
CONTINUOUS
10
58.2102
20
-99.8536
11
58.3678
21
-99.8125
0
LINE
8
BLACK
6
CONTINUOUS
10
58.3678
20
-99.8125
11
58.6
21
-99.7836
0
LINE
8
BLACK
6
CONTINUOUS
10
58.6
20
-99.7836
11
58.701
21
-99.7726
0
LINE
8
BLACK
6
CONTINUOUS
10
58.701
20
-99.7726
11
58.8673
21
-99.7467
0
LINE
8
BLACK
6
CONTINUOUS
10
58.8673
20
-99.7467
11
59
21
-99.7173
0
LINE
8
BLACK
6
CONTINUOUS
10
59
20
-99.7173
11
59.0154
21
-99.7131
0
LINE
8
BLACK
6
CONTINUOUS
10
59.0154
20
-99.7131
11
59.1666
21
-99.6773
0
LINE
8
BLACK
6
CONTINUOUS
10
59.1666
20
-99.6773
11
59.31
21
-99.6517
0
LINE
8
BLACK
6
CONTINUOUS
10
59.31
20
-99.6517
11
59.3372
21
-99.6475
0
LINE
8
BLACK
6
CONTINUOUS
10
59.3372
20
-99.6475
11
59.4247
21
-99.6245
0
LINE
8
BLACK
6
CONTINUOUS
10
59.4247
20
-99.6245
11
59.46
21
-99.5985
0
LINE
8
BLACK
6
CONTINUOUS
10
59.46
20
-99.5985
11
59.481
21
-99.5702
0
LINE
8
BLACK
6
CONTINUOUS
10
59.481
20
-99.5702
11
59.5496
21
-99.5362
0
LINE
8
BLACK
6
CONTINUOUS
10
59.5496
20
-99.5362
11
59.6302
21
-99.5208
0
LINE
8
BLACK
6
CONTINUOUS
10
59.6302
20
-99.5208
11
59.6578
21
-99.5125
0
LINE
8
BLACK
6
CONTINUOUS
10
59.6578
20
-99.5125
11
59.7413
21
-99.4756
0
LINE
8
BLACK
6
CONTINUOUS
10
59.7413
20
-99.4756
11
59.8452
21
-99.4237
0
LINE
8
BLACK
6
CONTINUOUS
10
59.8452
20
-99.4237
11
59.8541
21
-99.4193
0
LINE
8
BLACK
6
CONTINUOUS
10
59.8541
20
-99.4193
11
59.9447
21
-99.3659
0
LINE
8
BLACK
6
CONTINUOUS
10
59.9447
20
-99.3659
11
59.964
21
-99.3484
0
LINE
8
BLACK
6
CONTINUOUS
10
59.964
20
-99.3484
11
60.0274
21
-99.2911
0
LINE
8
BLACK
6
CONTINUOUS
10
60.0274
20
-99.2911
11
60.0504
21
-99.2509
0
LINE
8
BLACK
6
CONTINUOUS
10
60.0504
20
-99.2509
11
60.0851
21
-99.1905
0
LINE
8
BLACK
6
CONTINUOUS
10
60.0851
20
-99.1905
11
60.1273
21
-99.0462
0
LINE
8
BLACK
6
CONTINUOUS
10
60.1273
20
-99.0462
11
60.1637
21
-98.84
0
LINE
8
BLACK
6
CONTINUOUS
10
60.1637
20
-98.84
11
60.1772
21
-98.7608
0
LINE
8
BLACK
6
CONTINUOUS
10
60.1772
20
-98.7608
11
60.2164
21
-98.6198
0
LINE
8
BLACK
6
CONTINUOUS
10
60.2164
20
-98.6198
11
60.2694
21
-98.5431
0
LINE
8
BLACK
6
CONTINUOUS
10
60.2694
20
-98.5431
11
60.3424
21
-98.52
0
LINE
8
BLACK
6
CONTINUOUS
10
60.3424
20
-98.52
11
60.3503
21
-98.5202
0
LINE
8
BLACK
6
CONTINUOUS
10
60.3503
20
-98.5202
11
60.3704
21
-98.5308
0
LINE
8
BLACK
6
CONTINUOUS
10
60.3704
20
-98.5308
11
60.3933
21
-98.5428
0
LINE
8
BLACK
6
CONTINUOUS
10
60.3933
20
-98.5428
11
60.4124
21
-98.5528
0
LINE
8
BLACK
6
CONTINUOUS
10
60.4124
20
-98.5528
11
60.4494
21
-98.65
0
LINE
8
BLACK
6
CONTINUOUS
10
60.4494
20
-98.65
11
60.4513
21
-98.6586
0
LINE
8
BLACK
6
CONTINUOUS
10
60.4513
20
-98.6586
11
60.4683
21
-98.7509
0
LINE
8
BLACK
6
CONTINUOUS
10
60.4683
20
-98.7509
11
60.4733
21
-98.8
0
LINE
8
BLACK
6
CONTINUOUS
10
60.4733
20
-98.8
11
60.4688
21
-98.8365
0
LINE
8
BLACK
6
CONTINUOUS
10
60.4688
20
-98.8365
11
60.4579
21
-98.933
0
LINE
8
BLACK
6
CONTINUOUS
10
60.4579
20
-98.933
11
60.4435
21
-99.0647
0
LINE
8
BLACK
6
CONTINUOUS
10
60.4435
20
-99.0647
11
60.4387
21
-99.1094
0
LINE
8
BLACK
6
CONTINUOUS
10
60.4387
20
-99.1094
11
60.4294
21
-99.2253
0
LINE
8
BLACK
6
CONTINUOUS
10
60.4294
20
-99.2253
11
60.4369
21
-99.2875
0
LINE
8
BLACK
6
CONTINUOUS
10
60.4369
20
-99.2875
11
60.4679
21
-99.3163
0
LINE
8
BLACK
6
CONTINUOUS
10
60.4679
20
-99.3163
11
60.5245
21
-99.3309
0
LINE
8
BLACK
6
CONTINUOUS
10
60.5245
20
-99.3309
11
60.5286
21
-99.3319
0
LINE
8
BLACK
6
CONTINUOUS
10
60.5286
20
-99.3319
11
60.6072
21
-99.3504
0
LINE
8
BLACK
6
CONTINUOUS
10
60.6072
20
-99.3504
11
60.617
21
-99.3527
0
LINE
8
BLACK
6
CONTINUOUS
10
60.617
20
-99.3527
11
60.7053
21
-99.3797
0
LINE
8
BLACK
6
CONTINUOUS
10
60.7053
20
-99.3797
11
60.7277
21
-99.3846
0
LINE
8
BLACK
6
CONTINUOUS
10
60.7277
20
-99.3846
11
60.7602
21
-99.3636
0
LINE
8
BLACK
6
CONTINUOUS
10
60.7602
20
-99.3636
11
60.7869
21
-99.2915
0
LINE
8
BLACK
6
CONTINUOUS
10
60.7869
20
-99.2915
11
60.8148
21
-99.1541
0
LINE
8
BLACK
6
CONTINUOUS
10
60.8148
20
-99.1541
11
60.8351
21
-99.0527
0
LINE
8
BLACK
6
CONTINUOUS
10
60.8351
20
-99.0527
11
60.8793
21
-98.9219
0
LINE
8
BLACK
6
CONTINUOUS
10
60.8793
20
-98.9219
11
60.9502
21
-98.8287
0
LINE
8
BLACK
6
CONTINUOUS
10
60.9502
20
-98.8287
11
61.0648
21
-98.7543
0
LINE
8
BLACK
6
CONTINUOUS
10
61.0648
20
-98.7543
11
61.24
21
-98.6795
0
LINE
8
BLACK
6
CONTINUOUS
10
61.24
20
-98.6795
11
61.3563
21
-98.6322
0
LINE
8
BLACK
6
CONTINUOUS
10
61.3563
20
-98.6322
11
61.4722
21
-98.5792
0
LINE
8
BLACK
6
CONTINUOUS
10
61.4722
20
-98.5792
11
61.4826
21
-98.5734
0
LINE
8
BLACK
6
CONTINUOUS
10
61.4826
20
-98.5734
11
61.54
21
-98.541
0
LINE
8
BLACK
6
CONTINUOUS
10
61.54
20
-98.541
11
61.5426
21
-98.5391
0
LINE
8
BLACK
6
CONTINUOUS
10
61.5426
20
-98.5391
11
61.6196
21
-98.503
0
LINE
8
BLACK
6
CONTINUOUS
10
61.6196
20
-98.503
11
61.7532
21
-98.4575
0
LINE
8
BLACK
6
CONTINUOUS
10
61.7532
20
-98.4575
11
61.9242
21
-98.4076
0
LINE
8
BLACK
6
CONTINUOUS
10
61.9242
20
-98.4076
11
61.9746
21
-98.3944
0
LINE
8
BLACK
6
CONTINUOUS
10
61.9746
20
-98.3944
11
62.0844
21
-98.3656
0
LINE
8
BLACK
6
CONTINUOUS
10
62.0844
20
-98.3656
11
62.1138
21
-98.3578
0
LINE
8
BLACK
6
CONTINUOUS
10
62.1138
20
-98.3578
11
62.2
21
-98.3374
0
LINE
8
BLACK
6
CONTINUOUS
10
62.2
20
-98.3374
11
62.3029
21
-98.313
0
LINE
8
BLACK
6
CONTINUOUS
10
62.3029
20
-98.313
11
62.3741
21
-98.2983
0
LINE
8
BLACK
6
CONTINUOUS
10
62.3741
20
-98.2983
11
62.4727
21
-98.278
0
LINE
8
BLACK
6
CONTINUOUS
10
62.4727
20
-98.278
11
62.5211
21
-98.2703
0
LINE
8
BLACK
6
CONTINUOUS
10
60.5
20
-100.54
11
60.52
21
-100.56
0
LINE
8
BLACK
6
CONTINUOUS
10
60.52
20
-100.56
11
60.54
21
-100.54
0
LINE
8
BLACK
6
CONTINUOUS
10
60.54
20
-100.54
11
60.52
21
-100.52
0
LINE
8
BLACK
6
CONTINUOUS
10
60.52
20
-100.52
11
60.5
21
-100.54
0
LINE
8
BLACK
6
CONTINUOUS
10
60.6568
20
-100.469
11
60.6052
21
-100.491
0
LINE
8
BLACK
6
CONTINUOUS
10
60.6052
20
-100.491
11
60.6145
21
-100.512
0
LINE
8
BLACK
6
CONTINUOUS
10
60.6145
20
-100.512
11
60.6401
21
-100.515
0
LINE
8
BLACK
6
CONTINUOUS
10
60.6401
20
-100.515
11
60.7093
21
-100.487
0
LINE
8
BLACK
6
CONTINUOUS
10
60.7093
20
-100.487
11
60.7111
21
-100.485
0
LINE
8
BLACK
6
CONTINUOUS
10
60.7111
20
-100.485
11
60.7185
21
-100.46
0
LINE
8
BLACK
6
CONTINUOUS
10
60.7185
20
-100.46
11
60.6568
21
-100.469
0
LINE
8
BLACK
6
CONTINUOUS
10
59.7836
20
-100.049
11
59.76
21
-100.161
0
LINE
8
BLACK
6
CONTINUOUS
10
59.76
20
-100.161
11
59.765
21
-100.244
0
LINE
8
BLACK
6
CONTINUOUS
10
59.765
20
-100.244
11
59.7943
21
-100.291
0
LINE
8
BLACK
6
CONTINUOUS
10
59.7943
20
-100.291
11
59.8663
21
-100.304
0
LINE
8
BLACK
6
CONTINUOUS
10
59.8663
20
-100.304
11
59.9283
21
-100.297
0
LINE
8
BLACK
6
CONTINUOUS
10
59.9283
20
-100.297
11
60.004
21
-100.243
0
LINE
8
BLACK
6
CONTINUOUS
10
60.004
20
-100.243
11
60.0241
21
-100.158
0
LINE
8
BLACK
6
CONTINUOUS
10
60.0241
20
-100.158
11
59.9773
21
-100.066
0
LINE
8
BLACK
6
CONTINUOUS
10
59.9773
20
-100.066
11
59.9308
21
-100.027
0
LINE
8
BLACK
6
CONTINUOUS
10
59.9308
20
-100.027
11
59.8452
21
-100.002
0
LINE
8
BLACK
6
CONTINUOUS
10
59.8452
20
-100.002
11
59.7836
21
-100.049
0
LINE
8
BLACK
6
CONTINUOUS
10
60.5491
20
-99.9995
11
60.58
21
-99.9824
0
LINE
8
BLACK
6
CONTINUOUS
10
60.58
20
-99.9824
11
60.5782
21
-99.9759
0
LINE
8
BLACK
6
CONTINUOUS
10
60.5782
20
-99.9759
11
60.54
21
-99.94
0
LINE
8
BLACK
6
CONTINUOUS
10
60.54
20
-99.94
11
60.5245
21
-99.9337
0
LINE
8
BLACK
6
CONTINUOUS
10
60.5245
20
-99.9337
11
60.5
21
-99.9576
0
LINE
8
BLACK
6
CONTINUOUS
10
60.5
20
-99.9576
11
60.5015
21
-99.9692
0
LINE
8
BLACK
6
CONTINUOUS
10
60.5015
20
-99.9692
11
60.52
21
-99.984
0
LINE
8
BLACK
6
CONTINUOUS
10
60.52
20
-99.984
11
60.54
21
-100
0
LINE
8
BLACK
6
CONTINUOUS
10
60.54
20
-100
11
60.5491
21
-99.9995
0
LINE
8
BLACK
6
CONTINUOUS
10
62.06
20
-99.98
11
62.067
21
-100.008
0
LINE
8
BLACK
6
CONTINUOUS
10
62.067
20
-100.008
11
62.12
21
-100.04
0
LINE
8
BLACK
6
CONTINUOUS
10
62.12
20
-100.04
11
62.1372
21
-100.039
0
LINE
8
BLACK
6
CONTINUOUS
10
62.1372
20
-100.039
11
62.1788
21
-100.005
0
LINE
8
BLACK
6
CONTINUOUS
10
62.1788
20
-100.005
11
62.1533
21
-99.9467
0
LINE
8
BLACK
6
CONTINUOUS
10
62.1533
20
-99.9467
11
62.1397
21
-99.9348
0
LINE
8
BLACK
6
CONTINUOUS
10
62.1397
20
-99.9348
11
62.0844
21
-99.9249
0
LINE
8
BLACK
6
CONTINUOUS
10
62.0844
20
-99.9249
11
62.06
21
-99.98
0
LINE
8
BLACK
6
CONTINUOUS
10
60.7848
20
-100.161
11
60.8519
21
-100.015
0
LINE
8
BLACK
6
CONTINUOUS
10
60.8519
20
-100.015
11
60.8393
21
-99.8773
0
LINE
8
BLACK
6
CONTINUOUS
10
60.8393
20
-99.8773
11
60.7472
21
-99.7469
0
LINE
8
BLACK
6
CONTINUOUS
10
60.7472
20
-99.7469
11
60.7233
21
-99.7251
0
LINE
8
BLACK
6
CONTINUOUS
10
60.7233
20
-99.7251
11
60.6501
21
-99.6734
0
LINE
8
BLACK
6
CONTINUOUS
10
60.6501
20
-99.6734
11
60.6072
21
-99.6661
0
LINE
8
BLACK
6
CONTINUOUS
10
60.6072
20
-99.6661
11
60.5878
21
-99.6914
0
LINE
8
BLACK
6
CONTINUOUS
10
60.5878
20
-99.6914
11
60.5947
21
-99.7503
0
LINE
8
BLACK
6
CONTINUOUS
10
60.5947
20
-99.7503
11
60.68
21
-99.8073
0
LINE
8
BLACK
6
CONTINUOUS
10
60.68
20
-99.8073
11
60.7506
21
-99.8591
0
LINE
8
BLACK
6
CONTINUOUS
10
60.7506
20
-99.8591
11
60.7772
21
-99.9564
0
LINE
8
BLACK
6
CONTINUOUS
10
60.7772
20
-99.9564
11
60.7763
21
-99.9784
0
LINE
8
BLACK
6
CONTINUOUS
10
60.7763
20
-99.9784
11
60.7673
21
-100.023
0
LINE
8
BLACK
6
CONTINUOUS
10
60.7673
20
-100.023
11
60.7472
21
-99.9937
0
LINE
8
BLACK
6
CONTINUOUS
10
60.7472
20
-99.9937
11
60.7284
21
-99.9741
0
LINE
8
BLACK
6
CONTINUOUS
10
60.7284
20
-99.9741
11
60.6983
21
-100.012
0
LINE
8
BLACK
6
CONTINUOUS
10
60.6983
20
-100.012
11
60.6569
21
-100.124
0
LINE
8
BLACK
6
CONTINUOUS
10
60.6569
20
-100.124
11
60.6493
21
-100.148
0
LINE
8
BLACK
6
CONTINUOUS
10
60.6493
20
-100.148
11
60.6197
21
-100.265
0
LINE
8
BLACK
6
CONTINUOUS
10
60.6197
20
-100.265
11
60.6266
21
-100.311
0
LINE
8
BLACK
6
CONTINUOUS
10
60.6266
20
-100.311
11
60.6716
21
-100.288
0
LINE
8
BLACK
6
CONTINUOUS
10
60.6716
20
-100.288
11
60.7185
21
-100.238
0
LINE
8
BLACK
6
CONTINUOUS
10
60.7185
20
-100.238
11
60.7564
21
-100.197
0
LINE
8
BLACK
6
CONTINUOUS
10
60.7564
20
-100.197
11
60.7848
21
-100.161
0
LINE
8
BLACK
6
CONTINUOUS
10
59.9524
20
-99.61
11
59.9462
21
-99.6486
0
LINE
8
BLACK
6
CONTINUOUS
10
59.9462
20
-99.6486
11
59.9524
21
-99.75
0
LINE
8
BLACK
6
CONTINUOUS
10
59.9524
20
-99.75
11
59.9562
21
-99.7613
0
LINE
8
BLACK
6
CONTINUOUS
10
59.9562
20
-99.7613
11
59.9665
21
-99.7528
0
LINE
8
BLACK
6
CONTINUOUS
10
59.9665
20
-99.7528
11
59.9707
21
-99.68
0
LINE
8
BLACK
6
CONTINUOUS
10
59.9707
20
-99.68
11
59.9703
21
-99.6529
0
LINE
8
BLACK
6
CONTINUOUS
10
59.9703
20
-99.6529
11
59.964
21
-99.5975
0
LINE
8
BLACK
6
CONTINUOUS
10
59.964
20
-99.5975
11
59.9524
21
-99.61
0
LINE
8
BLACK
6
CONTINUOUS
10
60.0327
20
-99.4725
11
60.0263
21
-99.4956
0
LINE
8
BLACK
6
CONTINUOUS
10
60.0263
20
-99.4956
11
60.0358
21
-99.5492
0
LINE
8
BLACK
6
CONTINUOUS
10
60.0358
20
-99.5492
11
60.0495
21
-99.5485
0
LINE
8
BLACK
6
CONTINUOUS
10
60.0495
20
-99.5485
11
60.0568
21
-99.4967
0
LINE
8
BLACK
6
CONTINUOUS
10
60.0568
20
-99.4967
11
60.0504
21
-99.4573
0
LINE
8
BLACK
6
CONTINUOUS
10
60.0504
20
-99.4573
11
60.0327
21
-99.4725
0
LINE
8
BLACK
6
CONTINUOUS
10
60.34
20
-99.34
11
60.36
21
-99.36
0
LINE
8
BLACK
6
CONTINUOUS
10
60.36
20
-99.36
11
60.38
21
-99.34
0
LINE
8
BLACK
6
CONTINUOUS
10
60.38
20
-99.34
11
60.36
21
-99.32
0
LINE
8
BLACK
6
CONTINUOUS
10
60.36
20
-99.32
11
60.34
21
-99.34
0
LINE
8
BLACK
6
CONTINUOUS
10
60.3768
20
-99.1767
11
60.3704
21
-99.1373
0
LINE
8
BLACK
6
CONTINUOUS
10
60.3704
20
-99.1373
11
60.3527
21
-99.1525
0
LINE
8
BLACK
6
CONTINUOUS
10
60.3527
20
-99.1525
11
60.3463
21
-99.1756
0
LINE
8
BLACK
6
CONTINUOUS
10
60.3463
20
-99.1756
11
60.3558
21
-99.2292
0
LINE
8
BLACK
6
CONTINUOUS
10
60.3558
20
-99.2292
11
60.36
21
-99.229
0
LINE
8
BLACK
6
CONTINUOUS
10
60.36
20
-99.229
11
60.3695
21
-99.2285
0
LINE
8
BLACK
6
CONTINUOUS
10
60.3695
20
-99.2285
11
60.3768
21
-99.1767
0
LINE
8
BLACK
6
CONTINUOUS
10
60.3885
20
-99.0192
11
60.3933
21
-99.0667
0
LINE
8
BLACK
6
CONTINUOUS
10
60.3933
20
-99.0667
11
60.4054
21
-99.0729
0
LINE
8
BLACK
6
CONTINUOUS
10
60.4054
20
-99.0729
11
60.42
21
-99.04
0
LINE
8
BLACK
6
CONTINUOUS
10
60.42
20
-99.04
11
60.4171
21
-99.0188
0
LINE
8
BLACK
6
CONTINUOUS
10
60.4171
20
-99.0188
11
60.3933
21
-99.0133
0
LINE
8
BLACK
6
CONTINUOUS
10
60.3933
20
-99.0133
11
60.3885
21
-99.0192
0
LINE
8
BLACK
6
CONTINUOUS
10
61.4551
20
-98.99
11
61.4097
21
-99.048
0
LINE
8
BLACK
6
CONTINUOUS
10
61.4097
20
-99.048
11
61.3439
21
-99.0806
0
LINE
8
BLACK
6
CONTINUOUS
10
61.3439
20
-99.0806
11
61.3393
21
-99.0807
0
LINE
8
BLACK
6
CONTINUOUS
10
61.3393
20
-99.0807
11
61.302
21
-99.0882
0
LINE
8
BLACK
6
CONTINUOUS
10
61.302
20
-99.0882
11
61.3382
21
-99.118
0
LINE
8
BLACK
6
CONTINUOUS
10
61.3382
20
-99.118
11
61.3589
21
-99.1333
0
LINE
8
BLACK
6
CONTINUOUS
10
61.3589
20
-99.1333
11
61.3753
21
-99.1767
0
LINE
8
BLACK
6
CONTINUOUS
10
61.3753
20
-99.1767
11
61.3434
21
-99.2536
0
LINE
8
BLACK
6
CONTINUOUS
10
61.3434
20
-99.2536
11
61.3148
21
-99.332
0
LINE
8
BLACK
6
CONTINUOUS
10
61.3148
20
-99.332
11
61.3176
21
-99.3962
0
LINE
8
BLACK
6
CONTINUOUS
10
61.3176
20
-99.3962
11
61.3229
21
-99.4192
0
LINE
8
BLACK
6
CONTINUOUS
10
61.3229
20
-99.4192
11
61.2824
21
-99.44
0
LINE
8
BLACK
6
CONTINUOUS
10
61.2824
20
-99.44
11
61.2796
21
-99.44
0
LINE
8
BLACK
6
CONTINUOUS
10
61.2796
20
-99.44
11
61.2284
21
-99.4682
0
LINE
8
BLACK
6
CONTINUOUS
10
61.2284
20
-99.4682
11
61.2284
21
-99.5304
0
LINE
8
BLACK
6
CONTINUOUS
10
61.2284
20
-99.5304
11
61.28
21
-99.6
0
LINE
8
BLACK
6
CONTINUOUS
10
61.28
20
-99.6
11
61.2853
21
-99.6049
0
LINE
8
BLACK
6
CONTINUOUS
10
61.2853
20
-99.6049
11
61.3245
21
-99.6853
0
LINE
8
BLACK
6
CONTINUOUS
10
61.3245
20
-99.6853
11
61.34
21
-99.8039
0
LINE
8
BLACK
6
CONTINUOUS
10
61.34
20
-99.8039
11
61.3359
21
-99.8817
0
LINE
8
BLACK
6
CONTINUOUS
10
61.3359
20
-99.8817
11
61.3053
21
-99.9606
0
LINE
8
BLACK
6
CONTINUOUS
10
61.3053
20
-99.9606
11
61.23
21
-100.016
0
LINE
8
BLACK
6
CONTINUOUS
10
61.23
20
-100.016
11
61.1484
21
-100.07
0
LINE
8
BLACK
6
CONTINUOUS
10
61.1484
20
-100.07
11
61.0476
21
-100.154
0
LINE
8
BLACK
6
CONTINUOUS
10
61.0476
20
-100.154
11
60.9487
21
-100.251
0
LINE
8
BLACK
6
CONTINUOUS
10
60.9487
20
-100.251
11
60.8668
21
-100.344
0
LINE
8
BLACK
6
CONTINUOUS
10
60.8668
20
-100.344
11
60.8166
21
-100.418
0
LINE
8
BLACK
6
CONTINUOUS
10
60.8166
20
-100.418
11
60.8131
21
-100.456
0
LINE
8
BLACK
6
CONTINUOUS
10
60.8131
20
-100.456
11
60.8359
21
-100.499
0
LINE
8
BLACK
6
CONTINUOUS
10
60.8359
20
-100.499
11
60.8611
21
-100.601
0
LINE
8
BLACK
6
CONTINUOUS
10
60.8611
20
-100.601
11
60.8812
21
-100.738
0
LINE
8
BLACK
6
CONTINUOUS
10
60.8812
20
-100.738
11
60.8903
21
-100.812
0
LINE
8
BLACK
6
CONTINUOUS
10
60.8903
20
-100.812
11
60.9179
21
-100.939
0
LINE
8
BLACK
6
CONTINUOUS
10
60.9179
20
-100.939
11
60.9675
21
-101.036
0
LINE
8
BLACK
6
CONTINUOUS
10
60.9675
20
-101.036
11
61.0523
21
-101.118
0
LINE
8
BLACK
6
CONTINUOUS
10
61.0523
20
-101.118
11
61.1854
21
-101.2
0
LINE
8
BLACK
6
CONTINUOUS
10
61.1854
20
-101.2
11
61.38
21
-101.296
0
LINE
8
BLACK
6
CONTINUOUS
10
61.38
20
-101.296
11
61.4461
21
-101.325
0
LINE
8
BLACK
6
CONTINUOUS
10
61.4461
20
-101.325
11
61.6187
21
-101.385
0
LINE
8
BLACK
6
CONTINUOUS
10
61.6187
20
-101.385
11
61.8233
21
-101.445
0
LINE
8
BLACK
6
CONTINUOUS
10
61.8233
20
-101.445
11
62.0418
21
-101.499
0
LINE
8
BLACK
6
CONTINUOUS
10
62.0418
20
-101.499
11
62.2562
21
-101.543
0
LINE
8
BLACK
6
CONTINUOUS
10
62.2562
20
-101.543
11
62.4486
21
-101.574
0
LINE
8
BLACK
6
CONTINUOUS
10
62.4486
20
-101.574
11
62.6009
21
-101.588
0
LINE
8
BLACK
6
CONTINUOUS
10
62.6009
20
-101.588
11
62.6953
21
-101.581
0
LINE
8
BLACK
6
CONTINUOUS
10
62.6953
20
-101.581
11
62.7545
21
-101.541
0
LINE
8
BLACK
6
CONTINUOUS
10
62.7545
20
-101.541
11
62.8139
21
-101.457
0
LINE
8
BLACK
6
CONTINUOUS
10
62.8139
20
-101.457
11
62.835
21
-101.4
0
LINE
8
BLACK
6
CONTINUOUS
10
62.835
20
-101.4
11
62.8577
21
-101.279
0
LINE
8
BLACK
6
CONTINUOUS
10
62.8577
20
-101.279
11
62.8588
21
-101.163
0
LINE
8
BLACK
6
CONTINUOUS
10
62.8588
20
-101.163
11
62.8393
21
-101.075
0
LINE
8
BLACK
6
CONTINUOUS
10
62.8393
20
-101.075
11
62.8
21
-101.04
0
LINE
8
BLACK
6
CONTINUOUS
10
62.8
20
-101.04
11
62.77
21
-101.031
0
LINE
8
BLACK
6
CONTINUOUS
10
62.77
20
-101.031
11
62.74
21
-100.975
0
LINE
8
BLACK
6
CONTINUOUS
10
62.74
20
-100.975
11
62.7394
21
-100.963
0
LINE
8
BLACK
6
CONTINUOUS
10
62.7394
20
-100.963
11
62.7118
21
-100.928
0
LINE
8
BLACK
6
CONTINUOUS
10
62.7118
20
-100.928
11
62.63
21
-100.933
0
LINE
8
BLACK
6
CONTINUOUS
10
62.63
20
-100.933
11
62.5222
21
-100.951
0
LINE
8
BLACK
6
CONTINUOUS
10
62.5222
20
-100.951
11
62.3689
21
-100.971
0
LINE
8
BLACK
6
CONTINUOUS
10
62.3689
20
-100.971
11
62.1895
21
-100.99
0
LINE
8
BLACK
6
CONTINUOUS
10
62.1895
20
-100.99
11
62.0017
21
-101.008
0
LINE
8
BLACK
6
CONTINUOUS
10
62.0017
20
-101.008
11
61.823
21
-101.022
0
LINE
8
BLACK
6
CONTINUOUS
10
61.823
20
-101.022
11
61.6711
21
-101.032
0
LINE
8
BLACK
6
CONTINUOUS
10
61.6711
20
-101.032
11
61.5634
21
-101.036
0
LINE
8
BLACK
6
CONTINUOUS
10
61.5634
20
-101.036
11
61.5177
21
-101.031
0
LINE
8
BLACK
6
CONTINUOUS
10
61.5177
20
-101.031
11
61.4807
21
-100.959
0
LINE
8
BLACK
6
CONTINUOUS
10
61.4807
20
-100.959
11
61.4476
21
-100.818
0
LINE
8
BLACK
6
CONTINUOUS
10
61.4476
20
-100.818
11
61.4222
21
-100.623
0
LINE
8
BLACK
6
CONTINUOUS
10
61.4222
20
-100.623
11
61.4048
21
-100.39
0
LINE
8
BLACK
6
CONTINUOUS
10
61.4048
20
-100.39
11
61.3956
21
-100.133
0
LINE
8
BLACK
6
CONTINUOUS
10
61.3956
20
-100.133
11
61.3949
21
-99.8649
0
LINE
8
BLACK
6
CONTINUOUS
10
61.3949
20
-99.8649
11
61.403
21
-99.6008
0
LINE
8
BLACK
6
CONTINUOUS
10
61.403
20
-99.6008
11
61.42
21
-99.3545
0
LINE
8
BLACK
6
CONTINUOUS
10
61.42
20
-99.3545
11
61.4462
21
-99.1401
0
LINE
8
BLACK
6
CONTINUOUS
10
61.4462
20
-99.1401
11
61.4819
21
-98.9717
0
LINE
8
BLACK
6
CONTINUOUS
10
61.4819
20
-98.9717
11
61.4826
21
-98.9474
0
LINE
8
BLACK
6
CONTINUOUS
10
61.4826
20
-98.9474
11
61.4551
21
-98.99
0
LINE
8
BLACK
6
CONTINUOUS
10
61.9471
20
-98.7278
11
61.9185
21
-98.7731
0
LINE
8
BLACK
6
CONTINUOUS
10
61.9185
20
-98.7731
11
61.9393
21
-98.8196
0
LINE
8
BLACK
6
CONTINUOUS
10
61.9393
20
-98.8196
11
61.9508
21
-98.8283
0
LINE
8
BLACK
6
CONTINUOUS
10
61.9508
20
-98.8283
11
61.98
21
-98.8851
0
LINE
8
BLACK
6
CONTINUOUS
10
61.98
20
-98.8851
11
61.9783
21
-98.8907
0
LINE
8
BLACK
6
CONTINUOUS
10
61.9783
20
-98.8907
11
61.939
21
-98.8866
0
LINE
8
BLACK
6
CONTINUOUS
10
61.939
20
-98.8866
11
61.8638
21
-98.8427
0
LINE
8
BLACK
6
CONTINUOUS
10
61.8638
20
-98.8427
11
61.8419
21
-98.8275
0
LINE
8
BLACK
6
CONTINUOUS
10
61.8419
20
-98.8275
11
61.7374
21
-98.77
0
LINE
8
BLACK
6
CONTINUOUS
10
61.7374
20
-98.77
11
61.6785
21
-98.7734
0
LINE
8
BLACK
6
CONTINUOUS
10
61.6785
20
-98.7734
11
61.66
21
-98.8375
0
LINE
8
BLACK
6
CONTINUOUS
10
61.66
20
-98.8375
11
61.6701
21
-98.8802
0
LINE
8
BLACK
6
CONTINUOUS
10
61.6701
20
-98.8802
11
61.7229
21
-98.9168
0
LINE
8
BLACK
6
CONTINUOUS
10
61.7229
20
-98.9168
11
61.8375
21
-98.9417
0
LINE
8
BLACK
6
CONTINUOUS
10
61.8375
20
-98.9417
11
61.887
21
-98.9484
0
LINE
8
BLACK
6
CONTINUOUS
10
61.887
20
-98.9484
11
61.9917
21
-98.9573
0
LINE
8
BLACK
6
CONTINUOUS
10
61.9917
20
-98.9573
11
62.0494
21
-98.9542
0
LINE
8
BLACK
6
CONTINUOUS
10
62.0494
20
-98.9542
11
62.0532
21
-98.9517
0
LINE
8
BLACK
6
CONTINUOUS
10
62.0532
20
-98.9517
11
62.0601
21
-98.9033
0
LINE
8
BLACK
6
CONTINUOUS
10
62.0601
20
-98.9033
11
62.0418
21
-98.825
0
LINE
8
BLACK
6
CONTINUOUS
10
62.0418
20
-98.825
11
62.0096
21
-98.7521
0
LINE
8
BLACK
6
CONTINUOUS
10
62.0096
20
-98.7521
11
61.9746
21
-98.72
0
LINE
8
BLACK
6
CONTINUOUS
10
61.9746
20
-98.72
11
61.9471
21
-98.7278
0
LINE
8
BLACK
6
CONTINUOUS
10
62.4842
20
-98.72
11
62.4447
21
-98.81
0
LINE
8
BLACK
6
CONTINUOUS
10
62.4447
20
-98.81
11
62.4255
21
-98.92
0
LINE
8
BLACK
6
CONTINUOUS
10
62.4255
20
-98.92
11
62.4286
21
-98.9775
0
LINE
8
BLACK
6
CONTINUOUS
10
62.4286
20
-98.9775
11
62.4378
21
-98.9758
0
LINE
8
BLACK
6
CONTINUOUS
10
62.4378
20
-98.9758
11
62.4591
21
-98.9
0
LINE
8
BLACK
6
CONTINUOUS
10
62.4591
20
-98.9
11
62.4872
21
-98.7985
0
LINE
8
BLACK
6
CONTINUOUS
10
62.4872
20
-98.7985
11
62.5178
21
-98.7
0
LINE
8
BLACK
6
CONTINUOUS
10
62.5178
20
-98.7
11
62.5227
21
-98.6851
0
LINE
8
BLACK
6
CONTINUOUS
10
62.5227
20
-98.6851
11
62.5211
21
-98.6668
0
LINE
8
BLACK
6
CONTINUOUS
10
62.5211
20
-98.6668
11
62.4842
21
-98.72
0
LINE
8
BLACK
6
CONTINUOUS
10
62.3526
20
-98.6698
11
62.2937
21
-98.7324
0
LINE
8
BLACK
6
CONTINUOUS
10
62.2937
20
-98.7324
11
62.2842
21
-98.7428
0
LINE
8
BLACK
6
CONTINUOUS
10
62.2842
20
-98.7428
11
62.2192
21
-98.8067
0
LINE
8
BLACK
6
CONTINUOUS
10
62.2192
20
-98.8067
11
62.1858
21
-98.8152
0
LINE
8
BLACK
6
CONTINUOUS
10
62.1858
20
-98.8152
11
62.1665
21
-98.774
0
LINE
8
BLACK
6
CONTINUOUS
10
62.1665
20
-98.774
11
62.1647
21
-98.7679
0
LINE
8
BLACK
6
CONTINUOUS
10
62.1647
20
-98.7679
11
62.1535
21
-98.7571
0
LINE
8
BLACK
6
CONTINUOUS
10
62.1535
20
-98.7571
11
62.1528
21
-98.8157
0
LINE
8
BLACK
6
CONTINUOUS
10
62.1528
20
-98.8157
11
62.1743
21
-98.9017
0
LINE
8
BLACK
6
CONTINUOUS
10
62.1743
20
-98.9017
11
62.25
21
-98.9644
0
LINE
8
BLACK
6
CONTINUOUS
10
62.25
20
-98.9644
11
62.2601
21
-98.968
0
LINE
8
BLACK
6
CONTINUOUS
10
62.2601
20
-98.968
11
62.3136
21
-98.9778
0
LINE
8
BLACK
6
CONTINUOUS
10
62.3136
20
-98.9778
11
62.3357
21
-98.9433
0
LINE
8
BLACK
6
CONTINUOUS
10
62.3357
20
-98.9433
11
62.34
21
-98.8467
0
LINE
8
BLACK
6
CONTINUOUS
10
62.34
20
-98.8467
11
62.3403
21
-98.8251
0
LINE
8
BLACK
6
CONTINUOUS
10
62.3403
20
-98.8251
11
62.3503
21
-98.7199
0
LINE
8
BLACK
6
CONTINUOUS
10
62.3503
20
-98.7199
11
62.37
21
-98.6564
0
LINE
8
BLACK
6
CONTINUOUS
10
62.37
20
-98.6564
11
62.3741
21
-98.6501
0
LINE
8
BLACK
6
CONTINUOUS
10
62.3741
20
-98.6501
11
62.3526
21
-98.6698
0
LINE
8
BLACK
6
CONTINUOUS
10
62.18
20
-98.66
11
62.2
21
-98.68
0
LINE
8
BLACK
6
CONTINUOUS
10
62.2
20
-98.68
11
62.22
21
-98.66
0
LINE
8
BLACK
6
CONTINUOUS
10
62.22
20
-98.66
11
62.2
21
-98.64
0
LINE
8
BLACK
6
CONTINUOUS
10
62.2
20
-98.64
11
62.18
21
-98.66
0
LINE
8
BLACK
6
CONTINUOUS
10
61.9
20
-101.14
11
61.88
21
-101.16
0
LINE
8
BLACK
6
CONTINUOUS
10
61.88
20
-101.16
11
61.86
21
-101.14
0
LINE
8
BLACK
6
CONTINUOUS
10
61.86
20
-101.14
11
61.88
21
-101.12
0
LINE
8
BLACK
6
CONTINUOUS
10
61.88
20
-101.12
11
61.9
21
-101.14
0
LINE
8
BLACK
6
CONTINUOUS
10
61.26
20
-100.98
11
61.24
21
-101
0
LINE
8
BLACK
6
CONTINUOUS
10
61.24
20
-101
11
61.22
21
-100.98
0
LINE
8
BLACK
6
CONTINUOUS
10
61.22
20
-100.98
11
61.24
21
-100.96
0
LINE
8
BLACK
6
CONTINUOUS
10
61.24
20
-100.96
11
61.26
21
-100.98
0
LINE
8
BLACK
6
CONTINUOUS
10
61.42
20
-100.98
11
61.4
21
-101
0
LINE
8
BLACK
6
CONTINUOUS
10
61.4
20
-101
11
61.38
21
-100.98
0
LINE
8
BLACK
6
CONTINUOUS
10
61.38
20
-100.98
11
61.4
21
-100.96
0
LINE
8
BLACK
6
CONTINUOUS
10
61.4
20
-100.96
11
61.42
21
-100.98
0
LINE
8
BLACK
6
CONTINUOUS
10
61.34
20
-100.5
11
61.32
21
-100.52
0
LINE
8
BLACK
6
CONTINUOUS
10
61.32
20
-100.52
11
61.3
21
-100.5
0
LINE
8
BLACK
6
CONTINUOUS
10
61.3
20
-100.5
11
61.32
21
-100.48
0
LINE
8
BLACK
6
CONTINUOUS
10
61.32
20
-100.48
11
61.34
21
-100.5
0
LINE
8
BLACK
6
CONTINUOUS
10
59.86
20
-100.24
11
59.8571
21
-100.261
0
LINE
8
BLACK
6
CONTINUOUS
10
59.8571
20
-100.261
11
59.8333
21
-100.267
0
LINE
8
BLACK
6
CONTINUOUS
10
59.8333
20
-100.267
11
59.8285
21
-100.261
0
LINE
8
BLACK
6
CONTINUOUS
10
59.8285
20
-100.261
11
59.8333
21
-100.213
0
LINE
8
BLACK
6
CONTINUOUS
10
59.8333
20
-100.213
11
59.8454
21
-100.207
0
LINE
8
BLACK
6
CONTINUOUS
10
59.8454
20
-100.207
11
59.86
21
-100.24
0
LINE
8
BLACK
6
CONTINUOUS
10
59.912
20
-100.108
11
59.94
21
-100.142
0
LINE
8
BLACK
6
CONTINUOUS
10
59.94
20
-100.142
11
59.939
21
-100.146
0
LINE
8
BLACK
6
CONTINUOUS
10
59.939
20
-100.146
11
59.9
21
-100.16
0
LINE
8
BLACK
6
CONTINUOUS
10
59.9
20
-100.16
11
59.889
21
-100.158
0
LINE
8
BLACK
6
CONTINUOUS
10
59.889
20
-100.158
11
59.86
21
-100.118
0
LINE
8
BLACK
6
CONTINUOUS
10
59.86
20
-100.118
11
59.8631
21
-100.103
0
LINE
8
BLACK
6
CONTINUOUS
10
59.8631
20
-100.103
11
59.9
21
-100.1
0
LINE
8
BLACK
6
CONTINUOUS
10
59.9
20
-100.1
11
59.912
21
-100.108
0
LINE
8
BLACK
6
CONTINUOUS
10
61.3368
20
-99.5367
11
61.334
21
-99.5772
0
LINE
8
BLACK
6
CONTINUOUS
10
61.334
20
-99.5772
11
61.3158
21
-99.5892
0
LINE
8
BLACK
6
CONTINUOUS
10
61.3158
20
-99.5892
11
61.3079
21
-99.575
0
LINE
8
BLACK
6
CONTINUOUS
10
61.3079
20
-99.575
11
61.3127
21
-99.5125
0
LINE
8
BLACK
6
CONTINUOUS
10
61.3127
20
-99.5125
11
61.3271
21
-99.494
0
LINE
8
BLACK
6
CONTINUOUS
10
61.3271
20
-99.494
11
61.3368
21
-99.5367
  0
ENDSEC
  0
EOF
