  0
SECTION
  2
HEADER
  9
$ANGBASE
  50
0.0
  9
$ANGDIR
  70
1
  9
$MEASUREMENT
  70
1
  0
ENDSEC
  0
SECTION
  2
TABLES
  0
TABLE
  2
LTYPE
  70
4
  0
LTYPE
  5
40F
  2
CONTINUOUS
  70
0
  3
Solid line
  72
65
  73
0
  40
0.0
  0
LTYPE
  5
410
  2
DASHDOT
 70
0
  3
Dash Dot ____ _ ____ _
 72
65
 73
4
 40
2.0
 49
1.25
 49
-0.25
 49
0.25
 49
-0.25
  0
LTYPE
  5
411
  2
DASHED
 70
0
  3
Dashed __ __ __ __ __
 72
65
 73
2
 40
0.75
 49
0.5
 49
-0.25
  0
LTYPE
  5
43B
  2
DOTTED
 70
0
  3
Dotted .  .  .  .
 72
65
 73
2
 40
0.2
 49
0.0
 49
-0.2
  0
ENDTAB
  0
TABLE
  2
STYLE
  70
4
  0
STYLE
  2
KICAD
  70
0
  40
0
  41
1
  42
1
  50
0
  71
0
  3
isocp.shx
  0
STYLE
  2
KICADB
  70
0
  40
0
  41
1
  42
1
  50
0
  71
0
  3
isocp.shx
  0
STYLE
  2
KICADI
  70
0
  40
0
  41
1
  42
1
  50
15
  71
0
  3
isocp.shx
  0
STYLE
  2
KICADBI
  70
0
  40
0
  41
1
  42
1
  50
15
  71
0
  3
isocp.shx
  0
ENDTAB
  0
TABLE
  2
LAYER
  70
1
  0
LAYER
  2
BLACK
  70
0
  62
7
  6
CONTINUOUS
  0
ENDTAB
  0
ENDSEC
  0
SECTION
  2
ENTITIES
0
LINE
8
BLACK
6
CONTINUOUS
10
132.067
20
-106.95
11
132.127
21
-106.985
0
LINE
8
BLACK
6
CONTINUOUS
10
132.127
20
-106.985
11
132.272
21
-107.027
0
LINE
8
BLACK
6
CONTINUOUS
10
132.272
20
-107.027
11
132.478
21
-107.064
0
LINE
8
BLACK
6
CONTINUOUS
10
132.478
20
-107.064
11
132.557
21
-107.077
0
LINE
8
BLACK
6
CONTINUOUS
10
132.557
20
-107.077
11
132.698
21
-107.116
0
LINE
8
BLACK
6
CONTINUOUS
10
132.698
20
-107.116
11
132.775
21
-107.169
0
LINE
8
BLACK
6
CONTINUOUS
10
132.775
20
-107.169
11
132.798
21
-107.242
0
LINE
8
BLACK
6
CONTINUOUS
10
132.798
20
-107.242
11
132.798
21
-107.25
0
LINE
8
BLACK
6
CONTINUOUS
10
132.798
20
-107.25
11
132.787
21
-107.27
0
LINE
8
BLACK
6
CONTINUOUS
10
132.787
20
-107.27
11
132.775
21
-107.293
0
LINE
8
BLACK
6
CONTINUOUS
10
132.775
20
-107.293
11
132.765
21
-107.312
0
LINE
8
BLACK
6
CONTINUOUS
10
132.765
20
-107.312
11
132.668
21
-107.349
0
LINE
8
BLACK
6
CONTINUOUS
10
132.668
20
-107.349
11
132.659
21
-107.351
0
LINE
8
BLACK
6
CONTINUOUS
10
132.659
20
-107.351
11
132.567
21
-107.368
0
LINE
8
BLACK
6
CONTINUOUS
10
132.567
20
-107.368
11
132.518
21
-107.373
0
LINE
8
BLACK
6
CONTINUOUS
10
132.518
20
-107.373
11
132.481
21
-107.369
0
LINE
8
BLACK
6
CONTINUOUS
10
132.481
20
-107.369
11
132.385
21
-107.358
0
LINE
8
BLACK
6
CONTINUOUS
10
132.385
20
-107.358
11
132.253
21
-107.343
0
LINE
8
BLACK
6
CONTINUOUS
10
132.253
20
-107.343
11
132.209
21
-107.339
0
LINE
8
BLACK
6
CONTINUOUS
10
132.209
20
-107.339
11
132.093
21
-107.329
0
LINE
8
BLACK
6
CONTINUOUS
10
132.093
20
-107.329
11
132.03
21
-107.337
0
LINE
8
BLACK
6
CONTINUOUS
10
132.03
20
-107.337
11
132.002
21
-107.368
0
LINE
8
BLACK
6
CONTINUOUS
10
132.002
20
-107.368
11
131.987
21
-107.425
0
LINE
8
BLACK
6
CONTINUOUS
10
131.987
20
-107.425
11
131.986
21
-107.429
0
LINE
8
BLACK
6
CONTINUOUS
10
131.986
20
-107.429
11
131.968
21
-107.507
0
LINE
8
BLACK
6
CONTINUOUS
10
131.968
20
-107.507
11
131.965
21
-107.517
0
LINE
8
BLACK
6
CONTINUOUS
10
131.965
20
-107.517
11
131.938
21
-107.605
0
LINE
8
BLACK
6
CONTINUOUS
10
131.938
20
-107.605
11
131.933
21
-107.628
0
LINE
8
BLACK
6
CONTINUOUS
10
131.933
20
-107.628
11
131.954
21
-107.66
0
LINE
8
BLACK
6
CONTINUOUS
10
131.954
20
-107.66
11
132.026
21
-107.687
0
LINE
8
BLACK
6
CONTINUOUS
10
132.026
20
-107.687
11
132.164
21
-107.715
0
LINE
8
BLACK
6
CONTINUOUS
10
132.164
20
-107.715
11
132.265
21
-107.735
0
LINE
8
BLACK
6
CONTINUOUS
10
132.265
20
-107.735
11
132.396
21
-107.779
0
LINE
8
BLACK
6
CONTINUOUS
10
132.396
20
-107.779
11
132.489
21
-107.85
0
LINE
8
BLACK
6
CONTINUOUS
10
132.489
20
-107.85
11
132.564
21
-107.965
0
LINE
8
BLACK
6
CONTINUOUS
10
132.564
20
-107.965
11
132.639
21
-108.14
0
LINE
8
BLACK
6
CONTINUOUS
10
132.639
20
-108.14
11
132.686
21
-108.256
0
LINE
8
BLACK
6
CONTINUOUS
10
132.686
20
-108.256
11
132.739
21
-108.372
0
LINE
8
BLACK
6
CONTINUOUS
10
132.739
20
-108.372
11
132.745
21
-108.383
0
LINE
8
BLACK
6
CONTINUOUS
10
132.745
20
-108.383
11
132.777
21
-108.44
0
LINE
8
BLACK
6
CONTINUOUS
10
132.777
20
-108.44
11
132.779
21
-108.443
0
LINE
8
BLACK
6
CONTINUOUS
10
132.779
20
-108.443
11
132.815
21
-108.52
0
LINE
8
BLACK
6
CONTINUOUS
10
132.815
20
-108.52
11
132.86
21
-108.653
0
LINE
8
BLACK
6
CONTINUOUS
10
132.86
20
-108.653
11
132.91
21
-108.824
0
LINE
8
BLACK
6
CONTINUOUS
10
132.91
20
-108.824
11
132.924
21
-108.875
0
LINE
8
BLACK
6
CONTINUOUS
10
132.924
20
-108.875
11
132.952
21
-108.984
0
LINE
8
BLACK
6
CONTINUOUS
10
132.952
20
-108.984
11
132.96
21
-109.014
0
LINE
8
BLACK
6
CONTINUOUS
10
132.96
20
-109.014
11
132.981
21
-109.1
0
LINE
8
BLACK
6
CONTINUOUS
10
132.981
20
-109.1
11
133.005
21
-109.203
0
LINE
8
BLACK
6
CONTINUOUS
10
133.005
20
-109.203
11
133.02
21
-109.274
0
LINE
8
BLACK
6
CONTINUOUS
10
133.02
20
-109.274
11
133.04
21
-109.373
0
LINE
8
BLACK
6
CONTINUOUS
10
133.04
20
-109.373
11
133.048
21
-109.421
0
LINE
8
BLACK
6
CONTINUOUS
10
133.048
20
-109.421
11
133.061
21
-109.504
0
LINE
8
BLACK
6
CONTINUOUS
10
133.061
20
-109.504
11
133.062
21
-109.578
0
LINE
8
BLACK
6
CONTINUOUS
10
133.062
20
-109.578
11
133.053
21
-109.635
0
LINE
8
BLACK
6
CONTINUOUS
10
133.053
20
-109.635
11
133.08
21
-109.672
0
LINE
8
BLACK
6
CONTINUOUS
10
133.08
20
-109.672
11
133.168
21
-109.687
0
LINE
8
BLACK
6
CONTINUOUS
10
133.168
20
-109.687
11
133.23
21
-109.697
0
LINE
8
BLACK
6
CONTINUOUS
10
133.23
20
-109.697
11
133.289
21
-109.733
0
LINE
8
BLACK
6
CONTINUOUS
10
133.289
20
-109.733
11
133.311
21
-109.817
0
LINE
8
BLACK
6
CONTINUOUS
10
133.311
20
-109.817
11
133.325
21
-109.933
0
LINE
8
BLACK
6
CONTINUOUS
10
133.325
20
-109.933
11
132.055
21
-109.907
0
LINE
8
BLACK
6
CONTINUOUS
10
132.055
20
-109.907
11
132.016
21
-109.906
0
LINE
8
BLACK
6
CONTINUOUS
10
132.016
20
-109.906
11
131.657
21
-109.899
0
LINE
8
BLACK
6
CONTINUOUS
10
131.657
20
-109.899
11
131.287
21
-109.893
0
LINE
8
BLACK
6
CONTINUOUS
10
131.287
20
-109.893
11
130.922
21
-109.888
0
LINE
8
BLACK
6
CONTINUOUS
10
130.922
20
-109.888
11
130.583
21
-109.884
0
LINE
8
BLACK
6
CONTINUOUS
10
130.583
20
-109.884
11
130.286
21
-109.881
0
LINE
8
BLACK
6
CONTINUOUS
10
130.286
20
-109.881
11
130.051
21
-109.88
0
LINE
8
BLACK
6
CONTINUOUS
10
130.051
20
-109.88
11
129.318
21
-109.88
0
LINE
8
BLACK
6
CONTINUOUS
10
129.318
20
-109.88
11
129.318
21
-109.78
0
LINE
8
BLACK
6
CONTINUOUS
10
129.318
20
-109.78
11
129.318
21
-109.761
0
LINE
8
BLACK
6
CONTINUOUS
10
129.318
20
-109.761
11
129.332
21
-109.708
0
LINE
8
BLACK
6
CONTINUOUS
10
129.332
20
-109.708
11
129.381
21
-109.685
0
LINE
8
BLACK
6
CONTINUOUS
10
129.381
20
-109.685
11
129.488
21
-109.68
0
LINE
8
BLACK
6
CONTINUOUS
10
129.488
20
-109.68
11
129.658
21
-109.68
0
LINE
8
BLACK
6
CONTINUOUS
10
129.658
20
-109.68
11
129.666
21
-109.455
0
LINE
8
BLACK
6
CONTINUOUS
10
129.666
20
-109.455
11
129.683
21
-109.257
0
LINE
8
BLACK
6
CONTINUOUS
10
129.683
20
-109.257
11
129.728
21
-109.003
0
LINE
8
BLACK
6
CONTINUOUS
10
129.728
20
-109.003
11
129.793
21
-108.738
0
LINE
8
BLACK
6
CONTINUOUS
10
129.793
20
-108.738
11
129.875
21
-108.478
0
LINE
8
BLACK
6
CONTINUOUS
10
129.875
20
-108.478
11
129.967
21
-108.237
0
LINE
8
BLACK
6
CONTINUOUS
10
129.967
20
-108.237
11
130.064
21
-108.031
0
LINE
8
BLACK
6
CONTINUOUS
10
130.064
20
-108.031
11
130.162
21
-107.874
0
LINE
8
BLACK
6
CONTINUOUS
10
130.162
20
-107.874
11
130.254
21
-107.781
0
LINE
8
BLACK
6
CONTINUOUS
10
130.254
20
-107.781
11
130.304
21
-107.759
0
LINE
8
BLACK
6
CONTINUOUS
10
130.304
20
-107.759
11
130.424
21
-107.726
0
LINE
8
BLACK
6
CONTINUOUS
10
130.424
20
-107.726
11
130.566
21
-107.702
0
LINE
8
BLACK
6
CONTINUOUS
10
130.566
20
-107.702
11
130.794
21
-107.675
0
LINE
8
BLACK
6
CONTINUOUS
10
130.794
20
-107.675
11
130.748
21
-107.567
0
LINE
8
BLACK
6
CONTINUOUS
10
130.748
20
-107.567
11
130.724
21
-107.511
0
LINE
8
BLACK
6
CONTINUOUS
10
130.724
20
-107.511
11
130.679
21
-107.438
0
LINE
8
BLACK
6
CONTINUOUS
10
130.679
20
-107.438
11
130.625
21
-107.418
0
LINE
8
BLACK
6
CONTINUOUS
10
130.625
20
-107.418
11
130.537
21
-107.435
0
LINE
8
BLACK
6
CONTINUOUS
10
130.537
20
-107.435
11
130.502
21
-107.442
0
LINE
8
BLACK
6
CONTINUOUS
10
130.502
20
-107.442
11
130.364
21
-107.437
0
LINE
8
BLACK
6
CONTINUOUS
10
130.364
20
-107.437
11
130.219
21
-107.396
0
LINE
8
BLACK
6
CONTINUOUS
10
130.219
20
-107.396
11
130.089
21
-107.329
0
LINE
8
BLACK
6
CONTINUOUS
10
130.089
20
-107.329
11
129.994
21
-107.245
0
LINE
8
BLACK
6
CONTINUOUS
10
129.994
20
-107.245
11
129.958
21
-107.156
0
LINE
8
BLACK
6
CONTINUOUS
10
129.958
20
-107.156
11
129.989
21
-107.138
0
LINE
8
BLACK
6
CONTINUOUS
10
129.989
20
-107.138
11
130.079
21
-107.111
0
LINE
8
BLACK
6
CONTINUOUS
10
130.079
20
-107.111
11
130.208
21
-107.083
0
LINE
8
BLACK
6
CONTINUOUS
10
130.208
20
-107.083
11
130.212
21
-107.082
0
LINE
8
BLACK
6
CONTINUOUS
10
130.212
20
-107.082
11
130.443
21
-107.034
0
LINE
8
BLACK
6
CONTINUOUS
10
130.443
20
-107.034
11
130.6
21
-106.988
0
LINE
8
BLACK
6
CONTINUOUS
10
130.6
20
-106.988
11
130.689
21
-106.944
0
LINE
8
BLACK
6
CONTINUOUS
10
130.689
20
-106.944
11
130.718
21
-106.899
0
LINE
8
BLACK
6
CONTINUOUS
10
130.718
20
-106.899
11
130.719
21
-106.889
0
LINE
8
BLACK
6
CONTINUOUS
10
130.719
20
-106.889
11
130.745
21
-106.812
0
LINE
8
BLACK
6
CONTINUOUS
10
130.745
20
-106.812
11
130.797
21
-106.711
0
LINE
8
BLACK
6
CONTINUOUS
10
130.797
20
-106.711
11
130.798
21
-106.709
0
LINE
8
BLACK
6
CONTINUOUS
10
130.798
20
-106.709
11
130.846
21
-106.601
0
LINE
8
BLACK
6
CONTINUOUS
10
130.846
20
-106.601
11
130.896
21
-106.447
0
LINE
8
BLACK
6
CONTINUOUS
10
130.896
20
-106.447
11
130.938
21
-106.281
0
LINE
8
BLACK
6
CONTINUOUS
10
130.938
20
-106.281
11
130.943
21
-106.254
0
LINE
8
BLACK
6
CONTINUOUS
10
130.943
20
-106.254
11
130.977
21
-106.113
0
LINE
8
BLACK
6
CONTINUOUS
10
130.977
20
-106.113
11
131.008
21
-106.009
0
LINE
8
BLACK
6
CONTINUOUS
10
131.008
20
-106.009
11
131.03
21
-105.962
0
LINE
8
BLACK
6
CONTINUOUS
10
131.03
20
-105.962
11
131.032
21
-105.96
0
LINE
8
BLACK
6
CONTINUOUS
10
131.032
20
-105.96
11
131.08
21
-105.891
0
LINE
8
BLACK
6
CONTINUOUS
10
131.08
20
-105.891
11
131.134
21
-105.766
0
LINE
8
BLACK
6
CONTINUOUS
10
131.134
20
-105.766
11
131.189
21
-105.605
0
LINE
8
BLACK
6
CONTINUOUS
10
131.189
20
-105.605
11
131.238
21
-105.432
0
LINE
8
BLACK
6
CONTINUOUS
10
131.238
20
-105.432
11
131.275
21
-105.268
0
LINE
8
BLACK
6
CONTINUOUS
10
131.275
20
-105.268
11
131.294
21
-105.133
0
LINE
8
BLACK
6
CONTINUOUS
10
131.294
20
-105.133
11
131.289
21
-105.051
0
LINE
8
BLACK
6
CONTINUOUS
10
131.289
20
-105.051
11
131.292
21
-105.019
0
LINE
8
BLACK
6
CONTINUOUS
10
131.292
20
-105.019
11
131.351
21
-105
0
LINE
8
BLACK
6
CONTINUOUS
10
131.351
20
-105
11
131.41
21
-105.023
0
LINE
8
BLACK
6
CONTINUOUS
10
131.41
20
-105.023
11
131.464
21
-105.11
0
LINE
8
BLACK
6
CONTINUOUS
10
131.464
20
-105.11
11
131.506
21
-105.268
0
LINE
8
BLACK
6
CONTINUOUS
10
131.506
20
-105.268
11
131.534
21
-105.5
0
LINE
8
BLACK
6
CONTINUOUS
10
131.534
20
-105.5
11
131.545
21
-105.601
0
LINE
8
BLACK
6
CONTINUOUS
10
131.545
20
-105.601
11
131.571
21
-105.767
0
LINE
8
BLACK
6
CONTINUOUS
10
131.571
20
-105.767
11
131.601
21
-105.9
0
LINE
8
BLACK
6
CONTINUOUS
10
131.601
20
-105.9
11
131.605
21
-105.915
0
LINE
8
BLACK
6
CONTINUOUS
10
131.605
20
-105.915
11
131.641
21
-106.067
0
LINE
8
BLACK
6
CONTINUOUS
10
131.641
20
-106.067
11
131.666
21
-106.21
0
LINE
8
BLACK
6
CONTINUOUS
10
131.666
20
-106.21
11
131.67
21
-106.237
0
LINE
8
BLACK
6
CONTINUOUS
10
131.67
20
-106.237
11
131.694
21
-106.325
0
LINE
8
BLACK
6
CONTINUOUS
10
131.694
20
-106.325
11
131.72
21
-106.36
0
LINE
8
BLACK
6
CONTINUOUS
10
131.72
20
-106.36
11
131.748
21
-106.381
0
LINE
8
BLACK
6
CONTINUOUS
10
131.748
20
-106.381
11
131.782
21
-106.45
0
LINE
8
BLACK
6
CONTINUOUS
10
131.782
20
-106.45
11
131.797
21
-106.53
0
LINE
8
BLACK
6
CONTINUOUS
10
131.797
20
-106.53
11
131.806
21
-106.558
0
LINE
8
BLACK
6
CONTINUOUS
10
131.806
20
-106.558
11
131.842
21
-106.641
0
LINE
8
BLACK
6
CONTINUOUS
10
131.842
20
-106.641
11
131.894
21
-106.745
0
LINE
8
BLACK
6
CONTINUOUS
10
131.894
20
-106.745
11
131.899
21
-106.754
0
LINE
8
BLACK
6
CONTINUOUS
10
131.899
20
-106.754
11
131.952
21
-106.845
0
LINE
8
BLACK
6
CONTINUOUS
10
131.952
20
-106.845
11
131.97
21
-106.864
0
LINE
8
BLACK
6
CONTINUOUS
10
131.97
20
-106.864
11
132.027
21
-106.927
0
LINE
8
BLACK
6
CONTINUOUS
10
132.027
20
-106.927
11
132.067
21
-106.95
0
LINE
8
BLACK
6
CONTINUOUS
10
132.508
20
-109.345
11
132.398
21
-109.326
0
LINE
8
BLACK
6
CONTINUOUS
10
132.398
20
-109.326
11
132.341
21
-109.329
0
LINE
8
BLACK
6
CONTINUOUS
10
132.341
20
-109.329
11
132.342
21
-109.338
0
LINE
8
BLACK
6
CONTINUOUS
10
132.342
20
-109.338
11
132.418
21
-109.359
0
LINE
8
BLACK
6
CONTINUOUS
10
132.418
20
-109.359
11
132.52
21
-109.387
0
LINE
8
BLACK
6
CONTINUOUS
10
132.52
20
-109.387
11
132.618
21
-109.418
0
LINE
8
BLACK
6
CONTINUOUS
10
132.618
20
-109.418
11
132.633
21
-109.423
0
LINE
8
BLACK
6
CONTINUOUS
10
132.633
20
-109.423
11
132.651
21
-109.421
0
LINE
8
BLACK
6
CONTINUOUS
10
132.651
20
-109.421
11
132.598
21
-109.384
0
LINE
8
BLACK
6
CONTINUOUS
10
132.598
20
-109.384
11
132.508
21
-109.345
0
LINE
8
BLACK
6
CONTINUOUS
10
132.586
20
-109.194
11
132.575
21
-109.184
0
LINE
8
BLACK
6
CONTINUOUS
10
132.575
20
-109.184
11
132.511
21
-109.119
0
LINE
8
BLACK
6
CONTINUOUS
10
132.511
20
-109.119
11
132.503
21
-109.086
0
LINE
8
BLACK
6
CONTINUOUS
10
132.503
20
-109.086
11
132.544
21
-109.067
0
LINE
8
BLACK
6
CONTINUOUS
10
132.544
20
-109.067
11
132.55
21
-109.065
0
LINE
8
BLACK
6
CONTINUOUS
10
132.55
20
-109.065
11
132.561
21
-109.054
0
LINE
8
BLACK
6
CONTINUOUS
10
132.561
20
-109.054
11
132.502
21
-109.053
0
LINE
8
BLACK
6
CONTINUOUS
10
132.502
20
-109.053
11
132.416
21
-109.074
0
LINE
8
BLACK
6
CONTINUOUS
10
132.416
20
-109.074
11
132.354
21
-109.15
0
LINE
8
BLACK
6
CONTINUOUS
10
132.354
20
-109.15
11
132.35
21
-109.16
0
LINE
8
BLACK
6
CONTINUOUS
10
132.35
20
-109.16
11
132.34
21
-109.214
0
LINE
8
BLACK
6
CONTINUOUS
10
132.34
20
-109.214
11
132.375
21
-109.236
0
LINE
8
BLACK
6
CONTINUOUS
10
132.375
20
-109.236
11
132.471
21
-109.24
0
LINE
8
BLACK
6
CONTINUOUS
10
132.471
20
-109.24
11
132.493
21
-109.24
0
LINE
8
BLACK
6
CONTINUOUS
10
132.493
20
-109.24
11
132.598
21
-109.25
0
LINE
8
BLACK
6
CONTINUOUS
10
132.598
20
-109.25
11
132.662
21
-109.27
0
LINE
8
BLACK
6
CONTINUOUS
10
132.662
20
-109.27
11
132.668
21
-109.274
0
LINE
8
BLACK
6
CONTINUOUS
10
132.668
20
-109.274
11
132.648
21
-109.253
0
LINE
8
BLACK
6
CONTINUOUS
10
132.648
20
-109.253
11
132.586
21
-109.194
0
LINE
8
BLACK
6
CONTINUOUS
10
132.638
20
-109.1
11
132.658
21
-109.12
0
LINE
8
BLACK
6
CONTINUOUS
10
132.658
20
-109.12
11
132.678
21
-109.1
0
LINE
8
BLACK
6
CONTINUOUS
10
132.678
20
-109.1
11
132.658
21
-109.08
0
LINE
8
BLACK
6
CONTINUOUS
10
132.658
20
-109.08
11
132.638
21
-109.1
0
LINE
8
BLACK
6
CONTINUOUS
10
131.31
20
-108.967
11
131.278
21
-109.02
0
LINE
8
BLACK
6
CONTINUOUS
10
131.278
20
-109.02
11
131.279
21
-109.037
0
LINE
8
BLACK
6
CONTINUOUS
10
131.279
20
-109.037
11
131.313
21
-109.079
0
LINE
8
BLACK
6
CONTINUOUS
10
131.313
20
-109.079
11
131.371
21
-109.053
0
LINE
8
BLACK
6
CONTINUOUS
10
131.371
20
-109.053
11
131.383
21
-109.04
0
LINE
8
BLACK
6
CONTINUOUS
10
131.383
20
-109.04
11
131.393
21
-108.984
0
LINE
8
BLACK
6
CONTINUOUS
10
131.393
20
-108.984
11
131.338
21
-108.96
0
LINE
8
BLACK
6
CONTINUOUS
10
131.338
20
-108.96
11
131.31
21
-108.967
0
LINE
8
BLACK
6
CONTINUOUS
10
132.545
20
-108.819
11
132.498
21
-108.839
0
LINE
8
BLACK
6
CONTINUOUS
10
132.498
20
-108.839
11
132.49
21
-108.851
0
LINE
8
BLACK
6
CONTINUOUS
10
132.49
20
-108.851
11
132.433
21
-108.88
0
LINE
8
BLACK
6
CONTINUOUS
10
132.433
20
-108.88
11
132.427
21
-108.878
0
LINE
8
BLACK
6
CONTINUOUS
10
132.427
20
-108.878
11
132.431
21
-108.839
0
LINE
8
BLACK
6
CONTINUOUS
10
132.431
20
-108.839
11
132.475
21
-108.764
0
LINE
8
BLACK
6
CONTINUOUS
10
132.475
20
-108.764
11
132.491
21
-108.742
0
LINE
8
BLACK
6
CONTINUOUS
10
132.491
20
-108.742
11
132.548
21
-108.637
0
LINE
8
BLACK
6
CONTINUOUS
10
132.548
20
-108.637
11
132.545
21
-108.578
0
LINE
8
BLACK
6
CONTINUOUS
10
132.545
20
-108.578
11
132.48
21
-108.56
0
LINE
8
BLACK
6
CONTINUOUS
10
132.48
20
-108.56
11
132.438
21
-108.57
0
LINE
8
BLACK
6
CONTINUOUS
10
132.438
20
-108.57
11
132.401
21
-108.623
0
LINE
8
BLACK
6
CONTINUOUS
10
132.401
20
-108.623
11
132.376
21
-108.737
0
LINE
8
BLACK
6
CONTINUOUS
10
132.376
20
-108.737
11
132.37
21
-108.787
0
LINE
8
BLACK
6
CONTINUOUS
10
132.37
20
-108.787
11
132.361
21
-108.892
0
LINE
8
BLACK
6
CONTINUOUS
10
132.361
20
-108.892
11
132.364
21
-108.949
0
LINE
8
BLACK
6
CONTINUOUS
10
132.364
20
-108.949
11
132.366
21
-108.953
0
LINE
8
BLACK
6
CONTINUOUS
10
132.366
20
-108.953
11
132.415
21
-108.96
0
LINE
8
BLACK
6
CONTINUOUS
10
132.415
20
-108.96
11
132.493
21
-108.942
0
LINE
8
BLACK
6
CONTINUOUS
10
132.493
20
-108.942
11
132.566
21
-108.91
0
LINE
8
BLACK
6
CONTINUOUS
10
132.566
20
-108.91
11
132.598
21
-108.875
0
LINE
8
BLACK
6
CONTINUOUS
10
132.598
20
-108.875
11
132.59
21
-108.847
0
LINE
8
BLACK
6
CONTINUOUS
10
132.59
20
-108.847
11
132.545
21
-108.819
0
LINE
8
BLACK
6
CONTINUOUS
10
132.27
20
-108.31
11
132.237
21
-108.244
0
LINE
8
BLACK
6
CONTINUOUS
10
132.237
20
-108.244
11
132.237
21
-108.239
0
LINE
8
BLACK
6
CONTINUOUS
10
132.237
20
-108.239
11
132.23
21
-108.202
0
LINE
8
BLACK
6
CONTINUOUS
10
132.23
20
-108.202
11
132.2
21
-108.238
0
LINE
8
BLACK
6
CONTINUOUS
10
132.2
20
-108.238
11
132.185
21
-108.259
0
LINE
8
BLACK
6
CONTINUOUS
10
132.185
20
-108.259
11
132.141
21
-108.275
0
LINE
8
BLACK
6
CONTINUOUS
10
132.141
20
-108.275
11
132.064
21
-108.243
0
LINE
8
BLACK
6
CONTINUOUS
10
132.064
20
-108.243
11
131.986
21
-108.215
0
LINE
8
BLACK
6
CONTINUOUS
10
131.986
20
-108.215
11
131.922
21
-108.218
0
LINE
8
BLACK
6
CONTINUOUS
10
131.922
20
-108.218
11
131.899
21
-108.223
0
LINE
8
BLACK
6
CONTINUOUS
10
131.899
20
-108.223
11
131.878
21
-108.182
0
LINE
8
BLACK
6
CONTINUOUS
10
131.878
20
-108.182
11
131.878
21
-108.18
0
LINE
8
BLACK
6
CONTINUOUS
10
131.878
20
-108.18
11
131.85
21
-108.128
0
LINE
8
BLACK
6
CONTINUOUS
10
131.85
20
-108.128
11
131.788
21
-108.128
0
LINE
8
BLACK
6
CONTINUOUS
10
131.788
20
-108.128
11
131.718
21
-108.18
0
LINE
8
BLACK
6
CONTINUOUS
10
131.718
20
-108.18
11
131.713
21
-108.185
0
LINE
8
BLACK
6
CONTINUOUS
10
131.713
20
-108.185
11
131.633
21
-108.225
0
LINE
8
BLACK
6
CONTINUOUS
10
131.633
20
-108.225
11
131.514
21
-108.24
0
LINE
8
BLACK
6
CONTINUOUS
10
131.514
20
-108.24
11
131.436
21
-108.236
0
LINE
8
BLACK
6
CONTINUOUS
10
131.436
20
-108.236
11
131.357
21
-108.205
0
LINE
8
BLACK
6
CONTINUOUS
10
131.357
20
-108.205
11
131.302
21
-108.13
0
LINE
8
BLACK
6
CONTINUOUS
10
131.302
20
-108.13
11
131.248
21
-108.048
0
LINE
8
BLACK
6
CONTINUOUS
10
131.248
20
-108.048
11
131.164
21
-107.948
0
LINE
8
BLACK
6
CONTINUOUS
10
131.164
20
-107.948
11
131.067
21
-107.849
0
LINE
8
BLACK
6
CONTINUOUS
10
131.067
20
-107.849
11
130.974
21
-107.767
0
LINE
8
BLACK
6
CONTINUOUS
10
130.974
20
-107.767
11
130.9
21
-107.717
0
LINE
8
BLACK
6
CONTINUOUS
10
130.9
20
-107.717
11
130.862
21
-107.713
0
LINE
8
BLACK
6
CONTINUOUS
10
130.862
20
-107.713
11
130.819
21
-107.736
0
LINE
8
BLACK
6
CONTINUOUS
10
130.819
20
-107.736
11
130.717
21
-107.761
0
LINE
8
BLACK
6
CONTINUOUS
10
130.717
20
-107.761
11
130.58
21
-107.781
0
LINE
8
BLACK
6
CONTINUOUS
10
130.58
20
-107.781
11
130.506
21
-107.79
0
LINE
8
BLACK
6
CONTINUOUS
10
130.506
20
-107.79
11
130.379
21
-107.818
0
LINE
8
BLACK
6
CONTINUOUS
10
130.379
20
-107.818
11
130.282
21
-107.868
0
LINE
8
BLACK
6
CONTINUOUS
10
130.282
20
-107.868
11
130.2
21
-107.952
0
LINE
8
BLACK
6
CONTINUOUS
10
130.2
20
-107.952
11
130.118
21
-108.085
0
LINE
8
BLACK
6
CONTINUOUS
10
130.118
20
-108.085
11
130.022
21
-108.28
0
LINE
8
BLACK
6
CONTINUOUS
10
130.022
20
-108.28
11
129.993
21
-108.346
0
LINE
8
BLACK
6
CONTINUOUS
10
129.993
20
-108.346
11
129.933
21
-108.519
0
LINE
8
BLACK
6
CONTINUOUS
10
129.933
20
-108.519
11
129.873
21
-108.723
0
LINE
8
BLACK
6
CONTINUOUS
10
129.873
20
-108.723
11
129.819
21
-108.942
0
LINE
8
BLACK
6
CONTINUOUS
10
129.819
20
-108.942
11
129.775
21
-109.156
0
LINE
8
BLACK
6
CONTINUOUS
10
129.775
20
-109.156
11
129.744
21
-109.349
0
LINE
8
BLACK
6
CONTINUOUS
10
129.744
20
-109.349
11
129.73
21
-109.501
0
LINE
8
BLACK
6
CONTINUOUS
10
129.73
20
-109.501
11
129.737
21
-109.595
0
LINE
8
BLACK
6
CONTINUOUS
10
129.737
20
-109.595
11
129.777
21
-109.655
0
LINE
8
BLACK
6
CONTINUOUS
10
129.777
20
-109.655
11
129.861
21
-109.714
0
LINE
8
BLACK
6
CONTINUOUS
10
129.861
20
-109.714
11
129.918
21
-109.735
0
LINE
8
BLACK
6
CONTINUOUS
10
129.918
20
-109.735
11
130.039
21
-109.758
0
LINE
8
BLACK
6
CONTINUOUS
10
130.039
20
-109.758
11
130.155
21
-109.759
0
LINE
8
BLACK
6
CONTINUOUS
10
130.155
20
-109.759
11
130.243
21
-109.739
0
LINE
8
BLACK
6
CONTINUOUS
10
130.243
20
-109.739
11
130.278
21
-109.7
0
LINE
8
BLACK
6
CONTINUOUS
10
130.278
20
-109.7
11
130.287
21
-109.67
0
LINE
8
BLACK
6
CONTINUOUS
10
130.287
20
-109.67
11
130.343
21
-109.64
0
LINE
8
BLACK
6
CONTINUOUS
10
130.343
20
-109.64
11
130.355
21
-109.639
0
LINE
8
BLACK
6
CONTINUOUS
10
130.355
20
-109.639
11
130.39
21
-109.612
0
LINE
8
BLACK
6
CONTINUOUS
10
130.39
20
-109.612
11
130.385
21
-109.53
0
LINE
8
BLACK
6
CONTINUOUS
10
130.385
20
-109.53
11
130.367
21
-109.422
0
LINE
8
BLACK
6
CONTINUOUS
10
130.367
20
-109.422
11
130.347
21
-109.269
0
LINE
8
BLACK
6
CONTINUOUS
10
130.347
20
-109.269
11
130.328
21
-109.089
0
LINE
8
BLACK
6
CONTINUOUS
10
130.328
20
-109.089
11
130.31
21
-108.902
0
LINE
8
BLACK
6
CONTINUOUS
10
130.31
20
-108.902
11
130.296
21
-108.723
0
LINE
8
BLACK
6
CONTINUOUS
10
130.296
20
-108.723
11
130.286
21
-108.571
0
LINE
8
BLACK
6
CONTINUOUS
10
130.286
20
-108.571
11
130.282
21
-108.463
0
LINE
8
BLACK
6
CONTINUOUS
10
130.282
20
-108.463
11
130.287
21
-108.418
0
LINE
8
BLACK
6
CONTINUOUS
10
130.287
20
-108.418
11
130.359
21
-108.381
0
LINE
8
BLACK
6
CONTINUOUS
10
130.359
20
-108.381
11
130.5
21
-108.348
0
LINE
8
BLACK
6
CONTINUOUS
10
130.5
20
-108.348
11
130.695
21
-108.322
0
LINE
8
BLACK
6
CONTINUOUS
10
130.695
20
-108.322
11
130.928
21
-108.305
0
LINE
8
BLACK
6
CONTINUOUS
10
130.928
20
-108.305
11
131.185
21
-108.296
0
LINE
8
BLACK
6
CONTINUOUS
10
131.185
20
-108.296
11
131.453
21
-108.295
0
LINE
8
BLACK
6
CONTINUOUS
10
131.453
20
-108.295
11
131.717
21
-108.303
0
LINE
8
BLACK
6
CONTINUOUS
10
131.717
20
-108.303
11
131.964
21
-108.32
0
LINE
8
BLACK
6
CONTINUOUS
10
131.964
20
-108.32
11
132.178
21
-108.346
0
LINE
8
BLACK
6
CONTINUOUS
10
132.178
20
-108.346
11
132.346
21
-108.382
0
LINE
8
BLACK
6
CONTINUOUS
10
132.346
20
-108.382
11
132.371
21
-108.383
0
LINE
8
BLACK
6
CONTINUOUS
10
132.371
20
-108.383
11
132.328
21
-108.355
0
LINE
8
BLACK
6
CONTINUOUS
10
132.328
20
-108.355
11
132.27
21
-108.31
0
LINE
8
BLACK
6
CONTINUOUS
10
130.827
20
-107.505
11
130.806
21
-107.515
0
LINE
8
BLACK
6
CONTINUOUS
10
130.806
20
-107.515
11
130.803
21
-107.54
0
LINE
8
BLACK
6
CONTINUOUS
10
130.803
20
-107.54
11
130.831
21
-107.609
0
LINE
8
BLACK
6
CONTINUOUS
10
130.831
20
-107.609
11
130.833
21
-107.611
0
LINE
8
BLACK
6
CONTINUOUS
10
130.833
20
-107.611
11
130.858
21
-107.619
0
LINE
8
BLACK
6
CONTINUOUS
10
130.858
20
-107.619
11
130.849
21
-107.557
0
LINE
8
BLACK
6
CONTINUOUS
10
130.849
20
-107.557
11
130.827
21
-107.505
0
LINE
8
BLACK
6
CONTINUOUS
10
131.157
20
-107.685
11
131.303
21
-107.752
0
LINE
8
BLACK
6
CONTINUOUS
10
131.303
20
-107.752
11
131.441
21
-107.739
0
LINE
8
BLACK
6
CONTINUOUS
10
131.441
20
-107.739
11
131.571
21
-107.647
0
LINE
8
BLACK
6
CONTINUOUS
10
131.571
20
-107.647
11
131.593
21
-107.623
0
LINE
8
BLACK
6
CONTINUOUS
10
131.593
20
-107.623
11
131.645
21
-107.55
0
LINE
8
BLACK
6
CONTINUOUS
10
131.645
20
-107.55
11
131.652
21
-107.507
0
LINE
8
BLACK
6
CONTINUOUS
10
131.652
20
-107.507
11
131.627
21
-107.488
0
LINE
8
BLACK
6
CONTINUOUS
10
131.627
20
-107.488
11
131.568
21
-107.495
0
LINE
8
BLACK
6
CONTINUOUS
10
131.568
20
-107.495
11
131.511
21
-107.58
0
LINE
8
BLACK
6
CONTINUOUS
10
131.511
20
-107.58
11
131.459
21
-107.651
0
LINE
8
BLACK
6
CONTINUOUS
10
131.459
20
-107.651
11
131.362
21
-107.677
0
LINE
8
BLACK
6
CONTINUOUS
10
131.362
20
-107.677
11
131.34
21
-107.676
0
LINE
8
BLACK
6
CONTINUOUS
10
131.34
20
-107.676
11
131.295
21
-107.667
0
LINE
8
BLACK
6
CONTINUOUS
10
131.295
20
-107.667
11
131.324
21
-107.647
0
LINE
8
BLACK
6
CONTINUOUS
10
131.324
20
-107.647
11
131.344
21
-107.628
0
LINE
8
BLACK
6
CONTINUOUS
10
131.344
20
-107.628
11
131.306
21
-107.598
0
LINE
8
BLACK
6
CONTINUOUS
10
131.306
20
-107.598
11
131.194
21
-107.557
0
LINE
8
BLACK
6
CONTINUOUS
10
131.194
20
-107.557
11
131.17
21
-107.549
0
LINE
8
BLACK
6
CONTINUOUS
10
131.17
20
-107.549
11
131.053
21
-107.52
0
LINE
8
BLACK
6
CONTINUOUS
10
131.053
20
-107.52
11
131.007
21
-107.527
0
LINE
8
BLACK
6
CONTINUOUS
10
131.007
20
-107.527
11
131.03
21
-107.572
0
LINE
8
BLACK
6
CONTINUOUS
10
131.03
20
-107.572
11
131.08
21
-107.619
0
LINE
8
BLACK
6
CONTINUOUS
10
131.08
20
-107.619
11
131.121
21
-107.656
0
LINE
8
BLACK
6
CONTINUOUS
10
131.121
20
-107.656
11
131.157
21
-107.685
0
LINE
8
BLACK
6
CONTINUOUS
10
131.349
20
-107.402
11
131.334
21
-107.42
0
LINE
8
BLACK
6
CONTINUOUS
10
131.334
20
-107.42
11
131.318
21
-107.44
0
LINE
8
BLACK
6
CONTINUOUS
10
131.318
20
-107.44
11
131.318
21
-107.449
0
LINE
8
BLACK
6
CONTINUOUS
10
131.318
20
-107.449
11
131.336
21
-107.48
0
LINE
8
BLACK
6
CONTINUOUS
10
131.336
20
-107.48
11
131.342
21
-107.478
0
LINE
8
BLACK
6
CONTINUOUS
10
131.342
20
-107.478
11
131.378
21
-107.44
0
LINE
8
BLACK
6
CONTINUOUS
10
131.378
20
-107.44
11
131.384
21
-107.425
0
LINE
8
BLACK
6
CONTINUOUS
10
131.384
20
-107.425
11
131.36
21
-107.4
0
LINE
8
BLACK
6
CONTINUOUS
10
131.36
20
-107.4
11
131.349
21
-107.402
0
LINE
8
BLACK
6
CONTINUOUS
10
130.758
20
-107.42
11
130.778
21
-107.44
0
LINE
8
BLACK
6
CONTINUOUS
10
130.778
20
-107.44
11
130.798
21
-107.42
0
LINE
8
BLACK
6
CONTINUOUS
10
130.798
20
-107.42
11
130.778
21
-107.4
0
LINE
8
BLACK
6
CONTINUOUS
10
130.778
20
-107.4
11
130.758
21
-107.42
0
LINE
8
BLACK
6
CONTINUOUS
10
132.251
20
-107.293
11
132.245
21
-107.305
0
LINE
8
BLACK
6
CONTINUOUS
10
132.245
20
-107.305
11
132.278
21
-107.32
0
LINE
8
BLACK
6
CONTINUOUS
10
132.278
20
-107.32
11
132.299
21
-107.317
0
LINE
8
BLACK
6
CONTINUOUS
10
132.299
20
-107.317
11
132.305
21
-107.293
0
LINE
8
BLACK
6
CONTINUOUS
10
132.305
20
-107.293
11
132.299
21
-107.289
0
LINE
8
BLACK
6
CONTINUOUS
10
132.299
20
-107.289
11
132.251
21
-107.293
0
LINE
8
BLACK
6
CONTINUOUS
10
132.142
20
-107.246
11
132.089
21
-107.256
0
LINE
8
BLACK
6
CONTINUOUS
10
132.089
20
-107.256
11
132.089
21
-107.26
0
LINE
8
BLACK
6
CONTINUOUS
10
132.089
20
-107.26
11
132.089
21
-107.269
0
LINE
8
BLACK
6
CONTINUOUS
10
132.089
20
-107.269
11
132.141
21
-107.277
0
LINE
8
BLACK
6
CONTINUOUS
10
132.141
20
-107.277
11
132.181
21
-107.27
0
LINE
8
BLACK
6
CONTINUOUS
10
132.181
20
-107.27
11
132.165
21
-107.253
0
LINE
8
BLACK
6
CONTINUOUS
10
132.165
20
-107.253
11
132.142
21
-107.246
0
LINE
8
BLACK
6
CONTINUOUS
10
131.958
20
-107.26
11
131.978
21
-107.28
0
LINE
8
BLACK
6
CONTINUOUS
10
131.978
20
-107.28
11
131.998
21
-107.26
0
LINE
8
BLACK
6
CONTINUOUS
10
131.998
20
-107.26
11
131.978
21
-107.24
0
LINE
8
BLACK
6
CONTINUOUS
10
131.978
20
-107.24
11
131.958
21
-107.26
0
LINE
8
BLACK
6
CONTINUOUS
10
131.822
20
-106.926
11
131.769
21
-106.936
0
LINE
8
BLACK
6
CONTINUOUS
10
131.769
20
-106.936
11
131.769
21
-106.949
0
LINE
8
BLACK
6
CONTINUOUS
10
131.769
20
-106.949
11
131.821
21
-106.957
0
LINE
8
BLACK
6
CONTINUOUS
10
131.821
20
-106.957
11
131.861
21
-106.95
0
LINE
8
BLACK
6
CONTINUOUS
10
131.861
20
-106.95
11
131.845
21
-106.933
0
LINE
8
BLACK
6
CONTINUOUS
10
131.845
20
-106.933
11
131.822
21
-106.926
0
LINE
8
BLACK
6
CONTINUOUS
10
131.669
20
-106.846
11
131.568
21
-106.852
0
LINE
8
BLACK
6
CONTINUOUS
10
131.568
20
-106.852
11
131.557
21
-106.856
0
LINE
8
BLACK
6
CONTINUOUS
10
131.557
20
-106.856
11
131.565
21
-106.867
0
LINE
8
BLACK
6
CONTINUOUS
10
131.565
20
-106.867
11
131.638
21
-106.871
0
LINE
8
BLACK
6
CONTINUOUS
10
131.638
20
-106.871
11
131.665
21
-106.87
0
LINE
8
BLACK
6
CONTINUOUS
10
131.665
20
-106.87
11
131.72
21
-106.864
0
LINE
8
BLACK
6
CONTINUOUS
10
131.72
20
-106.864
11
131.708
21
-106.852
0
LINE
8
BLACK
6
CONTINUOUS
10
131.708
20
-106.852
11
131.669
21
-106.846
0
LINE
8
BLACK
6
CONTINUOUS
10
131.157
20
-106.66
11
131.074
21
-106.665
0
LINE
8
BLACK
6
CONTINUOUS
10
131.074
20
-106.665
11
131.027
21
-106.694
0
LINE
8
BLACK
6
CONTINUOUS
10
131.027
20
-106.694
11
131.014
21
-106.766
0
LINE
8
BLACK
6
CONTINUOUS
10
131.014
20
-106.766
11
131.021
21
-106.828
0
LINE
8
BLACK
6
CONTINUOUS
10
131.021
20
-106.828
11
131.075
21
-106.904
0
LINE
8
BLACK
6
CONTINUOUS
10
131.075
20
-106.904
11
131.16
21
-106.924
0
LINE
8
BLACK
6
CONTINUOUS
10
131.16
20
-106.924
11
131.252
21
-106.877
0
LINE
8
BLACK
6
CONTINUOUS
10
131.252
20
-106.877
11
131.291
21
-106.831
0
LINE
8
BLACK
6
CONTINUOUS
10
131.291
20
-106.831
11
131.316
21
-106.745
0
LINE
8
BLACK
6
CONTINUOUS
10
131.316
20
-106.745
11
131.269
21
-106.684
0
LINE
8
BLACK
6
CONTINUOUS
10
131.269
20
-106.684
11
131.157
21
-106.66
0
LINE
8
BLACK
6
CONTINUOUS
10
130.198
20
-108.78
11
130.178
21
-108.8
0
LINE
8
BLACK
6
CONTINUOUS
10
130.178
20
-108.8
11
130.158
21
-108.78
0
LINE
8
BLACK
6
CONTINUOUS
10
130.158
20
-108.78
11
130.178
21
-108.76
0
LINE
8
BLACK
6
CONTINUOUS
10
130.178
20
-108.76
11
130.198
21
-108.78
0
LINE
8
BLACK
6
CONTINUOUS
10
130.358
20
-108.3
11
130.338
21
-108.32
0
LINE
8
BLACK
6
CONTINUOUS
10
130.338
20
-108.32
11
130.318
21
-108.3
0
LINE
8
BLACK
6
CONTINUOUS
10
130.318
20
-108.3
11
130.338
21
-108.28
0
LINE
8
BLACK
6
CONTINUOUS
10
130.338
20
-108.28
11
130.358
21
-108.3
0
LINE
8
BLACK
6
CONTINUOUS
10
130.838
20
-108.22
11
130.818
21
-108.24
0
LINE
8
BLACK
6
CONTINUOUS
10
130.818
20
-108.24
11
130.798
21
-108.22
0
LINE
8
BLACK
6
CONTINUOUS
10
130.798
20
-108.22
11
130.818
21
-108.2
0
LINE
8
BLACK
6
CONTINUOUS
10
130.818
20
-108.2
11
130.838
21
-108.22
0
LINE
8
BLACK
6
CONTINUOUS
10
131.805
20
-108.213
11
131.824
21
-108.227
0
LINE
8
BLACK
6
CONTINUOUS
10
131.824
20
-108.227
11
131.781
21
-108.237
0
LINE
8
BLACK
6
CONTINUOUS
10
131.781
20
-108.237
11
131.741
21
-108.234
0
LINE
8
BLACK
6
CONTINUOUS
10
131.741
20
-108.234
11
131.729
21
-108.216
0
LINE
8
BLACK
6
CONTINUOUS
10
131.729
20
-108.216
11
131.743
21
-108.208
0
LINE
8
BLACK
6
CONTINUOUS
10
131.743
20
-108.208
11
131.805
21
-108.213
0
LINE
8
BLACK
6
CONTINUOUS
10
130.358
20
-108.14
11
130.338
21
-108.16
0
LINE
8
BLACK
6
CONTINUOUS
10
130.338
20
-108.16
11
130.318
21
-108.14
0
LINE
8
BLACK
6
CONTINUOUS
10
130.318
20
-108.14
11
130.338
21
-108.12
0
LINE
8
BLACK
6
CONTINUOUS
10
130.338
20
-108.12
11
130.358
21
-108.14
0
LINE
8
BLACK
6
CONTINUOUS
10
131.215
20
-106.763
11
131.218
21
-106.8
0
LINE
8
BLACK
6
CONTINUOUS
10
131.218
20
-106.8
11
131.21
21
-106.812
0
LINE
8
BLACK
6
CONTINUOUS
10
131.21
20
-106.812
11
131.176
21
-106.84
0
LINE
8
BLACK
6
CONTINUOUS
10
131.176
20
-106.84
11
131.172
21
-106.839
0
LINE
8
BLACK
6
CONTINUOUS
10
131.172
20
-106.839
11
131.158
21
-106.8
0
LINE
8
BLACK
6
CONTINUOUS
10
131.158
20
-106.8
11
131.16
21
-106.789
0
LINE
8
BLACK
6
CONTINUOUS
10
131.16
20
-106.789
11
131.2
21
-106.76
0
LINE
8
BLACK
6
CONTINUOUS
10
131.2
20
-106.76
11
131.215
21
-106.763
0
LINE
8
BLACK
6
CONTINUOUS
10
131.105
20
-106.733
11
131.111
21
-106.745
0
LINE
8
BLACK
6
CONTINUOUS
10
131.111
20
-106.745
11
131.078
21
-106.76
0
LINE
8
BLACK
6
CONTINUOUS
10
131.078
20
-106.76
11
131.057
21
-106.757
0
LINE
8
BLACK
6
CONTINUOUS
10
131.057
20
-106.757
11
131.051
21
-106.733
0
LINE
8
BLACK
6
CONTINUOUS
10
131.051
20
-106.733
11
131.057
21
-106.729
0
LINE
8
BLACK
6
CONTINUOUS
10
131.057
20
-106.729
11
131.105
21
-106.733
  0
ENDSEC
  0
EOF
