M48
; DRILL file {KiCad 6.0.11+dfsg-1~bpo11+1} date Wed 27 Mar 2024 06:48:47 PM
; FORMAT={-:-/ absolute / inch / decimal}
; #@! TF.CreationDate,2024-03-27T18:48:47-04:00
; #@! TF.GenerationSoftware,Kicad,Pcbnew,6.0.11+dfsg-1~bpo11+1
; #@! TF.FileFunction,Plated,1,2,PTH
FMAT,2
INCH
; #@! TA.AperFunction,Plated,PTH,ViaDrill
T1C0.0157
; #@! TA.AperFunction,Plated,PTH,ComponentDrill
T2C0.0197
; #@! TA.AperFunction,Plated,PTH,ViaDrill
T3C0.0315
%
G90
G05
T1
X2.3031Y-3.8677
X2.3031Y-3.9071
X2.3031Y-3.9669
X2.3031Y-4.0063
X3.0675Y-4.05
X3.15Y-4.1
X3.1835Y-4.1235
X3.2112Y-4.1412
X3.23Y-4.1638
X3.2535Y-4.1864
X3.2769Y-4.2061
X3.2972Y-4.2258
X3.3278Y-4.2651
X3.35Y-4.2964
X3.3715Y-4.3191
X3.4095Y-4.2361
X3.41Y-4.1879
X3.4141Y-4.0611
X3.4396Y-4.213
X3.4521Y-4.099
X3.4647Y-4.2379
X3.467Y-4.1883
X3.5542Y-4.3026
X3.5754Y-4.2848
X3.5986Y-4.2651
X3.6227Y-4.2455
T2
X2.4016Y-3.7008
X2.4016Y-4.1732
X2.7559Y-3.31
X2.7953Y-3.937
X2.7953Y-4.0157
X2.7953Y-4.0945
X2.7953Y-4.1732
X3.0315Y-4.4882
X3.1315Y-4.4882
X3.2315Y-4.4882
X3.2677Y-3.937
X3.3465Y-3.937
X3.3465Y-4.4882
X3.4252Y-3.937
X3.4252Y-4.4882
X3.5039Y-3.937
X3.5039Y-4.4882
X3.5827Y-3.937
X3.5827Y-4.4882
X3.6614Y-3.937
X3.6614Y-4.4882
X3.7402Y-3.937
X3.7402Y-4.4882
X3.8976Y-3.937
X3.8976Y-4.0157
X3.8976Y-4.0945
X3.8976Y-4.1732
X3.8976Y-4.252
X3.8976Y-4.3307
X3.8976Y-4.4094
X3.8976Y-4.4882
T3
X2.3228Y-3.7795
X2.3228Y-4.0945
X2.4803Y-3.7795
X2.4803Y-4.0945
X2.7575Y-4.685
X2.9528Y-4.685
X3.937Y-4.685
X4.9213Y-3.88
X4.9213Y-4.685
X5.8268Y-3.88
X5.8268Y-4.685
T0
M30
