%TF.GenerationSoftware,KiCad,Pcbnew,6.0.11+dfsg-1~bpo11+1*%
%TF.CreationDate,2024-03-27T18:48:50-04:00*%
%TF.ProjectId,WIP - Prototyping Module,57495020-2d20-4507-926f-746f74797069,0.0.0*%
%TF.SameCoordinates,Original*%
%TF.FileFunction,Paste,Top*%
%TF.FilePolarity,Positive*%
%FSLAX46Y46*%
G04 Gerber Fmt 4.6, Leading zero omitted, Abs format (unit mm)*
G04 Created by KiCad (PCBNEW 6.0.11+dfsg-1~bpo11+1) date 2024-03-27 18:48:50*
%MOMM*%
%LPD*%
G01*
G04 APERTURE LIST*
G04 Aperture macros list*
%AMRoundRect*
0 Rectangle with rounded corners*
0 $1 Rounding radius*
0 $2 $3 $4 $5 $6 $7 $8 $9 X,Y pos of 4 corners*
0 Add a 4 corners polygon primitive as box body*
4,1,4,$2,$3,$4,$5,$6,$7,$8,$9,$2,$3,0*
0 Add four circle primitives for the rounded corners*
1,1,$1+$1,$2,$3*
1,1,$1+$1,$4,$5*
1,1,$1+$1,$6,$7*
1,1,$1+$1,$8,$9*
0 Add four rect primitives between the rounded corners*
20,1,$1+$1,$2,$3,$4,$5,0*
20,1,$1+$1,$4,$5,$6,$7,0*
20,1,$1+$1,$6,$7,$8,$9,0*
20,1,$1+$1,$8,$9,$2,$3,0*%
G04 Aperture macros list end*
%ADD10RoundRect,0.250000X-0.475000X0.250000X-0.475000X-0.250000X0.475000X-0.250000X0.475000X0.250000X0*%
%ADD11RoundRect,0.200000X-0.200000X-0.275000X0.200000X-0.275000X0.200000X0.275000X-0.200000X0.275000X0*%
%ADD12RoundRect,0.225000X0.225000X0.250000X-0.225000X0.250000X-0.225000X-0.250000X0.225000X-0.250000X0*%
%ADD13R,1.730000X1.190000*%
%ADD14RoundRect,0.200000X-0.275000X0.200000X-0.275000X-0.200000X0.275000X-0.200000X0.275000X0.200000X0*%
%ADD15RoundRect,0.250000X0.275000X-0.275000X0.275000X0.275000X-0.275000X0.275000X-0.275000X-0.275000X0*%
%ADD16RoundRect,0.062500X0.062500X-0.350000X0.062500X0.350000X-0.062500X0.350000X-0.062500X-0.350000X0*%
%ADD17RoundRect,0.062500X0.350000X-0.062500X0.350000X0.062500X-0.350000X0.062500X-0.350000X-0.062500X0*%
%ADD18R,2.500000X1.800000*%
G04 APERTURE END LIST*
D10*
%TO.C,C2*%
X71000000Y-109050000D03*
X71000000Y-110950000D03*
%TD*%
D11*
%TO.C,R3*%
X78931000Y-108966000D03*
X80581000Y-108966000D03*
%TD*%
D12*
%TO.C,C1*%
X87897000Y-110490000D03*
X86347000Y-110490000D03*
%TD*%
D13*
%TO.C,F1*%
X62176000Y-90350000D03*
X62176000Y-87450000D03*
%TD*%
D14*
%TO.C,R1*%
X78486000Y-101791000D03*
X78486000Y-103441000D03*
%TD*%
D11*
%TO.C,R4*%
X80455000Y-110490000D03*
X82105000Y-110490000D03*
%TD*%
D15*
%TO.C,U1*%
X86726000Y-107660000D03*
X86726000Y-106360000D03*
X88026000Y-107660000D03*
X88026000Y-106360000D03*
D16*
X86126000Y-108947500D03*
X86626000Y-108947500D03*
X87126000Y-108947500D03*
X87626000Y-108947500D03*
X88126000Y-108947500D03*
X88626000Y-108947500D03*
D17*
X89313500Y-108260000D03*
X89313500Y-107760000D03*
X89313500Y-107260000D03*
X89313500Y-106760000D03*
X89313500Y-106260000D03*
X89313500Y-105760000D03*
D16*
X88626000Y-105072500D03*
X88126000Y-105072500D03*
X87626000Y-105072500D03*
X87126000Y-105072500D03*
X86626000Y-105072500D03*
X86126000Y-105072500D03*
D17*
X85438500Y-105760000D03*
X85438500Y-106260000D03*
X85438500Y-106760000D03*
X85438500Y-107260000D03*
X85438500Y-107760000D03*
X85438500Y-108260000D03*
%TD*%
D14*
%TO.C,R2*%
X80010000Y-101791000D03*
X80010000Y-103441000D03*
%TD*%
D18*
%TO.C,D1*%
X66262000Y-84074000D03*
X62262000Y-84074000D03*
%TD*%
M02*
