%TF.GenerationSoftware,KiCad,Pcbnew,6.0.11+dfsg-1~bpo11+1*%
%TF.CreationDate,2024-03-27T18:48:50-04:00*%
%TF.ProjectId,WIP - Prototyping Module,57495020-2d20-4507-926f-746f74797069,0.0.0*%
%TF.SameCoordinates,Original*%
%TF.FileFunction,Copper,L1,Top*%
%TF.FilePolarity,Positive*%
%FSLAX46Y46*%
G04 Gerber Fmt 4.6, Leading zero omitted, Abs format (unit mm)*
G04 Created by KiCad (PCBNEW 6.0.11+dfsg-1~bpo11+1) date 2024-03-27 18:48:50*
%MOMM*%
%LPD*%
G01*
G04 APERTURE LIST*
G04 Aperture macros list*
%AMRoundRect*
0 Rectangle with rounded corners*
0 $1 Rounding radius*
0 $2 $3 $4 $5 $6 $7 $8 $9 X,Y pos of 4 corners*
0 Add a 4 corners polygon primitive as box body*
4,1,4,$2,$3,$4,$5,$6,$7,$8,$9,$2,$3,0*
0 Add four circle primitives for the rounded corners*
1,1,$1+$1,$2,$3*
1,1,$1+$1,$4,$5*
1,1,$1+$1,$6,$7*
1,1,$1+$1,$8,$9*
0 Add four rect primitives between the rounded corners*
20,1,$1+$1,$2,$3,$4,$5,0*
20,1,$1+$1,$4,$5,$6,$7,0*
20,1,$1+$1,$6,$7,$8,$9,0*
20,1,$1+$1,$8,$9,$2,$3,0*%
G04 Aperture macros list end*
%TA.AperFunction,ComponentPad*%
%ADD10RoundRect,0.330000X-0.170000X-0.170000X0.170000X-0.170000X0.170000X0.170000X-0.170000X0.170000X0*%
%TD*%
%TA.AperFunction,SMDPad,CuDef*%
%ADD11RoundRect,0.250000X-0.475000X0.250000X-0.475000X-0.250000X0.475000X-0.250000X0.475000X0.250000X0*%
%TD*%
%TA.AperFunction,SMDPad,CuDef*%
%ADD12RoundRect,0.200000X-0.200000X-0.275000X0.200000X-0.275000X0.200000X0.275000X-0.200000X0.275000X0*%
%TD*%
%TA.AperFunction,ComponentPad*%
%ADD13RoundRect,0.330000X0.170000X-0.170000X0.170000X0.170000X-0.170000X0.170000X-0.170000X-0.170000X0*%
%TD*%
%TA.AperFunction,SMDPad,CuDef*%
%ADD14RoundRect,0.225000X0.225000X0.250000X-0.225000X0.250000X-0.225000X-0.250000X0.225000X-0.250000X0*%
%TD*%
%TA.AperFunction,SMDPad,CuDef*%
%ADD15R,1.730000X1.190000*%
%TD*%
%TA.AperFunction,SMDPad,CuDef*%
%ADD16RoundRect,0.200000X-0.275000X0.200000X-0.275000X-0.200000X0.275000X-0.200000X0.275000X0.200000X0*%
%TD*%
%TA.AperFunction,SMDPad,CuDef*%
%ADD17RoundRect,0.062500X0.062500X-0.350000X0.062500X0.350000X-0.062500X0.350000X-0.062500X-0.350000X0*%
%TD*%
%TA.AperFunction,SMDPad,CuDef*%
%ADD18RoundRect,0.062500X0.350000X-0.062500X0.350000X0.062500X-0.350000X0.062500X-0.350000X-0.062500X0*%
%TD*%
%TA.AperFunction,SMDPad,CuDef*%
%ADD19R,2.600000X2.600000*%
%TD*%
%TA.AperFunction,SMDPad,CuDef*%
%ADD20R,2.500000X1.800000*%
%TD*%
%TA.AperFunction,ViaPad*%
%ADD21C,1.600000*%
%TD*%
%TA.AperFunction,ViaPad*%
%ADD22C,0.800000*%
%TD*%
%TA.AperFunction,ViaPad*%
%ADD23C,0.600000*%
%TD*%
%TA.AperFunction,ViaPad*%
%ADD24C,0.500000*%
%TD*%
%TA.AperFunction,Conductor*%
%ADD25C,0.250000*%
%TD*%
G04 APERTURE END LIST*
D10*
%TO.P,TPc1,1,1*%
%TO.N,PC1*%
X87000000Y-114000000D03*
%TD*%
D11*
%TO.P,C2,1*%
%TO.N,I2C-Vcc*%
X71000000Y-109050000D03*
%TO.P,C2,2*%
%TO.N,GND*%
X71000000Y-110950000D03*
%TD*%
D12*
%TO.P,R3,1*%
%TO.N,I2C-Vcc*%
X78931000Y-108966000D03*
%TO.P,R3,2*%
%TO.N,/ATTinyXX17/PA0*%
X80581000Y-108966000D03*
%TD*%
D10*
%TO.P,TP3,1,1*%
%TO.N,Dat0*%
X71000000Y-106000000D03*
%TD*%
%TO.P,TP1,1,1*%
%TO.N,Vsrc*%
X61000000Y-94000000D03*
%TD*%
D13*
%TO.P,TPc4,1,1*%
%TO.N,PC4*%
X93000000Y-114000000D03*
%TD*%
D14*
%TO.P,C1,1*%
%TO.N,I2C-Vcc*%
X87897000Y-110490000D03*
%TO.P,C1,2*%
%TO.N,GND*%
X86347000Y-110490000D03*
%TD*%
D10*
%TO.P,TPb4,1,1*%
%TO.N,PB4*%
X99000000Y-108000000D03*
%TD*%
D15*
%TO.P,F1,1*%
%TO.N,Vsrc*%
X62176000Y-90350000D03*
%TO.P,F1,2*%
%TO.N,/Source Power Rail/Vprot*%
X62176000Y-87450000D03*
%TD*%
D16*
%TO.P,R1,1*%
%TO.N,I2C-Vcc*%
X78486000Y-101791000D03*
%TO.P,R1,2*%
%TO.N,PB1*%
X78486000Y-103441000D03*
%TD*%
D13*
%TO.P,TPa2,1,1*%
%TO.N,PA2*%
X85000000Y-100000000D03*
%TD*%
%TO.P,TPc5,1,1*%
%TO.N,PC5*%
X95000000Y-114000000D03*
%TD*%
D12*
%TO.P,R4,1*%
%TO.N,/ATTinyXX17/PA0*%
X80455000Y-110490000D03*
%TO.P,R4,2*%
%TO.N,~{RESET}*%
X82105000Y-110490000D03*
%TD*%
D13*
%TO.P,TPa4,1,1*%
%TO.N,PA4*%
X89000000Y-100000000D03*
%TD*%
%TO.P,TP9,1,1*%
%TO.N,GND*%
X77000000Y-114000000D03*
%TD*%
D10*
%TO.P,TPb1,1,1*%
%TO.N,PB1*%
X99000000Y-102000000D03*
%TD*%
D13*
%TO.P,TPc2,1,1*%
%TO.N,PC2*%
X89000000Y-114000000D03*
%TD*%
%TO.P,TPa7,1,1*%
%TO.N,PA7*%
X95000000Y-100000000D03*
%TD*%
D17*
%TO.P,U1,1,PA2*%
%TO.N,PA2*%
X86126000Y-108947500D03*
%TO.P,U1,2,PA3*%
%TO.N,PA3*%
X86626000Y-108947500D03*
%TO.P,U1,3,GND*%
%TO.N,GND*%
X87126000Y-108947500D03*
%TO.P,U1,4,VCC*%
%TO.N,I2C-Vcc*%
X87626000Y-108947500D03*
%TO.P,U1,5,PA4*%
%TO.N,PA4*%
X88126000Y-108947500D03*
%TO.P,U1,6,PA5*%
%TO.N,PA5*%
X88626000Y-108947500D03*
D18*
%TO.P,U1,7,PA6*%
%TO.N,PA6*%
X89313500Y-108260000D03*
%TO.P,U1,8,PA7*%
%TO.N,PA7*%
X89313500Y-107760000D03*
%TO.P,U1,9,PB7*%
%TO.N,PB7*%
X89313500Y-107260000D03*
%TO.P,U1,10,PB6*%
%TO.N,PB6*%
X89313500Y-106760000D03*
%TO.P,U1,11,PB5*%
%TO.N,PB5*%
X89313500Y-106260000D03*
%TO.P,U1,12,PB4*%
%TO.N,PB4*%
X89313500Y-105760000D03*
D17*
%TO.P,U1,13,PB3*%
%TO.N,PB3*%
X88626000Y-105072500D03*
%TO.P,U1,14,PB2*%
%TO.N,PB2*%
X88126000Y-105072500D03*
%TO.P,U1,15,PB1*%
%TO.N,PB1*%
X87626000Y-105072500D03*
%TO.P,U1,16,PB0*%
%TO.N,PB0*%
X87126000Y-105072500D03*
%TO.P,U1,17,PC0*%
%TO.N,PC0*%
X86626000Y-105072500D03*
%TO.P,U1,18,PC1*%
%TO.N,PC1*%
X86126000Y-105072500D03*
D18*
%TO.P,U1,19,PC2*%
%TO.N,PC2*%
X85438500Y-105760000D03*
%TO.P,U1,20,PC3*%
%TO.N,PC3*%
X85438500Y-106260000D03*
%TO.P,U1,21,PC4*%
%TO.N,PC4*%
X85438500Y-106760000D03*
%TO.P,U1,22,PC5*%
%TO.N,PC5*%
X85438500Y-107260000D03*
%TO.P,U1,23,~{RESET}/PA0*%
%TO.N,/ATTinyXX17/PA0*%
X85438500Y-107760000D03*
%TO.P,U1,24,PA1*%
%TO.N,PA1*%
X85438500Y-108260000D03*
D19*
%TO.P,U1,25,GND*%
%TO.N,GND*%
X87376000Y-107010000D03*
%TD*%
D10*
%TO.P,TPc0,1,1*%
%TO.N,PC0*%
X85000000Y-114000000D03*
%TD*%
%TO.P,TP2,1,1*%
%TO.N,Vin*%
X70000000Y-84074000D03*
%TD*%
%TO.P,TPb5,1,1*%
%TO.N,PB5*%
X99000000Y-110000000D03*
%TD*%
%TO.P,TP7,1,1*%
%TO.N,GND*%
X61000000Y-106000000D03*
%TD*%
D13*
%TO.P,TPa0,1,1*%
%TO.N,~{RESET}*%
X82080000Y-114000000D03*
%TD*%
%TO.P,TPa6,1,1*%
%TO.N,PA6*%
X93000000Y-100000000D03*
%TD*%
%TO.P,TPa1,1,1*%
%TO.N,PA1*%
X83000000Y-100000000D03*
%TD*%
D10*
%TO.P,TPb2,1,1*%
%TO.N,PB2*%
X99000000Y-104000000D03*
%TD*%
%TO.P,TP6,1,1*%
%TO.N,PB0*%
X71000000Y-104000000D03*
%TD*%
D13*
%TO.P,TP8,1,1*%
%TO.N,I2C-Vcc*%
X79540000Y-114000000D03*
%TD*%
D16*
%TO.P,R2,1*%
%TO.N,I2C-Vcc*%
X80010000Y-101791000D03*
%TO.P,R2,2*%
%TO.N,PB0*%
X80010000Y-103441000D03*
%TD*%
D13*
%TO.P,TPa5,1,1*%
%TO.N,PA5*%
X91000000Y-100000000D03*
%TD*%
D10*
%TO.P,TPb7,1,1*%
%TO.N,PB7*%
X99000000Y-114000000D03*
%TD*%
%TO.P,TPb0,1,1*%
%TO.N,PB0*%
X99000000Y-100000000D03*
%TD*%
D20*
%TO.P,D1,1,K*%
%TO.N,Vin*%
X66262000Y-84074000D03*
%TO.P,D1,2,A*%
%TO.N,/Source Power Rail/Vprot*%
X62262000Y-84074000D03*
%TD*%
D10*
%TO.P,TPb3,1,1*%
%TO.N,PB3*%
X99000000Y-106000000D03*
%TD*%
D13*
%TO.P,TPc3,1,1*%
%TO.N,PC3*%
X91000000Y-114000000D03*
%TD*%
%TO.P,TPa3,1,1*%
%TO.N,PA3*%
X87000000Y-100000000D03*
%TD*%
D10*
%TO.P,TP4,1,1*%
%TO.N,I2C-Vcc*%
X71000000Y-100000000D03*
%TD*%
%TO.P,TP5,1,1*%
%TO.N,PB1*%
X71000000Y-102000000D03*
%TD*%
%TO.P,TPb6,1,1*%
%TO.N,PB6*%
X99000000Y-112000000D03*
%TD*%
D21*
%TO.N,GND*%
X70040000Y-119000000D03*
X75000000Y-119000000D03*
X63000000Y-104000000D03*
X148000000Y-119000000D03*
D22*
X86602225Y-107596737D03*
X87366058Y-107010000D03*
D21*
X148000000Y-98552000D03*
D22*
X88062376Y-106383869D03*
D21*
X125000000Y-98552000D03*
X100000000Y-119000000D03*
X59000000Y-104000000D03*
D22*
X86614000Y-106372094D03*
X88003499Y-107643839D03*
D21*
X125000000Y-119000000D03*
D23*
%TO.N,Dat0*%
X58500000Y-101760000D03*
D24*
%TO.N,PA4*%
X90275494Y-109286500D03*
%TO.N,PA5*%
X90816265Y-108834500D03*
%TO.N,PA6*%
X91405346Y-108334500D03*
%TO.N,PA7*%
X92017250Y-107834500D03*
%TO.N,PA1*%
X84526000Y-108334500D03*
%TO.N,PA2*%
X85090000Y-109129500D03*
%TO.N,PA3*%
X85636000Y-109704000D03*
D23*
%TO.N,PB0*%
X80010000Y-104140000D03*
X58500000Y-100760000D03*
%TO.N,PB1*%
X86719221Y-103151601D03*
X58500000Y-99240000D03*
X87682777Y-104115157D03*
X77915000Y-102870000D03*
D24*
%TO.N,PC2*%
X82043020Y-105761020D03*
%TO.N,PC3*%
X82638000Y-106334500D03*
%TO.N,PC4*%
X83232000Y-106834500D03*
%TO.N,PC5*%
X83748000Y-107334500D03*
D21*
%TO.N,Vsrc*%
X63000000Y-96000000D03*
X59000000Y-96000000D03*
D23*
%TO.N,I2C-Vcc*%
X58500000Y-98240000D03*
D24*
%TO.N,PC0*%
X80860520Y-104736520D03*
%TO.N,PC1*%
X81564520Y-105186520D03*
%TD*%
D25*
%TO.N,GND*%
X87126000Y-107260000D02*
X87376000Y-107010000D01*
X87126000Y-109711000D02*
X87126000Y-108947500D01*
X86347000Y-110490000D02*
X87126000Y-109711000D01*
X87126000Y-108947500D02*
X87126000Y-107260000D01*
%TO.N,~{RESET}*%
X82080000Y-110515000D02*
X82080000Y-114000000D01*
%TO.N,PA4*%
X88402992Y-109685000D02*
X89876994Y-109685000D01*
X89876994Y-109685000D02*
X90275494Y-109286500D01*
X88126000Y-109408008D02*
X88402992Y-109685000D01*
X88126000Y-108947500D02*
X88126000Y-109408008D01*
%TO.N,PA5*%
X90693265Y-108711500D02*
X88862000Y-108711500D01*
X90816265Y-108834500D02*
X90693265Y-108711500D01*
X88862000Y-108711500D02*
X88626000Y-108947500D01*
%TO.N,PA6*%
X89313500Y-108260000D02*
X91330846Y-108260000D01*
X91330846Y-108260000D02*
X91405346Y-108334500D01*
%TO.N,PA7*%
X89313500Y-107760000D02*
X91942750Y-107760000D01*
X91942750Y-107760000D02*
X92017250Y-107834500D01*
%TO.N,PB2*%
X88126000Y-105072500D02*
X88126000Y-104611992D01*
X88126000Y-104611992D02*
X88655992Y-104082000D01*
X88655992Y-104082000D02*
X98918000Y-104082000D01*
%TO.N,PB3*%
X88626000Y-105072500D02*
X98072500Y-105072500D01*
X99000000Y-106000000D02*
X98072500Y-105072500D01*
%TO.N,PA1*%
X84600500Y-108260000D02*
X85438500Y-108260000D01*
X84526000Y-108334500D02*
X84600500Y-108260000D01*
%TO.N,PA2*%
X85090000Y-109129500D02*
X85272000Y-108947500D01*
X85272000Y-108947500D02*
X86126000Y-108947500D01*
%TO.N,PA3*%
X86344008Y-109690000D02*
X85650000Y-109690000D01*
X86626000Y-108947500D02*
X86626000Y-109408008D01*
X86626000Y-109408008D02*
X86344008Y-109690000D01*
X85650000Y-109690000D02*
X85636000Y-109704000D01*
%TO.N,PB0*%
X95818000Y-103182000D02*
X99000000Y-100000000D01*
X87126000Y-104475596D02*
X86702202Y-104051798D01*
X87572000Y-103182000D02*
X86702202Y-104051798D01*
X87126000Y-105072500D02*
X87126000Y-104475596D01*
X88704000Y-103182000D02*
X87572000Y-103182000D01*
X80010000Y-104140000D02*
X80010000Y-103441000D01*
X88704000Y-103182000D02*
X95818000Y-103182000D01*
X86702202Y-104051798D02*
X86091404Y-103441000D01*
X86091404Y-103441000D02*
X80010000Y-103441000D01*
%TO.N,PB1*%
X79406500Y-102520500D02*
X78486000Y-103441000D01*
X87626000Y-104144000D02*
X88138000Y-103632000D01*
X88138000Y-103632000D02*
X97368000Y-103632000D01*
X86719221Y-103151601D02*
X86083620Y-102516000D01*
X77915000Y-102870000D02*
X78486000Y-103441000D01*
X86719221Y-103151601D02*
X86088120Y-102520500D01*
X86088120Y-102520500D02*
X79406500Y-102520500D01*
X86083620Y-102516000D02*
X84428000Y-102516000D01*
X87626000Y-104171934D02*
X87626000Y-105072500D01*
X87682777Y-104115157D02*
X87626000Y-104171934D01*
X84428000Y-102516000D02*
X79411000Y-102516000D01*
X97368000Y-103632000D02*
X99000000Y-102000000D01*
X87626000Y-105072500D02*
X87626000Y-104144000D01*
X79411000Y-102516000D02*
X79406500Y-102520500D01*
X85036000Y-102516000D02*
X84428000Y-102516000D01*
%TO.N,PB4*%
X96760000Y-105760000D02*
X99000000Y-108000000D01*
X89313500Y-105760000D02*
X96760000Y-105760000D01*
%TO.N,PB5*%
X89313500Y-106260000D02*
X95260000Y-106260000D01*
X95260000Y-106260000D02*
X99000000Y-110000000D01*
%TO.N,PB6*%
X89313500Y-106760000D02*
X93760000Y-106760000D01*
X93760000Y-106760000D02*
X99000000Y-112000000D01*
%TO.N,PB7*%
X92260000Y-107260000D02*
X99000000Y-114000000D01*
X89313500Y-107260000D02*
X92260000Y-107260000D01*
%TO.N,PC2*%
X82043020Y-105761020D02*
X82044040Y-105760000D01*
X82044040Y-105760000D02*
X85438500Y-105760000D01*
%TO.N,PC3*%
X82638000Y-106334500D02*
X82712500Y-106260000D01*
X82712500Y-106260000D02*
X85438500Y-106260000D01*
%TO.N,PC4*%
X83306500Y-106760000D02*
X85438500Y-106760000D01*
X83232000Y-106834500D02*
X83306500Y-106760000D01*
%TO.N,PC5*%
X83822500Y-107260000D02*
X85438500Y-107260000D01*
X83748000Y-107334500D02*
X83822500Y-107260000D01*
%TO.N,/ATTinyXX17/PA0*%
X84264000Y-107760000D02*
X83058000Y-108966000D01*
X80455000Y-109092000D02*
X80581000Y-108966000D01*
X85438500Y-107760000D02*
X84264000Y-107760000D01*
X80455000Y-110490000D02*
X80455000Y-109092000D01*
X83058000Y-108966000D02*
X80581000Y-108966000D01*
%TO.N,I2C-Vcc*%
X87626000Y-110219000D02*
X87626000Y-108947500D01*
X87897000Y-110490000D02*
X87626000Y-110219000D01*
%TO.N,PC0*%
X86626000Y-105072500D02*
X86626000Y-104611992D01*
X86626000Y-104611992D02*
X86218206Y-104204198D01*
X81392842Y-104204198D02*
X80860520Y-104736520D01*
X86218206Y-104204198D02*
X81392842Y-104204198D01*
X80860520Y-104736520D02*
X81262040Y-104335000D01*
%TO.N,PC1*%
X86011980Y-105186520D02*
X86126000Y-105072500D01*
X81564520Y-105186520D02*
X86011980Y-105186520D01*
%TD*%
%TA.AperFunction,Conductor*%
%TO.N,Vsrc*%
G36*
X62987899Y-89237360D02*
G01*
X63164132Y-89254682D01*
X63188311Y-89259482D01*
X63351850Y-89308985D01*
X63374626Y-89318398D01*
X63525409Y-89398800D01*
X63545912Y-89412464D01*
X63678164Y-89520693D01*
X63695604Y-89538078D01*
X63804248Y-89669980D01*
X63817979Y-89690443D01*
X63898856Y-89840962D01*
X63908344Y-89863713D01*
X63958368Y-90027099D01*
X63963243Y-90051259D01*
X63967493Y-90093124D01*
X63981126Y-90227438D01*
X63981769Y-90239755D01*
X63982886Y-90591338D01*
X64000086Y-96005592D01*
X63999518Y-96017957D01*
X63982649Y-96194793D01*
X63977898Y-96219053D01*
X63928609Y-96383224D01*
X63919214Y-96406083D01*
X63838813Y-96557463D01*
X63825128Y-96578056D01*
X63756276Y-96662370D01*
X63716714Y-96710815D01*
X63699272Y-96728338D01*
X63675378Y-96748036D01*
X63567016Y-96837368D01*
X63546486Y-96851148D01*
X63395487Y-96932247D01*
X63372660Y-96941753D01*
X63208730Y-96991801D01*
X63184486Y-96996666D01*
X63007740Y-97014354D01*
X62995377Y-97014980D01*
X56686398Y-97024216D01*
X51007656Y-97032529D01*
X50995296Y-97031939D01*
X50818526Y-97014773D01*
X50794279Y-97009983D01*
X50630222Y-96960430D01*
X50607371Y-96950994D01*
X50583238Y-96938126D01*
X50456146Y-96870359D01*
X50435589Y-96856650D01*
X50303018Y-96748034D01*
X50285539Y-96730583D01*
X50283165Y-96727695D01*
X50255359Y-96662370D01*
X50254500Y-96647683D01*
X50254500Y-94271583D01*
X60254335Y-94271583D01*
X60259954Y-94314267D01*
X60264192Y-94330085D01*
X60316717Y-94456892D01*
X60324903Y-94471070D01*
X60408460Y-94579962D01*
X60420040Y-94591542D01*
X60528928Y-94675095D01*
X60543111Y-94683283D01*
X60669916Y-94735808D01*
X60685733Y-94740046D01*
X60728039Y-94745615D01*
X60742221Y-94743404D01*
X60746000Y-94730246D01*
X60746000Y-94729865D01*
X61254000Y-94729865D01*
X61258044Y-94743636D01*
X61271583Y-94745665D01*
X61314267Y-94740046D01*
X61330085Y-94735808D01*
X61456892Y-94683283D01*
X61471070Y-94675097D01*
X61579962Y-94591540D01*
X61591542Y-94579960D01*
X61675095Y-94471072D01*
X61683283Y-94456889D01*
X61735808Y-94330084D01*
X61740046Y-94314267D01*
X61745615Y-94271961D01*
X61743404Y-94257779D01*
X61730246Y-94254000D01*
X61272115Y-94254000D01*
X61256876Y-94258475D01*
X61255671Y-94259865D01*
X61254000Y-94267548D01*
X61254000Y-94729865D01*
X60746000Y-94729865D01*
X60746000Y-94272115D01*
X60741525Y-94256876D01*
X60740135Y-94255671D01*
X60732452Y-94254000D01*
X60270135Y-94254000D01*
X60256364Y-94258044D01*
X60254335Y-94271583D01*
X50254500Y-94271583D01*
X50254500Y-93728039D01*
X60254385Y-93728039D01*
X60256596Y-93742221D01*
X60269754Y-93746000D01*
X60727885Y-93746000D01*
X60743124Y-93741525D01*
X60744329Y-93740135D01*
X60746000Y-93732452D01*
X60746000Y-93727885D01*
X61254000Y-93727885D01*
X61258475Y-93743124D01*
X61259865Y-93744329D01*
X61267548Y-93746000D01*
X61729865Y-93746000D01*
X61743636Y-93741956D01*
X61745665Y-93728417D01*
X61740046Y-93685733D01*
X61735808Y-93669915D01*
X61683283Y-93543108D01*
X61675097Y-93528930D01*
X61591540Y-93420038D01*
X61579960Y-93408458D01*
X61471072Y-93324905D01*
X61456889Y-93316717D01*
X61330084Y-93264192D01*
X61314267Y-93259954D01*
X61271961Y-93254385D01*
X61257779Y-93256596D01*
X61254000Y-93269754D01*
X61254000Y-93727885D01*
X60746000Y-93727885D01*
X60746000Y-93270135D01*
X60741956Y-93256364D01*
X60728417Y-93254335D01*
X60685733Y-93259954D01*
X60669915Y-93264192D01*
X60543108Y-93316717D01*
X60528930Y-93324903D01*
X60420038Y-93408460D01*
X60408458Y-93420040D01*
X60324905Y-93528928D01*
X60316717Y-93543111D01*
X60264192Y-93669916D01*
X60259954Y-93685733D01*
X60254385Y-93728039D01*
X50254500Y-93728039D01*
X50254500Y-91997476D01*
X50256921Y-91972894D01*
X50257065Y-91972170D01*
X50259486Y-91960000D01*
X50257065Y-91947830D01*
X50257065Y-91940144D01*
X50257672Y-91927793D01*
X50267609Y-91826908D01*
X50272425Y-91802691D01*
X50307649Y-91686574D01*
X50317093Y-91663774D01*
X50374292Y-91556761D01*
X50388011Y-91536230D01*
X50464981Y-91442444D01*
X50482444Y-91424981D01*
X50576230Y-91348011D01*
X50596761Y-91334292D01*
X50703774Y-91277093D01*
X50726574Y-91267649D01*
X50842691Y-91232425D01*
X50866908Y-91227609D01*
X50967793Y-91217672D01*
X50980144Y-91217065D01*
X50987830Y-91217065D01*
X51000000Y-91219486D01*
X51012897Y-91216921D01*
X51037476Y-91214500D01*
X58106524Y-91214500D01*
X58131103Y-91216921D01*
X58144000Y-91219486D01*
X58153209Y-91217654D01*
X58340854Y-91202886D01*
X58345661Y-91201732D01*
X58345667Y-91201731D01*
X58466853Y-91172637D01*
X58532860Y-91156790D01*
X58626971Y-91117808D01*
X58710718Y-91083119D01*
X58710722Y-91083117D01*
X58715292Y-91081224D01*
X58883657Y-90978050D01*
X58887412Y-90974843D01*
X58887416Y-90974840D01*
X58900309Y-90963828D01*
X61057001Y-90963828D01*
X61058209Y-90976088D01*
X61069315Y-91031931D01*
X61078633Y-91054427D01*
X61120983Y-91117808D01*
X61138192Y-91135017D01*
X61201575Y-91177368D01*
X61224066Y-91186684D01*
X61279915Y-91197793D01*
X61292170Y-91199000D01*
X61903885Y-91199000D01*
X61919124Y-91194525D01*
X61920329Y-91193135D01*
X61922000Y-91185452D01*
X61922000Y-91180884D01*
X62430000Y-91180884D01*
X62434475Y-91196123D01*
X62435865Y-91197328D01*
X62443548Y-91198999D01*
X63059828Y-91198999D01*
X63072088Y-91197791D01*
X63127931Y-91186685D01*
X63150427Y-91177367D01*
X63213808Y-91135017D01*
X63231017Y-91117808D01*
X63273368Y-91054425D01*
X63282684Y-91031934D01*
X63293793Y-90976085D01*
X63295000Y-90963830D01*
X63295000Y-90622115D01*
X63290525Y-90606876D01*
X63289135Y-90605671D01*
X63281452Y-90604000D01*
X62448115Y-90604000D01*
X62432876Y-90608475D01*
X62431671Y-90609865D01*
X62430000Y-90617548D01*
X62430000Y-91180884D01*
X61922000Y-91180884D01*
X61922000Y-90622115D01*
X61917525Y-90606876D01*
X61916135Y-90605671D01*
X61908452Y-90604000D01*
X61075116Y-90604000D01*
X61059877Y-90608475D01*
X61058672Y-90609865D01*
X61057001Y-90617548D01*
X61057001Y-90963828D01*
X58900309Y-90963828D01*
X59030052Y-90853016D01*
X59033808Y-90849808D01*
X59043230Y-90838776D01*
X59158840Y-90703416D01*
X59158843Y-90703412D01*
X59162050Y-90699657D01*
X59265224Y-90531292D01*
X59340790Y-90348860D01*
X59365655Y-90245290D01*
X59385731Y-90161667D01*
X59385732Y-90161661D01*
X59386886Y-90156854D01*
X59393101Y-90077885D01*
X61057000Y-90077885D01*
X61061475Y-90093124D01*
X61062865Y-90094329D01*
X61070548Y-90096000D01*
X61903885Y-90096000D01*
X61919124Y-90091525D01*
X61920329Y-90090135D01*
X61922000Y-90082452D01*
X61922000Y-90077885D01*
X62430000Y-90077885D01*
X62434475Y-90093124D01*
X62435865Y-90094329D01*
X62443548Y-90096000D01*
X63276884Y-90096000D01*
X63292123Y-90091525D01*
X63293328Y-90090135D01*
X63294999Y-90082452D01*
X63294999Y-89736172D01*
X63293791Y-89723912D01*
X63282685Y-89668069D01*
X63273367Y-89645573D01*
X63231017Y-89582192D01*
X63213808Y-89564983D01*
X63150425Y-89522632D01*
X63127934Y-89513316D01*
X63072085Y-89502207D01*
X63059830Y-89501000D01*
X62448115Y-89501000D01*
X62432876Y-89505475D01*
X62431671Y-89506865D01*
X62430000Y-89514548D01*
X62430000Y-90077885D01*
X61922000Y-90077885D01*
X61922000Y-89519116D01*
X61917525Y-89503877D01*
X61916135Y-89502672D01*
X61908452Y-89501001D01*
X61292172Y-89501001D01*
X61279912Y-89502209D01*
X61224069Y-89513315D01*
X61201573Y-89522633D01*
X61138192Y-89564983D01*
X61120983Y-89582192D01*
X61078632Y-89645575D01*
X61069316Y-89668066D01*
X61058207Y-89723915D01*
X61057000Y-89736170D01*
X61057000Y-90077885D01*
X59393101Y-90077885D01*
X59401654Y-89969209D01*
X59403486Y-89960000D01*
X59400921Y-89947103D01*
X59398500Y-89922524D01*
X59398500Y-89362756D01*
X59418502Y-89294635D01*
X59472158Y-89248142D01*
X59524500Y-89236756D01*
X62975574Y-89236756D01*
X62987899Y-89237360D01*
G37*
%TD.AperFunction*%
%TD*%
%TA.AperFunction,Conductor*%
%TO.N,I2C-Vcc*%
G36*
X59652000Y-99492000D02*
G01*
X58995805Y-99492000D01*
X59025120Y-99421228D01*
X59040228Y-99384754D01*
X59059285Y-99240000D01*
X59040228Y-99095246D01*
X58984355Y-98960358D01*
X58895474Y-98844526D01*
X58888924Y-98839500D01*
X58888921Y-98839497D01*
X58786196Y-98760673D01*
X58786194Y-98760672D01*
X58779643Y-98755645D01*
X58644754Y-98699772D01*
X58500000Y-98680715D01*
X58491812Y-98681793D01*
X58363432Y-98698694D01*
X58363430Y-98698695D01*
X58355246Y-98699772D01*
X58316327Y-98715893D01*
X58227986Y-98752485D01*
X58227984Y-98752486D01*
X58220358Y-98755645D01*
X58104526Y-98844526D01*
X58015645Y-98960358D01*
X57959772Y-99095246D01*
X57940715Y-99240000D01*
X57941793Y-99248188D01*
X57955138Y-99349554D01*
X57944199Y-99419703D01*
X57897071Y-99472801D01*
X57830216Y-99492000D01*
X51531079Y-99492000D01*
X51516971Y-99491208D01*
X51368543Y-99474484D01*
X51341037Y-99468206D01*
X51206784Y-99421228D01*
X51181365Y-99408987D01*
X51060918Y-99333306D01*
X51038858Y-99315713D01*
X50938287Y-99215142D01*
X50920694Y-99193082D01*
X50845013Y-99072635D01*
X50832772Y-99047216D01*
X50805048Y-98967986D01*
X50785794Y-98912963D01*
X50779516Y-98885456D01*
X50763590Y-98744107D01*
X50763590Y-98715893D01*
X50779516Y-98574544D01*
X50785795Y-98547035D01*
X50832772Y-98412784D01*
X50845013Y-98387365D01*
X50920694Y-98266918D01*
X50938287Y-98244858D01*
X51038858Y-98144287D01*
X51060918Y-98126694D01*
X51181365Y-98051013D01*
X51206784Y-98038772D01*
X51341037Y-97991794D01*
X51368543Y-97985516D01*
X51516971Y-97968792D01*
X51531079Y-97968000D01*
X59652000Y-97968000D01*
X59652000Y-99492000D01*
G37*
%TD.AperFunction*%
%TD*%
%TA.AperFunction,Conductor*%
%TO.N,I2C-Vcc*%
G36*
X99336163Y-97536607D02*
G01*
X99512740Y-97553999D01*
X99536957Y-97558815D01*
X99700809Y-97608518D01*
X99723629Y-97617971D01*
X99874631Y-97698683D01*
X99895158Y-97712399D01*
X100027521Y-97821026D01*
X100044974Y-97838479D01*
X100153601Y-97970842D01*
X100167319Y-97991372D01*
X100248029Y-98142371D01*
X100257482Y-98165190D01*
X100307185Y-98329043D01*
X100312002Y-98353263D01*
X100329393Y-98529837D01*
X100330000Y-98542187D01*
X100330000Y-115071813D01*
X100329393Y-115084163D01*
X100312002Y-115260737D01*
X100307185Y-115284957D01*
X100257482Y-115448809D01*
X100248029Y-115471629D01*
X100167319Y-115622628D01*
X100153601Y-115643158D01*
X100044974Y-115775521D01*
X100027521Y-115792974D01*
X99895158Y-115901601D01*
X99874631Y-115915317D01*
X99782417Y-115964607D01*
X99723629Y-115996029D01*
X99700810Y-116005482D01*
X99536957Y-116055185D01*
X99512740Y-116060001D01*
X99336163Y-116077393D01*
X99323813Y-116078000D01*
X77636401Y-116078000D01*
X77624051Y-116077393D01*
X77447473Y-116060001D01*
X77423256Y-116055185D01*
X77259403Y-116005482D01*
X77236584Y-115996029D01*
X77085588Y-115915320D01*
X77065050Y-115901597D01*
X76927886Y-115789029D01*
X76918725Y-115780725D01*
X74929687Y-113791687D01*
X76245500Y-113791687D01*
X76245501Y-114208312D01*
X76246039Y-114212396D01*
X76246039Y-114212402D01*
X76253900Y-114272115D01*
X76260544Y-114322585D01*
X76319440Y-114464772D01*
X76413129Y-114586871D01*
X76535228Y-114680560D01*
X76677415Y-114739456D01*
X76685603Y-114740534D01*
X76787593Y-114753961D01*
X76791687Y-114754500D01*
X76999974Y-114754500D01*
X77208312Y-114754499D01*
X77212396Y-114753961D01*
X77212402Y-114753961D01*
X77314398Y-114740534D01*
X77314400Y-114740533D01*
X77322585Y-114739456D01*
X77464772Y-114680560D01*
X77586871Y-114586871D01*
X77680560Y-114464772D01*
X77739456Y-114322585D01*
X77746121Y-114271961D01*
X77746171Y-114271583D01*
X78794335Y-114271583D01*
X78799954Y-114314267D01*
X78804192Y-114330085D01*
X78856717Y-114456892D01*
X78864903Y-114471070D01*
X78948460Y-114579962D01*
X78960040Y-114591542D01*
X79068928Y-114675095D01*
X79083111Y-114683283D01*
X79209916Y-114735808D01*
X79225733Y-114740046D01*
X79268039Y-114745615D01*
X79282221Y-114743404D01*
X79286000Y-114730246D01*
X79286000Y-114729865D01*
X79794000Y-114729865D01*
X79798044Y-114743636D01*
X79811583Y-114745665D01*
X79854267Y-114740046D01*
X79870085Y-114735808D01*
X79996892Y-114683283D01*
X80011070Y-114675097D01*
X80119962Y-114591540D01*
X80131542Y-114579960D01*
X80215095Y-114471072D01*
X80223283Y-114456889D01*
X80275808Y-114330084D01*
X80280046Y-114314267D01*
X80285615Y-114271961D01*
X80283404Y-114257779D01*
X80270246Y-114254000D01*
X79812115Y-114254000D01*
X79796876Y-114258475D01*
X79795671Y-114259865D01*
X79794000Y-114267548D01*
X79794000Y-114729865D01*
X79286000Y-114729865D01*
X79286000Y-114272115D01*
X79281525Y-114256876D01*
X79280135Y-114255671D01*
X79272452Y-114254000D01*
X78810135Y-114254000D01*
X78796364Y-114258044D01*
X78794335Y-114271583D01*
X77746171Y-114271583D01*
X77753962Y-114212400D01*
X77753962Y-114212399D01*
X77754500Y-114208313D01*
X77754499Y-113791688D01*
X77754499Y-113791687D01*
X81325500Y-113791687D01*
X81325501Y-114208312D01*
X81326039Y-114212396D01*
X81326039Y-114212402D01*
X81333900Y-114272115D01*
X81340544Y-114322585D01*
X81399440Y-114464772D01*
X81493129Y-114586871D01*
X81615228Y-114680560D01*
X81757415Y-114739456D01*
X81765603Y-114740534D01*
X81867593Y-114753961D01*
X81871687Y-114754500D01*
X82079974Y-114754500D01*
X82288312Y-114754499D01*
X82292396Y-114753961D01*
X82292402Y-114753961D01*
X82394398Y-114740534D01*
X82394400Y-114740533D01*
X82402585Y-114739456D01*
X82544772Y-114680560D01*
X82666871Y-114586871D01*
X82760560Y-114464772D01*
X82819456Y-114322585D01*
X82826121Y-114271961D01*
X82833962Y-114212400D01*
X82833962Y-114212399D01*
X82834500Y-114208313D01*
X82834499Y-113791688D01*
X82834499Y-113791687D01*
X84245500Y-113791687D01*
X84245501Y-114208312D01*
X84246039Y-114212396D01*
X84246039Y-114212402D01*
X84253900Y-114272115D01*
X84260544Y-114322585D01*
X84319440Y-114464772D01*
X84413129Y-114586871D01*
X84535228Y-114680560D01*
X84677415Y-114739456D01*
X84685603Y-114740534D01*
X84787593Y-114753961D01*
X84791687Y-114754500D01*
X84999974Y-114754500D01*
X85208312Y-114754499D01*
X85212396Y-114753961D01*
X85212402Y-114753961D01*
X85314398Y-114740534D01*
X85314400Y-114740533D01*
X85322585Y-114739456D01*
X85464772Y-114680560D01*
X85586871Y-114586871D01*
X85680560Y-114464772D01*
X85739456Y-114322585D01*
X85746121Y-114271961D01*
X85753962Y-114212400D01*
X85753962Y-114212399D01*
X85754500Y-114208313D01*
X85754499Y-113791688D01*
X85754499Y-113791687D01*
X86245500Y-113791687D01*
X86245501Y-114208312D01*
X86246039Y-114212396D01*
X86246039Y-114212402D01*
X86253900Y-114272115D01*
X86260544Y-114322585D01*
X86319440Y-114464772D01*
X86413129Y-114586871D01*
X86535228Y-114680560D01*
X86677415Y-114739456D01*
X86685603Y-114740534D01*
X86787593Y-114753961D01*
X86791687Y-114754500D01*
X86999974Y-114754500D01*
X87208312Y-114754499D01*
X87212396Y-114753961D01*
X87212402Y-114753961D01*
X87314398Y-114740534D01*
X87314400Y-114740533D01*
X87322585Y-114739456D01*
X87464772Y-114680560D01*
X87586871Y-114586871D01*
X87680560Y-114464772D01*
X87739456Y-114322585D01*
X87746121Y-114271961D01*
X87753962Y-114212400D01*
X87753962Y-114212399D01*
X87754500Y-114208313D01*
X87754499Y-113791688D01*
X87754499Y-113791687D01*
X88245500Y-113791687D01*
X88245501Y-114208312D01*
X88246039Y-114212396D01*
X88246039Y-114212402D01*
X88253900Y-114272115D01*
X88260544Y-114322585D01*
X88319440Y-114464772D01*
X88413129Y-114586871D01*
X88535228Y-114680560D01*
X88677415Y-114739456D01*
X88685603Y-114740534D01*
X88787593Y-114753961D01*
X88791687Y-114754500D01*
X88999974Y-114754500D01*
X89208312Y-114754499D01*
X89212396Y-114753961D01*
X89212402Y-114753961D01*
X89314398Y-114740534D01*
X89314400Y-114740533D01*
X89322585Y-114739456D01*
X89464772Y-114680560D01*
X89586871Y-114586871D01*
X89680560Y-114464772D01*
X89739456Y-114322585D01*
X89746121Y-114271961D01*
X89753962Y-114212400D01*
X89753962Y-114212399D01*
X89754500Y-114208313D01*
X89754499Y-113791688D01*
X89754499Y-113791687D01*
X90245500Y-113791687D01*
X90245501Y-114208312D01*
X90246039Y-114212396D01*
X90246039Y-114212402D01*
X90253900Y-114272115D01*
X90260544Y-114322585D01*
X90319440Y-114464772D01*
X90413129Y-114586871D01*
X90535228Y-114680560D01*
X90677415Y-114739456D01*
X90685603Y-114740534D01*
X90787593Y-114753961D01*
X90791687Y-114754500D01*
X90999974Y-114754500D01*
X91208312Y-114754499D01*
X91212396Y-114753961D01*
X91212402Y-114753961D01*
X91314398Y-114740534D01*
X91314400Y-114740533D01*
X91322585Y-114739456D01*
X91464772Y-114680560D01*
X91586871Y-114586871D01*
X91680560Y-114464772D01*
X91739456Y-114322585D01*
X91746121Y-114271961D01*
X91753962Y-114212400D01*
X91753962Y-114212399D01*
X91754500Y-114208313D01*
X91754499Y-113791688D01*
X91754499Y-113791687D01*
X92245500Y-113791687D01*
X92245501Y-114208312D01*
X92246039Y-114212396D01*
X92246039Y-114212402D01*
X92253900Y-114272115D01*
X92260544Y-114322585D01*
X92319440Y-114464772D01*
X92413129Y-114586871D01*
X92535228Y-114680560D01*
X92677415Y-114739456D01*
X92685603Y-114740534D01*
X92787593Y-114753961D01*
X92791687Y-114754500D01*
X92999974Y-114754500D01*
X93208312Y-114754499D01*
X93212396Y-114753961D01*
X93212402Y-114753961D01*
X93314398Y-114740534D01*
X93314400Y-114740533D01*
X93322585Y-114739456D01*
X93464772Y-114680560D01*
X93586871Y-114586871D01*
X93680560Y-114464772D01*
X93739456Y-114322585D01*
X93746121Y-114271961D01*
X93753962Y-114212400D01*
X93753962Y-114212399D01*
X93754500Y-114208313D01*
X93754499Y-113791688D01*
X93754499Y-113791687D01*
X94245500Y-113791687D01*
X94245501Y-114208312D01*
X94246039Y-114212396D01*
X94246039Y-114212402D01*
X94253900Y-114272115D01*
X94260544Y-114322585D01*
X94319440Y-114464772D01*
X94413129Y-114586871D01*
X94535228Y-114680560D01*
X94677415Y-114739456D01*
X94685603Y-114740534D01*
X94787593Y-114753961D01*
X94791687Y-114754500D01*
X94999974Y-114754500D01*
X95208312Y-114754499D01*
X95212396Y-114753961D01*
X95212402Y-114753961D01*
X95314398Y-114740534D01*
X95314400Y-114740533D01*
X95322585Y-114739456D01*
X95464772Y-114680560D01*
X95586871Y-114586871D01*
X95680560Y-114464772D01*
X95739456Y-114322585D01*
X95746121Y-114271961D01*
X95753962Y-114212400D01*
X95753962Y-114212399D01*
X95754500Y-114208313D01*
X95754499Y-113791688D01*
X95747953Y-113741956D01*
X95740534Y-113685602D01*
X95740533Y-113685600D01*
X95739456Y-113677415D01*
X95680560Y-113535228D01*
X95586871Y-113413129D01*
X95464772Y-113319440D01*
X95322585Y-113260544D01*
X95292597Y-113256596D01*
X95212400Y-113246038D01*
X95212399Y-113246038D01*
X95208313Y-113245500D01*
X95000026Y-113245500D01*
X94791688Y-113245501D01*
X94787604Y-113246039D01*
X94787598Y-113246039D01*
X94685602Y-113259466D01*
X94685600Y-113259467D01*
X94677415Y-113260544D01*
X94535228Y-113319440D01*
X94413129Y-113413129D01*
X94319440Y-113535228D01*
X94260544Y-113677415D01*
X94259466Y-113685602D01*
X94259466Y-113685603D01*
X94253830Y-113728417D01*
X94245500Y-113791687D01*
X93754499Y-113791687D01*
X93747953Y-113741956D01*
X93740534Y-113685602D01*
X93740533Y-113685600D01*
X93739456Y-113677415D01*
X93680560Y-113535228D01*
X93586871Y-113413129D01*
X93464772Y-113319440D01*
X93322585Y-113260544D01*
X93292597Y-113256596D01*
X93212400Y-113246038D01*
X93212399Y-113246038D01*
X93208313Y-113245500D01*
X93000026Y-113245500D01*
X92791688Y-113245501D01*
X92787604Y-113246039D01*
X92787598Y-113246039D01*
X92685602Y-113259466D01*
X92685600Y-113259467D01*
X92677415Y-113260544D01*
X92535228Y-113319440D01*
X92413129Y-113413129D01*
X92319440Y-113535228D01*
X92260544Y-113677415D01*
X92259466Y-113685602D01*
X92259466Y-113685603D01*
X92253830Y-113728417D01*
X92245500Y-113791687D01*
X91754499Y-113791687D01*
X91747953Y-113741956D01*
X91740534Y-113685602D01*
X91740533Y-113685600D01*
X91739456Y-113677415D01*
X91680560Y-113535228D01*
X91586871Y-113413129D01*
X91464772Y-113319440D01*
X91322585Y-113260544D01*
X91292597Y-113256596D01*
X91212400Y-113246038D01*
X91212399Y-113246038D01*
X91208313Y-113245500D01*
X91000026Y-113245500D01*
X90791688Y-113245501D01*
X90787604Y-113246039D01*
X90787598Y-113246039D01*
X90685602Y-113259466D01*
X90685600Y-113259467D01*
X90677415Y-113260544D01*
X90535228Y-113319440D01*
X90413129Y-113413129D01*
X90319440Y-113535228D01*
X90260544Y-113677415D01*
X90259466Y-113685602D01*
X90259466Y-113685603D01*
X90253830Y-113728417D01*
X90245500Y-113791687D01*
X89754499Y-113791687D01*
X89747953Y-113741956D01*
X89740534Y-113685602D01*
X89740533Y-113685600D01*
X89739456Y-113677415D01*
X89680560Y-113535228D01*
X89586871Y-113413129D01*
X89464772Y-113319440D01*
X89322585Y-113260544D01*
X89292597Y-113256596D01*
X89212400Y-113246038D01*
X89212399Y-113246038D01*
X89208313Y-113245500D01*
X89000026Y-113245500D01*
X88791688Y-113245501D01*
X88787604Y-113246039D01*
X88787598Y-113246039D01*
X88685602Y-113259466D01*
X88685600Y-113259467D01*
X88677415Y-113260544D01*
X88535228Y-113319440D01*
X88413129Y-113413129D01*
X88319440Y-113535228D01*
X88260544Y-113677415D01*
X88259466Y-113685602D01*
X88259466Y-113685603D01*
X88253830Y-113728417D01*
X88245500Y-113791687D01*
X87754499Y-113791687D01*
X87747953Y-113741956D01*
X87740534Y-113685602D01*
X87740533Y-113685600D01*
X87739456Y-113677415D01*
X87680560Y-113535228D01*
X87586871Y-113413129D01*
X87464772Y-113319440D01*
X87322585Y-113260544D01*
X87292597Y-113256596D01*
X87212400Y-113246038D01*
X87212399Y-113246038D01*
X87208313Y-113245500D01*
X87000026Y-113245500D01*
X86791688Y-113245501D01*
X86787604Y-113246039D01*
X86787598Y-113246039D01*
X86685602Y-113259466D01*
X86685600Y-113259467D01*
X86677415Y-113260544D01*
X86535228Y-113319440D01*
X86413129Y-113413129D01*
X86319440Y-113535228D01*
X86260544Y-113677415D01*
X86259466Y-113685602D01*
X86259466Y-113685603D01*
X86253830Y-113728417D01*
X86245500Y-113791687D01*
X85754499Y-113791687D01*
X85747953Y-113741956D01*
X85740534Y-113685602D01*
X85740533Y-113685600D01*
X85739456Y-113677415D01*
X85680560Y-113535228D01*
X85586871Y-113413129D01*
X85464772Y-113319440D01*
X85322585Y-113260544D01*
X85292597Y-113256596D01*
X85212400Y-113246038D01*
X85212399Y-113246038D01*
X85208313Y-113245500D01*
X85000026Y-113245500D01*
X84791688Y-113245501D01*
X84787604Y-113246039D01*
X84787598Y-113246039D01*
X84685602Y-113259466D01*
X84685600Y-113259467D01*
X84677415Y-113260544D01*
X84535228Y-113319440D01*
X84413129Y-113413129D01*
X84319440Y-113535228D01*
X84260544Y-113677415D01*
X84259466Y-113685602D01*
X84259466Y-113685603D01*
X84253830Y-113728417D01*
X84245500Y-113791687D01*
X82834499Y-113791687D01*
X82827953Y-113741956D01*
X82820534Y-113685602D01*
X82820533Y-113685600D01*
X82819456Y-113677415D01*
X82760560Y-113535228D01*
X82666871Y-113413129D01*
X82544772Y-113319440D01*
X82537140Y-113316279D01*
X82529989Y-113312150D01*
X82530655Y-113310996D01*
X82482005Y-113271795D01*
X82459500Y-113199929D01*
X82459500Y-111277556D01*
X82479502Y-111209435D01*
X82520487Y-111171766D01*
X82520076Y-111171209D01*
X82525256Y-111167383D01*
X82630010Y-111090010D01*
X82711209Y-110980076D01*
X82756493Y-110851127D01*
X82759500Y-110819315D01*
X82759499Y-110160686D01*
X82756493Y-110128873D01*
X82711209Y-109999924D01*
X82630010Y-109889990D01*
X82520076Y-109808791D01*
X82391127Y-109763507D01*
X82383485Y-109762785D01*
X82383482Y-109762784D01*
X82368579Y-109761376D01*
X82359315Y-109760500D01*
X82105172Y-109760500D01*
X81850686Y-109760501D01*
X81847738Y-109760780D01*
X81847729Y-109760780D01*
X81826522Y-109762784D01*
X81826520Y-109762784D01*
X81818873Y-109763507D01*
X81689924Y-109808791D01*
X81579990Y-109889990D01*
X81498791Y-109999924D01*
X81453507Y-110128873D01*
X81450500Y-110160685D01*
X81450501Y-110819314D01*
X81453507Y-110851127D01*
X81498791Y-110980076D01*
X81579990Y-111090010D01*
X81587561Y-111095602D01*
X81649360Y-111141248D01*
X81692270Y-111197809D01*
X81700500Y-111242599D01*
X81700500Y-113199929D01*
X81680498Y-113268050D01*
X81629267Y-113310862D01*
X81630011Y-113312150D01*
X81622860Y-113316279D01*
X81615228Y-113319440D01*
X81493129Y-113413129D01*
X81399440Y-113535228D01*
X81340544Y-113677415D01*
X81339466Y-113685602D01*
X81339466Y-113685603D01*
X81333830Y-113728417D01*
X81325500Y-113791687D01*
X77754499Y-113791687D01*
X77747953Y-113741956D01*
X77746121Y-113728039D01*
X78794385Y-113728039D01*
X78796596Y-113742221D01*
X78809754Y-113746000D01*
X79267885Y-113746000D01*
X79283124Y-113741525D01*
X79284329Y-113740135D01*
X79286000Y-113732452D01*
X79286000Y-113727885D01*
X79794000Y-113727885D01*
X79798475Y-113743124D01*
X79799865Y-113744329D01*
X79807548Y-113746000D01*
X80269865Y-113746000D01*
X80283636Y-113741956D01*
X80285665Y-113728417D01*
X80280046Y-113685733D01*
X80275808Y-113669915D01*
X80223283Y-113543108D01*
X80215097Y-113528930D01*
X80131540Y-113420038D01*
X80119960Y-113408458D01*
X80011072Y-113324905D01*
X79996889Y-113316717D01*
X79870084Y-113264192D01*
X79854267Y-113259954D01*
X79811961Y-113254385D01*
X79797779Y-113256596D01*
X79794000Y-113269754D01*
X79794000Y-113727885D01*
X79286000Y-113727885D01*
X79286000Y-113270135D01*
X79281956Y-113256364D01*
X79268417Y-113254335D01*
X79225733Y-113259954D01*
X79209915Y-113264192D01*
X79083108Y-113316717D01*
X79068930Y-113324903D01*
X78960038Y-113408460D01*
X78948458Y-113420040D01*
X78864905Y-113528928D01*
X78856717Y-113543111D01*
X78804192Y-113669916D01*
X78799954Y-113685733D01*
X78794385Y-113728039D01*
X77746121Y-113728039D01*
X77740534Y-113685602D01*
X77740533Y-113685600D01*
X77739456Y-113677415D01*
X77680560Y-113535228D01*
X77586871Y-113413129D01*
X77464772Y-113319440D01*
X77322585Y-113260544D01*
X77292597Y-113256596D01*
X77212400Y-113246038D01*
X77212399Y-113246038D01*
X77208313Y-113245500D01*
X77000026Y-113245500D01*
X76791688Y-113245501D01*
X76787604Y-113246039D01*
X76787598Y-113246039D01*
X76685602Y-113259466D01*
X76685600Y-113259467D01*
X76677415Y-113260544D01*
X76535228Y-113319440D01*
X76413129Y-113413129D01*
X76319440Y-113535228D01*
X76260544Y-113677415D01*
X76259466Y-113685602D01*
X76259466Y-113685603D01*
X76253830Y-113728417D01*
X76245500Y-113791687D01*
X74929687Y-113791687D01*
X72016405Y-110878405D01*
X71982379Y-110816093D01*
X71979500Y-110789310D01*
X71979500Y-110652244D01*
X71972798Y-110590552D01*
X71922071Y-110455236D01*
X71916691Y-110448057D01*
X71916689Y-110448054D01*
X71840785Y-110346776D01*
X71835404Y-110339596D01*
X71774404Y-110293879D01*
X71726946Y-110258311D01*
X71726943Y-110258309D01*
X71719764Y-110252929D01*
X71601902Y-110208745D01*
X71591843Y-110204974D01*
X71591841Y-110204974D01*
X71584448Y-110202202D01*
X71576598Y-110201349D01*
X71576597Y-110201349D01*
X71526153Y-110195869D01*
X71526152Y-110195869D01*
X71522756Y-110195500D01*
X71385690Y-110195500D01*
X71317569Y-110175498D01*
X71296595Y-110158595D01*
X71157094Y-110019094D01*
X71123068Y-109956782D01*
X71128133Y-109885967D01*
X71170680Y-109829131D01*
X71237200Y-109804320D01*
X71246189Y-109803999D01*
X71519292Y-109803999D01*
X71526110Y-109803630D01*
X71576482Y-109798159D01*
X71591741Y-109794530D01*
X71711118Y-109749778D01*
X71726704Y-109741246D01*
X71827867Y-109665428D01*
X71840428Y-109652867D01*
X71916246Y-109551704D01*
X71924778Y-109536118D01*
X71969533Y-109416735D01*
X71973158Y-109401490D01*
X71978631Y-109351108D01*
X71979000Y-109344294D01*
X71979000Y-109322115D01*
X71974525Y-109306876D01*
X71973135Y-109305671D01*
X71965452Y-109304000D01*
X70872000Y-109304000D01*
X70832095Y-109292283D01*
X78277001Y-109292283D01*
X78277280Y-109298207D01*
X78279281Y-109319382D01*
X78282549Y-109334280D01*
X78322116Y-109446951D01*
X78330837Y-109463420D01*
X78400752Y-109558078D01*
X78413922Y-109571248D01*
X78508580Y-109641163D01*
X78525049Y-109649884D01*
X78637723Y-109689452D01*
X78652614Y-109692719D01*
X78663235Y-109693723D01*
X78674124Y-109690525D01*
X78675329Y-109689135D01*
X78677000Y-109681452D01*
X78677000Y-109676884D01*
X79185000Y-109676884D01*
X79189475Y-109692123D01*
X79190865Y-109693328D01*
X79194521Y-109694123D01*
X79209382Y-109692719D01*
X79224280Y-109689451D01*
X79336951Y-109649884D01*
X79353420Y-109641163D01*
X79448078Y-109571248D01*
X79461248Y-109558078D01*
X79531163Y-109463420D01*
X79539884Y-109446951D01*
X79579452Y-109334277D01*
X79582719Y-109319386D01*
X79584721Y-109298201D01*
X79585000Y-109292287D01*
X79585000Y-109238115D01*
X79580525Y-109222876D01*
X79579135Y-109221671D01*
X79571452Y-109220000D01*
X79203115Y-109220000D01*
X79187876Y-109224475D01*
X79186671Y-109225865D01*
X79185000Y-109233548D01*
X79185000Y-109676884D01*
X78677000Y-109676884D01*
X78677000Y-109238115D01*
X78672525Y-109222876D01*
X78671135Y-109221671D01*
X78663452Y-109220000D01*
X78295116Y-109220000D01*
X78279877Y-109224475D01*
X78278672Y-109225865D01*
X78277001Y-109233548D01*
X78277001Y-109292283D01*
X70832095Y-109292283D01*
X70803879Y-109283998D01*
X70757386Y-109230342D01*
X70746000Y-109178000D01*
X70746000Y-108777885D01*
X71254000Y-108777885D01*
X71258475Y-108793124D01*
X71259865Y-108794329D01*
X71267548Y-108796000D01*
X71960884Y-108796000D01*
X71976123Y-108791525D01*
X71977328Y-108790135D01*
X71978999Y-108782452D01*
X71978999Y-108755708D01*
X71978630Y-108748890D01*
X71973159Y-108698518D01*
X71972057Y-108693885D01*
X78277000Y-108693885D01*
X78281475Y-108709124D01*
X78282865Y-108710329D01*
X78290548Y-108712000D01*
X78658885Y-108712000D01*
X78674124Y-108707525D01*
X78675329Y-108706135D01*
X78677000Y-108698452D01*
X78677000Y-108693885D01*
X79185000Y-108693885D01*
X79189475Y-108709124D01*
X79190865Y-108710329D01*
X79198548Y-108712000D01*
X79566884Y-108712000D01*
X79582123Y-108707525D01*
X79583328Y-108706135D01*
X79584999Y-108698452D01*
X79584999Y-108639717D01*
X79584720Y-108633793D01*
X79582719Y-108612618D01*
X79579451Y-108597720D01*
X79539884Y-108485049D01*
X79531163Y-108468580D01*
X79461248Y-108373922D01*
X79448078Y-108360752D01*
X79353420Y-108290837D01*
X79336951Y-108282116D01*
X79224277Y-108242548D01*
X79209386Y-108239281D01*
X79198765Y-108238277D01*
X79187876Y-108241475D01*
X79186671Y-108242865D01*
X79185000Y-108250548D01*
X79185000Y-108693885D01*
X78677000Y-108693885D01*
X78677000Y-108255116D01*
X78672525Y-108239877D01*
X78671135Y-108238672D01*
X78667479Y-108237877D01*
X78652618Y-108239281D01*
X78637720Y-108242549D01*
X78525049Y-108282116D01*
X78508580Y-108290837D01*
X78413922Y-108360752D01*
X78400752Y-108373922D01*
X78330837Y-108468580D01*
X78322116Y-108485049D01*
X78282548Y-108597723D01*
X78279281Y-108612614D01*
X78277279Y-108633799D01*
X78277000Y-108639713D01*
X78277000Y-108693885D01*
X71972057Y-108693885D01*
X71969530Y-108683259D01*
X71924778Y-108563882D01*
X71916246Y-108548296D01*
X71840428Y-108447133D01*
X71827867Y-108434572D01*
X71726704Y-108358754D01*
X71711118Y-108350222D01*
X71591735Y-108305467D01*
X71576490Y-108301842D01*
X71526108Y-108296369D01*
X71519294Y-108296000D01*
X71272115Y-108296000D01*
X71256876Y-108300475D01*
X71255671Y-108301865D01*
X71254000Y-108309548D01*
X71254000Y-108777885D01*
X70746000Y-108777885D01*
X70746000Y-108314116D01*
X70741525Y-108298877D01*
X70740135Y-108297672D01*
X70732452Y-108296001D01*
X70480708Y-108296001D01*
X70473890Y-108296370D01*
X70423518Y-108301841D01*
X70408259Y-108305470D01*
X70288882Y-108350222D01*
X70273296Y-108358754D01*
X70172133Y-108434572D01*
X70159572Y-108447133D01*
X70083754Y-108548296D01*
X70075222Y-108563882D01*
X70042121Y-108652178D01*
X69999480Y-108708943D01*
X69932918Y-108733643D01*
X69863569Y-108718436D01*
X69835044Y-108697044D01*
X66929687Y-105791687D01*
X70245500Y-105791687D01*
X70245501Y-106208312D01*
X70246039Y-106212396D01*
X70246039Y-106212402D01*
X70252873Y-106264316D01*
X70260544Y-106322585D01*
X70319440Y-106464772D01*
X70413129Y-106586871D01*
X70419679Y-106591897D01*
X70435242Y-106603839D01*
X70535228Y-106680560D01*
X70677415Y-106739456D01*
X70685603Y-106740534D01*
X70787593Y-106753961D01*
X70791687Y-106754500D01*
X70999974Y-106754500D01*
X71208312Y-106754499D01*
X71212396Y-106753961D01*
X71212402Y-106753961D01*
X71314398Y-106740534D01*
X71314400Y-106740533D01*
X71322585Y-106739456D01*
X71464772Y-106680560D01*
X71564758Y-106603839D01*
X71580321Y-106591897D01*
X71586871Y-106586871D01*
X71680560Y-106464772D01*
X71739456Y-106322585D01*
X71754500Y-106208313D01*
X71754499Y-105791688D01*
X71753379Y-105783174D01*
X71740534Y-105685602D01*
X71740533Y-105685600D01*
X71739456Y-105677415D01*
X71680560Y-105535228D01*
X71635982Y-105477132D01*
X71591897Y-105419679D01*
X71586871Y-105413129D01*
X71464772Y-105319440D01*
X71322585Y-105260544D01*
X71245647Y-105250415D01*
X71212400Y-105246038D01*
X71212399Y-105246038D01*
X71208313Y-105245500D01*
X71000026Y-105245500D01*
X70791688Y-105245501D01*
X70787604Y-105246039D01*
X70787598Y-105246039D01*
X70685602Y-105259466D01*
X70685600Y-105259467D01*
X70677415Y-105260544D01*
X70535228Y-105319440D01*
X70413129Y-105413129D01*
X70408103Y-105419679D01*
X70364018Y-105477132D01*
X70319440Y-105535228D01*
X70260544Y-105677415D01*
X70259466Y-105685602D01*
X70259466Y-105685603D01*
X70258788Y-105690757D01*
X70245500Y-105791687D01*
X66929687Y-105791687D01*
X64929687Y-103791687D01*
X70245500Y-103791687D01*
X70245501Y-104208312D01*
X70246039Y-104212396D01*
X70246039Y-104212402D01*
X70259466Y-104314397D01*
X70260544Y-104322585D01*
X70319440Y-104464772D01*
X70413129Y-104586871D01*
X70419679Y-104591897D01*
X70528674Y-104675531D01*
X70535228Y-104680560D01*
X70677415Y-104739456D01*
X70685603Y-104740534D01*
X70787593Y-104753961D01*
X70791687Y-104754500D01*
X70999974Y-104754500D01*
X71208312Y-104754499D01*
X71212396Y-104753961D01*
X71212402Y-104753961D01*
X71314398Y-104740534D01*
X71314400Y-104740533D01*
X71322585Y-104739456D01*
X71464772Y-104680560D01*
X71471326Y-104675531D01*
X71580321Y-104591897D01*
X71586871Y-104586871D01*
X71680560Y-104464772D01*
X71739456Y-104322585D01*
X71743433Y-104292380D01*
X71753962Y-104212400D01*
X71753962Y-104212399D01*
X71754500Y-104208313D01*
X71754499Y-103791688D01*
X71752921Y-103779696D01*
X71740534Y-103685602D01*
X71740533Y-103685600D01*
X71739456Y-103677415D01*
X71680560Y-103535228D01*
X71586871Y-103413129D01*
X71464772Y-103319440D01*
X71322585Y-103260544D01*
X71310272Y-103258923D01*
X71212400Y-103246038D01*
X71212399Y-103246038D01*
X71208313Y-103245500D01*
X71000026Y-103245500D01*
X70791688Y-103245501D01*
X70787604Y-103246039D01*
X70787598Y-103246039D01*
X70685602Y-103259466D01*
X70685600Y-103259467D01*
X70677415Y-103260544D01*
X70535228Y-103319440D01*
X70413129Y-103413129D01*
X70319440Y-103535228D01*
X70260544Y-103677415D01*
X70259466Y-103685602D01*
X70259466Y-103685603D01*
X70257242Y-103702500D01*
X70245500Y-103791687D01*
X64929687Y-103791687D01*
X64008000Y-102870000D01*
X77355715Y-102870000D01*
X77356793Y-102878188D01*
X77369171Y-102972206D01*
X77374772Y-103014754D01*
X77386881Y-103043988D01*
X77415618Y-103113363D01*
X77430645Y-103149642D01*
X77435672Y-103156193D01*
X77509571Y-103252500D01*
X77519526Y-103265474D01*
X77526076Y-103270500D01*
X77526079Y-103270503D01*
X77589855Y-103319440D01*
X77635357Y-103354355D01*
X77678719Y-103372316D01*
X77733999Y-103416865D01*
X77756500Y-103488724D01*
X77756501Y-103596217D01*
X77756501Y-103695314D01*
X77759507Y-103727127D01*
X77804791Y-103856076D01*
X77885990Y-103966010D01*
X77995924Y-104047209D01*
X78124873Y-104092493D01*
X78132515Y-104093215D01*
X78132518Y-104093216D01*
X78147421Y-104094624D01*
X78156685Y-104095500D01*
X78485777Y-104095500D01*
X78815314Y-104095499D01*
X78818262Y-104095220D01*
X78818271Y-104095220D01*
X78839478Y-104093216D01*
X78839480Y-104093216D01*
X78847127Y-104092493D01*
X78976076Y-104047209D01*
X79086010Y-103966010D01*
X79134627Y-103900188D01*
X79146649Y-103883912D01*
X79203210Y-103841002D01*
X79273992Y-103835482D01*
X79336521Y-103869106D01*
X79349351Y-103883912D01*
X79361373Y-103900188D01*
X79409990Y-103966010D01*
X79417561Y-103971602D01*
X79422512Y-103976553D01*
X79456538Y-104038865D01*
X79458339Y-104082091D01*
X79450715Y-104140000D01*
X79451793Y-104148188D01*
X79465120Y-104249415D01*
X79469772Y-104284754D01*
X79525645Y-104419642D01*
X79614526Y-104535474D01*
X79621076Y-104540500D01*
X79621079Y-104540503D01*
X79723804Y-104619327D01*
X79730357Y-104624355D01*
X79865246Y-104680228D01*
X79873434Y-104681306D01*
X79881972Y-104682430D01*
X80010000Y-104699285D01*
X80018188Y-104698207D01*
X80059062Y-104692826D01*
X80138028Y-104682430D01*
X80146566Y-104681306D01*
X80154754Y-104680228D01*
X80162382Y-104677068D01*
X80162387Y-104677067D01*
X80182738Y-104668637D01*
X80253328Y-104661047D01*
X80316815Y-104692826D01*
X80353043Y-104753884D01*
X80355893Y-104768707D01*
X80364275Y-104832800D01*
X80369608Y-104873585D01*
X80427809Y-105005859D01*
X80520796Y-105116480D01*
X80528267Y-105121453D01*
X80528268Y-105121454D01*
X80633621Y-105191583D01*
X80633623Y-105191584D01*
X80641094Y-105196557D01*
X80649658Y-105199233D01*
X80649661Y-105199234D01*
X80710062Y-105218104D01*
X80779030Y-105239652D01*
X80923518Y-105242300D01*
X80932182Y-105239938D01*
X80939825Y-105238986D01*
X81009896Y-105250415D01*
X81062665Y-105297912D01*
X81073487Y-105322658D01*
X81073608Y-105323585D01*
X81131809Y-105455859D01*
X81137583Y-105462728D01*
X81185978Y-105520300D01*
X81224796Y-105566480D01*
X81232267Y-105571453D01*
X81232268Y-105571454D01*
X81337621Y-105641583D01*
X81337623Y-105641584D01*
X81345094Y-105646557D01*
X81353658Y-105649233D01*
X81353661Y-105649234D01*
X81449720Y-105679245D01*
X81508776Y-105718651D01*
X81537081Y-105783174D01*
X81543778Y-105834384D01*
X81552108Y-105898085D01*
X81610309Y-106030359D01*
X81703296Y-106140980D01*
X81710767Y-106145953D01*
X81710768Y-106145954D01*
X81816121Y-106216083D01*
X81816123Y-106216084D01*
X81823594Y-106221057D01*
X81832158Y-106223733D01*
X81832161Y-106223734D01*
X81892562Y-106242605D01*
X81961530Y-106264152D01*
X82011796Y-106265073D01*
X82079538Y-106286320D01*
X82125040Y-106340818D01*
X82134423Y-106374714D01*
X82147088Y-106471565D01*
X82205289Y-106603839D01*
X82298276Y-106714460D01*
X82305747Y-106719433D01*
X82305748Y-106719434D01*
X82411101Y-106789563D01*
X82411103Y-106789564D01*
X82418574Y-106794537D01*
X82427138Y-106797213D01*
X82427141Y-106797214D01*
X82487542Y-106816085D01*
X82556510Y-106837632D01*
X82565480Y-106837796D01*
X82565484Y-106837797D01*
X82615426Y-106838712D01*
X82683169Y-106859959D01*
X82728671Y-106914458D01*
X82738052Y-106948347D01*
X82741088Y-106971565D01*
X82799289Y-107103839D01*
X82892276Y-107214460D01*
X82899747Y-107219433D01*
X82899748Y-107219434D01*
X83005101Y-107289563D01*
X83005103Y-107289564D01*
X83012574Y-107294537D01*
X83021138Y-107297213D01*
X83021141Y-107297214D01*
X83092282Y-107319440D01*
X83150510Y-107337632D01*
X83152072Y-107337661D01*
X83212753Y-107366688D01*
X83250068Y-107427088D01*
X83253493Y-107444076D01*
X83257088Y-107471565D01*
X83315289Y-107603839D01*
X83408276Y-107714460D01*
X83415747Y-107719433D01*
X83415748Y-107719434D01*
X83499118Y-107774930D01*
X83544741Y-107829328D01*
X83553711Y-107899755D01*
X83518394Y-107968912D01*
X82937711Y-108549595D01*
X82875399Y-108583621D01*
X82848616Y-108586500D01*
X81315336Y-108586500D01*
X81247215Y-108566498D01*
X81200722Y-108512842D01*
X81196454Y-108502250D01*
X81191963Y-108489462D01*
X81187209Y-108475924D01*
X81106010Y-108365990D01*
X80996076Y-108284791D01*
X80867127Y-108239507D01*
X80859485Y-108238785D01*
X80859482Y-108238784D01*
X80844579Y-108237376D01*
X80835315Y-108236500D01*
X80581172Y-108236500D01*
X80326686Y-108236501D01*
X80323738Y-108236780D01*
X80323729Y-108236780D01*
X80302522Y-108238784D01*
X80302520Y-108238784D01*
X80294873Y-108239507D01*
X80287623Y-108242053D01*
X80286211Y-108242549D01*
X80165924Y-108284791D01*
X80055990Y-108365990D01*
X79974791Y-108475924D01*
X79929507Y-108604873D01*
X79926500Y-108636685D01*
X79926501Y-109295314D01*
X79926780Y-109298262D01*
X79926780Y-109298271D01*
X79928784Y-109319478D01*
X79929507Y-109327127D01*
X79974791Y-109456076D01*
X80050132Y-109558078D01*
X80050851Y-109559052D01*
X80075234Y-109625730D01*
X80075500Y-109633912D01*
X80075500Y-109718936D01*
X80055498Y-109787057D01*
X80024359Y-109820287D01*
X79937564Y-109884395D01*
X79937561Y-109884398D01*
X79929990Y-109889990D01*
X79848791Y-109999924D01*
X79803507Y-110128873D01*
X79800500Y-110160685D01*
X79800501Y-110819314D01*
X79803507Y-110851127D01*
X79848791Y-110980076D01*
X79929990Y-111090010D01*
X80039924Y-111171209D01*
X80168873Y-111216493D01*
X80176515Y-111217215D01*
X80176518Y-111217216D01*
X80191421Y-111218624D01*
X80200685Y-111219500D01*
X80454828Y-111219500D01*
X80709314Y-111219499D01*
X80712262Y-111219220D01*
X80712271Y-111219220D01*
X80733478Y-111217216D01*
X80733480Y-111217216D01*
X80741127Y-111216493D01*
X80870076Y-111171209D01*
X80980010Y-111090010D01*
X81061209Y-110980076D01*
X81106493Y-110851127D01*
X81109500Y-110819315D01*
X81109499Y-110160686D01*
X81106493Y-110128873D01*
X81061209Y-109999924D01*
X80980010Y-109889990D01*
X80972439Y-109884398D01*
X80972436Y-109884395D01*
X80953828Y-109870651D01*
X80910917Y-109814090D01*
X80905397Y-109743309D01*
X80939021Y-109680779D01*
X80979182Y-109655332D01*
X80978867Y-109654736D01*
X80986505Y-109650692D01*
X80986936Y-109650419D01*
X80996076Y-109647209D01*
X81106010Y-109566010D01*
X81187209Y-109456076D01*
X81196454Y-109429750D01*
X81237898Y-109372105D01*
X81303928Y-109346018D01*
X81315336Y-109345500D01*
X83004080Y-109345500D01*
X83028028Y-109348049D01*
X83029693Y-109348128D01*
X83039876Y-109350320D01*
X83050217Y-109349096D01*
X83073223Y-109346373D01*
X83079154Y-109346023D01*
X83079146Y-109345928D01*
X83084324Y-109345500D01*
X83089524Y-109345500D01*
X83094653Y-109344646D01*
X83094656Y-109344646D01*
X83108565Y-109342331D01*
X83114443Y-109341494D01*
X83155001Y-109336694D01*
X83155002Y-109336694D01*
X83165341Y-109335470D01*
X83173593Y-109331507D01*
X83182626Y-109330004D01*
X83191795Y-109325057D01*
X83191797Y-109325056D01*
X83227732Y-109305666D01*
X83233025Y-109302969D01*
X83272082Y-109284215D01*
X83272086Y-109284212D01*
X83279232Y-109280781D01*
X83283508Y-109277186D01*
X83285431Y-109275263D01*
X83287363Y-109273491D01*
X83287442Y-109273448D01*
X83287555Y-109273572D01*
X83288095Y-109273096D01*
X83293814Y-109270010D01*
X83305227Y-109257664D01*
X83330416Y-109230414D01*
X83333846Y-109226848D01*
X83933835Y-108626859D01*
X83996147Y-108592833D01*
X84066962Y-108597898D01*
X84119381Y-108634879D01*
X84180498Y-108707588D01*
X84180504Y-108707593D01*
X84186276Y-108714460D01*
X84193747Y-108719433D01*
X84193748Y-108719434D01*
X84299101Y-108789563D01*
X84299103Y-108789564D01*
X84306574Y-108794537D01*
X84315138Y-108797213D01*
X84315141Y-108797214D01*
X84357251Y-108810370D01*
X84444510Y-108837632D01*
X84453481Y-108837796D01*
X84453485Y-108837797D01*
X84479901Y-108838281D01*
X84547644Y-108859529D01*
X84593145Y-108914028D01*
X84602091Y-108983645D01*
X84582194Y-109111433D01*
X84580350Y-109123273D01*
X84581514Y-109132175D01*
X84581514Y-109132178D01*
X84596404Y-109246038D01*
X84599088Y-109266565D01*
X84657289Y-109398839D01*
X84663063Y-109405708D01*
X84697732Y-109446951D01*
X84750276Y-109509460D01*
X84757747Y-109514433D01*
X84757748Y-109514434D01*
X84863101Y-109584563D01*
X84863103Y-109584564D01*
X84870574Y-109589537D01*
X84879138Y-109592213D01*
X84879141Y-109592214D01*
X84939542Y-109611084D01*
X85008510Y-109632632D01*
X85017485Y-109632796D01*
X85026347Y-109634232D01*
X85025779Y-109637742D01*
X85077291Y-109653900D01*
X85122791Y-109708400D01*
X85132172Y-109742292D01*
X85145088Y-109841065D01*
X85203289Y-109973339D01*
X85296276Y-110083960D01*
X85303747Y-110088933D01*
X85303748Y-110088934D01*
X85409101Y-110159063D01*
X85409103Y-110159064D01*
X85416574Y-110164037D01*
X85425138Y-110166713D01*
X85425141Y-110166714D01*
X85554075Y-110206996D01*
X85613131Y-110246402D01*
X85641508Y-110311481D01*
X85642500Y-110327263D01*
X85642501Y-110785388D01*
X85642870Y-110788782D01*
X85642870Y-110788788D01*
X85648006Y-110836066D01*
X85648870Y-110844024D01*
X85671215Y-110903631D01*
X85689716Y-110952982D01*
X85697083Y-110972635D01*
X85702463Y-110979814D01*
X85702465Y-110979817D01*
X85774077Y-111075367D01*
X85779456Y-111082544D01*
X85786633Y-111087923D01*
X85882183Y-111159535D01*
X85882186Y-111159537D01*
X85889365Y-111164917D01*
X85897769Y-111168067D01*
X85897770Y-111168068D01*
X86010581Y-111210358D01*
X86010582Y-111210358D01*
X86017976Y-111213130D01*
X86025826Y-111213983D01*
X86025827Y-111213983D01*
X86055587Y-111217216D01*
X86076611Y-111219500D01*
X86346920Y-111219500D01*
X86617388Y-111219499D01*
X86620782Y-111219130D01*
X86620788Y-111219130D01*
X86668166Y-111213984D01*
X86668170Y-111213983D01*
X86676024Y-111213130D01*
X86768665Y-111178401D01*
X86796230Y-111168068D01*
X86796231Y-111168067D01*
X86804635Y-111164917D01*
X86811814Y-111159537D01*
X86811817Y-111159535D01*
X86907367Y-111087923D01*
X86914544Y-111082544D01*
X86919923Y-111075367D01*
X86991535Y-110979817D01*
X86991537Y-110979814D01*
X86996917Y-110972635D01*
X87004285Y-110952980D01*
X87046927Y-110896216D01*
X87113488Y-110871516D01*
X87182837Y-110886724D01*
X87232955Y-110937010D01*
X87240249Y-110952982D01*
X87244374Y-110963986D01*
X87252908Y-110979575D01*
X87324434Y-111075010D01*
X87336990Y-111087566D01*
X87432425Y-111159092D01*
X87448012Y-111167625D01*
X87560689Y-111209865D01*
X87575934Y-111213490D01*
X87623259Y-111218631D01*
X87625693Y-111218763D01*
X87640124Y-111214525D01*
X87641329Y-111213135D01*
X87643000Y-111205452D01*
X87643000Y-111200885D01*
X88151000Y-111200885D01*
X88155475Y-111216124D01*
X88156865Y-111217329D01*
X88164424Y-111218973D01*
X88170741Y-111218631D01*
X88218066Y-111213490D01*
X88233311Y-111209865D01*
X88345988Y-111167625D01*
X88361575Y-111159092D01*
X88457010Y-111087566D01*
X88469566Y-111075010D01*
X88541092Y-110979575D01*
X88549625Y-110963988D01*
X88591865Y-110851311D01*
X88595490Y-110836066D01*
X88600631Y-110788741D01*
X88601000Y-110781927D01*
X88601000Y-110762115D01*
X88596525Y-110746876D01*
X88595135Y-110745671D01*
X88587452Y-110744000D01*
X88169115Y-110744000D01*
X88153876Y-110748475D01*
X88152671Y-110749865D01*
X88151000Y-110757548D01*
X88151000Y-111200885D01*
X87643000Y-111200885D01*
X87643000Y-110362000D01*
X87663002Y-110293879D01*
X87716658Y-110247386D01*
X87769000Y-110236000D01*
X88582885Y-110236000D01*
X88598124Y-110231525D01*
X88599329Y-110230135D01*
X88601000Y-110222452D01*
X88601000Y-110198068D01*
X88600959Y-110197311D01*
X88601000Y-110197137D01*
X88601000Y-110194656D01*
X88601585Y-110194656D01*
X88617249Y-110128209D01*
X88668313Y-110078884D01*
X88726775Y-110064500D01*
X89823074Y-110064500D01*
X89847022Y-110067049D01*
X89848687Y-110067128D01*
X89858870Y-110069320D01*
X89869211Y-110068096D01*
X89892217Y-110065373D01*
X89898148Y-110065023D01*
X89898140Y-110064928D01*
X89903318Y-110064500D01*
X89908518Y-110064500D01*
X89913647Y-110063646D01*
X89913650Y-110063646D01*
X89927559Y-110061331D01*
X89933437Y-110060494D01*
X89973995Y-110055694D01*
X89973996Y-110055694D01*
X89984335Y-110054470D01*
X89992587Y-110050507D01*
X90001620Y-110049004D01*
X90010789Y-110044057D01*
X90010791Y-110044056D01*
X90046726Y-110024666D01*
X90052019Y-110021969D01*
X90091076Y-110003215D01*
X90091080Y-110003212D01*
X90098226Y-109999781D01*
X90102502Y-109996186D01*
X90104425Y-109994263D01*
X90106357Y-109992491D01*
X90106436Y-109992448D01*
X90106549Y-109992572D01*
X90107089Y-109992096D01*
X90112808Y-109989010D01*
X90120945Y-109980208D01*
X90149410Y-109949414D01*
X90152840Y-109945848D01*
X90272716Y-109825972D01*
X90334549Y-109792208D01*
X90338492Y-109792280D01*
X90414405Y-109771584D01*
X90469257Y-109756630D01*
X90469259Y-109756629D01*
X90477916Y-109754269D01*
X90601066Y-109678654D01*
X90698045Y-109571514D01*
X90718801Y-109528674D01*
X90757140Y-109449542D01*
X90757141Y-109449538D01*
X90761054Y-109441462D01*
X90762543Y-109432611D01*
X90764325Y-109427027D01*
X90804091Y-109368213D01*
X90868787Y-109340302D01*
X90870285Y-109340115D01*
X90879263Y-109340280D01*
X90955917Y-109319382D01*
X91010028Y-109304630D01*
X91010030Y-109304629D01*
X91018687Y-109302269D01*
X91141837Y-109226654D01*
X91238816Y-109119514D01*
X91301825Y-108989462D01*
X91309346Y-108944760D01*
X91340373Y-108880902D01*
X91400999Y-108843956D01*
X91435907Y-108839686D01*
X91459366Y-108840116D01*
X91459370Y-108840116D01*
X91468344Y-108840280D01*
X91477452Y-108837797D01*
X91599109Y-108804630D01*
X91599111Y-108804629D01*
X91607768Y-108802269D01*
X91730918Y-108726654D01*
X91746786Y-108709124D01*
X91770197Y-108683259D01*
X91827897Y-108619514D01*
X91890906Y-108489462D01*
X91898497Y-108444343D01*
X91929524Y-108380485D01*
X91990150Y-108343539D01*
X92025059Y-108339269D01*
X92071270Y-108340116D01*
X92071274Y-108340116D01*
X92080248Y-108340280D01*
X92117174Y-108330213D01*
X92211013Y-108304630D01*
X92211015Y-108304629D01*
X92219672Y-108302269D01*
X92342822Y-108226654D01*
X92359424Y-108208313D01*
X92418882Y-108142625D01*
X92479426Y-108105544D01*
X92550406Y-108107082D01*
X92601392Y-108138086D01*
X98208595Y-113745289D01*
X98242621Y-113807601D01*
X98245500Y-113834384D01*
X98245501Y-114208312D01*
X98246039Y-114212396D01*
X98246039Y-114212402D01*
X98253900Y-114272115D01*
X98260544Y-114322585D01*
X98319440Y-114464772D01*
X98413129Y-114586871D01*
X98535228Y-114680560D01*
X98677415Y-114739456D01*
X98685603Y-114740534D01*
X98787593Y-114753961D01*
X98791687Y-114754500D01*
X98999974Y-114754500D01*
X99208312Y-114754499D01*
X99212396Y-114753961D01*
X99212402Y-114753961D01*
X99314398Y-114740534D01*
X99314400Y-114740533D01*
X99322585Y-114739456D01*
X99464772Y-114680560D01*
X99586871Y-114586871D01*
X99680560Y-114464772D01*
X99739456Y-114322585D01*
X99746121Y-114271961D01*
X99753962Y-114212400D01*
X99753962Y-114212399D01*
X99754500Y-114208313D01*
X99754499Y-113791688D01*
X99747953Y-113741956D01*
X99740534Y-113685602D01*
X99740533Y-113685600D01*
X99739456Y-113677415D01*
X99680560Y-113535228D01*
X99586871Y-113413129D01*
X99464772Y-113319440D01*
X99322585Y-113260544D01*
X99292597Y-113256596D01*
X99212400Y-113246038D01*
X99212399Y-113246038D01*
X99208313Y-113245500D01*
X99171633Y-113245500D01*
X98834385Y-113245501D01*
X98766265Y-113225499D01*
X98745290Y-113208596D01*
X98440325Y-112903631D01*
X98406299Y-112841319D01*
X98411364Y-112770504D01*
X98453911Y-112713668D01*
X98520431Y-112688857D01*
X98577639Y-112698127D01*
X98677415Y-112739456D01*
X98685603Y-112740534D01*
X98787593Y-112753961D01*
X98791687Y-112754500D01*
X98999974Y-112754500D01*
X99208312Y-112754499D01*
X99212396Y-112753961D01*
X99212402Y-112753961D01*
X99314398Y-112740534D01*
X99314400Y-112740533D01*
X99322585Y-112739456D01*
X99464772Y-112680560D01*
X99586871Y-112586871D01*
X99680560Y-112464772D01*
X99739456Y-112322585D01*
X99754500Y-112208313D01*
X99754499Y-111791688D01*
X99743022Y-111704500D01*
X99740534Y-111685602D01*
X99740533Y-111685600D01*
X99739456Y-111677415D01*
X99680560Y-111535228D01*
X99586871Y-111413129D01*
X99464772Y-111319440D01*
X99322585Y-111260544D01*
X99314397Y-111259466D01*
X99212400Y-111246038D01*
X99212399Y-111246038D01*
X99208313Y-111245500D01*
X99171633Y-111245500D01*
X98834385Y-111245501D01*
X98766265Y-111225499D01*
X98745290Y-111208596D01*
X98440325Y-110903631D01*
X98406299Y-110841319D01*
X98411364Y-110770504D01*
X98453911Y-110713668D01*
X98520431Y-110688857D01*
X98577639Y-110698127D01*
X98677415Y-110739456D01*
X98685603Y-110740534D01*
X98787593Y-110753961D01*
X98791687Y-110754500D01*
X98999974Y-110754500D01*
X99208312Y-110754499D01*
X99212396Y-110753961D01*
X99212402Y-110753961D01*
X99314398Y-110740534D01*
X99314400Y-110740533D01*
X99322585Y-110739456D01*
X99464772Y-110680560D01*
X99497221Y-110655661D01*
X99580321Y-110591897D01*
X99586871Y-110586871D01*
X99680560Y-110464772D01*
X99739456Y-110322585D01*
X99754500Y-110208313D01*
X99754499Y-109791688D01*
X99753890Y-109787057D01*
X99740534Y-109685602D01*
X99740533Y-109685600D01*
X99739456Y-109677415D01*
X99680560Y-109535228D01*
X99612823Y-109446951D01*
X99591897Y-109419679D01*
X99586871Y-109413129D01*
X99464772Y-109319440D01*
X99322585Y-109260544D01*
X99300709Y-109257664D01*
X99212400Y-109246038D01*
X99212399Y-109246038D01*
X99208313Y-109245500D01*
X99171633Y-109245500D01*
X98834385Y-109245501D01*
X98766265Y-109225499D01*
X98745290Y-109208596D01*
X98440325Y-108903631D01*
X98406299Y-108841319D01*
X98411364Y-108770504D01*
X98453911Y-108713668D01*
X98520431Y-108688857D01*
X98577638Y-108698127D01*
X98626668Y-108718436D01*
X98677415Y-108739456D01*
X98685603Y-108740534D01*
X98787593Y-108753961D01*
X98791687Y-108754500D01*
X98999974Y-108754500D01*
X99208312Y-108754499D01*
X99212396Y-108753961D01*
X99212402Y-108753961D01*
X99314398Y-108740534D01*
X99314400Y-108740533D01*
X99322585Y-108739456D01*
X99464772Y-108680560D01*
X99499201Y-108654142D01*
X99580321Y-108591897D01*
X99586871Y-108586871D01*
X99604038Y-108564499D01*
X99675531Y-108471326D01*
X99680560Y-108464772D01*
X99739456Y-108322585D01*
X99744784Y-108282116D01*
X99753962Y-108212400D01*
X99753962Y-108212399D01*
X99754500Y-108208313D01*
X99754499Y-107791688D01*
X99744988Y-107719434D01*
X99740534Y-107685602D01*
X99740533Y-107685600D01*
X99739456Y-107677415D01*
X99680560Y-107535228D01*
X99586871Y-107413129D01*
X99488481Y-107337632D01*
X99471326Y-107324469D01*
X99464772Y-107319440D01*
X99322585Y-107260544D01*
X99314397Y-107259466D01*
X99212400Y-107246038D01*
X99212399Y-107246038D01*
X99208313Y-107245500D01*
X99171633Y-107245500D01*
X98834385Y-107245501D01*
X98766265Y-107225499D01*
X98745290Y-107208596D01*
X98440325Y-106903631D01*
X98406299Y-106841319D01*
X98411364Y-106770504D01*
X98453911Y-106713668D01*
X98520431Y-106688857D01*
X98577638Y-106698127D01*
X98629078Y-106719434D01*
X98677415Y-106739456D01*
X98685603Y-106740534D01*
X98787593Y-106753961D01*
X98791687Y-106754500D01*
X98999974Y-106754500D01*
X99208312Y-106754499D01*
X99212396Y-106753961D01*
X99212402Y-106753961D01*
X99314398Y-106740534D01*
X99314400Y-106740533D01*
X99322585Y-106739456D01*
X99464772Y-106680560D01*
X99564758Y-106603839D01*
X99580321Y-106591897D01*
X99586871Y-106586871D01*
X99680560Y-106464772D01*
X99739456Y-106322585D01*
X99754500Y-106208313D01*
X99754499Y-105791688D01*
X99753379Y-105783174D01*
X99740534Y-105685602D01*
X99740533Y-105685600D01*
X99739456Y-105677415D01*
X99680560Y-105535228D01*
X99635982Y-105477132D01*
X99591897Y-105419679D01*
X99586871Y-105413129D01*
X99464772Y-105319440D01*
X99322585Y-105260544D01*
X99245647Y-105250415D01*
X99212400Y-105246038D01*
X99212399Y-105246038D01*
X99208313Y-105245500D01*
X99171633Y-105245500D01*
X98834385Y-105245501D01*
X98766265Y-105225499D01*
X98745290Y-105208596D01*
X98440325Y-104903631D01*
X98406299Y-104841319D01*
X98411364Y-104770504D01*
X98453911Y-104713668D01*
X98520431Y-104688857D01*
X98577638Y-104698127D01*
X98660168Y-104732312D01*
X98677415Y-104739456D01*
X98685603Y-104740534D01*
X98787593Y-104753961D01*
X98791687Y-104754500D01*
X98999974Y-104754500D01*
X99208312Y-104754499D01*
X99212396Y-104753961D01*
X99212402Y-104753961D01*
X99314398Y-104740534D01*
X99314400Y-104740533D01*
X99322585Y-104739456D01*
X99464772Y-104680560D01*
X99471326Y-104675531D01*
X99580321Y-104591897D01*
X99586871Y-104586871D01*
X99680560Y-104464772D01*
X99739456Y-104322585D01*
X99743433Y-104292380D01*
X99753962Y-104212400D01*
X99753962Y-104212399D01*
X99754500Y-104208313D01*
X99754499Y-103791688D01*
X99752921Y-103779696D01*
X99740534Y-103685602D01*
X99740533Y-103685600D01*
X99739456Y-103677415D01*
X99680560Y-103535228D01*
X99586871Y-103413129D01*
X99464772Y-103319440D01*
X99322585Y-103260544D01*
X99310272Y-103258923D01*
X99212400Y-103246038D01*
X99212399Y-103246038D01*
X99208313Y-103245500D01*
X99000026Y-103245500D01*
X98791688Y-103245501D01*
X98787604Y-103246039D01*
X98787598Y-103246039D01*
X98685602Y-103259466D01*
X98685600Y-103259467D01*
X98677415Y-103260544D01*
X98636038Y-103277683D01*
X98577638Y-103301873D01*
X98507048Y-103309462D01*
X98443561Y-103277683D01*
X98407334Y-103216625D01*
X98409868Y-103145673D01*
X98440325Y-103096369D01*
X98745289Y-102791405D01*
X98807601Y-102757379D01*
X98834384Y-102754500D01*
X99171624Y-102754499D01*
X99208312Y-102754499D01*
X99212396Y-102753961D01*
X99212402Y-102753961D01*
X99314398Y-102740534D01*
X99314400Y-102740533D01*
X99322585Y-102739456D01*
X99464772Y-102680560D01*
X99576350Y-102594944D01*
X99580321Y-102591897D01*
X99586871Y-102586871D01*
X99680560Y-102464772D01*
X99739456Y-102322585D01*
X99751425Y-102231672D01*
X99753962Y-102212400D01*
X99753962Y-102212399D01*
X99754500Y-102208313D01*
X99754499Y-101791688D01*
X99739456Y-101677415D01*
X99680560Y-101535228D01*
X99586871Y-101413129D01*
X99464772Y-101319440D01*
X99322585Y-101260544D01*
X99314397Y-101259466D01*
X99212400Y-101246038D01*
X99212399Y-101246038D01*
X99208313Y-101245500D01*
X99000026Y-101245500D01*
X98791688Y-101245501D01*
X98787604Y-101246039D01*
X98787598Y-101246039D01*
X98685602Y-101259466D01*
X98685600Y-101259467D01*
X98677415Y-101260544D01*
X98645118Y-101273922D01*
X98577638Y-101301873D01*
X98507048Y-101309462D01*
X98443561Y-101277683D01*
X98407334Y-101216625D01*
X98409868Y-101145673D01*
X98440325Y-101096369D01*
X98745289Y-100791405D01*
X98807601Y-100757379D01*
X98834384Y-100754500D01*
X99171624Y-100754499D01*
X99208312Y-100754499D01*
X99212396Y-100753961D01*
X99212402Y-100753961D01*
X99314398Y-100740534D01*
X99314400Y-100740533D01*
X99322585Y-100739456D01*
X99464772Y-100680560D01*
X99586871Y-100586871D01*
X99680560Y-100464772D01*
X99739456Y-100322585D01*
X99746121Y-100271961D01*
X99753962Y-100212400D01*
X99753962Y-100212399D01*
X99754500Y-100208313D01*
X99754499Y-99791688D01*
X99747953Y-99741956D01*
X99740534Y-99685602D01*
X99740533Y-99685600D01*
X99739456Y-99677415D01*
X99680560Y-99535228D01*
X99586871Y-99413129D01*
X99464772Y-99319440D01*
X99322585Y-99260544D01*
X99292597Y-99256596D01*
X99212400Y-99246038D01*
X99212399Y-99246038D01*
X99208313Y-99245500D01*
X99000026Y-99245500D01*
X98791688Y-99245501D01*
X98787604Y-99246039D01*
X98787598Y-99246039D01*
X98685602Y-99259466D01*
X98685600Y-99259467D01*
X98677415Y-99260544D01*
X98535228Y-99319440D01*
X98413129Y-99413129D01*
X98319440Y-99535228D01*
X98260544Y-99677415D01*
X98259466Y-99685602D01*
X98259466Y-99685603D01*
X98253830Y-99728417D01*
X98245500Y-99791687D01*
X98245500Y-99795809D01*
X98245501Y-100165615D01*
X98225499Y-100233735D01*
X98208596Y-100254710D01*
X95697711Y-102765595D01*
X95635399Y-102799621D01*
X95608616Y-102802500D01*
X87625920Y-102802500D01*
X87601972Y-102799951D01*
X87600307Y-102799872D01*
X87590124Y-102797680D01*
X87579783Y-102798904D01*
X87556777Y-102801627D01*
X87550846Y-102801977D01*
X87550854Y-102802072D01*
X87545676Y-102802500D01*
X87540476Y-102802500D01*
X87535347Y-102803354D01*
X87535344Y-102803354D01*
X87521435Y-102805669D01*
X87515557Y-102806506D01*
X87474999Y-102811306D01*
X87474998Y-102811306D01*
X87464659Y-102812530D01*
X87456407Y-102816493D01*
X87447374Y-102817996D01*
X87438205Y-102822943D01*
X87438203Y-102822944D01*
X87402268Y-102842334D01*
X87396976Y-102845031D01*
X87350768Y-102867219D01*
X87346891Y-102870479D01*
X87280036Y-102890268D01*
X87211872Y-102870415D01*
X87179798Y-102840971D01*
X87119725Y-102762681D01*
X87119721Y-102762677D01*
X87114695Y-102756127D01*
X87108145Y-102751101D01*
X87108142Y-102751098D01*
X87005417Y-102672274D01*
X87005415Y-102672273D01*
X86998864Y-102667246D01*
X86863975Y-102611373D01*
X86735609Y-102594473D01*
X86670683Y-102565752D01*
X86662961Y-102558647D01*
X86394598Y-102290284D01*
X86379447Y-102271525D01*
X86378339Y-102270307D01*
X86372691Y-102261560D01*
X86369444Y-102259000D01*
X86368191Y-102257060D01*
X86341820Y-102236271D01*
X86337379Y-102232325D01*
X86337317Y-102232398D01*
X86333353Y-102229039D01*
X86329676Y-102225362D01*
X86313928Y-102214108D01*
X86309258Y-102210602D01*
X86268973Y-102178844D01*
X86260339Y-102175812D01*
X86252886Y-102170486D01*
X86203770Y-102155797D01*
X86198128Y-102153964D01*
X86157253Y-102139610D01*
X86157252Y-102139610D01*
X86149769Y-102136982D01*
X86144204Y-102136500D01*
X86141496Y-102136500D01*
X86138862Y-102136386D01*
X86138764Y-102136357D01*
X86138771Y-102136193D01*
X86138067Y-102136149D01*
X86131842Y-102134287D01*
X86077985Y-102136403D01*
X86073038Y-102136500D01*
X80854870Y-102136500D01*
X80786749Y-102116498D01*
X80740256Y-102062842D01*
X80734746Y-102048067D01*
X80733135Y-102046671D01*
X80725452Y-102045000D01*
X79299118Y-102045000D01*
X79288410Y-102048144D01*
X79226131Y-102050368D01*
X79201453Y-102045000D01*
X78758115Y-102045000D01*
X78742876Y-102049475D01*
X78741671Y-102050865D01*
X78740000Y-102058548D01*
X78740000Y-102426884D01*
X78744475Y-102442124D01*
X78751336Y-102448069D01*
X78789719Y-102507796D01*
X78789719Y-102578792D01*
X78757918Y-102632388D01*
X78650027Y-102740279D01*
X78587715Y-102774305D01*
X78516900Y-102769240D01*
X78460064Y-102726693D01*
X78444523Y-102699402D01*
X78402516Y-102597989D01*
X78402516Y-102597988D01*
X78399355Y-102590358D01*
X78310474Y-102474526D01*
X78303928Y-102469503D01*
X78303925Y-102469500D01*
X78281296Y-102452136D01*
X78239429Y-102394798D01*
X78232000Y-102352174D01*
X78232000Y-102063115D01*
X78227525Y-102047876D01*
X78226135Y-102046671D01*
X78218452Y-102045000D01*
X77775116Y-102045000D01*
X77759877Y-102049475D01*
X77758672Y-102050865D01*
X77757877Y-102054521D01*
X77759281Y-102069382D01*
X77762549Y-102084280D01*
X77799275Y-102188861D01*
X77802973Y-102259761D01*
X77767753Y-102321406D01*
X77728610Y-102347018D01*
X77716163Y-102352174D01*
X77635358Y-102385645D01*
X77519526Y-102474526D01*
X77430645Y-102590358D01*
X77427486Y-102597984D01*
X77427485Y-102597986D01*
X77398797Y-102667246D01*
X77374772Y-102725246D01*
X77373695Y-102733430D01*
X77373694Y-102733432D01*
X77369460Y-102765595D01*
X77355715Y-102870000D01*
X64008000Y-102870000D01*
X63754000Y-102616000D01*
X60442187Y-102616000D01*
X60429837Y-102615393D01*
X60253260Y-102598001D01*
X60229043Y-102593185D01*
X60065190Y-102543482D01*
X60042371Y-102534029D01*
X59925061Y-102471326D01*
X59891369Y-102453317D01*
X59870842Y-102439601D01*
X59738479Y-102330974D01*
X59721026Y-102313521D01*
X59612399Y-102181158D01*
X59598681Y-102160628D01*
X59585823Y-102136571D01*
X59546414Y-102062842D01*
X59517971Y-102009629D01*
X59508518Y-101986809D01*
X59458815Y-101822957D01*
X59453998Y-101798737D01*
X59453304Y-101791687D01*
X70245500Y-101791687D01*
X70245501Y-102208312D01*
X70246039Y-102212396D01*
X70246039Y-102212402D01*
X70253822Y-102271525D01*
X70260544Y-102322585D01*
X70319440Y-102464772D01*
X70413129Y-102586871D01*
X70419679Y-102591897D01*
X70423650Y-102594944D01*
X70535228Y-102680560D01*
X70677415Y-102739456D01*
X70685603Y-102740534D01*
X70787593Y-102753961D01*
X70791687Y-102754500D01*
X70999974Y-102754500D01*
X71208312Y-102754499D01*
X71212396Y-102753961D01*
X71212402Y-102753961D01*
X71314398Y-102740534D01*
X71314400Y-102740533D01*
X71322585Y-102739456D01*
X71464772Y-102680560D01*
X71576350Y-102594944D01*
X71580321Y-102591897D01*
X71586871Y-102586871D01*
X71680560Y-102464772D01*
X71739456Y-102322585D01*
X71751425Y-102231672D01*
X71753962Y-102212400D01*
X71753962Y-102212399D01*
X71754500Y-102208313D01*
X71754499Y-101791688D01*
X71739456Y-101677415D01*
X71680560Y-101535228D01*
X71671358Y-101523235D01*
X77758277Y-101523235D01*
X77761475Y-101534124D01*
X77762865Y-101535329D01*
X77770548Y-101537000D01*
X78213885Y-101537000D01*
X78229124Y-101532525D01*
X78230329Y-101531135D01*
X78232000Y-101523452D01*
X78232000Y-101518885D01*
X78740000Y-101518885D01*
X78744475Y-101534124D01*
X78745865Y-101535329D01*
X78753548Y-101537000D01*
X79196882Y-101537000D01*
X79207590Y-101533856D01*
X79269869Y-101531632D01*
X79294547Y-101537000D01*
X79737885Y-101537000D01*
X79753124Y-101532525D01*
X79754329Y-101531135D01*
X79756000Y-101523452D01*
X79756000Y-101518885D01*
X80264000Y-101518885D01*
X80268475Y-101534124D01*
X80269865Y-101535329D01*
X80277548Y-101537000D01*
X80720884Y-101537000D01*
X80736123Y-101532525D01*
X80737328Y-101531135D01*
X80738123Y-101527479D01*
X80736719Y-101512618D01*
X80733451Y-101497720D01*
X80693884Y-101385049D01*
X80685163Y-101368580D01*
X80615248Y-101273922D01*
X80602078Y-101260752D01*
X80507420Y-101190837D01*
X80490951Y-101182116D01*
X80378277Y-101142548D01*
X80363386Y-101139281D01*
X80342201Y-101137279D01*
X80336287Y-101137000D01*
X80282115Y-101137000D01*
X80266876Y-101141475D01*
X80265671Y-101142865D01*
X80264000Y-101150548D01*
X80264000Y-101518885D01*
X79756000Y-101518885D01*
X79756000Y-101155116D01*
X79751525Y-101139877D01*
X79750135Y-101138672D01*
X79742452Y-101137001D01*
X79683717Y-101137001D01*
X79677793Y-101137280D01*
X79656618Y-101139281D01*
X79641720Y-101142549D01*
X79529049Y-101182116D01*
X79512580Y-101190837D01*
X79417922Y-101260752D01*
X79404752Y-101273922D01*
X79349351Y-101348929D01*
X79292790Y-101391840D01*
X79222009Y-101397360D01*
X79159479Y-101363736D01*
X79146649Y-101348929D01*
X79091248Y-101273922D01*
X79078078Y-101260752D01*
X78983420Y-101190837D01*
X78966951Y-101182116D01*
X78854277Y-101142548D01*
X78839386Y-101139281D01*
X78818201Y-101137279D01*
X78812287Y-101137000D01*
X78758115Y-101137000D01*
X78742876Y-101141475D01*
X78741671Y-101142865D01*
X78740000Y-101150548D01*
X78740000Y-101518885D01*
X78232000Y-101518885D01*
X78232000Y-101155116D01*
X78227525Y-101139877D01*
X78226135Y-101138672D01*
X78218452Y-101137001D01*
X78159717Y-101137001D01*
X78153793Y-101137280D01*
X78132618Y-101139281D01*
X78117720Y-101142549D01*
X78005049Y-101182116D01*
X77988580Y-101190837D01*
X77893922Y-101260752D01*
X77880752Y-101273922D01*
X77810837Y-101368580D01*
X77802116Y-101385049D01*
X77762548Y-101497723D01*
X77759281Y-101512614D01*
X77758277Y-101523235D01*
X71671358Y-101523235D01*
X71586871Y-101413129D01*
X71464772Y-101319440D01*
X71322585Y-101260544D01*
X71314397Y-101259466D01*
X71212400Y-101246038D01*
X71212399Y-101246038D01*
X71208313Y-101245500D01*
X71000026Y-101245500D01*
X70791688Y-101245501D01*
X70787604Y-101246039D01*
X70787598Y-101246039D01*
X70685602Y-101259466D01*
X70685600Y-101259467D01*
X70677415Y-101260544D01*
X70535228Y-101319440D01*
X70413129Y-101413129D01*
X70319440Y-101535228D01*
X70260544Y-101677415D01*
X70245500Y-101791687D01*
X59453304Y-101791687D01*
X59441298Y-101669786D01*
X59436607Y-101622163D01*
X59436000Y-101609813D01*
X59436000Y-100271583D01*
X70254335Y-100271583D01*
X70259954Y-100314267D01*
X70264192Y-100330085D01*
X70316717Y-100456892D01*
X70324903Y-100471070D01*
X70408460Y-100579962D01*
X70420040Y-100591542D01*
X70528928Y-100675095D01*
X70543111Y-100683283D01*
X70669916Y-100735808D01*
X70685733Y-100740046D01*
X70728039Y-100745615D01*
X70742221Y-100743404D01*
X70746000Y-100730246D01*
X70746000Y-100729865D01*
X71254000Y-100729865D01*
X71258044Y-100743636D01*
X71271583Y-100745665D01*
X71314267Y-100740046D01*
X71330085Y-100735808D01*
X71456892Y-100683283D01*
X71471070Y-100675097D01*
X71579962Y-100591540D01*
X71591542Y-100579960D01*
X71675095Y-100471072D01*
X71683283Y-100456889D01*
X71735808Y-100330084D01*
X71740046Y-100314267D01*
X71745615Y-100271961D01*
X71743404Y-100257779D01*
X71730246Y-100254000D01*
X71272115Y-100254000D01*
X71256876Y-100258475D01*
X71255671Y-100259865D01*
X71254000Y-100267548D01*
X71254000Y-100729865D01*
X70746000Y-100729865D01*
X70746000Y-100272115D01*
X70741525Y-100256876D01*
X70740135Y-100255671D01*
X70732452Y-100254000D01*
X70270135Y-100254000D01*
X70256364Y-100258044D01*
X70254335Y-100271583D01*
X59436000Y-100271583D01*
X59436000Y-99791687D01*
X82245500Y-99791687D01*
X82245501Y-100208312D01*
X82246039Y-100212396D01*
X82246039Y-100212402D01*
X82253900Y-100272115D01*
X82260544Y-100322585D01*
X82319440Y-100464772D01*
X82413129Y-100586871D01*
X82535228Y-100680560D01*
X82677415Y-100739456D01*
X82685603Y-100740534D01*
X82787593Y-100753961D01*
X82791687Y-100754500D01*
X82999974Y-100754500D01*
X83208312Y-100754499D01*
X83212396Y-100753961D01*
X83212402Y-100753961D01*
X83314398Y-100740534D01*
X83314400Y-100740533D01*
X83322585Y-100739456D01*
X83464772Y-100680560D01*
X83586871Y-100586871D01*
X83680560Y-100464772D01*
X83739456Y-100322585D01*
X83746121Y-100271961D01*
X83753962Y-100212400D01*
X83753962Y-100212399D01*
X83754500Y-100208313D01*
X83754499Y-99791688D01*
X83754499Y-99791687D01*
X84245500Y-99791687D01*
X84245501Y-100208312D01*
X84246039Y-100212396D01*
X84246039Y-100212402D01*
X84253900Y-100272115D01*
X84260544Y-100322585D01*
X84319440Y-100464772D01*
X84413129Y-100586871D01*
X84535228Y-100680560D01*
X84677415Y-100739456D01*
X84685603Y-100740534D01*
X84787593Y-100753961D01*
X84791687Y-100754500D01*
X84999974Y-100754500D01*
X85208312Y-100754499D01*
X85212396Y-100753961D01*
X85212402Y-100753961D01*
X85314398Y-100740534D01*
X85314400Y-100740533D01*
X85322585Y-100739456D01*
X85464772Y-100680560D01*
X85586871Y-100586871D01*
X85680560Y-100464772D01*
X85739456Y-100322585D01*
X85746121Y-100271961D01*
X85753962Y-100212400D01*
X85753962Y-100212399D01*
X85754500Y-100208313D01*
X85754499Y-99791688D01*
X85754499Y-99791687D01*
X86245500Y-99791687D01*
X86245501Y-100208312D01*
X86246039Y-100212396D01*
X86246039Y-100212402D01*
X86253900Y-100272115D01*
X86260544Y-100322585D01*
X86319440Y-100464772D01*
X86413129Y-100586871D01*
X86535228Y-100680560D01*
X86677415Y-100739456D01*
X86685603Y-100740534D01*
X86787593Y-100753961D01*
X86791687Y-100754500D01*
X86999974Y-100754500D01*
X87208312Y-100754499D01*
X87212396Y-100753961D01*
X87212402Y-100753961D01*
X87314398Y-100740534D01*
X87314400Y-100740533D01*
X87322585Y-100739456D01*
X87464772Y-100680560D01*
X87586871Y-100586871D01*
X87680560Y-100464772D01*
X87739456Y-100322585D01*
X87746121Y-100271961D01*
X87753962Y-100212400D01*
X87753962Y-100212399D01*
X87754500Y-100208313D01*
X87754499Y-99791688D01*
X87754499Y-99791687D01*
X88245500Y-99791687D01*
X88245501Y-100208312D01*
X88246039Y-100212396D01*
X88246039Y-100212402D01*
X88253900Y-100272115D01*
X88260544Y-100322585D01*
X88319440Y-100464772D01*
X88413129Y-100586871D01*
X88535228Y-100680560D01*
X88677415Y-100739456D01*
X88685603Y-100740534D01*
X88787593Y-100753961D01*
X88791687Y-100754500D01*
X88999974Y-100754500D01*
X89208312Y-100754499D01*
X89212396Y-100753961D01*
X89212402Y-100753961D01*
X89314398Y-100740534D01*
X89314400Y-100740533D01*
X89322585Y-100739456D01*
X89464772Y-100680560D01*
X89586871Y-100586871D01*
X89680560Y-100464772D01*
X89739456Y-100322585D01*
X89746121Y-100271961D01*
X89753962Y-100212400D01*
X89753962Y-100212399D01*
X89754500Y-100208313D01*
X89754499Y-99791688D01*
X89754499Y-99791687D01*
X90245500Y-99791687D01*
X90245501Y-100208312D01*
X90246039Y-100212396D01*
X90246039Y-100212402D01*
X90253900Y-100272115D01*
X90260544Y-100322585D01*
X90319440Y-100464772D01*
X90413129Y-100586871D01*
X90535228Y-100680560D01*
X90677415Y-100739456D01*
X90685603Y-100740534D01*
X90787593Y-100753961D01*
X90791687Y-100754500D01*
X90999974Y-100754500D01*
X91208312Y-100754499D01*
X91212396Y-100753961D01*
X91212402Y-100753961D01*
X91314398Y-100740534D01*
X91314400Y-100740533D01*
X91322585Y-100739456D01*
X91464772Y-100680560D01*
X91586871Y-100586871D01*
X91680560Y-100464772D01*
X91739456Y-100322585D01*
X91746121Y-100271961D01*
X91753962Y-100212400D01*
X91753962Y-100212399D01*
X91754500Y-100208313D01*
X91754499Y-99791688D01*
X91754499Y-99791687D01*
X92245500Y-99791687D01*
X92245501Y-100208312D01*
X92246039Y-100212396D01*
X92246039Y-100212402D01*
X92253900Y-100272115D01*
X92260544Y-100322585D01*
X92319440Y-100464772D01*
X92413129Y-100586871D01*
X92535228Y-100680560D01*
X92677415Y-100739456D01*
X92685603Y-100740534D01*
X92787593Y-100753961D01*
X92791687Y-100754500D01*
X92999974Y-100754500D01*
X93208312Y-100754499D01*
X93212396Y-100753961D01*
X93212402Y-100753961D01*
X93314398Y-100740534D01*
X93314400Y-100740533D01*
X93322585Y-100739456D01*
X93464772Y-100680560D01*
X93586871Y-100586871D01*
X93680560Y-100464772D01*
X93739456Y-100322585D01*
X93746121Y-100271961D01*
X93753962Y-100212400D01*
X93753962Y-100212399D01*
X93754500Y-100208313D01*
X93754499Y-99791688D01*
X93754499Y-99791687D01*
X94245500Y-99791687D01*
X94245501Y-100208312D01*
X94246039Y-100212396D01*
X94246039Y-100212402D01*
X94253900Y-100272115D01*
X94260544Y-100322585D01*
X94319440Y-100464772D01*
X94413129Y-100586871D01*
X94535228Y-100680560D01*
X94677415Y-100739456D01*
X94685603Y-100740534D01*
X94787593Y-100753961D01*
X94791687Y-100754500D01*
X94999974Y-100754500D01*
X95208312Y-100754499D01*
X95212396Y-100753961D01*
X95212402Y-100753961D01*
X95314398Y-100740534D01*
X95314400Y-100740533D01*
X95322585Y-100739456D01*
X95464772Y-100680560D01*
X95586871Y-100586871D01*
X95680560Y-100464772D01*
X95739456Y-100322585D01*
X95746121Y-100271961D01*
X95753962Y-100212400D01*
X95753962Y-100212399D01*
X95754500Y-100208313D01*
X95754499Y-99791688D01*
X95747953Y-99741956D01*
X95740534Y-99685602D01*
X95740533Y-99685600D01*
X95739456Y-99677415D01*
X95680560Y-99535228D01*
X95586871Y-99413129D01*
X95464772Y-99319440D01*
X95322585Y-99260544D01*
X95292597Y-99256596D01*
X95212400Y-99246038D01*
X95212399Y-99246038D01*
X95208313Y-99245500D01*
X95000026Y-99245500D01*
X94791688Y-99245501D01*
X94787604Y-99246039D01*
X94787598Y-99246039D01*
X94685602Y-99259466D01*
X94685600Y-99259467D01*
X94677415Y-99260544D01*
X94535228Y-99319440D01*
X94413129Y-99413129D01*
X94319440Y-99535228D01*
X94260544Y-99677415D01*
X94259466Y-99685602D01*
X94259466Y-99685603D01*
X94253830Y-99728417D01*
X94245500Y-99791687D01*
X93754499Y-99791687D01*
X93747953Y-99741956D01*
X93740534Y-99685602D01*
X93740533Y-99685600D01*
X93739456Y-99677415D01*
X93680560Y-99535228D01*
X93586871Y-99413129D01*
X93464772Y-99319440D01*
X93322585Y-99260544D01*
X93292597Y-99256596D01*
X93212400Y-99246038D01*
X93212399Y-99246038D01*
X93208313Y-99245500D01*
X93000026Y-99245500D01*
X92791688Y-99245501D01*
X92787604Y-99246039D01*
X92787598Y-99246039D01*
X92685602Y-99259466D01*
X92685600Y-99259467D01*
X92677415Y-99260544D01*
X92535228Y-99319440D01*
X92413129Y-99413129D01*
X92319440Y-99535228D01*
X92260544Y-99677415D01*
X92259466Y-99685602D01*
X92259466Y-99685603D01*
X92253830Y-99728417D01*
X92245500Y-99791687D01*
X91754499Y-99791687D01*
X91747953Y-99741956D01*
X91740534Y-99685602D01*
X91740533Y-99685600D01*
X91739456Y-99677415D01*
X91680560Y-99535228D01*
X91586871Y-99413129D01*
X91464772Y-99319440D01*
X91322585Y-99260544D01*
X91292597Y-99256596D01*
X91212400Y-99246038D01*
X91212399Y-99246038D01*
X91208313Y-99245500D01*
X91000026Y-99245500D01*
X90791688Y-99245501D01*
X90787604Y-99246039D01*
X90787598Y-99246039D01*
X90685602Y-99259466D01*
X90685600Y-99259467D01*
X90677415Y-99260544D01*
X90535228Y-99319440D01*
X90413129Y-99413129D01*
X90319440Y-99535228D01*
X90260544Y-99677415D01*
X90259466Y-99685602D01*
X90259466Y-99685603D01*
X90253830Y-99728417D01*
X90245500Y-99791687D01*
X89754499Y-99791687D01*
X89747953Y-99741956D01*
X89740534Y-99685602D01*
X89740533Y-99685600D01*
X89739456Y-99677415D01*
X89680560Y-99535228D01*
X89586871Y-99413129D01*
X89464772Y-99319440D01*
X89322585Y-99260544D01*
X89292597Y-99256596D01*
X89212400Y-99246038D01*
X89212399Y-99246038D01*
X89208313Y-99245500D01*
X89000026Y-99245500D01*
X88791688Y-99245501D01*
X88787604Y-99246039D01*
X88787598Y-99246039D01*
X88685602Y-99259466D01*
X88685600Y-99259467D01*
X88677415Y-99260544D01*
X88535228Y-99319440D01*
X88413129Y-99413129D01*
X88319440Y-99535228D01*
X88260544Y-99677415D01*
X88259466Y-99685602D01*
X88259466Y-99685603D01*
X88253830Y-99728417D01*
X88245500Y-99791687D01*
X87754499Y-99791687D01*
X87747953Y-99741956D01*
X87740534Y-99685602D01*
X87740533Y-99685600D01*
X87739456Y-99677415D01*
X87680560Y-99535228D01*
X87586871Y-99413129D01*
X87464772Y-99319440D01*
X87322585Y-99260544D01*
X87292597Y-99256596D01*
X87212400Y-99246038D01*
X87212399Y-99246038D01*
X87208313Y-99245500D01*
X87000026Y-99245500D01*
X86791688Y-99245501D01*
X86787604Y-99246039D01*
X86787598Y-99246039D01*
X86685602Y-99259466D01*
X86685600Y-99259467D01*
X86677415Y-99260544D01*
X86535228Y-99319440D01*
X86413129Y-99413129D01*
X86319440Y-99535228D01*
X86260544Y-99677415D01*
X86259466Y-99685602D01*
X86259466Y-99685603D01*
X86253830Y-99728417D01*
X86245500Y-99791687D01*
X85754499Y-99791687D01*
X85747953Y-99741956D01*
X85740534Y-99685602D01*
X85740533Y-99685600D01*
X85739456Y-99677415D01*
X85680560Y-99535228D01*
X85586871Y-99413129D01*
X85464772Y-99319440D01*
X85322585Y-99260544D01*
X85292597Y-99256596D01*
X85212400Y-99246038D01*
X85212399Y-99246038D01*
X85208313Y-99245500D01*
X85000026Y-99245500D01*
X84791688Y-99245501D01*
X84787604Y-99246039D01*
X84787598Y-99246039D01*
X84685602Y-99259466D01*
X84685600Y-99259467D01*
X84677415Y-99260544D01*
X84535228Y-99319440D01*
X84413129Y-99413129D01*
X84319440Y-99535228D01*
X84260544Y-99677415D01*
X84259466Y-99685602D01*
X84259466Y-99685603D01*
X84253830Y-99728417D01*
X84245500Y-99791687D01*
X83754499Y-99791687D01*
X83747953Y-99741956D01*
X83740534Y-99685602D01*
X83740533Y-99685600D01*
X83739456Y-99677415D01*
X83680560Y-99535228D01*
X83586871Y-99413129D01*
X83464772Y-99319440D01*
X83322585Y-99260544D01*
X83292597Y-99256596D01*
X83212400Y-99246038D01*
X83212399Y-99246038D01*
X83208313Y-99245500D01*
X83000026Y-99245500D01*
X82791688Y-99245501D01*
X82787604Y-99246039D01*
X82787598Y-99246039D01*
X82685602Y-99259466D01*
X82685600Y-99259467D01*
X82677415Y-99260544D01*
X82535228Y-99319440D01*
X82413129Y-99413129D01*
X82319440Y-99535228D01*
X82260544Y-99677415D01*
X82259466Y-99685602D01*
X82259466Y-99685603D01*
X82253830Y-99728417D01*
X82245500Y-99791687D01*
X59436000Y-99791687D01*
X59436000Y-99728039D01*
X70254385Y-99728039D01*
X70256596Y-99742221D01*
X70269754Y-99746000D01*
X70727885Y-99746000D01*
X70743124Y-99741525D01*
X70744329Y-99740135D01*
X70746000Y-99732452D01*
X70746000Y-99727885D01*
X71254000Y-99727885D01*
X71258475Y-99743124D01*
X71259865Y-99744329D01*
X71267548Y-99746000D01*
X71729865Y-99746000D01*
X71743636Y-99741956D01*
X71745665Y-99728417D01*
X71740046Y-99685733D01*
X71735808Y-99669915D01*
X71683283Y-99543108D01*
X71675097Y-99528930D01*
X71591540Y-99420038D01*
X71579960Y-99408458D01*
X71471072Y-99324905D01*
X71456889Y-99316717D01*
X71330084Y-99264192D01*
X71314267Y-99259954D01*
X71271961Y-99254385D01*
X71257779Y-99256596D01*
X71254000Y-99269754D01*
X71254000Y-99727885D01*
X70746000Y-99727885D01*
X70746000Y-99270135D01*
X70741956Y-99256364D01*
X70728417Y-99254335D01*
X70685733Y-99259954D01*
X70669915Y-99264192D01*
X70543108Y-99316717D01*
X70528930Y-99324903D01*
X70420038Y-99408460D01*
X70408458Y-99420040D01*
X70324905Y-99528928D01*
X70316717Y-99543111D01*
X70264192Y-99669916D01*
X70259954Y-99685733D01*
X70254385Y-99728039D01*
X59436000Y-99728039D01*
X59436000Y-98542187D01*
X59436607Y-98529837D01*
X59453998Y-98353263D01*
X59458815Y-98329043D01*
X59508518Y-98165190D01*
X59517971Y-98142371D01*
X59598681Y-97991372D01*
X59612399Y-97970842D01*
X59721026Y-97838479D01*
X59738479Y-97821026D01*
X59870842Y-97712399D01*
X59891369Y-97698683D01*
X60042371Y-97617971D01*
X60065191Y-97608518D01*
X60229043Y-97558815D01*
X60253260Y-97553999D01*
X60429837Y-97536607D01*
X60442187Y-97536000D01*
X99323813Y-97536000D01*
X99336163Y-97536607D01*
G37*
%TD.AperFunction*%
%TD*%
%TA.AperFunction,Conductor*%
%TO.N,/Source Power Rail/Vprot*%
G36*
X63691362Y-80274502D02*
G01*
X63703174Y-80283100D01*
X63705516Y-80285022D01*
X63722979Y-80302485D01*
X63831601Y-80434842D01*
X63845319Y-80455372D01*
X63926029Y-80606371D01*
X63935482Y-80629190D01*
X63985185Y-80793043D01*
X63990001Y-80817260D01*
X64003185Y-80951109D01*
X64007393Y-80993837D01*
X64008000Y-81006187D01*
X64008000Y-83086304D01*
X63987998Y-83154425D01*
X63934342Y-83200918D01*
X63864068Y-83211022D01*
X63799488Y-83181528D01*
X63761104Y-83121802D01*
X63758421Y-83110883D01*
X63753685Y-83087069D01*
X63744367Y-83064573D01*
X63702017Y-83001192D01*
X63684808Y-82983983D01*
X63621425Y-82941632D01*
X63598934Y-82932316D01*
X63543085Y-82921207D01*
X63530830Y-82920000D01*
X62534115Y-82920000D01*
X62518876Y-82924475D01*
X62517671Y-82925865D01*
X62516000Y-82933548D01*
X62516000Y-85209884D01*
X62520475Y-85225123D01*
X62521865Y-85226328D01*
X62529548Y-85227999D01*
X63530828Y-85227999D01*
X63543088Y-85226791D01*
X63598931Y-85215685D01*
X63621427Y-85206367D01*
X63684808Y-85164017D01*
X63702017Y-85146808D01*
X63744368Y-85083425D01*
X63753684Y-85060934D01*
X63758421Y-85037120D01*
X63791328Y-84974210D01*
X63853023Y-84939078D01*
X63923918Y-84942878D01*
X63981504Y-84984403D01*
X64007498Y-85050470D01*
X64008000Y-85061701D01*
X64008000Y-87639813D01*
X64007393Y-87652163D01*
X64002288Y-87704000D01*
X63990002Y-87828737D01*
X63985185Y-87852957D01*
X63935482Y-88016809D01*
X63926029Y-88039629D01*
X63894607Y-88098417D01*
X63864669Y-88154427D01*
X63845319Y-88190628D01*
X63831601Y-88211158D01*
X63722974Y-88343521D01*
X63705521Y-88360974D01*
X63573158Y-88469601D01*
X63552631Y-88483317D01*
X63460417Y-88532607D01*
X63401629Y-88564029D01*
X63378810Y-88573482D01*
X63214957Y-88623185D01*
X63190740Y-88628001D01*
X63014163Y-88645393D01*
X63001813Y-88646000D01*
X60150187Y-88646000D01*
X60137837Y-88645393D01*
X59961260Y-88628001D01*
X59937043Y-88623185D01*
X59773190Y-88573482D01*
X59750371Y-88564029D01*
X59691583Y-88532607D01*
X59599369Y-88483317D01*
X59578842Y-88469601D01*
X59446485Y-88360979D01*
X59429022Y-88343516D01*
X59427100Y-88341174D01*
X59399347Y-88275826D01*
X59398500Y-88261241D01*
X59398500Y-88063828D01*
X61057001Y-88063828D01*
X61058209Y-88076088D01*
X61069315Y-88131931D01*
X61078633Y-88154427D01*
X61120983Y-88217808D01*
X61138192Y-88235017D01*
X61201575Y-88277368D01*
X61224066Y-88286684D01*
X61279915Y-88297793D01*
X61292170Y-88299000D01*
X61903885Y-88299000D01*
X61919124Y-88294525D01*
X61920329Y-88293135D01*
X61922000Y-88285452D01*
X61922000Y-88280884D01*
X62430000Y-88280884D01*
X62434475Y-88296123D01*
X62435865Y-88297328D01*
X62443548Y-88298999D01*
X63059828Y-88298999D01*
X63072088Y-88297791D01*
X63127931Y-88286685D01*
X63150427Y-88277367D01*
X63213808Y-88235017D01*
X63231017Y-88217808D01*
X63273368Y-88154425D01*
X63282684Y-88131934D01*
X63293793Y-88076085D01*
X63295000Y-88063830D01*
X63295000Y-87722115D01*
X63290525Y-87706876D01*
X63289135Y-87705671D01*
X63281452Y-87704000D01*
X62448115Y-87704000D01*
X62432876Y-87708475D01*
X62431671Y-87709865D01*
X62430000Y-87717548D01*
X62430000Y-88280884D01*
X61922000Y-88280884D01*
X61922000Y-87722115D01*
X61917525Y-87706876D01*
X61916135Y-87705671D01*
X61908452Y-87704000D01*
X61075116Y-87704000D01*
X61059877Y-87708475D01*
X61058672Y-87709865D01*
X61057001Y-87717548D01*
X61057001Y-88063828D01*
X59398500Y-88063828D01*
X59398500Y-87177885D01*
X61057000Y-87177885D01*
X61061475Y-87193124D01*
X61062865Y-87194329D01*
X61070548Y-87196000D01*
X61903885Y-87196000D01*
X61919124Y-87191525D01*
X61920329Y-87190135D01*
X61922000Y-87182452D01*
X61922000Y-87177885D01*
X62430000Y-87177885D01*
X62434475Y-87193124D01*
X62435865Y-87194329D01*
X62443548Y-87196000D01*
X63276884Y-87196000D01*
X63292123Y-87191525D01*
X63293328Y-87190135D01*
X63294999Y-87182452D01*
X63294999Y-86836172D01*
X63293791Y-86823912D01*
X63282685Y-86768069D01*
X63273367Y-86745573D01*
X63231017Y-86682192D01*
X63213808Y-86664983D01*
X63150425Y-86622632D01*
X63127934Y-86613316D01*
X63072085Y-86602207D01*
X63059830Y-86601000D01*
X62448115Y-86601000D01*
X62432876Y-86605475D01*
X62431671Y-86606865D01*
X62430000Y-86614548D01*
X62430000Y-87177885D01*
X61922000Y-87177885D01*
X61922000Y-86619116D01*
X61917525Y-86603877D01*
X61916135Y-86602672D01*
X61908452Y-86601001D01*
X61292172Y-86601001D01*
X61279912Y-86602209D01*
X61224069Y-86613315D01*
X61201573Y-86622633D01*
X61138192Y-86664983D01*
X61120983Y-86682192D01*
X61078632Y-86745575D01*
X61069316Y-86768066D01*
X61058207Y-86823915D01*
X61057000Y-86836170D01*
X61057000Y-87177885D01*
X59398500Y-87177885D01*
X59398500Y-84992828D01*
X60758001Y-84992828D01*
X60759209Y-85005088D01*
X60770315Y-85060931D01*
X60779633Y-85083427D01*
X60821983Y-85146808D01*
X60839192Y-85164017D01*
X60902575Y-85206368D01*
X60925066Y-85215684D01*
X60980915Y-85226793D01*
X60993170Y-85228000D01*
X61989885Y-85228000D01*
X62005124Y-85223525D01*
X62006329Y-85222135D01*
X62008000Y-85214452D01*
X62008000Y-84346115D01*
X62003525Y-84330876D01*
X62002135Y-84329671D01*
X61994452Y-84328000D01*
X60776116Y-84328000D01*
X60760877Y-84332475D01*
X60759672Y-84333865D01*
X60758001Y-84341548D01*
X60758001Y-84992828D01*
X59398500Y-84992828D01*
X59398500Y-83801885D01*
X60758000Y-83801885D01*
X60762475Y-83817124D01*
X60763865Y-83818329D01*
X60771548Y-83820000D01*
X61989885Y-83820000D01*
X62005124Y-83815525D01*
X62006329Y-83814135D01*
X62008000Y-83806452D01*
X62008000Y-82938116D01*
X62003525Y-82922877D01*
X62002135Y-82921672D01*
X61994452Y-82920001D01*
X60993172Y-82920001D01*
X60980912Y-82921209D01*
X60925069Y-82932315D01*
X60902573Y-82941633D01*
X60839192Y-82983983D01*
X60821983Y-83001192D01*
X60779632Y-83064575D01*
X60770316Y-83087066D01*
X60759207Y-83142915D01*
X60758000Y-83155170D01*
X60758000Y-83801885D01*
X59398500Y-83801885D01*
X59398500Y-81037476D01*
X59400921Y-81012894D01*
X59401065Y-81012170D01*
X59403486Y-81000000D01*
X59401065Y-80987830D01*
X59401065Y-80980144D01*
X59401672Y-80967793D01*
X59411609Y-80866908D01*
X59416425Y-80842691D01*
X59451649Y-80726574D01*
X59461093Y-80703774D01*
X59518292Y-80596761D01*
X59532011Y-80576230D01*
X59608981Y-80482444D01*
X59626444Y-80464981D01*
X59720230Y-80388011D01*
X59740761Y-80374292D01*
X59847774Y-80317093D01*
X59870574Y-80307649D01*
X59986691Y-80272425D01*
X60010908Y-80267609D01*
X60111793Y-80257672D01*
X60124144Y-80257065D01*
X60131830Y-80257065D01*
X60144000Y-80259486D01*
X60156897Y-80256921D01*
X60181476Y-80254500D01*
X63623241Y-80254500D01*
X63691362Y-80274502D01*
G37*
%TD.AperFunction*%
%TD*%
%TA.AperFunction,Conductor*%
%TO.N,Dat0*%
G36*
X57898337Y-100528002D02*
G01*
X57944830Y-100581658D01*
X57955138Y-100650446D01*
X57940715Y-100760000D01*
X57959772Y-100904754D01*
X58015645Y-101039642D01*
X58104526Y-101155474D01*
X58111076Y-101160500D01*
X58111079Y-101160503D01*
X58145573Y-101186971D01*
X58220357Y-101244355D01*
X58355246Y-101300228D01*
X58500000Y-101319285D01*
X58508188Y-101318207D01*
X58636566Y-101301306D01*
X58644754Y-101300228D01*
X58779643Y-101244355D01*
X58854427Y-101186971D01*
X58888921Y-101160503D01*
X58888924Y-101160500D01*
X58895474Y-101155474D01*
X58900501Y-101148923D01*
X58900505Y-101148919D01*
X58910738Y-101135583D01*
X58968076Y-101093716D01*
X59038947Y-101089494D01*
X59100850Y-101124258D01*
X59134131Y-101186971D01*
X59135908Y-101198181D01*
X59142410Y-101255894D01*
X59142410Y-101284107D01*
X59126484Y-101425456D01*
X59120205Y-101452965D01*
X59073228Y-101587216D01*
X59060987Y-101612635D01*
X58985306Y-101733082D01*
X58967713Y-101755142D01*
X58867142Y-101855713D01*
X58845082Y-101873306D01*
X58724635Y-101948987D01*
X58699216Y-101961228D01*
X58564963Y-102008206D01*
X58537457Y-102014484D01*
X58389029Y-102031208D01*
X58374921Y-102032000D01*
X51531079Y-102032000D01*
X51516971Y-102031208D01*
X51368543Y-102014484D01*
X51341037Y-102008206D01*
X51206784Y-101961228D01*
X51181365Y-101948987D01*
X51060918Y-101873306D01*
X51038858Y-101855713D01*
X50938287Y-101755142D01*
X50920694Y-101733082D01*
X50845013Y-101612635D01*
X50832772Y-101587216D01*
X50785795Y-101452965D01*
X50779516Y-101425456D01*
X50763590Y-101284107D01*
X50763590Y-101255893D01*
X50779516Y-101114544D01*
X50785795Y-101087035D01*
X50800087Y-101046193D01*
X50832772Y-100952784D01*
X50845013Y-100927365D01*
X50920694Y-100806918D01*
X50938287Y-100784858D01*
X51038858Y-100684287D01*
X51060918Y-100666694D01*
X51181365Y-100591013D01*
X51206784Y-100578772D01*
X51341037Y-100531794D01*
X51368543Y-100525516D01*
X51516971Y-100508792D01*
X51531079Y-100508000D01*
X57830216Y-100508000D01*
X57898337Y-100528002D01*
G37*
%TD.AperFunction*%
%TD*%
%TA.AperFunction,Conductor*%
%TO.N,GND*%
G36*
X149006163Y-97536607D02*
G01*
X149182740Y-97553999D01*
X149206957Y-97558815D01*
X149370809Y-97608518D01*
X149393629Y-97617971D01*
X149544631Y-97698683D01*
X149565158Y-97712399D01*
X149697514Y-97821020D01*
X149714978Y-97838484D01*
X149716900Y-97840826D01*
X149744653Y-97906174D01*
X149745500Y-97920759D01*
X149745500Y-116332000D01*
X100838000Y-116332000D01*
X100838000Y-98542187D01*
X100838607Y-98529837D01*
X100855998Y-98353263D01*
X100860815Y-98329043D01*
X100910518Y-98165190D01*
X100919971Y-98142371D01*
X101000681Y-97991372D01*
X101014399Y-97970842D01*
X101123026Y-97838479D01*
X101140479Y-97821026D01*
X101272842Y-97712399D01*
X101293369Y-97698683D01*
X101444371Y-97617971D01*
X101467191Y-97608518D01*
X101631043Y-97558815D01*
X101655260Y-97553999D01*
X101831837Y-97536607D01*
X101844187Y-97536000D01*
X148993813Y-97536000D01*
X149006163Y-97536607D01*
G37*
%TD.AperFunction*%
%TD*%
%TA.AperFunction,Conductor*%
%TO.N,Vin*%
G36*
X72073362Y-80274502D02*
G01*
X72085174Y-80283100D01*
X72087516Y-80285022D01*
X72104979Y-80302485D01*
X72213601Y-80434842D01*
X72227319Y-80455372D01*
X72308029Y-80606371D01*
X72317482Y-80629190D01*
X72367185Y-80793043D01*
X72372002Y-80817263D01*
X72389393Y-80993837D01*
X72390000Y-81006187D01*
X72390000Y-87639813D01*
X72389393Y-87652163D01*
X72372002Y-87828737D01*
X72367185Y-87852957D01*
X72317482Y-88016809D01*
X72308029Y-88039629D01*
X72227319Y-88190628D01*
X72213601Y-88211158D01*
X72104974Y-88343521D01*
X72087521Y-88360974D01*
X71955158Y-88469601D01*
X71934631Y-88483317D01*
X71842417Y-88532607D01*
X71783629Y-88564029D01*
X71760810Y-88573482D01*
X71596957Y-88623185D01*
X71572740Y-88628001D01*
X71396163Y-88645393D01*
X71383813Y-88646000D01*
X65522187Y-88646000D01*
X65509837Y-88645393D01*
X65333260Y-88628001D01*
X65309043Y-88623185D01*
X65145190Y-88573482D01*
X65122371Y-88564029D01*
X65063583Y-88532607D01*
X64971369Y-88483317D01*
X64950842Y-88469601D01*
X64818479Y-88360974D01*
X64801026Y-88343521D01*
X64692399Y-88211158D01*
X64678681Y-88190628D01*
X64597971Y-88039629D01*
X64588518Y-88016809D01*
X64538815Y-87852957D01*
X64533998Y-87828737D01*
X64516607Y-87652163D01*
X64516000Y-87639813D01*
X64516000Y-85061696D01*
X64536002Y-84993575D01*
X64589658Y-84947082D01*
X64659932Y-84936978D01*
X64724512Y-84966472D01*
X64762896Y-85026198D01*
X64765579Y-85037117D01*
X64770315Y-85060931D01*
X64779633Y-85083427D01*
X64821983Y-85146808D01*
X64839192Y-85164017D01*
X64902575Y-85206368D01*
X64925066Y-85215684D01*
X64980915Y-85226793D01*
X64993170Y-85228000D01*
X65989885Y-85228000D01*
X66005124Y-85223525D01*
X66006329Y-85222135D01*
X66008000Y-85214452D01*
X66008000Y-85209884D01*
X66516000Y-85209884D01*
X66520475Y-85225123D01*
X66521865Y-85226328D01*
X66529548Y-85227999D01*
X67530828Y-85227999D01*
X67543088Y-85226791D01*
X67598931Y-85215685D01*
X67621427Y-85206367D01*
X67684808Y-85164017D01*
X67702017Y-85146808D01*
X67744368Y-85083425D01*
X67753684Y-85060934D01*
X67764793Y-85005085D01*
X67766000Y-84992830D01*
X67766000Y-84346115D01*
X67765844Y-84345583D01*
X69254335Y-84345583D01*
X69259954Y-84388267D01*
X69264192Y-84404085D01*
X69316717Y-84530892D01*
X69324903Y-84545070D01*
X69408460Y-84653962D01*
X69420040Y-84665542D01*
X69528928Y-84749095D01*
X69543111Y-84757283D01*
X69669916Y-84809808D01*
X69685733Y-84814046D01*
X69728039Y-84819615D01*
X69742221Y-84817404D01*
X69746000Y-84804246D01*
X69746000Y-84803865D01*
X70254000Y-84803865D01*
X70258044Y-84817636D01*
X70271583Y-84819665D01*
X70314267Y-84814046D01*
X70330085Y-84809808D01*
X70456892Y-84757283D01*
X70471070Y-84749097D01*
X70579962Y-84665540D01*
X70591542Y-84653960D01*
X70675095Y-84545072D01*
X70683283Y-84530889D01*
X70735808Y-84404084D01*
X70740046Y-84388267D01*
X70745615Y-84345961D01*
X70743404Y-84331779D01*
X70730246Y-84328000D01*
X70272115Y-84328000D01*
X70256876Y-84332475D01*
X70255671Y-84333865D01*
X70254000Y-84341548D01*
X70254000Y-84803865D01*
X69746000Y-84803865D01*
X69746000Y-84346115D01*
X69741525Y-84330876D01*
X69740135Y-84329671D01*
X69732452Y-84328000D01*
X69270135Y-84328000D01*
X69256364Y-84332044D01*
X69254335Y-84345583D01*
X67765844Y-84345583D01*
X67761525Y-84330876D01*
X67760135Y-84329671D01*
X67752452Y-84328000D01*
X66534115Y-84328000D01*
X66518876Y-84332475D01*
X66517671Y-84333865D01*
X66516000Y-84341548D01*
X66516000Y-85209884D01*
X66008000Y-85209884D01*
X66008000Y-83801885D01*
X66516000Y-83801885D01*
X66520475Y-83817124D01*
X66521865Y-83818329D01*
X66529548Y-83820000D01*
X67747884Y-83820000D01*
X67763123Y-83815525D01*
X67764328Y-83814135D01*
X67765999Y-83806452D01*
X67765999Y-83802039D01*
X69254385Y-83802039D01*
X69256596Y-83816221D01*
X69269754Y-83820000D01*
X69727885Y-83820000D01*
X69743124Y-83815525D01*
X69744329Y-83814135D01*
X69746000Y-83806452D01*
X69746000Y-83801885D01*
X70254000Y-83801885D01*
X70258475Y-83817124D01*
X70259865Y-83818329D01*
X70267548Y-83820000D01*
X70729865Y-83820000D01*
X70743636Y-83815956D01*
X70745665Y-83802417D01*
X70740046Y-83759733D01*
X70735808Y-83743915D01*
X70683283Y-83617108D01*
X70675097Y-83602930D01*
X70591540Y-83494038D01*
X70579960Y-83482458D01*
X70471072Y-83398905D01*
X70456889Y-83390717D01*
X70330084Y-83338192D01*
X70314267Y-83333954D01*
X70271961Y-83328385D01*
X70257779Y-83330596D01*
X70254000Y-83343754D01*
X70254000Y-83801885D01*
X69746000Y-83801885D01*
X69746000Y-83344135D01*
X69741956Y-83330364D01*
X69728417Y-83328335D01*
X69685733Y-83333954D01*
X69669915Y-83338192D01*
X69543108Y-83390717D01*
X69528930Y-83398903D01*
X69420038Y-83482460D01*
X69408458Y-83494040D01*
X69324905Y-83602928D01*
X69316717Y-83617111D01*
X69264192Y-83743916D01*
X69259954Y-83759733D01*
X69254385Y-83802039D01*
X67765999Y-83802039D01*
X67765999Y-83155172D01*
X67764791Y-83142912D01*
X67753685Y-83087069D01*
X67744367Y-83064573D01*
X67702017Y-83001192D01*
X67684808Y-82983983D01*
X67621425Y-82941632D01*
X67598934Y-82932316D01*
X67543085Y-82921207D01*
X67530830Y-82920000D01*
X66534115Y-82920000D01*
X66518876Y-82924475D01*
X66517671Y-82925865D01*
X66516000Y-82933548D01*
X66516000Y-83801885D01*
X66008000Y-83801885D01*
X66008000Y-82938116D01*
X66003525Y-82922877D01*
X66002135Y-82921672D01*
X65994452Y-82920001D01*
X64993172Y-82920001D01*
X64980912Y-82921209D01*
X64925069Y-82932315D01*
X64902573Y-82941633D01*
X64839192Y-82983983D01*
X64821983Y-83001192D01*
X64779632Y-83064575D01*
X64770316Y-83087066D01*
X64765579Y-83110880D01*
X64732672Y-83173790D01*
X64670977Y-83208922D01*
X64600082Y-83205122D01*
X64542496Y-83163597D01*
X64516502Y-83097530D01*
X64516000Y-83086299D01*
X64516000Y-81006187D01*
X64516607Y-80993837D01*
X64533998Y-80817263D01*
X64538815Y-80793043D01*
X64588518Y-80629190D01*
X64597971Y-80606371D01*
X64678681Y-80455372D01*
X64692399Y-80434842D01*
X64801021Y-80302485D01*
X64818484Y-80285022D01*
X64820826Y-80283100D01*
X64886174Y-80255347D01*
X64900759Y-80254500D01*
X72005241Y-80254500D01*
X72073362Y-80274502D01*
G37*
%TD.AperFunction*%
%TD*%
%TA.AperFunction,Conductor*%
%TO.N,GND*%
G36*
X63091949Y-102870607D02*
G01*
X63268527Y-102887999D01*
X63292744Y-102892815D01*
X63456596Y-102942518D01*
X63479416Y-102951971D01*
X63630412Y-103032680D01*
X63650950Y-103046403D01*
X63788114Y-103158971D01*
X63797275Y-103167275D01*
X70000554Y-109370554D01*
X70029440Y-109415419D01*
X70077929Y-109544764D01*
X70083309Y-109551943D01*
X70083311Y-109551946D01*
X70107879Y-109584727D01*
X70164596Y-109660404D01*
X70171776Y-109665785D01*
X70273054Y-109741689D01*
X70273057Y-109741691D01*
X70280236Y-109747071D01*
X70409581Y-109795560D01*
X70454446Y-109824446D01*
X70610906Y-109980906D01*
X70644932Y-110043218D01*
X70639867Y-110114033D01*
X70597320Y-110170869D01*
X70530800Y-110195680D01*
X70521811Y-110196001D01*
X70480708Y-110196001D01*
X70473890Y-110196370D01*
X70423518Y-110201841D01*
X70408259Y-110205470D01*
X70288882Y-110250222D01*
X70273296Y-110258754D01*
X70172133Y-110334572D01*
X70159572Y-110347133D01*
X70083754Y-110448296D01*
X70075222Y-110463882D01*
X70030467Y-110583265D01*
X70026842Y-110598510D01*
X70021369Y-110648892D01*
X70021000Y-110655706D01*
X70021000Y-110677885D01*
X70025475Y-110693124D01*
X70026865Y-110694329D01*
X70034548Y-110696000D01*
X71128000Y-110696000D01*
X71196121Y-110716002D01*
X71242614Y-110769658D01*
X71254000Y-110822000D01*
X71254000Y-111685884D01*
X71258475Y-111701123D01*
X71259865Y-111702328D01*
X71267548Y-111703999D01*
X71519292Y-111703999D01*
X71526110Y-111703630D01*
X71576482Y-111698159D01*
X71591741Y-111694530D01*
X71711118Y-111649778D01*
X71726704Y-111641246D01*
X71827867Y-111565428D01*
X71840429Y-111552866D01*
X71899970Y-111473421D01*
X71956830Y-111430906D01*
X72027648Y-111425880D01*
X72089891Y-111459891D01*
X76962000Y-116332000D01*
X149745500Y-116332000D01*
X149745500Y-118962524D01*
X149743079Y-118987103D01*
X149740514Y-119000000D01*
X149742935Y-119012170D01*
X149742935Y-119019856D01*
X149742328Y-119032207D01*
X149732391Y-119133092D01*
X149727575Y-119157309D01*
X149692351Y-119273426D01*
X149682907Y-119296226D01*
X149625708Y-119403239D01*
X149611989Y-119423770D01*
X149535019Y-119517556D01*
X149517556Y-119535019D01*
X149423770Y-119611989D01*
X149403239Y-119625708D01*
X149296226Y-119682907D01*
X149273426Y-119692351D01*
X149157309Y-119727575D01*
X149133092Y-119732391D01*
X149032207Y-119742328D01*
X149019856Y-119742935D01*
X149012170Y-119742935D01*
X149000000Y-119740514D01*
X148987103Y-119743079D01*
X148962524Y-119745500D01*
X70180761Y-119745500D01*
X70156641Y-119743169D01*
X70143038Y-119740516D01*
X70130875Y-119742982D01*
X70118561Y-119743028D01*
X70107791Y-119742606D01*
X69971926Y-119731449D01*
X69950681Y-119727856D01*
X69841033Y-119699481D01*
X69794919Y-119687548D01*
X69774590Y-119680383D01*
X69653636Y-119625714D01*
X69627978Y-119614117D01*
X69609169Y-119603592D01*
X69476005Y-119513311D01*
X69459263Y-119499733D01*
X69361212Y-119405212D01*
X69354584Y-119396656D01*
X69353760Y-119397376D01*
X69345595Y-119388031D01*
X69339411Y-119377273D01*
X69318771Y-119361374D01*
X69306567Y-119350650D01*
X61200210Y-111244292D01*
X70021001Y-111244292D01*
X70021370Y-111251110D01*
X70026841Y-111301482D01*
X70030470Y-111316741D01*
X70075222Y-111436118D01*
X70083754Y-111451704D01*
X70159572Y-111552867D01*
X70172133Y-111565428D01*
X70273296Y-111641246D01*
X70288882Y-111649778D01*
X70408265Y-111694533D01*
X70423510Y-111698158D01*
X70473892Y-111703631D01*
X70480706Y-111704000D01*
X70727885Y-111704000D01*
X70743124Y-111699525D01*
X70744329Y-111698135D01*
X70746000Y-111690452D01*
X70746000Y-111222115D01*
X70741525Y-111206876D01*
X70740135Y-111205671D01*
X70732452Y-111204000D01*
X70039116Y-111204000D01*
X70023877Y-111208475D01*
X70022672Y-111209865D01*
X70021001Y-111217548D01*
X70021001Y-111244292D01*
X61200210Y-111244292D01*
X59357851Y-109401933D01*
X59351235Y-109394786D01*
X59347187Y-109390058D01*
X59341110Y-109379238D01*
X59333353Y-109373138D01*
X59328049Y-109367707D01*
X59327838Y-109367460D01*
X59327594Y-109367240D01*
X59182604Y-109218765D01*
X59179367Y-109216220D01*
X59179362Y-109216215D01*
X59037544Y-109104694D01*
X59005371Y-109079394D01*
X58811462Y-108964350D01*
X58807673Y-108962728D01*
X58807670Y-108962726D01*
X58607983Y-108877221D01*
X58604195Y-108875599D01*
X58387118Y-108814662D01*
X58383032Y-108814075D01*
X58383029Y-108814074D01*
X58181750Y-108785140D01*
X58181369Y-108785060D01*
X58180986Y-108785030D01*
X58173582Y-108783966D01*
X58164044Y-108781289D01*
X58151719Y-108782763D01*
X58136291Y-108784608D01*
X58121329Y-108785500D01*
X51037476Y-108785500D01*
X51012897Y-108783079D01*
X51000000Y-108780514D01*
X50987830Y-108782935D01*
X50980144Y-108782935D01*
X50967793Y-108782328D01*
X50866908Y-108772391D01*
X50842691Y-108767575D01*
X50726574Y-108732351D01*
X50703774Y-108722907D01*
X50596761Y-108665708D01*
X50576230Y-108651989D01*
X50482444Y-108575019D01*
X50464981Y-108557556D01*
X50388011Y-108463770D01*
X50374292Y-108443239D01*
X50317093Y-108336226D01*
X50307649Y-108313426D01*
X50272425Y-108197309D01*
X50267609Y-108173092D01*
X50257672Y-108072207D01*
X50257065Y-108059856D01*
X50257065Y-108052170D01*
X50259486Y-108040000D01*
X50256921Y-108027103D01*
X50254500Y-108002524D01*
X50254500Y-106271583D01*
X60254335Y-106271583D01*
X60259954Y-106314267D01*
X60264192Y-106330085D01*
X60316717Y-106456892D01*
X60324903Y-106471070D01*
X60408460Y-106579962D01*
X60420040Y-106591542D01*
X60528928Y-106675095D01*
X60543111Y-106683283D01*
X60669916Y-106735808D01*
X60685733Y-106740046D01*
X60728039Y-106745615D01*
X60742221Y-106743404D01*
X60746000Y-106730246D01*
X60746000Y-106729865D01*
X61254000Y-106729865D01*
X61258044Y-106743636D01*
X61271583Y-106745665D01*
X61314267Y-106740046D01*
X61330085Y-106735808D01*
X61456892Y-106683283D01*
X61471070Y-106675097D01*
X61579962Y-106591540D01*
X61591542Y-106579960D01*
X61675095Y-106471072D01*
X61683283Y-106456889D01*
X61735808Y-106330084D01*
X61740046Y-106314267D01*
X61745615Y-106271961D01*
X61743404Y-106257779D01*
X61730246Y-106254000D01*
X61272115Y-106254000D01*
X61256876Y-106258475D01*
X61255671Y-106259865D01*
X61254000Y-106267548D01*
X61254000Y-106729865D01*
X60746000Y-106729865D01*
X60746000Y-106272115D01*
X60741525Y-106256876D01*
X60740135Y-106255671D01*
X60732452Y-106254000D01*
X60270135Y-106254000D01*
X60256364Y-106258044D01*
X60254335Y-106271583D01*
X50254500Y-106271583D01*
X50254500Y-105728039D01*
X60254385Y-105728039D01*
X60256596Y-105742221D01*
X60269754Y-105746000D01*
X60727885Y-105746000D01*
X60743124Y-105741525D01*
X60744329Y-105740135D01*
X60746000Y-105732452D01*
X60746000Y-105727885D01*
X61254000Y-105727885D01*
X61258475Y-105743124D01*
X61259865Y-105744329D01*
X61267548Y-105746000D01*
X61729865Y-105746000D01*
X61743636Y-105741956D01*
X61745665Y-105728417D01*
X61740046Y-105685733D01*
X61735808Y-105669915D01*
X61683283Y-105543108D01*
X61675097Y-105528930D01*
X61591540Y-105420038D01*
X61579960Y-105408458D01*
X61471072Y-105324905D01*
X61456889Y-105316717D01*
X61330084Y-105264192D01*
X61314267Y-105259954D01*
X61271961Y-105254385D01*
X61257779Y-105256596D01*
X61254000Y-105269754D01*
X61254000Y-105727885D01*
X60746000Y-105727885D01*
X60746000Y-105270135D01*
X60741956Y-105256364D01*
X60728417Y-105254335D01*
X60685733Y-105259954D01*
X60669915Y-105264192D01*
X60543108Y-105316717D01*
X60528930Y-105324903D01*
X60420038Y-105408460D01*
X60408458Y-105420040D01*
X60324905Y-105528928D01*
X60316717Y-105543111D01*
X60264192Y-105669916D01*
X60259954Y-105685733D01*
X60254385Y-105728039D01*
X50254500Y-105728039D01*
X50254500Y-103254759D01*
X50274502Y-103186638D01*
X50283100Y-103174826D01*
X50285022Y-103172484D01*
X50302485Y-103155021D01*
X50434842Y-103046399D01*
X50455369Y-103032683D01*
X50606371Y-102951971D01*
X50629191Y-102942518D01*
X50793043Y-102892815D01*
X50817260Y-102887999D01*
X50993837Y-102870607D01*
X51006187Y-102870000D01*
X63079599Y-102870000D01*
X63091949Y-102870607D01*
G37*
%TD.AperFunction*%
%TD*%
M02*
