M48
; DRILL file {KiCad 6.0.11+dfsg-1~bpo11+1} date Wed 27 Mar 2024 03:19:08 PM
; FORMAT={-:-/ absolute / inch / decimal}
; #@! TF.CreationDate,2024-03-27T15:19:08-04:00
; #@! TF.GenerationSoftware,Kicad,Pcbnew,6.0.11+dfsg-1~bpo11+1
; #@! TF.FileFunction,Plated,1,2,PTH
FMAT,2
INCH
; #@! TA.AperFunction,Plated,PTH,ViaDrill
T1C0.0157
; #@! TA.AperFunction,Plated,PTH,ViaDrill
T2C0.0236
; #@! TA.AperFunction,Plated,PTH,ComponentDrill
T3C0.0236
; #@! TA.AperFunction,Plated,PTH,ViaDrill
T4C0.0315
; #@! TA.AperFunction,Plated,PTH,ComponentDrill
T5C0.0315
; #@! TA.AperFunction,Plated,PTH,ComponentDrill
T6C0.0394
; #@! TA.AperFunction,Plated,PTH,ComponentDrill
T7C0.1181
%
G90
G05
T1
X4.59Y-4.047
X5.1Y-3.937
X5.34Y-3.937
X5.46Y-3.89
X5.46Y-3.99
X5.5318Y-4.0479
X5.5322Y-3.829
T2
X5.0039Y-3.937
T4
X4.9213Y-3.5827
X4.9213Y-4.2913
X5.8661Y-3.5827
X5.8661Y-4.2913
T5
X4.39Y-3.84
X4.39Y-4.14
T6
X4.0939Y-3.837
X4.0939Y-3.937
X4.0939Y-4.037
T3
G00X5.6189Y-3.7669
M15
G01X5.6622Y-3.7669
M16
G05
G00X5.6189Y-4.1071
M15
G01X5.6622Y-4.1071
M16
G05
G00X5.7933Y-3.7669
M15
G01X5.8169Y-3.7669
M16
G05
G00X5.7933Y-4.1071
M15
G01X5.8169Y-4.1071
M16
G05
T7
G00X5.8138Y-3.9272
M15
G01X5.8138Y-3.9469
M16
G05
T0
M30
