%TF.GenerationSoftware,KiCad,Pcbnew,6.0.11+dfsg-1~bpo11+1*%
%TF.CreationDate,2024-03-27T15:19:12-04:00*%
%TF.ProjectId,Tool - ATTiny Module Flasher,546f6f6c-202d-4204-9154-54696e79204d,1.0.0*%
%TF.SameCoordinates,Original*%
%TF.FileFunction,Paste,Top*%
%TF.FilePolarity,Positive*%
%FSLAX46Y46*%
G04 Gerber Fmt 4.6, Leading zero omitted, Abs format (unit mm)*
G04 Created by KiCad (PCBNEW 6.0.11+dfsg-1~bpo11+1) date 2024-03-27 15:19:12*
%MOMM*%
%LPD*%
G01*
G04 APERTURE LIST*
G04 Aperture macros list*
%AMRoundRect*
0 Rectangle with rounded corners*
0 $1 Rounding radius*
0 $2 $3 $4 $5 $6 $7 $8 $9 X,Y pos of 4 corners*
0 Add a 4 corners polygon primitive as box body*
4,1,4,$2,$3,$4,$5,$6,$7,$8,$9,$2,$3,0*
0 Add four circle primitives for the rounded corners*
1,1,$1+$1,$2,$3*
1,1,$1+$1,$4,$5*
1,1,$1+$1,$6,$7*
1,1,$1+$1,$8,$9*
0 Add four rect primitives between the rounded corners*
20,1,$1+$1,$2,$3,$4,$5,0*
20,1,$1+$1,$4,$5,$6,$7,0*
20,1,$1+$1,$6,$7,$8,$9,0*
20,1,$1+$1,$8,$9,$2,$3,0*%
G04 Aperture macros list end*
%ADD10RoundRect,0.200000X0.275000X-0.200000X0.275000X0.200000X-0.275000X0.200000X-0.275000X-0.200000X0*%
%ADD11RoundRect,0.200000X-0.275000X0.200000X-0.275000X-0.200000X0.275000X-0.200000X0.275000X0.200000X0*%
%ADD12RoundRect,0.218750X0.218750X0.256250X-0.218750X0.256250X-0.218750X-0.256250X0.218750X-0.256250X0*%
%ADD13RoundRect,0.225000X-0.250000X0.225000X-0.250000X-0.225000X0.250000X-0.225000X0.250000X0.225000X0*%
%ADD14R,0.900000X1.200000*%
%ADD15R,1.450000X0.600000*%
%ADD16R,1.450000X0.300000*%
%ADD17RoundRect,0.525000X0.525000X-0.725000X0.525000X0.725000X-0.525000X0.725000X-0.525000X-0.725000X0*%
%ADD18RoundRect,0.400000X0.400000X-1.600000X0.400000X1.600000X-0.400000X1.600000X-0.400000X-1.600000X0*%
%ADD19RoundRect,0.225000X0.250000X-0.225000X0.250000X0.225000X-0.250000X0.225000X-0.250000X-0.225000X0*%
%ADD20RoundRect,0.237500X-0.237500X0.400000X-0.237500X-0.400000X0.237500X-0.400000X0.237500X0.400000X0*%
%ADD21RoundRect,0.237500X0.237500X-0.400000X0.237500X0.400000X-0.237500X0.400000X-0.237500X-0.400000X0*%
%ADD22RoundRect,0.250000X-0.875000X-0.925000X0.875000X-0.925000X0.875000X0.925000X-0.875000X0.925000X0*%
%ADD23RoundRect,0.150000X0.150000X-0.825000X0.150000X0.825000X-0.150000X0.825000X-0.150000X-0.825000X0*%
%ADD24RoundRect,0.200000X-0.200000X-0.275000X0.200000X-0.275000X0.200000X0.275000X-0.200000X0.275000X0*%
%ADD25R,2.000000X1.500000*%
%ADD26R,2.000000X3.800000*%
G04 APERTURE END LIST*
D10*
%TO.C,R103*%
X139446000Y-97523000D03*
X139446000Y-95873000D03*
%TD*%
D11*
%TO.C,R102*%
X139446000Y-102477000D03*
X139446000Y-104127000D03*
%TD*%
D12*
%TO.C,D202*%
X112293500Y-107188000D03*
X110718500Y-107188000D03*
%TD*%
D13*
%TO.C,C302*%
X128905000Y-104635000D03*
X128905000Y-106185000D03*
%TD*%
D14*
%TO.C,D902*%
X123316000Y-94996000D03*
X120016000Y-94996000D03*
%TD*%
D15*
%TO.C,J102*%
X142355000Y-103250000D03*
X142355000Y-102450000D03*
D16*
X142355000Y-101250000D03*
X142355000Y-100250000D03*
X142355000Y-99750000D03*
X142355000Y-98750000D03*
D15*
X142355000Y-97550000D03*
X142355000Y-96750000D03*
X142355000Y-96750000D03*
X142355000Y-97550000D03*
D16*
X142355000Y-98250000D03*
X142355000Y-99250000D03*
X142355000Y-100750000D03*
X142355000Y-101750000D03*
D15*
X142355000Y-102450000D03*
X142355000Y-103250000D03*
D17*
X143281795Y-105096965D03*
D18*
X147450000Y-94153035D03*
X147450000Y-105846965D03*
D17*
X143281795Y-94903035D03*
%TD*%
D19*
%TO.C,C303*%
X125095000Y-95517000D03*
X125095000Y-93967000D03*
%TD*%
D20*
%TO.C,D104*%
X137922000Y-102496000D03*
X137922000Y-104616000D03*
%TD*%
D21*
%TO.C,D105*%
X137922000Y-97504000D03*
X137922000Y-95384000D03*
%TD*%
D22*
%TO.C,C202*%
X121148000Y-105918000D03*
X126248000Y-105918000D03*
%TD*%
D21*
%TO.C,D103*%
X136398000Y-97504000D03*
X136398000Y-95384000D03*
%TD*%
D23*
%TO.C,U303*%
X125095000Y-102475000D03*
X126365000Y-102475000D03*
X127635000Y-102475000D03*
X128905000Y-102475000D03*
X130175000Y-102475000D03*
X131445000Y-102475000D03*
X132715000Y-102475000D03*
X133985000Y-102475000D03*
X133985000Y-97525000D03*
X132715000Y-97525000D03*
X131445000Y-97525000D03*
X130175000Y-97525000D03*
X128905000Y-97525000D03*
X127635000Y-97525000D03*
X126365000Y-97525000D03*
X125095000Y-97525000D03*
%TD*%
D20*
%TO.C,D102*%
X136398000Y-102496000D03*
X136398000Y-104616000D03*
%TD*%
D24*
%TO.C,R202*%
X113983000Y-107188000D03*
X115633000Y-107188000D03*
%TD*%
D25*
%TO.C,U202*%
X114960000Y-97700000D03*
D26*
X121260000Y-100000000D03*
D25*
X114960000Y-100000000D03*
X114960000Y-102300000D03*
%TD*%
M02*
