%TF.GenerationSoftware,KiCad,Pcbnew,6.0.11+dfsg-1~bpo11+1*%
%TF.CreationDate,2024-03-27T15:19:12-04:00*%
%TF.ProjectId,Tool - ATTiny Module Flasher,546f6f6c-202d-4204-9154-54696e79204d,1.0.0*%
%TF.SameCoordinates,Original*%
%TF.FileFunction,Copper,L1,Top*%
%TF.FilePolarity,Positive*%
%FSLAX46Y46*%
G04 Gerber Fmt 4.6, Leading zero omitted, Abs format (unit mm)*
G04 Created by KiCad (PCBNEW 6.0.11+dfsg-1~bpo11+1) date 2024-03-27 15:19:12*
%MOMM*%
%LPD*%
G01*
G04 APERTURE LIST*
G04 Aperture macros list*
%AMRoundRect*
0 Rectangle with rounded corners*
0 $1 Rounding radius*
0 $2 $3 $4 $5 $6 $7 $8 $9 X,Y pos of 4 corners*
0 Add a 4 corners polygon primitive as box body*
4,1,4,$2,$3,$4,$5,$6,$7,$8,$9,$2,$3,0*
0 Add four circle primitives for the rounded corners*
1,1,$1+$1,$2,$3*
1,1,$1+$1,$4,$5*
1,1,$1+$1,$6,$7*
1,1,$1+$1,$8,$9*
0 Add four rect primitives between the rounded corners*
20,1,$1+$1,$2,$3,$4,$5,0*
20,1,$1+$1,$4,$5,$6,$7,0*
20,1,$1+$1,$6,$7,$8,$9,0*
20,1,$1+$1,$8,$9,$2,$3,0*%
G04 Aperture macros list end*
%TA.AperFunction,SMDPad,CuDef*%
%ADD10RoundRect,0.200000X0.275000X-0.200000X0.275000X0.200000X-0.275000X0.200000X-0.275000X-0.200000X0*%
%TD*%
%TA.AperFunction,SMDPad,CuDef*%
%ADD11RoundRect,0.200000X-0.275000X0.200000X-0.275000X-0.200000X0.275000X-0.200000X0.275000X0.200000X0*%
%TD*%
%TA.AperFunction,SMDPad,CuDef*%
%ADD12RoundRect,0.218750X0.218750X0.256250X-0.218750X0.256250X-0.218750X-0.256250X0.218750X-0.256250X0*%
%TD*%
%TA.AperFunction,SMDPad,CuDef*%
%ADD13RoundRect,0.225000X-0.250000X0.225000X-0.250000X-0.225000X0.250000X-0.225000X0.250000X0.225000X0*%
%TD*%
%TA.AperFunction,SMDPad,CuDef*%
%ADD14R,0.900000X1.200000*%
%TD*%
%TA.AperFunction,SMDPad,CuDef*%
%ADD15R,1.450000X0.600000*%
%TD*%
%TA.AperFunction,SMDPad,CuDef*%
%ADD16R,1.450000X0.300000*%
%TD*%
%TA.AperFunction,ComponentPad*%
%ADD17O,2.100000X1.000000*%
%TD*%
%TA.AperFunction,SMDPad,CuDef*%
%ADD18RoundRect,0.525000X0.525000X-0.725000X0.525000X0.725000X-0.525000X0.725000X-0.525000X-0.725000X0*%
%TD*%
%TA.AperFunction,ComponentPad*%
%ADD19O,1.600000X1.000000*%
%TD*%
%TA.AperFunction,SMDPad,CuDef*%
%ADD20RoundRect,0.400000X0.400000X-1.600000X0.400000X1.600000X-0.400000X1.600000X-0.400000X-1.600000X0*%
%TD*%
%TA.AperFunction,ComponentPad*%
%ADD21RoundRect,1.000000X-1.000000X2.000000X-1.000000X-2.000000X1.000000X-2.000000X1.000000X2.000000X0*%
%TD*%
%TA.AperFunction,ComponentPad*%
%ADD22R,1.700000X1.700000*%
%TD*%
%TA.AperFunction,ComponentPad*%
%ADD23O,1.700000X1.700000*%
%TD*%
%TA.AperFunction,SMDPad,CuDef*%
%ADD24RoundRect,0.225000X0.250000X-0.225000X0.250000X0.225000X-0.250000X0.225000X-0.250000X-0.225000X0*%
%TD*%
%TA.AperFunction,SMDPad,CuDef*%
%ADD25RoundRect,0.237500X-0.237500X0.400000X-0.237500X-0.400000X0.237500X-0.400000X0.237500X0.400000X0*%
%TD*%
%TA.AperFunction,SMDPad,CuDef*%
%ADD26RoundRect,0.237500X0.237500X-0.400000X0.237500X0.400000X-0.237500X0.400000X-0.237500X-0.400000X0*%
%TD*%
%TA.AperFunction,SMDPad,CuDef*%
%ADD27RoundRect,0.250000X-0.875000X-0.925000X0.875000X-0.925000X0.875000X0.925000X-0.875000X0.925000X0*%
%TD*%
%TA.AperFunction,SMDPad,CuDef*%
%ADD28RoundRect,0.150000X0.150000X-0.825000X0.150000X0.825000X-0.150000X0.825000X-0.150000X-0.825000X0*%
%TD*%
%TA.AperFunction,SMDPad,CuDef*%
%ADD29RoundRect,0.200000X-0.200000X-0.275000X0.200000X-0.275000X0.200000X0.275000X-0.200000X0.275000X0*%
%TD*%
%TA.AperFunction,ComponentPad*%
%ADD30R,1.600000X1.600000*%
%TD*%
%TA.AperFunction,ComponentPad*%
%ADD31O,1.600000X1.600000*%
%TD*%
%TA.AperFunction,SMDPad,CuDef*%
%ADD32R,2.000000X1.500000*%
%TD*%
%TA.AperFunction,SMDPad,CuDef*%
%ADD33R,2.000000X3.800000*%
%TD*%
%TA.AperFunction,ViaPad*%
%ADD34C,0.600000*%
%TD*%
%TA.AperFunction,ViaPad*%
%ADD35C,1.600000*%
%TD*%
%TA.AperFunction,ViaPad*%
%ADD36C,0.800000*%
%TD*%
%TA.AperFunction,ViaPad*%
%ADD37C,1.000000*%
%TD*%
%TA.AperFunction,Conductor*%
%ADD38C,0.500000*%
%TD*%
%TA.AperFunction,Conductor*%
%ADD39C,0.200000*%
%TD*%
%TA.AperFunction,Conductor*%
%ADD40C,0.250000*%
%TD*%
%TA.AperFunction,Conductor*%
%ADD41C,0.600000*%
%TD*%
%TA.AperFunction,Conductor*%
%ADD42C,0.400000*%
%TD*%
%TA.AperFunction,Conductor*%
%ADD43C,1.000000*%
%TD*%
G04 APERTURE END LIST*
D10*
%TO.P,R103,1*%
%TO.N,CC2*%
X139446000Y-97523000D03*
%TO.P,R103,2*%
%TO.N,GND*%
X139446000Y-95873000D03*
%TD*%
D11*
%TO.P,R102,1*%
%TO.N,CC1*%
X139446000Y-102477000D03*
%TO.P,R102,2*%
%TO.N,GND*%
X139446000Y-104127000D03*
%TD*%
D12*
%TO.P,D202,1,K*%
%TO.N,Net-(D202-Pad1)*%
X112293500Y-107188000D03*
%TO.P,D202,2,A*%
%TO.N,I2C-Vcc*%
X110718500Y-107188000D03*
%TD*%
D13*
%TO.P,C302,1*%
%TO.N,I2C-Vcc*%
X128905000Y-104635000D03*
%TO.P,C302,2*%
%TO.N,GND*%
X128905000Y-106185000D03*
%TD*%
D14*
%TO.P,D902,1,K*%
%TO.N,TxD*%
X123316000Y-94996000D03*
%TO.P,D902,2,A*%
%TO.N,RxD*%
X120016000Y-94996000D03*
%TD*%
D15*
%TO.P,J102,A1,GND*%
%TO.N,GND*%
X142355000Y-103250000D03*
%TO.P,J102,A4,VBUS*%
%TO.N,Vbus*%
X142355000Y-102450000D03*
D16*
%TO.P,J102,A5,CC1*%
%TO.N,CC1*%
X142355000Y-101250000D03*
%TO.P,J102,A6,D+*%
%TO.N,UD+*%
X142355000Y-100250000D03*
%TO.P,J102,A7,D-*%
%TO.N,UD-*%
X142355000Y-99750000D03*
%TO.P,J102,A8,SBU1*%
%TO.N,unconnected-(J102-PadA8)*%
X142355000Y-98750000D03*
D15*
%TO.P,J102,A9,VBUS*%
%TO.N,Vbus*%
X142355000Y-97550000D03*
%TO.P,J102,A12,GND*%
%TO.N,GND*%
X142355000Y-96750000D03*
%TO.P,J102,B1,GND*%
X142355000Y-96750000D03*
%TO.P,J102,B4,VBUS*%
%TO.N,Vbus*%
X142355000Y-97550000D03*
D16*
%TO.P,J102,B5,CC2*%
%TO.N,CC2*%
X142355000Y-98250000D03*
%TO.P,J102,B6,D+*%
%TO.N,UD+*%
X142355000Y-99250000D03*
%TO.P,J102,B7,D-*%
%TO.N,UD-*%
X142355000Y-100750000D03*
%TO.P,J102,B8,SBU2*%
%TO.N,unconnected-(J102-PadB8)*%
X142355000Y-101750000D03*
D15*
%TO.P,J102,B9,VBUS*%
%TO.N,Vbus*%
X142355000Y-102450000D03*
%TO.P,J102,B12,GND*%
%TO.N,GND*%
X142355000Y-103250000D03*
D17*
%TO.P,J102,S1,SHIELD*%
X143270000Y-104320000D03*
D18*
X143281795Y-105096965D03*
D19*
X147450000Y-95680000D03*
D20*
X147450000Y-94153035D03*
D21*
X147670000Y-100000000D03*
D19*
X147450000Y-104320000D03*
D20*
X147450000Y-105846965D03*
D18*
X143281795Y-94903035D03*
D17*
X143270000Y-95680000D03*
%TD*%
D22*
%TO.P,J902,1,Pin_1*%
%TO.N,GND*%
X103986000Y-102540000D03*
D23*
%TO.P,J902,2,Pin_2*%
%TO.N,I2C-Vcc*%
X103986000Y-100000000D03*
%TO.P,J902,3,Pin_3*%
%TO.N,RxD*%
X103986000Y-97460000D03*
%TD*%
D24*
%TO.P,C303,1*%
%TO.N,I2C-Vcc*%
X125095000Y-95517000D03*
%TO.P,C303,2*%
%TO.N,GND*%
X125095000Y-93967000D03*
%TD*%
D25*
%TO.P,D104,1,1*%
%TO.N,CC1*%
X137922000Y-102496000D03*
%TO.P,D104,2,2*%
%TO.N,GND*%
X137922000Y-104616000D03*
%TD*%
D26*
%TO.P,D105,1,1*%
%TO.N,CC2*%
X137922000Y-97504000D03*
%TO.P,D105,2,2*%
%TO.N,GND*%
X137922000Y-95384000D03*
%TD*%
D27*
%TO.P,C202,1*%
%TO.N,Net-(C202-Pad1)*%
X121148000Y-105918000D03*
%TO.P,C202,2*%
%TO.N,GND*%
X126248000Y-105918000D03*
%TD*%
D26*
%TO.P,D103,1,1*%
%TO.N,UD+*%
X136398000Y-97504000D03*
%TO.P,D103,2,2*%
%TO.N,GND*%
X136398000Y-95384000D03*
%TD*%
D28*
%TO.P,U303,1,GND*%
%TO.N,GND*%
X125095000Y-102475000D03*
%TO.P,U303,2,TXD*%
%TO.N,RxD*%
X126365000Y-102475000D03*
%TO.P,U303,3,RXD*%
%TO.N,TxD*%
X127635000Y-102475000D03*
%TO.P,U303,4,V3*%
%TO.N,I2C-Vcc*%
X128905000Y-102475000D03*
%TO.P,U303,5,UD+*%
%TO.N,UD+*%
X130175000Y-102475000D03*
%TO.P,U303,6,UD-*%
%TO.N,UD-*%
X131445000Y-102475000D03*
%TO.P,U303,7,NC*%
%TO.N,unconnected-(U303-Pad7)*%
X132715000Y-102475000D03*
%TO.P,U303,8,NC*%
%TO.N,unconnected-(U303-Pad8)*%
X133985000Y-102475000D03*
%TO.P,U303,9,~{CTS}*%
%TO.N,CTS*%
X133985000Y-97525000D03*
%TO.P,U303,10,~{DSR}*%
%TO.N,DSR*%
X132715000Y-97525000D03*
%TO.P,U303,11,~{RI}*%
%TO.N,RI*%
X131445000Y-97525000D03*
%TO.P,U303,12,~{DCD}*%
%TO.N,DCD*%
X130175000Y-97525000D03*
%TO.P,U303,13,~{DTR}*%
%TO.N,DTR*%
X128905000Y-97525000D03*
%TO.P,U303,14,~{RTS}*%
%TO.N,RTS*%
X127635000Y-97525000D03*
%TO.P,U303,15,R232*%
%TO.N,unconnected-(U303-Pad15)*%
X126365000Y-97525000D03*
%TO.P,U303,16,VCC*%
%TO.N,I2C-Vcc*%
X125095000Y-97525000D03*
%TD*%
D25*
%TO.P,D102,1,1*%
%TO.N,UD-*%
X136398000Y-102496000D03*
%TO.P,D102,2,2*%
%TO.N,GND*%
X136398000Y-104616000D03*
%TD*%
D29*
%TO.P,R202,1*%
%TO.N,Net-(D202-Pad1)*%
X113983000Y-107188000D03*
%TO.P,R202,2*%
%TO.N,GND*%
X115633000Y-107188000D03*
%TD*%
D30*
%TO.P,SW202,1*%
%TO.N,Net-(C202-Pad1)*%
X111506000Y-97536000D03*
D31*
%TO.P,SW202,2*%
%TO.N,I2C-Vcc*%
X111506000Y-105156000D03*
%TD*%
D32*
%TO.P,U202,1,GND*%
%TO.N,GND*%
X114960000Y-97700000D03*
D33*
%TO.P,U202,2,VO*%
%TO.N,Net-(C202-Pad1)*%
X121260000Y-100000000D03*
D32*
X114960000Y-100000000D03*
%TO.P,U202,3,VI*%
%TO.N,Vbus*%
X114960000Y-102300000D03*
%TD*%
D34*
%TO.N,GND*%
X129540000Y-100000000D03*
X135636000Y-100000000D03*
D35*
X149000000Y-109000000D03*
X149000000Y-91000000D03*
X125000000Y-91000000D03*
D34*
X138684000Y-98806000D03*
D35*
X125000000Y-109000000D03*
D34*
X138684000Y-101346000D03*
D36*
%TO.N,Vbus*%
X140508406Y-102815536D03*
D37*
X116586000Y-102794000D03*
D36*
X140517682Y-97255928D03*
D37*
%TO.N,I2C-Vcc*%
X127100000Y-100000000D03*
%TD*%
D38*
%TO.N,GND*%
X142355000Y-96750000D02*
X142355000Y-95829830D01*
X142355000Y-95829830D02*
X143281795Y-94903035D01*
X142355000Y-104170170D02*
X143281795Y-105096965D01*
X142355000Y-103250000D02*
X142355000Y-104170170D01*
D39*
%TO.N,UD-*%
X131665199Y-100225001D02*
X131035001Y-100855199D01*
X143764000Y-100508000D02*
X143764000Y-100008000D01*
X140433000Y-100225000D02*
X140958000Y-100750000D01*
X143506000Y-99750000D02*
X142513000Y-99750000D01*
X140958000Y-100750000D02*
X143522000Y-100750000D01*
X134127001Y-100225001D02*
X131665199Y-100225001D01*
X143764000Y-100008000D02*
X143506000Y-99750000D01*
X138668999Y-100225001D02*
X140433000Y-100225000D01*
X131035001Y-102065001D02*
X131445000Y-102475000D01*
X131035001Y-100855199D02*
X131035001Y-102065001D01*
X143522000Y-100750000D02*
X143764000Y-100508000D01*
X136398000Y-102496000D02*
X134127001Y-100225001D01*
X136398000Y-102496000D02*
X138668999Y-100225001D01*
%TO.N,UD+*%
X142355000Y-99250000D02*
X140982000Y-99250000D01*
X141450000Y-100250000D02*
X141212000Y-100012000D01*
X141212000Y-99250000D02*
X140982000Y-99250000D01*
X134127001Y-99774999D02*
X131478801Y-99774999D01*
X141212000Y-100012000D02*
X141212000Y-99250000D01*
X131478801Y-99774999D02*
X130584999Y-100668801D01*
X130584999Y-102065001D02*
X130175000Y-102475000D01*
X140457000Y-99775000D02*
X140982000Y-99250000D01*
X130584999Y-100668801D02*
X130584999Y-102065001D01*
X136398000Y-97504000D02*
X138668999Y-99774999D01*
X138668999Y-99774999D02*
X140457000Y-99775000D01*
X142355000Y-100250000D02*
X141450000Y-100250000D01*
X136398000Y-97504000D02*
X134127001Y-99774999D01*
D40*
%TO.N,CC1*%
X137941000Y-102477000D02*
X137922000Y-102496000D01*
X141498000Y-101250000D02*
X141001500Y-101746500D01*
X142355000Y-101250000D02*
X141498000Y-101250000D01*
X141001500Y-101746500D02*
X140176500Y-101746500D01*
X140176500Y-101746500D02*
X139446000Y-102477000D01*
X139446000Y-102477000D02*
X137941000Y-102477000D01*
%TO.N,CC2*%
X139446000Y-97523000D02*
X140173000Y-98250000D01*
X140173000Y-98250000D02*
X142355000Y-98250000D01*
X139446000Y-97523000D02*
X139427000Y-97504000D01*
X139427000Y-97504000D02*
X137922000Y-97504000D01*
D38*
%TO.N,Vbus*%
X116092000Y-102300000D02*
X114960000Y-102300000D01*
D41*
X140811754Y-97550000D02*
X142355000Y-97550000D01*
X140508406Y-102815536D02*
X140873942Y-102450000D01*
X140873942Y-102450000D02*
X142355000Y-102450000D01*
D38*
X116586000Y-102794000D02*
X116092000Y-102300000D01*
D41*
X140517682Y-97255928D02*
X140811754Y-97550000D01*
D40*
%TO.N,RxD*%
X120016000Y-94996000D02*
X110998000Y-94996000D01*
X110998000Y-94996000D02*
X108534000Y-97460000D01*
X108534000Y-97460000D02*
X103986000Y-97460000D01*
X120016000Y-94996000D02*
X120282853Y-94996000D01*
X120282853Y-94996000D02*
X126365000Y-101078147D01*
X126365000Y-101078147D02*
X126365000Y-102475000D01*
%TO.N,TxD*%
X123316000Y-97392751D02*
X123316000Y-94996000D01*
X127635000Y-101711751D02*
X123316000Y-97392751D01*
X127635000Y-102475000D02*
X127635000Y-101711751D01*
D42*
%TO.N,I2C-Vcc*%
X127006635Y-99917365D02*
X127603365Y-99917365D01*
X127006635Y-99917365D02*
X126583076Y-99917365D01*
X125095000Y-97525000D02*
X125095000Y-95517000D01*
X128905000Y-102475000D02*
X128905000Y-104483000D01*
D38*
X110718500Y-107188000D02*
X110718500Y-105943500D01*
D42*
X128905000Y-102475000D02*
X128905000Y-101219000D01*
D38*
X110718500Y-105943500D02*
X111506000Y-105156000D01*
D42*
X125095000Y-98429289D02*
X125095000Y-97525000D01*
X128905000Y-101219000D02*
X127603365Y-99917365D01*
X126583076Y-99917365D02*
X125095000Y-98429289D01*
D43*
%TO.N,Net-(C202-Pad1)*%
X121260000Y-100000000D02*
X121260000Y-105806000D01*
X111506000Y-97536000D02*
X111506000Y-99060000D01*
X117780000Y-100000000D02*
X121260000Y-100000000D01*
X112446000Y-100000000D02*
X114960000Y-100000000D01*
X117780000Y-100000000D02*
X114960000Y-100000000D01*
X111506000Y-99060000D02*
X112446000Y-100000000D01*
X121260000Y-105806000D02*
X121148000Y-105918000D01*
D40*
%TO.N,Net-(D202-Pad1)*%
X112293500Y-107188000D02*
X113983000Y-107188000D01*
%TD*%
%TA.AperFunction,Conductor*%
%TO.N,GND*%
G36*
X148987103Y-90256921D02*
G01*
X149000000Y-90259486D01*
X149012170Y-90257065D01*
X149019856Y-90257065D01*
X149032207Y-90257672D01*
X149133092Y-90267609D01*
X149157309Y-90272425D01*
X149273426Y-90307649D01*
X149296226Y-90317093D01*
X149403239Y-90374292D01*
X149423770Y-90388011D01*
X149517556Y-90464981D01*
X149535019Y-90482444D01*
X149611989Y-90576230D01*
X149625708Y-90596761D01*
X149682907Y-90703774D01*
X149692351Y-90726574D01*
X149727575Y-90842691D01*
X149732391Y-90866908D01*
X149742328Y-90967793D01*
X149742935Y-90980144D01*
X149742935Y-90987830D01*
X149740514Y-91000000D01*
X149742935Y-91012170D01*
X149743079Y-91012894D01*
X149745500Y-91037476D01*
X149745500Y-96997767D01*
X149725498Y-97065888D01*
X149671842Y-97112381D01*
X149601568Y-97122485D01*
X149536988Y-97092991D01*
X149530405Y-97086862D01*
X149481600Y-97038057D01*
X149473021Y-97030883D01*
X149298423Y-96909534D01*
X149288716Y-96903997D01*
X149095390Y-96815486D01*
X149084850Y-96811753D01*
X148878658Y-96758813D01*
X148868128Y-96757047D01*
X148734870Y-96746207D01*
X148729765Y-96746000D01*
X147942115Y-96746000D01*
X147926876Y-96750475D01*
X147925671Y-96751865D01*
X147924000Y-96759548D01*
X147924000Y-103235885D01*
X147928475Y-103251124D01*
X147929865Y-103252329D01*
X147937548Y-103254000D01*
X148729765Y-103254000D01*
X148734870Y-103253793D01*
X148868128Y-103242953D01*
X148878658Y-103241187D01*
X149084850Y-103188247D01*
X149095390Y-103184514D01*
X149288716Y-103096003D01*
X149298423Y-103090466D01*
X149473021Y-102969117D01*
X149481600Y-102961943D01*
X149530405Y-102913138D01*
X149592717Y-102879112D01*
X149663532Y-102884177D01*
X149720368Y-102926724D01*
X149745179Y-102993244D01*
X149745500Y-103002233D01*
X149745500Y-108962524D01*
X149743079Y-108987103D01*
X149740514Y-109000000D01*
X149742935Y-109012170D01*
X149742935Y-109019856D01*
X149742328Y-109032207D01*
X149732391Y-109133092D01*
X149727575Y-109157309D01*
X149692351Y-109273426D01*
X149682907Y-109296226D01*
X149625708Y-109403239D01*
X149611989Y-109423770D01*
X149535019Y-109517556D01*
X149517556Y-109535019D01*
X149423770Y-109611989D01*
X149403239Y-109625708D01*
X149296226Y-109682907D01*
X149273426Y-109692351D01*
X149157309Y-109727575D01*
X149133092Y-109732391D01*
X149032207Y-109742328D01*
X149019856Y-109742935D01*
X149012170Y-109742935D01*
X149000000Y-109740514D01*
X148987103Y-109743079D01*
X148962524Y-109745500D01*
X112037476Y-109745500D01*
X112012897Y-109743079D01*
X112000000Y-109740514D01*
X111987831Y-109742934D01*
X111975431Y-109742934D01*
X111964376Y-109743749D01*
X111754253Y-109733427D01*
X111639055Y-109727768D01*
X111626759Y-109726557D01*
X111275405Y-109674438D01*
X111263299Y-109672031D01*
X110918746Y-109585725D01*
X110906915Y-109582136D01*
X110572487Y-109462476D01*
X110561063Y-109457744D01*
X110239979Y-109305882D01*
X110229074Y-109300053D01*
X109924418Y-109117449D01*
X109914137Y-109110579D01*
X109748628Y-108987830D01*
X109628847Y-108898994D01*
X109619309Y-108891168D01*
X109356113Y-108652620D01*
X109347375Y-108643882D01*
X109277374Y-108566648D01*
X109108832Y-108380691D01*
X109101006Y-108371153D01*
X108900621Y-108100965D01*
X108889421Y-108085863D01*
X108882551Y-108075582D01*
X108699947Y-107770926D01*
X108694118Y-107760021D01*
X108542256Y-107438937D01*
X108537524Y-107427513D01*
X108417864Y-107093085D01*
X108414275Y-107081253D01*
X108382011Y-106952448D01*
X108365604Y-106886947D01*
X110026500Y-106886947D01*
X110026501Y-107489052D01*
X110032786Y-107546919D01*
X110042995Y-107574151D01*
X110071156Y-107649269D01*
X110080372Y-107673853D01*
X110161670Y-107782330D01*
X110270147Y-107863628D01*
X110278548Y-107866778D01*
X110278551Y-107866779D01*
X110354475Y-107895242D01*
X110397081Y-107911214D01*
X110404934Y-107912067D01*
X110404938Y-107912068D01*
X110451548Y-107917131D01*
X110451552Y-107917131D01*
X110454947Y-107917500D01*
X110718461Y-107917500D01*
X110982052Y-107917499D01*
X111039919Y-107911214D01*
X111094755Y-107890657D01*
X111158449Y-107866779D01*
X111158452Y-107866778D01*
X111166853Y-107863628D01*
X111275330Y-107782330D01*
X111356628Y-107673853D01*
X111365845Y-107649269D01*
X111388018Y-107590121D01*
X111430660Y-107533357D01*
X111497221Y-107508657D01*
X111566570Y-107523865D01*
X111616688Y-107574151D01*
X111623982Y-107590121D01*
X111646156Y-107649269D01*
X111655372Y-107673853D01*
X111736670Y-107782330D01*
X111845147Y-107863628D01*
X111853548Y-107866778D01*
X111853551Y-107866779D01*
X111929475Y-107895242D01*
X111972081Y-107911214D01*
X111979934Y-107912067D01*
X111979938Y-107912068D01*
X112026548Y-107917131D01*
X112026552Y-107917131D01*
X112029947Y-107917500D01*
X112293461Y-107917500D01*
X112557052Y-107917499D01*
X112614919Y-107911214D01*
X112669755Y-107890657D01*
X112733449Y-107866779D01*
X112733452Y-107866778D01*
X112741853Y-107863628D01*
X112850330Y-107782330D01*
X112931628Y-107673853D01*
X112940844Y-107649269D01*
X112983486Y-107592505D01*
X113050048Y-107567806D01*
X113058826Y-107567500D01*
X113248664Y-107567500D01*
X113316785Y-107587502D01*
X113363278Y-107641158D01*
X113367545Y-107651747D01*
X113376791Y-107678076D01*
X113457990Y-107788010D01*
X113567924Y-107869209D01*
X113696873Y-107914493D01*
X113704515Y-107915215D01*
X113704518Y-107915216D01*
X113719421Y-107916624D01*
X113728685Y-107917500D01*
X113982828Y-107917500D01*
X114237314Y-107917499D01*
X114240262Y-107917220D01*
X114240271Y-107917220D01*
X114261478Y-107915216D01*
X114261480Y-107915216D01*
X114269127Y-107914493D01*
X114277787Y-107911452D01*
X114300567Y-107903452D01*
X114398076Y-107869209D01*
X114508010Y-107788010D01*
X114589209Y-107678076D01*
X114634493Y-107549127D01*
X114635445Y-107539064D01*
X114637221Y-107520265D01*
X114637500Y-107517315D01*
X114637500Y-107514283D01*
X114979001Y-107514283D01*
X114979280Y-107520207D01*
X114981281Y-107541382D01*
X114984549Y-107556280D01*
X115024116Y-107668951D01*
X115032837Y-107685420D01*
X115102752Y-107780078D01*
X115115922Y-107793248D01*
X115210580Y-107863163D01*
X115227049Y-107871884D01*
X115339723Y-107911452D01*
X115354614Y-107914719D01*
X115365235Y-107915723D01*
X115376124Y-107912525D01*
X115377329Y-107911135D01*
X115379000Y-107903452D01*
X115379000Y-107898884D01*
X115887000Y-107898884D01*
X115891475Y-107914123D01*
X115892865Y-107915328D01*
X115896521Y-107916123D01*
X115911382Y-107914719D01*
X115926280Y-107911451D01*
X116038951Y-107871884D01*
X116055420Y-107863163D01*
X116150078Y-107793248D01*
X116163248Y-107780078D01*
X116233163Y-107685420D01*
X116241884Y-107668951D01*
X116281452Y-107556277D01*
X116284719Y-107541386D01*
X116286721Y-107520201D01*
X116287000Y-107514287D01*
X116287000Y-107510537D01*
X146396001Y-107510537D01*
X146396195Y-107515472D01*
X146398413Y-107543668D01*
X146400714Y-107556269D01*
X146442806Y-107701151D01*
X146449053Y-107715587D01*
X146525097Y-107844171D01*
X146534737Y-107856598D01*
X146640367Y-107962228D01*
X146652794Y-107971868D01*
X146781378Y-108047912D01*
X146795814Y-108054159D01*
X146940702Y-108096252D01*
X146953289Y-108098552D01*
X146981499Y-108100772D01*
X146986424Y-108100965D01*
X147177885Y-108100965D01*
X147193124Y-108096490D01*
X147194329Y-108095100D01*
X147196000Y-108087417D01*
X147196000Y-108082849D01*
X147704000Y-108082849D01*
X147708475Y-108098088D01*
X147709865Y-108099293D01*
X147717548Y-108100964D01*
X147913572Y-108100964D01*
X147918507Y-108100770D01*
X147946703Y-108098552D01*
X147959304Y-108096251D01*
X148104186Y-108054159D01*
X148118622Y-108047912D01*
X148247206Y-107971868D01*
X148259633Y-107962228D01*
X148365263Y-107856598D01*
X148374903Y-107844171D01*
X148450947Y-107715587D01*
X148457194Y-107701151D01*
X148499287Y-107556263D01*
X148501587Y-107543676D01*
X148503807Y-107515466D01*
X148504000Y-107510541D01*
X148504000Y-106119080D01*
X148499525Y-106103841D01*
X148498135Y-106102636D01*
X148490452Y-106100965D01*
X147722115Y-106100965D01*
X147706876Y-106105440D01*
X147705671Y-106106830D01*
X147704000Y-106114513D01*
X147704000Y-108082849D01*
X147196000Y-108082849D01*
X147196000Y-106119080D01*
X147191525Y-106103841D01*
X147190135Y-106102636D01*
X147182452Y-106100965D01*
X146414116Y-106100965D01*
X146398877Y-106105440D01*
X146397672Y-106106830D01*
X146396001Y-106114513D01*
X146396001Y-107510537D01*
X116287000Y-107510537D01*
X116287000Y-107460115D01*
X116282525Y-107444876D01*
X116281135Y-107443671D01*
X116273452Y-107442000D01*
X115905115Y-107442000D01*
X115889876Y-107446475D01*
X115888671Y-107447865D01*
X115887000Y-107455548D01*
X115887000Y-107898884D01*
X115379000Y-107898884D01*
X115379000Y-107460115D01*
X115374525Y-107444876D01*
X115373135Y-107443671D01*
X115365452Y-107442000D01*
X114997116Y-107442000D01*
X114981877Y-107446475D01*
X114980672Y-107447865D01*
X114979001Y-107455548D01*
X114979001Y-107514283D01*
X114637500Y-107514283D01*
X114637499Y-106915885D01*
X114979000Y-106915885D01*
X114983475Y-106931124D01*
X114984865Y-106932329D01*
X114992548Y-106934000D01*
X115360885Y-106934000D01*
X115376124Y-106929525D01*
X115377329Y-106928135D01*
X115379000Y-106920452D01*
X115379000Y-106915885D01*
X115887000Y-106915885D01*
X115891475Y-106931124D01*
X115892865Y-106932329D01*
X115900548Y-106934000D01*
X116268884Y-106934000D01*
X116284123Y-106929525D01*
X116285328Y-106928135D01*
X116286999Y-106920452D01*
X116286999Y-106861717D01*
X116286720Y-106855793D01*
X116284719Y-106834618D01*
X116281451Y-106819720D01*
X116241884Y-106707049D01*
X116233163Y-106690580D01*
X116163248Y-106595922D01*
X116150078Y-106582752D01*
X116055420Y-106512837D01*
X116038951Y-106504116D01*
X115926277Y-106464548D01*
X115911386Y-106461281D01*
X115900765Y-106460277D01*
X115889876Y-106463475D01*
X115888671Y-106464865D01*
X115887000Y-106472548D01*
X115887000Y-106915885D01*
X115379000Y-106915885D01*
X115379000Y-106477116D01*
X115374525Y-106461877D01*
X115373135Y-106460672D01*
X115369479Y-106459877D01*
X115354618Y-106461281D01*
X115339720Y-106464549D01*
X115227049Y-106504116D01*
X115210580Y-106512837D01*
X115115922Y-106582752D01*
X115102752Y-106595922D01*
X115032837Y-106690580D01*
X115024116Y-106707049D01*
X114984548Y-106819723D01*
X114981281Y-106834614D01*
X114979279Y-106855799D01*
X114979000Y-106861713D01*
X114979000Y-106915885D01*
X114637499Y-106915885D01*
X114637499Y-106858686D01*
X114635225Y-106834614D01*
X114635216Y-106834522D01*
X114635216Y-106834520D01*
X114634493Y-106826873D01*
X114589209Y-106697924D01*
X114508010Y-106587990D01*
X114398076Y-106506791D01*
X114269127Y-106461507D01*
X114261485Y-106460785D01*
X114261482Y-106460784D01*
X114246579Y-106459376D01*
X114237315Y-106458500D01*
X113983172Y-106458500D01*
X113728686Y-106458501D01*
X113725738Y-106458780D01*
X113725729Y-106458780D01*
X113704522Y-106460784D01*
X113704520Y-106460784D01*
X113696873Y-106461507D01*
X113689623Y-106464053D01*
X113688211Y-106464549D01*
X113567924Y-106506791D01*
X113457990Y-106587990D01*
X113376791Y-106697924D01*
X113372357Y-106710551D01*
X113367546Y-106724250D01*
X113326102Y-106781895D01*
X113260072Y-106807982D01*
X113248664Y-106808500D01*
X113058826Y-106808500D01*
X112990705Y-106788498D01*
X112944212Y-106734842D01*
X112940844Y-106726731D01*
X112934778Y-106710549D01*
X112934777Y-106710548D01*
X112931628Y-106702147D01*
X112850330Y-106593670D01*
X112741853Y-106512372D01*
X112733452Y-106509222D01*
X112733449Y-106509221D01*
X112635624Y-106472548D01*
X112614919Y-106464786D01*
X112607066Y-106463933D01*
X112607062Y-106463932D01*
X112560452Y-106458869D01*
X112560448Y-106458869D01*
X112557053Y-106458500D01*
X112293539Y-106458500D01*
X112029948Y-106458501D01*
X111972081Y-106464786D01*
X111917245Y-106485343D01*
X111853551Y-106509221D01*
X111853548Y-106509222D01*
X111845147Y-106512372D01*
X111736670Y-106593670D01*
X111655372Y-106702147D01*
X111652222Y-106710548D01*
X111652221Y-106710551D01*
X111643115Y-106734842D01*
X111625476Y-106781895D01*
X111623982Y-106785879D01*
X111581340Y-106842643D01*
X111514779Y-106867343D01*
X111445430Y-106852135D01*
X111395312Y-106801849D01*
X111388018Y-106785879D01*
X111386525Y-106781895D01*
X111368885Y-106734842D01*
X111359779Y-106710551D01*
X111359778Y-106710548D01*
X111356628Y-106702147D01*
X111275330Y-106593670D01*
X111268150Y-106588289D01*
X111261800Y-106581939D01*
X111264047Y-106579692D01*
X111230923Y-106535400D01*
X111223000Y-106491424D01*
X111223000Y-106326188D01*
X111243002Y-106258067D01*
X111296658Y-106211574D01*
X111363919Y-106201074D01*
X111425378Y-106208402D01*
X111483809Y-106215370D01*
X111489944Y-106214898D01*
X111489946Y-106214898D01*
X111683856Y-106199977D01*
X111683860Y-106199976D01*
X111689998Y-106199504D01*
X111889178Y-106143892D01*
X111894682Y-106141112D01*
X111894684Y-106141111D01*
X112068262Y-106053431D01*
X112068264Y-106053430D01*
X112073763Y-106050652D01*
X112236722Y-105923334D01*
X112240748Y-105918670D01*
X112240751Y-105918667D01*
X112367819Y-105771457D01*
X112367820Y-105771455D01*
X112371848Y-105766789D01*
X112431190Y-105662329D01*
X112470950Y-105592340D01*
X112470952Y-105592336D01*
X112473995Y-105586979D01*
X112517998Y-105454701D01*
X112537325Y-105396601D01*
X112537326Y-105396598D01*
X112539270Y-105390753D01*
X112565189Y-105185586D01*
X112565602Y-105156000D01*
X112545422Y-104950189D01*
X112485651Y-104752217D01*
X112410639Y-104611140D01*
X112391459Y-104575067D01*
X112391457Y-104575064D01*
X112388565Y-104569625D01*
X112384674Y-104564855D01*
X112384672Y-104564851D01*
X112261758Y-104414143D01*
X112261755Y-104414140D01*
X112257863Y-104409368D01*
X112250966Y-104403662D01*
X112103271Y-104281478D01*
X112103266Y-104281475D01*
X112098522Y-104277550D01*
X112093103Y-104274620D01*
X112093100Y-104274618D01*
X111922032Y-104182122D01*
X111922027Y-104182120D01*
X111916612Y-104179192D01*
X111719063Y-104118040D01*
X111712938Y-104117396D01*
X111712937Y-104117396D01*
X111519526Y-104097068D01*
X111519524Y-104097068D01*
X111513397Y-104096424D01*
X111397358Y-104106984D01*
X111313591Y-104114607D01*
X111313590Y-104114607D01*
X111307450Y-104115166D01*
X111109066Y-104173554D01*
X111103601Y-104176411D01*
X110931261Y-104266508D01*
X110931257Y-104266511D01*
X110925801Y-104269363D01*
X110764635Y-104398943D01*
X110631708Y-104557360D01*
X110532082Y-104738578D01*
X110530219Y-104744451D01*
X110489396Y-104873144D01*
X110469553Y-104935696D01*
X110468867Y-104941813D01*
X110468866Y-104941817D01*
X110449466Y-105114771D01*
X110446501Y-105141206D01*
X110463806Y-105347278D01*
X110466545Y-105356830D01*
X110473977Y-105382748D01*
X110473528Y-105453743D01*
X110441954Y-105506575D01*
X110411706Y-105536823D01*
X110402266Y-105544365D01*
X110402589Y-105544745D01*
X110395753Y-105550563D01*
X110388161Y-105555353D01*
X110382219Y-105562081D01*
X110352829Y-105595359D01*
X110347483Y-105601046D01*
X110336149Y-105612380D01*
X110333464Y-105615963D01*
X110333462Y-105615965D01*
X110329947Y-105620655D01*
X110323562Y-105628498D01*
X110292499Y-105663670D01*
X110288686Y-105671792D01*
X110286846Y-105674593D01*
X110278437Y-105688588D01*
X110276815Y-105691551D01*
X110271430Y-105698736D01*
X110268277Y-105707146D01*
X110268276Y-105707148D01*
X110254954Y-105742682D01*
X110251030Y-105751995D01*
X110231083Y-105794482D01*
X110229701Y-105803356D01*
X110228715Y-105806583D01*
X110224575Y-105822366D01*
X110223854Y-105825644D01*
X110220702Y-105834052D01*
X110220037Y-105843003D01*
X110217224Y-105880857D01*
X110216070Y-105890904D01*
X110214000Y-105904197D01*
X110214000Y-105919562D01*
X110213654Y-105928899D01*
X110209993Y-105978167D01*
X110211866Y-105986942D01*
X110212459Y-105995638D01*
X110214000Y-106010238D01*
X110214000Y-106491424D01*
X110193998Y-106559545D01*
X110174142Y-106580881D01*
X110175200Y-106581939D01*
X110168850Y-106588289D01*
X110161670Y-106593670D01*
X110080372Y-106702147D01*
X110077222Y-106710548D01*
X110077221Y-106710551D01*
X110068115Y-106734842D01*
X110032786Y-106829081D01*
X110031933Y-106836934D01*
X110031932Y-106836938D01*
X110026869Y-106883548D01*
X110026500Y-106886947D01*
X108365604Y-106886947D01*
X108327969Y-106736701D01*
X108325560Y-106724586D01*
X108325511Y-106724250D01*
X108273443Y-106373241D01*
X108272232Y-106360940D01*
X108256251Y-106035624D01*
X108257066Y-106024569D01*
X108257066Y-106012169D01*
X108259486Y-106000000D01*
X108256921Y-105987103D01*
X108254500Y-105962524D01*
X108254500Y-105037476D01*
X108256921Y-105012894D01*
X108257065Y-105012171D01*
X108259486Y-105000000D01*
X108257654Y-104990791D01*
X108242886Y-104803146D01*
X108237570Y-104781000D01*
X108207859Y-104657248D01*
X108196790Y-104611140D01*
X108186303Y-104585822D01*
X108123119Y-104433282D01*
X108123117Y-104433278D01*
X108121224Y-104428708D01*
X108018050Y-104260343D01*
X108014843Y-104256588D01*
X108014840Y-104256584D01*
X107893016Y-104113948D01*
X107889808Y-104110192D01*
X107834699Y-104063124D01*
X107743416Y-103985160D01*
X107743412Y-103985157D01*
X107739657Y-103981950D01*
X107571292Y-103878776D01*
X107566722Y-103876883D01*
X107566718Y-103876881D01*
X107393433Y-103805104D01*
X107393431Y-103805103D01*
X107388860Y-103803210D01*
X107280932Y-103777299D01*
X107201667Y-103758269D01*
X107201661Y-103758268D01*
X107196854Y-103757114D01*
X107009209Y-103742346D01*
X107000000Y-103740514D01*
X106987103Y-103743079D01*
X106962524Y-103745500D01*
X105139675Y-103745500D01*
X105071554Y-103725498D01*
X105025061Y-103671842D01*
X105014957Y-103601568D01*
X105034910Y-103549498D01*
X105068368Y-103499425D01*
X105077684Y-103476934D01*
X105088793Y-103421085D01*
X105090000Y-103408830D01*
X105090000Y-102812115D01*
X105085525Y-102796876D01*
X105084135Y-102795671D01*
X105076452Y-102794000D01*
X102900116Y-102794000D01*
X102884877Y-102798475D01*
X102883672Y-102799865D01*
X102882001Y-102807548D01*
X102882001Y-103408828D01*
X102883209Y-103421088D01*
X102894315Y-103476931D01*
X102903633Y-103499427D01*
X102937090Y-103549498D01*
X102958305Y-103617251D01*
X102939522Y-103685717D01*
X102886705Y-103733161D01*
X102832325Y-103745500D01*
X101037476Y-103745500D01*
X101012897Y-103743079D01*
X101000000Y-103740514D01*
X100987830Y-103742935D01*
X100980144Y-103742935D01*
X100967793Y-103742328D01*
X100866908Y-103732391D01*
X100842691Y-103727575D01*
X100726574Y-103692351D01*
X100703774Y-103682907D01*
X100596761Y-103625708D01*
X100576230Y-103611989D01*
X100482444Y-103535019D01*
X100464981Y-103517556D01*
X100388011Y-103423770D01*
X100374292Y-103403239D01*
X100317093Y-103296226D01*
X100307649Y-103273426D01*
X100272425Y-103157309D01*
X100267609Y-103133092D01*
X100257672Y-103032207D01*
X100257065Y-103019856D01*
X100257065Y-103012170D01*
X100259486Y-103000000D01*
X100256921Y-102987103D01*
X100254500Y-102962524D01*
X100254500Y-102267885D01*
X102882000Y-102267885D01*
X102886475Y-102283124D01*
X102887865Y-102284329D01*
X102895548Y-102286000D01*
X103713885Y-102286000D01*
X103729124Y-102281525D01*
X103730329Y-102280135D01*
X103732000Y-102272452D01*
X103732000Y-102267885D01*
X104240000Y-102267885D01*
X104244475Y-102283124D01*
X104245865Y-102284329D01*
X104253548Y-102286000D01*
X105071884Y-102286000D01*
X105087123Y-102281525D01*
X105088328Y-102280135D01*
X105089999Y-102272452D01*
X105089999Y-101671172D01*
X105088791Y-101658912D01*
X105077685Y-101603069D01*
X105068367Y-101580573D01*
X105031189Y-101524933D01*
X113705500Y-101524933D01*
X113705501Y-103075066D01*
X113712175Y-103108622D01*
X113717362Y-103134699D01*
X113720266Y-103149301D01*
X113776516Y-103233484D01*
X113860699Y-103289734D01*
X113934933Y-103304500D01*
X114798331Y-103304500D01*
X115976562Y-103304499D01*
X116044683Y-103324501D01*
X116067199Y-103342972D01*
X116102021Y-103379031D01*
X116243660Y-103471717D01*
X116402315Y-103530720D01*
X116409296Y-103531651D01*
X116409298Y-103531652D01*
X116563118Y-103552176D01*
X116563122Y-103552176D01*
X116570099Y-103553107D01*
X116577110Y-103552469D01*
X116577114Y-103552469D01*
X116731652Y-103538405D01*
X116738673Y-103537766D01*
X116899659Y-103485458D01*
X116998470Y-103426555D01*
X117039004Y-103402392D01*
X117039006Y-103402391D01*
X117045056Y-103398784D01*
X117167638Y-103282052D01*
X117173376Y-103273416D01*
X117257410Y-103146935D01*
X117257411Y-103146933D01*
X117261311Y-103141063D01*
X117321420Y-102982824D01*
X117344978Y-102815200D01*
X117345274Y-102794000D01*
X117326406Y-102625784D01*
X117270738Y-102465929D01*
X117181038Y-102322379D01*
X117139451Y-102280500D01*
X117087473Y-102228158D01*
X117061764Y-102202269D01*
X116918844Y-102111569D01*
X116859330Y-102090377D01*
X116766016Y-102057149D01*
X116766011Y-102057148D01*
X116759381Y-102054787D01*
X116752395Y-102053954D01*
X116752391Y-102053953D01*
X116651621Y-102041938D01*
X116591301Y-102034745D01*
X116590107Y-102034870D01*
X116524341Y-102015059D01*
X116504106Y-101998635D01*
X116498677Y-101993206D01*
X116491135Y-101983766D01*
X116490755Y-101984089D01*
X116484937Y-101977253D01*
X116480147Y-101969661D01*
X116440140Y-101934328D01*
X116434454Y-101928983D01*
X116423120Y-101917649D01*
X116414845Y-101911447D01*
X116407000Y-101905060D01*
X116378557Y-101879940D01*
X116371830Y-101873999D01*
X116363708Y-101870186D01*
X116360907Y-101868346D01*
X116346912Y-101859937D01*
X116343949Y-101858315D01*
X116336764Y-101852930D01*
X116296268Y-101837748D01*
X116239505Y-101795107D01*
X116214805Y-101728546D01*
X116214499Y-101719767D01*
X116214499Y-101524934D01*
X116205977Y-101482086D01*
X116202156Y-101462874D01*
X116202155Y-101462872D01*
X116199734Y-101450699D01*
X116191963Y-101439068D01*
X116150377Y-101376832D01*
X116143484Y-101366516D01*
X116059301Y-101310266D01*
X115985067Y-101295500D01*
X114960166Y-101295500D01*
X113934934Y-101295501D01*
X113899182Y-101302612D01*
X113872874Y-101307844D01*
X113872872Y-101307845D01*
X113860699Y-101310266D01*
X113850379Y-101317161D01*
X113850378Y-101317162D01*
X113831023Y-101330095D01*
X113776516Y-101366516D01*
X113769623Y-101376832D01*
X113730010Y-101436117D01*
X113720266Y-101450699D01*
X113705500Y-101524933D01*
X105031189Y-101524933D01*
X105026017Y-101517192D01*
X105008808Y-101499983D01*
X104945425Y-101457632D01*
X104922934Y-101448316D01*
X104867085Y-101437207D01*
X104854830Y-101436000D01*
X104258115Y-101436000D01*
X104242876Y-101440475D01*
X104241671Y-101441865D01*
X104240000Y-101449548D01*
X104240000Y-102267885D01*
X103732000Y-102267885D01*
X103732000Y-101454116D01*
X103727525Y-101438877D01*
X103726135Y-101437672D01*
X103718452Y-101436001D01*
X103117172Y-101436001D01*
X103104912Y-101437209D01*
X103049069Y-101448315D01*
X103026573Y-101457633D01*
X102963192Y-101499983D01*
X102945983Y-101517192D01*
X102903632Y-101580575D01*
X102894316Y-101603066D01*
X102883207Y-101658915D01*
X102882000Y-101671170D01*
X102882000Y-102267885D01*
X100254500Y-102267885D01*
X100254500Y-99970964D01*
X102877148Y-99970964D01*
X102890424Y-100173522D01*
X102891845Y-100179118D01*
X102891846Y-100179123D01*
X102938079Y-100361161D01*
X102940392Y-100370269D01*
X102942809Y-100375512D01*
X103005125Y-100510686D01*
X103025377Y-100554616D01*
X103044999Y-100582380D01*
X103136040Y-100711201D01*
X103142533Y-100720389D01*
X103146675Y-100724424D01*
X103176842Y-100753811D01*
X103287938Y-100862035D01*
X103456720Y-100974812D01*
X103462023Y-100977090D01*
X103462026Y-100977092D01*
X103610053Y-101040689D01*
X103643228Y-101054942D01*
X103714566Y-101071084D01*
X103835579Y-101098467D01*
X103835584Y-101098468D01*
X103841216Y-101099742D01*
X103846987Y-101099969D01*
X103846989Y-101099969D01*
X103906756Y-101102317D01*
X104044053Y-101107712D01*
X104156348Y-101091430D01*
X104239231Y-101079413D01*
X104239236Y-101079412D01*
X104244945Y-101078584D01*
X104250409Y-101076729D01*
X104250414Y-101076728D01*
X104431693Y-101015192D01*
X104431698Y-101015190D01*
X104437165Y-101013334D01*
X104452940Y-101004500D01*
X104523234Y-100965133D01*
X104614276Y-100914147D01*
X104623875Y-100906164D01*
X104765913Y-100788031D01*
X104770345Y-100784345D01*
X104795740Y-100753811D01*
X104896453Y-100632718D01*
X104896455Y-100632715D01*
X104900147Y-100628276D01*
X104979656Y-100486303D01*
X104996510Y-100456208D01*
X104996511Y-100456206D01*
X104999334Y-100451165D01*
X105001190Y-100445698D01*
X105001192Y-100445693D01*
X105062728Y-100264414D01*
X105062729Y-100264409D01*
X105064584Y-100258945D01*
X105065412Y-100253236D01*
X105065413Y-100253231D01*
X105089211Y-100089095D01*
X105093712Y-100058053D01*
X105095232Y-100000000D01*
X105080929Y-99844336D01*
X105077187Y-99803613D01*
X105077186Y-99803610D01*
X105076658Y-99797859D01*
X105075090Y-99792299D01*
X105023125Y-99608046D01*
X105023124Y-99608044D01*
X105021557Y-99602487D01*
X105015253Y-99589702D01*
X104934331Y-99425609D01*
X104931776Y-99420428D01*
X104922697Y-99408269D01*
X104853201Y-99315204D01*
X104810320Y-99257779D01*
X104661258Y-99119987D01*
X104656375Y-99116906D01*
X104656371Y-99116903D01*
X104494464Y-99014748D01*
X104489581Y-99011667D01*
X104301039Y-98936446D01*
X104295379Y-98935320D01*
X104295375Y-98935319D01*
X104107613Y-98897971D01*
X104107610Y-98897971D01*
X104101946Y-98896844D01*
X104096171Y-98896768D01*
X104096167Y-98896768D01*
X103994793Y-98895441D01*
X103898971Y-98894187D01*
X103893274Y-98895166D01*
X103893273Y-98895166D01*
X103778307Y-98914921D01*
X103698910Y-98928564D01*
X103508463Y-98998824D01*
X103334010Y-99102612D01*
X103329670Y-99106418D01*
X103329666Y-99106421D01*
X103194530Y-99224933D01*
X103181392Y-99236455D01*
X103177817Y-99240990D01*
X103177816Y-99240991D01*
X103177314Y-99241628D01*
X103055720Y-99395869D01*
X103053031Y-99400980D01*
X103053029Y-99400983D01*
X103019040Y-99465586D01*
X102961203Y-99575515D01*
X102901007Y-99769378D01*
X102877148Y-99970964D01*
X100254500Y-99970964D01*
X100254500Y-97037476D01*
X100256921Y-97012894D01*
X100257065Y-97012170D01*
X100259486Y-97000000D01*
X100257065Y-96987830D01*
X100257065Y-96980144D01*
X100257672Y-96967793D01*
X100267609Y-96866908D01*
X100272425Y-96842691D01*
X100307649Y-96726574D01*
X100317093Y-96703774D01*
X100374292Y-96596761D01*
X100388011Y-96576230D01*
X100464981Y-96482444D01*
X100482444Y-96464981D01*
X100576230Y-96388011D01*
X100596761Y-96374292D01*
X100703774Y-96317093D01*
X100726574Y-96307649D01*
X100842691Y-96272425D01*
X100866908Y-96267609D01*
X100967793Y-96257672D01*
X100980144Y-96257065D01*
X100987830Y-96257065D01*
X101000000Y-96259486D01*
X101012897Y-96256921D01*
X101037476Y-96254500D01*
X103393680Y-96254500D01*
X103461801Y-96274502D01*
X103508294Y-96328158D01*
X103518398Y-96398432D01*
X103488904Y-96463012D01*
X103458104Y-96488785D01*
X103334010Y-96562612D01*
X103329670Y-96566418D01*
X103329666Y-96566421D01*
X103213649Y-96668166D01*
X103181392Y-96696455D01*
X103177817Y-96700990D01*
X103177816Y-96700991D01*
X103171070Y-96709548D01*
X103055720Y-96855869D01*
X103053031Y-96860980D01*
X103053029Y-96860983D01*
X103034716Y-96895790D01*
X102961203Y-97035515D01*
X102901007Y-97229378D01*
X102877148Y-97430964D01*
X102890424Y-97633522D01*
X102891845Y-97639118D01*
X102891846Y-97639123D01*
X102926300Y-97774781D01*
X102940392Y-97830269D01*
X102942809Y-97835512D01*
X102990092Y-97938076D01*
X103025377Y-98014616D01*
X103028710Y-98019332D01*
X103136568Y-98171948D01*
X103142533Y-98180389D01*
X103287938Y-98322035D01*
X103456720Y-98434812D01*
X103462023Y-98437090D01*
X103462026Y-98437092D01*
X103637921Y-98512662D01*
X103643228Y-98514942D01*
X103693764Y-98526377D01*
X103835579Y-98558467D01*
X103835584Y-98558468D01*
X103841216Y-98559742D01*
X103846987Y-98559969D01*
X103846989Y-98559969D01*
X103906756Y-98562317D01*
X104044053Y-98567712D01*
X104153417Y-98551855D01*
X104239231Y-98539413D01*
X104239236Y-98539412D01*
X104244945Y-98538584D01*
X104250409Y-98536729D01*
X104250414Y-98536728D01*
X104431693Y-98475192D01*
X104431698Y-98475190D01*
X104437165Y-98473334D01*
X104445208Y-98468830D01*
X104530378Y-98421132D01*
X104614276Y-98374147D01*
X104630005Y-98361066D01*
X104765913Y-98248031D01*
X104770345Y-98244345D01*
X104830557Y-98171948D01*
X104896453Y-98092718D01*
X104896455Y-98092715D01*
X104900147Y-98088276D01*
X104999334Y-97911165D01*
X104999787Y-97911419D01*
X105043368Y-97860151D01*
X105112488Y-97839500D01*
X108480080Y-97839500D01*
X108504028Y-97842049D01*
X108505693Y-97842128D01*
X108515876Y-97844320D01*
X108526217Y-97843096D01*
X108549223Y-97840373D01*
X108555154Y-97840023D01*
X108555146Y-97839928D01*
X108560324Y-97839500D01*
X108565524Y-97839500D01*
X108570653Y-97838646D01*
X108570656Y-97838646D01*
X108584565Y-97836331D01*
X108590443Y-97835494D01*
X108631001Y-97830694D01*
X108631002Y-97830694D01*
X108641341Y-97829470D01*
X108649593Y-97825507D01*
X108658626Y-97824004D01*
X108667795Y-97819057D01*
X108667797Y-97819056D01*
X108703732Y-97799666D01*
X108709025Y-97796969D01*
X108748082Y-97778215D01*
X108748086Y-97778212D01*
X108755232Y-97774781D01*
X108759508Y-97771186D01*
X108761431Y-97769263D01*
X108763363Y-97767491D01*
X108763442Y-97767448D01*
X108763555Y-97767572D01*
X108764095Y-97767096D01*
X108769814Y-97764010D01*
X108806417Y-97724413D01*
X108809846Y-97720848D01*
X111118289Y-95412405D01*
X111180601Y-95378379D01*
X111207384Y-95375500D01*
X119185501Y-95375500D01*
X119253622Y-95395502D01*
X119300115Y-95449158D01*
X119311501Y-95501500D01*
X119311501Y-95621066D01*
X119326266Y-95695301D01*
X119333161Y-95705620D01*
X119333162Y-95705622D01*
X119353088Y-95735443D01*
X119382516Y-95779484D01*
X119466699Y-95835734D01*
X119540933Y-95850500D01*
X120015923Y-95850500D01*
X120491066Y-95850499D01*
X120516425Y-95845455D01*
X120587136Y-95851783D01*
X120630098Y-95879939D01*
X122381263Y-97631104D01*
X122415289Y-97693416D01*
X122410224Y-97764231D01*
X122367677Y-97821067D01*
X122301157Y-97845878D01*
X122285946Y-97845675D01*
X122285067Y-97845500D01*
X121260166Y-97845500D01*
X120234934Y-97845501D01*
X120199182Y-97852612D01*
X120172874Y-97857844D01*
X120172872Y-97857845D01*
X120160699Y-97860266D01*
X120150379Y-97867161D01*
X120150378Y-97867162D01*
X120125927Y-97883500D01*
X120076516Y-97916516D01*
X120020266Y-98000699D01*
X120005500Y-98074933D01*
X120005500Y-99119500D01*
X119985498Y-99187621D01*
X119931842Y-99234114D01*
X119879500Y-99245500D01*
X116320571Y-99245500D01*
X116252450Y-99225498D01*
X116204161Y-99167716D01*
X116202156Y-99162874D01*
X116199734Y-99150699D01*
X116188773Y-99134294D01*
X116150377Y-99076832D01*
X116143484Y-99066516D01*
X116059301Y-99010266D01*
X115985067Y-98995500D01*
X114960166Y-98995500D01*
X113934934Y-98995501D01*
X113908800Y-99000699D01*
X113872874Y-99007844D01*
X113872872Y-99007845D01*
X113860699Y-99010266D01*
X113850379Y-99017161D01*
X113850378Y-99017162D01*
X113789985Y-99057516D01*
X113776516Y-99066516D01*
X113720266Y-99150699D01*
X113717845Y-99162873D01*
X113715837Y-99167719D01*
X113671288Y-99222999D01*
X113599428Y-99245500D01*
X112810714Y-99245500D01*
X112742593Y-99225498D01*
X112721619Y-99208595D01*
X112307961Y-98794937D01*
X112273935Y-98732625D01*
X112279000Y-98661810D01*
X112321547Y-98604974D01*
X112372475Y-98582263D01*
X112378206Y-98581123D01*
X112405301Y-98575734D01*
X112415621Y-98568839D01*
X112415622Y-98568838D01*
X112479168Y-98526377D01*
X112489484Y-98519484D01*
X112523332Y-98468828D01*
X113706001Y-98468828D01*
X113707209Y-98481088D01*
X113718315Y-98536931D01*
X113727633Y-98559427D01*
X113769983Y-98622808D01*
X113787192Y-98640017D01*
X113850575Y-98682368D01*
X113873066Y-98691684D01*
X113928915Y-98702793D01*
X113941170Y-98704000D01*
X114687885Y-98704000D01*
X114703124Y-98699525D01*
X114704329Y-98698135D01*
X114706000Y-98690452D01*
X114706000Y-98685884D01*
X115214000Y-98685884D01*
X115218475Y-98701123D01*
X115219865Y-98702328D01*
X115227548Y-98703999D01*
X115978828Y-98703999D01*
X115991088Y-98702791D01*
X116046931Y-98691685D01*
X116069427Y-98682367D01*
X116132808Y-98640017D01*
X116150017Y-98622808D01*
X116192368Y-98559425D01*
X116201684Y-98536934D01*
X116212793Y-98481085D01*
X116214000Y-98468830D01*
X116214000Y-97972115D01*
X116209525Y-97956876D01*
X116208135Y-97955671D01*
X116200452Y-97954000D01*
X115232115Y-97954000D01*
X115216876Y-97958475D01*
X115215671Y-97959865D01*
X115214000Y-97967548D01*
X115214000Y-98685884D01*
X114706000Y-98685884D01*
X114706000Y-97972115D01*
X114701525Y-97956876D01*
X114700135Y-97955671D01*
X114692452Y-97954000D01*
X113724116Y-97954000D01*
X113708877Y-97958475D01*
X113707672Y-97959865D01*
X113706001Y-97967548D01*
X113706001Y-98468828D01*
X112523332Y-98468828D01*
X112545734Y-98435301D01*
X112560500Y-98361067D01*
X112560499Y-97427885D01*
X113706000Y-97427885D01*
X113710475Y-97443124D01*
X113711865Y-97444329D01*
X113719548Y-97446000D01*
X114687885Y-97446000D01*
X114703124Y-97441525D01*
X114704329Y-97440135D01*
X114706000Y-97432452D01*
X114706000Y-97427885D01*
X115214000Y-97427885D01*
X115218475Y-97443124D01*
X115219865Y-97444329D01*
X115227548Y-97446000D01*
X116195884Y-97446000D01*
X116211123Y-97441525D01*
X116212328Y-97440135D01*
X116213999Y-97432452D01*
X116213999Y-96931172D01*
X116212791Y-96918912D01*
X116201685Y-96863069D01*
X116192367Y-96840573D01*
X116150017Y-96777192D01*
X116132808Y-96759983D01*
X116069425Y-96717632D01*
X116046934Y-96708316D01*
X115991085Y-96697207D01*
X115978830Y-96696000D01*
X115232115Y-96696000D01*
X115216876Y-96700475D01*
X115215671Y-96701865D01*
X115214000Y-96709548D01*
X115214000Y-97427885D01*
X114706000Y-97427885D01*
X114706000Y-96714116D01*
X114701525Y-96698877D01*
X114700135Y-96697672D01*
X114692452Y-96696001D01*
X113941172Y-96696001D01*
X113928912Y-96697209D01*
X113873069Y-96708315D01*
X113850573Y-96717633D01*
X113787192Y-96759983D01*
X113769983Y-96777192D01*
X113727632Y-96840575D01*
X113718316Y-96863066D01*
X113707207Y-96918915D01*
X113706000Y-96931170D01*
X113706000Y-97427885D01*
X112560499Y-97427885D01*
X112560499Y-96710934D01*
X112545734Y-96636699D01*
X112535452Y-96621310D01*
X112496377Y-96562832D01*
X112489484Y-96552516D01*
X112405301Y-96496266D01*
X112331067Y-96481500D01*
X111506134Y-96481500D01*
X110680934Y-96481501D01*
X110652975Y-96487062D01*
X110618874Y-96493844D01*
X110618872Y-96493845D01*
X110606699Y-96496266D01*
X110596379Y-96503161D01*
X110596378Y-96503162D01*
X110563205Y-96525328D01*
X110522516Y-96552516D01*
X110466266Y-96636699D01*
X110451500Y-96710933D01*
X110451501Y-98361066D01*
X110456605Y-98386726D01*
X110463448Y-98421132D01*
X110466266Y-98435301D01*
X110473161Y-98445620D01*
X110473162Y-98445622D01*
X110496858Y-98481085D01*
X110522516Y-98519484D01*
X110606699Y-98575734D01*
X110650082Y-98584363D01*
X110712991Y-98617270D01*
X110748123Y-98678965D01*
X110751500Y-98707942D01*
X110751500Y-98993235D01*
X110750067Y-99012185D01*
X110748182Y-99024578D01*
X110746826Y-99033489D01*
X110747419Y-99040780D01*
X110747419Y-99040783D01*
X110751085Y-99085848D01*
X110751500Y-99096063D01*
X110751500Y-99104053D01*
X110751925Y-99107697D01*
X110754771Y-99132113D01*
X110755204Y-99136487D01*
X110759364Y-99187621D01*
X110761090Y-99208847D01*
X110763345Y-99215809D01*
X110764518Y-99221677D01*
X110765890Y-99227483D01*
X110766738Y-99234754D01*
X110791532Y-99303060D01*
X110792940Y-99307163D01*
X110815312Y-99376222D01*
X110819109Y-99382479D01*
X110821602Y-99387926D01*
X110824270Y-99393254D01*
X110826768Y-99400134D01*
X110866568Y-99460839D01*
X110868915Y-99464559D01*
X110898765Y-99513750D01*
X110906583Y-99526633D01*
X110910295Y-99530836D01*
X110913949Y-99534974D01*
X110913924Y-99534996D01*
X110916624Y-99538041D01*
X110919220Y-99541146D01*
X110923234Y-99547268D01*
X110928547Y-99552301D01*
X110979108Y-99600198D01*
X110981550Y-99602575D01*
X111424822Y-100045846D01*
X111865279Y-100486303D01*
X111877666Y-100500717D01*
X111890437Y-100518071D01*
X111896020Y-100522814D01*
X111930479Y-100552089D01*
X111937995Y-100559019D01*
X111943638Y-100564662D01*
X111965798Y-100582194D01*
X111969173Y-100584961D01*
X112024520Y-100631982D01*
X112031040Y-100635311D01*
X112036018Y-100638631D01*
X112041091Y-100641764D01*
X112046833Y-100646307D01*
X112053467Y-100649407D01*
X112053466Y-100649407D01*
X112112617Y-100677053D01*
X112116567Y-100678984D01*
X112181212Y-100711993D01*
X112188322Y-100713733D01*
X112193942Y-100715823D01*
X112199593Y-100717703D01*
X112206222Y-100720801D01*
X112213386Y-100722291D01*
X112213389Y-100722292D01*
X112253495Y-100730633D01*
X112277314Y-100735587D01*
X112281573Y-100736551D01*
X112352108Y-100753811D01*
X112357705Y-100754158D01*
X112357710Y-100754159D01*
X112363214Y-100754500D01*
X112363212Y-100754534D01*
X112367270Y-100754777D01*
X112371306Y-100755137D01*
X112378473Y-100756628D01*
X112455431Y-100754546D01*
X112458839Y-100754500D01*
X113599429Y-100754500D01*
X113667550Y-100774502D01*
X113715839Y-100832284D01*
X113717844Y-100837126D01*
X113720266Y-100849301D01*
X113727161Y-100859621D01*
X113727162Y-100859622D01*
X113732227Y-100867202D01*
X113776516Y-100933484D01*
X113860699Y-100989734D01*
X113934933Y-101004500D01*
X114959834Y-101004500D01*
X115985066Y-101004499D01*
X116022171Y-100997119D01*
X116047126Y-100992156D01*
X116047128Y-100992155D01*
X116059301Y-100989734D01*
X116069621Y-100982839D01*
X116069622Y-100982838D01*
X116133168Y-100940377D01*
X116143484Y-100933484D01*
X116199734Y-100849301D01*
X116202155Y-100837127D01*
X116204163Y-100832281D01*
X116248712Y-100777001D01*
X116320572Y-100754500D01*
X119879501Y-100754500D01*
X119947622Y-100774502D01*
X119994115Y-100828158D01*
X120005501Y-100880500D01*
X120005501Y-101925066D01*
X120009744Y-101946398D01*
X120017074Y-101983250D01*
X120020266Y-101999301D01*
X120027161Y-102009620D01*
X120027162Y-102009622D01*
X120054609Y-102050699D01*
X120076516Y-102083484D01*
X120086832Y-102090377D01*
X120138550Y-102124934D01*
X120160699Y-102139734D01*
X120234933Y-102154500D01*
X120379500Y-102154500D01*
X120447621Y-102174502D01*
X120494114Y-102228158D01*
X120505500Y-102280500D01*
X120505500Y-104362500D01*
X120485498Y-104430621D01*
X120431842Y-104477114D01*
X120379500Y-104488500D01*
X120225244Y-104488500D01*
X120221848Y-104488869D01*
X120221847Y-104488869D01*
X120171403Y-104494349D01*
X120171402Y-104494349D01*
X120163552Y-104495202D01*
X120156159Y-104497974D01*
X120156157Y-104497974D01*
X120154834Y-104498470D01*
X120028236Y-104545929D01*
X120021057Y-104551309D01*
X120021054Y-104551311D01*
X119941225Y-104611140D01*
X119912596Y-104632596D01*
X119907215Y-104639776D01*
X119831311Y-104741054D01*
X119831309Y-104741057D01*
X119825929Y-104748236D01*
X119803495Y-104808080D01*
X119778084Y-104875865D01*
X119775202Y-104883552D01*
X119768500Y-104945244D01*
X119768500Y-106890756D01*
X119775202Y-106952448D01*
X119825929Y-107087764D01*
X119831309Y-107094943D01*
X119831311Y-107094946D01*
X119884221Y-107165543D01*
X119912596Y-107203404D01*
X119919776Y-107208785D01*
X120021054Y-107284689D01*
X120021057Y-107284691D01*
X120028236Y-107290071D01*
X120117954Y-107323704D01*
X120156157Y-107338026D01*
X120156159Y-107338026D01*
X120163552Y-107340798D01*
X120171402Y-107341651D01*
X120171403Y-107341651D01*
X120220632Y-107346999D01*
X120225244Y-107347500D01*
X122070756Y-107347500D01*
X122075368Y-107346999D01*
X122124597Y-107341651D01*
X122124598Y-107341651D01*
X122132448Y-107340798D01*
X122139841Y-107338026D01*
X122139843Y-107338026D01*
X122178046Y-107323704D01*
X122267764Y-107290071D01*
X122274943Y-107284691D01*
X122274946Y-107284689D01*
X122376224Y-107208785D01*
X122383404Y-107203404D01*
X122411779Y-107165543D01*
X122464689Y-107094946D01*
X122464691Y-107094943D01*
X122470071Y-107087764D01*
X122520798Y-106952448D01*
X122527500Y-106890756D01*
X122527500Y-106887292D01*
X124869001Y-106887292D01*
X124869370Y-106894104D01*
X124874841Y-106944482D01*
X124878470Y-106959741D01*
X124923222Y-107079118D01*
X124931754Y-107094704D01*
X125007572Y-107195867D01*
X125020133Y-107208428D01*
X125121296Y-107284246D01*
X125136882Y-107292778D01*
X125256265Y-107337533D01*
X125271510Y-107341158D01*
X125321892Y-107346631D01*
X125328706Y-107347000D01*
X125975885Y-107347000D01*
X125991124Y-107342525D01*
X125992329Y-107341135D01*
X125994000Y-107333452D01*
X125994000Y-107328884D01*
X126502000Y-107328884D01*
X126506475Y-107344123D01*
X126507865Y-107345328D01*
X126515548Y-107346999D01*
X127167292Y-107346999D01*
X127174110Y-107346630D01*
X127224482Y-107341159D01*
X127239741Y-107337530D01*
X127359118Y-107292778D01*
X127374704Y-107284246D01*
X127475867Y-107208428D01*
X127488428Y-107195867D01*
X127564246Y-107094704D01*
X127572778Y-107079118D01*
X127617533Y-106959735D01*
X127621158Y-106944490D01*
X127626631Y-106894104D01*
X127627000Y-106887294D01*
X127627000Y-106452424D01*
X128176027Y-106452424D01*
X128176369Y-106458741D01*
X128181510Y-106506066D01*
X128185135Y-106521311D01*
X128227375Y-106633988D01*
X128235908Y-106649575D01*
X128307434Y-106745010D01*
X128319990Y-106757566D01*
X128415425Y-106829092D01*
X128431012Y-106837625D01*
X128543689Y-106879865D01*
X128558934Y-106883490D01*
X128606259Y-106888631D01*
X128613073Y-106889000D01*
X128632885Y-106889000D01*
X128648124Y-106884525D01*
X128649329Y-106883135D01*
X128651000Y-106875452D01*
X128651000Y-106870885D01*
X129159000Y-106870885D01*
X129163475Y-106886124D01*
X129164865Y-106887329D01*
X129172548Y-106889000D01*
X129196927Y-106889000D01*
X129203741Y-106888631D01*
X129251066Y-106883490D01*
X129266311Y-106879865D01*
X129378988Y-106837625D01*
X129394575Y-106829092D01*
X129490010Y-106757566D01*
X129502566Y-106745010D01*
X129574092Y-106649575D01*
X129582625Y-106633988D01*
X129624865Y-106521311D01*
X129628490Y-106506066D01*
X129633631Y-106458741D01*
X129633763Y-106456307D01*
X129629525Y-106441876D01*
X129628135Y-106440671D01*
X129620452Y-106439000D01*
X129177115Y-106439000D01*
X129161876Y-106443475D01*
X129160671Y-106444865D01*
X129159000Y-106452548D01*
X129159000Y-106870885D01*
X128651000Y-106870885D01*
X128651000Y-106457115D01*
X128646525Y-106441876D01*
X128645135Y-106440671D01*
X128637452Y-106439000D01*
X128194115Y-106439000D01*
X128178876Y-106443475D01*
X128177671Y-106444865D01*
X128176027Y-106452424D01*
X127627000Y-106452424D01*
X127627000Y-106190115D01*
X127622525Y-106174876D01*
X127621135Y-106173671D01*
X127613452Y-106172000D01*
X126520115Y-106172000D01*
X126504876Y-106176475D01*
X126503671Y-106177865D01*
X126502000Y-106185548D01*
X126502000Y-107328884D01*
X125994000Y-107328884D01*
X125994000Y-106190115D01*
X125989525Y-106174876D01*
X125988135Y-106173671D01*
X125980452Y-106172000D01*
X124887116Y-106172000D01*
X124871877Y-106176475D01*
X124870672Y-106177865D01*
X124869001Y-106185548D01*
X124869001Y-106887292D01*
X122527500Y-106887292D01*
X122527500Y-105645885D01*
X124869000Y-105645885D01*
X124873475Y-105661124D01*
X124874865Y-105662329D01*
X124882548Y-105664000D01*
X125975885Y-105664000D01*
X125991124Y-105659525D01*
X125992329Y-105658135D01*
X125994000Y-105650452D01*
X125994000Y-105645885D01*
X126502000Y-105645885D01*
X126506475Y-105661124D01*
X126507865Y-105662329D01*
X126515548Y-105664000D01*
X127608884Y-105664000D01*
X127624123Y-105659525D01*
X127625328Y-105658135D01*
X127626999Y-105650452D01*
X127626999Y-104948708D01*
X127626630Y-104941890D01*
X127621159Y-104891518D01*
X127617530Y-104876259D01*
X127572778Y-104756882D01*
X127564246Y-104741296D01*
X127488428Y-104640133D01*
X127475867Y-104627572D01*
X127374704Y-104551754D01*
X127359118Y-104543222D01*
X127239735Y-104498467D01*
X127224490Y-104494842D01*
X127174108Y-104489369D01*
X127167294Y-104489000D01*
X126520115Y-104489000D01*
X126504876Y-104493475D01*
X126503671Y-104494865D01*
X126502000Y-104502548D01*
X126502000Y-105645885D01*
X125994000Y-105645885D01*
X125994000Y-104507116D01*
X125989525Y-104491877D01*
X125988135Y-104490672D01*
X125980452Y-104489001D01*
X125328708Y-104489001D01*
X125321890Y-104489370D01*
X125271518Y-104494841D01*
X125256259Y-104498470D01*
X125136882Y-104543222D01*
X125121296Y-104551754D01*
X125020133Y-104627572D01*
X125007572Y-104640133D01*
X124931754Y-104741296D01*
X124923222Y-104756882D01*
X124878467Y-104876265D01*
X124874842Y-104891510D01*
X124869369Y-104941892D01*
X124869000Y-104948706D01*
X124869000Y-105645885D01*
X122527500Y-105645885D01*
X122527500Y-104945244D01*
X122520798Y-104883552D01*
X122517917Y-104875865D01*
X122492505Y-104808080D01*
X122470071Y-104748236D01*
X122464691Y-104741057D01*
X122464689Y-104741054D01*
X122388785Y-104639776D01*
X122383404Y-104632596D01*
X122354775Y-104611140D01*
X122274946Y-104551311D01*
X122274943Y-104551309D01*
X122267764Y-104545929D01*
X122141166Y-104498470D01*
X122139843Y-104497974D01*
X122139841Y-104497974D01*
X122132448Y-104495202D01*
X122124598Y-104494349D01*
X122116909Y-104492521D01*
X122117357Y-104490638D01*
X122061323Y-104467350D01*
X122020901Y-104408984D01*
X122014500Y-104369335D01*
X122014500Y-103326840D01*
X124541001Y-103326840D01*
X124541776Y-103336687D01*
X124554433Y-103416607D01*
X124560485Y-103435233D01*
X124609583Y-103531593D01*
X124621094Y-103547436D01*
X124697564Y-103623906D01*
X124713407Y-103635417D01*
X124809769Y-103684516D01*
X124825045Y-103689479D01*
X124836788Y-103687962D01*
X124841000Y-103673988D01*
X124841000Y-102747115D01*
X124836525Y-102731876D01*
X124835135Y-102730671D01*
X124827452Y-102729000D01*
X124559116Y-102729000D01*
X124543877Y-102733475D01*
X124542672Y-102734865D01*
X124541001Y-102742548D01*
X124541001Y-103326840D01*
X122014500Y-103326840D01*
X122014500Y-102280499D01*
X122034502Y-102212378D01*
X122045458Y-102202885D01*
X124541000Y-102202885D01*
X124545475Y-102218124D01*
X124546865Y-102219329D01*
X124554548Y-102221000D01*
X124822885Y-102221000D01*
X124838124Y-102216525D01*
X124839329Y-102215135D01*
X124841000Y-102207452D01*
X124841000Y-101275552D01*
X124837113Y-101262316D01*
X124824727Y-101260625D01*
X124809766Y-101265486D01*
X124713407Y-101314583D01*
X124697564Y-101326094D01*
X124621094Y-101402564D01*
X124609583Y-101418407D01*
X124560485Y-101514768D01*
X124554433Y-101533392D01*
X124541775Y-101613315D01*
X124541000Y-101623158D01*
X124541000Y-102202885D01*
X122045458Y-102202885D01*
X122088158Y-102165885D01*
X122140500Y-102154499D01*
X122285066Y-102154499D01*
X122320818Y-102147388D01*
X122347126Y-102142156D01*
X122347128Y-102142155D01*
X122359301Y-102139734D01*
X122369621Y-102132839D01*
X122369622Y-102132838D01*
X122433168Y-102090377D01*
X122443484Y-102083484D01*
X122499734Y-101999301D01*
X122514500Y-101925067D01*
X122514499Y-98074934D01*
X122515402Y-98074934D01*
X122527632Y-98010432D01*
X122576470Y-97958902D01*
X122645414Y-97941955D01*
X122712576Y-97964973D01*
X122728894Y-97978735D01*
X125932460Y-101182301D01*
X125966486Y-101244613D01*
X125961421Y-101315428D01*
X125932460Y-101360491D01*
X125883674Y-101409277D01*
X125879173Y-101418110D01*
X125879172Y-101418112D01*
X125841985Y-101491094D01*
X125793237Y-101542708D01*
X125724322Y-101559774D01*
X125657121Y-101536873D01*
X125617452Y-101491092D01*
X125580419Y-101418410D01*
X125568906Y-101402564D01*
X125492436Y-101326094D01*
X125476593Y-101314583D01*
X125380231Y-101265484D01*
X125364955Y-101260521D01*
X125353212Y-101262038D01*
X125349000Y-101276012D01*
X125349000Y-103674448D01*
X125352887Y-103687684D01*
X125365273Y-103689375D01*
X125380234Y-103684514D01*
X125476593Y-103635417D01*
X125492436Y-103623906D01*
X125568906Y-103547436D01*
X125580419Y-103531590D01*
X125617452Y-103458908D01*
X125666200Y-103407292D01*
X125735115Y-103390226D01*
X125802316Y-103413126D01*
X125841985Y-103458906D01*
X125879172Y-103531888D01*
X125883674Y-103540723D01*
X125974277Y-103631326D01*
X126088445Y-103689498D01*
X126183166Y-103704500D01*
X126546834Y-103704500D01*
X126641555Y-103689498D01*
X126755723Y-103631326D01*
X126846326Y-103540723D01*
X126887733Y-103459458D01*
X126936482Y-103407843D01*
X127005397Y-103390777D01*
X127072598Y-103413678D01*
X127112267Y-103459458D01*
X127153674Y-103540723D01*
X127244277Y-103631326D01*
X127358445Y-103689498D01*
X127453166Y-103704500D01*
X127816834Y-103704500D01*
X127911555Y-103689498D01*
X128025723Y-103631326D01*
X128116326Y-103540723D01*
X128157733Y-103459458D01*
X128206482Y-103407843D01*
X128275397Y-103390777D01*
X128342598Y-103413678D01*
X128382267Y-103459458D01*
X128423674Y-103540723D01*
X128427322Y-103544371D01*
X128450294Y-103608750D01*
X128450500Y-103615946D01*
X128450500Y-103900969D01*
X128430498Y-103969090D01*
X128400066Y-104001795D01*
X128330238Y-104054129D01*
X128312456Y-104067456D01*
X128307077Y-104074633D01*
X128235465Y-104170183D01*
X128235463Y-104170186D01*
X128230083Y-104177365D01*
X128226933Y-104185769D01*
X128226932Y-104185770D01*
X128191054Y-104281478D01*
X128181870Y-104305976D01*
X128175500Y-104364611D01*
X128175501Y-104905388D01*
X128175870Y-104908782D01*
X128175870Y-104908788D01*
X128179466Y-104941890D01*
X128181870Y-104964024D01*
X128230083Y-105092635D01*
X128235463Y-105099814D01*
X128235465Y-105099817D01*
X128302373Y-105189090D01*
X128312456Y-105202544D01*
X128319633Y-105207923D01*
X128415183Y-105279535D01*
X128415186Y-105279537D01*
X128422365Y-105284917D01*
X128442020Y-105292285D01*
X128498784Y-105334927D01*
X128523484Y-105401488D01*
X128508276Y-105470837D01*
X128457990Y-105520955D01*
X128442018Y-105528249D01*
X128431014Y-105532374D01*
X128415425Y-105540908D01*
X128319990Y-105612434D01*
X128307434Y-105624990D01*
X128235908Y-105720425D01*
X128227375Y-105736012D01*
X128185135Y-105848689D01*
X128181510Y-105863934D01*
X128176369Y-105911259D01*
X128176237Y-105913693D01*
X128180475Y-105928124D01*
X128181865Y-105929329D01*
X128189548Y-105931000D01*
X129615885Y-105931000D01*
X129631124Y-105926525D01*
X129632329Y-105925135D01*
X129633973Y-105917576D01*
X129633631Y-105911259D01*
X129633023Y-105905658D01*
X141977796Y-105905658D01*
X141977845Y-105907364D01*
X141979263Y-105917273D01*
X142015791Y-106075493D01*
X142020441Y-106088698D01*
X142090376Y-106233364D01*
X142097833Y-106245206D01*
X142198080Y-106370784D01*
X142207976Y-106380680D01*
X142333554Y-106480927D01*
X142345396Y-106488384D01*
X142490062Y-106558319D01*
X142503267Y-106562969D01*
X142661495Y-106599499D01*
X142671380Y-106600915D01*
X142673132Y-106600965D01*
X143009680Y-106600965D01*
X143024919Y-106596490D01*
X143026124Y-106595100D01*
X143027795Y-106587417D01*
X143027795Y-106582849D01*
X143535795Y-106582849D01*
X143540270Y-106598088D01*
X143541660Y-106599293D01*
X143549343Y-106600964D01*
X143890488Y-106600964D01*
X143892194Y-106600915D01*
X143902103Y-106599497D01*
X144060323Y-106562969D01*
X144073528Y-106558319D01*
X144218194Y-106488384D01*
X144230036Y-106480927D01*
X144355614Y-106380680D01*
X144365510Y-106370784D01*
X144465757Y-106245206D01*
X144473214Y-106233364D01*
X144543149Y-106088698D01*
X144547799Y-106075493D01*
X144584329Y-105917265D01*
X144585745Y-105907380D01*
X144585795Y-105905628D01*
X144585795Y-105574850D01*
X146396000Y-105574850D01*
X146400475Y-105590089D01*
X146401865Y-105591294D01*
X146409548Y-105592965D01*
X147177885Y-105592965D01*
X147193124Y-105588490D01*
X147194329Y-105587100D01*
X147196000Y-105579417D01*
X147196000Y-105574850D01*
X147704000Y-105574850D01*
X147708475Y-105590089D01*
X147709865Y-105591294D01*
X147717548Y-105592965D01*
X148485884Y-105592965D01*
X148501123Y-105588490D01*
X148502328Y-105587100D01*
X148503999Y-105579417D01*
X148503999Y-104592115D01*
X148499524Y-104576876D01*
X148498134Y-104575671D01*
X148490451Y-104574000D01*
X147722115Y-104574000D01*
X147706876Y-104578475D01*
X147705671Y-104579865D01*
X147704000Y-104587548D01*
X147704000Y-105574850D01*
X147196000Y-105574850D01*
X147196000Y-104592115D01*
X147191525Y-104576876D01*
X147190135Y-104575671D01*
X147182452Y-104574000D01*
X146414115Y-104574000D01*
X146398876Y-104578475D01*
X146397671Y-104579865D01*
X146396000Y-104587548D01*
X146396000Y-105574850D01*
X144585795Y-105574850D01*
X144585795Y-105369080D01*
X144581320Y-105353841D01*
X144579930Y-105352636D01*
X144572247Y-105350965D01*
X143553910Y-105350965D01*
X143538671Y-105355440D01*
X143537466Y-105356830D01*
X143535795Y-105364513D01*
X143535795Y-106582849D01*
X143027795Y-106582849D01*
X143027795Y-105369080D01*
X143023320Y-105353841D01*
X143021930Y-105352636D01*
X143014247Y-105350965D01*
X141995911Y-105350965D01*
X141980672Y-105355440D01*
X141979467Y-105356830D01*
X141977796Y-105364513D01*
X141977796Y-105905658D01*
X129633023Y-105905658D01*
X129628490Y-105863934D01*
X129624865Y-105848689D01*
X129582625Y-105736012D01*
X129574092Y-105720425D01*
X129502566Y-105624990D01*
X129490010Y-105612434D01*
X129394575Y-105540908D01*
X129378986Y-105532374D01*
X129367982Y-105528249D01*
X129311217Y-105485609D01*
X129286516Y-105419047D01*
X129301723Y-105349698D01*
X129352008Y-105299579D01*
X129367980Y-105292285D01*
X129387635Y-105284917D01*
X129394814Y-105279537D01*
X129394817Y-105279535D01*
X129490367Y-105207923D01*
X129497544Y-105202544D01*
X129507627Y-105189090D01*
X129574535Y-105099817D01*
X129574537Y-105099814D01*
X129579917Y-105092635D01*
X129592487Y-105059105D01*
X135669001Y-105059105D01*
X135669371Y-105065926D01*
X135674676Y-105114773D01*
X135678302Y-105130024D01*
X135721799Y-105246053D01*
X135730333Y-105261639D01*
X135804002Y-105359937D01*
X135816563Y-105372498D01*
X135914861Y-105446167D01*
X135930447Y-105454701D01*
X136046473Y-105498197D01*
X136061729Y-105501825D01*
X136110576Y-105507131D01*
X136117393Y-105507500D01*
X136125885Y-105507500D01*
X136141124Y-105503025D01*
X136142329Y-105501635D01*
X136144000Y-105493952D01*
X136144000Y-105489384D01*
X136652000Y-105489384D01*
X136656475Y-105504623D01*
X136657865Y-105505828D01*
X136665548Y-105507499D01*
X136678605Y-105507499D01*
X136685426Y-105507129D01*
X136734273Y-105501824D01*
X136749524Y-105498198D01*
X136865553Y-105454701D01*
X136881139Y-105446167D01*
X136979437Y-105372498D01*
X136991999Y-105359936D01*
X137059174Y-105270304D01*
X137116033Y-105227789D01*
X137186851Y-105222763D01*
X137249145Y-105256823D01*
X137260826Y-105270304D01*
X137328001Y-105359936D01*
X137340563Y-105372498D01*
X137438861Y-105446167D01*
X137454447Y-105454701D01*
X137570473Y-105498197D01*
X137585729Y-105501825D01*
X137634576Y-105507131D01*
X137641393Y-105507500D01*
X137649885Y-105507500D01*
X137665124Y-105503025D01*
X137666329Y-105501635D01*
X137668000Y-105493952D01*
X137668000Y-105489384D01*
X138176000Y-105489384D01*
X138180475Y-105504623D01*
X138181865Y-105505828D01*
X138189548Y-105507499D01*
X138202605Y-105507499D01*
X138209426Y-105507129D01*
X138258273Y-105501824D01*
X138273524Y-105498198D01*
X138389553Y-105454701D01*
X138405139Y-105446167D01*
X138503437Y-105372498D01*
X138515998Y-105359937D01*
X138589667Y-105261639D01*
X138598201Y-105246053D01*
X138641697Y-105130027D01*
X138645325Y-105114771D01*
X138650631Y-105065924D01*
X138651000Y-105059107D01*
X138651000Y-104824850D01*
X141977795Y-104824850D01*
X141982270Y-104840089D01*
X141983660Y-104841294D01*
X141991343Y-104842965D01*
X142997885Y-104842965D01*
X143013124Y-104838490D01*
X143014329Y-104837100D01*
X143016000Y-104829417D01*
X143016000Y-104824850D01*
X143535795Y-104824850D01*
X143540270Y-104840089D01*
X143541660Y-104841294D01*
X143549343Y-104842965D01*
X144567679Y-104842965D01*
X144582918Y-104838490D01*
X144584123Y-104837100D01*
X144585794Y-104829417D01*
X144585794Y-104592115D01*
X144581319Y-104576876D01*
X144579929Y-104575671D01*
X144572246Y-104574000D01*
X143553910Y-104574000D01*
X143538671Y-104578475D01*
X143537466Y-104579865D01*
X143535795Y-104587548D01*
X143535795Y-104824850D01*
X143016000Y-104824850D01*
X143016000Y-104592115D01*
X143011525Y-104576876D01*
X143010135Y-104575671D01*
X143002452Y-104574000D01*
X141995910Y-104574000D01*
X141980671Y-104578475D01*
X141979466Y-104579865D01*
X141977795Y-104587548D01*
X141977795Y-104824850D01*
X138651000Y-104824850D01*
X138651000Y-104757075D01*
X138671002Y-104688954D01*
X138724658Y-104642461D01*
X138794932Y-104632357D01*
X138851859Y-104655724D01*
X138948580Y-104727163D01*
X138965049Y-104735884D01*
X139077723Y-104775452D01*
X139092614Y-104778719D01*
X139113799Y-104780721D01*
X139119713Y-104781000D01*
X139173885Y-104781000D01*
X139189124Y-104776525D01*
X139190329Y-104775135D01*
X139192000Y-104767452D01*
X139192000Y-104762884D01*
X139700000Y-104762884D01*
X139704475Y-104778123D01*
X139705865Y-104779328D01*
X139713548Y-104780999D01*
X139772283Y-104780999D01*
X139778207Y-104780720D01*
X139799382Y-104778719D01*
X139814280Y-104775451D01*
X139926951Y-104735884D01*
X139943420Y-104727163D01*
X140038078Y-104657248D01*
X140051248Y-104644078D01*
X140121163Y-104549420D01*
X140129884Y-104532951D01*
X140169452Y-104420277D01*
X140172719Y-104405386D01*
X140173723Y-104394765D01*
X140170525Y-104383876D01*
X140169135Y-104382671D01*
X140161452Y-104381000D01*
X139718115Y-104381000D01*
X139702876Y-104385475D01*
X139701671Y-104386865D01*
X139700000Y-104394548D01*
X139700000Y-104762884D01*
X139192000Y-104762884D01*
X139192000Y-103854885D01*
X139700000Y-103854885D01*
X139704475Y-103870124D01*
X139705865Y-103871329D01*
X139713548Y-103873000D01*
X140156884Y-103873000D01*
X140172123Y-103868525D01*
X140173328Y-103867135D01*
X140174123Y-103863479D01*
X140172719Y-103848618D01*
X140169451Y-103833720D01*
X140129884Y-103721049D01*
X140121163Y-103704580D01*
X140051248Y-103609922D01*
X140038081Y-103596755D01*
X140005235Y-103572494D01*
X139983921Y-103544399D01*
X139966862Y-103541522D01*
X139947110Y-103529563D01*
X139943417Y-103526835D01*
X139926951Y-103518116D01*
X139814277Y-103478548D01*
X139799386Y-103475281D01*
X139778201Y-103473279D01*
X139772287Y-103473000D01*
X139718115Y-103473000D01*
X139702876Y-103477475D01*
X139701671Y-103478865D01*
X139700000Y-103486548D01*
X139700000Y-103854885D01*
X139192000Y-103854885D01*
X139192000Y-103491116D01*
X139187525Y-103475877D01*
X139186135Y-103474672D01*
X139178452Y-103473001D01*
X139119717Y-103473001D01*
X139113793Y-103473280D01*
X139092618Y-103475281D01*
X139077720Y-103478549D01*
X138965049Y-103518116D01*
X138948580Y-103526837D01*
X138853922Y-103596752D01*
X138840752Y-103609922D01*
X138770837Y-103704580D01*
X138762114Y-103721053D01*
X138725259Y-103826001D01*
X138683816Y-103883646D01*
X138617787Y-103909734D01*
X138548134Y-103895983D01*
X138517282Y-103873347D01*
X138503437Y-103859502D01*
X138405139Y-103785833D01*
X138389553Y-103777299D01*
X138273527Y-103733803D01*
X138258271Y-103730175D01*
X138209424Y-103724869D01*
X138202607Y-103724500D01*
X138194115Y-103724500D01*
X138178876Y-103728975D01*
X138177671Y-103730365D01*
X138176000Y-103738048D01*
X138176000Y-105489384D01*
X137668000Y-105489384D01*
X137668000Y-104888115D01*
X137663525Y-104872876D01*
X137662135Y-104871671D01*
X137654452Y-104870000D01*
X137211118Y-104870000D01*
X137200410Y-104873144D01*
X137138131Y-104875368D01*
X137113453Y-104870000D01*
X136670115Y-104870000D01*
X136654876Y-104874475D01*
X136653671Y-104875865D01*
X136652000Y-104883548D01*
X136652000Y-105489384D01*
X136144000Y-105489384D01*
X136144000Y-104888115D01*
X136139525Y-104872876D01*
X136138135Y-104871671D01*
X136130452Y-104870000D01*
X135687116Y-104870000D01*
X135671877Y-104874475D01*
X135670672Y-104875865D01*
X135669001Y-104883548D01*
X135669001Y-105059105D01*
X129592487Y-105059105D01*
X129628130Y-104964024D01*
X129634500Y-104905389D01*
X129634499Y-104364612D01*
X129633874Y-104358856D01*
X129632248Y-104343885D01*
X135669000Y-104343885D01*
X135673475Y-104359124D01*
X135674865Y-104360329D01*
X135682548Y-104362000D01*
X136125885Y-104362000D01*
X136141124Y-104357525D01*
X136142329Y-104356135D01*
X136144000Y-104348452D01*
X136144000Y-104343885D01*
X136652000Y-104343885D01*
X136656475Y-104359124D01*
X136657865Y-104360329D01*
X136665548Y-104362000D01*
X137108882Y-104362000D01*
X137119590Y-104358856D01*
X137181869Y-104356632D01*
X137206547Y-104362000D01*
X137649885Y-104362000D01*
X137665124Y-104357525D01*
X137666329Y-104356135D01*
X137668000Y-104348452D01*
X137668000Y-103742616D01*
X137663525Y-103727377D01*
X137662135Y-103726172D01*
X137654452Y-103724501D01*
X137641395Y-103724501D01*
X137634574Y-103724871D01*
X137585727Y-103730176D01*
X137570476Y-103733802D01*
X137454447Y-103777299D01*
X137438861Y-103785833D01*
X137340563Y-103859502D01*
X137328001Y-103872064D01*
X137260826Y-103961696D01*
X137203967Y-104004211D01*
X137133149Y-104009237D01*
X137070855Y-103975177D01*
X137059174Y-103961696D01*
X136991999Y-103872064D01*
X136979437Y-103859502D01*
X136881139Y-103785833D01*
X136865553Y-103777299D01*
X136749527Y-103733803D01*
X136734271Y-103730175D01*
X136685424Y-103724869D01*
X136678607Y-103724500D01*
X136670115Y-103724500D01*
X136654876Y-103728975D01*
X136653671Y-103730365D01*
X136652000Y-103738048D01*
X136652000Y-104343885D01*
X136144000Y-104343885D01*
X136144000Y-103742616D01*
X136139525Y-103727377D01*
X136138135Y-103726172D01*
X136130452Y-103724501D01*
X136117395Y-103724501D01*
X136110574Y-103724871D01*
X136061727Y-103730176D01*
X136046476Y-103733802D01*
X135930447Y-103777299D01*
X135914861Y-103785833D01*
X135816563Y-103859502D01*
X135804002Y-103872063D01*
X135730333Y-103970361D01*
X135721799Y-103985947D01*
X135678303Y-104101973D01*
X135674675Y-104117229D01*
X135669369Y-104166076D01*
X135669000Y-104172893D01*
X135669000Y-104343885D01*
X129632248Y-104343885D01*
X129628984Y-104313834D01*
X129628983Y-104313830D01*
X129628130Y-104305976D01*
X129579917Y-104177365D01*
X129574537Y-104170186D01*
X129574535Y-104170183D01*
X129502923Y-104074633D01*
X129497544Y-104067456D01*
X129479762Y-104054129D01*
X129409934Y-104001795D01*
X129367420Y-103944935D01*
X129359500Y-103900969D01*
X129359500Y-103615946D01*
X129379502Y-103547825D01*
X129380103Y-103546946D01*
X129386326Y-103540723D01*
X129427733Y-103459458D01*
X129476482Y-103407843D01*
X129545397Y-103390777D01*
X129612598Y-103413678D01*
X129652267Y-103459458D01*
X129693674Y-103540723D01*
X129784277Y-103631326D01*
X129898445Y-103689498D01*
X129993166Y-103704500D01*
X130356834Y-103704500D01*
X130451555Y-103689498D01*
X130565723Y-103631326D01*
X130656326Y-103540723D01*
X130697733Y-103459458D01*
X130746482Y-103407843D01*
X130815397Y-103390777D01*
X130882598Y-103413678D01*
X130922267Y-103459458D01*
X130963674Y-103540723D01*
X131054277Y-103631326D01*
X131168445Y-103689498D01*
X131263166Y-103704500D01*
X131626834Y-103704500D01*
X131721555Y-103689498D01*
X131835723Y-103631326D01*
X131926326Y-103540723D01*
X131967733Y-103459458D01*
X132016482Y-103407843D01*
X132085397Y-103390777D01*
X132152598Y-103413678D01*
X132192267Y-103459458D01*
X132233674Y-103540723D01*
X132324277Y-103631326D01*
X132438445Y-103689498D01*
X132533166Y-103704500D01*
X132896834Y-103704500D01*
X132991555Y-103689498D01*
X133105723Y-103631326D01*
X133196326Y-103540723D01*
X133237733Y-103459458D01*
X133286482Y-103407843D01*
X133355397Y-103390777D01*
X133422598Y-103413678D01*
X133462267Y-103459458D01*
X133503674Y-103540723D01*
X133594277Y-103631326D01*
X133708445Y-103689498D01*
X133803166Y-103704500D01*
X134166834Y-103704500D01*
X134261555Y-103689498D01*
X134375723Y-103631326D01*
X134466326Y-103540723D01*
X134524498Y-103426555D01*
X134539500Y-103331834D01*
X134539500Y-101618166D01*
X134524498Y-101523445D01*
X134470531Y-101417530D01*
X134457427Y-101347754D01*
X134471171Y-101313891D01*
X134433662Y-101327881D01*
X134367470Y-101314469D01*
X134364501Y-101312956D01*
X134261555Y-101260502D01*
X134166834Y-101245500D01*
X133803166Y-101245500D01*
X133708445Y-101260502D01*
X133594277Y-101318674D01*
X133503674Y-101409277D01*
X133476366Y-101462872D01*
X133462267Y-101490542D01*
X133413518Y-101542157D01*
X133344603Y-101559223D01*
X133277402Y-101536322D01*
X133237733Y-101490542D01*
X133223634Y-101462872D01*
X133196326Y-101409277D01*
X133105723Y-101318674D01*
X132991555Y-101260502D01*
X132896834Y-101245500D01*
X132533166Y-101245500D01*
X132438445Y-101260502D01*
X132324277Y-101318674D01*
X132233674Y-101409277D01*
X132206366Y-101462872D01*
X132192267Y-101490542D01*
X132143518Y-101542157D01*
X132074603Y-101559223D01*
X132007402Y-101536322D01*
X131967733Y-101490542D01*
X131953634Y-101462872D01*
X131926326Y-101409277D01*
X131835723Y-101318674D01*
X131721555Y-101260502D01*
X131626834Y-101245500D01*
X131515501Y-101245500D01*
X131447380Y-101225498D01*
X131400887Y-101171842D01*
X131389501Y-101119500D01*
X131389501Y-101054228D01*
X131409503Y-100986107D01*
X131426406Y-100965133D01*
X131775133Y-100616406D01*
X131837445Y-100582380D01*
X131864228Y-100579501D01*
X133927972Y-100579501D01*
X133996093Y-100599503D01*
X134017067Y-100616406D01*
X134513768Y-101113107D01*
X134547794Y-101175419D01*
X134543102Y-101241021D01*
X134613086Y-101238021D01*
X134671893Y-101271232D01*
X135631595Y-102230934D01*
X135665621Y-102293246D01*
X135668500Y-102320029D01*
X135668500Y-102942570D01*
X135675036Y-103002736D01*
X135684417Y-103027759D01*
X135721356Y-103126293D01*
X135724507Y-103134699D01*
X135809026Y-103247474D01*
X135921801Y-103331993D01*
X135930202Y-103335143D01*
X135930205Y-103335144D01*
X135995858Y-103359756D01*
X136053764Y-103381464D01*
X136113930Y-103388000D01*
X136682070Y-103388000D01*
X136742236Y-103381464D01*
X136800142Y-103359756D01*
X136865795Y-103335144D01*
X136865798Y-103335143D01*
X136874199Y-103331993D01*
X136986974Y-103247474D01*
X137059173Y-103151138D01*
X137116032Y-103108622D01*
X137186851Y-103103596D01*
X137249144Y-103137656D01*
X137260827Y-103151138D01*
X137333026Y-103247474D01*
X137445801Y-103331993D01*
X137454202Y-103335143D01*
X137454205Y-103335144D01*
X137519858Y-103359756D01*
X137577764Y-103381464D01*
X137637930Y-103388000D01*
X138206070Y-103388000D01*
X138266236Y-103381464D01*
X138324142Y-103359756D01*
X138389795Y-103335144D01*
X138389798Y-103335143D01*
X138398199Y-103331993D01*
X138510974Y-103247474D01*
X138595493Y-103134699D01*
X138598644Y-103126295D01*
X138598645Y-103126293D01*
X138631818Y-103037802D01*
X138674459Y-102981037D01*
X138741021Y-102956337D01*
X138810369Y-102971544D01*
X138838895Y-102992936D01*
X138840398Y-102994439D01*
X138845990Y-103002010D01*
X138955924Y-103083209D01*
X139084873Y-103128493D01*
X139092515Y-103129215D01*
X139092518Y-103129216D01*
X139106095Y-103130499D01*
X139116685Y-103131500D01*
X139445777Y-103131500D01*
X139775314Y-103131499D01*
X139778262Y-103131220D01*
X139778271Y-103131220D01*
X139799477Y-103129216D01*
X139799478Y-103129216D01*
X139807127Y-103128493D01*
X139814376Y-103125947D01*
X139814382Y-103125946D01*
X139814679Y-103125842D01*
X139814913Y-103125830D01*
X139821878Y-103124302D01*
X139822131Y-103125454D01*
X139885579Y-103122146D01*
X139947223Y-103157368D01*
X139961004Y-103174450D01*
X140005073Y-103240031D01*
X140005077Y-103240035D01*
X140009314Y-103246341D01*
X140106772Y-103335020D01*
X140117364Y-103352416D01*
X140123369Y-103352807D01*
X140140206Y-103360407D01*
X140265699Y-103428544D01*
X140418928Y-103468743D01*
X140502883Y-103470062D01*
X140569725Y-103471112D01*
X140569728Y-103471112D01*
X140577322Y-103471231D01*
X140731738Y-103435865D01*
X140820615Y-103391165D01*
X140866478Y-103368099D01*
X140866481Y-103368097D01*
X140873261Y-103364687D01*
X140879032Y-103359758D01*
X140879035Y-103359756D01*
X140987942Y-103266740D01*
X140987942Y-103266739D01*
X140993720Y-103261805D01*
X141068802Y-103157317D01*
X141081724Y-103139335D01*
X141081725Y-103139334D01*
X141086161Y-103133160D01*
X141106123Y-103083503D01*
X141150090Y-103027759D01*
X141223030Y-103004500D01*
X142393057Y-103004500D01*
X142393060Y-103004499D01*
X142483000Y-103004499D01*
X142551121Y-103024501D01*
X142597614Y-103078157D01*
X142609000Y-103130499D01*
X142609000Y-103378000D01*
X142588998Y-103446121D01*
X142535342Y-103492614D01*
X142483000Y-103504000D01*
X141394116Y-103504000D01*
X141378877Y-103508475D01*
X141377672Y-103509865D01*
X141376001Y-103517548D01*
X141376001Y-103568828D01*
X141377209Y-103581088D01*
X141388315Y-103636931D01*
X141397633Y-103659427D01*
X141439983Y-103722808D01*
X141457192Y-103740017D01*
X141520575Y-103782368D01*
X141543066Y-103791684D01*
X141598915Y-103802793D01*
X141611170Y-103804000D01*
X141928822Y-103804000D01*
X141996943Y-103824002D01*
X142043436Y-103877658D01*
X142053540Y-103947932D01*
X142037775Y-103993286D01*
X142027507Y-104010963D01*
X142021706Y-104024304D01*
X142014329Y-104048662D01*
X142014209Y-104062764D01*
X142021139Y-104066000D01*
X143009680Y-104066000D01*
X143024919Y-104061525D01*
X143026124Y-104060135D01*
X143027795Y-104052452D01*
X143027795Y-103678965D01*
X143047797Y-103610844D01*
X143101453Y-103564351D01*
X143153795Y-103552965D01*
X143315885Y-103552965D01*
X143355380Y-103541368D01*
X143374299Y-103529210D01*
X143445295Y-103529211D01*
X143505021Y-103567596D01*
X143534513Y-103632177D01*
X143535795Y-103650107D01*
X143535795Y-104047885D01*
X143540270Y-104063124D01*
X143541660Y-104064329D01*
X143549343Y-104066000D01*
X144513254Y-104066000D01*
X144526785Y-104062027D01*
X144527516Y-104056944D01*
X144523967Y-104048604D01*
X146426588Y-104048604D01*
X146426628Y-104062705D01*
X146433898Y-104066000D01*
X147177885Y-104066000D01*
X147193124Y-104061525D01*
X147194329Y-104060135D01*
X147196000Y-104052452D01*
X147196000Y-104047885D01*
X147704000Y-104047885D01*
X147708475Y-104063124D01*
X147709865Y-104064329D01*
X147717548Y-104066000D01*
X148460351Y-104066000D01*
X148473882Y-104062027D01*
X148475017Y-104054129D01*
X148457193Y-103992778D01*
X148450948Y-103978345D01*
X148374903Y-103849759D01*
X148365263Y-103837332D01*
X148259633Y-103731702D01*
X148247206Y-103722062D01*
X148118622Y-103646018D01*
X148104187Y-103639772D01*
X148050047Y-103624042D01*
X148027905Y-103615264D01*
X148021139Y-103611809D01*
X148007500Y-103606737D01*
X147849284Y-103568023D01*
X147838225Y-103566340D01*
X147834679Y-103566120D01*
X147830801Y-103566000D01*
X147722115Y-103566000D01*
X147706876Y-103570475D01*
X147705671Y-103571865D01*
X147704000Y-103579548D01*
X147704000Y-104047885D01*
X147196000Y-104047885D01*
X147196000Y-103584115D01*
X147191525Y-103568876D01*
X147190135Y-103567671D01*
X147182452Y-103566000D01*
X147109637Y-103566000D01*
X147102333Y-103566425D01*
X146982634Y-103580380D01*
X146968481Y-103583726D01*
X146891183Y-103611783D01*
X146883345Y-103614341D01*
X146795814Y-103639771D01*
X146781378Y-103646018D01*
X146652794Y-103722062D01*
X146640367Y-103731702D01*
X146534737Y-103837332D01*
X146525097Y-103849759D01*
X146449052Y-103978345D01*
X146442807Y-103992778D01*
X146426588Y-104048604D01*
X144523967Y-104048604D01*
X144482271Y-103950612D01*
X144475071Y-103937988D01*
X144379533Y-103808167D01*
X144369619Y-103797536D01*
X144246775Y-103693172D01*
X144234686Y-103685109D01*
X144098865Y-103615755D01*
X144047292Y-103566961D01*
X144030286Y-103498032D01*
X144053246Y-103430850D01*
X144090370Y-103396971D01*
X144092250Y-103396192D01*
X144213304Y-103303304D01*
X144306192Y-103182250D01*
X144364584Y-103041280D01*
X144365779Y-103032207D01*
X144383422Y-102898188D01*
X144384500Y-102890000D01*
X144364584Y-102738720D01*
X144306192Y-102597750D01*
X144213304Y-102476696D01*
X144092250Y-102383808D01*
X143951280Y-102325416D01*
X143943092Y-102324338D01*
X143842067Y-102311038D01*
X143842066Y-102311038D01*
X143837980Y-102310500D01*
X143762020Y-102310500D01*
X143757934Y-102311038D01*
X143757933Y-102311038D01*
X143656908Y-102324338D01*
X143648720Y-102325416D01*
X143641093Y-102328575D01*
X143641090Y-102328576D01*
X143508717Y-102383407D01*
X143438127Y-102390996D01*
X143374640Y-102359217D01*
X143338413Y-102298159D01*
X143334499Y-102266998D01*
X143334499Y-102124934D01*
X143321537Y-102059765D01*
X145416000Y-102059765D01*
X145416207Y-102064870D01*
X145427047Y-102198128D01*
X145428813Y-102208658D01*
X145481753Y-102414850D01*
X145485486Y-102425390D01*
X145573997Y-102618716D01*
X145579534Y-102628423D01*
X145700883Y-102803021D01*
X145708057Y-102811600D01*
X145858400Y-102961943D01*
X145866979Y-102969117D01*
X146041577Y-103090466D01*
X146051284Y-103096003D01*
X146244610Y-103184514D01*
X146255150Y-103188247D01*
X146461342Y-103241187D01*
X146471872Y-103242953D01*
X146605130Y-103253793D01*
X146610235Y-103254000D01*
X147397885Y-103254000D01*
X147413124Y-103249525D01*
X147414329Y-103248135D01*
X147416000Y-103240452D01*
X147416000Y-100272115D01*
X147411525Y-100256876D01*
X147410135Y-100255671D01*
X147402452Y-100254000D01*
X145434115Y-100254000D01*
X145418876Y-100258475D01*
X145417671Y-100259865D01*
X145416000Y-100267548D01*
X145416000Y-102059765D01*
X143321537Y-102059765D01*
X143319734Y-102050699D01*
X143323934Y-102049864D01*
X143318843Y-102002676D01*
X143319828Y-101999320D01*
X143319734Y-101999301D01*
X143333293Y-101931135D01*
X143334500Y-101925067D01*
X143334499Y-101574934D01*
X143324483Y-101524576D01*
X143324484Y-101475421D01*
X143334500Y-101425067D01*
X143334499Y-101230500D01*
X143354501Y-101162380D01*
X143408156Y-101115887D01*
X143460499Y-101104500D01*
X143470743Y-101104500D01*
X143490537Y-101106606D01*
X143494890Y-101106811D01*
X143505070Y-101109003D01*
X143535740Y-101105373D01*
X143541083Y-101105058D01*
X143541072Y-101104928D01*
X143546252Y-101104500D01*
X143551451Y-101104500D01*
X143556575Y-101103647D01*
X143556588Y-101103646D01*
X143569041Y-101101573D01*
X143574916Y-101100736D01*
X143611929Y-101096355D01*
X143622270Y-101095131D01*
X143629978Y-101091430D01*
X143638417Y-101090025D01*
X143680401Y-101067371D01*
X143685664Y-101064690D01*
X143707451Y-101054228D01*
X143728658Y-101044045D01*
X143732650Y-101040689D01*
X143734597Y-101038742D01*
X143736222Y-101037252D01*
X143736654Y-101037019D01*
X143736687Y-101037055D01*
X143736845Y-101036916D01*
X143742280Y-101033983D01*
X143760236Y-101014559D01*
X143776357Y-100997119D01*
X143779786Y-100993553D01*
X143978423Y-100794916D01*
X143993909Y-100782408D01*
X143997134Y-100779474D01*
X144005882Y-100773825D01*
X144025003Y-100749570D01*
X144028561Y-100745567D01*
X144028461Y-100745482D01*
X144031814Y-100741525D01*
X144035495Y-100737844D01*
X144038521Y-100733610D01*
X144045864Y-100723335D01*
X144049426Y-100718591D01*
X144072497Y-100689325D01*
X144072499Y-100689321D01*
X144078946Y-100681143D01*
X144081779Y-100673075D01*
X144086753Y-100666115D01*
X144096740Y-100632718D01*
X144100420Y-100620414D01*
X144102256Y-100614765D01*
X144115424Y-100577269D01*
X144118050Y-100569792D01*
X144118500Y-100564596D01*
X144118500Y-100561891D01*
X144118597Y-100559635D01*
X144118740Y-100559159D01*
X144118786Y-100559161D01*
X144118799Y-100558962D01*
X144120568Y-100553045D01*
X144118597Y-100502876D01*
X144118500Y-100497930D01*
X144118500Y-100059257D01*
X144120606Y-100039463D01*
X144120811Y-100035110D01*
X144123003Y-100024930D01*
X144119373Y-99994260D01*
X144119058Y-99988917D01*
X144118928Y-99988928D01*
X144118500Y-99983748D01*
X144118500Y-99978549D01*
X144117647Y-99973425D01*
X144117646Y-99973412D01*
X144115573Y-99960959D01*
X144114736Y-99955084D01*
X144110355Y-99918071D01*
X144109131Y-99907730D01*
X144105430Y-99900022D01*
X144104025Y-99891583D01*
X144081371Y-99849599D01*
X144078690Y-99844336D01*
X144061475Y-99808486D01*
X144058045Y-99801342D01*
X144054689Y-99797350D01*
X144052742Y-99795403D01*
X144051252Y-99793778D01*
X144051019Y-99793346D01*
X144051055Y-99793313D01*
X144050916Y-99793155D01*
X144047983Y-99787720D01*
X144011131Y-99753654D01*
X144007565Y-99750226D01*
X143985224Y-99727885D01*
X145416000Y-99727885D01*
X145420475Y-99743124D01*
X145421865Y-99744329D01*
X145429548Y-99746000D01*
X147397885Y-99746000D01*
X147413124Y-99741525D01*
X147414329Y-99740135D01*
X147416000Y-99732452D01*
X147416000Y-96764115D01*
X147411525Y-96748876D01*
X147410135Y-96747671D01*
X147402452Y-96746000D01*
X146610235Y-96746000D01*
X146605130Y-96746207D01*
X146471872Y-96757047D01*
X146461342Y-96758813D01*
X146255150Y-96811753D01*
X146244610Y-96815486D01*
X146051284Y-96903997D01*
X146041577Y-96909534D01*
X145866979Y-97030883D01*
X145858400Y-97038057D01*
X145708057Y-97188400D01*
X145700883Y-97196979D01*
X145579534Y-97371577D01*
X145573997Y-97381284D01*
X145485486Y-97574610D01*
X145481753Y-97585150D01*
X145428813Y-97791342D01*
X145427047Y-97801872D01*
X145416207Y-97935130D01*
X145416000Y-97940235D01*
X145416000Y-99727885D01*
X143985224Y-99727885D01*
X143792916Y-99535578D01*
X143780414Y-99520098D01*
X143777475Y-99516868D01*
X143771825Y-99508118D01*
X143747562Y-99488991D01*
X143743567Y-99485441D01*
X143743483Y-99485540D01*
X143739520Y-99482182D01*
X143735844Y-99478506D01*
X143731614Y-99475483D01*
X143721348Y-99468146D01*
X143716605Y-99464585D01*
X143687325Y-99441503D01*
X143687321Y-99441501D01*
X143679143Y-99435054D01*
X143671075Y-99432221D01*
X143664115Y-99427247D01*
X143641554Y-99420500D01*
X143618414Y-99413580D01*
X143612765Y-99411744D01*
X143580739Y-99400497D01*
X143567792Y-99395950D01*
X143562596Y-99395500D01*
X143559891Y-99395500D01*
X143557635Y-99395403D01*
X143557159Y-99395260D01*
X143557161Y-99395214D01*
X143556962Y-99395201D01*
X143551045Y-99393432D01*
X143501411Y-99395382D01*
X143500876Y-99395403D01*
X143495930Y-99395500D01*
X143460500Y-99395500D01*
X143392379Y-99375498D01*
X143345886Y-99321842D01*
X143334500Y-99269501D01*
X143334499Y-99081123D01*
X143334499Y-99074934D01*
X143324483Y-99024576D01*
X143324484Y-98975421D01*
X143334500Y-98925067D01*
X143334499Y-98574934D01*
X143324483Y-98524576D01*
X143324484Y-98475421D01*
X143334500Y-98425067D01*
X143334499Y-98074934D01*
X143319734Y-98000699D01*
X143323934Y-97999864D01*
X143318843Y-97952676D01*
X143319828Y-97949320D01*
X143319734Y-97949301D01*
X143333293Y-97881135D01*
X143334500Y-97875067D01*
X143334500Y-97733002D01*
X143354502Y-97664881D01*
X143408158Y-97618388D01*
X143478432Y-97608284D01*
X143508718Y-97616593D01*
X143543751Y-97631104D01*
X143648720Y-97674584D01*
X143762020Y-97689500D01*
X143837980Y-97689500D01*
X143951280Y-97674584D01*
X144092250Y-97616192D01*
X144213304Y-97523304D01*
X144306192Y-97402250D01*
X144364584Y-97261280D01*
X144384500Y-97110000D01*
X144371365Y-97010228D01*
X144365662Y-96966908D01*
X144364584Y-96958720D01*
X144306192Y-96817750D01*
X144213304Y-96696696D01*
X144092250Y-96603808D01*
X144089172Y-96602533D01*
X144041752Y-96552803D01*
X144028314Y-96483090D01*
X144054699Y-96417178D01*
X144110752Y-96376625D01*
X144153033Y-96361278D01*
X144166029Y-96354769D01*
X144300826Y-96266392D01*
X144311978Y-96257068D01*
X144422828Y-96140053D01*
X144431540Y-96128408D01*
X144512494Y-95989034D01*
X144518294Y-95975696D01*
X144525671Y-95951338D01*
X144525718Y-95945871D01*
X146424983Y-95945871D01*
X146442807Y-96007222D01*
X146449052Y-96021655D01*
X146525097Y-96150241D01*
X146534737Y-96162668D01*
X146640367Y-96268298D01*
X146652794Y-96277938D01*
X146781378Y-96353982D01*
X146795813Y-96360228D01*
X146849953Y-96375958D01*
X146872095Y-96384736D01*
X146878861Y-96388191D01*
X146892500Y-96393263D01*
X147050716Y-96431977D01*
X147061775Y-96433660D01*
X147065321Y-96433880D01*
X147069199Y-96434000D01*
X147177885Y-96434000D01*
X147193124Y-96429525D01*
X147194329Y-96428135D01*
X147196000Y-96420452D01*
X147196000Y-96415885D01*
X147704000Y-96415885D01*
X147708475Y-96431124D01*
X147709865Y-96432329D01*
X147717548Y-96434000D01*
X147790363Y-96434000D01*
X147797667Y-96433575D01*
X147917366Y-96419620D01*
X147931519Y-96416274D01*
X148008817Y-96388217D01*
X148016655Y-96385659D01*
X148104186Y-96360229D01*
X148118622Y-96353982D01*
X148247206Y-96277938D01*
X148259633Y-96268298D01*
X148365263Y-96162668D01*
X148374903Y-96150241D01*
X148450948Y-96021655D01*
X148457193Y-96007222D01*
X148473412Y-95951396D01*
X148473372Y-95937295D01*
X148466102Y-95934000D01*
X147722115Y-95934000D01*
X147706876Y-95938475D01*
X147705671Y-95939865D01*
X147704000Y-95947548D01*
X147704000Y-96415885D01*
X147196000Y-96415885D01*
X147196000Y-95952115D01*
X147191525Y-95936876D01*
X147190135Y-95935671D01*
X147182452Y-95934000D01*
X146439649Y-95934000D01*
X146426118Y-95937973D01*
X146424983Y-95945871D01*
X144525718Y-95945871D01*
X144525791Y-95937236D01*
X144518861Y-95934000D01*
X143553910Y-95934000D01*
X143538671Y-95938475D01*
X143537466Y-95939865D01*
X143535795Y-95947548D01*
X143535795Y-96352744D01*
X143515793Y-96420865D01*
X143462137Y-96467358D01*
X143391863Y-96477462D01*
X143329596Y-96449024D01*
X143320451Y-96447035D01*
X143153795Y-96447035D01*
X143085674Y-96427033D01*
X143039181Y-96373377D01*
X143027795Y-96321035D01*
X143027795Y-95952115D01*
X143023320Y-95936876D01*
X143021930Y-95935671D01*
X143014247Y-95934000D01*
X142026746Y-95934000D01*
X142013215Y-95937973D01*
X142012484Y-95943056D01*
X142045508Y-96020668D01*
X142053774Y-96091182D01*
X142022605Y-96154971D01*
X141961897Y-96191783D01*
X141929567Y-96196001D01*
X141611172Y-96196001D01*
X141598912Y-96197209D01*
X141543069Y-96208315D01*
X141520573Y-96217633D01*
X141457192Y-96259983D01*
X141439983Y-96277192D01*
X141397632Y-96340575D01*
X141388316Y-96363066D01*
X141377207Y-96418915D01*
X141376000Y-96431170D01*
X141376000Y-96477885D01*
X141380475Y-96493124D01*
X141381865Y-96494329D01*
X141389548Y-96496000D01*
X142082885Y-96496000D01*
X142098124Y-96491525D01*
X142099329Y-96490135D01*
X142101000Y-96482452D01*
X142101000Y-96282000D01*
X142121002Y-96213879D01*
X142174658Y-96167386D01*
X142227000Y-96156000D01*
X142483000Y-96156000D01*
X142551121Y-96176002D01*
X142597614Y-96229658D01*
X142609000Y-96282000D01*
X142609000Y-96869500D01*
X142588998Y-96937621D01*
X142535342Y-96984114D01*
X142483000Y-96995500D01*
X141199199Y-96995500D01*
X141131078Y-96975498D01*
X141095359Y-96940867D01*
X141085476Y-96926486D01*
X141050641Y-96875801D01*
X141016537Y-96826179D01*
X141016536Y-96826177D01*
X141012235Y-96819920D01*
X141003069Y-96811753D01*
X140949600Y-96764115D01*
X140893957Y-96714539D01*
X140887147Y-96710933D01*
X140806074Y-96668007D01*
X140753956Y-96640412D01*
X140600315Y-96601820D01*
X140592716Y-96601780D01*
X140592715Y-96601780D01*
X140526863Y-96601435D01*
X140441903Y-96600990D01*
X140434523Y-96602762D01*
X140434521Y-96602762D01*
X140295245Y-96636199D01*
X140295242Y-96636200D01*
X140287866Y-96637971D01*
X140147096Y-96710628D01*
X140141377Y-96715617D01*
X140070793Y-96777192D01*
X140027721Y-96814766D01*
X140019700Y-96826179D01*
X140006911Y-96844375D01*
X139951376Y-96888605D01*
X139880744Y-96895790D01*
X139862083Y-96890806D01*
X139807127Y-96871507D01*
X139799485Y-96870785D01*
X139799482Y-96870784D01*
X139784579Y-96869376D01*
X139775315Y-96868500D01*
X139446223Y-96868500D01*
X139116686Y-96868501D01*
X139113738Y-96868780D01*
X139113729Y-96868780D01*
X139092522Y-96870784D01*
X139092520Y-96870784D01*
X139084873Y-96871507D01*
X139077623Y-96874053D01*
X139069562Y-96876884D01*
X138955924Y-96916791D01*
X138845990Y-96997990D01*
X138840398Y-97005561D01*
X138838895Y-97007064D01*
X138776583Y-97041090D01*
X138705768Y-97036025D01*
X138648932Y-96993478D01*
X138631818Y-96962198D01*
X138598645Y-96873707D01*
X138598643Y-96873703D01*
X138595493Y-96865301D01*
X138510974Y-96752526D01*
X138398199Y-96668007D01*
X138389798Y-96664857D01*
X138389795Y-96664856D01*
X138311387Y-96635463D01*
X138266236Y-96618536D01*
X138206070Y-96612000D01*
X137637930Y-96612000D01*
X137577764Y-96618536D01*
X137532613Y-96635463D01*
X137454205Y-96664856D01*
X137454202Y-96664857D01*
X137445801Y-96668007D01*
X137333026Y-96752526D01*
X137327645Y-96759706D01*
X137260827Y-96848862D01*
X137203968Y-96891378D01*
X137133149Y-96896404D01*
X137070856Y-96862344D01*
X137059173Y-96848862D01*
X136992355Y-96759706D01*
X136986974Y-96752526D01*
X136874199Y-96668007D01*
X136865798Y-96664857D01*
X136865795Y-96664856D01*
X136787387Y-96635463D01*
X136742236Y-96618536D01*
X136682070Y-96612000D01*
X136113930Y-96612000D01*
X136053764Y-96618536D01*
X136008613Y-96635463D01*
X135930205Y-96664856D01*
X135930202Y-96664857D01*
X135921801Y-96668007D01*
X135809026Y-96752526D01*
X135724507Y-96865301D01*
X135721357Y-96873702D01*
X135721356Y-96873705D01*
X135699814Y-96931170D01*
X135675036Y-96997264D01*
X135668500Y-97057430D01*
X135668500Y-97679971D01*
X135648498Y-97748092D01*
X135631600Y-97769061D01*
X134671891Y-98728771D01*
X134609581Y-98762794D01*
X134543980Y-98758103D01*
X134546979Y-98828086D01*
X134513769Y-98886893D01*
X134017068Y-99383594D01*
X133954756Y-99417620D01*
X133927973Y-99420499D01*
X131530058Y-99420499D01*
X131510264Y-99418393D01*
X131505911Y-99418188D01*
X131495731Y-99415996D01*
X131465061Y-99419626D01*
X131459718Y-99419941D01*
X131459729Y-99420071D01*
X131454549Y-99420499D01*
X131449350Y-99420499D01*
X131444226Y-99421352D01*
X131444213Y-99421353D01*
X131431760Y-99423426D01*
X131425885Y-99424263D01*
X131388872Y-99428644D01*
X131378531Y-99429868D01*
X131370823Y-99433569D01*
X131362384Y-99434974D01*
X131320400Y-99457628D01*
X131315137Y-99460309D01*
X131312755Y-99461453D01*
X131272143Y-99480954D01*
X131268151Y-99484310D01*
X131266204Y-99486257D01*
X131264579Y-99487747D01*
X131264147Y-99487980D01*
X131264114Y-99487944D01*
X131263956Y-99488083D01*
X131258521Y-99491016D01*
X131251452Y-99498663D01*
X131224456Y-99527867D01*
X131221028Y-99531433D01*
X130794435Y-99958027D01*
X130370577Y-100381885D01*
X130355097Y-100394387D01*
X130351867Y-100397326D01*
X130343117Y-100402976D01*
X130323990Y-100427239D01*
X130320440Y-100431234D01*
X130320539Y-100431318D01*
X130317181Y-100435281D01*
X130313505Y-100438957D01*
X130310482Y-100443186D01*
X130310482Y-100443187D01*
X130303145Y-100453453D01*
X130299584Y-100458196D01*
X130276502Y-100487476D01*
X130276500Y-100487480D01*
X130270053Y-100495658D01*
X130267220Y-100503726D01*
X130262246Y-100510686D01*
X130259262Y-100520664D01*
X130248579Y-100556387D01*
X130246743Y-100562036D01*
X130246314Y-100563259D01*
X130230949Y-100607009D01*
X130230499Y-100612205D01*
X130230499Y-100614910D01*
X130230402Y-100617166D01*
X130230259Y-100617642D01*
X130230213Y-100617640D01*
X130230200Y-100617839D01*
X130228431Y-100623756D01*
X130229105Y-100640915D01*
X130230402Y-100673925D01*
X130230499Y-100678871D01*
X130230499Y-101119500D01*
X130210497Y-101187621D01*
X130156841Y-101234114D01*
X130104499Y-101245500D01*
X129993166Y-101245500D01*
X129898445Y-101260502D01*
X129784277Y-101318674D01*
X129693674Y-101409277D01*
X129666366Y-101462872D01*
X129652267Y-101490542D01*
X129603518Y-101542157D01*
X129534603Y-101559223D01*
X129467402Y-101536322D01*
X129427733Y-101490542D01*
X129413634Y-101462872D01*
X129386326Y-101409277D01*
X129382678Y-101405629D01*
X129359706Y-101341250D01*
X129359500Y-101334054D01*
X129359500Y-101253456D01*
X129360373Y-101238647D01*
X129363300Y-101213915D01*
X129364407Y-101204562D01*
X129362715Y-101195295D01*
X129353771Y-101146320D01*
X129353122Y-101142418D01*
X129345716Y-101093164D01*
X129345715Y-101093161D01*
X129344315Y-101083849D01*
X129341162Y-101077282D01*
X129339853Y-101070117D01*
X129312538Y-101017533D01*
X129310788Y-101014030D01*
X129310454Y-101013334D01*
X129285154Y-100960647D01*
X129280259Y-100955352D01*
X129280166Y-100955213D01*
X129276852Y-100948834D01*
X129272506Y-100943746D01*
X129234924Y-100906164D01*
X129231494Y-100902598D01*
X129198774Y-100867202D01*
X129192383Y-100860288D01*
X129185983Y-100856570D01*
X129179723Y-100850963D01*
X127949114Y-99620354D01*
X127939259Y-99609265D01*
X127933985Y-99602575D01*
X127918006Y-99582306D01*
X127893127Y-99565111D01*
X127869271Y-99548623D01*
X127866078Y-99546341D01*
X127818441Y-99511156D01*
X127811568Y-99508742D01*
X127805576Y-99504601D01*
X127749087Y-99486736D01*
X127745366Y-99485494D01*
X127689491Y-99465872D01*
X127682287Y-99465589D01*
X127682116Y-99465556D01*
X127675268Y-99463390D01*
X127668597Y-99462865D01*
X127668306Y-99462865D01*
X127661058Y-99461453D01*
X127661581Y-99458768D01*
X127606961Y-99437954D01*
X127593777Y-99426407D01*
X127580732Y-99413270D01*
X127580723Y-99413263D01*
X127575764Y-99408269D01*
X127564284Y-99400983D01*
X127466048Y-99338641D01*
X127432844Y-99317569D01*
X127388447Y-99301760D01*
X127280016Y-99263149D01*
X127280011Y-99263148D01*
X127273381Y-99260787D01*
X127266395Y-99259954D01*
X127266391Y-99259953D01*
X127145178Y-99245500D01*
X127105301Y-99240745D01*
X127098298Y-99241481D01*
X127098297Y-99241481D01*
X126943965Y-99257701D01*
X126943961Y-99257702D01*
X126936957Y-99258438D01*
X126930286Y-99260709D01*
X126783387Y-99310717D01*
X126783384Y-99310718D01*
X126776717Y-99312988D01*
X126770718Y-99316679D01*
X126770713Y-99316681D01*
X126765353Y-99319979D01*
X126696853Y-99338641D01*
X126629138Y-99317306D01*
X126610231Y-99301760D01*
X126278066Y-98969595D01*
X126244040Y-98907283D01*
X126249105Y-98836468D01*
X126291652Y-98779632D01*
X126358172Y-98754821D01*
X126367161Y-98754500D01*
X126546834Y-98754500D01*
X126641555Y-98739498D01*
X126755723Y-98681326D01*
X126846326Y-98590723D01*
X126887733Y-98509458D01*
X126936482Y-98457843D01*
X127005397Y-98440777D01*
X127072598Y-98463678D01*
X127112267Y-98509458D01*
X127153674Y-98590723D01*
X127244277Y-98681326D01*
X127358445Y-98739498D01*
X127453166Y-98754500D01*
X127816834Y-98754500D01*
X127911555Y-98739498D01*
X128025723Y-98681326D01*
X128116326Y-98590723D01*
X128157733Y-98509458D01*
X128206482Y-98457843D01*
X128275397Y-98440777D01*
X128342598Y-98463678D01*
X128382267Y-98509458D01*
X128423674Y-98590723D01*
X128514277Y-98681326D01*
X128628445Y-98739498D01*
X128723166Y-98754500D01*
X129086834Y-98754500D01*
X129181555Y-98739498D01*
X129295723Y-98681326D01*
X129386326Y-98590723D01*
X129427733Y-98509458D01*
X129476482Y-98457843D01*
X129545397Y-98440777D01*
X129612598Y-98463678D01*
X129652267Y-98509458D01*
X129693674Y-98590723D01*
X129784277Y-98681326D01*
X129898445Y-98739498D01*
X129993166Y-98754500D01*
X130356834Y-98754500D01*
X130451555Y-98739498D01*
X130565723Y-98681326D01*
X130656326Y-98590723D01*
X130697733Y-98509458D01*
X130746482Y-98457843D01*
X130815397Y-98440777D01*
X130882598Y-98463678D01*
X130922267Y-98509458D01*
X130963674Y-98590723D01*
X131054277Y-98681326D01*
X131168445Y-98739498D01*
X131263166Y-98754500D01*
X131626834Y-98754500D01*
X131721555Y-98739498D01*
X131835723Y-98681326D01*
X131926326Y-98590723D01*
X131967733Y-98509458D01*
X132016482Y-98457843D01*
X132085397Y-98440777D01*
X132152598Y-98463678D01*
X132192267Y-98509458D01*
X132233674Y-98590723D01*
X132324277Y-98681326D01*
X132438445Y-98739498D01*
X132533166Y-98754500D01*
X132896834Y-98754500D01*
X132991555Y-98739498D01*
X133105723Y-98681326D01*
X133196326Y-98590723D01*
X133237733Y-98509458D01*
X133286482Y-98457843D01*
X133355397Y-98440777D01*
X133422598Y-98463678D01*
X133462267Y-98509458D01*
X133503674Y-98590723D01*
X133594277Y-98681326D01*
X133708445Y-98739498D01*
X133803166Y-98754500D01*
X134166834Y-98754500D01*
X134261555Y-98739498D01*
X134323487Y-98707942D01*
X134367471Y-98685531D01*
X134437248Y-98672427D01*
X134471109Y-98686170D01*
X134457119Y-98648663D01*
X134470531Y-98582471D01*
X134519997Y-98485389D01*
X134519997Y-98485388D01*
X134524498Y-98476555D01*
X134539500Y-98381834D01*
X134539500Y-96668166D01*
X134524498Y-96573445D01*
X134466326Y-96459277D01*
X134375723Y-96368674D01*
X134261555Y-96310502D01*
X134166834Y-96295500D01*
X133803166Y-96295500D01*
X133708445Y-96310502D01*
X133594277Y-96368674D01*
X133503674Y-96459277D01*
X133471994Y-96521452D01*
X133462267Y-96540542D01*
X133413518Y-96592157D01*
X133344603Y-96609223D01*
X133277402Y-96586322D01*
X133237733Y-96540542D01*
X133228006Y-96521452D01*
X133196326Y-96459277D01*
X133105723Y-96368674D01*
X132991555Y-96310502D01*
X132896834Y-96295500D01*
X132533166Y-96295500D01*
X132438445Y-96310502D01*
X132324277Y-96368674D01*
X132233674Y-96459277D01*
X132201994Y-96521452D01*
X132192267Y-96540542D01*
X132143518Y-96592157D01*
X132074603Y-96609223D01*
X132007402Y-96586322D01*
X131967733Y-96540542D01*
X131958006Y-96521452D01*
X131926326Y-96459277D01*
X131835723Y-96368674D01*
X131721555Y-96310502D01*
X131626834Y-96295500D01*
X131263166Y-96295500D01*
X131168445Y-96310502D01*
X131054277Y-96368674D01*
X130963674Y-96459277D01*
X130931994Y-96521452D01*
X130922267Y-96540542D01*
X130873518Y-96592157D01*
X130804603Y-96609223D01*
X130737402Y-96586322D01*
X130697733Y-96540542D01*
X130688006Y-96521452D01*
X130656326Y-96459277D01*
X130565723Y-96368674D01*
X130451555Y-96310502D01*
X130356834Y-96295500D01*
X129993166Y-96295500D01*
X129898445Y-96310502D01*
X129784277Y-96368674D01*
X129693674Y-96459277D01*
X129661994Y-96521452D01*
X129652267Y-96540542D01*
X129603518Y-96592157D01*
X129534603Y-96609223D01*
X129467402Y-96586322D01*
X129427733Y-96540542D01*
X129418006Y-96521452D01*
X129386326Y-96459277D01*
X129295723Y-96368674D01*
X129181555Y-96310502D01*
X129086834Y-96295500D01*
X128723166Y-96295500D01*
X128628445Y-96310502D01*
X128514277Y-96368674D01*
X128423674Y-96459277D01*
X128391994Y-96521452D01*
X128382267Y-96540542D01*
X128333518Y-96592157D01*
X128264603Y-96609223D01*
X128197402Y-96586322D01*
X128157733Y-96540542D01*
X128148006Y-96521452D01*
X128116326Y-96459277D01*
X128025723Y-96368674D01*
X127911555Y-96310502D01*
X127816834Y-96295500D01*
X127453166Y-96295500D01*
X127358445Y-96310502D01*
X127244277Y-96368674D01*
X127153674Y-96459277D01*
X127121994Y-96521452D01*
X127112267Y-96540542D01*
X127063518Y-96592157D01*
X126994603Y-96609223D01*
X126927402Y-96586322D01*
X126887733Y-96540542D01*
X126878006Y-96521452D01*
X126846326Y-96459277D01*
X126755723Y-96368674D01*
X126641555Y-96310502D01*
X126546834Y-96295500D01*
X126183166Y-96295500D01*
X126088445Y-96310502D01*
X125974277Y-96368674D01*
X125883674Y-96459277D01*
X125851994Y-96521452D01*
X125842267Y-96540542D01*
X125793518Y-96592157D01*
X125724603Y-96609223D01*
X125657402Y-96586322D01*
X125617733Y-96540542D01*
X125608006Y-96521452D01*
X125576326Y-96459277D01*
X125572678Y-96455629D01*
X125549706Y-96391250D01*
X125549500Y-96384054D01*
X125549500Y-96251031D01*
X125569502Y-96182910D01*
X125599934Y-96150205D01*
X125680367Y-96089923D01*
X125687544Y-96084544D01*
X125692923Y-96077367D01*
X125764535Y-95981817D01*
X125764537Y-95981814D01*
X125769917Y-95974635D01*
X125778629Y-95951396D01*
X125815358Y-95853419D01*
X125815358Y-95853418D01*
X125818130Y-95846024D01*
X125820185Y-95827105D01*
X135669001Y-95827105D01*
X135669371Y-95833926D01*
X135674676Y-95882773D01*
X135678302Y-95898024D01*
X135721799Y-96014053D01*
X135730333Y-96029639D01*
X135804002Y-96127937D01*
X135816563Y-96140498D01*
X135914861Y-96214167D01*
X135930447Y-96222701D01*
X136046473Y-96266197D01*
X136061729Y-96269825D01*
X136110576Y-96275131D01*
X136117393Y-96275500D01*
X136125885Y-96275500D01*
X136141124Y-96271025D01*
X136142329Y-96269635D01*
X136144000Y-96261952D01*
X136144000Y-96257384D01*
X136652000Y-96257384D01*
X136656475Y-96272623D01*
X136657865Y-96273828D01*
X136665548Y-96275499D01*
X136678605Y-96275499D01*
X136685426Y-96275129D01*
X136734273Y-96269824D01*
X136749524Y-96266198D01*
X136865553Y-96222701D01*
X136881139Y-96214167D01*
X136979437Y-96140498D01*
X136991999Y-96127936D01*
X137059174Y-96038304D01*
X137116033Y-95995789D01*
X137186851Y-95990763D01*
X137249145Y-96024823D01*
X137260826Y-96038304D01*
X137328001Y-96127936D01*
X137340563Y-96140498D01*
X137438861Y-96214167D01*
X137454447Y-96222701D01*
X137570473Y-96266197D01*
X137585729Y-96269825D01*
X137634576Y-96275131D01*
X137641393Y-96275500D01*
X137649885Y-96275500D01*
X137665124Y-96271025D01*
X137666329Y-96269635D01*
X137668000Y-96261952D01*
X137668000Y-96257384D01*
X138176000Y-96257384D01*
X138180475Y-96272623D01*
X138181865Y-96273828D01*
X138189548Y-96275499D01*
X138202605Y-96275499D01*
X138209426Y-96275129D01*
X138258273Y-96269824D01*
X138273524Y-96266198D01*
X138389553Y-96222701D01*
X138405139Y-96214167D01*
X138503437Y-96140498D01*
X138517282Y-96126653D01*
X138579594Y-96092627D01*
X138650409Y-96097692D01*
X138707245Y-96140239D01*
X138725259Y-96173999D01*
X138762114Y-96278947D01*
X138770837Y-96295420D01*
X138840752Y-96390078D01*
X138853922Y-96403248D01*
X138948580Y-96473163D01*
X138965049Y-96481884D01*
X139077723Y-96521452D01*
X139092614Y-96524719D01*
X139113799Y-96526721D01*
X139119713Y-96527000D01*
X139173885Y-96527000D01*
X139189124Y-96522525D01*
X139190329Y-96521135D01*
X139192000Y-96513452D01*
X139192000Y-96508884D01*
X139700000Y-96508884D01*
X139704475Y-96524123D01*
X139705865Y-96525328D01*
X139713548Y-96526999D01*
X139772283Y-96526999D01*
X139778207Y-96526720D01*
X139799382Y-96524719D01*
X139814280Y-96521451D01*
X139926951Y-96481884D01*
X139943420Y-96473163D01*
X140038078Y-96403248D01*
X140051248Y-96390078D01*
X140121163Y-96295420D01*
X140129884Y-96278951D01*
X140169452Y-96166277D01*
X140172719Y-96151386D01*
X140173723Y-96140765D01*
X140170525Y-96129876D01*
X140169135Y-96128671D01*
X140161452Y-96127000D01*
X139718115Y-96127000D01*
X139702876Y-96131475D01*
X139701671Y-96132865D01*
X139700000Y-96140548D01*
X139700000Y-96508884D01*
X139192000Y-96508884D01*
X139192000Y-95600885D01*
X139700000Y-95600885D01*
X139704475Y-95616124D01*
X139705865Y-95617329D01*
X139713548Y-95619000D01*
X140156884Y-95619000D01*
X140172123Y-95614525D01*
X140173328Y-95613135D01*
X140174123Y-95609479D01*
X140172719Y-95594618D01*
X140169451Y-95579720D01*
X140129884Y-95467049D01*
X140121163Y-95450580D01*
X140089628Y-95407885D01*
X141977796Y-95407885D01*
X141982271Y-95423124D01*
X141983661Y-95424329D01*
X141991344Y-95426000D01*
X142997885Y-95426000D01*
X143013124Y-95421525D01*
X143014329Y-95420135D01*
X143016000Y-95412452D01*
X143016000Y-95407885D01*
X143535795Y-95407885D01*
X143540270Y-95423124D01*
X143541660Y-95424329D01*
X143549343Y-95426000D01*
X144567680Y-95426000D01*
X144582919Y-95421525D01*
X144584124Y-95420135D01*
X144585795Y-95412452D01*
X144585795Y-95407885D01*
X146396001Y-95407885D01*
X146400476Y-95423124D01*
X146401866Y-95424329D01*
X146409549Y-95426000D01*
X147177885Y-95426000D01*
X147193124Y-95421525D01*
X147194329Y-95420135D01*
X147196000Y-95412452D01*
X147196000Y-95407885D01*
X147704000Y-95407885D01*
X147708475Y-95423124D01*
X147709865Y-95424329D01*
X147717548Y-95426000D01*
X148485885Y-95426000D01*
X148501124Y-95421525D01*
X148502329Y-95420135D01*
X148504000Y-95412452D01*
X148504000Y-94425150D01*
X148499525Y-94409911D01*
X148498135Y-94408706D01*
X148490452Y-94407035D01*
X147722115Y-94407035D01*
X147706876Y-94411510D01*
X147705671Y-94412900D01*
X147704000Y-94420583D01*
X147704000Y-95407885D01*
X147196000Y-95407885D01*
X147196000Y-94425150D01*
X147191525Y-94409911D01*
X147190135Y-94408706D01*
X147182452Y-94407035D01*
X146414116Y-94407035D01*
X146398877Y-94411510D01*
X146397672Y-94412900D01*
X146396001Y-94420583D01*
X146396001Y-95407885D01*
X144585795Y-95407885D01*
X144585795Y-95175150D01*
X144581320Y-95159911D01*
X144579930Y-95158706D01*
X144572247Y-95157035D01*
X143553910Y-95157035D01*
X143538671Y-95161510D01*
X143537466Y-95162900D01*
X143535795Y-95170583D01*
X143535795Y-95407885D01*
X143016000Y-95407885D01*
X143016000Y-95175150D01*
X143011525Y-95159911D01*
X143010135Y-95158706D01*
X143002452Y-95157035D01*
X141995911Y-95157035D01*
X141980672Y-95161510D01*
X141979467Y-95162900D01*
X141977796Y-95170583D01*
X141977796Y-95407885D01*
X140089628Y-95407885D01*
X140051248Y-95355922D01*
X140038078Y-95342752D01*
X139943420Y-95272837D01*
X139926951Y-95264116D01*
X139814277Y-95224548D01*
X139799386Y-95221281D01*
X139778201Y-95219279D01*
X139772287Y-95219000D01*
X139718115Y-95219000D01*
X139702876Y-95223475D01*
X139701671Y-95224865D01*
X139700000Y-95232548D01*
X139700000Y-95600885D01*
X139192000Y-95600885D01*
X139192000Y-95237116D01*
X139187525Y-95221877D01*
X139186135Y-95220672D01*
X139178452Y-95219001D01*
X139119717Y-95219001D01*
X139113793Y-95219280D01*
X139092618Y-95221281D01*
X139077720Y-95224549D01*
X138965049Y-95264116D01*
X138948584Y-95272834D01*
X138851858Y-95344277D01*
X138785179Y-95368659D01*
X138715904Y-95353122D01*
X138666025Y-95302598D01*
X138650999Y-95242925D01*
X138650999Y-94940895D01*
X138650629Y-94934074D01*
X138645324Y-94885227D01*
X138641698Y-94869976D01*
X138598201Y-94753947D01*
X138589667Y-94738361D01*
X138515998Y-94640063D01*
X138506855Y-94630920D01*
X141977795Y-94630920D01*
X141982270Y-94646159D01*
X141983660Y-94647364D01*
X141991343Y-94649035D01*
X143009680Y-94649035D01*
X143024919Y-94644560D01*
X143026124Y-94643170D01*
X143027795Y-94635487D01*
X143027795Y-94630920D01*
X143535795Y-94630920D01*
X143540270Y-94646159D01*
X143541660Y-94647364D01*
X143549343Y-94649035D01*
X144567679Y-94649035D01*
X144582918Y-94644560D01*
X144584123Y-94643170D01*
X144585794Y-94635487D01*
X144585794Y-94094342D01*
X144585745Y-94092636D01*
X144584327Y-94082727D01*
X144547799Y-93924507D01*
X144543149Y-93911302D01*
X144528462Y-93880920D01*
X146396000Y-93880920D01*
X146400475Y-93896159D01*
X146401865Y-93897364D01*
X146409548Y-93899035D01*
X147177885Y-93899035D01*
X147193124Y-93894560D01*
X147194329Y-93893170D01*
X147196000Y-93885487D01*
X147196000Y-93880920D01*
X147704000Y-93880920D01*
X147708475Y-93896159D01*
X147709865Y-93897364D01*
X147717548Y-93899035D01*
X148485884Y-93899035D01*
X148501123Y-93894560D01*
X148502328Y-93893170D01*
X148503999Y-93885487D01*
X148503999Y-92489464D01*
X148503805Y-92484528D01*
X148501587Y-92456332D01*
X148499286Y-92443731D01*
X148457194Y-92298849D01*
X148450947Y-92284413D01*
X148374903Y-92155829D01*
X148365263Y-92143402D01*
X148259633Y-92037772D01*
X148247206Y-92028132D01*
X148118622Y-91952088D01*
X148104186Y-91945841D01*
X147959298Y-91903748D01*
X147946711Y-91901448D01*
X147918501Y-91899228D01*
X147913575Y-91899035D01*
X147722115Y-91899035D01*
X147706876Y-91903510D01*
X147705671Y-91904900D01*
X147704000Y-91912583D01*
X147704000Y-93880920D01*
X147196000Y-93880920D01*
X147196000Y-91917151D01*
X147191525Y-91901912D01*
X147190135Y-91900707D01*
X147182452Y-91899036D01*
X146986429Y-91899036D01*
X146981493Y-91899230D01*
X146953297Y-91901448D01*
X146940696Y-91903749D01*
X146795814Y-91945841D01*
X146781378Y-91952088D01*
X146652794Y-92028132D01*
X146640367Y-92037772D01*
X146534737Y-92143402D01*
X146525097Y-92155829D01*
X146449053Y-92284413D01*
X146442806Y-92298849D01*
X146400713Y-92443737D01*
X146398413Y-92456324D01*
X146396193Y-92484534D01*
X146396000Y-92489460D01*
X146396000Y-93880920D01*
X144528462Y-93880920D01*
X144473214Y-93766636D01*
X144465757Y-93754794D01*
X144365510Y-93629216D01*
X144355614Y-93619320D01*
X144230036Y-93519073D01*
X144218194Y-93511616D01*
X144073528Y-93441681D01*
X144060323Y-93437031D01*
X143902095Y-93400501D01*
X143892210Y-93399085D01*
X143890458Y-93399035D01*
X143553910Y-93399035D01*
X143538671Y-93403510D01*
X143537466Y-93404900D01*
X143535795Y-93412583D01*
X143535795Y-94630920D01*
X143027795Y-94630920D01*
X143027795Y-93417151D01*
X143023320Y-93401912D01*
X143021930Y-93400707D01*
X143014247Y-93399036D01*
X142673102Y-93399036D01*
X142671396Y-93399085D01*
X142661487Y-93400503D01*
X142503267Y-93437031D01*
X142490062Y-93441681D01*
X142345396Y-93511616D01*
X142333554Y-93519073D01*
X142207976Y-93619320D01*
X142198080Y-93629216D01*
X142097833Y-93754794D01*
X142090376Y-93766636D01*
X142020441Y-93911302D01*
X142015791Y-93924507D01*
X141979261Y-94082735D01*
X141977845Y-94092620D01*
X141977795Y-94094372D01*
X141977795Y-94630920D01*
X138506855Y-94630920D01*
X138503437Y-94627502D01*
X138405139Y-94553833D01*
X138389553Y-94545299D01*
X138273527Y-94501803D01*
X138258271Y-94498175D01*
X138209424Y-94492869D01*
X138202607Y-94492500D01*
X138194115Y-94492500D01*
X138178876Y-94496975D01*
X138177671Y-94498365D01*
X138176000Y-94506048D01*
X138176000Y-96257384D01*
X137668000Y-96257384D01*
X137668000Y-95656115D01*
X137663525Y-95640876D01*
X137662135Y-95639671D01*
X137654452Y-95638000D01*
X137211118Y-95638000D01*
X137200410Y-95641144D01*
X137138131Y-95643368D01*
X137113453Y-95638000D01*
X136670115Y-95638000D01*
X136654876Y-95642475D01*
X136653671Y-95643865D01*
X136652000Y-95651548D01*
X136652000Y-96257384D01*
X136144000Y-96257384D01*
X136144000Y-95656115D01*
X136139525Y-95640876D01*
X136138135Y-95639671D01*
X136130452Y-95638000D01*
X135687116Y-95638000D01*
X135671877Y-95642475D01*
X135670672Y-95643865D01*
X135669001Y-95651548D01*
X135669001Y-95827105D01*
X125820185Y-95827105D01*
X125824500Y-95787389D01*
X125824499Y-95246612D01*
X125823468Y-95237116D01*
X125818984Y-95195834D01*
X125818983Y-95195830D01*
X125818130Y-95187976D01*
X125789605Y-95111885D01*
X135669000Y-95111885D01*
X135673475Y-95127124D01*
X135674865Y-95128329D01*
X135682548Y-95130000D01*
X136125885Y-95130000D01*
X136141124Y-95125525D01*
X136142329Y-95124135D01*
X136144000Y-95116452D01*
X136144000Y-95111885D01*
X136652000Y-95111885D01*
X136656475Y-95127124D01*
X136657865Y-95128329D01*
X136665548Y-95130000D01*
X137108882Y-95130000D01*
X137119590Y-95126856D01*
X137181869Y-95124632D01*
X137206547Y-95130000D01*
X137649885Y-95130000D01*
X137665124Y-95125525D01*
X137666329Y-95124135D01*
X137668000Y-95116452D01*
X137668000Y-94510616D01*
X137663525Y-94495377D01*
X137662135Y-94494172D01*
X137654452Y-94492501D01*
X137641395Y-94492501D01*
X137634574Y-94492871D01*
X137585727Y-94498176D01*
X137570476Y-94501802D01*
X137454447Y-94545299D01*
X137438861Y-94553833D01*
X137340563Y-94627502D01*
X137328001Y-94640064D01*
X137260826Y-94729696D01*
X137203967Y-94772211D01*
X137133149Y-94777237D01*
X137070855Y-94743177D01*
X137059174Y-94729696D01*
X136991999Y-94640064D01*
X136979437Y-94627502D01*
X136881139Y-94553833D01*
X136865553Y-94545299D01*
X136749527Y-94501803D01*
X136734271Y-94498175D01*
X136685424Y-94492869D01*
X136678607Y-94492500D01*
X136670115Y-94492500D01*
X136654876Y-94496975D01*
X136653671Y-94498365D01*
X136652000Y-94506048D01*
X136652000Y-95111885D01*
X136144000Y-95111885D01*
X136144000Y-94510616D01*
X136139525Y-94495377D01*
X136138135Y-94494172D01*
X136130452Y-94492501D01*
X136117395Y-94492501D01*
X136110574Y-94492871D01*
X136061727Y-94498176D01*
X136046476Y-94501802D01*
X135930447Y-94545299D01*
X135914861Y-94553833D01*
X135816563Y-94627502D01*
X135804002Y-94640063D01*
X135730333Y-94738361D01*
X135721799Y-94753947D01*
X135678303Y-94869973D01*
X135674675Y-94885229D01*
X135669369Y-94934076D01*
X135669000Y-94940893D01*
X135669000Y-95111885D01*
X125789605Y-95111885D01*
X125769917Y-95059365D01*
X125764537Y-95052186D01*
X125764535Y-95052183D01*
X125692923Y-94956633D01*
X125687544Y-94949456D01*
X125667020Y-94934074D01*
X125584817Y-94872465D01*
X125584814Y-94872463D01*
X125577635Y-94867083D01*
X125557980Y-94859715D01*
X125501216Y-94817073D01*
X125476516Y-94750512D01*
X125491724Y-94681163D01*
X125542010Y-94631045D01*
X125557982Y-94623751D01*
X125568986Y-94619626D01*
X125584575Y-94611092D01*
X125680010Y-94539566D01*
X125692566Y-94527010D01*
X125764092Y-94431575D01*
X125772625Y-94415988D01*
X125814865Y-94303311D01*
X125818490Y-94288066D01*
X125823631Y-94240741D01*
X125823763Y-94238307D01*
X125819525Y-94223876D01*
X125818135Y-94222671D01*
X125810452Y-94221000D01*
X124384115Y-94221000D01*
X124368876Y-94225475D01*
X124367671Y-94226865D01*
X124366027Y-94234424D01*
X124366369Y-94240741D01*
X124371510Y-94288066D01*
X124375135Y-94303311D01*
X124417375Y-94415988D01*
X124425908Y-94431575D01*
X124497434Y-94527010D01*
X124509990Y-94539566D01*
X124605425Y-94611092D01*
X124621014Y-94619626D01*
X124632018Y-94623751D01*
X124688783Y-94666391D01*
X124713484Y-94732953D01*
X124698277Y-94802302D01*
X124647992Y-94852421D01*
X124632022Y-94859714D01*
X124612365Y-94867083D01*
X124605186Y-94872463D01*
X124605183Y-94872465D01*
X124522980Y-94934074D01*
X124502456Y-94949456D01*
X124497077Y-94956633D01*
X124425465Y-95052183D01*
X124425463Y-95052186D01*
X124420083Y-95059365D01*
X124416933Y-95067769D01*
X124416932Y-95067770D01*
X124382843Y-95158706D01*
X124371870Y-95187976D01*
X124371017Y-95195826D01*
X124371017Y-95195827D01*
X124365900Y-95242925D01*
X124365500Y-95246611D01*
X124365501Y-95787388D01*
X124365870Y-95790782D01*
X124365870Y-95790788D01*
X124370556Y-95833926D01*
X124371870Y-95846024D01*
X124393901Y-95904792D01*
X124411350Y-95951338D01*
X124420083Y-95974635D01*
X124425463Y-95981814D01*
X124425465Y-95981817D01*
X124497077Y-96077367D01*
X124502456Y-96084544D01*
X124509633Y-96089923D01*
X124590066Y-96150205D01*
X124632580Y-96207065D01*
X124640500Y-96251031D01*
X124640500Y-96384054D01*
X124620498Y-96452175D01*
X124619897Y-96453054D01*
X124613674Y-96459277D01*
X124555502Y-96573445D01*
X124540500Y-96668166D01*
X124540500Y-97776367D01*
X124520498Y-97844488D01*
X124466842Y-97890981D01*
X124396568Y-97901085D01*
X124331988Y-97871591D01*
X124325405Y-97865462D01*
X123732405Y-97272462D01*
X123698379Y-97210150D01*
X123695500Y-97183367D01*
X123695500Y-95972913D01*
X123715502Y-95904792D01*
X123769158Y-95858299D01*
X123796909Y-95849337D01*
X123865301Y-95835734D01*
X123875621Y-95828839D01*
X123875622Y-95828838D01*
X123939168Y-95786377D01*
X123949484Y-95779484D01*
X124005734Y-95695301D01*
X124020500Y-95621067D01*
X124020499Y-94370934D01*
X124005734Y-94296699D01*
X123949484Y-94212516D01*
X123865301Y-94156266D01*
X123791067Y-94141500D01*
X123316077Y-94141500D01*
X122840934Y-94141501D01*
X122805182Y-94148612D01*
X122778874Y-94153844D01*
X122778872Y-94153845D01*
X122766699Y-94156266D01*
X122756379Y-94163161D01*
X122756378Y-94163162D01*
X122695985Y-94203516D01*
X122682516Y-94212516D01*
X122626266Y-94296699D01*
X122611500Y-94370933D01*
X122611501Y-95621066D01*
X122626266Y-95695301D01*
X122633161Y-95705620D01*
X122633162Y-95705622D01*
X122653088Y-95735443D01*
X122682516Y-95779484D01*
X122766699Y-95835734D01*
X122815570Y-95845455D01*
X122835081Y-95849336D01*
X122897991Y-95882243D01*
X122933123Y-95943938D01*
X122936500Y-95972915D01*
X122936500Y-96808763D01*
X122916498Y-96876884D01*
X122862842Y-96923377D01*
X122792568Y-96933481D01*
X122727988Y-96903987D01*
X122721405Y-96897858D01*
X120757404Y-94933857D01*
X120723378Y-94871545D01*
X120720499Y-94844762D01*
X120720499Y-94370934D01*
X120705734Y-94296699D01*
X120649484Y-94212516D01*
X120565301Y-94156266D01*
X120491067Y-94141500D01*
X120016077Y-94141500D01*
X119540934Y-94141501D01*
X119505182Y-94148612D01*
X119478874Y-94153844D01*
X119478872Y-94153845D01*
X119466699Y-94156266D01*
X119456379Y-94163161D01*
X119456378Y-94163162D01*
X119395985Y-94203516D01*
X119382516Y-94212516D01*
X119326266Y-94296699D01*
X119311500Y-94370933D01*
X119311500Y-94490500D01*
X119291498Y-94558621D01*
X119237842Y-94605114D01*
X119185500Y-94616500D01*
X111051920Y-94616500D01*
X111027972Y-94613951D01*
X111026307Y-94613872D01*
X111016124Y-94611680D01*
X111005783Y-94612904D01*
X110982777Y-94615627D01*
X110976846Y-94615977D01*
X110976854Y-94616072D01*
X110971676Y-94616500D01*
X110966476Y-94616500D01*
X110961347Y-94617354D01*
X110961344Y-94617354D01*
X110947435Y-94619669D01*
X110941557Y-94620506D01*
X110900999Y-94625306D01*
X110900998Y-94625306D01*
X110890659Y-94626530D01*
X110882407Y-94630493D01*
X110873374Y-94631996D01*
X110828227Y-94656356D01*
X110822963Y-94659037D01*
X110776768Y-94681220D01*
X110772492Y-94684814D01*
X110770552Y-94686754D01*
X110768641Y-94688507D01*
X110768551Y-94688556D01*
X110768439Y-94688433D01*
X110767904Y-94688905D01*
X110762186Y-94691990D01*
X110755119Y-94699635D01*
X110725584Y-94731586D01*
X110722154Y-94735152D01*
X108413711Y-97043595D01*
X108351399Y-97077621D01*
X108324616Y-97080500D01*
X105108792Y-97080500D01*
X105040671Y-97060498D01*
X104995786Y-97010228D01*
X104934331Y-96885609D01*
X104931776Y-96880428D01*
X104924575Y-96870784D01*
X104841510Y-96759548D01*
X104810320Y-96717779D01*
X104722068Y-96636199D01*
X104665503Y-96583911D01*
X104661258Y-96579987D01*
X104656375Y-96576906D01*
X104656371Y-96576903D01*
X104513981Y-96487062D01*
X104467042Y-96433795D01*
X104456353Y-96363608D01*
X104485308Y-96298784D01*
X104544712Y-96259904D01*
X104581216Y-96254500D01*
X106962524Y-96254500D01*
X106987103Y-96256921D01*
X107000000Y-96259486D01*
X107009209Y-96257654D01*
X107196854Y-96242886D01*
X107201661Y-96241732D01*
X107201667Y-96241731D01*
X107346061Y-96207065D01*
X107388860Y-96196790D01*
X107400948Y-96191783D01*
X107566718Y-96123119D01*
X107566722Y-96123117D01*
X107571292Y-96121224D01*
X107739657Y-96018050D01*
X107743412Y-96014843D01*
X107743416Y-96014840D01*
X107886052Y-95893016D01*
X107889808Y-95889808D01*
X107899230Y-95878776D01*
X108014840Y-95743416D01*
X108014843Y-95743412D01*
X108018050Y-95739657D01*
X108121224Y-95571292D01*
X108182598Y-95423124D01*
X108194896Y-95393433D01*
X108194897Y-95393431D01*
X108196790Y-95388860D01*
X108212637Y-95322853D01*
X108241731Y-95201667D01*
X108241732Y-95201661D01*
X108242886Y-95196854D01*
X108257654Y-95009209D01*
X108259486Y-95000000D01*
X108256921Y-94987103D01*
X108254500Y-94962524D01*
X108254500Y-94037476D01*
X108256921Y-94012894D01*
X108259486Y-94000000D01*
X108257066Y-93987831D01*
X108257066Y-93975431D01*
X108256251Y-93964376D01*
X108269450Y-93695693D01*
X124366237Y-93695693D01*
X124370475Y-93710124D01*
X124371865Y-93711329D01*
X124379548Y-93713000D01*
X124822885Y-93713000D01*
X124838124Y-93708525D01*
X124839329Y-93707135D01*
X124841000Y-93699452D01*
X124841000Y-93694885D01*
X125349000Y-93694885D01*
X125353475Y-93710124D01*
X125354865Y-93711329D01*
X125362548Y-93713000D01*
X125805885Y-93713000D01*
X125821124Y-93708525D01*
X125822329Y-93707135D01*
X125823973Y-93699576D01*
X125823631Y-93693259D01*
X125818490Y-93645934D01*
X125814865Y-93630689D01*
X125772625Y-93518012D01*
X125764092Y-93502425D01*
X125692566Y-93406990D01*
X125680010Y-93394434D01*
X125584575Y-93322908D01*
X125568988Y-93314375D01*
X125456311Y-93272135D01*
X125441066Y-93268510D01*
X125393741Y-93263369D01*
X125386927Y-93263000D01*
X125367115Y-93263000D01*
X125351876Y-93267475D01*
X125350671Y-93268865D01*
X125349000Y-93276548D01*
X125349000Y-93694885D01*
X124841000Y-93694885D01*
X124841000Y-93281115D01*
X124836525Y-93265876D01*
X124835135Y-93264671D01*
X124827452Y-93263000D01*
X124803073Y-93263000D01*
X124796259Y-93263369D01*
X124748934Y-93268510D01*
X124733689Y-93272135D01*
X124621012Y-93314375D01*
X124605425Y-93322908D01*
X124509990Y-93394434D01*
X124497434Y-93406990D01*
X124425908Y-93502425D01*
X124417375Y-93518012D01*
X124375135Y-93630689D01*
X124371510Y-93645934D01*
X124366369Y-93693259D01*
X124366237Y-93695693D01*
X108269450Y-93695693D01*
X108269490Y-93694885D01*
X108272232Y-93639055D01*
X108273444Y-93626754D01*
X108289417Y-93519073D01*
X108325562Y-93275405D01*
X108327969Y-93263299D01*
X108414275Y-92918746D01*
X108417864Y-92906915D01*
X108537524Y-92572487D01*
X108542256Y-92561063D01*
X108694118Y-92239979D01*
X108699947Y-92229074D01*
X108882551Y-91924418D01*
X108889421Y-91914137D01*
X109005292Y-91757902D01*
X109101006Y-91628847D01*
X109108832Y-91619309D01*
X109347380Y-91356113D01*
X109356113Y-91347380D01*
X109619309Y-91108832D01*
X109628847Y-91101006D01*
X109914137Y-90889421D01*
X109924418Y-90882551D01*
X110229074Y-90699947D01*
X110239979Y-90694118D01*
X110561063Y-90542256D01*
X110572487Y-90537524D01*
X110906915Y-90417864D01*
X110918747Y-90414275D01*
X111263299Y-90327969D01*
X111275405Y-90325562D01*
X111626759Y-90273443D01*
X111639055Y-90272232D01*
X111754253Y-90266573D01*
X111964376Y-90256251D01*
X111975431Y-90257066D01*
X111987831Y-90257066D01*
X112000000Y-90259486D01*
X112012897Y-90256921D01*
X112037476Y-90254500D01*
X148962524Y-90254500D01*
X148987103Y-90256921D01*
G37*
%TD.AperFunction*%
%TA.AperFunction,Conductor*%
G36*
X140302091Y-100599502D02*
G01*
X140323065Y-100616404D01*
X140671084Y-100964422D01*
X140683586Y-100979902D01*
X140686525Y-100983132D01*
X140692175Y-100991882D01*
X140716438Y-101011009D01*
X140720433Y-101014559D01*
X140720517Y-101014460D01*
X140724480Y-101017818D01*
X140728156Y-101021494D01*
X140732385Y-101024517D01*
X140732386Y-101024517D01*
X140742652Y-101031854D01*
X140747395Y-101035415D01*
X140776675Y-101058497D01*
X140776679Y-101058499D01*
X140784857Y-101064946D01*
X140792925Y-101067779D01*
X140799885Y-101072753D01*
X140809863Y-101075737D01*
X140845586Y-101086420D01*
X140851238Y-101088257D01*
X140863444Y-101092544D01*
X140921088Y-101133990D01*
X140947174Y-101200020D01*
X140933420Y-101269672D01*
X140910786Y-101300520D01*
X140881211Y-101330095D01*
X140818899Y-101364121D01*
X140792116Y-101367000D01*
X140230420Y-101367000D01*
X140206472Y-101364451D01*
X140204807Y-101364372D01*
X140194624Y-101362180D01*
X140184283Y-101363404D01*
X140161277Y-101366127D01*
X140155346Y-101366477D01*
X140155354Y-101366572D01*
X140150176Y-101367000D01*
X140144976Y-101367000D01*
X140139847Y-101367854D01*
X140139844Y-101367854D01*
X140125935Y-101370169D01*
X140120057Y-101371006D01*
X140079499Y-101375806D01*
X140079498Y-101375806D01*
X140069159Y-101377030D01*
X140060907Y-101380993D01*
X140051874Y-101382496D01*
X140042705Y-101387443D01*
X140042703Y-101387444D01*
X140006768Y-101406834D01*
X140001475Y-101409531D01*
X139962418Y-101428285D01*
X139962414Y-101428288D01*
X139955268Y-101431719D01*
X139950992Y-101435314D01*
X139949069Y-101437237D01*
X139947137Y-101439009D01*
X139947058Y-101439052D01*
X139946945Y-101438928D01*
X139946405Y-101439404D01*
X139940686Y-101442490D01*
X139933619Y-101450135D01*
X139904084Y-101482086D01*
X139900654Y-101485652D01*
X139600711Y-101785595D01*
X139538399Y-101819621D01*
X139511616Y-101822500D01*
X139140745Y-101822501D01*
X139116686Y-101822501D01*
X139113738Y-101822780D01*
X139113729Y-101822780D01*
X139092522Y-101824784D01*
X139092520Y-101824784D01*
X139084873Y-101825507D01*
X138955924Y-101870791D01*
X138845990Y-101951990D01*
X138840398Y-101959561D01*
X138833734Y-101966225D01*
X138832531Y-101965022D01*
X138784686Y-102001321D01*
X138713904Y-102006840D01*
X138651375Y-101973215D01*
X138621915Y-101927780D01*
X138598644Y-101865705D01*
X138598643Y-101865702D01*
X138595493Y-101857301D01*
X138510974Y-101744526D01*
X138398199Y-101660007D01*
X138389798Y-101656857D01*
X138389795Y-101656856D01*
X138299905Y-101623158D01*
X138266236Y-101610536D01*
X138206070Y-101604000D01*
X138095529Y-101604000D01*
X138027408Y-101583998D01*
X137980915Y-101530342D01*
X137970811Y-101460068D01*
X138000305Y-101395488D01*
X138006434Y-101388905D01*
X138778933Y-100616406D01*
X138841245Y-100582380D01*
X138868028Y-100579501D01*
X139550992Y-100579501D01*
X140233970Y-100579500D01*
X140302091Y-100599502D01*
G37*
%TD.AperFunction*%
%TA.AperFunction,Conductor*%
G36*
X136788084Y-98404603D02*
G01*
X136820904Y-98428243D01*
X138303566Y-99910905D01*
X138337592Y-99973217D01*
X138332527Y-100044032D01*
X138303566Y-100089095D01*
X136820905Y-101571757D01*
X136758593Y-101605782D01*
X136718203Y-101607925D01*
X136685469Y-101604369D01*
X136685465Y-101604369D01*
X136682070Y-101604000D01*
X136113930Y-101604000D01*
X136077799Y-101607925D01*
X136007916Y-101595397D01*
X135975096Y-101571757D01*
X134492434Y-100089095D01*
X134458408Y-100026783D01*
X134463473Y-99955968D01*
X134492434Y-99910905D01*
X135975096Y-98428243D01*
X136037408Y-98394217D01*
X136077799Y-98392075D01*
X136113930Y-98396000D01*
X136682070Y-98396000D01*
X136718201Y-98392075D01*
X136788084Y-98404603D01*
G37*
%TD.AperFunction*%
%TA.AperFunction,Conductor*%
G36*
X138800468Y-98005964D02*
G01*
X138833066Y-98034443D01*
X138833734Y-98033775D01*
X138840398Y-98040439D01*
X138845990Y-98048010D01*
X138955924Y-98129209D01*
X139084873Y-98174493D01*
X139092515Y-98175215D01*
X139092518Y-98175216D01*
X139107421Y-98176624D01*
X139116685Y-98177500D01*
X139140713Y-98177500D01*
X139511615Y-98177499D01*
X139579735Y-98197501D01*
X139600710Y-98214404D01*
X139866522Y-98480216D01*
X139881664Y-98498964D01*
X139882779Y-98500189D01*
X139888429Y-98508940D01*
X139896607Y-98515387D01*
X139896609Y-98515389D01*
X139914800Y-98529729D01*
X139919244Y-98533678D01*
X139919306Y-98533604D01*
X139923263Y-98536957D01*
X139926944Y-98540638D01*
X139942654Y-98551865D01*
X139947380Y-98555413D01*
X139987647Y-98587156D01*
X139996284Y-98590189D01*
X140003734Y-98595513D01*
X140013710Y-98598497D01*
X140013711Y-98598497D01*
X140029046Y-98603083D01*
X140052849Y-98610202D01*
X140058486Y-98612034D01*
X140089167Y-98622808D01*
X140106851Y-98629018D01*
X140112416Y-98629500D01*
X140115124Y-98629500D01*
X140117758Y-98629614D01*
X140117856Y-98629643D01*
X140117849Y-98629807D01*
X140118553Y-98629851D01*
X140124778Y-98631713D01*
X140178635Y-98629597D01*
X140183582Y-98629500D01*
X141249500Y-98629500D01*
X141317621Y-98649502D01*
X141364114Y-98703158D01*
X141375500Y-98755491D01*
X141375501Y-98769491D01*
X141355504Y-98837613D01*
X141301851Y-98884110D01*
X141249501Y-98895500D01*
X141233054Y-98895500D01*
X141222182Y-98895030D01*
X141221166Y-98894942D01*
X141183802Y-98891706D01*
X141173692Y-98894217D01*
X141163312Y-98895034D01*
X141163251Y-98894260D01*
X141153113Y-98895500D01*
X141033257Y-98895500D01*
X141013463Y-98893394D01*
X141009110Y-98893189D01*
X140998930Y-98890997D01*
X140968260Y-98894627D01*
X140962917Y-98894942D01*
X140962928Y-98895072D01*
X140957748Y-98895500D01*
X140952549Y-98895500D01*
X140947425Y-98896353D01*
X140947412Y-98896354D01*
X140934959Y-98898427D01*
X140929084Y-98899264D01*
X140892071Y-98903645D01*
X140881730Y-98904869D01*
X140874022Y-98908570D01*
X140865583Y-98909975D01*
X140823599Y-98932629D01*
X140818336Y-98935310D01*
X140815970Y-98936446D01*
X140775342Y-98955955D01*
X140771350Y-98959311D01*
X140769403Y-98961258D01*
X140767778Y-98962748D01*
X140767346Y-98962981D01*
X140767313Y-98962945D01*
X140767155Y-98963084D01*
X140761720Y-98966017D01*
X140754651Y-98973664D01*
X140727654Y-99002869D01*
X140724226Y-99006435D01*
X140521815Y-99208847D01*
X140347067Y-99383595D01*
X140284754Y-99417620D01*
X140257971Y-99420500D01*
X139562993Y-99420499D01*
X138868028Y-99420499D01*
X138799907Y-99400497D01*
X138778938Y-99383599D01*
X138006432Y-98611093D01*
X137972408Y-98548783D01*
X137977472Y-98477968D01*
X138020019Y-98421132D01*
X138086539Y-98396321D01*
X138095528Y-98396000D01*
X138206070Y-98396000D01*
X138266236Y-98389464D01*
X138311387Y-98372537D01*
X138389795Y-98343144D01*
X138389798Y-98343143D01*
X138398199Y-98339993D01*
X138510974Y-98255474D01*
X138595493Y-98142699D01*
X138599381Y-98132330D01*
X138621915Y-98072220D01*
X138664557Y-98015455D01*
X138731119Y-97990756D01*
X138800468Y-98005964D01*
G37*
%TD.AperFunction*%
%TD*%
M02*
