%TF.GenerationSoftware,KiCad,Pcbnew,6.0.11+dfsg-1~bpo11+1*%
%TF.CreationDate,2024-03-27T15:17:51-04:00*%
%TF.ProjectId,Tool - ESP Module Flasher,546f6f6c-202d-4204-9553-50204d6f6475,1.0.0*%
%TF.SameCoordinates,Original*%
%TF.FileFunction,Copper,L2,Bot*%
%TF.FilePolarity,Positive*%
%FSLAX46Y46*%
G04 Gerber Fmt 4.6, Leading zero omitted, Abs format (unit mm)*
G04 Created by KiCad (PCBNEW 6.0.11+dfsg-1~bpo11+1) date 2024-03-27 15:17:51*
%MOMM*%
%LPD*%
G01*
G04 APERTURE LIST*
G04 Aperture macros list*
%AMRoundRect*
0 Rectangle with rounded corners*
0 $1 Rounding radius*
0 $2 $3 $4 $5 $6 $7 $8 $9 X,Y pos of 4 corners*
0 Add a 4 corners polygon primitive as box body*
4,1,4,$2,$3,$4,$5,$6,$7,$8,$9,$2,$3,0*
0 Add four circle primitives for the rounded corners*
1,1,$1+$1,$2,$3*
1,1,$1+$1,$4,$5*
1,1,$1+$1,$6,$7*
1,1,$1+$1,$8,$9*
0 Add four rect primitives between the rounded corners*
20,1,$1+$1,$2,$3,$4,$5,0*
20,1,$1+$1,$4,$5,$6,$7,0*
20,1,$1+$1,$6,$7,$8,$9,0*
20,1,$1+$1,$8,$9,$2,$3,0*%
G04 Aperture macros list end*
%TA.AperFunction,ComponentPad*%
%ADD10R,1.700000X1.700000*%
%TD*%
%TA.AperFunction,ComponentPad*%
%ADD11O,1.700000X1.700000*%
%TD*%
%TA.AperFunction,SMDPad,CuDef*%
%ADD12RoundRect,0.525000X0.525000X-1.475000X0.525000X1.475000X-0.525000X1.475000X-0.525000X-1.475000X0*%
%TD*%
%TA.AperFunction,ComponentPad*%
%ADD13O,2.100000X1.000000*%
%TD*%
%TA.AperFunction,ComponentPad*%
%ADD14O,1.600000X1.000000*%
%TD*%
%TA.AperFunction,ComponentPad*%
%ADD15RoundRect,1.000000X-1.000000X2.000000X-1.000000X-2.000000X1.000000X-2.000000X1.000000X2.000000X0*%
%TD*%
%TA.AperFunction,SMDPad,CuDef*%
%ADD16RoundRect,0.400000X0.400000X-1.600000X0.400000X1.600000X-0.400000X1.600000X-0.400000X-1.600000X0*%
%TD*%
%TA.AperFunction,ComponentPad*%
%ADD17R,1.600000X1.600000*%
%TD*%
%TA.AperFunction,ComponentPad*%
%ADD18O,1.600000X1.600000*%
%TD*%
%TA.AperFunction,ViaPad*%
%ADD19C,0.800000*%
%TD*%
%TA.AperFunction,ViaPad*%
%ADD20C,0.600000*%
%TD*%
%TA.AperFunction,ViaPad*%
%ADD21C,1.600000*%
%TD*%
%TA.AperFunction,ViaPad*%
%ADD22C,1.000000*%
%TD*%
%TA.AperFunction,Conductor*%
%ADD23C,0.250000*%
%TD*%
%TA.AperFunction,Conductor*%
%ADD24C,1.000000*%
%TD*%
%TA.AperFunction,Conductor*%
%ADD25C,0.600000*%
%TD*%
G04 APERTURE END LIST*
D10*
%TO.P,J802,1,Pin_1*%
%TO.N,GND*%
X103986000Y-106350000D03*
D11*
%TO.P,J802,2,Pin_2*%
%TO.N,I2C-Vcc*%
X103986000Y-103810000D03*
%TO.P,J802,3,Pin_3*%
%TO.N,RxD*%
X103986000Y-101270000D03*
%TO.P,J802,4,Pin_4*%
%TO.N,TxD*%
X103986000Y-98730000D03*
%TO.P,J802,5,Pin_5*%
%TO.N,io0*%
X103986000Y-96190000D03*
%TO.P,J802,6,Pin_6*%
%TO.N,~{RESET}*%
X103986000Y-93650000D03*
%TD*%
D12*
%TO.P,J102,S1,SHIELD*%
%TO.N,GND*%
X143281795Y-105846965D03*
D13*
X143270000Y-104320000D03*
D12*
X143281795Y-94153035D03*
D14*
X147450000Y-95680000D03*
D15*
X147670000Y-100000000D03*
D14*
X147450000Y-104320000D03*
D16*
X147450000Y-94153035D03*
X147450000Y-105846965D03*
D13*
X143270000Y-95680000D03*
%TD*%
D17*
%TO.P,SW202,1*%
%TO.N,Net-(C202-Pad1)*%
X111506000Y-97536000D03*
D18*
%TO.P,SW202,2*%
%TO.N,I2C-Vcc*%
X111506000Y-105156000D03*
%TD*%
D19*
%TO.N,io0*%
X121158000Y-95504000D03*
%TO.N,~{RESET}*%
X130302000Y-95504000D03*
%TO.N,TxD*%
X125052695Y-99591364D03*
%TO.N,RxD*%
X124624500Y-100494500D03*
D20*
%TO.N,GND*%
X129540000Y-100000000D03*
X135636000Y-100000000D03*
D21*
X149000000Y-109000000D03*
X149000000Y-91000000D03*
X125000000Y-91000000D03*
D20*
X138684000Y-98806000D03*
D21*
X125000000Y-109000000D03*
D20*
X138684000Y-101346000D03*
D19*
%TO.N,Vbus*%
X140508406Y-102815536D03*
D22*
X116586000Y-102794000D03*
D19*
X140517682Y-97255928D03*
D22*
%TO.N,I2C-Vcc*%
X127100000Y-100000000D03*
%TD*%
D23*
%TO.N,~{RESET}*%
X130302000Y-95504000D02*
X128448000Y-93650000D01*
X128448000Y-93650000D02*
X103986000Y-93650000D01*
%TO.N,io0*%
X121158000Y-95504000D02*
X120472000Y-96190000D01*
X120472000Y-96190000D02*
X103986000Y-96190000D01*
%TO.N,TxD*%
X125052695Y-99591364D02*
X124956328Y-99494997D01*
X124956328Y-99494997D02*
X104750997Y-99494997D01*
X104750997Y-99494997D02*
X103986000Y-98730000D01*
%TO.N,RxD*%
X124624500Y-100494500D02*
X104761500Y-100494500D01*
X104761500Y-100494500D02*
X103986000Y-101270000D01*
D24*
%TO.N,I2C-Vcc*%
X127100000Y-100000000D02*
X127100000Y-100230000D01*
X127100000Y-100230000D02*
X125736000Y-101594000D01*
X125736000Y-101594000D02*
X115068000Y-101594000D01*
X115068000Y-101594000D02*
X111506000Y-105156000D01*
X111506000Y-105156000D02*
X110160000Y-103810000D01*
X110160000Y-103810000D02*
X103986000Y-103810000D01*
%TO.N,Vbus*%
X140486870Y-102794000D02*
X116586000Y-102794000D01*
X140508406Y-102815536D02*
X140486870Y-102794000D01*
D25*
X140517682Y-102806260D02*
X140508406Y-102815536D01*
D24*
X140517682Y-97255928D02*
X140517682Y-102806260D01*
%TD*%
%TA.AperFunction,Conductor*%
%TO.N,GND*%
G36*
X148987103Y-90256921D02*
G01*
X149000000Y-90259486D01*
X149012170Y-90257065D01*
X149019856Y-90257065D01*
X149032207Y-90257672D01*
X149133092Y-90267609D01*
X149157309Y-90272425D01*
X149273426Y-90307649D01*
X149296226Y-90317093D01*
X149403239Y-90374292D01*
X149423770Y-90388011D01*
X149517556Y-90464981D01*
X149535019Y-90482444D01*
X149611989Y-90576230D01*
X149625708Y-90596761D01*
X149682907Y-90703774D01*
X149692351Y-90726574D01*
X149727575Y-90842691D01*
X149732391Y-90866908D01*
X149742328Y-90967793D01*
X149742935Y-90980144D01*
X149742935Y-90987830D01*
X149740514Y-91000000D01*
X149742935Y-91012170D01*
X149743079Y-91012894D01*
X149745500Y-91037476D01*
X149745500Y-96997767D01*
X149725498Y-97065888D01*
X149671842Y-97112381D01*
X149601568Y-97122485D01*
X149536988Y-97092991D01*
X149530405Y-97086862D01*
X149481600Y-97038057D01*
X149473021Y-97030883D01*
X149298423Y-96909534D01*
X149288716Y-96903997D01*
X149095390Y-96815486D01*
X149084850Y-96811753D01*
X148878658Y-96758813D01*
X148868128Y-96757047D01*
X148734870Y-96746207D01*
X148729765Y-96746000D01*
X147942115Y-96746000D01*
X147926876Y-96750475D01*
X147925671Y-96751865D01*
X147924000Y-96759548D01*
X147924000Y-103235885D01*
X147928475Y-103251124D01*
X147929865Y-103252329D01*
X147937548Y-103254000D01*
X148729765Y-103254000D01*
X148734870Y-103253793D01*
X148868128Y-103242953D01*
X148878658Y-103241187D01*
X149084850Y-103188247D01*
X149095390Y-103184514D01*
X149288716Y-103096003D01*
X149298423Y-103090466D01*
X149473021Y-102969117D01*
X149481600Y-102961943D01*
X149530405Y-102913138D01*
X149592717Y-102879112D01*
X149663532Y-102884177D01*
X149720368Y-102926724D01*
X149745179Y-102993244D01*
X149745500Y-103002233D01*
X149745500Y-108962524D01*
X149743079Y-108987103D01*
X149740514Y-109000000D01*
X149742935Y-109012170D01*
X149742935Y-109019856D01*
X149742328Y-109032207D01*
X149732391Y-109133092D01*
X149727575Y-109157309D01*
X149692351Y-109273426D01*
X149682907Y-109296226D01*
X149625708Y-109403239D01*
X149611989Y-109423770D01*
X149535019Y-109517556D01*
X149517556Y-109535019D01*
X149423770Y-109611989D01*
X149403239Y-109625708D01*
X149296226Y-109682907D01*
X149273426Y-109692351D01*
X149157309Y-109727575D01*
X149133092Y-109732391D01*
X149032207Y-109742328D01*
X149019856Y-109742935D01*
X149012170Y-109742935D01*
X149000000Y-109740514D01*
X148987103Y-109743079D01*
X148962524Y-109745500D01*
X109037476Y-109745500D01*
X109012897Y-109743079D01*
X109000000Y-109740514D01*
X108987830Y-109742935D01*
X108980144Y-109742935D01*
X108967793Y-109742328D01*
X108866908Y-109732391D01*
X108842691Y-109727575D01*
X108726574Y-109692351D01*
X108703774Y-109682907D01*
X108596761Y-109625708D01*
X108576230Y-109611989D01*
X108482444Y-109535019D01*
X108464981Y-109517556D01*
X108388011Y-109423770D01*
X108374292Y-109403239D01*
X108317093Y-109296226D01*
X108307649Y-109273426D01*
X108272425Y-109157309D01*
X108267609Y-109133092D01*
X108257672Y-109032207D01*
X108257065Y-109019856D01*
X108257065Y-109012170D01*
X108259486Y-109000000D01*
X108256921Y-108987103D01*
X108254500Y-108962524D01*
X108254500Y-108847476D01*
X108256921Y-108822894D01*
X108257065Y-108822171D01*
X108259486Y-108810000D01*
X108257654Y-108800791D01*
X108242886Y-108613146D01*
X108196790Y-108421140D01*
X108121224Y-108238708D01*
X108018050Y-108070343D01*
X108014843Y-108066588D01*
X108014840Y-108066584D01*
X107893016Y-107923948D01*
X107889808Y-107920192D01*
X107815350Y-107856598D01*
X107743416Y-107795160D01*
X107743412Y-107795157D01*
X107739657Y-107791950D01*
X107571292Y-107688776D01*
X107566722Y-107686883D01*
X107566718Y-107686881D01*
X107393433Y-107615104D01*
X107393431Y-107615103D01*
X107388860Y-107613210D01*
X107322853Y-107597363D01*
X107201667Y-107568269D01*
X107201661Y-107568268D01*
X107196854Y-107567114D01*
X107009209Y-107552346D01*
X107000000Y-107550514D01*
X106987103Y-107553079D01*
X106962524Y-107555500D01*
X105139675Y-107555500D01*
X105071554Y-107535498D01*
X105025061Y-107481842D01*
X105014957Y-107411568D01*
X105017222Y-107405658D01*
X141977796Y-107405658D01*
X141977845Y-107407364D01*
X141979263Y-107417273D01*
X142015791Y-107575493D01*
X142020441Y-107588698D01*
X142090376Y-107733364D01*
X142097833Y-107745206D01*
X142198080Y-107870784D01*
X142207976Y-107880680D01*
X142333554Y-107980927D01*
X142345396Y-107988384D01*
X142490062Y-108058319D01*
X142503267Y-108062969D01*
X142661495Y-108099499D01*
X142671380Y-108100915D01*
X142673132Y-108100965D01*
X143009680Y-108100965D01*
X143024919Y-108096490D01*
X143026124Y-108095100D01*
X143027795Y-108087417D01*
X143027795Y-108082849D01*
X143535795Y-108082849D01*
X143540270Y-108098088D01*
X143541660Y-108099293D01*
X143549343Y-108100964D01*
X143890488Y-108100964D01*
X143892194Y-108100915D01*
X143902103Y-108099497D01*
X144060323Y-108062969D01*
X144073528Y-108058319D01*
X144218194Y-107988384D01*
X144230036Y-107980927D01*
X144355614Y-107880680D01*
X144365510Y-107870784D01*
X144465757Y-107745206D01*
X144473214Y-107733364D01*
X144543149Y-107588698D01*
X144547799Y-107575493D01*
X144562795Y-107510537D01*
X146396001Y-107510537D01*
X146396195Y-107515472D01*
X146398413Y-107543668D01*
X146400714Y-107556269D01*
X146442806Y-107701151D01*
X146449053Y-107715587D01*
X146525097Y-107844171D01*
X146534737Y-107856598D01*
X146640367Y-107962228D01*
X146652794Y-107971868D01*
X146781378Y-108047912D01*
X146795814Y-108054159D01*
X146940702Y-108096252D01*
X146953289Y-108098552D01*
X146981499Y-108100772D01*
X146986424Y-108100965D01*
X147177885Y-108100965D01*
X147193124Y-108096490D01*
X147194329Y-108095100D01*
X147196000Y-108087417D01*
X147196000Y-108082849D01*
X147704000Y-108082849D01*
X147708475Y-108098088D01*
X147709865Y-108099293D01*
X147717548Y-108100964D01*
X147913572Y-108100964D01*
X147918507Y-108100770D01*
X147946703Y-108098552D01*
X147959304Y-108096251D01*
X148104186Y-108054159D01*
X148118622Y-108047912D01*
X148247206Y-107971868D01*
X148259633Y-107962228D01*
X148365263Y-107856598D01*
X148374903Y-107844171D01*
X148450947Y-107715587D01*
X148457194Y-107701151D01*
X148499287Y-107556263D01*
X148501587Y-107543676D01*
X148503807Y-107515466D01*
X148504000Y-107510541D01*
X148504000Y-106119080D01*
X148499525Y-106103841D01*
X148498135Y-106102636D01*
X148490452Y-106100965D01*
X147722115Y-106100965D01*
X147706876Y-106105440D01*
X147705671Y-106106830D01*
X147704000Y-106114513D01*
X147704000Y-108082849D01*
X147196000Y-108082849D01*
X147196000Y-106119080D01*
X147191525Y-106103841D01*
X147190135Y-106102636D01*
X147182452Y-106100965D01*
X146414116Y-106100965D01*
X146398877Y-106105440D01*
X146397672Y-106106830D01*
X146396001Y-106114513D01*
X146396001Y-107510537D01*
X144562795Y-107510537D01*
X144584329Y-107417265D01*
X144585745Y-107407380D01*
X144585795Y-107405628D01*
X144585795Y-106119080D01*
X144581320Y-106103841D01*
X144579930Y-106102636D01*
X144572247Y-106100965D01*
X143553910Y-106100965D01*
X143538671Y-106105440D01*
X143537466Y-106106830D01*
X143535795Y-106114513D01*
X143535795Y-108082849D01*
X143027795Y-108082849D01*
X143027795Y-106119080D01*
X143023320Y-106103841D01*
X143021930Y-106102636D01*
X143014247Y-106100965D01*
X141995911Y-106100965D01*
X141980672Y-106105440D01*
X141979467Y-106106830D01*
X141977796Y-106114513D01*
X141977796Y-107405658D01*
X105017222Y-107405658D01*
X105034910Y-107359498D01*
X105068368Y-107309425D01*
X105077684Y-107286934D01*
X105088793Y-107231085D01*
X105090000Y-107218830D01*
X105090000Y-106622115D01*
X105085525Y-106606876D01*
X105084135Y-106605671D01*
X105076452Y-106604000D01*
X102900116Y-106604000D01*
X102884877Y-106608475D01*
X102883672Y-106609865D01*
X102882001Y-106617548D01*
X102882001Y-107218828D01*
X102883209Y-107231088D01*
X102894315Y-107286931D01*
X102903633Y-107309427D01*
X102937090Y-107359498D01*
X102958305Y-107427251D01*
X102939522Y-107495717D01*
X102886705Y-107543161D01*
X102832325Y-107555500D01*
X101037476Y-107555500D01*
X101012897Y-107553079D01*
X101000000Y-107550514D01*
X100987830Y-107552935D01*
X100980144Y-107552935D01*
X100967793Y-107552328D01*
X100866908Y-107542391D01*
X100842691Y-107537575D01*
X100726574Y-107502351D01*
X100703774Y-107492907D01*
X100596761Y-107435708D01*
X100576230Y-107421989D01*
X100482444Y-107345019D01*
X100464981Y-107327556D01*
X100388011Y-107233770D01*
X100374292Y-107213239D01*
X100317093Y-107106226D01*
X100307649Y-107083426D01*
X100272425Y-106967309D01*
X100267609Y-106943092D01*
X100257672Y-106842207D01*
X100257065Y-106829856D01*
X100257065Y-106822170D01*
X100259486Y-106810000D01*
X100256921Y-106797103D01*
X100254500Y-106772524D01*
X100254500Y-106077885D01*
X102882000Y-106077885D01*
X102886475Y-106093124D01*
X102887865Y-106094329D01*
X102895548Y-106096000D01*
X103713885Y-106096000D01*
X103729124Y-106091525D01*
X103730329Y-106090135D01*
X103732000Y-106082452D01*
X103732000Y-106077885D01*
X104240000Y-106077885D01*
X104244475Y-106093124D01*
X104245865Y-106094329D01*
X104253548Y-106096000D01*
X105071884Y-106096000D01*
X105087123Y-106091525D01*
X105088328Y-106090135D01*
X105089999Y-106082452D01*
X105089999Y-105481172D01*
X105088791Y-105468912D01*
X105077685Y-105413069D01*
X105068367Y-105390573D01*
X105026017Y-105327192D01*
X105008808Y-105309983D01*
X104945425Y-105267632D01*
X104922934Y-105258316D01*
X104867085Y-105247207D01*
X104854830Y-105246000D01*
X104258115Y-105246000D01*
X104242876Y-105250475D01*
X104241671Y-105251865D01*
X104240000Y-105259548D01*
X104240000Y-106077885D01*
X103732000Y-106077885D01*
X103732000Y-105264116D01*
X103727525Y-105248877D01*
X103726135Y-105247672D01*
X103718452Y-105246001D01*
X103117172Y-105246001D01*
X103104912Y-105247209D01*
X103049069Y-105258315D01*
X103026573Y-105267633D01*
X102963192Y-105309983D01*
X102945983Y-105327192D01*
X102903632Y-105390575D01*
X102894316Y-105413066D01*
X102883207Y-105468915D01*
X102882000Y-105481170D01*
X102882000Y-106077885D01*
X100254500Y-106077885D01*
X100254500Y-103780964D01*
X102877148Y-103780964D01*
X102890424Y-103983522D01*
X102891845Y-103989118D01*
X102891846Y-103989123D01*
X102911371Y-104066000D01*
X102940392Y-104180269D01*
X103025377Y-104364616D01*
X103142533Y-104530389D01*
X103287938Y-104672035D01*
X103456720Y-104784812D01*
X103462023Y-104787090D01*
X103462026Y-104787092D01*
X103550707Y-104825192D01*
X103643228Y-104864942D01*
X103716244Y-104881464D01*
X103835579Y-104908467D01*
X103835584Y-104908468D01*
X103841216Y-104909742D01*
X103846987Y-104909969D01*
X103846989Y-104909969D01*
X103906756Y-104912317D01*
X104044053Y-104917712D01*
X104144499Y-104903148D01*
X104239231Y-104889413D01*
X104239236Y-104889412D01*
X104244945Y-104888584D01*
X104250409Y-104886729D01*
X104250414Y-104886728D01*
X104431693Y-104825192D01*
X104431698Y-104825190D01*
X104437165Y-104823334D01*
X104614276Y-104724147D01*
X104676934Y-104672035D01*
X104770345Y-104594345D01*
X104771945Y-104596269D01*
X104824851Y-104567379D01*
X104851634Y-104564500D01*
X109795284Y-104564500D01*
X109863405Y-104584502D01*
X109884379Y-104601405D01*
X110415942Y-105132968D01*
X110449968Y-105195280D01*
X110452405Y-105211519D01*
X110460674Y-105309983D01*
X110463806Y-105347278D01*
X110520807Y-105546066D01*
X110523625Y-105551548D01*
X110523626Y-105551552D01*
X110612514Y-105724509D01*
X110612517Y-105724513D01*
X110615334Y-105729995D01*
X110743786Y-105892061D01*
X110901271Y-106026091D01*
X111081789Y-106126980D01*
X111278466Y-106190884D01*
X111483809Y-106215370D01*
X111489944Y-106214898D01*
X111489946Y-106214898D01*
X111683856Y-106199977D01*
X111683860Y-106199976D01*
X111689998Y-106199504D01*
X111889178Y-106143892D01*
X111894682Y-106141112D01*
X111894684Y-106141111D01*
X112068262Y-106053431D01*
X112068264Y-106053430D01*
X112073763Y-106050652D01*
X112236722Y-105923334D01*
X112240748Y-105918670D01*
X112240751Y-105918667D01*
X112367819Y-105771457D01*
X112367820Y-105771455D01*
X112371848Y-105766789D01*
X112422922Y-105676884D01*
X112470950Y-105592340D01*
X112470952Y-105592336D01*
X112473995Y-105586979D01*
X112478030Y-105574850D01*
X141977795Y-105574850D01*
X141982270Y-105590089D01*
X141983660Y-105591294D01*
X141991343Y-105592965D01*
X143009680Y-105592965D01*
X143024919Y-105588490D01*
X143026124Y-105587100D01*
X143027795Y-105579417D01*
X143027795Y-105574850D01*
X143535795Y-105574850D01*
X143540270Y-105590089D01*
X143541660Y-105591294D01*
X143549343Y-105592965D01*
X144567679Y-105592965D01*
X144582918Y-105588490D01*
X144584123Y-105587100D01*
X144585794Y-105579417D01*
X144585794Y-105574850D01*
X146396000Y-105574850D01*
X146400475Y-105590089D01*
X146401865Y-105591294D01*
X146409548Y-105592965D01*
X147177885Y-105592965D01*
X147193124Y-105588490D01*
X147194329Y-105587100D01*
X147196000Y-105579417D01*
X147196000Y-105574850D01*
X147704000Y-105574850D01*
X147708475Y-105590089D01*
X147709865Y-105591294D01*
X147717548Y-105592965D01*
X148485884Y-105592965D01*
X148501123Y-105588490D01*
X148502328Y-105587100D01*
X148503999Y-105579417D01*
X148503999Y-104592115D01*
X148499524Y-104576876D01*
X148498134Y-104575671D01*
X148490451Y-104574000D01*
X147722115Y-104574000D01*
X147706876Y-104578475D01*
X147705671Y-104579865D01*
X147704000Y-104587548D01*
X147704000Y-105574850D01*
X147196000Y-105574850D01*
X147196000Y-104592115D01*
X147191525Y-104576876D01*
X147190135Y-104575671D01*
X147182452Y-104574000D01*
X146414115Y-104574000D01*
X146398876Y-104578475D01*
X146397671Y-104579865D01*
X146396000Y-104587548D01*
X146396000Y-105574850D01*
X144585794Y-105574850D01*
X144585794Y-104592115D01*
X144581319Y-104576876D01*
X144579929Y-104575671D01*
X144572246Y-104574000D01*
X143553910Y-104574000D01*
X143538671Y-104578475D01*
X143537466Y-104579865D01*
X143535795Y-104587548D01*
X143535795Y-105574850D01*
X143027795Y-105574850D01*
X143027795Y-105132115D01*
X143021104Y-105109328D01*
X143016000Y-105073830D01*
X143016000Y-104592115D01*
X143011525Y-104576876D01*
X143010135Y-104575671D01*
X143002452Y-104574000D01*
X141995910Y-104574000D01*
X141980671Y-104578475D01*
X141979466Y-104579865D01*
X141977795Y-104587548D01*
X141977795Y-105574850D01*
X112478030Y-105574850D01*
X112539270Y-105390753D01*
X112562927Y-105203489D01*
X112591309Y-105138413D01*
X112598838Y-105130187D01*
X113666261Y-104062764D01*
X142014209Y-104062764D01*
X142021139Y-104066000D01*
X142997885Y-104066000D01*
X143013124Y-104061525D01*
X143014329Y-104060135D01*
X143016000Y-104052452D01*
X143016000Y-103584115D01*
X143011525Y-103568876D01*
X143010135Y-103567671D01*
X143002452Y-103566000D01*
X142679637Y-103566000D01*
X142672333Y-103566425D01*
X142552634Y-103580380D01*
X142538481Y-103583725D01*
X142386970Y-103638721D01*
X142373971Y-103645231D01*
X142239174Y-103733608D01*
X142228022Y-103742932D01*
X142117172Y-103859947D01*
X142108460Y-103871592D01*
X142027506Y-104010966D01*
X142021706Y-104024304D01*
X142014329Y-104048662D01*
X142014209Y-104062764D01*
X113666261Y-104062764D01*
X115343619Y-102385405D01*
X115405931Y-102351379D01*
X115432714Y-102348500D01*
X115762742Y-102348500D01*
X115830863Y-102368502D01*
X115877356Y-102422158D01*
X115887460Y-102492432D01*
X115883334Y-102511018D01*
X115870971Y-102551838D01*
X115868796Y-102558365D01*
X115848015Y-102615463D01*
X115847132Y-102622454D01*
X115846710Y-102625794D01*
X115842296Y-102646516D01*
X115840491Y-102652475D01*
X115840490Y-102652479D01*
X115838370Y-102659480D01*
X115837917Y-102666786D01*
X115834678Y-102719004D01*
X115833928Y-102726980D01*
X115826800Y-102783399D01*
X115827488Y-102790414D01*
X115828194Y-102797619D01*
X115828553Y-102817715D01*
X115827929Y-102827767D01*
X115827929Y-102827773D01*
X115827476Y-102835080D01*
X115836931Y-102890108D01*
X115838147Y-102899127D01*
X115843318Y-102951862D01*
X115849052Y-102969098D01*
X115853671Y-102987524D01*
X115857271Y-103008477D01*
X115860134Y-103015206D01*
X115860135Y-103015209D01*
X115868768Y-103035498D01*
X115877573Y-103056189D01*
X115877636Y-103056338D01*
X115881251Y-103065893D01*
X115896748Y-103112479D01*
X115908161Y-103131323D01*
X115916319Y-103147250D01*
X115926156Y-103170368D01*
X115930495Y-103176264D01*
X115954713Y-103209173D01*
X115961007Y-103218583D01*
X115980715Y-103251124D01*
X115984435Y-103257267D01*
X115989326Y-103262332D01*
X115989327Y-103262333D01*
X116002418Y-103275889D01*
X116013262Y-103288733D01*
X116030437Y-103312071D01*
X116036021Y-103316815D01*
X116064236Y-103340786D01*
X116073292Y-103349282D01*
X116097127Y-103373964D01*
X116097131Y-103373967D01*
X116102021Y-103379031D01*
X116126923Y-103395326D01*
X116139505Y-103404731D01*
X116158941Y-103421243D01*
X116158945Y-103421246D01*
X116164520Y-103425982D01*
X116181133Y-103434465D01*
X116200601Y-103444406D01*
X116212293Y-103451191D01*
X116243660Y-103471717D01*
X116250260Y-103474171D01*
X116250261Y-103474172D01*
X116275172Y-103483436D01*
X116288556Y-103489318D01*
X116314687Y-103502662D01*
X116314693Y-103502664D01*
X116321212Y-103505993D01*
X116356842Y-103514711D01*
X116370791Y-103518996D01*
X116402315Y-103530720D01*
X116426859Y-103533995D01*
X116439472Y-103535678D01*
X116452754Y-103538182D01*
X116486651Y-103546476D01*
X116486655Y-103546477D01*
X116492108Y-103547811D01*
X116497705Y-103548158D01*
X116497710Y-103548159D01*
X116501275Y-103548380D01*
X116501284Y-103548380D01*
X116503214Y-103548500D01*
X116527204Y-103548500D01*
X116543868Y-103549607D01*
X116563118Y-103552176D01*
X116563122Y-103552176D01*
X116570099Y-103553107D01*
X116577110Y-103552469D01*
X116577114Y-103552469D01*
X116615020Y-103549019D01*
X116626439Y-103548500D01*
X140314137Y-103548500D01*
X140339797Y-103551140D01*
X140440879Y-103572165D01*
X140616752Y-103567406D01*
X140786814Y-103522315D01*
X140793264Y-103518864D01*
X140793266Y-103518863D01*
X140878446Y-103473285D01*
X140886581Y-103469388D01*
X140887314Y-103468970D01*
X140894050Y-103466104D01*
X140899758Y-103461904D01*
X140900979Y-103461229D01*
X140906609Y-103458217D01*
X140941941Y-103439311D01*
X140981095Y-103404731D01*
X140995120Y-103392345D01*
X141003846Y-103385304D01*
X141029854Y-103366165D01*
X141029858Y-103366161D01*
X141035753Y-103361823D01*
X141048160Y-103347219D01*
X141060768Y-103334367D01*
X141073812Y-103322846D01*
X141095047Y-103292799D01*
X141101912Y-103283950D01*
X141144925Y-103233320D01*
X141144930Y-103233312D01*
X141149664Y-103227740D01*
X141172156Y-103183692D01*
X141172671Y-103183955D01*
X141173126Y-103182319D01*
X141175354Y-103179167D01*
X141178093Y-103172370D01*
X141179298Y-103170160D01*
X141181227Y-103165927D01*
X141226348Y-103077564D01*
X141226349Y-103077562D01*
X141229675Y-103071048D01*
X141232125Y-103061039D01*
X141257205Y-102958541D01*
X141271493Y-102900152D01*
X141272123Y-102890000D01*
X143215500Y-102890000D01*
X143235416Y-103041280D01*
X143293808Y-103182250D01*
X143386696Y-103303304D01*
X143393242Y-103308327D01*
X143507750Y-103396192D01*
X143506240Y-103398160D01*
X143546569Y-103440450D01*
X143560010Y-103510163D01*
X143541469Y-103553465D01*
X143535795Y-103579548D01*
X143535795Y-104047885D01*
X143540270Y-104063124D01*
X143541660Y-104064329D01*
X143549343Y-104066000D01*
X144513254Y-104066000D01*
X144526785Y-104062027D01*
X144527516Y-104056944D01*
X144523967Y-104048604D01*
X146426588Y-104048604D01*
X146426628Y-104062705D01*
X146433898Y-104066000D01*
X147177885Y-104066000D01*
X147193124Y-104061525D01*
X147194329Y-104060135D01*
X147196000Y-104052452D01*
X147196000Y-104047885D01*
X147704000Y-104047885D01*
X147708475Y-104063124D01*
X147709865Y-104064329D01*
X147717548Y-104066000D01*
X148460351Y-104066000D01*
X148473882Y-104062027D01*
X148475017Y-104054129D01*
X148457193Y-103992778D01*
X148450948Y-103978345D01*
X148374903Y-103849759D01*
X148365263Y-103837332D01*
X148259633Y-103731702D01*
X148247206Y-103722062D01*
X148118622Y-103646018D01*
X148104187Y-103639772D01*
X148050047Y-103624042D01*
X148027905Y-103615264D01*
X148021139Y-103611809D01*
X148007500Y-103606737D01*
X147849284Y-103568023D01*
X147838225Y-103566340D01*
X147834679Y-103566120D01*
X147830801Y-103566000D01*
X147722115Y-103566000D01*
X147706876Y-103570475D01*
X147705671Y-103571865D01*
X147704000Y-103579548D01*
X147704000Y-104047885D01*
X147196000Y-104047885D01*
X147196000Y-103584115D01*
X147191525Y-103568876D01*
X147190135Y-103567671D01*
X147182452Y-103566000D01*
X147109637Y-103566000D01*
X147102333Y-103566425D01*
X146982634Y-103580380D01*
X146968481Y-103583726D01*
X146891183Y-103611783D01*
X146883345Y-103614341D01*
X146795814Y-103639771D01*
X146781378Y-103646018D01*
X146652794Y-103722062D01*
X146640367Y-103731702D01*
X146534737Y-103837332D01*
X146525097Y-103849759D01*
X146449052Y-103978345D01*
X146442807Y-103992778D01*
X146426588Y-104048604D01*
X144523967Y-104048604D01*
X144482271Y-103950612D01*
X144475071Y-103937988D01*
X144379533Y-103808167D01*
X144369619Y-103797536D01*
X144246775Y-103693172D01*
X144234686Y-103685109D01*
X144098865Y-103615755D01*
X144047292Y-103566961D01*
X144030286Y-103498032D01*
X144053246Y-103430850D01*
X144090370Y-103396971D01*
X144092250Y-103396192D01*
X144187836Y-103322846D01*
X144206758Y-103308327D01*
X144213304Y-103303304D01*
X144306192Y-103182250D01*
X144364584Y-103041280D01*
X144384500Y-102890000D01*
X144373813Y-102808824D01*
X144365662Y-102746908D01*
X144364584Y-102738720D01*
X144358078Y-102723012D01*
X144334788Y-102666786D01*
X144306192Y-102597750D01*
X144213304Y-102476696D01*
X144092250Y-102383808D01*
X143951280Y-102325416D01*
X143837980Y-102310500D01*
X143762020Y-102310500D01*
X143648720Y-102325416D01*
X143507750Y-102383808D01*
X143386696Y-102476696D01*
X143293808Y-102597750D01*
X143265212Y-102666786D01*
X143241923Y-102723012D01*
X143235416Y-102738720D01*
X143234338Y-102746908D01*
X143226187Y-102808824D01*
X143215500Y-102890000D01*
X141272123Y-102890000D01*
X141272182Y-102889046D01*
X141272182Y-102059765D01*
X145416000Y-102059765D01*
X145416207Y-102064870D01*
X145427047Y-102198128D01*
X145428813Y-102208658D01*
X145481753Y-102414850D01*
X145485486Y-102425390D01*
X145573997Y-102618716D01*
X145579534Y-102628423D01*
X145700883Y-102803021D01*
X145708057Y-102811600D01*
X145858400Y-102961943D01*
X145866979Y-102969117D01*
X146041577Y-103090466D01*
X146051284Y-103096003D01*
X146244610Y-103184514D01*
X146255150Y-103188247D01*
X146461342Y-103241187D01*
X146471872Y-103242953D01*
X146605130Y-103253793D01*
X146610235Y-103254000D01*
X147397885Y-103254000D01*
X147413124Y-103249525D01*
X147414329Y-103248135D01*
X147416000Y-103240452D01*
X147416000Y-100272115D01*
X147411525Y-100256876D01*
X147410135Y-100255671D01*
X147402452Y-100254000D01*
X145434115Y-100254000D01*
X145418876Y-100258475D01*
X145417671Y-100259865D01*
X145416000Y-100267548D01*
X145416000Y-102059765D01*
X141272182Y-102059765D01*
X141272182Y-99727885D01*
X145416000Y-99727885D01*
X145420475Y-99743124D01*
X145421865Y-99744329D01*
X145429548Y-99746000D01*
X147397885Y-99746000D01*
X147413124Y-99741525D01*
X147414329Y-99740135D01*
X147416000Y-99732452D01*
X147416000Y-96764115D01*
X147411525Y-96748876D01*
X147410135Y-96747671D01*
X147402452Y-96746000D01*
X146610235Y-96746000D01*
X146605130Y-96746207D01*
X146471872Y-96757047D01*
X146461342Y-96758813D01*
X146255150Y-96811753D01*
X146244610Y-96815486D01*
X146051284Y-96903997D01*
X146041577Y-96909534D01*
X145866979Y-97030883D01*
X145858400Y-97038057D01*
X145708057Y-97188400D01*
X145700883Y-97196979D01*
X145579534Y-97371577D01*
X145573997Y-97381284D01*
X145485486Y-97574610D01*
X145481753Y-97585150D01*
X145428813Y-97791342D01*
X145427047Y-97801872D01*
X145416207Y-97935130D01*
X145416000Y-97940235D01*
X145416000Y-99727885D01*
X141272182Y-99727885D01*
X141272182Y-97211875D01*
X141260305Y-97110000D01*
X143215500Y-97110000D01*
X143235416Y-97261280D01*
X143293808Y-97402250D01*
X143386696Y-97523304D01*
X143507750Y-97616192D01*
X143648720Y-97674584D01*
X143762020Y-97689500D01*
X143837980Y-97689500D01*
X143951280Y-97674584D01*
X144092250Y-97616192D01*
X144213304Y-97523304D01*
X144306192Y-97402250D01*
X144364584Y-97261280D01*
X144384500Y-97110000D01*
X144364584Y-96958720D01*
X144306192Y-96817750D01*
X144213304Y-96696696D01*
X144092250Y-96603808D01*
X144089172Y-96602533D01*
X144041752Y-96552803D01*
X144028314Y-96483090D01*
X144054699Y-96417178D01*
X144110752Y-96376625D01*
X144153033Y-96361278D01*
X144166029Y-96354769D01*
X144300826Y-96266392D01*
X144311978Y-96257068D01*
X144422828Y-96140053D01*
X144431540Y-96128408D01*
X144512494Y-95989034D01*
X144518294Y-95975696D01*
X144525671Y-95951338D01*
X144525718Y-95945871D01*
X146424983Y-95945871D01*
X146442807Y-96007222D01*
X146449052Y-96021655D01*
X146525097Y-96150241D01*
X146534737Y-96162668D01*
X146640367Y-96268298D01*
X146652794Y-96277938D01*
X146781378Y-96353982D01*
X146795813Y-96360228D01*
X146849953Y-96375958D01*
X146872095Y-96384736D01*
X146878861Y-96388191D01*
X146892500Y-96393263D01*
X147050716Y-96431977D01*
X147061775Y-96433660D01*
X147065321Y-96433880D01*
X147069199Y-96434000D01*
X147177885Y-96434000D01*
X147193124Y-96429525D01*
X147194329Y-96428135D01*
X147196000Y-96420452D01*
X147196000Y-96415885D01*
X147704000Y-96415885D01*
X147708475Y-96431124D01*
X147709865Y-96432329D01*
X147717548Y-96434000D01*
X147790363Y-96434000D01*
X147797667Y-96433575D01*
X147917366Y-96419620D01*
X147931519Y-96416274D01*
X148008817Y-96388217D01*
X148016655Y-96385659D01*
X148104186Y-96360229D01*
X148118622Y-96353982D01*
X148247206Y-96277938D01*
X148259633Y-96268298D01*
X148365263Y-96162668D01*
X148374903Y-96150241D01*
X148450948Y-96021655D01*
X148457193Y-96007222D01*
X148473412Y-95951396D01*
X148473372Y-95937295D01*
X148466102Y-95934000D01*
X147722115Y-95934000D01*
X147706876Y-95938475D01*
X147705671Y-95939865D01*
X147704000Y-95947548D01*
X147704000Y-96415885D01*
X147196000Y-96415885D01*
X147196000Y-95952115D01*
X147191525Y-95936876D01*
X147190135Y-95935671D01*
X147182452Y-95934000D01*
X146439649Y-95934000D01*
X146426118Y-95937973D01*
X146424983Y-95945871D01*
X144525718Y-95945871D01*
X144525791Y-95937236D01*
X144518861Y-95934000D01*
X143553910Y-95934000D01*
X143538671Y-95938475D01*
X143537466Y-95939865D01*
X143535795Y-95947548D01*
X143535795Y-96415885D01*
X143550062Y-96464474D01*
X143552386Y-96468090D01*
X143552386Y-96539087D01*
X143514002Y-96598813D01*
X143507483Y-96603460D01*
X143507750Y-96603808D01*
X143386696Y-96696696D01*
X143293808Y-96817750D01*
X143235416Y-96958720D01*
X143215500Y-97110000D01*
X141260305Y-97110000D01*
X141256944Y-97081174D01*
X141251396Y-97065888D01*
X141199411Y-96922673D01*
X141196914Y-96915794D01*
X141189180Y-96903997D01*
X141139923Y-96828869D01*
X141100448Y-96768660D01*
X140972722Y-96647664D01*
X140820586Y-96559296D01*
X140652202Y-96508298D01*
X140476602Y-96497404D01*
X140469386Y-96498644D01*
X140469384Y-96498644D01*
X140310420Y-96525959D01*
X140310418Y-96525960D01*
X140303205Y-96527199D01*
X140141314Y-96596084D01*
X139999611Y-96700365D01*
X139885700Y-96834448D01*
X139882372Y-96840966D01*
X139809016Y-96984623D01*
X139809014Y-96984628D01*
X139805689Y-96991140D01*
X139803950Y-96998246D01*
X139803949Y-96998249D01*
X139787398Y-97065888D01*
X139763871Y-97162036D01*
X139763182Y-97173142D01*
X139763182Y-101913500D01*
X139743180Y-101981621D01*
X139689524Y-102028114D01*
X139637182Y-102039500D01*
X126661715Y-102039500D01*
X126593594Y-102019498D01*
X126547101Y-101965842D01*
X126536997Y-101895568D01*
X126566491Y-101830988D01*
X126572620Y-101824405D01*
X127586301Y-100810723D01*
X127600712Y-100798338D01*
X127618071Y-100785563D01*
X127652089Y-100745521D01*
X127659019Y-100738005D01*
X127664662Y-100732362D01*
X127682214Y-100710178D01*
X127684981Y-100706804D01*
X127727243Y-100657058D01*
X127731982Y-100651480D01*
X127735311Y-100644961D01*
X127738628Y-100639987D01*
X127741763Y-100634911D01*
X127746307Y-100629168D01*
X127777053Y-100563382D01*
X127778985Y-100559430D01*
X127808665Y-100501305D01*
X127811993Y-100494788D01*
X127813732Y-100487680D01*
X127815814Y-100482082D01*
X127817701Y-100476409D01*
X127820800Y-100469779D01*
X127835585Y-100398697D01*
X127836556Y-100394406D01*
X127852477Y-100329344D01*
X127852477Y-100329343D01*
X127853811Y-100323892D01*
X127854500Y-100312786D01*
X127854534Y-100312788D01*
X127854777Y-100308729D01*
X127855137Y-100304695D01*
X127856628Y-100297527D01*
X127854546Y-100220585D01*
X127854500Y-100217177D01*
X127854500Y-100061875D01*
X127855726Y-100044339D01*
X127858427Y-100025123D01*
X127858427Y-100025118D01*
X127858978Y-100021200D01*
X127859274Y-100000000D01*
X127854615Y-99958461D01*
X127854500Y-99957108D01*
X127854500Y-99955947D01*
X127850091Y-99918127D01*
X127840406Y-99831784D01*
X127839832Y-99830136D01*
X127839262Y-99825246D01*
X127828956Y-99796852D01*
X127815149Y-99758817D01*
X127811623Y-99749104D01*
X127811075Y-99747559D01*
X127787054Y-99678580D01*
X127784738Y-99671929D01*
X127782658Y-99668600D01*
X127781729Y-99666744D01*
X127779232Y-99659866D01*
X127775222Y-99653749D01*
X127775218Y-99653742D01*
X127736660Y-99594933D01*
X127735234Y-99592707D01*
X127695038Y-99528379D01*
X127690605Y-99523914D01*
X127688038Y-99520359D01*
X127686782Y-99518856D01*
X127682766Y-99512732D01*
X127677452Y-99507698D01*
X127677447Y-99507692D01*
X127629070Y-99461865D01*
X127626332Y-99459192D01*
X127575764Y-99408269D01*
X127569818Y-99404496D01*
X127565155Y-99400746D01*
X127562078Y-99398060D01*
X127560356Y-99396772D01*
X127555040Y-99391736D01*
X127494288Y-99356449D01*
X127490079Y-99353891D01*
X127438799Y-99321347D01*
X127438791Y-99321343D01*
X127432844Y-99317569D01*
X127426207Y-99315206D01*
X127419874Y-99312117D01*
X127419959Y-99311942D01*
X127411862Y-99308188D01*
X127409236Y-99307046D01*
X127402904Y-99303368D01*
X127368715Y-99293013D01*
X127339277Y-99284097D01*
X127333536Y-99282207D01*
X127273381Y-99260787D01*
X127266386Y-99259953D01*
X127266382Y-99259952D01*
X127266116Y-99259920D01*
X127244519Y-99255399D01*
X127234520Y-99252370D01*
X127171957Y-99248489D01*
X127164847Y-99247845D01*
X127105301Y-99240745D01*
X127098298Y-99241481D01*
X127098295Y-99241481D01*
X127094176Y-99241914D01*
X127073207Y-99242362D01*
X127066233Y-99241929D01*
X127066227Y-99241929D01*
X127058920Y-99241476D01*
X127000884Y-99251448D01*
X126992728Y-99252577D01*
X126985626Y-99253323D01*
X126943964Y-99257701D01*
X126943959Y-99257702D01*
X126936957Y-99258438D01*
X126922698Y-99263292D01*
X126903437Y-99268193D01*
X126892739Y-99270031D01*
X126892738Y-99270031D01*
X126885523Y-99271271D01*
X126878786Y-99274137D01*
X126878781Y-99274139D01*
X126834860Y-99292827D01*
X126826136Y-99296163D01*
X126783390Y-99310716D01*
X126783388Y-99310717D01*
X126776717Y-99312988D01*
X126770722Y-99316676D01*
X126770714Y-99316680D01*
X126760590Y-99322909D01*
X126743903Y-99331531D01*
X126723632Y-99340156D01*
X126717737Y-99344494D01*
X126717734Y-99344496D01*
X126682355Y-99370532D01*
X126673693Y-99376369D01*
X126638546Y-99397991D01*
X126638542Y-99397994D01*
X126632544Y-99401684D01*
X126627511Y-99406613D01*
X126616259Y-99417632D01*
X126602780Y-99429093D01*
X126587826Y-99440097D01*
X126587824Y-99440099D01*
X126581929Y-99444437D01*
X126577189Y-99450016D01*
X126577186Y-99450019D01*
X126551220Y-99480582D01*
X126543355Y-99489024D01*
X126519146Y-99512732D01*
X126511605Y-99520117D01*
X126497161Y-99542529D01*
X126487277Y-99555850D01*
X126468018Y-99578520D01*
X126452324Y-99609255D01*
X126448202Y-99617328D01*
X126441896Y-99628282D01*
X126423729Y-99656471D01*
X126423725Y-99656478D01*
X126419909Y-99662400D01*
X126409465Y-99691096D01*
X126403286Y-99705291D01*
X126388007Y-99735212D01*
X126386268Y-99742319D01*
X126378562Y-99773811D01*
X126374574Y-99786956D01*
X126366401Y-99809413D01*
X126362015Y-99821463D01*
X126357701Y-99855608D01*
X126355088Y-99869740D01*
X126353383Y-99876710D01*
X126351105Y-99886019D01*
X126317811Y-99945165D01*
X125469394Y-100793582D01*
X125407082Y-100827608D01*
X125336267Y-100822543D01*
X125279431Y-100779996D01*
X125254620Y-100713476D01*
X125258580Y-100672012D01*
X125261342Y-100665141D01*
X125276107Y-100561394D01*
X125283081Y-100512391D01*
X125283081Y-100512388D01*
X125283662Y-100508307D01*
X125283807Y-100494500D01*
X125280816Y-100469779D01*
X125271955Y-100396557D01*
X125264776Y-100337233D01*
X125262093Y-100330133D01*
X125261681Y-100328455D01*
X125264859Y-100257530D01*
X125305879Y-100199582D01*
X125327431Y-100185840D01*
X125410766Y-100143927D01*
X125417550Y-100140515D01*
X125423321Y-100135586D01*
X125423324Y-100135584D01*
X125532231Y-100042568D01*
X125532231Y-100042567D01*
X125538009Y-100037633D01*
X125630450Y-99908988D01*
X125689537Y-99762005D01*
X125697607Y-99705297D01*
X125711276Y-99609255D01*
X125711276Y-99609252D01*
X125711857Y-99605171D01*
X125712002Y-99591364D01*
X125692971Y-99434097D01*
X125636975Y-99285910D01*
X125626062Y-99270031D01*
X125551550Y-99161615D01*
X125551549Y-99161613D01*
X125547248Y-99155356D01*
X125428970Y-99049975D01*
X125421584Y-99046064D01*
X125295683Y-98979403D01*
X125295684Y-98979403D01*
X125288969Y-98975848D01*
X125135328Y-98937256D01*
X125127729Y-98937216D01*
X125127728Y-98937216D01*
X125061876Y-98936871D01*
X124976916Y-98936426D01*
X124969536Y-98938198D01*
X124969534Y-98938198D01*
X124830258Y-98971635D01*
X124830255Y-98971636D01*
X124822879Y-98973407D01*
X124682109Y-99046064D01*
X124676392Y-99051051D01*
X124676385Y-99051056D01*
X124638110Y-99084446D01*
X124573628Y-99114154D01*
X124555281Y-99115497D01*
X105191821Y-99115497D01*
X105123700Y-99095495D01*
X105077207Y-99041839D01*
X105067125Y-98971417D01*
X105072079Y-98937256D01*
X105093712Y-98788053D01*
X105095232Y-98730000D01*
X105080424Y-98568839D01*
X105077187Y-98533613D01*
X105077186Y-98533610D01*
X105076658Y-98527859D01*
X105071387Y-98509168D01*
X105023125Y-98338046D01*
X105023124Y-98338044D01*
X105021557Y-98332487D01*
X105010978Y-98311033D01*
X104934331Y-98155609D01*
X104931776Y-98150428D01*
X104810320Y-97987779D01*
X104661258Y-97849987D01*
X104656375Y-97846906D01*
X104656371Y-97846903D01*
X104494464Y-97744748D01*
X104489581Y-97741667D01*
X104301039Y-97666446D01*
X104295379Y-97665320D01*
X104295375Y-97665319D01*
X104107613Y-97627971D01*
X104107610Y-97627971D01*
X104101946Y-97626844D01*
X104096171Y-97626768D01*
X104096167Y-97626768D01*
X103994793Y-97625441D01*
X103898971Y-97624187D01*
X103893274Y-97625166D01*
X103893273Y-97625166D01*
X103704607Y-97657585D01*
X103698910Y-97658564D01*
X103508463Y-97728824D01*
X103334010Y-97832612D01*
X103329670Y-97836418D01*
X103329666Y-97836421D01*
X103309723Y-97853911D01*
X103181392Y-97966455D01*
X103055720Y-98125869D01*
X103053031Y-98130980D01*
X103053029Y-98130983D01*
X103040073Y-98155609D01*
X102961203Y-98305515D01*
X102901007Y-98499378D01*
X102877148Y-98700964D01*
X102890424Y-98903522D01*
X102891845Y-98909118D01*
X102891846Y-98909123D01*
X102926716Y-99046419D01*
X102940392Y-99100269D01*
X102942809Y-99105512D01*
X103005537Y-99241579D01*
X103025377Y-99284616D01*
X103028710Y-99289332D01*
X103138327Y-99444437D01*
X103142533Y-99450389D01*
X103146675Y-99454424D01*
X103173527Y-99480582D01*
X103287938Y-99592035D01*
X103456720Y-99704812D01*
X103462023Y-99707090D01*
X103462026Y-99707092D01*
X103637921Y-99782662D01*
X103643228Y-99784942D01*
X103695863Y-99796852D01*
X103835579Y-99828467D01*
X103835584Y-99828468D01*
X103841216Y-99829742D01*
X103846987Y-99829969D01*
X103846989Y-99829969D01*
X103902576Y-99832153D01*
X104044053Y-99837712D01*
X104144499Y-99823148D01*
X104239231Y-99809413D01*
X104239236Y-99809412D01*
X104244945Y-99808584D01*
X104250409Y-99806729D01*
X104250414Y-99806728D01*
X104382846Y-99761773D01*
X104453781Y-99758817D01*
X104503696Y-99784390D01*
X104504941Y-99785635D01*
X104509169Y-99788656D01*
X104509172Y-99788659D01*
X104514637Y-99792564D01*
X104520651Y-99796862D01*
X104525377Y-99800410D01*
X104565644Y-99832153D01*
X104574281Y-99835186D01*
X104581731Y-99840510D01*
X104591707Y-99843494D01*
X104591708Y-99843494D01*
X104607043Y-99848080D01*
X104630846Y-99855199D01*
X104636483Y-99857031D01*
X104677363Y-99871387D01*
X104677367Y-99871388D01*
X104684848Y-99874015D01*
X104690261Y-99874484D01*
X104751670Y-99907846D01*
X104785829Y-99970085D01*
X104780916Y-100040912D01*
X104738491Y-100097838D01*
X104677577Y-100122258D01*
X104654159Y-100125030D01*
X104645907Y-100128993D01*
X104636874Y-100130496D01*
X104627705Y-100135443D01*
X104627703Y-100135444D01*
X104591768Y-100154834D01*
X104586476Y-100157531D01*
X104540268Y-100179719D01*
X104535993Y-100183313D01*
X104534068Y-100185238D01*
X104532138Y-100187009D01*
X104532053Y-100187055D01*
X104531941Y-100186932D01*
X104531406Y-100187404D01*
X104525686Y-100190490D01*
X104518617Y-100198137D01*
X104518616Y-100198138D01*
X104513165Y-100204034D01*
X104452237Y-100240479D01*
X104381277Y-100238198D01*
X104373951Y-100235535D01*
X104306403Y-100208586D01*
X104301039Y-100206446D01*
X104295379Y-100205320D01*
X104295375Y-100205319D01*
X104107613Y-100167971D01*
X104107610Y-100167971D01*
X104101946Y-100166844D01*
X104096171Y-100166768D01*
X104096167Y-100166768D01*
X103994793Y-100165441D01*
X103898971Y-100164187D01*
X103893274Y-100165166D01*
X103893273Y-100165166D01*
X103724487Y-100194169D01*
X103698910Y-100198564D01*
X103508463Y-100268824D01*
X103334010Y-100372612D01*
X103329670Y-100376418D01*
X103329666Y-100376421D01*
X103231383Y-100462614D01*
X103181392Y-100506455D01*
X103055720Y-100665869D01*
X103053031Y-100670980D01*
X103053029Y-100670983D01*
X103022240Y-100729504D01*
X102961203Y-100845515D01*
X102901007Y-101039378D01*
X102877148Y-101240964D01*
X102890424Y-101443522D01*
X102891845Y-101449118D01*
X102891846Y-101449123D01*
X102912119Y-101528945D01*
X102940392Y-101640269D01*
X102942809Y-101645512D01*
X102980010Y-101726208D01*
X103025377Y-101824616D01*
X103028710Y-101829332D01*
X103088194Y-101913500D01*
X103142533Y-101990389D01*
X103287938Y-102132035D01*
X103456720Y-102244812D01*
X103462023Y-102247090D01*
X103462026Y-102247092D01*
X103550707Y-102285192D01*
X103643228Y-102324942D01*
X103716244Y-102341464D01*
X103835579Y-102368467D01*
X103835584Y-102368468D01*
X103841216Y-102369742D01*
X103846987Y-102369969D01*
X103846989Y-102369969D01*
X103906756Y-102372317D01*
X104044053Y-102377712D01*
X104144499Y-102363148D01*
X104239231Y-102349413D01*
X104239236Y-102349412D01*
X104244945Y-102348584D01*
X104250409Y-102346729D01*
X104250414Y-102346728D01*
X104431693Y-102285192D01*
X104431698Y-102285190D01*
X104437165Y-102283334D01*
X104614276Y-102184147D01*
X104676934Y-102132035D01*
X104765913Y-102058031D01*
X104770345Y-102054345D01*
X104843953Y-101965842D01*
X104896453Y-101902718D01*
X104896455Y-101902715D01*
X104900147Y-101898276D01*
X104999334Y-101721165D01*
X105001190Y-101715698D01*
X105001192Y-101715693D01*
X105062728Y-101534414D01*
X105062729Y-101534409D01*
X105064584Y-101528945D01*
X105065412Y-101523236D01*
X105065413Y-101523231D01*
X105093179Y-101331727D01*
X105093712Y-101328053D01*
X105095232Y-101270000D01*
X105083797Y-101145551D01*
X105077187Y-101073613D01*
X105077186Y-101073610D01*
X105076658Y-101067859D01*
X105067165Y-101034199D01*
X105067926Y-100963208D01*
X105106948Y-100903897D01*
X105171841Y-100875097D01*
X105188435Y-100874000D01*
X114416786Y-100874000D01*
X114484907Y-100894002D01*
X114531400Y-100947658D01*
X114541504Y-101017932D01*
X114512010Y-101082512D01*
X114505881Y-101089095D01*
X111595095Y-103999881D01*
X111532783Y-104033907D01*
X111461968Y-104028842D01*
X111416905Y-103999881D01*
X110740724Y-103323700D01*
X110728337Y-103309287D01*
X110719904Y-103297828D01*
X110715563Y-103291929D01*
X110675521Y-103257911D01*
X110668005Y-103250981D01*
X110662362Y-103245338D01*
X110640202Y-103227806D01*
X110636816Y-103225030D01*
X110629228Y-103218583D01*
X110581480Y-103178018D01*
X110574960Y-103174689D01*
X110569982Y-103171369D01*
X110564909Y-103168236D01*
X110559167Y-103163693D01*
X110493383Y-103132947D01*
X110489433Y-103131016D01*
X110431307Y-103101336D01*
X110424788Y-103098007D01*
X110417678Y-103096267D01*
X110412058Y-103094177D01*
X110406407Y-103092297D01*
X110399778Y-103089199D01*
X110392614Y-103087709D01*
X110392611Y-103087708D01*
X110343838Y-103077564D01*
X110328686Y-103074413D01*
X110324427Y-103073449D01*
X110253892Y-103056189D01*
X110248295Y-103055842D01*
X110248290Y-103055841D01*
X110242786Y-103055500D01*
X110242788Y-103055466D01*
X110238729Y-103055223D01*
X110234695Y-103054863D01*
X110227527Y-103053372D01*
X110220210Y-103053570D01*
X110150585Y-103055454D01*
X110147177Y-103055500D01*
X104846353Y-103055500D01*
X104778232Y-103035498D01*
X104760824Y-103022025D01*
X104665498Y-102933906D01*
X104665495Y-102933904D01*
X104661258Y-102929987D01*
X104489581Y-102821667D01*
X104301039Y-102746446D01*
X104295379Y-102745320D01*
X104295375Y-102745319D01*
X104107613Y-102707971D01*
X104107610Y-102707971D01*
X104101946Y-102706844D01*
X104096171Y-102706768D01*
X104096167Y-102706768D01*
X103994793Y-102705441D01*
X103898971Y-102704187D01*
X103893274Y-102705166D01*
X103893273Y-102705166D01*
X103742400Y-102731091D01*
X103698910Y-102738564D01*
X103508463Y-102808824D01*
X103334010Y-102912612D01*
X103329670Y-102916418D01*
X103329666Y-102916421D01*
X103193886Y-103035498D01*
X103181392Y-103046455D01*
X103055720Y-103205869D01*
X103053031Y-103210980D01*
X103053029Y-103210983D01*
X103018880Y-103275889D01*
X102961203Y-103385515D01*
X102901007Y-103579378D01*
X102877148Y-103780964D01*
X100254500Y-103780964D01*
X100254500Y-96160964D01*
X102877148Y-96160964D01*
X102890424Y-96363522D01*
X102891845Y-96369118D01*
X102891846Y-96369123D01*
X102935012Y-96539087D01*
X102940392Y-96560269D01*
X102942809Y-96565512D01*
X102977803Y-96641419D01*
X103025377Y-96744616D01*
X103028710Y-96749332D01*
X103138016Y-96903997D01*
X103142533Y-96910389D01*
X103287938Y-97052035D01*
X103456720Y-97164812D01*
X103462023Y-97167090D01*
X103462026Y-97167092D01*
X103566262Y-97211875D01*
X103643228Y-97244942D01*
X103715432Y-97261280D01*
X103835579Y-97288467D01*
X103835584Y-97288468D01*
X103841216Y-97289742D01*
X103846987Y-97289969D01*
X103846989Y-97289969D01*
X103906756Y-97292317D01*
X104044053Y-97297712D01*
X104144499Y-97283148D01*
X104239231Y-97269413D01*
X104239236Y-97269412D01*
X104244945Y-97268584D01*
X104250409Y-97266729D01*
X104250414Y-97266728D01*
X104431693Y-97205192D01*
X104431698Y-97205190D01*
X104437165Y-97203334D01*
X104614276Y-97104147D01*
X104633155Y-97088446D01*
X104765913Y-96978031D01*
X104770345Y-96974345D01*
X104900147Y-96818276D01*
X104999334Y-96641165D01*
X104999787Y-96641419D01*
X105043368Y-96590151D01*
X105112488Y-96569500D01*
X110327020Y-96569500D01*
X110395141Y-96589502D01*
X110441634Y-96643158D01*
X110452276Y-96707030D01*
X110451500Y-96710933D01*
X110451501Y-98361066D01*
X110466266Y-98435301D01*
X110522516Y-98519484D01*
X110606699Y-98575734D01*
X110680933Y-98590500D01*
X111505866Y-98590500D01*
X112331066Y-98590499D01*
X112366818Y-98583388D01*
X112393126Y-98578156D01*
X112393128Y-98578155D01*
X112405301Y-98575734D01*
X112415621Y-98568839D01*
X112415622Y-98568838D01*
X112479168Y-98526377D01*
X112489484Y-98519484D01*
X112545734Y-98435301D01*
X112560500Y-98361067D01*
X112560499Y-96710934D01*
X112559732Y-96707078D01*
X112572815Y-96638096D01*
X112621655Y-96586568D01*
X112684979Y-96569500D01*
X120418080Y-96569500D01*
X120442028Y-96572049D01*
X120443693Y-96572128D01*
X120453876Y-96574320D01*
X120464217Y-96573096D01*
X120487223Y-96570373D01*
X120493154Y-96570023D01*
X120493146Y-96569928D01*
X120498324Y-96569500D01*
X120503524Y-96569500D01*
X120508653Y-96568646D01*
X120508656Y-96568646D01*
X120522565Y-96566331D01*
X120528443Y-96565494D01*
X120569001Y-96560694D01*
X120569002Y-96560694D01*
X120579341Y-96559470D01*
X120587593Y-96555507D01*
X120596626Y-96554004D01*
X120605795Y-96549057D01*
X120605797Y-96549056D01*
X120641732Y-96529666D01*
X120647025Y-96526969D01*
X120686082Y-96508215D01*
X120686086Y-96508212D01*
X120693232Y-96504781D01*
X120697508Y-96501186D01*
X120699431Y-96499263D01*
X120701363Y-96497491D01*
X120701442Y-96497448D01*
X120701555Y-96497572D01*
X120702095Y-96497096D01*
X120707814Y-96494010D01*
X120744417Y-96454413D01*
X120747846Y-96450848D01*
X121004178Y-96194516D01*
X121066490Y-96160490D01*
X121095252Y-96157627D01*
X121219318Y-96159576D01*
X121219321Y-96159576D01*
X121226916Y-96159695D01*
X121381332Y-96124329D01*
X121451742Y-96088917D01*
X121516072Y-96056563D01*
X121516075Y-96056561D01*
X121522855Y-96053151D01*
X121528626Y-96048222D01*
X121528629Y-96048220D01*
X121637536Y-95955204D01*
X121637536Y-95955203D01*
X121643314Y-95950269D01*
X121735755Y-95821624D01*
X121794842Y-95674641D01*
X121817162Y-95517807D01*
X121817307Y-95504000D01*
X121815561Y-95489567D01*
X121807520Y-95423124D01*
X121798276Y-95346733D01*
X121742280Y-95198546D01*
X121691953Y-95125319D01*
X121656855Y-95074251D01*
X121656854Y-95074249D01*
X121652553Y-95067992D01*
X121534275Y-94962611D01*
X121526889Y-94958700D01*
X121488565Y-94938409D01*
X121394274Y-94888484D01*
X121240633Y-94849892D01*
X121233034Y-94849852D01*
X121233033Y-94849852D01*
X121167181Y-94849507D01*
X121082221Y-94849062D01*
X121074841Y-94850834D01*
X121074839Y-94850834D01*
X120935563Y-94884271D01*
X120935560Y-94884272D01*
X120928184Y-94886043D01*
X120787414Y-94958700D01*
X120668039Y-95062838D01*
X120576950Y-95192444D01*
X120519406Y-95340037D01*
X120518414Y-95347570D01*
X120518414Y-95347571D01*
X120505222Y-95447779D01*
X120498729Y-95497096D01*
X120501544Y-95522591D01*
X120504963Y-95553566D01*
X120492557Y-95623470D01*
X120468819Y-95656487D01*
X120351711Y-95773595D01*
X120289399Y-95807621D01*
X120262616Y-95810500D01*
X105108792Y-95810500D01*
X105040671Y-95790498D01*
X104995786Y-95740228D01*
X104934331Y-95615609D01*
X104931776Y-95610428D01*
X104810320Y-95447779D01*
X104661258Y-95309987D01*
X104656375Y-95306906D01*
X104656371Y-95306903D01*
X104494464Y-95204748D01*
X104489581Y-95201667D01*
X104301039Y-95126446D01*
X104295379Y-95125320D01*
X104295375Y-95125319D01*
X104107613Y-95087971D01*
X104107610Y-95087971D01*
X104101946Y-95086844D01*
X104096171Y-95086768D01*
X104096167Y-95086768D01*
X103994793Y-95085441D01*
X103898971Y-95084187D01*
X103893274Y-95085166D01*
X103893273Y-95085166D01*
X103704607Y-95117585D01*
X103698910Y-95118564D01*
X103508463Y-95188824D01*
X103503502Y-95191776D01*
X103503501Y-95191776D01*
X103502378Y-95192444D01*
X103334010Y-95292612D01*
X103329670Y-95296418D01*
X103329666Y-95296421D01*
X103263699Y-95354273D01*
X103181392Y-95426455D01*
X103055720Y-95585869D01*
X103053031Y-95590980D01*
X103053029Y-95590983D01*
X103019583Y-95654553D01*
X102961203Y-95765515D01*
X102901007Y-95959378D01*
X102877148Y-96160964D01*
X100254500Y-96160964D01*
X100254500Y-93227476D01*
X100256921Y-93202894D01*
X100257065Y-93202170D01*
X100259486Y-93190000D01*
X100257065Y-93177830D01*
X100257065Y-93170144D01*
X100257672Y-93157793D01*
X100267609Y-93056908D01*
X100272425Y-93032691D01*
X100307649Y-92916574D01*
X100317093Y-92893774D01*
X100374292Y-92786761D01*
X100388011Y-92766230D01*
X100464981Y-92672444D01*
X100482444Y-92654981D01*
X100576230Y-92578011D01*
X100596761Y-92564292D01*
X100703774Y-92507093D01*
X100726574Y-92497649D01*
X100842691Y-92462425D01*
X100866908Y-92457609D01*
X100967793Y-92447672D01*
X100980144Y-92447065D01*
X100987830Y-92447065D01*
X101000000Y-92449486D01*
X101012897Y-92446921D01*
X101037476Y-92444500D01*
X103393680Y-92444500D01*
X103461801Y-92464502D01*
X103508294Y-92518158D01*
X103518398Y-92588432D01*
X103488904Y-92653012D01*
X103458104Y-92678785D01*
X103334010Y-92752612D01*
X103329670Y-92756418D01*
X103329666Y-92756421D01*
X103185733Y-92882648D01*
X103181392Y-92886455D01*
X103055720Y-93045869D01*
X103053031Y-93050980D01*
X103053029Y-93050983D01*
X103040073Y-93075609D01*
X102961203Y-93225515D01*
X102901007Y-93419378D01*
X102877148Y-93620964D01*
X102890424Y-93823522D01*
X102891845Y-93829118D01*
X102891846Y-93829123D01*
X102909602Y-93899035D01*
X102940392Y-94020269D01*
X102942809Y-94025512D01*
X102977803Y-94101419D01*
X103025377Y-94204616D01*
X103142533Y-94370389D01*
X103146675Y-94374424D01*
X103181867Y-94408706D01*
X103287938Y-94512035D01*
X103456720Y-94624812D01*
X103462023Y-94627090D01*
X103462026Y-94627092D01*
X103550707Y-94665192D01*
X103643228Y-94704942D01*
X103716244Y-94721464D01*
X103835579Y-94748467D01*
X103835584Y-94748468D01*
X103841216Y-94749742D01*
X103846987Y-94749969D01*
X103846989Y-94749969D01*
X103906756Y-94752317D01*
X104044053Y-94757712D01*
X104144499Y-94743148D01*
X104239231Y-94729413D01*
X104239236Y-94729412D01*
X104244945Y-94728584D01*
X104250409Y-94726729D01*
X104250414Y-94726728D01*
X104431693Y-94665192D01*
X104431698Y-94665190D01*
X104437165Y-94663334D01*
X104614276Y-94564147D01*
X104676934Y-94512035D01*
X104765913Y-94438031D01*
X104770345Y-94434345D01*
X104900147Y-94278276D01*
X104999334Y-94101165D01*
X104999787Y-94101419D01*
X105043368Y-94050151D01*
X105112488Y-94029500D01*
X128238616Y-94029500D01*
X128306737Y-94049502D01*
X128327711Y-94066405D01*
X129612249Y-95350943D01*
X129646275Y-95413255D01*
X129648076Y-95456482D01*
X129642729Y-95497096D01*
X129648964Y-95553566D01*
X129654731Y-95605801D01*
X129660113Y-95654553D01*
X129662723Y-95661684D01*
X129662723Y-95661686D01*
X129703676Y-95773595D01*
X129714553Y-95803319D01*
X129802908Y-95934805D01*
X129808527Y-95939918D01*
X129808528Y-95939919D01*
X129914460Y-96036309D01*
X129920076Y-96041419D01*
X130059293Y-96117008D01*
X130212522Y-96157207D01*
X130296477Y-96158526D01*
X130363319Y-96159576D01*
X130363322Y-96159576D01*
X130370916Y-96159695D01*
X130525332Y-96124329D01*
X130595742Y-96088917D01*
X130660072Y-96056563D01*
X130660075Y-96056561D01*
X130666855Y-96053151D01*
X130672626Y-96048222D01*
X130672629Y-96048220D01*
X130781536Y-95955204D01*
X130781536Y-95955203D01*
X130787314Y-95950269D01*
X130792497Y-95943056D01*
X142012484Y-95943056D01*
X142057729Y-96049388D01*
X142064929Y-96062012D01*
X142160467Y-96191833D01*
X142170381Y-96202464D01*
X142293225Y-96306828D01*
X142305313Y-96314890D01*
X142448871Y-96388195D01*
X142462496Y-96393262D01*
X142620716Y-96431977D01*
X142631775Y-96433660D01*
X142635321Y-96433880D01*
X142639199Y-96434000D01*
X142997885Y-96434000D01*
X143013124Y-96429525D01*
X143014329Y-96428135D01*
X143016000Y-96420452D01*
X143016000Y-95952115D01*
X143011525Y-95936876D01*
X143010135Y-95935671D01*
X143002452Y-95934000D01*
X142026746Y-95934000D01*
X142013215Y-95937973D01*
X142012484Y-95943056D01*
X130792497Y-95943056D01*
X130879755Y-95821624D01*
X130938842Y-95674641D01*
X130961162Y-95517807D01*
X130961307Y-95504000D01*
X130959561Y-95489567D01*
X130951520Y-95423124D01*
X130949676Y-95407885D01*
X141977796Y-95407885D01*
X141982271Y-95423124D01*
X141983661Y-95424329D01*
X141991344Y-95426000D01*
X142997885Y-95426000D01*
X143013124Y-95421525D01*
X143014329Y-95420135D01*
X143016000Y-95412452D01*
X143016000Y-95407885D01*
X143535795Y-95407885D01*
X143540270Y-95423124D01*
X143541660Y-95424329D01*
X143549343Y-95426000D01*
X144567680Y-95426000D01*
X144582919Y-95421525D01*
X144584124Y-95420135D01*
X144585795Y-95412452D01*
X144585795Y-95407885D01*
X146396001Y-95407885D01*
X146400476Y-95423124D01*
X146401866Y-95424329D01*
X146409549Y-95426000D01*
X147177885Y-95426000D01*
X147193124Y-95421525D01*
X147194329Y-95420135D01*
X147196000Y-95412452D01*
X147196000Y-95407885D01*
X147704000Y-95407885D01*
X147708475Y-95423124D01*
X147709865Y-95424329D01*
X147717548Y-95426000D01*
X148485885Y-95426000D01*
X148501124Y-95421525D01*
X148502329Y-95420135D01*
X148504000Y-95412452D01*
X148504000Y-94425150D01*
X148499525Y-94409911D01*
X148498135Y-94408706D01*
X148490452Y-94407035D01*
X147722115Y-94407035D01*
X147706876Y-94411510D01*
X147705671Y-94412900D01*
X147704000Y-94420583D01*
X147704000Y-95407885D01*
X147196000Y-95407885D01*
X147196000Y-94425150D01*
X147191525Y-94409911D01*
X147190135Y-94408706D01*
X147182452Y-94407035D01*
X146414116Y-94407035D01*
X146398877Y-94411510D01*
X146397672Y-94412900D01*
X146396001Y-94420583D01*
X146396001Y-95407885D01*
X144585795Y-95407885D01*
X144585795Y-94425150D01*
X144581320Y-94409911D01*
X144579930Y-94408706D01*
X144572247Y-94407035D01*
X143553910Y-94407035D01*
X143538671Y-94411510D01*
X143537466Y-94412900D01*
X143535795Y-94420583D01*
X143535795Y-95407885D01*
X143016000Y-95407885D01*
X143016000Y-94938814D01*
X143023720Y-94912523D01*
X143019288Y-94911559D01*
X143027795Y-94872452D01*
X143027795Y-94425150D01*
X143023320Y-94409911D01*
X143021930Y-94408706D01*
X143014247Y-94407035D01*
X141995911Y-94407035D01*
X141980672Y-94411510D01*
X141979467Y-94412900D01*
X141977796Y-94420583D01*
X141977796Y-95407885D01*
X130949676Y-95407885D01*
X130942276Y-95346733D01*
X130886280Y-95198546D01*
X130835953Y-95125319D01*
X130800855Y-95074251D01*
X130800854Y-95074249D01*
X130796553Y-95067992D01*
X130678275Y-94962611D01*
X130670889Y-94958700D01*
X130632565Y-94938409D01*
X130538274Y-94888484D01*
X130384633Y-94849892D01*
X130377034Y-94849852D01*
X130377033Y-94849852D01*
X130316626Y-94849536D01*
X130235335Y-94849110D01*
X130167321Y-94828752D01*
X130146901Y-94812207D01*
X129215614Y-93880920D01*
X141977795Y-93880920D01*
X141982270Y-93896159D01*
X141983660Y-93897364D01*
X141991343Y-93899035D01*
X143009680Y-93899035D01*
X143024919Y-93894560D01*
X143026124Y-93893170D01*
X143027795Y-93885487D01*
X143027795Y-93880920D01*
X143535795Y-93880920D01*
X143540270Y-93896159D01*
X143541660Y-93897364D01*
X143549343Y-93899035D01*
X144567679Y-93899035D01*
X144582918Y-93894560D01*
X144584123Y-93893170D01*
X144585794Y-93885487D01*
X144585794Y-93880920D01*
X146396000Y-93880920D01*
X146400475Y-93896159D01*
X146401865Y-93897364D01*
X146409548Y-93899035D01*
X147177885Y-93899035D01*
X147193124Y-93894560D01*
X147194329Y-93893170D01*
X147196000Y-93885487D01*
X147196000Y-93880920D01*
X147704000Y-93880920D01*
X147708475Y-93896159D01*
X147709865Y-93897364D01*
X147717548Y-93899035D01*
X148485884Y-93899035D01*
X148501123Y-93894560D01*
X148502328Y-93893170D01*
X148503999Y-93885487D01*
X148503999Y-92489464D01*
X148503805Y-92484528D01*
X148501587Y-92456332D01*
X148499286Y-92443731D01*
X148457194Y-92298849D01*
X148450947Y-92284413D01*
X148374903Y-92155829D01*
X148365263Y-92143402D01*
X148259633Y-92037772D01*
X148247206Y-92028132D01*
X148118622Y-91952088D01*
X148104186Y-91945841D01*
X147959298Y-91903748D01*
X147946711Y-91901448D01*
X147918501Y-91899228D01*
X147913575Y-91899035D01*
X147722115Y-91899035D01*
X147706876Y-91903510D01*
X147705671Y-91904900D01*
X147704000Y-91912583D01*
X147704000Y-93880920D01*
X147196000Y-93880920D01*
X147196000Y-91917151D01*
X147191525Y-91901912D01*
X147190135Y-91900707D01*
X147182452Y-91899036D01*
X146986429Y-91899036D01*
X146981493Y-91899230D01*
X146953297Y-91901448D01*
X146940696Y-91903749D01*
X146795814Y-91945841D01*
X146781378Y-91952088D01*
X146652794Y-92028132D01*
X146640367Y-92037772D01*
X146534737Y-92143402D01*
X146525097Y-92155829D01*
X146449053Y-92284413D01*
X146442806Y-92298849D01*
X146400713Y-92443737D01*
X146398413Y-92456324D01*
X146396193Y-92484534D01*
X146396000Y-92489460D01*
X146396000Y-93880920D01*
X144585794Y-93880920D01*
X144585794Y-92594342D01*
X144585745Y-92592636D01*
X144584327Y-92582727D01*
X144547799Y-92424507D01*
X144543149Y-92411302D01*
X144473214Y-92266636D01*
X144465757Y-92254794D01*
X144365510Y-92129216D01*
X144355614Y-92119320D01*
X144230036Y-92019073D01*
X144218194Y-92011616D01*
X144073528Y-91941681D01*
X144060323Y-91937031D01*
X143902095Y-91900501D01*
X143892210Y-91899085D01*
X143890458Y-91899035D01*
X143553910Y-91899035D01*
X143538671Y-91903510D01*
X143537466Y-91904900D01*
X143535795Y-91912583D01*
X143535795Y-93880920D01*
X143027795Y-93880920D01*
X143027795Y-91917151D01*
X143023320Y-91901912D01*
X143021930Y-91900707D01*
X143014247Y-91899036D01*
X142673102Y-91899036D01*
X142671396Y-91899085D01*
X142661487Y-91900503D01*
X142503267Y-91937031D01*
X142490062Y-91941681D01*
X142345396Y-92011616D01*
X142333554Y-92019073D01*
X142207976Y-92119320D01*
X142198080Y-92129216D01*
X142097833Y-92254794D01*
X142090376Y-92266636D01*
X142020441Y-92411302D01*
X142015791Y-92424507D01*
X141979261Y-92582735D01*
X141977845Y-92592620D01*
X141977795Y-92594372D01*
X141977795Y-93880920D01*
X129215614Y-93880920D01*
X128754478Y-93419784D01*
X128739336Y-93401036D01*
X128738221Y-93399811D01*
X128732571Y-93391060D01*
X128724393Y-93384613D01*
X128724391Y-93384611D01*
X128706200Y-93370271D01*
X128701759Y-93366325D01*
X128701697Y-93366398D01*
X128697733Y-93363039D01*
X128694056Y-93359362D01*
X128678308Y-93348108D01*
X128673638Y-93344602D01*
X128633353Y-93312844D01*
X128624719Y-93309812D01*
X128617266Y-93304486D01*
X128568150Y-93289797D01*
X128562508Y-93287964D01*
X128521633Y-93273610D01*
X128521632Y-93273610D01*
X128514149Y-93270982D01*
X128508584Y-93270500D01*
X128505876Y-93270500D01*
X128503242Y-93270386D01*
X128503144Y-93270357D01*
X128503151Y-93270193D01*
X128502447Y-93270149D01*
X128496222Y-93268287D01*
X128442365Y-93270403D01*
X128437418Y-93270500D01*
X105108792Y-93270500D01*
X105040671Y-93250498D01*
X104995786Y-93200228D01*
X104934331Y-93075609D01*
X104931776Y-93070428D01*
X104810320Y-92907779D01*
X104661258Y-92769987D01*
X104656375Y-92766906D01*
X104656371Y-92766903D01*
X104513981Y-92677062D01*
X104467042Y-92623795D01*
X104456353Y-92553608D01*
X104485308Y-92488784D01*
X104544712Y-92449904D01*
X104581216Y-92444500D01*
X106962524Y-92444500D01*
X106987103Y-92446921D01*
X107000000Y-92449486D01*
X107009209Y-92447654D01*
X107196854Y-92432886D01*
X107201661Y-92431732D01*
X107201667Y-92431731D01*
X107322853Y-92402637D01*
X107388860Y-92386790D01*
X107393433Y-92384896D01*
X107566718Y-92313119D01*
X107566722Y-92313117D01*
X107571292Y-92311224D01*
X107739657Y-92208050D01*
X107743412Y-92204843D01*
X107743416Y-92204840D01*
X107886052Y-92083016D01*
X107889808Y-92079808D01*
X107899230Y-92068776D01*
X108014840Y-91933416D01*
X108014843Y-91933412D01*
X108018050Y-91929657D01*
X108121224Y-91761292D01*
X108196790Y-91578860D01*
X108242886Y-91386854D01*
X108257654Y-91199209D01*
X108259486Y-91190000D01*
X108256921Y-91177103D01*
X108254500Y-91152524D01*
X108254500Y-91037476D01*
X108256921Y-91012894D01*
X108257065Y-91012170D01*
X108259486Y-91000000D01*
X108257065Y-90987830D01*
X108257065Y-90980144D01*
X108257672Y-90967793D01*
X108267609Y-90866908D01*
X108272425Y-90842691D01*
X108307649Y-90726574D01*
X108317093Y-90703774D01*
X108374292Y-90596761D01*
X108388011Y-90576230D01*
X108464981Y-90482444D01*
X108482444Y-90464981D01*
X108576230Y-90388011D01*
X108596761Y-90374292D01*
X108703774Y-90317093D01*
X108726574Y-90307649D01*
X108842691Y-90272425D01*
X108866908Y-90267609D01*
X108967793Y-90257672D01*
X108980144Y-90257065D01*
X108987830Y-90257065D01*
X109000000Y-90259486D01*
X109012897Y-90256921D01*
X109037476Y-90254500D01*
X148962524Y-90254500D01*
X148987103Y-90256921D01*
G37*
%TD.AperFunction*%
%TD*%
M02*
