  0
SECTION
  2
HEADER
  9
$ANGBASE
  50
0.0
  9
$ANGDIR
  70
1
  9
$MEASUREMENT
  70
1
  0
ENDSEC
  0
SECTION
  2
TABLES
  0
TABLE
  2
LTYPE
  70
4
  0
LTYPE
  5
40F
  2
CONTINUOUS
  70
0
  3
Solid line
  72
65
  73
0
  40
0.0
  0
LTYPE
  5
410
  2
DASHDOT
 70
0
  3
Dash Dot ____ _ ____ _
 72
65
 73
4
 40
2.0
 49
1.25
 49
-0.25
 49
0.25
 49
-0.25
  0
LTYPE
  5
411
  2
DASHED
 70
0
  3
Dashed __ __ __ __ __
 72
65
 73
2
 40
0.75
 49
0.5
 49
-0.25
  0
LTYPE
  5
43B
  2
DOTTED
 70
0
  3
Dotted .  .  .  .
 72
65
 73
2
 40
0.2
 49
0.0
 49
-0.2
  0
ENDTAB
  0
TABLE
  2
STYLE
  70
4
  0
STYLE
  2
KICAD
  70
0
  40
0
  41
1
  42
1
  50
0
  71
0
  3
isocp.shx
  0
STYLE
  2
KICADB
  70
0
  40
0
  41
1
  42
1
  50
0
  71
0
  3
isocp.shx
  0
STYLE
  2
KICADI
  70
0
  40
0
  41
1
  42
1
  50
15
  71
0
  3
isocp.shx
  0
STYLE
  2
KICADBI
  70
0
  40
0
  41
1
  42
1
  50
15
  71
0
  3
isocp.shx
  0
ENDTAB
  0
TABLE
  2
LAYER
  70
1
  0
LAYER
  2
BLACK
  70
0
  62
7
  6
CONTINUOUS
  0
ENDTAB
  0
ENDSEC
  0
SECTION
  2
ENTITIES
0
LINE
8
BLACK
6
CONTINUOUS
10
149.035
20
-117.965
11
149.05
21
-118
0
LINE
8
BLACK
6
CONTINUOUS
10
149.05
20
-118
11
149.035
21
-118.035
0
LINE
8
BLACK
6
CONTINUOUS
10
149.035
20
-118.035
11
149
21
-118.05
0
LINE
8
BLACK
6
CONTINUOUS
10
149
20
-118.05
11
68
21
-118.05
0
LINE
8
BLACK
6
CONTINUOUS
10
68
20
-118.05
11
67.9646
21
-118.035
0
LINE
8
BLACK
6
CONTINUOUS
10
67.9646
20
-118.035
11
67.95
21
-118
0
LINE
8
BLACK
6
CONTINUOUS
10
67.95
20
-118
11
67.9646
21
-117.965
0
LINE
8
BLACK
6
CONTINUOUS
10
67.9646
20
-117.965
11
68
21
-117.95
0
LINE
8
BLACK
6
CONTINUOUS
10
68
20
-117.95
11
149
21
-117.95
0
LINE
8
BLACK
6
CONTINUOUS
10
149
20
-117.95
11
149.035
21
-117.965
0
LINE
8
BLACK
6
CONTINUOUS
10
76.0809
20
-115.444
11
75.97
21
-115.398
0
LINE
8
BLACK
6
CONTINUOUS
10
75.97
20
-115.398
11
75.8747
21
-115.325
0
LINE
8
BLACK
6
CONTINUOUS
10
75.8747
20
-115.325
11
75.8016
21
-115.23
0
LINE
8
BLACK
6
CONTINUOUS
10
75.8016
20
-115.23
11
75.7557
21
-115.119
0
LINE
8
BLACK
6
CONTINUOUS
10
75.7557
20
-115.119
11
75.74
21
-115
0
LINE
8
BLACK
6
CONTINUOUS
10
75.74
20
-115
11
75.74
21
-113.2
0
LINE
8
BLACK
6
CONTINUOUS
10
75.74
20
-113.2
11
75.7557
21
-113.081
0
LINE
8
BLACK
6
CONTINUOUS
10
75.7557
20
-113.081
11
75.8016
21
-112.97
0
LINE
8
BLACK
6
CONTINUOUS
10
75.8016
20
-112.97
11
75.8747
21
-112.875
0
LINE
8
BLACK
6
CONTINUOUS
10
75.8747
20
-112.875
11
75.97
21
-112.802
0
LINE
8
BLACK
6
CONTINUOUS
10
75.97
20
-112.802
11
76.0809
21
-112.756
0
LINE
8
BLACK
6
CONTINUOUS
10
76.0809
20
-112.756
11
76.2
21
-112.74
0
LINE
8
BLACK
6
CONTINUOUS
10
76.2
20
-112.74
11
82.9
21
-112.74
0
LINE
8
BLACK
6
CONTINUOUS
10
82.9
20
-112.74
11
83.0191
21
-112.756
0
LINE
8
BLACK
6
CONTINUOUS
10
83.0191
20
-112.756
11
83.13
21
-112.802
0
LINE
8
BLACK
6
CONTINUOUS
10
83.13
20
-112.802
11
83.2253
21
-112.875
0
LINE
8
BLACK
6
CONTINUOUS
10
83.2253
20
-112.875
11
83.2984
21
-112.97
0
LINE
8
BLACK
6
CONTINUOUS
10
83.2984
20
-112.97
11
83.3443
21
-113.081
0
LINE
8
BLACK
6
CONTINUOUS
10
83.3443
20
-113.081
11
83.36
21
-113.2
0
LINE
8
BLACK
6
CONTINUOUS
10
83.36
20
-113.2
11
83.36
21
-115
0
LINE
8
BLACK
6
CONTINUOUS
10
83.36
20
-115
11
83.3443
21
-115.119
0
LINE
8
BLACK
6
CONTINUOUS
10
83.3443
20
-115.119
11
83.2984
21
-115.23
0
LINE
8
BLACK
6
CONTINUOUS
10
83.2984
20
-115.23
11
83.2253
21
-115.325
0
LINE
8
BLACK
6
CONTINUOUS
10
83.2253
20
-115.325
11
83.13
21
-115.398
0
LINE
8
BLACK
6
CONTINUOUS
10
83.13
20
-115.398
11
83.0191
21
-115.444
0
LINE
8
BLACK
6
CONTINUOUS
10
83.0191
20
-115.444
11
82.9
21
-115.46
0
LINE
8
BLACK
6
CONTINUOUS
10
82.9
20
-115.46
11
76.2
21
-115.46
0
LINE
8
BLACK
6
CONTINUOUS
10
76.2
20
-115.46
11
76.0809
21
-115.444
0
LINE
8
BLACK
6
CONTINUOUS
10
76.1946
20
-112.858
11
76.1112
21
-112.869
0
LINE
8
BLACK
6
CONTINUOUS
10
76.1112
20
-112.869
11
76.0285
21
-112.903
0
LINE
8
BLACK
6
CONTINUOUS
10
76.0285
20
-112.903
11
75.9575
21
-112.958
0
LINE
8
BLACK
6
CONTINUOUS
10
75.9575
20
-112.958
11
75.903
21
-113.029
0
LINE
8
BLACK
6
CONTINUOUS
10
75.903
20
-113.029
11
75.8688
21
-113.111
0
LINE
8
BLACK
6
CONTINUOUS
10
75.8688
20
-113.111
11
75.8578
21
-113.195
0
LINE
8
BLACK
6
CONTINUOUS
10
75.8578
20
-113.195
11
75.86
21
-113.2
0
LINE
8
BLACK
6
CONTINUOUS
10
75.86
20
-113.2
11
75.86
21
-115
0
LINE
8
BLACK
6
CONTINUOUS
10
75.86
20
-115
11
75.8578
21
-115.005
0
LINE
8
BLACK
6
CONTINUOUS
10
75.8578
20
-115.005
11
75.8688
21
-115.089
0
LINE
8
BLACK
6
CONTINUOUS
10
75.8688
20
-115.089
11
75.903
21
-115.171
0
LINE
8
BLACK
6
CONTINUOUS
10
75.903
20
-115.171
11
75.9575
21
-115.242
0
LINE
8
BLACK
6
CONTINUOUS
10
75.9575
20
-115.242
11
76.0285
21
-115.297
0
LINE
8
BLACK
6
CONTINUOUS
10
76.0285
20
-115.297
11
76.1112
21
-115.331
0
LINE
8
BLACK
6
CONTINUOUS
10
76.1112
20
-115.331
11
76.1946
21
-115.342
0
LINE
8
BLACK
6
CONTINUOUS
10
76.1946
20
-115.342
11
76.2
21
-115.34
0
LINE
8
BLACK
6
CONTINUOUS
10
76.2
20
-115.34
11
82.9
21
-115.34
0
LINE
8
BLACK
6
CONTINUOUS
10
82.9
20
-115.34
11
82.9054
21
-115.342
0
LINE
8
BLACK
6
CONTINUOUS
10
82.9054
20
-115.342
11
82.9888
21
-115.331
0
LINE
8
BLACK
6
CONTINUOUS
10
82.9888
20
-115.331
11
83.0715
21
-115.297
0
LINE
8
BLACK
6
CONTINUOUS
10
83.0715
20
-115.297
11
83.1425
21
-115.242
0
LINE
8
BLACK
6
CONTINUOUS
10
83.1425
20
-115.242
11
83.197
21
-115.171
0
LINE
8
BLACK
6
CONTINUOUS
10
83.197
20
-115.171
11
83.2312
21
-115.089
0
LINE
8
BLACK
6
CONTINUOUS
10
83.2312
20
-115.089
11
83.2422
21
-115.005
0
LINE
8
BLACK
6
CONTINUOUS
10
83.2422
20
-115.005
11
83.24
21
-115
0
LINE
8
BLACK
6
CONTINUOUS
10
83.24
20
-115
11
83.24
21
-113.2
0
LINE
8
BLACK
6
CONTINUOUS
10
83.24
20
-113.2
11
83.2422
21
-113.195
0
LINE
8
BLACK
6
CONTINUOUS
10
83.2422
20
-113.195
11
83.2312
21
-113.111
0
LINE
8
BLACK
6
CONTINUOUS
10
83.2312
20
-113.111
11
83.197
21
-113.029
0
LINE
8
BLACK
6
CONTINUOUS
10
83.197
20
-113.029
11
83.1425
21
-112.958
0
LINE
8
BLACK
6
CONTINUOUS
10
83.1425
20
-112.958
11
83.0715
21
-112.903
0
LINE
8
BLACK
6
CONTINUOUS
10
83.0715
20
-112.903
11
82.9888
21
-112.869
0
LINE
8
BLACK
6
CONTINUOUS
10
82.9888
20
-112.869
11
82.9054
21
-112.858
0
LINE
8
BLACK
6
CONTINUOUS
10
82.9054
20
-112.858
11
82.9
21
-112.86
0
LINE
8
BLACK
6
CONTINUOUS
10
82.9
20
-112.86
11
76.2
21
-112.86
0
LINE
8
BLACK
6
CONTINUOUS
10
76.2
20
-112.86
11
76.1946
21
-112.858
0
LINE
8
BLACK
6
CONTINUOUS
10
80.515
20
-114.677
11
80.5266
21
-114.678
0
LINE
8
BLACK
6
CONTINUOUS
10
80.5266
20
-114.678
11
80.5743
21
-114.702
0
LINE
8
BLACK
6
CONTINUOUS
10
80.5743
20
-114.702
11
80.5797
21
-114.708
0
LINE
8
BLACK
6
CONTINUOUS
10
80.5797
20
-114.708
11
80.5873
21
-114.711
0
LINE
8
BLACK
6
CONTINUOUS
10
80.5873
20
-114.711
11
80.6111
21
-114.735
0
LINE
8
BLACK
6
CONTINUOUS
10
80.6111
20
-114.735
11
80.6142
21
-114.743
0
LINE
8
BLACK
6
CONTINUOUS
10
80.6142
20
-114.743
11
80.6204
21
-114.748
0
LINE
8
BLACK
6
CONTINUOUS
10
80.6204
20
-114.748
11
80.6442
21
-114.796
0
LINE
8
BLACK
6
CONTINUOUS
10
80.6442
20
-114.796
11
80.6451
21
-114.807
0
LINE
8
BLACK
6
CONTINUOUS
10
80.6451
20
-114.807
11
80.6495
21
-114.818
0
LINE
8
BLACK
6
CONTINUOUS
10
80.6495
20
-114.818
11
80.6495
21
-114.961
0
LINE
8
BLACK
6
CONTINUOUS
10
80.6495
20
-114.961
11
80.6451
21
-114.972
0
LINE
8
BLACK
6
CONTINUOUS
10
80.6451
20
-114.972
11
80.6442
21
-114.983
0
LINE
8
BLACK
6
CONTINUOUS
10
80.6442
20
-114.983
11
80.6204
21
-115.031
0
LINE
8
BLACK
6
CONTINUOUS
10
80.6204
20
-115.031
11
80.6142
21
-115.036
0
LINE
8
BLACK
6
CONTINUOUS
10
80.6142
20
-115.036
11
80.6111
21
-115.044
0
LINE
8
BLACK
6
CONTINUOUS
10
80.6111
20
-115.044
11
80.5873
21
-115.068
0
LINE
8
BLACK
6
CONTINUOUS
10
80.5873
20
-115.068
11
80.5797
21
-115.071
0
LINE
8
BLACK
6
CONTINUOUS
10
80.5797
20
-115.071
11
80.5743
21
-115.077
0
LINE
8
BLACK
6
CONTINUOUS
10
80.5743
20
-115.077
11
80.5266
21
-115.101
0
LINE
8
BLACK
6
CONTINUOUS
10
80.5266
20
-115.101
11
80.515
21
-115.102
0
LINE
8
BLACK
6
CONTINUOUS
10
80.515
20
-115.102
11
80.5043
21
-115.106
0
LINE
8
BLACK
6
CONTINUOUS
10
80.5043
20
-115.106
11
80.4114
21
-115.106
0
LINE
8
BLACK
6
CONTINUOUS
10
80.4114
20
-115.106
11
80.4114
21
-115.116
0
LINE
8
BLACK
6
CONTINUOUS
10
80.4114
20
-115.116
11
80.4263
21
-115.146
0
LINE
8
BLACK
6
CONTINUOUS
10
80.4263
20
-115.146
11
80.4387
21
-115.158
0
LINE
8
BLACK
6
CONTINUOUS
10
80.4387
20
-115.158
11
80.4685
21
-115.173
0
LINE
8
BLACK
6
CONTINUOUS
10
80.4685
20
-115.173
11
80.5163
21
-115.173
0
LINE
8
BLACK
6
CONTINUOUS
10
80.5163
20
-115.173
11
80.5534
21
-115.154
0
LINE
8
BLACK
6
CONTINUOUS
10
80.5534
20
-115.154
11
80.5915
21
-115.152
0
LINE
8
BLACK
6
CONTINUOUS
10
80.5915
20
-115.152
11
80.6204
21
-115.177
0
LINE
8
BLACK
6
CONTINUOUS
10
80.6204
20
-115.177
11
80.6231
21
-115.215
0
LINE
8
BLACK
6
CONTINUOUS
10
80.6231
20
-115.215
11
80.5981
21
-115.244
0
LINE
8
BLACK
6
CONTINUOUS
10
80.5981
20
-115.244
11
80.5505
21
-115.268
0
LINE
8
BLACK
6
CONTINUOUS
10
80.5505
20
-115.268
11
80.5388
21
-115.268
0
LINE
8
BLACK
6
CONTINUOUS
10
80.5388
20
-115.268
11
80.5281
21
-115.273
0
LINE
8
BLACK
6
CONTINUOUS
10
80.5281
20
-115.273
11
80.4567
21
-115.273
0
LINE
8
BLACK
6
CONTINUOUS
10
80.4567
20
-115.273
11
80.4459
21
-115.268
0
LINE
8
BLACK
6
CONTINUOUS
10
80.4459
20
-115.268
11
80.4343
21
-115.268
0
LINE
8
BLACK
6
CONTINUOUS
10
80.4343
20
-115.268
11
80.3867
21
-115.244
0
LINE
8
BLACK
6
CONTINUOUS
10
80.3867
20
-115.244
11
80.3813
21
-115.238
0
LINE
8
BLACK
6
CONTINUOUS
10
80.3813
20
-115.238
11
80.3737
21
-115.234
0
LINE
8
BLACK
6
CONTINUOUS
10
80.3737
20
-115.234
11
80.3499
21
-115.211
0
LINE
8
BLACK
6
CONTINUOUS
10
80.3499
20
-115.211
11
80.3467
21
-115.203
0
LINE
8
BLACK
6
CONTINUOUS
10
80.3467
20
-115.203
11
80.3405
21
-115.198
0
LINE
8
BLACK
6
CONTINUOUS
10
80.3405
20
-115.198
11
80.3167
21
-115.15
0
LINE
8
BLACK
6
CONTINUOUS
10
80.3167
20
-115.15
11
80.3159
21
-115.138
0
LINE
8
BLACK
6
CONTINUOUS
10
80.3159
20
-115.138
11
80.3114
21
-115.128
0
LINE
8
BLACK
6
CONTINUOUS
10
80.3114
20
-115.128
11
80.3114
21
-114.723
0
LINE
8
BLACK
6
CONTINUOUS
10
80.3114
20
-114.723
11
80.3261
21
-114.688
0
LINE
8
BLACK
6
CONTINUOUS
10
80.3261
20
-114.688
11
80.3614
21
-114.673
0
LINE
8
BLACK
6
CONTINUOUS
10
80.3614
20
-114.673
11
80.381
21
-114.681
0
LINE
8
BLACK
6
CONTINUOUS
10
80.381
20
-114.681
11
80.3867
21
-114.678
0
LINE
8
BLACK
6
CONTINUOUS
10
80.3867
20
-114.678
11
80.3983
21
-114.677
0
LINE
8
BLACK
6
CONTINUOUS
10
80.3983
20
-114.677
11
80.409
21
-114.673
0
LINE
8
BLACK
6
CONTINUOUS
10
80.409
20
-114.673
11
80.5043
21
-114.673
0
LINE
8
BLACK
6
CONTINUOUS
10
80.5043
20
-114.673
11
80.515
21
-114.677
0
LINE
8
BLACK
6
CONTINUOUS
10
80.4209
20
-114.773
11
80.4114
21
-114.778
0
LINE
8
BLACK
6
CONTINUOUS
10
80.4114
20
-114.778
11
80.4114
21
-115.001
0
LINE
8
BLACK
6
CONTINUOUS
10
80.4114
20
-115.001
11
80.4209
21
-115.006
0
LINE
8
BLACK
6
CONTINUOUS
10
80.4209
20
-115.006
11
80.4925
21
-115.006
0
LINE
8
BLACK
6
CONTINUOUS
10
80.4925
20
-115.006
11
80.5223
21
-114.991
0
LINE
8
BLACK
6
CONTINUOUS
10
80.5223
20
-114.991
11
80.5346
21
-114.979
0
LINE
8
BLACK
6
CONTINUOUS
10
80.5346
20
-114.979
11
80.5495
21
-114.949
0
LINE
8
BLACK
6
CONTINUOUS
10
80.5495
20
-114.949
11
80.5495
21
-114.83
0
LINE
8
BLACK
6
CONTINUOUS
10
80.5495
20
-114.83
11
80.5346
21
-114.8
0
LINE
8
BLACK
6
CONTINUOUS
10
80.5346
20
-114.8
11
80.5223
21
-114.788
0
LINE
8
BLACK
6
CONTINUOUS
10
80.5223
20
-114.788
11
80.4925
21
-114.773
0
LINE
8
BLACK
6
CONTINUOUS
10
80.4925
20
-114.773
11
80.4209
21
-114.773
0
LINE
8
BLACK
6
CONTINUOUS
10
81.0635
20
-114.688
11
81.0781
21
-114.723
0
LINE
8
BLACK
6
CONTINUOUS
10
81.0781
20
-114.723
11
81.0781
21
-114.985
0
LINE
8
BLACK
6
CONTINUOUS
10
81.0781
20
-114.985
11
81.0736
21
-114.996
0
LINE
8
BLACK
6
CONTINUOUS
10
81.0736
20
-114.996
11
81.0728
21
-115.007
0
LINE
8
BLACK
6
CONTINUOUS
10
81.0728
20
-115.007
11
81.049
21
-115.055
0
LINE
8
BLACK
6
CONTINUOUS
10
81.049
20
-115.055
11
81.037
21
-115.065
0
LINE
8
BLACK
6
CONTINUOUS
10
81.037
20
-115.065
11
81.0266
21
-115.077
0
LINE
8
BLACK
6
CONTINUOUS
10
81.0266
20
-115.077
11
80.979
21
-115.101
0
LINE
8
BLACK
6
CONTINUOUS
10
80.979
20
-115.101
11
80.9674
21
-115.102
0
LINE
8
BLACK
6
CONTINUOUS
10
80.9674
20
-115.102
11
80.9567
21
-115.106
0
LINE
8
BLACK
6
CONTINUOUS
10
80.9567
20
-115.106
11
80.8852
21
-115.106
0
LINE
8
BLACK
6
CONTINUOUS
10
80.8852
20
-115.106
11
80.8745
21
-115.102
0
LINE
8
BLACK
6
CONTINUOUS
10
80.8745
20
-115.102
11
80.8629
21
-115.101
0
LINE
8
BLACK
6
CONTINUOUS
10
80.8629
20
-115.101
11
80.8464
21
-115.093
0
LINE
8
BLACK
6
CONTINUOUS
10
80.8464
20
-115.093
11
80.8138
21
-115.106
0
LINE
8
BLACK
6
CONTINUOUS
10
80.8138
20
-115.106
11
80.7785
21
-115.092
0
LINE
8
BLACK
6
CONTINUOUS
10
80.7785
20
-115.092
11
80.7638
21
-115.056
0
LINE
8
BLACK
6
CONTINUOUS
10
80.7638
20
-115.056
11
80.7638
21
-114.723
0
LINE
8
BLACK
6
CONTINUOUS
10
80.7638
20
-114.723
11
80.7785
21
-114.688
0
LINE
8
BLACK
6
CONTINUOUS
10
80.7785
20
-114.688
11
80.8138
21
-114.673
0
LINE
8
BLACK
6
CONTINUOUS
10
80.8138
20
-114.673
11
80.8492
21
-114.688
0
LINE
8
BLACK
6
CONTINUOUS
10
80.8492
20
-114.688
11
80.8638
21
-114.723
0
LINE
8
BLACK
6
CONTINUOUS
10
80.8638
20
-114.723
11
80.8638
21
-114.988
0
LINE
8
BLACK
6
CONTINUOUS
10
80.8638
20
-114.988
11
80.8672
21
-114.991
0
LINE
8
BLACK
6
CONTINUOUS
10
80.8672
20
-114.991
11
80.897
21
-115.006
0
LINE
8
BLACK
6
CONTINUOUS
10
80.897
20
-115.006
11
80.9449
21
-115.006
0
LINE
8
BLACK
6
CONTINUOUS
10
80.9449
20
-115.006
11
80.967
21
-114.995
0
LINE
8
BLACK
6
CONTINUOUS
10
80.967
20
-114.995
11
80.9781
21
-114.973
0
LINE
8
BLACK
6
CONTINUOUS
10
80.9781
20
-114.973
11
80.9781
21
-114.723
0
LINE
8
BLACK
6
CONTINUOUS
10
80.9781
20
-114.723
11
80.9927
21
-114.688
0
LINE
8
BLACK
6
CONTINUOUS
10
80.9927
20
-114.688
11
81.0281
21
-114.673
0
LINE
8
BLACK
6
CONTINUOUS
10
81.0281
20
-114.673
11
81.0635
21
-114.688
0
LINE
8
BLACK
6
CONTINUOUS
10
77.7055
20
-114.677
11
77.7171
21
-114.678
0
LINE
8
BLACK
6
CONTINUOUS
10
77.7171
20
-114.678
11
77.7647
21
-114.702
0
LINE
8
BLACK
6
CONTINUOUS
10
77.7647
20
-114.702
11
77.7898
21
-114.731
0
LINE
8
BLACK
6
CONTINUOUS
10
77.7898
20
-114.731
11
77.7871
21
-114.769
0
LINE
8
BLACK
6
CONTINUOUS
10
77.7871
20
-114.769
11
77.7582
21
-114.794
0
LINE
8
BLACK
6
CONTINUOUS
10
77.7582
20
-114.794
11
77.72
21
-114.791
0
LINE
8
BLACK
6
CONTINUOUS
10
77.72
20
-114.791
11
77.683
21
-114.773
0
LINE
8
BLACK
6
CONTINUOUS
10
77.683
20
-114.773
11
77.6113
21
-114.773
0
LINE
8
BLACK
6
CONTINUOUS
10
77.6113
20
-114.773
11
77.5892
21
-114.784
0
LINE
8
BLACK
6
CONTINUOUS
10
77.5892
20
-114.784
11
77.5781
21
-114.806
0
LINE
8
BLACK
6
CONTINUOUS
10
77.5781
20
-114.806
11
77.5781
21
-114.811
0
LINE
8
BLACK
6
CONTINUOUS
10
77.5781
20
-114.811
11
77.5875
21
-114.816
0
LINE
8
BLACK
6
CONTINUOUS
10
77.5875
20
-114.816
11
77.6948
21
-114.816
0
LINE
8
BLACK
6
CONTINUOUS
10
77.6948
20
-114.816
11
77.7055
21
-114.82
0
LINE
8
BLACK
6
CONTINUOUS
10
77.7055
20
-114.82
11
77.7171
21
-114.821
0
LINE
8
BLACK
6
CONTINUOUS
10
77.7171
20
-114.821
11
77.7647
21
-114.845
0
LINE
8
BLACK
6
CONTINUOUS
10
77.7647
20
-114.845
11
77.7751
21
-114.857
0
LINE
8
BLACK
6
CONTINUOUS
10
77.7751
20
-114.857
11
77.7871
21
-114.867
0
LINE
8
BLACK
6
CONTINUOUS
10
77.7871
20
-114.867
11
77.8109
21
-114.915
0
LINE
8
BLACK
6
CONTINUOUS
10
77.8109
20
-114.915
11
77.8117
21
-114.926
0
LINE
8
BLACK
6
CONTINUOUS
10
77.8117
20
-114.926
11
77.8162
21
-114.937
0
LINE
8
BLACK
6
CONTINUOUS
10
77.8162
20
-114.937
11
77.8162
21
-114.985
0
LINE
8
BLACK
6
CONTINUOUS
10
77.8162
20
-114.985
11
77.8117
21
-114.996
0
LINE
8
BLACK
6
CONTINUOUS
10
77.8117
20
-114.996
11
77.8109
21
-115.007
0
LINE
8
BLACK
6
CONTINUOUS
10
77.8109
20
-115.007
11
77.7871
21
-115.055
0
LINE
8
BLACK
6
CONTINUOUS
10
77.7871
20
-115.055
11
77.7751
21
-115.065
0
LINE
8
BLACK
6
CONTINUOUS
10
77.7751
20
-115.065
11
77.7647
21
-115.077
0
LINE
8
BLACK
6
CONTINUOUS
10
77.7647
20
-115.077
11
77.7171
21
-115.101
0
LINE
8
BLACK
6
CONTINUOUS
10
77.7171
20
-115.101
11
77.7055
21
-115.102
0
LINE
8
BLACK
6
CONTINUOUS
10
77.7055
20
-115.102
11
77.6948
21
-115.106
0
LINE
8
BLACK
6
CONTINUOUS
10
77.6948
20
-115.106
11
77.5757
21
-115.106
0
LINE
8
BLACK
6
CONTINUOUS
10
77.5757
20
-115.106
11
77.565
21
-115.102
0
LINE
8
BLACK
6
CONTINUOUS
10
77.565
20
-115.102
11
77.5534
21
-115.101
0
LINE
8
BLACK
6
CONTINUOUS
10
77.5534
20
-115.101
11
77.5477
21
-115.098
0
LINE
8
BLACK
6
CONTINUOUS
10
77.5477
20
-115.098
11
77.5281
21
-115.106
0
LINE
8
BLACK
6
CONTINUOUS
10
77.5281
20
-115.106
11
77.4927
21
-115.092
0
LINE
8
BLACK
6
CONTINUOUS
10
77.4927
20
-115.092
11
77.4781
21
-115.056
0
LINE
8
BLACK
6
CONTINUOUS
10
77.4781
20
-115.056
11
77.4781
21
-114.794
0
LINE
8
BLACK
6
CONTINUOUS
10
77.4781
20
-114.794
11
77.4825
21
-114.784
0
LINE
8
BLACK
6
CONTINUOUS
10
77.4825
20
-114.784
11
77.4834
21
-114.772
0
LINE
8
BLACK
6
CONTINUOUS
10
77.4834
20
-114.772
11
77.5072
21
-114.724
0
LINE
8
BLACK
6
CONTINUOUS
10
77.5072
20
-114.724
11
77.5192
21
-114.714
0
LINE
8
BLACK
6
CONTINUOUS
10
77.5192
20
-114.714
11
77.5295
21
-114.702
0
LINE
8
BLACK
6
CONTINUOUS
10
77.5295
20
-114.702
11
77.5772
21
-114.678
0
LINE
8
BLACK
6
CONTINUOUS
10
77.5772
20
-114.678
11
77.5888
21
-114.677
0
LINE
8
BLACK
6
CONTINUOUS
10
77.5888
20
-114.677
11
77.5995
21
-114.673
0
LINE
8
BLACK
6
CONTINUOUS
10
77.5995
20
-114.673
11
77.6948
21
-114.673
0
LINE
8
BLACK
6
CONTINUOUS
10
77.6948
20
-114.673
11
77.7055
21
-114.677
0
LINE
8
BLACK
6
CONTINUOUS
10
77.5781
20
-114.916
11
77.5781
21
-115.001
0
LINE
8
BLACK
6
CONTINUOUS
10
77.5781
20
-115.001
11
77.5875
21
-115.006
0
LINE
8
BLACK
6
CONTINUOUS
10
77.5875
20
-115.006
11
77.683
21
-115.006
0
LINE
8
BLACK
6
CONTINUOUS
10
77.683
20
-115.006
11
77.7051
21
-114.995
0
LINE
8
BLACK
6
CONTINUOUS
10
77.7051
20
-114.995
11
77.7162
21
-114.973
0
LINE
8
BLACK
6
CONTINUOUS
10
77.7162
20
-114.973
11
77.7162
21
-114.949
0
LINE
8
BLACK
6
CONTINUOUS
10
77.7162
20
-114.949
11
77.7051
21
-114.927
0
LINE
8
BLACK
6
CONTINUOUS
10
77.7051
20
-114.927
11
77.683
21
-114.916
0
LINE
8
BLACK
6
CONTINUOUS
10
77.683
20
-114.916
11
77.5781
21
-114.916
0
LINE
8
BLACK
6
CONTINUOUS
10
81.8722
20
-114.677
11
81.8838
21
-114.678
0
LINE
8
BLACK
6
CONTINUOUS
10
81.8838
20
-114.678
11
81.9314
21
-114.702
0
LINE
8
BLACK
6
CONTINUOUS
10
81.9314
20
-114.702
11
81.9418
21
-114.714
0
LINE
8
BLACK
6
CONTINUOUS
10
81.9418
20
-114.714
11
81.9538
21
-114.724
0
LINE
8
BLACK
6
CONTINUOUS
10
81.9538
20
-114.724
11
81.9776
21
-114.772
0
LINE
8
BLACK
6
CONTINUOUS
10
81.9776
20
-114.772
11
81.9784
21
-114.784
0
LINE
8
BLACK
6
CONTINUOUS
10
81.9784
20
-114.784
11
81.9829
21
-114.794
0
LINE
8
BLACK
6
CONTINUOUS
10
81.9829
20
-114.794
11
81.9829
21
-114.985
0
LINE
8
BLACK
6
CONTINUOUS
10
81.9829
20
-114.985
11
81.9784
21
-114.996
0
LINE
8
BLACK
6
CONTINUOUS
10
81.9784
20
-114.996
11
81.9776
21
-115.007
0
LINE
8
BLACK
6
CONTINUOUS
10
81.9776
20
-115.007
11
81.9538
21
-115.055
0
LINE
8
BLACK
6
CONTINUOUS
10
81.9538
20
-115.055
11
81.9418
21
-115.065
0
LINE
8
BLACK
6
CONTINUOUS
10
81.9418
20
-115.065
11
81.9314
21
-115.077
0
LINE
8
BLACK
6
CONTINUOUS
10
81.9314
20
-115.077
11
81.8838
21
-115.101
0
LINE
8
BLACK
6
CONTINUOUS
10
81.8838
20
-115.101
11
81.8722
21
-115.102
0
LINE
8
BLACK
6
CONTINUOUS
10
81.8722
20
-115.102
11
81.8614
21
-115.106
0
LINE
8
BLACK
6
CONTINUOUS
10
81.8614
20
-115.106
11
81.7662
21
-115.106
0
LINE
8
BLACK
6
CONTINUOUS
10
81.7662
20
-115.106
11
81.7554
21
-115.102
0
LINE
8
BLACK
6
CONTINUOUS
10
81.7554
20
-115.102
11
81.7438
21
-115.101
0
LINE
8
BLACK
6
CONTINUOUS
10
81.7438
20
-115.101
11
81.6962
21
-115.077
0
LINE
8
BLACK
6
CONTINUOUS
10
81.6962
20
-115.077
11
81.6711
21
-115.048
0
LINE
8
BLACK
6
CONTINUOUS
10
81.6711
20
-115.048
11
81.6739
21
-115.01
0
LINE
8
BLACK
6
CONTINUOUS
10
81.6739
20
-115.01
11
81.7028
21
-114.985
0
LINE
8
BLACK
6
CONTINUOUS
10
81.7028
20
-114.985
11
81.7409
21
-114.988
0
LINE
8
BLACK
6
CONTINUOUS
10
81.7409
20
-114.988
11
81.778
21
-115.006
0
LINE
8
BLACK
6
CONTINUOUS
10
81.778
20
-115.006
11
81.8496
21
-115.006
0
LINE
8
BLACK
6
CONTINUOUS
10
81.8496
20
-115.006
11
81.8718
21
-114.995
0
LINE
8
BLACK
6
CONTINUOUS
10
81.8718
20
-114.995
11
81.8829
21
-114.973
0
LINE
8
BLACK
6
CONTINUOUS
10
81.8829
20
-114.973
11
81.8829
21
-114.931
0
LINE
8
BLACK
6
CONTINUOUS
10
81.8829
20
-114.931
11
81.685
21
-114.891
0
LINE
8
BLACK
6
CONTINUOUS
10
81.685
20
-114.891
11
81.6729
21
-114.883
0
LINE
8
BLACK
6
CONTINUOUS
10
81.6729
20
-114.883
11
81.6594
21
-114.877
0
LINE
8
BLACK
6
CONTINUOUS
10
81.6594
20
-114.877
11
81.6574
21
-114.873
0
LINE
8
BLACK
6
CONTINUOUS
10
81.6574
20
-114.873
11
81.6532
21
-114.87
0
LINE
8
BLACK
6
CONTINUOUS
10
81.6532
20
-114.87
11
81.6503
21
-114.855
0
LINE
8
BLACK
6
CONTINUOUS
10
81.6503
20
-114.855
11
81.6448
21
-114.842
0
LINE
8
BLACK
6
CONTINUOUS
10
81.6448
20
-114.842
11
81.6448
21
-114.794
0
LINE
8
BLACK
6
CONTINUOUS
10
81.6448
20
-114.794
11
81.6492
21
-114.784
0
LINE
8
BLACK
6
CONTINUOUS
10
81.6492
20
-114.784
11
81.65
21
-114.772
0
LINE
8
BLACK
6
CONTINUOUS
10
81.65
20
-114.772
11
81.6739
21
-114.724
0
LINE
8
BLACK
6
CONTINUOUS
10
81.6739
20
-114.724
11
81.6858
21
-114.714
0
LINE
8
BLACK
6
CONTINUOUS
10
81.6858
20
-114.714
11
81.6962
21
-114.702
0
LINE
8
BLACK
6
CONTINUOUS
10
81.6962
20
-114.702
11
81.7438
21
-114.678
0
LINE
8
BLACK
6
CONTINUOUS
10
81.7438
20
-114.678
11
81.7554
21
-114.677
0
LINE
8
BLACK
6
CONTINUOUS
10
81.7554
20
-114.677
11
81.7662
21
-114.673
0
LINE
8
BLACK
6
CONTINUOUS
10
81.7662
20
-114.673
11
81.8614
21
-114.673
0
LINE
8
BLACK
6
CONTINUOUS
10
81.8614
20
-114.673
11
81.8722
21
-114.677
0
LINE
8
BLACK
6
CONTINUOUS
10
81.778
20
-114.773
11
81.7558
21
-114.784
0
LINE
8
BLACK
6
CONTINUOUS
10
81.7558
20
-114.784
11
81.7471
21
-114.801
0
LINE
8
BLACK
6
CONTINUOUS
10
81.7471
20
-114.801
11
81.8829
21
-114.829
0
LINE
8
BLACK
6
CONTINUOUS
10
81.8829
20
-114.829
11
81.8829
21
-114.806
0
LINE
8
BLACK
6
CONTINUOUS
10
81.8829
20
-114.806
11
81.8718
21
-114.784
0
LINE
8
BLACK
6
CONTINUOUS
10
81.8718
20
-114.784
11
81.8496
21
-114.773
0
LINE
8
BLACK
6
CONTINUOUS
10
81.8496
20
-114.773
11
81.778
21
-114.773
0
LINE
8
BLACK
6
CONTINUOUS
10
82.2824
20
-115.103
11
82.2742
21
-115.104
0
LINE
8
BLACK
6
CONTINUOUS
10
82.2742
20
-115.104
11
82.2028
21
-115.08
0
LINE
8
BLACK
6
CONTINUOUS
10
82.2028
20
-115.08
11
82.194
21
-115.072
0
LINE
8
BLACK
6
CONTINUOUS
10
82.194
20
-115.072
11
82.1832
21
-115.068
0
LINE
8
BLACK
6
CONTINUOUS
10
82.1832
20
-115.068
11
82.1356
21
-115.02
0
LINE
8
BLACK
6
CONTINUOUS
10
82.1356
20
-115.02
11
82.1324
21
-115.013
0
LINE
8
BLACK
6
CONTINUOUS
10
82.1324
20
-115.013
11
82.1262
21
-115.007
0
LINE
8
BLACK
6
CONTINUOUS
10
82.1262
20
-115.007
11
82.1024
21
-114.96
0
LINE
8
BLACK
6
CONTINUOUS
10
82.1024
20
-114.96
11
82.102
21
-114.954
0
LINE
8
BLACK
6
CONTINUOUS
10
82.102
20
-114.954
11
82.0986
21
-114.949
0
LINE
8
BLACK
6
CONTINUOUS
10
82.0986
20
-114.949
11
82.0748
21
-114.854
0
LINE
8
BLACK
6
CONTINUOUS
10
82.0748
20
-114.854
11
82.0758
21
-114.848
0
LINE
8
BLACK
6
CONTINUOUS
10
82.0758
20
-114.848
11
82.0733
21
-114.842
0
LINE
8
BLACK
6
CONTINUOUS
10
82.0733
20
-114.842
11
82.0733
21
-114.77
0
LINE
8
BLACK
6
CONTINUOUS
10
82.0733
20
-114.77
11
82.0758
21
-114.765
0
LINE
8
BLACK
6
CONTINUOUS
10
82.0758
20
-114.765
11
82.0748
21
-114.758
0
LINE
8
BLACK
6
CONTINUOUS
10
82.0748
20
-114.758
11
82.0986
21
-114.663
0
LINE
8
BLACK
6
CONTINUOUS
10
82.0986
20
-114.663
11
82.102
21
-114.659
0
LINE
8
BLACK
6
CONTINUOUS
10
82.102
20
-114.659
11
82.1024
21
-114.653
0
LINE
8
BLACK
6
CONTINUOUS
10
82.1024
20
-114.653
11
82.1262
21
-114.605
0
LINE
8
BLACK
6
CONTINUOUS
10
82.1262
20
-114.605
11
82.1324
21
-114.6
0
LINE
8
BLACK
6
CONTINUOUS
10
82.1324
20
-114.6
11
82.1356
21
-114.592
0
LINE
8
BLACK
6
CONTINUOUS
10
82.1356
20
-114.592
11
82.1832
21
-114.545
0
LINE
8
BLACK
6
CONTINUOUS
10
82.1832
20
-114.545
11
82.194
21
-114.54
0
LINE
8
BLACK
6
CONTINUOUS
10
82.194
20
-114.54
11
82.2028
21
-114.533
0
LINE
8
BLACK
6
CONTINUOUS
10
82.2028
20
-114.533
11
82.2742
21
-114.509
0
LINE
8
BLACK
6
CONTINUOUS
10
82.2742
20
-114.509
11
82.2824
21
-114.509
0
LINE
8
BLACK
6
CONTINUOUS
10
82.2824
20
-114.509
11
82.29
21
-114.506
0
LINE
8
BLACK
6
CONTINUOUS
10
82.29
20
-114.506
11
82.409
21
-114.506
0
LINE
8
BLACK
6
CONTINUOUS
10
82.409
20
-114.506
11
82.4444
21
-114.521
0
LINE
8
BLACK
6
CONTINUOUS
10
82.4444
20
-114.521
11
82.459
21
-114.556
0
LINE
8
BLACK
6
CONTINUOUS
10
82.459
20
-114.556
11
82.459
21
-115.056
0
LINE
8
BLACK
6
CONTINUOUS
10
82.459
20
-115.056
11
82.4444
21
-115.092
0
LINE
8
BLACK
6
CONTINUOUS
10
82.4444
20
-115.092
11
82.409
21
-115.106
0
LINE
8
BLACK
6
CONTINUOUS
10
82.409
20
-115.106
11
82.29
21
-115.106
0
LINE
8
BLACK
6
CONTINUOUS
10
82.29
20
-115.106
11
82.2824
21
-115.103
0
LINE
8
BLACK
6
CONTINUOUS
10
82.2981
20
-114.606
11
82.2456
21
-114.624
0
LINE
8
BLACK
6
CONTINUOUS
10
82.2456
20
-114.624
11
82.212
21
-114.657
0
LINE
8
BLACK
6
CONTINUOUS
10
82.212
20
-114.657
11
82.1943
21
-114.693
0
LINE
8
BLACK
6
CONTINUOUS
10
82.1943
20
-114.693
11
82.1733
21
-114.777
0
LINE
8
BLACK
6
CONTINUOUS
10
82.1733
20
-114.777
11
82.1733
21
-114.836
0
LINE
8
BLACK
6
CONTINUOUS
10
82.1733
20
-114.836
11
82.1943
21
-114.92
0
LINE
8
BLACK
6
CONTINUOUS
10
82.1943
20
-114.92
11
82.212
21
-114.955
0
LINE
8
BLACK
6
CONTINUOUS
10
82.212
20
-114.955
11
82.2456
21
-114.989
0
LINE
8
BLACK
6
CONTINUOUS
10
82.2456
20
-114.989
11
82.2981
21
-115.006
0
LINE
8
BLACK
6
CONTINUOUS
10
82.2981
20
-115.006
11
82.359
21
-115.006
0
LINE
8
BLACK
6
CONTINUOUS
10
82.359
20
-115.006
11
82.359
21
-114.606
0
LINE
8
BLACK
6
CONTINUOUS
10
82.359
20
-114.606
11
82.2981
21
-114.606
0
LINE
8
BLACK
6
CONTINUOUS
10
77.9674
20
-114.511
11
77.979
21
-114.511
0
LINE
8
BLACK
6
CONTINUOUS
10
77.979
20
-114.511
11
78.0266
21
-114.535
0
LINE
8
BLACK
6
CONTINUOUS
10
78.0266
20
-114.535
11
78.037
21
-114.547
0
LINE
8
BLACK
6
CONTINUOUS
10
78.037
20
-114.547
11
78.049
21
-114.558
0
LINE
8
BLACK
6
CONTINUOUS
10
78.049
20
-114.558
11
78.0728
21
-114.605
0
LINE
8
BLACK
6
CONTINUOUS
10
78.0728
20
-114.605
11
78.0736
21
-114.617
0
LINE
8
BLACK
6
CONTINUOUS
10
78.0736
20
-114.617
11
78.0781
21
-114.628
0
LINE
8
BLACK
6
CONTINUOUS
10
78.0781
20
-114.628
11
78.0781
21
-114.673
0
LINE
8
BLACK
6
CONTINUOUS
10
78.0781
20
-114.673
11
78.0995
21
-114.673
0
LINE
8
BLACK
6
CONTINUOUS
10
78.0995
20
-114.673
11
78.1349
21
-114.688
0
LINE
8
BLACK
6
CONTINUOUS
10
78.1349
20
-114.688
11
78.1471
21
-114.717
0
LINE
8
BLACK
6
CONTINUOUS
10
78.1471
20
-114.717
11
78.1594
21
-114.688
0
LINE
8
BLACK
6
CONTINUOUS
10
78.1594
20
-114.688
11
78.1948
21
-114.673
0
LINE
8
BLACK
6
CONTINUOUS
10
78.1948
20
-114.673
11
78.2424
21
-114.673
0
LINE
8
BLACK
6
CONTINUOUS
10
78.2424
20
-114.673
11
78.2531
21
-114.677
0
LINE
8
BLACK
6
CONTINUOUS
10
78.2531
20
-114.677
11
78.2647
21
-114.678
0
LINE
8
BLACK
6
CONTINUOUS
10
78.2647
20
-114.678
11
78.299
21
-114.695
0
LINE
8
BLACK
6
CONTINUOUS
10
78.299
20
-114.695
11
78.3023
21
-114.688
0
LINE
8
BLACK
6
CONTINUOUS
10
78.3023
20
-114.688
11
78.3376
21
-114.673
0
LINE
8
BLACK
6
CONTINUOUS
10
78.3376
20
-114.673
11
78.373
21
-114.688
0
LINE
8
BLACK
6
CONTINUOUS
10
78.373
20
-114.688
11
78.3876
21
-114.723
0
LINE
8
BLACK
6
CONTINUOUS
10
78.3876
20
-114.723
11
78.3876
21
-115.056
0
LINE
8
BLACK
6
CONTINUOUS
10
78.3876
20
-115.056
11
78.373
21
-115.092
0
LINE
8
BLACK
6
CONTINUOUS
10
78.373
20
-115.092
11
78.3376
21
-115.106
0
LINE
8
BLACK
6
CONTINUOUS
10
78.3376
20
-115.106
11
78.3023
21
-115.092
0
LINE
8
BLACK
6
CONTINUOUS
10
78.3023
20
-115.092
11
78.2876
21
-115.056
0
LINE
8
BLACK
6
CONTINUOUS
10
78.2876
20
-115.056
11
78.2876
21
-114.83
0
LINE
8
BLACK
6
CONTINUOUS
10
78.2876
20
-114.83
11
78.2727
21
-114.8
0
LINE
8
BLACK
6
CONTINUOUS
10
78.2727
20
-114.8
11
78.2604
21
-114.788
0
LINE
8
BLACK
6
CONTINUOUS
10
78.2604
20
-114.788
11
78.2306
21
-114.773
0
LINE
8
BLACK
6
CONTINUOUS
10
78.2306
20
-114.773
11
78.1948
21
-114.773
0
LINE
8
BLACK
6
CONTINUOUS
10
78.1948
20
-114.773
11
78.1594
21
-114.758
0
LINE
8
BLACK
6
CONTINUOUS
10
78.1594
20
-114.758
11
78.1471
21
-114.729
0
LINE
8
BLACK
6
CONTINUOUS
10
78.1471
20
-114.729
11
78.1349
21
-114.758
0
LINE
8
BLACK
6
CONTINUOUS
10
78.1349
20
-114.758
11
78.0995
21
-114.773
0
LINE
8
BLACK
6
CONTINUOUS
10
78.0995
20
-114.773
11
78.0781
21
-114.773
0
LINE
8
BLACK
6
CONTINUOUS
10
78.0781
20
-114.773
11
78.0781
21
-115.056
0
LINE
8
BLACK
6
CONTINUOUS
10
78.0781
20
-115.056
11
78.0635
21
-115.092
0
LINE
8
BLACK
6
CONTINUOUS
10
78.0635
20
-115.092
11
78.0281
21
-115.106
0
LINE
8
BLACK
6
CONTINUOUS
10
78.0281
20
-115.106
11
77.9927
21
-115.092
0
LINE
8
BLACK
6
CONTINUOUS
10
77.9927
20
-115.092
11
77.9781
21
-115.056
0
LINE
8
BLACK
6
CONTINUOUS
10
77.9781
20
-115.056
11
77.9781
21
-114.773
0
LINE
8
BLACK
6
CONTINUOUS
10
77.9781
20
-114.773
11
77.909
21
-114.773
0
LINE
8
BLACK
6
CONTINUOUS
10
77.909
20
-114.773
11
77.8737
21
-114.758
0
LINE
8
BLACK
6
CONTINUOUS
10
77.8737
20
-114.758
11
77.859
21
-114.723
0
LINE
8
BLACK
6
CONTINUOUS
10
77.859
20
-114.723
11
77.8737
21
-114.688
0
LINE
8
BLACK
6
CONTINUOUS
10
77.8737
20
-114.688
11
77.909
21
-114.673
0
LINE
8
BLACK
6
CONTINUOUS
10
77.909
20
-114.673
11
77.9781
21
-114.673
0
LINE
8
BLACK
6
CONTINUOUS
10
77.9781
20
-114.673
11
77.9781
21
-114.639
0
LINE
8
BLACK
6
CONTINUOUS
10
77.9781
20
-114.639
11
77.967
21
-114.617
0
LINE
8
BLACK
6
CONTINUOUS
10
77.967
20
-114.617
11
77.9449
21
-114.606
0
LINE
8
BLACK
6
CONTINUOUS
10
77.9449
20
-114.606
11
77.909
21
-114.606
0
LINE
8
BLACK
6
CONTINUOUS
10
77.909
20
-114.606
11
77.8737
21
-114.592
0
LINE
8
BLACK
6
CONTINUOUS
10
77.8737
20
-114.592
11
77.859
21
-114.556
0
LINE
8
BLACK
6
CONTINUOUS
10
77.859
20
-114.556
11
77.8737
21
-114.521
0
LINE
8
BLACK
6
CONTINUOUS
10
77.8737
20
-114.521
11
77.909
21
-114.506
0
LINE
8
BLACK
6
CONTINUOUS
10
77.909
20
-114.506
11
77.9567
21
-114.506
0
LINE
8
BLACK
6
CONTINUOUS
10
77.9567
20
-114.506
11
77.9674
21
-114.511
0
LINE
8
BLACK
6
CONTINUOUS
10
78.7293
20
-114.677
11
78.7409
21
-114.678
0
LINE
8
BLACK
6
CONTINUOUS
10
78.7409
20
-114.678
11
78.7886
21
-114.702
0
LINE
8
BLACK
6
CONTINUOUS
10
78.7886
20
-114.702
11
78.7989
21
-114.714
0
LINE
8
BLACK
6
CONTINUOUS
10
78.7989
20
-114.714
11
78.8109
21
-114.724
0
LINE
8
BLACK
6
CONTINUOUS
10
78.8109
20
-114.724
11
78.8347
21
-114.772
0
LINE
8
BLACK
6
CONTINUOUS
10
78.8347
20
-114.772
11
78.8355
21
-114.784
0
LINE
8
BLACK
6
CONTINUOUS
10
78.8355
20
-114.784
11
78.84
21
-114.794
0
LINE
8
BLACK
6
CONTINUOUS
10
78.84
20
-114.794
11
78.84
21
-114.985
0
LINE
8
BLACK
6
CONTINUOUS
10
78.84
20
-114.985
11
78.8355
21
-114.996
0
LINE
8
BLACK
6
CONTINUOUS
10
78.8355
20
-114.996
11
78.8347
21
-115.007
0
LINE
8
BLACK
6
CONTINUOUS
10
78.8347
20
-115.007
11
78.8109
21
-115.055
0
LINE
8
BLACK
6
CONTINUOUS
10
78.8109
20
-115.055
11
78.7989
21
-115.065
0
LINE
8
BLACK
6
CONTINUOUS
10
78.7989
20
-115.065
11
78.7886
21
-115.077
0
LINE
8
BLACK
6
CONTINUOUS
10
78.7886
20
-115.077
11
78.7409
21
-115.101
0
LINE
8
BLACK
6
CONTINUOUS
10
78.7409
20
-115.101
11
78.7293
21
-115.102
0
LINE
8
BLACK
6
CONTINUOUS
10
78.7293
20
-115.102
11
78.7186
21
-115.106
0
LINE
8
BLACK
6
CONTINUOUS
10
78.7186
20
-115.106
11
78.6233
21
-115.106
0
LINE
8
BLACK
6
CONTINUOUS
10
78.6233
20
-115.106
11
78.6126
21
-115.102
0
LINE
8
BLACK
6
CONTINUOUS
10
78.6126
20
-115.102
11
78.601
21
-115.101
0
LINE
8
BLACK
6
CONTINUOUS
10
78.601
20
-115.101
11
78.5534
21
-115.077
0
LINE
8
BLACK
6
CONTINUOUS
10
78.5534
20
-115.077
11
78.5283
21
-115.048
0
LINE
8
BLACK
6
CONTINUOUS
10
78.5283
20
-115.048
11
78.531
21
-115.01
0
LINE
8
BLACK
6
CONTINUOUS
10
78.531
20
-115.01
11
78.5599
21
-114.985
0
LINE
8
BLACK
6
CONTINUOUS
10
78.5599
20
-114.985
11
78.5981
21
-114.988
0
LINE
8
BLACK
6
CONTINUOUS
10
78.5981
20
-114.988
11
78.6351
21
-115.006
0
LINE
8
BLACK
6
CONTINUOUS
10
78.6351
20
-115.006
11
78.7068
21
-115.006
0
LINE
8
BLACK
6
CONTINUOUS
10
78.7068
20
-115.006
11
78.7289
21
-114.995
0
LINE
8
BLACK
6
CONTINUOUS
10
78.7289
20
-114.995
11
78.74
21
-114.973
0
LINE
8
BLACK
6
CONTINUOUS
10
78.74
20
-114.973
11
78.74
21
-114.931
0
LINE
8
BLACK
6
CONTINUOUS
10
78.74
20
-114.931
11
78.5421
21
-114.891
0
LINE
8
BLACK
6
CONTINUOUS
10
78.5421
20
-114.891
11
78.53
21
-114.883
0
LINE
8
BLACK
6
CONTINUOUS
10
78.53
20
-114.883
11
78.5165
21
-114.877
0
LINE
8
BLACK
6
CONTINUOUS
10
78.5165
20
-114.877
11
78.5146
21
-114.873
0
LINE
8
BLACK
6
CONTINUOUS
10
78.5146
20
-114.873
11
78.5103
21
-114.87
0
LINE
8
BLACK
6
CONTINUOUS
10
78.5103
20
-114.87
11
78.5075
21
-114.855
0
LINE
8
BLACK
6
CONTINUOUS
10
78.5075
20
-114.855
11
78.5019
21
-114.842
0
LINE
8
BLACK
6
CONTINUOUS
10
78.5019
20
-114.842
11
78.5019
21
-114.794
0
LINE
8
BLACK
6
CONTINUOUS
10
78.5019
20
-114.794
11
78.5064
21
-114.784
0
LINE
8
BLACK
6
CONTINUOUS
10
78.5064
20
-114.784
11
78.5072
21
-114.772
0
LINE
8
BLACK
6
CONTINUOUS
10
78.5072
20
-114.772
11
78.531
21
-114.724
0
LINE
8
BLACK
6
CONTINUOUS
10
78.531
20
-114.724
11
78.543
21
-114.714
0
LINE
8
BLACK
6
CONTINUOUS
10
78.543
20
-114.714
11
78.5534
21
-114.702
0
LINE
8
BLACK
6
CONTINUOUS
10
78.5534
20
-114.702
11
78.601
21
-114.678
0
LINE
8
BLACK
6
CONTINUOUS
10
78.601
20
-114.678
11
78.6126
21
-114.677
0
LINE
8
BLACK
6
CONTINUOUS
10
78.6126
20
-114.677
11
78.6233
21
-114.673
0
LINE
8
BLACK
6
CONTINUOUS
10
78.6233
20
-114.673
11
78.7186
21
-114.673
0
LINE
8
BLACK
6
CONTINUOUS
10
78.7186
20
-114.673
11
78.7293
21
-114.677
0
LINE
8
BLACK
6
CONTINUOUS
10
78.6351
20
-114.773
11
78.613
21
-114.784
0
LINE
8
BLACK
6
CONTINUOUS
10
78.613
20
-114.784
11
78.6043
21
-114.801
0
LINE
8
BLACK
6
CONTINUOUS
10
78.6043
20
-114.801
11
78.74
21
-114.829
0
LINE
8
BLACK
6
CONTINUOUS
10
78.74
20
-114.829
11
78.74
21
-114.806
0
LINE
8
BLACK
6
CONTINUOUS
10
78.74
20
-114.806
11
78.7289
21
-114.784
0
LINE
8
BLACK
6
CONTINUOUS
10
78.7289
20
-114.784
11
78.7068
21
-114.773
0
LINE
8
BLACK
6
CONTINUOUS
10
78.7068
20
-114.773
11
78.6351
21
-114.773
0
LINE
8
BLACK
6
CONTINUOUS
10
81.5158
20
-114.521
11
81.5305
21
-114.556
0
LINE
8
BLACK
6
CONTINUOUS
10
81.5305
20
-114.556
11
81.5305
21
-115.056
0
LINE
8
BLACK
6
CONTINUOUS
10
81.5305
20
-115.056
11
81.5158
21
-115.092
0
LINE
8
BLACK
6
CONTINUOUS
10
81.5158
20
-115.092
11
81.4805
21
-115.106
0
LINE
8
BLACK
6
CONTINUOUS
10
81.4805
20
-115.106
11
81.4609
21
-115.098
0
LINE
8
BLACK
6
CONTINUOUS
10
81.4609
20
-115.098
11
81.4552
21
-115.101
0
LINE
8
BLACK
6
CONTINUOUS
10
81.4552
20
-115.101
11
81.4436
21
-115.102
0
LINE
8
BLACK
6
CONTINUOUS
10
81.4436
20
-115.102
11
81.4329
21
-115.106
0
LINE
8
BLACK
6
CONTINUOUS
10
81.4329
20
-115.106
11
81.3376
21
-115.106
0
LINE
8
BLACK
6
CONTINUOUS
10
81.3376
20
-115.106
11
81.3269
21
-115.102
0
LINE
8
BLACK
6
CONTINUOUS
10
81.3269
20
-115.102
11
81.3153
21
-115.101
0
LINE
8
BLACK
6
CONTINUOUS
10
81.3153
20
-115.101
11
81.2676
21
-115.077
0
LINE
8
BLACK
6
CONTINUOUS
10
81.2676
20
-115.077
11
81.2622
21
-115.071
0
LINE
8
BLACK
6
CONTINUOUS
10
81.2622
20
-115.071
11
81.2546
21
-115.068
0
LINE
8
BLACK
6
CONTINUOUS
10
81.2546
20
-115.068
11
81.2308
21
-115.044
0
LINE
8
BLACK
6
CONTINUOUS
10
81.2308
20
-115.044
11
81.2277
21
-115.036
0
LINE
8
BLACK
6
CONTINUOUS
10
81.2277
20
-115.036
11
81.2215
21
-115.031
0
LINE
8
BLACK
6
CONTINUOUS
10
81.2215
20
-115.031
11
81.1977
21
-114.983
0
LINE
8
BLACK
6
CONTINUOUS
10
81.1977
20
-114.983
11
81.1968
21
-114.972
0
LINE
8
BLACK
6
CONTINUOUS
10
81.1968
20
-114.972
11
81.1924
21
-114.961
0
LINE
8
BLACK
6
CONTINUOUS
10
81.1924
20
-114.961
11
81.1924
21
-114.818
0
LINE
8
BLACK
6
CONTINUOUS
10
81.1924
20
-114.818
11
81.1968
21
-114.807
0
LINE
8
BLACK
6
CONTINUOUS
10
81.1968
20
-114.807
11
81.1977
21
-114.796
0
LINE
8
BLACK
6
CONTINUOUS
10
81.1977
20
-114.796
11
81.2215
21
-114.748
0
LINE
8
BLACK
6
CONTINUOUS
10
81.2215
20
-114.748
11
81.2277
21
-114.743
0
LINE
8
BLACK
6
CONTINUOUS
10
81.2277
20
-114.743
11
81.2308
21
-114.735
0
LINE
8
BLACK
6
CONTINUOUS
10
81.2308
20
-114.735
11
81.2546
21
-114.711
0
LINE
8
BLACK
6
CONTINUOUS
10
81.2546
20
-114.711
11
81.2622
21
-114.708
0
LINE
8
BLACK
6
CONTINUOUS
10
81.2622
20
-114.708
11
81.2676
21
-114.702
0
LINE
8
BLACK
6
CONTINUOUS
10
81.2676
20
-114.702
11
81.3153
21
-114.678
0
LINE
8
BLACK
6
CONTINUOUS
10
81.3153
20
-114.678
11
81.3269
21
-114.677
0
LINE
8
BLACK
6
CONTINUOUS
10
81.3269
20
-114.677
11
81.3376
21
-114.673
0
LINE
8
BLACK
6
CONTINUOUS
10
81.3376
20
-114.673
11
81.4305
21
-114.673
0
LINE
8
BLACK
6
CONTINUOUS
10
81.4305
20
-114.673
11
81.4305
21
-114.556
0
LINE
8
BLACK
6
CONTINUOUS
10
81.4305
20
-114.556
11
81.4451
21
-114.521
0
LINE
8
BLACK
6
CONTINUOUS
10
81.4451
20
-114.521
11
81.4805
21
-114.506
0
LINE
8
BLACK
6
CONTINUOUS
10
81.4805
20
-114.506
11
81.5158
21
-114.521
0
LINE
8
BLACK
6
CONTINUOUS
10
81.3494
20
-114.773
11
81.3196
21
-114.788
0
LINE
8
BLACK
6
CONTINUOUS
10
81.3196
20
-114.788
11
81.3073
21
-114.8
0
LINE
8
BLACK
6
CONTINUOUS
10
81.3073
20
-114.8
11
81.2924
21
-114.83
0
LINE
8
BLACK
6
CONTINUOUS
10
81.2924
20
-114.83
11
81.2924
21
-114.949
0
LINE
8
BLACK
6
CONTINUOUS
10
81.2924
20
-114.949
11
81.3073
21
-114.979
0
LINE
8
BLACK
6
CONTINUOUS
10
81.3073
20
-114.979
11
81.3196
21
-114.991
0
LINE
8
BLACK
6
CONTINUOUS
10
81.3196
20
-114.991
11
81.3494
21
-115.006
0
LINE
8
BLACK
6
CONTINUOUS
10
81.3494
20
-115.006
11
81.4211
21
-115.006
0
LINE
8
BLACK
6
CONTINUOUS
10
81.4211
20
-115.006
11
81.4305
21
-115.001
0
LINE
8
BLACK
6
CONTINUOUS
10
81.4305
20
-115.001
11
81.4305
21
-114.778
0
LINE
8
BLACK
6
CONTINUOUS
10
81.4305
20
-114.778
11
81.4211
21
-114.773
0
LINE
8
BLACK
6
CONTINUOUS
10
81.4211
20
-114.773
11
81.3494
21
-114.773
0
LINE
8
BLACK
6
CONTINUOUS
10
79.0873
20
-114.521
11
79.1019
21
-114.556
0
LINE
8
BLACK
6
CONTINUOUS
10
79.1019
20
-114.556
11
79.1019
21
-114.673
0
LINE
8
BLACK
6
CONTINUOUS
10
79.1019
20
-114.673
11
79.1233
21
-114.673
0
LINE
8
BLACK
6
CONTINUOUS
10
79.1233
20
-114.673
11
79.1587
21
-114.688
0
LINE
8
BLACK
6
CONTINUOUS
10
79.1587
20
-114.688
11
79.1733
21
-114.723
0
LINE
8
BLACK
6
CONTINUOUS
10
79.1733
20
-114.723
11
79.1587
21
-114.758
0
LINE
8
BLACK
6
CONTINUOUS
10
79.1587
20
-114.758
11
79.1233
21
-114.773
0
LINE
8
BLACK
6
CONTINUOUS
10
79.1233
20
-114.773
11
79.1019
21
-114.773
0
LINE
8
BLACK
6
CONTINUOUS
10
79.1019
20
-114.773
11
79.1019
21
-114.985
0
LINE
8
BLACK
6
CONTINUOUS
10
79.1019
20
-114.985
11
79.0974
21
-114.996
0
LINE
8
BLACK
6
CONTINUOUS
10
79.0974
20
-114.996
11
79.0966
21
-115.007
0
LINE
8
BLACK
6
CONTINUOUS
10
79.0966
20
-115.007
11
79.0728
21
-115.055
0
LINE
8
BLACK
6
CONTINUOUS
10
79.0728
20
-115.055
11
79.0608
21
-115.065
0
LINE
8
BLACK
6
CONTINUOUS
10
79.0608
20
-115.065
11
79.0505
21
-115.077
0
LINE
8
BLACK
6
CONTINUOUS
10
79.0505
20
-115.077
11
79.0028
21
-115.101
0
LINE
8
BLACK
6
CONTINUOUS
10
79.0028
20
-115.101
11
78.9912
21
-115.102
0
LINE
8
BLACK
6
CONTINUOUS
10
78.9912
20
-115.102
11
78.9805
21
-115.106
0
LINE
8
BLACK
6
CONTINUOUS
10
78.9805
20
-115.106
11
78.9329
21
-115.106
0
LINE
8
BLACK
6
CONTINUOUS
10
78.9329
20
-115.106
11
78.8975
21
-115.092
0
LINE
8
BLACK
6
CONTINUOUS
10
78.8975
20
-115.092
11
78.8829
21
-115.056
0
LINE
8
BLACK
6
CONTINUOUS
10
78.8829
20
-115.056
11
78.8975
21
-115.021
0
LINE
8
BLACK
6
CONTINUOUS
10
78.8975
20
-115.021
11
78.9329
21
-115.006
0
LINE
8
BLACK
6
CONTINUOUS
10
78.9329
20
-115.006
11
78.9687
21
-115.006
0
LINE
8
BLACK
6
CONTINUOUS
10
78.9687
20
-115.006
11
78.9908
21
-114.995
0
LINE
8
BLACK
6
CONTINUOUS
10
78.9908
20
-114.995
11
79.0019
21
-114.973
0
LINE
8
BLACK
6
CONTINUOUS
10
79.0019
20
-114.973
11
79.0019
21
-114.773
0
LINE
8
BLACK
6
CONTINUOUS
10
79.0019
20
-114.773
11
78.9329
21
-114.773
0
LINE
8
BLACK
6
CONTINUOUS
10
78.9329
20
-114.773
11
78.8975
21
-114.758
0
LINE
8
BLACK
6
CONTINUOUS
10
78.8975
20
-114.758
11
78.8829
21
-114.723
0
LINE
8
BLACK
6
CONTINUOUS
10
78.8829
20
-114.723
11
78.8975
21
-114.688
0
LINE
8
BLACK
6
CONTINUOUS
10
78.8975
20
-114.688
11
78.9329
21
-114.673
0
LINE
8
BLACK
6
CONTINUOUS
10
78.9329
20
-114.673
11
79.0019
21
-114.673
0
LINE
8
BLACK
6
CONTINUOUS
10
79.0019
20
-114.673
11
79.0019
21
-114.556
0
LINE
8
BLACK
6
CONTINUOUS
10
79.0019
20
-114.556
11
79.0165
21
-114.521
0
LINE
8
BLACK
6
CONTINUOUS
10
79.0165
20
-114.521
11
79.0519
21
-114.506
0
LINE
8
BLACK
6
CONTINUOUS
10
79.0519
20
-114.506
11
79.0873
21
-114.521
0
LINE
8
BLACK
6
CONTINUOUS
10
77.2293
20
-114.677
11
77.2409
21
-114.678
0
LINE
8
BLACK
6
CONTINUOUS
10
77.2409
20
-114.678
11
77.2886
21
-114.702
0
LINE
8
BLACK
6
CONTINUOUS
10
77.2886
20
-114.702
11
77.2939
21
-114.708
0
LINE
8
BLACK
6
CONTINUOUS
10
77.2939
20
-114.708
11
77.3015
21
-114.711
0
LINE
8
BLACK
6
CONTINUOUS
10
77.3015
20
-114.711
11
77.3254
21
-114.735
0
LINE
8
BLACK
6
CONTINUOUS
10
77.3254
20
-114.735
11
77.3285
21
-114.743
0
LINE
8
BLACK
6
CONTINUOUS
10
77.3285
20
-114.743
11
77.3347
21
-114.748
0
LINE
8
BLACK
6
CONTINUOUS
10
77.3347
20
-114.748
11
77.3585
21
-114.796
0
LINE
8
BLACK
6
CONTINUOUS
10
77.3585
20
-114.796
11
77.3594
21
-114.807
0
LINE
8
BLACK
6
CONTINUOUS
10
77.3594
20
-114.807
11
77.3638
21
-114.818
0
LINE
8
BLACK
6
CONTINUOUS
10
77.3638
20
-114.818
11
77.3638
21
-114.961
0
LINE
8
BLACK
6
CONTINUOUS
10
77.3638
20
-114.961
11
77.3594
21
-114.972
0
LINE
8
BLACK
6
CONTINUOUS
10
77.3594
20
-114.972
11
77.3585
21
-114.983
0
LINE
8
BLACK
6
CONTINUOUS
10
77.3585
20
-114.983
11
77.3347
21
-115.031
0
LINE
8
BLACK
6
CONTINUOUS
10
77.3347
20
-115.031
11
77.3285
21
-115.036
0
LINE
8
BLACK
6
CONTINUOUS
10
77.3285
20
-115.036
11
77.3254
21
-115.044
0
LINE
8
BLACK
6
CONTINUOUS
10
77.3254
20
-115.044
11
77.3015
21
-115.068
0
LINE
8
BLACK
6
CONTINUOUS
10
77.3015
20
-115.068
11
77.2939
21
-115.071
0
LINE
8
BLACK
6
CONTINUOUS
10
77.2939
20
-115.071
11
77.2886
21
-115.077
0
LINE
8
BLACK
6
CONTINUOUS
10
77.2886
20
-115.077
11
77.2409
21
-115.101
0
LINE
8
BLACK
6
CONTINUOUS
10
77.2409
20
-115.101
11
77.2293
21
-115.102
0
LINE
8
BLACK
6
CONTINUOUS
10
77.2293
20
-115.102
11
77.2186
21
-115.106
0
LINE
8
BLACK
6
CONTINUOUS
10
77.2186
20
-115.106
11
77.1233
21
-115.106
0
LINE
8
BLACK
6
CONTINUOUS
10
77.1233
20
-115.106
11
77.1126
21
-115.102
0
LINE
8
BLACK
6
CONTINUOUS
10
77.1126
20
-115.102
11
77.101
21
-115.101
0
LINE
8
BLACK
6
CONTINUOUS
10
77.101
20
-115.101
11
77.0534
21
-115.077
0
LINE
8
BLACK
6
CONTINUOUS
10
77.0534
20
-115.077
11
77.0283
21
-115.048
0
LINE
8
BLACK
6
CONTINUOUS
10
77.0283
20
-115.048
11
77.031
21
-115.01
0
LINE
8
BLACK
6
CONTINUOUS
10
77.031
20
-115.01
11
77.0599
21
-114.985
0
LINE
8
BLACK
6
CONTINUOUS
10
77.0599
20
-114.985
11
77.0981
21
-114.988
0
LINE
8
BLACK
6
CONTINUOUS
10
77.0981
20
-114.988
11
77.1351
21
-115.006
0
LINE
8
BLACK
6
CONTINUOUS
10
77.1351
20
-115.006
11
77.2068
21
-115.006
0
LINE
8
BLACK
6
CONTINUOUS
10
77.2068
20
-115.006
11
77.2366
21
-114.991
0
LINE
8
BLACK
6
CONTINUOUS
10
77.2366
20
-114.991
11
77.2489
21
-114.979
0
LINE
8
BLACK
6
CONTINUOUS
10
77.2489
20
-114.979
11
77.2638
21
-114.949
0
LINE
8
BLACK
6
CONTINUOUS
10
77.2638
20
-114.949
11
77.2638
21
-114.83
0
LINE
8
BLACK
6
CONTINUOUS
10
77.2638
20
-114.83
11
77.2489
21
-114.8
0
LINE
8
BLACK
6
CONTINUOUS
10
77.2489
20
-114.8
11
77.2366
21
-114.788
0
LINE
8
BLACK
6
CONTINUOUS
10
77.2366
20
-114.788
11
77.2068
21
-114.773
0
LINE
8
BLACK
6
CONTINUOUS
10
77.2068
20
-114.773
11
77.1351
21
-114.773
0
LINE
8
BLACK
6
CONTINUOUS
10
77.1351
20
-114.773
11
77.0981
21
-114.791
0
LINE
8
BLACK
6
CONTINUOUS
10
77.0981
20
-114.791
11
77.0599
21
-114.794
0
LINE
8
BLACK
6
CONTINUOUS
10
77.0599
20
-114.794
11
77.031
21
-114.769
0
LINE
8
BLACK
6
CONTINUOUS
10
77.031
20
-114.769
11
77.0283
21
-114.731
0
LINE
8
BLACK
6
CONTINUOUS
10
77.0283
20
-114.731
11
77.0534
21
-114.702
0
LINE
8
BLACK
6
CONTINUOUS
10
77.0534
20
-114.702
11
77.101
21
-114.678
0
LINE
8
BLACK
6
CONTINUOUS
10
77.101
20
-114.678
11
77.1126
21
-114.677
0
LINE
8
BLACK
6
CONTINUOUS
10
77.1126
20
-114.677
11
77.1233
21
-114.673
0
LINE
8
BLACK
6
CONTINUOUS
10
77.1233
20
-114.673
11
77.2186
21
-114.673
0
LINE
8
BLACK
6
CONTINUOUS
10
77.2186
20
-114.673
11
77.2293
21
-114.677
0
LINE
8
BLACK
6
CONTINUOUS
10
79.4436
20
-114.677
11
79.4552
21
-114.678
0
LINE
8
BLACK
6
CONTINUOUS
10
79.4552
20
-114.678
11
79.4717
21
-114.686
0
LINE
8
BLACK
6
CONTINUOUS
10
79.4717
20
-114.686
11
79.5043
21
-114.673
0
LINE
8
BLACK
6
CONTINUOUS
10
79.5043
20
-114.673
11
79.5396
21
-114.688
0
LINE
8
BLACK
6
CONTINUOUS
10
79.5396
20
-114.688
11
79.5543
21
-114.723
0
LINE
8
BLACK
6
CONTINUOUS
10
79.5543
20
-114.723
11
79.5543
21
-115.056
0
LINE
8
BLACK
6
CONTINUOUS
10
79.5543
20
-115.056
11
79.5396
21
-115.092
0
LINE
8
BLACK
6
CONTINUOUS
10
79.5396
20
-115.092
11
79.5043
21
-115.106
0
LINE
8
BLACK
6
CONTINUOUS
10
79.5043
20
-115.106
11
79.4689
21
-115.092
0
LINE
8
BLACK
6
CONTINUOUS
10
79.4689
20
-115.092
11
79.4543
21
-115.056
0
LINE
8
BLACK
6
CONTINUOUS
10
79.4543
20
-115.056
11
79.4543
21
-114.791
0
LINE
8
BLACK
6
CONTINUOUS
10
79.4543
20
-114.791
11
79.4509
21
-114.788
0
LINE
8
BLACK
6
CONTINUOUS
10
79.4509
20
-114.788
11
79.4211
21
-114.773
0
LINE
8
BLACK
6
CONTINUOUS
10
79.4211
20
-114.773
11
79.3732
21
-114.773
0
LINE
8
BLACK
6
CONTINUOUS
10
79.3732
20
-114.773
11
79.3511
21
-114.784
0
LINE
8
BLACK
6
CONTINUOUS
10
79.3511
20
-114.784
11
79.34
21
-114.806
0
LINE
8
BLACK
6
CONTINUOUS
10
79.34
20
-114.806
11
79.34
21
-115.056
0
LINE
8
BLACK
6
CONTINUOUS
10
79.34
20
-115.056
11
79.3254
21
-115.092
0
LINE
8
BLACK
6
CONTINUOUS
10
79.3254
20
-115.092
11
79.29
21
-115.106
0
LINE
8
BLACK
6
CONTINUOUS
10
79.29
20
-115.106
11
79.2546
21
-115.092
0
LINE
8
BLACK
6
CONTINUOUS
10
79.2546
20
-115.092
11
79.24
21
-115.056
0
LINE
8
BLACK
6
CONTINUOUS
10
79.24
20
-115.056
11
79.24
21
-114.794
0
LINE
8
BLACK
6
CONTINUOUS
10
79.24
20
-114.794
11
79.2445
21
-114.784
0
LINE
8
BLACK
6
CONTINUOUS
10
79.2445
20
-114.784
11
79.2453
21
-114.772
0
LINE
8
BLACK
6
CONTINUOUS
10
79.2453
20
-114.772
11
79.2691
21
-114.724
0
LINE
8
BLACK
6
CONTINUOUS
10
79.2691
20
-114.724
11
79.2811
21
-114.714
0
LINE
8
BLACK
6
CONTINUOUS
10
79.2811
20
-114.714
11
79.2914
21
-114.702
0
LINE
8
BLACK
6
CONTINUOUS
10
79.2914
20
-114.702
11
79.3391
21
-114.678
0
LINE
8
BLACK
6
CONTINUOUS
10
79.3391
20
-114.678
11
79.3507
21
-114.677
0
LINE
8
BLACK
6
CONTINUOUS
10
79.3507
20
-114.677
11
79.3614
21
-114.673
0
LINE
8
BLACK
6
CONTINUOUS
10
79.3614
20
-114.673
11
79.4329
21
-114.673
0
LINE
8
BLACK
6
CONTINUOUS
10
79.4329
20
-114.673
11
79.4436
21
-114.677
0
LINE
8
BLACK
6
CONTINUOUS
10
79.7777
20
-114.521
11
79.7924
21
-114.556
0
LINE
8
BLACK
6
CONTINUOUS
10
79.7924
20
-114.556
11
79.7924
21
-115.056
0
LINE
8
BLACK
6
CONTINUOUS
10
79.7924
20
-115.056
11
79.7777
21
-115.092
0
LINE
8
BLACK
6
CONTINUOUS
10
79.7777
20
-115.092
11
79.7424
21
-115.106
0
LINE
8
BLACK
6
CONTINUOUS
10
79.7424
20
-115.106
11
79.707
21
-115.092
0
LINE
8
BLACK
6
CONTINUOUS
10
79.707
20
-115.092
11
79.6924
21
-115.056
0
LINE
8
BLACK
6
CONTINUOUS
10
79.6924
20
-115.056
11
79.6924
21
-114.556
0
LINE
8
BLACK
6
CONTINUOUS
10
79.6924
20
-114.556
11
79.707
21
-114.521
0
LINE
8
BLACK
6
CONTINUOUS
10
79.707
20
-114.521
11
79.7424
21
-114.506
0
LINE
8
BLACK
6
CONTINUOUS
10
79.7424
20
-114.506
11
79.7777
21
-114.521
0
LINE
8
BLACK
6
CONTINUOUS
10
76.8246
20
-114.677
11
76.8362
21
-114.678
0
LINE
8
BLACK
6
CONTINUOUS
10
76.8362
20
-114.678
11
76.8838
21
-114.702
0
LINE
8
BLACK
6
CONTINUOUS
10
76.8838
20
-114.702
11
76.8942
21
-114.714
0
LINE
8
BLACK
6
CONTINUOUS
10
76.8942
20
-114.714
11
76.9061
21
-114.724
0
LINE
8
BLACK
6
CONTINUOUS
10
76.9061
20
-114.724
11
76.93
21
-114.772
0
LINE
8
BLACK
6
CONTINUOUS
10
76.93
20
-114.772
11
76.9308
21
-114.784
0
LINE
8
BLACK
6
CONTINUOUS
10
76.9308
20
-114.784
11
76.9352
21
-114.794
0
LINE
8
BLACK
6
CONTINUOUS
10
76.9352
20
-114.794
11
76.9352
21
-114.985
0
LINE
8
BLACK
6
CONTINUOUS
10
76.9352
20
-114.985
11
76.9308
21
-114.996
0
LINE
8
BLACK
6
CONTINUOUS
10
76.9308
20
-114.996
11
76.93
21
-115.007
0
LINE
8
BLACK
6
CONTINUOUS
10
76.93
20
-115.007
11
76.9061
21
-115.055
0
LINE
8
BLACK
6
CONTINUOUS
10
76.9061
20
-115.055
11
76.8942
21
-115.065
0
LINE
8
BLACK
6
CONTINUOUS
10
76.8942
20
-115.065
11
76.8838
21
-115.077
0
LINE
8
BLACK
6
CONTINUOUS
10
76.8838
20
-115.077
11
76.8362
21
-115.101
0
LINE
8
BLACK
6
CONTINUOUS
10
76.8362
20
-115.101
11
76.8246
21
-115.102
0
LINE
8
BLACK
6
CONTINUOUS
10
76.8246
20
-115.102
11
76.8138
21
-115.106
0
LINE
8
BLACK
6
CONTINUOUS
10
76.8138
20
-115.106
11
76.7186
21
-115.106
0
LINE
8
BLACK
6
CONTINUOUS
10
76.7186
20
-115.106
11
76.7078
21
-115.102
0
LINE
8
BLACK
6
CONTINUOUS
10
76.7078
20
-115.102
11
76.6962
21
-115.101
0
LINE
8
BLACK
6
CONTINUOUS
10
76.6962
20
-115.101
11
76.6486
21
-115.077
0
LINE
8
BLACK
6
CONTINUOUS
10
76.6486
20
-115.077
11
76.6235
21
-115.048
0
LINE
8
BLACK
6
CONTINUOUS
10
76.6235
20
-115.048
11
76.6262
21
-115.01
0
LINE
8
BLACK
6
CONTINUOUS
10
76.6262
20
-115.01
11
76.6551
21
-114.985
0
LINE
8
BLACK
6
CONTINUOUS
10
76.6551
20
-114.985
11
76.6933
21
-114.988
0
LINE
8
BLACK
6
CONTINUOUS
10
76.6933
20
-114.988
11
76.7304
21
-115.006
0
LINE
8
BLACK
6
CONTINUOUS
10
76.7304
20
-115.006
11
76.802
21
-115.006
0
LINE
8
BLACK
6
CONTINUOUS
10
76.802
20
-115.006
11
76.8242
21
-114.995
0
LINE
8
BLACK
6
CONTINUOUS
10
76.8242
20
-114.995
11
76.8352
21
-114.973
0
LINE
8
BLACK
6
CONTINUOUS
10
76.8352
20
-114.973
11
76.8352
21
-114.931
0
LINE
8
BLACK
6
CONTINUOUS
10
76.8352
20
-114.931
11
76.6373
21
-114.891
0
LINE
8
BLACK
6
CONTINUOUS
10
76.6373
20
-114.891
11
76.6252
21
-114.883
0
LINE
8
BLACK
6
CONTINUOUS
10
76.6252
20
-114.883
11
76.6118
21
-114.877
0
LINE
8
BLACK
6
CONTINUOUS
10
76.6118
20
-114.877
11
76.6098
21
-114.873
0
LINE
8
BLACK
6
CONTINUOUS
10
76.6098
20
-114.873
11
76.6055
21
-114.87
0
LINE
8
BLACK
6
CONTINUOUS
10
76.6055
20
-114.87
11
76.6027
21
-114.855
0
LINE
8
BLACK
6
CONTINUOUS
10
76.6027
20
-114.855
11
76.5971
21
-114.842
0
LINE
8
BLACK
6
CONTINUOUS
10
76.5971
20
-114.842
11
76.5971
21
-114.794
0
LINE
8
BLACK
6
CONTINUOUS
10
76.5971
20
-114.794
11
76.6016
21
-114.784
0
LINE
8
BLACK
6
CONTINUOUS
10
76.6016
20
-114.784
11
76.6024
21
-114.772
0
LINE
8
BLACK
6
CONTINUOUS
10
76.6024
20
-114.772
11
76.6262
21
-114.724
0
LINE
8
BLACK
6
CONTINUOUS
10
76.6262
20
-114.724
11
76.6382
21
-114.714
0
LINE
8
BLACK
6
CONTINUOUS
10
76.6382
20
-114.714
11
76.6486
21
-114.702
0
LINE
8
BLACK
6
CONTINUOUS
10
76.6486
20
-114.702
11
76.6962
21
-114.678
0
LINE
8
BLACK
6
CONTINUOUS
10
76.6962
20
-114.678
11
76.7078
21
-114.677
0
LINE
8
BLACK
6
CONTINUOUS
10
76.7078
20
-114.677
11
76.7186
21
-114.673
0
LINE
8
BLACK
6
CONTINUOUS
10
76.7186
20
-114.673
11
76.8138
21
-114.673
0
LINE
8
BLACK
6
CONTINUOUS
10
76.8138
20
-114.673
11
76.8246
21
-114.677
0
LINE
8
BLACK
6
CONTINUOUS
10
76.7304
20
-114.773
11
76.7082
21
-114.784
0
LINE
8
BLACK
6
CONTINUOUS
10
76.7082
20
-114.784
11
76.6995
21
-114.801
0
LINE
8
BLACK
6
CONTINUOUS
10
76.6995
20
-114.801
11
76.8352
21
-114.829
0
LINE
8
BLACK
6
CONTINUOUS
10
76.8352
20
-114.829
11
76.8352
21
-114.806
0
LINE
8
BLACK
6
CONTINUOUS
10
76.8352
20
-114.806
11
76.8242
21
-114.784
0
LINE
8
BLACK
6
CONTINUOUS
10
76.8242
20
-114.784
11
76.802
21
-114.773
0
LINE
8
BLACK
6
CONTINUOUS
10
76.802
20
-114.773
11
76.7304
21
-114.773
0
LINE
8
BLACK
6
CONTINUOUS
10
80.9198
20
-113.706
11
80.9314
21
-113.706
0
LINE
8
BLACK
6
CONTINUOUS
10
80.9314
20
-113.706
11
80.979
21
-113.73
0
LINE
8
BLACK
6
CONTINUOUS
10
80.979
20
-113.73
11
80.9894
21
-113.742
0
LINE
8
BLACK
6
CONTINUOUS
10
80.9894
20
-113.742
11
81.0014
21
-113.753
0
LINE
8
BLACK
6
CONTINUOUS
10
81.0014
20
-113.753
11
81.0252
21
-113.8
0
LINE
8
BLACK
6
CONTINUOUS
10
81.0252
20
-113.8
11
81.026
21
-113.812
0
LINE
8
BLACK
6
CONTINUOUS
10
81.026
20
-113.812
11
81.0305
21
-113.823
0
LINE
8
BLACK
6
CONTINUOUS
10
81.0305
20
-113.823
11
81.0305
21
-113.87
0
LINE
8
BLACK
6
CONTINUOUS
10
81.0305
20
-113.87
11
81.0273
21
-113.878
0
LINE
8
BLACK
6
CONTINUOUS
10
81.0273
20
-113.878
11
81.0279
21
-113.886
0
LINE
8
BLACK
6
CONTINUOUS
10
81.0279
20
-113.886
11
81.0054
21
-113.954
0
LINE
8
BLACK
6
CONTINUOUS
10
81.0054
20
-113.954
11
81.032
21
-113.971
0
LINE
8
BLACK
6
CONTINUOUS
10
81.032
20
-113.971
11
81.0349
21
-113.976
0
LINE
8
BLACK
6
CONTINUOUS
10
81.0349
20
-113.976
11
81.0396
21
-113.978
0
LINE
8
BLACK
6
CONTINUOUS
10
81.0396
20
-113.978
11
81.0635
21
-114.002
0
LINE
8
BLACK
6
CONTINUOUS
10
81.0635
20
-114.002
11
81.0666
21
-114.009
0
LINE
8
BLACK
6
CONTINUOUS
10
81.0666
20
-114.009
11
81.0728
21
-114.015
0
LINE
8
BLACK
6
CONTINUOUS
10
81.0728
20
-114.015
11
81.0966
21
-114.062
0
LINE
8
BLACK
6
CONTINUOUS
10
81.0966
20
-114.062
11
81.0974
21
-114.074
0
LINE
8
BLACK
6
CONTINUOUS
10
81.0974
20
-114.074
11
81.1019
21
-114.085
0
LINE
8
BLACK
6
CONTINUOUS
10
81.1019
20
-114.085
11
81.1019
21
-114.156
0
LINE
8
BLACK
6
CONTINUOUS
10
81.1019
20
-114.156
11
81.0974
21
-114.167
0
LINE
8
BLACK
6
CONTINUOUS
10
81.0974
20
-114.167
11
81.0966
21
-114.178
0
LINE
8
BLACK
6
CONTINUOUS
10
81.0966
20
-114.178
11
81.0728
21
-114.226
0
LINE
8
BLACK
6
CONTINUOUS
10
81.0728
20
-114.226
11
81.0666
21
-114.231
0
LINE
8
BLACK
6
CONTINUOUS
10
81.0666
20
-114.231
11
81.0635
21
-114.239
0
LINE
8
BLACK
6
CONTINUOUS
10
81.0635
20
-114.239
11
81.0396
21
-114.263
0
LINE
8
BLACK
6
CONTINUOUS
10
81.0396
20
-114.263
11
81.032
21
-114.266
0
LINE
8
BLACK
6
CONTINUOUS
10
81.032
20
-114.266
11
81.0266
21
-114.272
0
LINE
8
BLACK
6
CONTINUOUS
10
81.0266
20
-114.272
11
80.979
21
-114.296
0
LINE
8
BLACK
6
CONTINUOUS
10
80.979
20
-114.296
11
80.9674
21
-114.297
0
LINE
8
BLACK
6
CONTINUOUS
10
80.9674
20
-114.297
11
80.9567
21
-114.301
0
LINE
8
BLACK
6
CONTINUOUS
10
80.9567
20
-114.301
11
80.8852
21
-114.301
0
LINE
8
BLACK
6
CONTINUOUS
10
80.8852
20
-114.301
11
80.8745
21
-114.297
0
LINE
8
BLACK
6
CONTINUOUS
10
80.8745
20
-114.297
11
80.8629
21
-114.296
0
LINE
8
BLACK
6
CONTINUOUS
10
80.8629
20
-114.296
11
80.8153
21
-114.272
0
LINE
8
BLACK
6
CONTINUOUS
10
80.8153
20
-114.272
11
80.8099
21
-114.266
0
LINE
8
BLACK
6
CONTINUOUS
10
80.8099
20
-114.266
11
80.8023
21
-114.263
0
LINE
8
BLACK
6
CONTINUOUS
10
80.8023
20
-114.263
11
80.7785
21
-114.239
0
LINE
8
BLACK
6
CONTINUOUS
10
80.7785
20
-114.239
11
80.7782
21
-114.238
0
LINE
8
BLACK
6
CONTINUOUS
10
80.7782
20
-114.238
11
80.7539
21
-114.263
0
LINE
8
BLACK
6
CONTINUOUS
10
80.7539
20
-114.263
11
80.7463
21
-114.266
0
LINE
8
BLACK
6
CONTINUOUS
10
80.7463
20
-114.266
11
80.7409
21
-114.272
0
LINE
8
BLACK
6
CONTINUOUS
10
80.7409
20
-114.272
11
80.6933
21
-114.296
0
LINE
8
BLACK
6
CONTINUOUS
10
80.6933
20
-114.296
11
80.6817
21
-114.297
0
LINE
8
BLACK
6
CONTINUOUS
10
80.6817
20
-114.297
11
80.671
21
-114.301
0
LINE
8
BLACK
6
CONTINUOUS
10
80.671
20
-114.301
11
80.6471
21
-114.301
0
LINE
8
BLACK
6
CONTINUOUS
10
80.6471
20
-114.301
11
80.6118
21
-114.287
0
LINE
8
BLACK
6
CONTINUOUS
10
80.6118
20
-114.287
11
80.5971
21
-114.251
0
LINE
8
BLACK
6
CONTINUOUS
10
80.5971
20
-114.251
11
80.6118
21
-114.216
0
LINE
8
BLACK
6
CONTINUOUS
10
80.6118
20
-114.216
11
80.6471
21
-114.201
0
LINE
8
BLACK
6
CONTINUOUS
10
80.6471
20
-114.201
11
80.6591
21
-114.201
0
LINE
8
BLACK
6
CONTINUOUS
10
80.6591
20
-114.201
11
80.689
21
-114.186
0
LINE
8
BLACK
6
CONTINUOUS
10
80.689
20
-114.186
11
80.7172
21
-114.158
0
LINE
8
BLACK
6
CONTINUOUS
10
80.7172
20
-114.158
11
80.7024
21
-114.138
0
LINE
8
BLACK
6
CONTINUOUS
10
80.7024
20
-114.138
11
80.7003
21
-114.13
0
LINE
8
BLACK
6
CONTINUOUS
10
80.7003
20
-114.13
11
80.6949
21
-114.124
0
LINE
8
BLACK
6
CONTINUOUS
10
80.6949
20
-114.124
11
80.6711
21
-114.053
0
LINE
8
BLACK
6
CONTINUOUS
10
80.6711
20
-114.053
11
80.6717
21
-114.045
0
LINE
8
BLACK
6
CONTINUOUS
10
80.6717
20
-114.045
11
80.6686
21
-114.037
0
LINE
8
BLACK
6
CONTINUOUS
10
80.6686
20
-114.037
11
80.6686
21
-113.989
0
LINE
8
BLACK
6
CONTINUOUS
10
80.6686
20
-113.989
11
80.6832
21
-113.954
0
LINE
8
BLACK
6
CONTINUOUS
10
80.6832
20
-113.954
11
80.7186
21
-113.939
0
LINE
8
BLACK
6
CONTINUOUS
10
80.7186
20
-113.939
11
80.7539
21
-113.954
0
LINE
8
BLACK
6
CONTINUOUS
10
80.7539
20
-113.954
11
80.7686
21
-113.989
0
LINE
8
BLACK
6
CONTINUOUS
10
80.7686
20
-113.989
11
80.7686
21
-114.029
0
LINE
8
BLACK
6
CONTINUOUS
10
80.7686
20
-114.029
11
80.7864
21
-114.082
0
LINE
8
BLACK
6
CONTINUOUS
10
80.7864
20
-114.082
11
80.8689
21
-113.983
0
LINE
8
BLACK
6
CONTINUOUS
10
80.8689
20
-113.983
11
80.869
21
-113.983
0
LINE
8
BLACK
6
CONTINUOUS
10
80.869
20
-113.983
11
80.8337
21
-113.959
0
LINE
8
BLACK
6
CONTINUOUS
10
80.8337
20
-113.959
11
80.8308
21
-113.955
0
LINE
8
BLACK
6
CONTINUOUS
10
80.8308
20
-113.955
11
80.8261
21
-113.953
0
LINE
8
BLACK
6
CONTINUOUS
10
80.8261
20
-113.953
11
80.8023
21
-113.929
0
LINE
8
BLACK
6
CONTINUOUS
10
80.8023
20
-113.929
11
80.7991
21
-113.922
0
LINE
8
BLACK
6
CONTINUOUS
10
80.7991
20
-113.922
11
80.7929
21
-113.916
0
LINE
8
BLACK
6
CONTINUOUS
10
80.7929
20
-113.916
11
80.7691
21
-113.869
0
LINE
8
BLACK
6
CONTINUOUS
10
80.7691
20
-113.869
11
80.7683
21
-113.857
0
LINE
8
BLACK
6
CONTINUOUS
10
80.7683
20
-113.857
11
80.7638
21
-113.846
0
LINE
8
BLACK
6
CONTINUOUS
10
80.7638
20
-113.846
11
80.7638
21
-113.823
0
LINE
8
BLACK
6
CONTINUOUS
10
80.7638
20
-113.823
11
80.7683
21
-113.812
0
LINE
8
BLACK
6
CONTINUOUS
10
80.7683
20
-113.812
11
80.7691
21
-113.8
0
LINE
8
BLACK
6
CONTINUOUS
10
80.7691
20
-113.8
11
80.7929
21
-113.753
0
LINE
8
BLACK
6
CONTINUOUS
10
80.7929
20
-113.753
11
80.8049
21
-113.742
0
LINE
8
BLACK
6
CONTINUOUS
10
80.8049
20
-113.742
11
80.8153
21
-113.73
0
LINE
8
BLACK
6
CONTINUOUS
10
80.8153
20
-113.73
11
80.8629
21
-113.706
0
LINE
8
BLACK
6
CONTINUOUS
10
80.8629
20
-113.706
11
80.8745
21
-113.706
0
LINE
8
BLACK
6
CONTINUOUS
10
80.8745
20
-113.706
11
80.8852
21
-113.701
0
LINE
8
BLACK
6
CONTINUOUS
10
80.8852
20
-113.701
11
80.909
21
-113.701
0
LINE
8
BLACK
6
CONTINUOUS
10
80.909
20
-113.701
11
80.9198
21
-113.706
0
LINE
8
BLACK
6
CONTINUOUS
10
80.9506
20
-114.041
11
80.9483
21
-114.042
0
LINE
8
BLACK
6
CONTINUOUS
10
80.9483
20
-114.042
11
80.9475
21
-114.045
0
LINE
8
BLACK
6
CONTINUOUS
10
80.9475
20
-114.045
11
80.8475
21
-114.165
0
LINE
8
BLACK
6
CONTINUOUS
10
80.8475
20
-114.165
11
80.8517
21
-114.171
0
LINE
8
BLACK
6
CONTINUOUS
10
80.8517
20
-114.171
11
80.8672
21
-114.186
0
LINE
8
BLACK
6
CONTINUOUS
10
80.8672
20
-114.186
11
80.897
21
-114.201
0
LINE
8
BLACK
6
CONTINUOUS
10
80.897
20
-114.201
11
80.9449
21
-114.201
0
LINE
8
BLACK
6
CONTINUOUS
10
80.9449
20
-114.201
11
80.9747
21
-114.186
0
LINE
8
BLACK
6
CONTINUOUS
10
80.9747
20
-114.186
11
80.987
21
-114.174
0
LINE
8
BLACK
6
CONTINUOUS
10
80.987
20
-114.174
11
81.0019
21
-114.144
0
LINE
8
BLACK
6
CONTINUOUS
10
81.0019
20
-114.144
11
81.0019
21
-114.096
0
LINE
8
BLACK
6
CONTINUOUS
10
81.0019
20
-114.096
11
80.987
21
-114.067
0
LINE
8
BLACK
6
CONTINUOUS
10
80.987
20
-114.067
11
80.9724
21
-114.052
0
LINE
8
BLACK
6
CONTINUOUS
10
80.9724
20
-114.052
11
80.9522
21
-114.038
0
LINE
8
BLACK
6
CONTINUOUS
10
80.9522
20
-114.038
11
80.9506
21
-114.041
0
LINE
8
BLACK
6
CONTINUOUS
10
80.897
20
-113.801
11
80.8749
21
-113.812
0
LINE
8
BLACK
6
CONTINUOUS
10
80.8749
20
-113.812
11
80.8638
21
-113.834
0
LINE
8
BLACK
6
CONTINUOUS
10
80.8638
20
-113.834
11
80.8638
21
-113.835
0
LINE
8
BLACK
6
CONTINUOUS
10
80.8638
20
-113.835
11
80.8787
21
-113.864
0
LINE
8
BLACK
6
CONTINUOUS
10
80.8787
20
-113.864
11
80.8933
21
-113.879
0
LINE
8
BLACK
6
CONTINUOUS
10
80.8933
20
-113.879
11
80.9191
21
-113.896
0
LINE
8
BLACK
6
CONTINUOUS
10
80.9191
20
-113.896
11
80.9305
21
-113.862
0
LINE
8
BLACK
6
CONTINUOUS
10
80.9305
20
-113.862
11
80.9305
21
-113.834
0
LINE
8
BLACK
6
CONTINUOUS
10
80.9305
20
-113.834
11
80.9194
21
-113.812
0
LINE
8
BLACK
6
CONTINUOUS
10
80.9194
20
-113.812
11
80.8972
21
-113.801
0
LINE
8
BLACK
6
CONTINUOUS
10
80.8972
20
-113.801
11
80.897
21
-113.801
0
LINE
8
BLACK
6
CONTINUOUS
10
83.1111
20
-113.716
11
83.1257
21
-113.751
0
LINE
8
BLACK
6
CONTINUOUS
10
83.1257
20
-113.751
11
83.1257
21
-114.251
0
LINE
8
BLACK
6
CONTINUOUS
10
83.1257
20
-114.251
11
83.1111
21
-114.287
0
LINE
8
BLACK
6
CONTINUOUS
10
83.1111
20
-114.287
11
83.0757
21
-114.301
0
LINE
8
BLACK
6
CONTINUOUS
10
83.0757
20
-114.301
11
83.0404
21
-114.287
0
LINE
8
BLACK
6
CONTINUOUS
10
83.0404
20
-114.287
11
83.0257
21
-114.251
0
LINE
8
BLACK
6
CONTINUOUS
10
83.0257
20
-114.251
11
83.0257
21
-114.063
0
LINE
8
BLACK
6
CONTINUOUS
10
83.0257
20
-114.063
11
82.9827
21
-114.063
0
LINE
8
BLACK
6
CONTINUOUS
10
82.9827
20
-114.063
11
82.831
21
-114.28
0
LINE
8
BLACK
6
CONTINUOUS
10
82.831
20
-114.28
11
82.7987
21
-114.3
0
LINE
8
BLACK
6
CONTINUOUS
10
82.7987
20
-114.3
11
82.7613
21
-114.292
0
LINE
8
BLACK
6
CONTINUOUS
10
82.7613
20
-114.292
11
82.7408
21
-114.26
0
LINE
8
BLACK
6
CONTINUOUS
10
82.7408
20
-114.26
11
82.749
21
-114.223
0
LINE
8
BLACK
6
CONTINUOUS
10
82.749
20
-114.223
11
82.8643
21
-114.058
0
LINE
8
BLACK
6
CONTINUOUS
10
82.8643
20
-114.058
11
82.8629
21
-114.058
0
LINE
8
BLACK
6
CONTINUOUS
10
82.8629
20
-114.058
11
82.8153
21
-114.034
0
LINE
8
BLACK
6
CONTINUOUS
10
82.8153
20
-114.034
11
82.8099
21
-114.028
0
LINE
8
BLACK
6
CONTINUOUS
10
82.8099
20
-114.028
11
82.8023
21
-114.025
0
LINE
8
BLACK
6
CONTINUOUS
10
82.8023
20
-114.025
11
82.7785
21
-114.001
0
LINE
8
BLACK
6
CONTINUOUS
10
82.7785
20
-114.001
11
82.7753
21
-113.993
0
LINE
8
BLACK
6
CONTINUOUS
10
82.7753
20
-113.993
11
82.7691
21
-113.988
0
LINE
8
BLACK
6
CONTINUOUS
10
82.7691
20
-113.988
11
82.7453
21
-113.94
0
LINE
8
BLACK
6
CONTINUOUS
10
82.7453
20
-113.94
11
82.7445
21
-113.929
0
LINE
8
BLACK
6
CONTINUOUS
10
82.7445
20
-113.929
11
82.74
21
-113.918
0
LINE
8
BLACK
6
CONTINUOUS
10
82.74
20
-113.918
11
82.74
21
-113.846
0
LINE
8
BLACK
6
CONTINUOUS
10
82.74
20
-113.846
11
82.7445
21
-113.836
0
LINE
8
BLACK
6
CONTINUOUS
10
82.7445
20
-113.836
11
82.7453
21
-113.824
0
LINE
8
BLACK
6
CONTINUOUS
10
82.7453
20
-113.824
11
82.7691
21
-113.776
0
LINE
8
BLACK
6
CONTINUOUS
10
82.7691
20
-113.776
11
82.7753
21
-113.771
0
LINE
8
BLACK
6
CONTINUOUS
10
82.7753
20
-113.771
11
82.7785
21
-113.763
0
LINE
8
BLACK
6
CONTINUOUS
10
82.7785
20
-113.763
11
82.8023
21
-113.74
0
LINE
8
BLACK
6
CONTINUOUS
10
82.8023
20
-113.74
11
82.8099
21
-113.736
0
LINE
8
BLACK
6
CONTINUOUS
10
82.8099
20
-113.736
11
82.8153
21
-113.73
0
LINE
8
BLACK
6
CONTINUOUS
10
82.8153
20
-113.73
11
82.8629
21
-113.706
0
LINE
8
BLACK
6
CONTINUOUS
10
82.8629
20
-113.706
11
82.8745
21
-113.706
0
LINE
8
BLACK
6
CONTINUOUS
10
82.8745
20
-113.706
11
82.8852
21
-113.701
0
LINE
8
BLACK
6
CONTINUOUS
10
82.8852
20
-113.701
11
83.0757
21
-113.701
0
LINE
8
BLACK
6
CONTINUOUS
10
83.0757
20
-113.701
11
83.1111
21
-113.716
0
LINE
8
BLACK
6
CONTINUOUS
10
82.897
20
-113.801
11
82.8672
21
-113.816
0
LINE
8
BLACK
6
CONTINUOUS
10
82.8672
20
-113.816
11
82.8549
21
-113.828
0
LINE
8
BLACK
6
CONTINUOUS
10
82.8549
20
-113.828
11
82.84
21
-113.858
0
LINE
8
BLACK
6
CONTINUOUS
10
82.84
20
-113.858
11
82.84
21
-113.906
0
LINE
8
BLACK
6
CONTINUOUS
10
82.84
20
-113.906
11
82.8549
21
-113.936
0
LINE
8
BLACK
6
CONTINUOUS
10
82.8549
20
-113.936
11
82.8672
21
-113.948
0
LINE
8
BLACK
6
CONTINUOUS
10
82.8672
20
-113.948
11
82.897
21
-113.963
0
LINE
8
BLACK
6
CONTINUOUS
10
82.897
20
-113.963
11
83.0257
21
-113.963
0
LINE
8
BLACK
6
CONTINUOUS
10
83.0257
20
-113.963
11
83.0257
21
-113.801
0
LINE
8
BLACK
6
CONTINUOUS
10
83.0257
20
-113.801
11
82.897
21
-113.801
0
LINE
8
BLACK
6
CONTINUOUS
10
78.7539
20
-113.835
11
78.7686
21
-113.87
0
LINE
8
BLACK
6
CONTINUOUS
10
78.7686
20
-113.87
11
78.7686
21
-114.011
0
LINE
8
BLACK
6
CONTINUOUS
10
78.7686
20
-114.011
11
78.909
21
-114.011
0
LINE
8
BLACK
6
CONTINUOUS
10
78.909
20
-114.011
11
78.9444
21
-114.025
0
LINE
8
BLACK
6
CONTINUOUS
10
78.9444
20
-114.025
11
78.959
21
-114.061
0
LINE
8
BLACK
6
CONTINUOUS
10
78.959
20
-114.061
11
78.9444
21
-114.096
0
LINE
8
BLACK
6
CONTINUOUS
10
78.9444
20
-114.096
11
78.909
21
-114.111
0
LINE
8
BLACK
6
CONTINUOUS
10
78.909
20
-114.111
11
78.7686
21
-114.111
0
LINE
8
BLACK
6
CONTINUOUS
10
78.7686
20
-114.111
11
78.7686
21
-114.251
0
LINE
8
BLACK
6
CONTINUOUS
10
78.7686
20
-114.251
11
78.7539
21
-114.287
0
LINE
8
BLACK
6
CONTINUOUS
10
78.7539
20
-114.287
11
78.7186
21
-114.301
0
LINE
8
BLACK
6
CONTINUOUS
10
78.7186
20
-114.301
11
78.6832
21
-114.287
0
LINE
8
BLACK
6
CONTINUOUS
10
78.6832
20
-114.287
11
78.6686
21
-114.251
0
LINE
8
BLACK
6
CONTINUOUS
10
78.6686
20
-114.251
11
78.6686
21
-114.111
0
LINE
8
BLACK
6
CONTINUOUS
10
78.6686
20
-114.111
11
78.5281
21
-114.111
0
LINE
8
BLACK
6
CONTINUOUS
10
78.5281
20
-114.111
11
78.4927
21
-114.096
0
LINE
8
BLACK
6
CONTINUOUS
10
78.4927
20
-114.096
11
78.4781
21
-114.061
0
LINE
8
BLACK
6
CONTINUOUS
10
78.4781
20
-114.061
11
78.4927
21
-114.025
0
LINE
8
BLACK
6
CONTINUOUS
10
78.4927
20
-114.025
11
78.5281
21
-114.011
0
LINE
8
BLACK
6
CONTINUOUS
10
78.5281
20
-114.011
11
78.6686
21
-114.011
0
LINE
8
BLACK
6
CONTINUOUS
10
78.6686
20
-114.011
11
78.6686
21
-113.87
0
LINE
8
BLACK
6
CONTINUOUS
10
78.6686
20
-113.87
11
78.6832
21
-113.835
0
LINE
8
BLACK
6
CONTINUOUS
10
78.6832
20
-113.835
11
78.7186
21
-113.82
0
LINE
8
BLACK
6
CONTINUOUS
10
78.7186
20
-113.82
11
78.7539
21
-113.835
0
LINE
8
BLACK
6
CONTINUOUS
10
76.4206
20
-114.025
11
76.4352
21
-114.061
0
LINE
8
BLACK
6
CONTINUOUS
10
76.4352
20
-114.061
11
76.4206
21
-114.096
0
LINE
8
BLACK
6
CONTINUOUS
10
76.4206
20
-114.096
11
76.3852
21
-114.111
0
LINE
8
BLACK
6
CONTINUOUS
10
76.3852
20
-114.111
11
76.0043
21
-114.111
0
LINE
8
BLACK
6
CONTINUOUS
10
76.0043
20
-114.111
11
75.9689
21
-114.096
0
LINE
8
BLACK
6
CONTINUOUS
10
75.9689
20
-114.096
11
75.9543
21
-114.061
0
LINE
8
BLACK
6
CONTINUOUS
10
75.9543
20
-114.061
11
75.9689
21
-114.025
0
LINE
8
BLACK
6
CONTINUOUS
10
75.9689
20
-114.025
11
76.0043
21
-114.011
0
LINE
8
BLACK
6
CONTINUOUS
10
76.0043
20
-114.011
11
76.3852
21
-114.011
0
LINE
8
BLACK
6
CONTINUOUS
10
76.3852
20
-114.011
11
76.4206
21
-114.025
0
LINE
8
BLACK
6
CONTINUOUS
10
78.1698
20
-113.067
11
78.1814
21
-113.068
0
LINE
8
BLACK
6
CONTINUOUS
10
78.1814
20
-113.068
11
78.229
21
-113.092
0
LINE
8
BLACK
6
CONTINUOUS
10
78.229
20
-113.092
11
78.2344
21
-113.098
0
LINE
8
BLACK
6
CONTINUOUS
10
78.2344
20
-113.098
11
78.242
21
-113.101
0
LINE
8
BLACK
6
CONTINUOUS
10
78.242
20
-113.101
11
78.2658
21
-113.125
0
LINE
8
BLACK
6
CONTINUOUS
10
78.2658
20
-113.125
11
78.269
21
-113.133
0
LINE
8
BLACK
6
CONTINUOUS
10
78.269
20
-113.133
11
78.2752
21
-113.138
0
LINE
8
BLACK
6
CONTINUOUS
10
78.2752
20
-113.138
11
78.299
21
-113.186
0
LINE
8
BLACK
6
CONTINUOUS
10
78.299
20
-113.186
11
78.2998
21
-113.197
0
LINE
8
BLACK
6
CONTINUOUS
10
78.2998
20
-113.197
11
78.3043
21
-113.208
0
LINE
8
BLACK
6
CONTINUOUS
10
78.3043
20
-113.208
11
78.3043
21
-113.351
0
LINE
8
BLACK
6
CONTINUOUS
10
78.3043
20
-113.351
11
78.2998
21
-113.362
0
LINE
8
BLACK
6
CONTINUOUS
10
78.2998
20
-113.362
11
78.299
21
-113.373
0
LINE
8
BLACK
6
CONTINUOUS
10
78.299
20
-113.373
11
78.2752
21
-113.421
0
LINE
8
BLACK
6
CONTINUOUS
10
78.2752
20
-113.421
11
78.269
21
-113.426
0
LINE
8
BLACK
6
CONTINUOUS
10
78.269
20
-113.426
11
78.2658
21
-113.434
0
LINE
8
BLACK
6
CONTINUOUS
10
78.2658
20
-113.434
11
78.242
21
-113.458
0
LINE
8
BLACK
6
CONTINUOUS
10
78.242
20
-113.458
11
78.2344
21
-113.461
0
LINE
8
BLACK
6
CONTINUOUS
10
78.2344
20
-113.461
11
78.229
21
-113.467
0
LINE
8
BLACK
6
CONTINUOUS
10
78.229
20
-113.467
11
78.1814
21
-113.491
0
LINE
8
BLACK
6
CONTINUOUS
10
78.1814
20
-113.491
11
78.1698
21
-113.492
0
LINE
8
BLACK
6
CONTINUOUS
10
78.1698
20
-113.492
11
78.159
21
-113.496
0
LINE
8
BLACK
6
CONTINUOUS
10
78.159
20
-113.496
11
78.0662
21
-113.496
0
LINE
8
BLACK
6
CONTINUOUS
10
78.0662
20
-113.496
11
78.0662
21
-113.506
0
LINE
8
BLACK
6
CONTINUOUS
10
78.0662
20
-113.506
11
78.0811
21
-113.536
0
LINE
8
BLACK
6
CONTINUOUS
10
78.0811
20
-113.536
11
78.0934
21
-113.548
0
LINE
8
BLACK
6
CONTINUOUS
10
78.0934
20
-113.548
11
78.1232
21
-113.563
0
LINE
8
BLACK
6
CONTINUOUS
10
78.1232
20
-113.563
11
78.1711
21
-113.563
0
LINE
8
BLACK
6
CONTINUOUS
10
78.1711
20
-113.563
11
78.2081
21
-113.544
0
LINE
8
BLACK
6
CONTINUOUS
10
78.2081
20
-113.544
11
78.2463
21
-113.542
0
LINE
8
BLACK
6
CONTINUOUS
10
78.2463
20
-113.542
11
78.2752
21
-113.567
0
LINE
8
BLACK
6
CONTINUOUS
10
78.2752
20
-113.567
11
78.2779
21
-113.605
0
LINE
8
BLACK
6
CONTINUOUS
10
78.2779
20
-113.605
11
78.2528
21
-113.634
0
LINE
8
BLACK
6
CONTINUOUS
10
78.2528
20
-113.634
11
78.2052
21
-113.658
0
LINE
8
BLACK
6
CONTINUOUS
10
78.2052
20
-113.658
11
78.1936
21
-113.658
0
LINE
8
BLACK
6
CONTINUOUS
10
78.1936
20
-113.658
11
78.1829
21
-113.663
0
LINE
8
BLACK
6
CONTINUOUS
10
78.1829
20
-113.663
11
78.1114
21
-113.663
0
LINE
8
BLACK
6
CONTINUOUS
10
78.1114
20
-113.663
11
78.1007
21
-113.658
0
LINE
8
BLACK
6
CONTINUOUS
10
78.1007
20
-113.658
11
78.0891
21
-113.658
0
LINE
8
BLACK
6
CONTINUOUS
10
78.0891
20
-113.658
11
78.0414
21
-113.634
0
LINE
8
BLACK
6
CONTINUOUS
10
78.0414
20
-113.634
11
78.0361
21
-113.628
0
LINE
8
BLACK
6
CONTINUOUS
10
78.0361
20
-113.628
11
78.0285
21
-113.624
0
LINE
8
BLACK
6
CONTINUOUS
10
78.0285
20
-113.624
11
78.0046
21
-113.601
0
LINE
8
BLACK
6
CONTINUOUS
10
78.0046
20
-113.601
11
78.0015
21
-113.593
0
LINE
8
BLACK
6
CONTINUOUS
10
78.0015
20
-113.593
11
77.9953
21
-113.588
0
LINE
8
BLACK
6
CONTINUOUS
10
77.9953
20
-113.588
11
77.9715
21
-113.54
0
LINE
8
BLACK
6
CONTINUOUS
10
77.9715
20
-113.54
11
77.9706
21
-113.528
0
LINE
8
BLACK
6
CONTINUOUS
10
77.9706
20
-113.528
11
77.9662
21
-113.518
0
LINE
8
BLACK
6
CONTINUOUS
10
77.9662
20
-113.518
11
77.9662
21
-113.113
0
LINE
8
BLACK
6
CONTINUOUS
10
77.9662
20
-113.113
11
77.9808
21
-113.078
0
LINE
8
BLACK
6
CONTINUOUS
10
77.9808
20
-113.078
11
78.0162
21
-113.063
0
LINE
8
BLACK
6
CONTINUOUS
10
78.0162
20
-113.063
11
78.0358
21
-113.071
0
LINE
8
BLACK
6
CONTINUOUS
10
78.0358
20
-113.071
11
78.0414
21
-113.068
0
LINE
8
BLACK
6
CONTINUOUS
10
78.0414
20
-113.068
11
78.0531
21
-113.067
0
LINE
8
BLACK
6
CONTINUOUS
10
78.0531
20
-113.067
11
78.0638
21
-113.063
0
LINE
8
BLACK
6
CONTINUOUS
10
78.0638
20
-113.063
11
78.159
21
-113.063
0
LINE
8
BLACK
6
CONTINUOUS
10
78.159
20
-113.063
11
78.1698
21
-113.067
0
LINE
8
BLACK
6
CONTINUOUS
10
78.0756
20
-113.163
11
78.0662
21
-113.168
0
LINE
8
BLACK
6
CONTINUOUS
10
78.0662
20
-113.168
11
78.0662
21
-113.391
0
LINE
8
BLACK
6
CONTINUOUS
10
78.0662
20
-113.391
11
78.0756
21
-113.396
0
LINE
8
BLACK
6
CONTINUOUS
10
78.0756
20
-113.396
11
78.1472
21
-113.396
0
LINE
8
BLACK
6
CONTINUOUS
10
78.1472
20
-113.396
11
78.177
21
-113.381
0
LINE
8
BLACK
6
CONTINUOUS
10
78.177
20
-113.381
11
78.1894
21
-113.369
0
LINE
8
BLACK
6
CONTINUOUS
10
78.1894
20
-113.369
11
78.2043
21
-113.339
0
LINE
8
BLACK
6
CONTINUOUS
10
78.2043
20
-113.339
11
78.2043
21
-113.22
0
LINE
8
BLACK
6
CONTINUOUS
10
78.2043
20
-113.22
11
78.1894
21
-113.19
0
LINE
8
BLACK
6
CONTINUOUS
10
78.1894
20
-113.19
11
78.177
21
-113.178
0
LINE
8
BLACK
6
CONTINUOUS
10
78.177
20
-113.178
11
78.1472
21
-113.163
0
LINE
8
BLACK
6
CONTINUOUS
10
78.1472
20
-113.163
11
78.0756
21
-113.163
0
LINE
8
BLACK
6
CONTINUOUS
10
76.7412
20
-113.067
11
76.7528
21
-113.068
0
LINE
8
BLACK
6
CONTINUOUS
10
76.7528
20
-113.068
11
76.8005
21
-113.092
0
LINE
8
BLACK
6
CONTINUOUS
10
76.8005
20
-113.092
11
76.8019
21
-113.094
0
LINE
8
BLACK
6
CONTINUOUS
10
76.8019
20
-113.094
11
76.8034
21
-113.092
0
LINE
8
BLACK
6
CONTINUOUS
10
76.8034
20
-113.092
11
76.851
21
-113.068
0
LINE
8
BLACK
6
CONTINUOUS
10
76.851
20
-113.068
11
76.8626
21
-113.067
0
LINE
8
BLACK
6
CONTINUOUS
10
76.8626
20
-113.067
11
76.8733
21
-113.063
0
LINE
8
BLACK
6
CONTINUOUS
10
76.8733
20
-113.063
11
76.9448
21
-113.063
0
LINE
8
BLACK
6
CONTINUOUS
10
76.9448
20
-113.063
11
76.9555
21
-113.067
0
LINE
8
BLACK
6
CONTINUOUS
10
76.9555
20
-113.067
11
76.9671
21
-113.068
0
LINE
8
BLACK
6
CONTINUOUS
10
76.9671
20
-113.068
11
76.9836
21
-113.076
0
LINE
8
BLACK
6
CONTINUOUS
10
76.9836
20
-113.076
11
77.0162
21
-113.063
0
LINE
8
BLACK
6
CONTINUOUS
10
77.0162
20
-113.063
11
77.0515
21
-113.078
0
LINE
8
BLACK
6
CONTINUOUS
10
77.0515
20
-113.078
11
77.0662
21
-113.113
0
LINE
8
BLACK
6
CONTINUOUS
10
77.0662
20
-113.113
11
77.0662
21
-113.446
0
LINE
8
BLACK
6
CONTINUOUS
10
77.0662
20
-113.446
11
77.0515
21
-113.482
0
LINE
8
BLACK
6
CONTINUOUS
10
77.0515
20
-113.482
11
77.0162
21
-113.496
0
LINE
8
BLACK
6
CONTINUOUS
10
77.0162
20
-113.496
11
76.9808
21
-113.482
0
LINE
8
BLACK
6
CONTINUOUS
10
76.9808
20
-113.482
11
76.9662
21
-113.446
0
LINE
8
BLACK
6
CONTINUOUS
10
76.9662
20
-113.446
11
76.9662
21
-113.181
0
LINE
8
BLACK
6
CONTINUOUS
10
76.9662
20
-113.181
11
76.9628
21
-113.178
0
LINE
8
BLACK
6
CONTINUOUS
10
76.9628
20
-113.178
11
76.933
21
-113.163
0
LINE
8
BLACK
6
CONTINUOUS
10
76.933
20
-113.163
11
76.8851
21
-113.163
0
LINE
8
BLACK
6
CONTINUOUS
10
76.8851
20
-113.163
11
76.863
21
-113.174
0
LINE
8
BLACK
6
CONTINUOUS
10
76.863
20
-113.174
11
76.8519
21
-113.196
0
LINE
8
BLACK
6
CONTINUOUS
10
76.8519
20
-113.196
11
76.8519
21
-113.446
0
LINE
8
BLACK
6
CONTINUOUS
10
76.8519
20
-113.446
11
76.8373
21
-113.482
0
LINE
8
BLACK
6
CONTINUOUS
10
76.8373
20
-113.482
11
76.8019
21
-113.496
0
LINE
8
BLACK
6
CONTINUOUS
10
76.8019
20
-113.496
11
76.7665
21
-113.482
0
LINE
8
BLACK
6
CONTINUOUS
10
76.7665
20
-113.482
11
76.7519
21
-113.446
0
LINE
8
BLACK
6
CONTINUOUS
10
76.7519
20
-113.446
11
76.7519
21
-113.196
0
LINE
8
BLACK
6
CONTINUOUS
10
76.7519
20
-113.196
11
76.7408
21
-113.174
0
LINE
8
BLACK
6
CONTINUOUS
10
76.7408
20
-113.174
11
76.7187
21
-113.163
0
LINE
8
BLACK
6
CONTINUOUS
10
76.7187
20
-113.163
11
76.6709
21
-113.163
0
LINE
8
BLACK
6
CONTINUOUS
10
76.6709
20
-113.163
11
76.6487
21
-113.174
0
LINE
8
BLACK
6
CONTINUOUS
10
76.6487
20
-113.174
11
76.6376
21
-113.196
0
LINE
8
BLACK
6
CONTINUOUS
10
76.6376
20
-113.196
11
76.6376
21
-113.446
0
LINE
8
BLACK
6
CONTINUOUS
10
76.6376
20
-113.446
11
76.623
21
-113.482
0
LINE
8
BLACK
6
CONTINUOUS
10
76.623
20
-113.482
11
76.5876
21
-113.496
0
LINE
8
BLACK
6
CONTINUOUS
10
76.5876
20
-113.496
11
76.5523
21
-113.482
0
LINE
8
BLACK
6
CONTINUOUS
10
76.5523
20
-113.482
11
76.5376
21
-113.446
0
LINE
8
BLACK
6
CONTINUOUS
10
76.5376
20
-113.446
11
76.5376
21
-113.184
0
LINE
8
BLACK
6
CONTINUOUS
10
76.5376
20
-113.184
11
76.5421
21
-113.174
0
LINE
8
BLACK
6
CONTINUOUS
10
76.5421
20
-113.174
11
76.5429
21
-113.162
0
LINE
8
BLACK
6
CONTINUOUS
10
76.5429
20
-113.162
11
76.5667
21
-113.114
0
LINE
8
BLACK
6
CONTINUOUS
10
76.5667
20
-113.114
11
76.5787
21
-113.104
0
LINE
8
BLACK
6
CONTINUOUS
10
76.5787
20
-113.104
11
76.5891
21
-113.092
0
LINE
8
BLACK
6
CONTINUOUS
10
76.5891
20
-113.092
11
76.6367
21
-113.068
0
LINE
8
BLACK
6
CONTINUOUS
10
76.6367
20
-113.068
11
76.6483
21
-113.067
0
LINE
8
BLACK
6
CONTINUOUS
10
76.6483
20
-113.067
11
76.659
21
-113.063
0
LINE
8
BLACK
6
CONTINUOUS
10
76.659
20
-113.063
11
76.7305
21
-113.063
0
LINE
8
BLACK
6
CONTINUOUS
10
76.7305
20
-113.063
11
76.7412
21
-113.067
0
LINE
8
BLACK
6
CONTINUOUS
10
81.2174
20
-112.901
11
81.229
21
-112.901
0
LINE
8
BLACK
6
CONTINUOUS
10
81.229
20
-112.901
11
81.2766
21
-112.925
0
LINE
8
BLACK
6
CONTINUOUS
10
81.2766
20
-112.925
11
81.287
21
-112.937
0
LINE
8
BLACK
6
CONTINUOUS
10
81.287
20
-112.937
11
81.299
21
-112.948
0
LINE
8
BLACK
6
CONTINUOUS
10
81.299
20
-112.948
11
81.3228
21
-112.995
0
LINE
8
BLACK
6
CONTINUOUS
10
81.3228
20
-112.995
11
81.3236
21
-113.007
0
LINE
8
BLACK
6
CONTINUOUS
10
81.3236
20
-113.007
11
81.3281
21
-113.018
0
LINE
8
BLACK
6
CONTINUOUS
10
81.3281
20
-113.018
11
81.3281
21
-113.063
0
LINE
8
BLACK
6
CONTINUOUS
10
81.3281
20
-113.063
11
81.3495
21
-113.063
0
LINE
8
BLACK
6
CONTINUOUS
10
81.3495
20
-113.063
11
81.3849
21
-113.078
0
LINE
8
BLACK
6
CONTINUOUS
10
81.3849
20
-113.078
11
81.3995
21
-113.113
0
LINE
8
BLACK
6
CONTINUOUS
10
81.3995
20
-113.113
11
81.3849
21
-113.148
0
LINE
8
BLACK
6
CONTINUOUS
10
81.3849
20
-113.148
11
81.3495
21
-113.163
0
LINE
8
BLACK
6
CONTINUOUS
10
81.3495
20
-113.163
11
81.3281
21
-113.163
0
LINE
8
BLACK
6
CONTINUOUS
10
81.3281
20
-113.163
11
81.3281
21
-113.446
0
LINE
8
BLACK
6
CONTINUOUS
10
81.3281
20
-113.446
11
81.3135
21
-113.482
0
LINE
8
BLACK
6
CONTINUOUS
10
81.3135
20
-113.482
11
81.2781
21
-113.496
0
LINE
8
BLACK
6
CONTINUOUS
10
81.2781
20
-113.496
11
81.2427
21
-113.482
0
LINE
8
BLACK
6
CONTINUOUS
10
81.2427
20
-113.482
11
81.2281
21
-113.446
0
LINE
8
BLACK
6
CONTINUOUS
10
81.2281
20
-113.446
11
81.2281
21
-113.163
0
LINE
8
BLACK
6
CONTINUOUS
10
81.2281
20
-113.163
11
81.159
21
-113.163
0
LINE
8
BLACK
6
CONTINUOUS
10
81.159
20
-113.163
11
81.1237
21
-113.148
0
LINE
8
BLACK
6
CONTINUOUS
10
81.1237
20
-113.148
11
81.109
21
-113.113
0
LINE
8
BLACK
6
CONTINUOUS
10
81.109
20
-113.113
11
81.1237
21
-113.078
0
LINE
8
BLACK
6
CONTINUOUS
10
81.1237
20
-113.078
11
81.159
21
-113.063
0
LINE
8
BLACK
6
CONTINUOUS
10
81.159
20
-113.063
11
81.2281
21
-113.063
0
LINE
8
BLACK
6
CONTINUOUS
10
81.2281
20
-113.063
11
81.2281
21
-113.029
0
LINE
8
BLACK
6
CONTINUOUS
10
81.2281
20
-113.029
11
81.217
21
-113.007
0
LINE
8
BLACK
6
CONTINUOUS
10
81.217
20
-113.007
11
81.1949
21
-112.996
0
LINE
8
BLACK
6
CONTINUOUS
10
81.1949
20
-112.996
11
81.159
21
-112.996
0
LINE
8
BLACK
6
CONTINUOUS
10
81.159
20
-112.996
11
81.1237
21
-112.982
0
LINE
8
BLACK
6
CONTINUOUS
10
81.1237
20
-112.982
11
81.109
21
-112.946
0
LINE
8
BLACK
6
CONTINUOUS
10
81.109
20
-112.946
11
81.1237
21
-112.911
0
LINE
8
BLACK
6
CONTINUOUS
10
81.1237
20
-112.911
11
81.159
21
-112.896
0
LINE
8
BLACK
6
CONTINUOUS
10
81.159
20
-112.896
11
81.2067
21
-112.896
0
LINE
8
BLACK
6
CONTINUOUS
10
81.2067
20
-112.896
11
81.2174
21
-112.901
0
LINE
8
BLACK
6
CONTINUOUS
10
81.5515
20
-113.078
11
81.5662
21
-113.113
0
LINE
8
BLACK
6
CONTINUOUS
10
81.5662
20
-113.113
11
81.5662
21
-113.446
0
LINE
8
BLACK
6
CONTINUOUS
10
81.5662
20
-113.446
11
81.5515
21
-113.482
0
LINE
8
BLACK
6
CONTINUOUS
10
81.5515
20
-113.482
11
81.5162
21
-113.496
0
LINE
8
BLACK
6
CONTINUOUS
10
81.5162
20
-113.496
11
81.4808
21
-113.482
0
LINE
8
BLACK
6
CONTINUOUS
10
81.4808
20
-113.482
11
81.4662
21
-113.446
0
LINE
8
BLACK
6
CONTINUOUS
10
81.4662
20
-113.446
11
81.4662
21
-113.113
0
LINE
8
BLACK
6
CONTINUOUS
10
81.4662
20
-113.113
11
81.4808
21
-113.078
0
LINE
8
BLACK
6
CONTINUOUS
10
81.4808
20
-113.078
11
81.5162
21
-113.063
0
LINE
8
BLACK
6
CONTINUOUS
10
81.5162
20
-113.063
11
81.5515
21
-113.078
0
LINE
8
BLACK
6
CONTINUOUS
10
81.9079
20
-113.067
11
81.9195
21
-113.068
0
LINE
8
BLACK
6
CONTINUOUS
10
81.9195
20
-113.068
11
81.936
21
-113.076
0
LINE
8
BLACK
6
CONTINUOUS
10
81.936
20
-113.076
11
81.9686
21
-113.063
0
LINE
8
BLACK
6
CONTINUOUS
10
81.9686
20
-113.063
11
82.0039
21
-113.078
0
LINE
8
BLACK
6
CONTINUOUS
10
82.0039
20
-113.078
11
82.0186
21
-113.113
0
LINE
8
BLACK
6
CONTINUOUS
10
82.0186
20
-113.113
11
82.0186
21
-113.446
0
LINE
8
BLACK
6
CONTINUOUS
10
82.0186
20
-113.446
11
82.0039
21
-113.482
0
LINE
8
BLACK
6
CONTINUOUS
10
82.0039
20
-113.482
11
81.9686
21
-113.496
0
LINE
8
BLACK
6
CONTINUOUS
10
81.9686
20
-113.496
11
81.9332
21
-113.482
0
LINE
8
BLACK
6
CONTINUOUS
10
81.9332
20
-113.482
11
81.9186
21
-113.446
0
LINE
8
BLACK
6
CONTINUOUS
10
81.9186
20
-113.446
11
81.9186
21
-113.181
0
LINE
8
BLACK
6
CONTINUOUS
10
81.9186
20
-113.181
11
81.9151
21
-113.178
0
LINE
8
BLACK
6
CONTINUOUS
10
81.9151
20
-113.178
11
81.8853
21
-113.163
0
LINE
8
BLACK
6
CONTINUOUS
10
81.8853
20
-113.163
11
81.8375
21
-113.163
0
LINE
8
BLACK
6
CONTINUOUS
10
81.8375
20
-113.163
11
81.8154
21
-113.174
0
LINE
8
BLACK
6
CONTINUOUS
10
81.8154
20
-113.174
11
81.8043
21
-113.196
0
LINE
8
BLACK
6
CONTINUOUS
10
81.8043
20
-113.196
11
81.8043
21
-113.446
0
LINE
8
BLACK
6
CONTINUOUS
10
81.8043
20
-113.446
11
81.7896
21
-113.482
0
LINE
8
BLACK
6
CONTINUOUS
10
81.7896
20
-113.482
11
81.7543
21
-113.496
0
LINE
8
BLACK
6
CONTINUOUS
10
81.7543
20
-113.496
11
81.7189
21
-113.482
0
LINE
8
BLACK
6
CONTINUOUS
10
81.7189
20
-113.482
11
81.7043
21
-113.446
0
LINE
8
BLACK
6
CONTINUOUS
10
81.7043
20
-113.446
11
81.7043
21
-113.184
0
LINE
8
BLACK
6
CONTINUOUS
10
81.7043
20
-113.184
11
81.7087
21
-113.174
0
LINE
8
BLACK
6
CONTINUOUS
10
81.7087
20
-113.174
11
81.7096
21
-113.162
0
LINE
8
BLACK
6
CONTINUOUS
10
81.7096
20
-113.162
11
81.7334
21
-113.114
0
LINE
8
BLACK
6
CONTINUOUS
10
81.7334
20
-113.114
11
81.7453
21
-113.104
0
LINE
8
BLACK
6
CONTINUOUS
10
81.7453
20
-113.104
11
81.7557
21
-113.092
0
LINE
8
BLACK
6
CONTINUOUS
10
81.7557
20
-113.092
11
81.8034
21
-113.068
0
LINE
8
BLACK
6
CONTINUOUS
10
81.8034
20
-113.068
11
81.815
21
-113.067
0
LINE
8
BLACK
6
CONTINUOUS
10
81.815
20
-113.067
11
81.8257
21
-113.063
0
LINE
8
BLACK
6
CONTINUOUS
10
81.8257
20
-113.063
11
81.8971
21
-113.063
0
LINE
8
BLACK
6
CONTINUOUS
10
81.8971
20
-113.063
11
81.9079
21
-113.067
0
LINE
8
BLACK
6
CONTINUOUS
10
80.1468
20
-112.911
11
80.1614
21
-112.946
0
LINE
8
BLACK
6
CONTINUOUS
10
80.1614
20
-112.946
11
80.1614
21
-113.063
0
LINE
8
BLACK
6
CONTINUOUS
10
80.1614
20
-113.063
11
80.2543
21
-113.063
0
LINE
8
BLACK
6
CONTINUOUS
10
80.2543
20
-113.063
11
80.265
21
-113.067
0
LINE
8
BLACK
6
CONTINUOUS
10
80.265
20
-113.067
11
80.2766
21
-113.068
0
LINE
8
BLACK
6
CONTINUOUS
10
80.2766
20
-113.068
11
80.3243
21
-113.092
0
LINE
8
BLACK
6
CONTINUOUS
10
80.3243
20
-113.092
11
80.3297
21
-113.098
0
LINE
8
BLACK
6
CONTINUOUS
10
80.3297
20
-113.098
11
80.3373
21
-113.101
0
LINE
8
BLACK
6
CONTINUOUS
10
80.3373
20
-113.101
11
80.3611
21
-113.125
0
LINE
8
BLACK
6
CONTINUOUS
10
80.3611
20
-113.125
11
80.3642
21
-113.133
0
LINE
8
BLACK
6
CONTINUOUS
10
80.3642
20
-113.133
11
80.3704
21
-113.138
0
LINE
8
BLACK
6
CONTINUOUS
10
80.3704
20
-113.138
11
80.3942
21
-113.186
0
LINE
8
BLACK
6
CONTINUOUS
10
80.3942
20
-113.186
11
80.3951
21
-113.197
0
LINE
8
BLACK
6
CONTINUOUS
10
80.3951
20
-113.197
11
80.3995
21
-113.208
0
LINE
8
BLACK
6
CONTINUOUS
10
80.3995
20
-113.208
11
80.3995
21
-113.351
0
LINE
8
BLACK
6
CONTINUOUS
10
80.3995
20
-113.351
11
80.3951
21
-113.362
0
LINE
8
BLACK
6
CONTINUOUS
10
80.3951
20
-113.362
11
80.3942
21
-113.373
0
LINE
8
BLACK
6
CONTINUOUS
10
80.3942
20
-113.373
11
80.3704
21
-113.421
0
LINE
8
BLACK
6
CONTINUOUS
10
80.3704
20
-113.421
11
80.3642
21
-113.426
0
LINE
8
BLACK
6
CONTINUOUS
10
80.3642
20
-113.426
11
80.3611
21
-113.434
0
LINE
8
BLACK
6
CONTINUOUS
10
80.3611
20
-113.434
11
80.3373
21
-113.458
0
LINE
8
BLACK
6
CONTINUOUS
10
80.3373
20
-113.458
11
80.3297
21
-113.461
0
LINE
8
BLACK
6
CONTINUOUS
10
80.3297
20
-113.461
11
80.3243
21
-113.467
0
LINE
8
BLACK
6
CONTINUOUS
10
80.3243
20
-113.467
11
80.2766
21
-113.491
0
LINE
8
BLACK
6
CONTINUOUS
10
80.2766
20
-113.491
11
80.265
21
-113.492
0
LINE
8
BLACK
6
CONTINUOUS
10
80.265
20
-113.492
11
80.2543
21
-113.496
0
LINE
8
BLACK
6
CONTINUOUS
10
80.2543
20
-113.496
11
80.159
21
-113.496
0
LINE
8
BLACK
6
CONTINUOUS
10
80.159
20
-113.496
11
80.1483
21
-113.492
0
LINE
8
BLACK
6
CONTINUOUS
10
80.1483
20
-113.492
11
80.1367
21
-113.491
0
LINE
8
BLACK
6
CONTINUOUS
10
80.1367
20
-113.491
11
80.131
21
-113.488
0
LINE
8
BLACK
6
CONTINUOUS
10
80.131
20
-113.488
11
80.1114
21
-113.496
0
LINE
8
BLACK
6
CONTINUOUS
10
80.1114
20
-113.496
11
80.0761
21
-113.482
0
LINE
8
BLACK
6
CONTINUOUS
10
80.0761
20
-113.482
11
80.0614
21
-113.446
0
LINE
8
BLACK
6
CONTINUOUS
10
80.0614
20
-113.446
11
80.0614
21
-112.946
0
LINE
8
BLACK
6
CONTINUOUS
10
80.0614
20
-112.946
11
80.0761
21
-112.911
0
LINE
8
BLACK
6
CONTINUOUS
10
80.0761
20
-112.911
11
80.1114
21
-112.896
0
LINE
8
BLACK
6
CONTINUOUS
10
80.1114
20
-112.896
11
80.1468
21
-112.911
0
LINE
8
BLACK
6
CONTINUOUS
10
80.1709
20
-113.163
11
80.1614
21
-113.168
0
LINE
8
BLACK
6
CONTINUOUS
10
80.1614
20
-113.168
11
80.1614
21
-113.391
0
LINE
8
BLACK
6
CONTINUOUS
10
80.1614
20
-113.391
11
80.1709
21
-113.396
0
LINE
8
BLACK
6
CONTINUOUS
10
80.1709
20
-113.396
11
80.2425
21
-113.396
0
LINE
8
BLACK
6
CONTINUOUS
10
80.2425
20
-113.396
11
80.2723
21
-113.381
0
LINE
8
BLACK
6
CONTINUOUS
10
80.2723
20
-113.381
11
80.2846
21
-113.369
0
LINE
8
BLACK
6
CONTINUOUS
10
80.2846
20
-113.369
11
80.2995
21
-113.339
0
LINE
8
BLACK
6
CONTINUOUS
10
80.2995
20
-113.339
11
80.2995
21
-113.22
0
LINE
8
BLACK
6
CONTINUOUS
10
80.2995
20
-113.22
11
80.2846
21
-113.19
0
LINE
8
BLACK
6
CONTINUOUS
10
80.2846
20
-113.19
11
80.2723
21
-113.178
0
LINE
8
BLACK
6
CONTINUOUS
10
80.2723
20
-113.178
11
80.2425
21
-113.163
0
LINE
8
BLACK
6
CONTINUOUS
10
80.2425
20
-113.163
11
80.1709
21
-113.163
0
LINE
8
BLACK
6
CONTINUOUS
10
78.6222
20
-113.067
11
78.6338
21
-113.068
0
LINE
8
BLACK
6
CONTINUOUS
10
78.6338
20
-113.068
11
78.6814
21
-113.092
0
LINE
8
BLACK
6
CONTINUOUS
10
78.6814
20
-113.092
11
78.6868
21
-113.098
0
LINE
8
BLACK
6
CONTINUOUS
10
78.6868
20
-113.098
11
78.6944
21
-113.101
0
LINE
8
BLACK
6
CONTINUOUS
10
78.6944
20
-113.101
11
78.7182
21
-113.125
0
LINE
8
BLACK
6
CONTINUOUS
10
78.7182
20
-113.125
11
78.7214
21
-113.133
0
LINE
8
BLACK
6
CONTINUOUS
10
78.7214
20
-113.133
11
78.7276
21
-113.138
0
LINE
8
BLACK
6
CONTINUOUS
10
78.7276
20
-113.138
11
78.7514
21
-113.186
0
LINE
8
BLACK
6
CONTINUOUS
10
78.7514
20
-113.186
11
78.7522
21
-113.197
0
LINE
8
BLACK
6
CONTINUOUS
10
78.7522
20
-113.197
11
78.7567
21
-113.208
0
LINE
8
BLACK
6
CONTINUOUS
10
78.7567
20
-113.208
11
78.7567
21
-113.351
0
LINE
8
BLACK
6
CONTINUOUS
10
78.7567
20
-113.351
11
78.7522
21
-113.362
0
LINE
8
BLACK
6
CONTINUOUS
10
78.7522
20
-113.362
11
78.7514
21
-113.373
0
LINE
8
BLACK
6
CONTINUOUS
10
78.7514
20
-113.373
11
78.7276
21
-113.421
0
LINE
8
BLACK
6
CONTINUOUS
10
78.7276
20
-113.421
11
78.7214
21
-113.426
0
LINE
8
BLACK
6
CONTINUOUS
10
78.7214
20
-113.426
11
78.7182
21
-113.434
0
LINE
8
BLACK
6
CONTINUOUS
10
78.7182
20
-113.434
11
78.6944
21
-113.458
0
LINE
8
BLACK
6
CONTINUOUS
10
78.6944
20
-113.458
11
78.6868
21
-113.461
0
LINE
8
BLACK
6
CONTINUOUS
10
78.6868
20
-113.461
11
78.6814
21
-113.467
0
LINE
8
BLACK
6
CONTINUOUS
10
78.6814
20
-113.467
11
78.6338
21
-113.491
0
LINE
8
BLACK
6
CONTINUOUS
10
78.6338
20
-113.491
11
78.6222
21
-113.492
0
LINE
8
BLACK
6
CONTINUOUS
10
78.6222
20
-113.492
11
78.6114
21
-113.496
0
LINE
8
BLACK
6
CONTINUOUS
10
78.6114
20
-113.496
11
78.54
21
-113.496
0
LINE
8
BLACK
6
CONTINUOUS
10
78.54
20
-113.496
11
78.5292
21
-113.492
0
LINE
8
BLACK
6
CONTINUOUS
10
78.5292
20
-113.492
11
78.5176
21
-113.491
0
LINE
8
BLACK
6
CONTINUOUS
10
78.5176
20
-113.491
11
78.47
21
-113.467
0
LINE
8
BLACK
6
CONTINUOUS
10
78.47
20
-113.467
11
78.4646
21
-113.461
0
LINE
8
BLACK
6
CONTINUOUS
10
78.4646
20
-113.461
11
78.457
21
-113.458
0
LINE
8
BLACK
6
CONTINUOUS
10
78.457
20
-113.458
11
78.4332
21
-113.434
0
LINE
8
BLACK
6
CONTINUOUS
10
78.4332
20
-113.434
11
78.4301
21
-113.426
0
LINE
8
BLACK
6
CONTINUOUS
10
78.4301
20
-113.426
11
78.4239
21
-113.421
0
LINE
8
BLACK
6
CONTINUOUS
10
78.4239
20
-113.421
11
78.4
21
-113.373
0
LINE
8
BLACK
6
CONTINUOUS
10
78.4
20
-113.373
11
78.3992
21
-113.362
0
LINE
8
BLACK
6
CONTINUOUS
10
78.3992
20
-113.362
11
78.3948
21
-113.351
0
LINE
8
BLACK
6
CONTINUOUS
10
78.3948
20
-113.351
11
78.3948
21
-113.208
0
LINE
8
BLACK
6
CONTINUOUS
10
78.3948
20
-113.208
11
78.3992
21
-113.197
0
LINE
8
BLACK
6
CONTINUOUS
10
78.3992
20
-113.197
11
78.4
21
-113.186
0
LINE
8
BLACK
6
CONTINUOUS
10
78.4
20
-113.186
11
78.4239
21
-113.138
0
LINE
8
BLACK
6
CONTINUOUS
10
78.4239
20
-113.138
11
78.4301
21
-113.133
0
LINE
8
BLACK
6
CONTINUOUS
10
78.4301
20
-113.133
11
78.4332
21
-113.125
0
LINE
8
BLACK
6
CONTINUOUS
10
78.4332
20
-113.125
11
78.457
21
-113.101
0
LINE
8
BLACK
6
CONTINUOUS
10
78.457
20
-113.101
11
78.4646
21
-113.098
0
LINE
8
BLACK
6
CONTINUOUS
10
78.4646
20
-113.098
11
78.47
21
-113.092
0
LINE
8
BLACK
6
CONTINUOUS
10
78.47
20
-113.092
11
78.5176
21
-113.068
0
LINE
8
BLACK
6
CONTINUOUS
10
78.5176
20
-113.068
11
78.5292
21
-113.067
0
LINE
8
BLACK
6
CONTINUOUS
10
78.5292
20
-113.067
11
78.54
21
-113.063
0
LINE
8
BLACK
6
CONTINUOUS
10
78.54
20
-113.063
11
78.6114
21
-113.063
0
LINE
8
BLACK
6
CONTINUOUS
10
78.6114
20
-113.063
11
78.6222
21
-113.067
0
LINE
8
BLACK
6
CONTINUOUS
10
78.5518
20
-113.163
11
78.522
21
-113.178
0
LINE
8
BLACK
6
CONTINUOUS
10
78.522
20
-113.178
11
78.5097
21
-113.19
0
LINE
8
BLACK
6
CONTINUOUS
10
78.5097
20
-113.19
11
78.4948
21
-113.22
0
LINE
8
BLACK
6
CONTINUOUS
10
78.4948
20
-113.22
11
78.4948
21
-113.339
0
LINE
8
BLACK
6
CONTINUOUS
10
78.4948
20
-113.339
11
78.5097
21
-113.369
0
LINE
8
BLACK
6
CONTINUOUS
10
78.5097
20
-113.369
11
78.522
21
-113.381
0
LINE
8
BLACK
6
CONTINUOUS
10
78.522
20
-113.381
11
78.5518
21
-113.396
0
LINE
8
BLACK
6
CONTINUOUS
10
78.5518
20
-113.396
11
78.5996
21
-113.396
0
LINE
8
BLACK
6
CONTINUOUS
10
78.5996
20
-113.396
11
78.6294
21
-113.381
0
LINE
8
BLACK
6
CONTINUOUS
10
78.6294
20
-113.381
11
78.6418
21
-113.369
0
LINE
8
BLACK
6
CONTINUOUS
10
78.6418
20
-113.369
11
78.6567
21
-113.339
0
LINE
8
BLACK
6
CONTINUOUS
10
78.6567
20
-113.339
11
78.6567
21
-113.22
0
LINE
8
BLACK
6
CONTINUOUS
10
78.6567
20
-113.22
11
78.6418
21
-113.19
0
LINE
8
BLACK
6
CONTINUOUS
10
78.6418
20
-113.19
11
78.6294
21
-113.178
0
LINE
8
BLACK
6
CONTINUOUS
10
78.6294
20
-113.178
11
78.5996
21
-113.163
0
LINE
8
BLACK
6
CONTINUOUS
10
78.5996
20
-113.163
11
78.5518
21
-113.163
0
LINE
8
BLACK
6
CONTINUOUS
10
77.6936
20
-113.067
11
77.7052
21
-113.068
0
LINE
8
BLACK
6
CONTINUOUS
10
77.7052
20
-113.068
11
77.7395
21
-113.085
0
LINE
8
BLACK
6
CONTINUOUS
10
77.7395
20
-113.085
11
77.7427
21
-113.078
0
LINE
8
BLACK
6
CONTINUOUS
10
77.7427
20
-113.078
11
77.7781
21
-113.063
0
LINE
8
BLACK
6
CONTINUOUS
10
77.7781
20
-113.063
11
77.8135
21
-113.078
0
LINE
8
BLACK
6
CONTINUOUS
10
77.8135
20
-113.078
11
77.8281
21
-113.113
0
LINE
8
BLACK
6
CONTINUOUS
10
77.8281
20
-113.113
11
77.8281
21
-113.446
0
LINE
8
BLACK
6
CONTINUOUS
10
77.8281
20
-113.446
11
77.8135
21
-113.482
0
LINE
8
BLACK
6
CONTINUOUS
10
77.8135
20
-113.482
11
77.7781
21
-113.496
0
LINE
8
BLACK
6
CONTINUOUS
10
77.7781
20
-113.496
11
77.7427
21
-113.482
0
LINE
8
BLACK
6
CONTINUOUS
10
77.7427
20
-113.482
11
77.7281
21
-113.446
0
LINE
8
BLACK
6
CONTINUOUS
10
77.7281
20
-113.446
11
77.7281
21
-113.22
0
LINE
8
BLACK
6
CONTINUOUS
10
77.7281
20
-113.22
11
77.7132
21
-113.19
0
LINE
8
BLACK
6
CONTINUOUS
10
77.7132
20
-113.19
11
77.7009
21
-113.178
0
LINE
8
BLACK
6
CONTINUOUS
10
77.7009
20
-113.178
11
77.6711
21
-113.163
0
LINE
8
BLACK
6
CONTINUOUS
10
77.6711
20
-113.163
11
77.6352
21
-113.163
0
LINE
8
BLACK
6
CONTINUOUS
10
77.6352
20
-113.163
11
77.5999
21
-113.148
0
LINE
8
BLACK
6
CONTINUOUS
10
77.5999
20
-113.148
11
77.5852
21
-113.113
0
LINE
8
BLACK
6
CONTINUOUS
10
77.5852
20
-113.113
11
77.5999
21
-113.078
0
LINE
8
BLACK
6
CONTINUOUS
10
77.5999
20
-113.078
11
77.6352
21
-113.063
0
LINE
8
BLACK
6
CONTINUOUS
10
77.6352
20
-113.063
11
77.6829
21
-113.063
0
LINE
8
BLACK
6
CONTINUOUS
10
77.6829
20
-113.063
11
77.6936
21
-113.067
0
LINE
8
BLACK
6
CONTINUOUS
10
82.5277
20
-112.911
11
82.5424
21
-112.946
0
LINE
8
BLACK
6
CONTINUOUS
10
82.5424
20
-112.946
11
82.5424
21
-113.351
0
LINE
8
BLACK
6
CONTINUOUS
10
82.5424
20
-113.351
11
82.5379
21
-113.362
0
LINE
8
BLACK
6
CONTINUOUS
10
82.5379
20
-113.362
11
82.5371
21
-113.373
0
LINE
8
BLACK
6
CONTINUOUS
10
82.5371
20
-113.373
11
82.5133
21
-113.421
0
LINE
8
BLACK
6
CONTINUOUS
10
82.5133
20
-113.421
11
82.5071
21
-113.426
0
LINE
8
BLACK
6
CONTINUOUS
10
82.5071
20
-113.426
11
82.5039
21
-113.434
0
LINE
8
BLACK
6
CONTINUOUS
10
82.5039
20
-113.434
11
82.4801
21
-113.458
0
LINE
8
BLACK
6
CONTINUOUS
10
82.4801
20
-113.458
11
82.4725
21
-113.461
0
LINE
8
BLACK
6
CONTINUOUS
10
82.4725
20
-113.461
11
82.4671
21
-113.467
0
LINE
8
BLACK
6
CONTINUOUS
10
82.4671
20
-113.467
11
82.4195
21
-113.491
0
LINE
8
BLACK
6
CONTINUOUS
10
82.4195
20
-113.491
11
82.4079
21
-113.492
0
LINE
8
BLACK
6
CONTINUOUS
10
82.4079
20
-113.492
11
82.3971
21
-113.496
0
LINE
8
BLACK
6
CONTINUOUS
10
82.3971
20
-113.496
11
82.3019
21
-113.496
0
LINE
8
BLACK
6
CONTINUOUS
10
82.3019
20
-113.496
11
82.2912
21
-113.492
0
LINE
8
BLACK
6
CONTINUOUS
10
82.2912
20
-113.492
11
82.2795
21
-113.491
0
LINE
8
BLACK
6
CONTINUOUS
10
82.2795
20
-113.491
11
82.2319
21
-113.467
0
LINE
8
BLACK
6
CONTINUOUS
10
82.2319
20
-113.467
11
82.2265
21
-113.461
0
LINE
8
BLACK
6
CONTINUOUS
10
82.2265
20
-113.461
11
82.2189
21
-113.458
0
LINE
8
BLACK
6
CONTINUOUS
10
82.2189
20
-113.458
11
82.1951
21
-113.434
0
LINE
8
BLACK
6
CONTINUOUS
10
82.1951
20
-113.434
11
82.192
21
-113.426
0
LINE
8
BLACK
6
CONTINUOUS
10
82.192
20
-113.426
11
82.1858
21
-113.421
0
LINE
8
BLACK
6
CONTINUOUS
10
82.1858
20
-113.421
11
82.1619
21
-113.373
0
LINE
8
BLACK
6
CONTINUOUS
10
82.1619
20
-113.373
11
82.1611
21
-113.362
0
LINE
8
BLACK
6
CONTINUOUS
10
82.1611
20
-113.362
11
82.1567
21
-113.351
0
LINE
8
BLACK
6
CONTINUOUS
10
82.1567
20
-113.351
11
82.1567
21
-112.946
0
LINE
8
BLACK
6
CONTINUOUS
10
82.1567
20
-112.946
11
82.1713
21
-112.911
0
LINE
8
BLACK
6
CONTINUOUS
10
82.1713
20
-112.911
11
82.2067
21
-112.896
0
LINE
8
BLACK
6
CONTINUOUS
10
82.2067
20
-112.896
11
82.242
21
-112.911
0
LINE
8
BLACK
6
CONTINUOUS
10
82.242
20
-112.911
11
82.2567
21
-112.946
0
LINE
8
BLACK
6
CONTINUOUS
10
82.2567
20
-112.946
11
82.2567
21
-113.339
0
LINE
8
BLACK
6
CONTINUOUS
10
82.2567
20
-113.339
11
82.2716
21
-113.369
0
LINE
8
BLACK
6
CONTINUOUS
10
82.2716
20
-113.369
11
82.2839
21
-113.381
0
LINE
8
BLACK
6
CONTINUOUS
10
82.2839
20
-113.381
11
82.3137
21
-113.396
0
LINE
8
BLACK
6
CONTINUOUS
10
82.3137
20
-113.396
11
82.3853
21
-113.396
0
LINE
8
BLACK
6
CONTINUOUS
10
82.3853
20
-113.396
11
82.4151
21
-113.381
0
LINE
8
BLACK
6
CONTINUOUS
10
82.4151
20
-113.381
11
82.4275
21
-113.369
0
LINE
8
BLACK
6
CONTINUOUS
10
82.4275
20
-113.369
11
82.4424
21
-113.339
0
LINE
8
BLACK
6
CONTINUOUS
10
82.4424
20
-113.339
11
82.4424
21
-112.946
0
LINE
8
BLACK
6
CONTINUOUS
10
82.4424
20
-112.946
11
82.457
21
-112.911
0
LINE
8
BLACK
6
CONTINUOUS
10
82.457
20
-112.911
11
82.4924
21
-112.896
0
LINE
8
BLACK
6
CONTINUOUS
10
82.4924
20
-112.896
11
82.5277
21
-112.911
0
LINE
8
BLACK
6
CONTINUOUS
10
77.4317
20
-113.067
11
77.4433
21
-113.068
0
LINE
8
BLACK
6
CONTINUOUS
10
77.4433
20
-113.068
11
77.4909
21
-113.092
0
LINE
8
BLACK
6
CONTINUOUS
10
77.4909
20
-113.092
11
77.516
21
-113.121
0
LINE
8
BLACK
6
CONTINUOUS
10
77.516
20
-113.121
11
77.5133
21
-113.159
0
LINE
8
BLACK
6
CONTINUOUS
10
77.5133
20
-113.159
11
77.4844
21
-113.184
0
LINE
8
BLACK
6
CONTINUOUS
10
77.4844
20
-113.184
11
77.4462
21
-113.181
0
LINE
8
BLACK
6
CONTINUOUS
10
77.4462
20
-113.181
11
77.4091
21
-113.163
0
LINE
8
BLACK
6
CONTINUOUS
10
77.4091
20
-113.163
11
77.3375
21
-113.163
0
LINE
8
BLACK
6
CONTINUOUS
10
77.3375
20
-113.163
11
77.3154
21
-113.174
0
LINE
8
BLACK
6
CONTINUOUS
10
77.3154
20
-113.174
11
77.3043
21
-113.196
0
LINE
8
BLACK
6
CONTINUOUS
10
77.3043
20
-113.196
11
77.3043
21
-113.201
0
LINE
8
BLACK
6
CONTINUOUS
10
77.3043
20
-113.201
11
77.3137
21
-113.206
0
LINE
8
BLACK
6
CONTINUOUS
10
77.3137
20
-113.206
11
77.421
21
-113.206
0
LINE
8
BLACK
6
CONTINUOUS
10
77.421
20
-113.206
11
77.4317
21
-113.21
0
LINE
8
BLACK
6
CONTINUOUS
10
77.4317
20
-113.21
11
77.4433
21
-113.211
0
LINE
8
BLACK
6
CONTINUOUS
10
77.4433
20
-113.211
11
77.4909
21
-113.235
0
LINE
8
BLACK
6
CONTINUOUS
10
77.4909
20
-113.235
11
77.5013
21
-113.247
0
LINE
8
BLACK
6
CONTINUOUS
10
77.5013
20
-113.247
11
77.5133
21
-113.257
0
LINE
8
BLACK
6
CONTINUOUS
10
77.5133
20
-113.257
11
77.5371
21
-113.305
0
LINE
8
BLACK
6
CONTINUOUS
10
77.5371
20
-113.305
11
77.5379
21
-113.316
0
LINE
8
BLACK
6
CONTINUOUS
10
77.5379
20
-113.316
11
77.5424
21
-113.327
0
LINE
8
BLACK
6
CONTINUOUS
10
77.5424
20
-113.327
11
77.5424
21
-113.375
0
LINE
8
BLACK
6
CONTINUOUS
10
77.5424
20
-113.375
11
77.5379
21
-113.386
0
LINE
8
BLACK
6
CONTINUOUS
10
77.5379
20
-113.386
11
77.5371
21
-113.397
0
LINE
8
BLACK
6
CONTINUOUS
10
77.5371
20
-113.397
11
77.5133
21
-113.445
0
LINE
8
BLACK
6
CONTINUOUS
10
77.5133
20
-113.445
11
77.5013
21
-113.455
0
LINE
8
BLACK
6
CONTINUOUS
10
77.5013
20
-113.455
11
77.4909
21
-113.467
0
LINE
8
BLACK
6
CONTINUOUS
10
77.4909
20
-113.467
11
77.4433
21
-113.491
0
LINE
8
BLACK
6
CONTINUOUS
10
77.4433
20
-113.491
11
77.4317
21
-113.492
0
LINE
8
BLACK
6
CONTINUOUS
10
77.4317
20
-113.492
11
77.421
21
-113.496
0
LINE
8
BLACK
6
CONTINUOUS
10
77.421
20
-113.496
11
77.3019
21
-113.496
0
LINE
8
BLACK
6
CONTINUOUS
10
77.3019
20
-113.496
11
77.2912
21
-113.492
0
LINE
8
BLACK
6
CONTINUOUS
10
77.2912
20
-113.492
11
77.2795
21
-113.491
0
LINE
8
BLACK
6
CONTINUOUS
10
77.2795
20
-113.491
11
77.2739
21
-113.488
0
LINE
8
BLACK
6
CONTINUOUS
10
77.2739
20
-113.488
11
77.2543
21
-113.496
0
LINE
8
BLACK
6
CONTINUOUS
10
77.2543
20
-113.496
11
77.2189
21
-113.482
0
LINE
8
BLACK
6
CONTINUOUS
10
77.2189
20
-113.482
11
77.2043
21
-113.446
0
LINE
8
BLACK
6
CONTINUOUS
10
77.2043
20
-113.446
11
77.2043
21
-113.184
0
LINE
8
BLACK
6
CONTINUOUS
10
77.2043
20
-113.184
11
77.2087
21
-113.174
0
LINE
8
BLACK
6
CONTINUOUS
10
77.2087
20
-113.174
11
77.2096
21
-113.162
0
LINE
8
BLACK
6
CONTINUOUS
10
77.2096
20
-113.162
11
77.2334
21
-113.114
0
LINE
8
BLACK
6
CONTINUOUS
10
77.2334
20
-113.114
11
77.2453
21
-113.104
0
LINE
8
BLACK
6
CONTINUOUS
10
77.2453
20
-113.104
11
77.2557
21
-113.092
0
LINE
8
BLACK
6
CONTINUOUS
10
77.2557
20
-113.092
11
77.3034
21
-113.068
0
LINE
8
BLACK
6
CONTINUOUS
10
77.3034
20
-113.068
11
77.315
21
-113.067
0
LINE
8
BLACK
6
CONTINUOUS
10
77.315
20
-113.067
11
77.3257
21
-113.063
0
LINE
8
BLACK
6
CONTINUOUS
10
77.3257
20
-113.063
11
77.421
21
-113.063
0
LINE
8
BLACK
6
CONTINUOUS
10
77.421
20
-113.063
11
77.4317
21
-113.067
0
LINE
8
BLACK
6
CONTINUOUS
10
77.3043
20
-113.306
11
77.3043
21
-113.391
0
LINE
8
BLACK
6
CONTINUOUS
10
77.3043
20
-113.391
11
77.3137
21
-113.396
0
LINE
8
BLACK
6
CONTINUOUS
10
77.3137
20
-113.396
11
77.4091
21
-113.396
0
LINE
8
BLACK
6
CONTINUOUS
10
77.4091
20
-113.396
11
77.4313
21
-113.385
0
LINE
8
BLACK
6
CONTINUOUS
10
77.4313
20
-113.385
11
77.4424
21
-113.363
0
LINE
8
BLACK
6
CONTINUOUS
10
77.4424
20
-113.363
11
77.4424
21
-113.339
0
LINE
8
BLACK
6
CONTINUOUS
10
77.4424
20
-113.339
11
77.4313
21
-113.317
0
LINE
8
BLACK
6
CONTINUOUS
10
77.4313
20
-113.317
11
77.4091
21
-113.306
0
LINE
8
BLACK
6
CONTINUOUS
10
77.4091
20
-113.306
11
77.3043
21
-113.306
0
LINE
8
BLACK
6
CONTINUOUS
10
78.9079
20
-113.067
11
78.9195
21
-113.068
0
LINE
8
BLACK
6
CONTINUOUS
10
78.9195
20
-113.068
11
78.9538
21
-113.085
0
LINE
8
BLACK
6
CONTINUOUS
10
78.9538
20
-113.085
11
78.957
21
-113.078
0
LINE
8
BLACK
6
CONTINUOUS
10
78.957
20
-113.078
11
78.9924
21
-113.063
0
LINE
8
BLACK
6
CONTINUOUS
10
78.9924
20
-113.063
11
79.0277
21
-113.078
0
LINE
8
BLACK
6
CONTINUOUS
10
79.0277
20
-113.078
11
79.0424
21
-113.113
0
LINE
8
BLACK
6
CONTINUOUS
10
79.0424
20
-113.113
11
79.0424
21
-113.446
0
LINE
8
BLACK
6
CONTINUOUS
10
79.0424
20
-113.446
11
79.0277
21
-113.482
0
LINE
8
BLACK
6
CONTINUOUS
10
79.0277
20
-113.482
11
78.9924
21
-113.496
0
LINE
8
BLACK
6
CONTINUOUS
10
78.9924
20
-113.496
11
78.957
21
-113.482
0
LINE
8
BLACK
6
CONTINUOUS
10
78.957
20
-113.482
11
78.9424
21
-113.446
0
LINE
8
BLACK
6
CONTINUOUS
10
78.9424
20
-113.446
11
78.9424
21
-113.22
0
LINE
8
BLACK
6
CONTINUOUS
10
78.9424
20
-113.22
11
78.9275
21
-113.19
0
LINE
8
BLACK
6
CONTINUOUS
10
78.9275
20
-113.19
11
78.9151
21
-113.178
0
LINE
8
BLACK
6
CONTINUOUS
10
78.9151
20
-113.178
11
78.8853
21
-113.163
0
LINE
8
BLACK
6
CONTINUOUS
10
78.8853
20
-113.163
11
78.8495
21
-113.163
0
LINE
8
BLACK
6
CONTINUOUS
10
78.8495
20
-113.163
11
78.8142
21
-113.148
0
LINE
8
BLACK
6
CONTINUOUS
10
78.8142
20
-113.148
11
78.7995
21
-113.113
0
LINE
8
BLACK
6
CONTINUOUS
10
78.7995
20
-113.113
11
78.8142
21
-113.078
0
LINE
8
BLACK
6
CONTINUOUS
10
78.8142
20
-113.078
11
78.8495
21
-113.063
0
LINE
8
BLACK
6
CONTINUOUS
10
78.8495
20
-113.063
11
78.8971
21
-113.063
0
LINE
8
BLACK
6
CONTINUOUS
10
78.8971
20
-113.063
11
78.9079
21
-113.067
0
LINE
8
BLACK
6
CONTINUOUS
10
80.7174
20
-113.067
11
80.729
21
-113.068
0
LINE
8
BLACK
6
CONTINUOUS
10
80.729
20
-113.068
11
80.7766
21
-113.092
0
LINE
8
BLACK
6
CONTINUOUS
10
80.7766
20
-113.092
11
80.787
21
-113.104
0
LINE
8
BLACK
6
CONTINUOUS
10
80.787
20
-113.104
11
80.799
21
-113.114
0
LINE
8
BLACK
6
CONTINUOUS
10
80.799
20
-113.114
11
80.8228
21
-113.162
0
LINE
8
BLACK
6
CONTINUOUS
10
80.8228
20
-113.162
11
80.8236
21
-113.174
0
LINE
8
BLACK
6
CONTINUOUS
10
80.8236
20
-113.174
11
80.8281
21
-113.184
0
LINE
8
BLACK
6
CONTINUOUS
10
80.8281
20
-113.184
11
80.8281
21
-113.375
0
LINE
8
BLACK
6
CONTINUOUS
10
80.8281
20
-113.375
11
80.8236
21
-113.386
0
LINE
8
BLACK
6
CONTINUOUS
10
80.8236
20
-113.386
11
80.8228
21
-113.397
0
LINE
8
BLACK
6
CONTINUOUS
10
80.8228
20
-113.397
11
80.799
21
-113.445
0
LINE
8
BLACK
6
CONTINUOUS
10
80.799
20
-113.445
11
80.787
21
-113.455
0
LINE
8
BLACK
6
CONTINUOUS
10
80.787
20
-113.455
11
80.7766
21
-113.467
0
LINE
8
BLACK
6
CONTINUOUS
10
80.7766
20
-113.467
11
80.729
21
-113.491
0
LINE
8
BLACK
6
CONTINUOUS
10
80.729
20
-113.491
11
80.7174
21
-113.492
0
LINE
8
BLACK
6
CONTINUOUS
10
80.7174
20
-113.492
11
80.7067
21
-113.496
0
LINE
8
BLACK
6
CONTINUOUS
10
80.7067
20
-113.496
11
80.6114
21
-113.496
0
LINE
8
BLACK
6
CONTINUOUS
10
80.6114
20
-113.496
11
80.6007
21
-113.492
0
LINE
8
BLACK
6
CONTINUOUS
10
80.6007
20
-113.492
11
80.5891
21
-113.491
0
LINE
8
BLACK
6
CONTINUOUS
10
80.5891
20
-113.491
11
80.5414
21
-113.467
0
LINE
8
BLACK
6
CONTINUOUS
10
80.5414
20
-113.467
11
80.5164
21
-113.438
0
LINE
8
BLACK
6
CONTINUOUS
10
80.5164
20
-113.438
11
80.5191
21
-113.4
0
LINE
8
BLACK
6
CONTINUOUS
10
80.5191
20
-113.4
11
80.548
21
-113.375
0
LINE
8
BLACK
6
CONTINUOUS
10
80.548
20
-113.375
11
80.5862
21
-113.378
0
LINE
8
BLACK
6
CONTINUOUS
10
80.5862
20
-113.378
11
80.6232
21
-113.396
0
LINE
8
BLACK
6
CONTINUOUS
10
80.6232
20
-113.396
11
80.6949
21
-113.396
0
LINE
8
BLACK
6
CONTINUOUS
10
80.6949
20
-113.396
11
80.717
21
-113.385
0
LINE
8
BLACK
6
CONTINUOUS
10
80.717
20
-113.385
11
80.7281
21
-113.363
0
LINE
8
BLACK
6
CONTINUOUS
10
80.7281
20
-113.363
11
80.7281
21
-113.321
0
LINE
8
BLACK
6
CONTINUOUS
10
80.7281
20
-113.321
11
80.5302
21
-113.281
0
LINE
8
BLACK
6
CONTINUOUS
10
80.5302
20
-113.281
11
80.5181
21
-113.273
0
LINE
8
BLACK
6
CONTINUOUS
10
80.5181
20
-113.273
11
80.5046
21
-113.267
0
LINE
8
BLACK
6
CONTINUOUS
10
80.5046
20
-113.267
11
80.5027
21
-113.263
0
LINE
8
BLACK
6
CONTINUOUS
10
80.5027
20
-113.263
11
80.4984
21
-113.26
0
LINE
8
BLACK
6
CONTINUOUS
10
80.4984
20
-113.26
11
80.4956
21
-113.245
0
LINE
8
BLACK
6
CONTINUOUS
10
80.4956
20
-113.245
11
80.49
21
-113.232
0
LINE
8
BLACK
6
CONTINUOUS
10
80.49
20
-113.232
11
80.49
21
-113.184
0
LINE
8
BLACK
6
CONTINUOUS
10
80.49
20
-113.184
11
80.4945
21
-113.174
0
LINE
8
BLACK
6
CONTINUOUS
10
80.4945
20
-113.174
11
80.4953
21
-113.162
0
LINE
8
BLACK
6
CONTINUOUS
10
80.4953
20
-113.162
11
80.5191
21
-113.114
0
LINE
8
BLACK
6
CONTINUOUS
10
80.5191
20
-113.114
11
80.5311
21
-113.104
0
LINE
8
BLACK
6
CONTINUOUS
10
80.5311
20
-113.104
11
80.5414
21
-113.092
0
LINE
8
BLACK
6
CONTINUOUS
10
80.5414
20
-113.092
11
80.5891
21
-113.068
0
LINE
8
BLACK
6
CONTINUOUS
10
80.5891
20
-113.068
11
80.6007
21
-113.067
0
LINE
8
BLACK
6
CONTINUOUS
10
80.6007
20
-113.067
11
80.6114
21
-113.063
0
LINE
8
BLACK
6
CONTINUOUS
10
80.6114
20
-113.063
11
80.7067
21
-113.063
0
LINE
8
BLACK
6
CONTINUOUS
10
80.7067
20
-113.063
11
80.7174
21
-113.067
0
LINE
8
BLACK
6
CONTINUOUS
10
80.6232
20
-113.163
11
80.6011
21
-113.174
0
LINE
8
BLACK
6
CONTINUOUS
10
80.6011
20
-113.174
11
80.5924
21
-113.191
0
LINE
8
BLACK
6
CONTINUOUS
10
80.5924
20
-113.191
11
80.7281
21
-113.219
0
LINE
8
BLACK
6
CONTINUOUS
10
80.7281
20
-113.219
11
80.7281
21
-113.196
0
LINE
8
BLACK
6
CONTINUOUS
10
80.7281
20
-113.196
11
80.717
21
-113.174
0
LINE
8
BLACK
6
CONTINUOUS
10
80.717
20
-113.174
11
80.6949
21
-113.163
0
LINE
8
BLACK
6
CONTINUOUS
10
80.6949
20
-113.163
11
80.6232
21
-113.163
0
LINE
8
BLACK
6
CONTINUOUS
10
81.0277
20
-113.078
11
81.0424
21
-113.113
0
LINE
8
BLACK
6
CONTINUOUS
10
81.0424
20
-113.113
11
81.0424
21
-113.446
0
LINE
8
BLACK
6
CONTINUOUS
10
81.0424
20
-113.446
11
81.0277
21
-113.482
0
LINE
8
BLACK
6
CONTINUOUS
10
81.0277
20
-113.482
11
80.9924
21
-113.496
0
LINE
8
BLACK
6
CONTINUOUS
10
80.9924
20
-113.496
11
80.957
21
-113.482
0
LINE
8
BLACK
6
CONTINUOUS
10
80.957
20
-113.482
11
80.9424
21
-113.446
0
LINE
8
BLACK
6
CONTINUOUS
10
80.9424
20
-113.446
11
80.9424
21
-113.113
0
LINE
8
BLACK
6
CONTINUOUS
10
80.9424
20
-113.113
11
80.957
21
-113.078
0
LINE
8
BLACK
6
CONTINUOUS
10
80.957
20
-113.078
11
80.9924
21
-113.063
0
LINE
8
BLACK
6
CONTINUOUS
10
80.9924
20
-113.063
11
81.0277
21
-113.078
0
LINE
8
BLACK
6
CONTINUOUS
10
79.5277
20
-112.911
11
79.5424
21
-112.946
0
LINE
8
BLACK
6
CONTINUOUS
10
79.5424
20
-112.946
11
79.5424
21
-113.446
0
LINE
8
BLACK
6
CONTINUOUS
10
79.5424
20
-113.446
11
79.5277
21
-113.482
0
LINE
8
BLACK
6
CONTINUOUS
10
79.5277
20
-113.482
11
79.4924
21
-113.496
0
LINE
8
BLACK
6
CONTINUOUS
10
79.4924
20
-113.496
11
79.457
21
-113.482
0
LINE
8
BLACK
6
CONTINUOUS
10
79.457
20
-113.482
11
79.4424
21
-113.446
0
LINE
8
BLACK
6
CONTINUOUS
10
79.4424
20
-113.446
11
79.4424
21
-113.258
0
LINE
8
BLACK
6
CONTINUOUS
10
79.4424
20
-113.258
11
79.3019
21
-113.258
0
LINE
8
BLACK
6
CONTINUOUS
10
79.3019
20
-113.258
11
79.2912
21
-113.254
0
LINE
8
BLACK
6
CONTINUOUS
10
79.2912
20
-113.254
11
79.2795
21
-113.253
0
LINE
8
BLACK
6
CONTINUOUS
10
79.2795
20
-113.253
11
79.2319
21
-113.229
0
LINE
8
BLACK
6
CONTINUOUS
10
79.2319
20
-113.229
11
79.2265
21
-113.223
0
LINE
8
BLACK
6
CONTINUOUS
10
79.2265
20
-113.223
11
79.2189
21
-113.22
0
LINE
8
BLACK
6
CONTINUOUS
10
79.2189
20
-113.22
11
79.1951
21
-113.196
0
LINE
8
BLACK
6
CONTINUOUS
10
79.1951
20
-113.196
11
79.192
21
-113.188
0
LINE
8
BLACK
6
CONTINUOUS
10
79.192
20
-113.188
11
79.1858
21
-113.183
0
LINE
8
BLACK
6
CONTINUOUS
10
79.1858
20
-113.183
11
79.1619
21
-113.135
0
LINE
8
BLACK
6
CONTINUOUS
10
79.1619
20
-113.135
11
79.1611
21
-113.124
0
LINE
8
BLACK
6
CONTINUOUS
10
79.1611
20
-113.124
11
79.1567
21
-113.113
0
LINE
8
BLACK
6
CONTINUOUS
10
79.1567
20
-113.113
11
79.1567
21
-113.041
0
LINE
8
BLACK
6
CONTINUOUS
10
79.1567
20
-113.041
11
79.1611
21
-113.031
0
LINE
8
BLACK
6
CONTINUOUS
10
79.1611
20
-113.031
11
79.1619
21
-113.019
0
LINE
8
BLACK
6
CONTINUOUS
10
79.1619
20
-113.019
11
79.1858
21
-112.971
0
LINE
8
BLACK
6
CONTINUOUS
10
79.1858
20
-112.971
11
79.192
21
-112.966
0
LINE
8
BLACK
6
CONTINUOUS
10
79.192
20
-112.966
11
79.1951
21
-112.958
0
LINE
8
BLACK
6
CONTINUOUS
10
79.1951
20
-112.958
11
79.2189
21
-112.935
0
LINE
8
BLACK
6
CONTINUOUS
10
79.2189
20
-112.935
11
79.2265
21
-112.931
0
LINE
8
BLACK
6
CONTINUOUS
10
79.2265
20
-112.931
11
79.2319
21
-112.925
0
LINE
8
BLACK
6
CONTINUOUS
10
79.2319
20
-112.925
11
79.2795
21
-112.901
0
LINE
8
BLACK
6
CONTINUOUS
10
79.2795
20
-112.901
11
79.2912
21
-112.901
0
LINE
8
BLACK
6
CONTINUOUS
10
79.2912
20
-112.901
11
79.3019
21
-112.896
0
LINE
8
BLACK
6
CONTINUOUS
10
79.3019
20
-112.896
11
79.4924
21
-112.896
0
LINE
8
BLACK
6
CONTINUOUS
10
79.4924
20
-112.896
11
79.5277
21
-112.911
0
LINE
8
BLACK
6
CONTINUOUS
10
79.3137
20
-112.996
11
79.2839
21
-113.011
0
LINE
8
BLACK
6
CONTINUOUS
10
79.2839
20
-113.011
11
79.2716
21
-113.023
0
LINE
8
BLACK
6
CONTINUOUS
10
79.2716
20
-113.023
11
79.2567
21
-113.053
0
LINE
8
BLACK
6
CONTINUOUS
10
79.2567
20
-113.053
11
79.2567
21
-113.101
0
LINE
8
BLACK
6
CONTINUOUS
10
79.2567
20
-113.101
11
79.2716
21
-113.131
0
LINE
8
BLACK
6
CONTINUOUS
10
79.2716
20
-113.131
11
79.2839
21
-113.143
0
LINE
8
BLACK
6
CONTINUOUS
10
79.2839
20
-113.143
11
79.3137
21
-113.158
0
LINE
8
BLACK
6
CONTINUOUS
10
79.3137
20
-113.158
11
79.4424
21
-113.158
0
LINE
8
BLACK
6
CONTINUOUS
10
79.4424
20
-113.158
11
79.4424
21
-112.996
0
LINE
8
BLACK
6
CONTINUOUS
10
79.4424
20
-112.996
11
79.3137
21
-112.996
0
LINE
8
BLACK
6
CONTINUOUS
10
81.4808
20
-113.029
11
81.4808
21
-113.029
0
LINE
8
BLACK
6
CONTINUOUS
10
81.4808
20
-113.029
11
81.457
21
-113.005
0
LINE
8
BLACK
6
CONTINUOUS
10
81.457
20
-113.005
11
81.4424
21
-112.97
0
LINE
8
BLACK
6
CONTINUOUS
10
81.4424
20
-112.97
11
81.4434
21
-112.968
0
LINE
8
BLACK
6
CONTINUOUS
10
81.4434
20
-112.968
11
81.451
21
-112.949
0
LINE
8
BLACK
6
CONTINUOUS
10
81.451
20
-112.949
11
81.457
21
-112.935
0
LINE
8
BLACK
6
CONTINUOUS
10
81.457
20
-112.935
11
81.457
21
-112.935
0
LINE
8
BLACK
6
CONTINUOUS
10
81.457
20
-112.935
11
81.4808
21
-112.911
0
LINE
8
BLACK
6
CONTINUOUS
10
81.4808
20
-112.911
11
81.4997
21
-112.903
0
LINE
8
BLACK
6
CONTINUOUS
10
81.4997
20
-112.903
11
81.5162
21
-112.896
0
LINE
8
BLACK
6
CONTINUOUS
10
81.5162
20
-112.896
11
81.5515
21
-112.911
0
LINE
8
BLACK
6
CONTINUOUS
10
81.5515
20
-112.911
11
81.5754
21
-112.935
0
LINE
8
BLACK
6
CONTINUOUS
10
81.5754
20
-112.935
11
81.5754
21
-112.935
0
LINE
8
BLACK
6
CONTINUOUS
10
81.5754
20
-112.935
11
81.5754
21
-112.935
0
LINE
8
BLACK
6
CONTINUOUS
10
81.5754
20
-112.935
11
81.59
21
-112.97
0
LINE
8
BLACK
6
CONTINUOUS
10
81.59
20
-112.97
11
81.5754
21
-113.005
0
LINE
8
BLACK
6
CONTINUOUS
10
81.5754
20
-113.005
11
81.5515
21
-113.029
0
LINE
8
BLACK
6
CONTINUOUS
10
81.5515
20
-113.029
11
81.5369
21
-113.035
0
LINE
8
BLACK
6
CONTINUOUS
10
81.5369
20
-113.035
11
81.5162
21
-113.044
0
LINE
8
BLACK
6
CONTINUOUS
10
81.5162
20
-113.044
11
81.5162
21
-113.044
0
LINE
8
BLACK
6
CONTINUOUS
10
81.5162
20
-113.044
11
81.4808
21
-113.029
0
LINE
8
BLACK
6
CONTINUOUS
10
80.957
20
-113.029
11
80.957
21
-113.029
0
LINE
8
BLACK
6
CONTINUOUS
10
80.957
20
-113.029
11
80.9332
21
-113.005
0
LINE
8
BLACK
6
CONTINUOUS
10
80.9332
20
-113.005
11
80.9332
21
-113.005
0
LINE
8
BLACK
6
CONTINUOUS
10
80.9332
20
-113.005
11
80.9186
21
-112.97
0
LINE
8
BLACK
6
CONTINUOUS
10
80.9186
20
-112.97
11
80.9196
21
-112.968
0
LINE
8
BLACK
6
CONTINUOUS
10
80.9196
20
-112.968
11
80.9272
21
-112.949
0
LINE
8
BLACK
6
CONTINUOUS
10
80.9272
20
-112.949
11
80.9332
21
-112.935
0
LINE
8
BLACK
6
CONTINUOUS
10
80.9332
20
-112.935
11
80.957
21
-112.911
0
LINE
8
BLACK
6
CONTINUOUS
10
80.957
20
-112.911
11
80.9924
21
-112.896
0
LINE
8
BLACK
6
CONTINUOUS
10
80.9924
20
-112.896
11
80.9924
21
-112.896
0
LINE
8
BLACK
6
CONTINUOUS
10
80.9924
20
-112.896
11
81.0027
21
-112.9
0
LINE
8
BLACK
6
CONTINUOUS
10
81.0027
20
-112.9
11
81.0277
21
-112.911
0
LINE
8
BLACK
6
CONTINUOUS
10
81.0277
20
-112.911
11
81.0277
21
-112.911
0
LINE
8
BLACK
6
CONTINUOUS
10
81.0277
20
-112.911
11
81.0277
21
-112.911
0
LINE
8
BLACK
6
CONTINUOUS
10
81.0277
20
-112.911
11
81.0515
21
-112.935
0
LINE
8
BLACK
6
CONTINUOUS
10
81.0515
20
-112.935
11
81.0515
21
-112.935
0
LINE
8
BLACK
6
CONTINUOUS
10
81.0515
20
-112.935
11
81.0515
21
-112.935
0
LINE
8
BLACK
6
CONTINUOUS
10
81.0515
20
-112.935
11
81.0662
21
-112.97
0
LINE
8
BLACK
6
CONTINUOUS
10
81.0662
20
-112.97
11
81.0515
21
-113.005
0
LINE
8
BLACK
6
CONTINUOUS
10
81.0515
20
-113.005
11
81.0277
21
-113.029
0
LINE
8
BLACK
6
CONTINUOUS
10
81.0277
20
-113.029
11
81.0027
21
-113.04
0
LINE
8
BLACK
6
CONTINUOUS
10
81.0027
20
-113.04
11
80.9924
21
-113.044
0
LINE
8
BLACK
6
CONTINUOUS
10
80.9924
20
-113.044
11
80.9924
21
-113.044
0
LINE
8
BLACK
6
CONTINUOUS
10
80.9924
20
-113.044
11
80.957
21
-113.029
0
LINE
8
BLACK
6
CONTINUOUS
10
61.8658
20
-99.6264
11
61.9262
21
-99.6611
0
LINE
8
BLACK
6
CONTINUOUS
10
61.9262
20
-99.6611
11
62.0705
21
-99.7033
0
LINE
8
BLACK
6
CONTINUOUS
10
62.0705
20
-99.7033
11
62.2767
21
-99.7397
0
LINE
8
BLACK
6
CONTINUOUS
10
62.2767
20
-99.7397
11
62.3559
21
-99.7532
0
LINE
8
BLACK
6
CONTINUOUS
10
62.3559
20
-99.7532
11
62.4969
21
-99.7924
0
LINE
8
BLACK
6
CONTINUOUS
10
62.4969
20
-99.7924
11
62.5736
21
-99.8454
0
LINE
8
BLACK
6
CONTINUOUS
10
62.5736
20
-99.8454
11
62.5967
21
-99.9184
0
LINE
8
BLACK
6
CONTINUOUS
10
62.5967
20
-99.9184
11
62.5964
21
-99.9263
0
LINE
8
BLACK
6
CONTINUOUS
10
62.5964
20
-99.9263
11
62.5859
21
-99.9464
0
LINE
8
BLACK
6
CONTINUOUS
10
62.5859
20
-99.9464
11
62.5739
21
-99.9693
0
LINE
8
BLACK
6
CONTINUOUS
10
62.5739
20
-99.9693
11
62.5639
21
-99.9884
0
LINE
8
BLACK
6
CONTINUOUS
10
62.5639
20
-99.9884
11
62.4667
21
-100.025
0
LINE
8
BLACK
6
CONTINUOUS
10
62.4667
20
-100.025
11
62.4581
21
-100.027
0
LINE
8
BLACK
6
CONTINUOUS
10
62.4581
20
-100.027
11
62.3657
21
-100.044
0
LINE
8
BLACK
6
CONTINUOUS
10
62.3657
20
-100.044
11
62.3167
21
-100.049
0
LINE
8
BLACK
6
CONTINUOUS
10
62.3167
20
-100.049
11
62.2802
21
-100.045
0
LINE
8
BLACK
6
CONTINUOUS
10
62.2802
20
-100.045
11
62.1837
21
-100.034
0
LINE
8
BLACK
6
CONTINUOUS
10
62.1837
20
-100.034
11
62.052
21
-100.019
0
LINE
8
BLACK
6
CONTINUOUS
10
62.052
20
-100.019
11
62.0073
21
-100.015
0
LINE
8
BLACK
6
CONTINUOUS
10
62.0073
20
-100.015
11
61.8914
21
-100.005
0
LINE
8
BLACK
6
CONTINUOUS
10
61.8914
20
-100.005
11
61.8291
21
-100.013
0
LINE
8
BLACK
6
CONTINUOUS
10
61.8291
20
-100.013
11
61.8003
21
-100.044
0
LINE
8
BLACK
6
CONTINUOUS
10
61.8003
20
-100.044
11
61.7858
21
-100.101
0
LINE
8
BLACK
6
CONTINUOUS
10
61.7858
20
-100.101
11
61.7848
21
-100.105
0
LINE
8
BLACK
6
CONTINUOUS
10
61.7848
20
-100.105
11
61.7663
21
-100.183
0
LINE
8
BLACK
6
CONTINUOUS
10
61.7663
20
-100.183
11
61.764
21
-100.193
0
LINE
8
BLACK
6
CONTINUOUS
10
61.764
20
-100.193
11
61.737
21
-100.281
0
LINE
8
BLACK
6
CONTINUOUS
10
61.737
20
-100.281
11
61.7321
21
-100.304
0
LINE
8
BLACK
6
CONTINUOUS
10
61.7321
20
-100.304
11
61.7531
21
-100.336
0
LINE
8
BLACK
6
CONTINUOUS
10
61.7531
20
-100.336
11
61.8252
21
-100.363
0
LINE
8
BLACK
6
CONTINUOUS
10
61.8252
20
-100.363
11
61.9626
21
-100.391
0
LINE
8
BLACK
6
CONTINUOUS
10
61.9626
20
-100.391
11
62.064
21
-100.411
0
LINE
8
BLACK
6
CONTINUOUS
10
62.064
20
-100.411
11
62.1948
21
-100.455
0
LINE
8
BLACK
6
CONTINUOUS
10
62.1948
20
-100.455
11
62.2879
21
-100.526
0
LINE
8
BLACK
6
CONTINUOUS
10
62.2879
20
-100.526
11
62.3624
21
-100.641
0
LINE
8
BLACK
6
CONTINUOUS
10
62.3624
20
-100.641
11
62.4372
21
-100.816
0
LINE
8
BLACK
6
CONTINUOUS
10
62.4372
20
-100.816
11
62.4845
21
-100.932
0
LINE
8
BLACK
6
CONTINUOUS
10
62.4845
20
-100.932
11
62.5375
21
-101.048
0
LINE
8
BLACK
6
CONTINUOUS
10
62.5375
20
-101.048
11
62.5433
21
-101.059
0
LINE
8
BLACK
6
CONTINUOUS
10
62.5433
20
-101.059
11
62.5757
21
-101.116
0
LINE
8
BLACK
6
CONTINUOUS
10
62.5757
20
-101.116
11
62.5776
21
-101.119
0
LINE
8
BLACK
6
CONTINUOUS
10
62.5776
20
-101.119
11
62.6137
21
-101.196
0
LINE
8
BLACK
6
CONTINUOUS
10
62.6137
20
-101.196
11
62.6591
21
-101.329
0
LINE
8
BLACK
6
CONTINUOUS
10
62.6591
20
-101.329
11
62.7091
21
-101.5
0
LINE
8
BLACK
6
CONTINUOUS
10
62.7091
20
-101.5
11
62.7223
21
-101.551
0
LINE
8
BLACK
6
CONTINUOUS
10
62.7223
20
-101.551
11
62.7511
21
-101.66
0
LINE
8
BLACK
6
CONTINUOUS
10
62.7511
20
-101.66
11
62.7589
21
-101.69
0
LINE
8
BLACK
6
CONTINUOUS
10
62.7589
20
-101.69
11
62.7793
21
-101.776
0
LINE
8
BLACK
6
CONTINUOUS
10
62.7793
20
-101.776
11
62.8036
21
-101.879
0
LINE
8
BLACK
6
CONTINUOUS
10
62.8036
20
-101.879
11
62.8184
21
-101.95
0
LINE
8
BLACK
6
CONTINUOUS
10
62.8184
20
-101.95
11
62.8387
21
-102.049
0
LINE
8
BLACK
6
CONTINUOUS
10
62.8387
20
-102.049
11
62.8463
21
-102.097
0
LINE
8
BLACK
6
CONTINUOUS
10
62.8463
20
-102.097
11
62.8593
21
-102.18
0
LINE
8
BLACK
6
CONTINUOUS
10
62.8593
20
-102.18
11
62.8608
21
-102.254
0
LINE
8
BLACK
6
CONTINUOUS
10
62.8608
20
-102.254
11
62.852
21
-102.311
0
LINE
8
BLACK
6
CONTINUOUS
10
62.852
20
-102.311
11
62.879
21
-102.348
0
LINE
8
BLACK
6
CONTINUOUS
10
62.879
20
-102.348
11
62.9666
21
-102.363
0
LINE
8
BLACK
6
CONTINUOUS
10
62.9666
20
-102.363
11
63.0289
21
-102.373
0
LINE
8
BLACK
6
CONTINUOUS
10
63.0289
20
-102.373
11
63.0877
21
-102.409
0
LINE
8
BLACK
6
CONTINUOUS
10
63.0877
20
-102.409
11
63.11
21
-102.493
0
LINE
8
BLACK
6
CONTINUOUS
10
63.11
20
-102.493
11
63.1233
21
-102.609
0
LINE
8
BLACK
6
CONTINUOUS
10
63.1233
20
-102.609
11
61.8534
21
-102.583
0
LINE
8
BLACK
6
CONTINUOUS
10
61.8534
20
-102.583
11
61.8146
21
-102.582
0
LINE
8
BLACK
6
CONTINUOUS
10
61.8146
20
-102.582
11
61.4561
21
-102.575
0
LINE
8
BLACK
6
CONTINUOUS
10
61.4561
20
-102.575
11
61.0855
21
-102.569
0
LINE
8
BLACK
6
CONTINUOUS
10
61.0855
20
-102.569
11
60.7211
21
-102.564
0
LINE
8
BLACK
6
CONTINUOUS
10
60.7211
20
-102.564
11
60.3815
21
-102.56
0
LINE
8
BLACK
6
CONTINUOUS
10
60.3815
20
-102.56
11
60.0851
21
-102.557
0
LINE
8
BLACK
6
CONTINUOUS
10
60.0851
20
-102.557
11
59.8502
21
-102.556
0
LINE
8
BLACK
6
CONTINUOUS
10
59.8502
20
-102.556
11
59.1167
21
-102.556
0
LINE
8
BLACK
6
CONTINUOUS
10
59.1167
20
-102.556
11
59.1167
21
-102.456
0
LINE
8
BLACK
6
CONTINUOUS
10
59.1167
20
-102.456
11
59.117
21
-102.437
0
LINE
8
BLACK
6
CONTINUOUS
10
59.117
20
-102.437
11
59.1303
21
-102.384
0
LINE
8
BLACK
6
CONTINUOUS
10
59.1303
20
-102.384
11
59.1795
21
-102.361
0
LINE
8
BLACK
6
CONTINUOUS
10
59.1795
20
-102.361
11
59.2867
21
-102.356
0
LINE
8
BLACK
6
CONTINUOUS
10
59.2867
20
-102.356
11
59.4567
21
-102.356
0
LINE
8
BLACK
6
CONTINUOUS
10
59.4567
20
-102.356
11
59.4646
21
-102.131
0
LINE
8
BLACK
6
CONTINUOUS
10
59.4646
20
-102.131
11
59.4818
21
-101.933
0
LINE
8
BLACK
6
CONTINUOUS
10
59.4818
20
-101.933
11
59.5262
21
-101.679
0
LINE
8
BLACK
6
CONTINUOUS
10
59.5262
20
-101.679
11
59.5918
21
-101.414
0
LINE
8
BLACK
6
CONTINUOUS
10
59.5918
20
-101.414
11
59.6732
21
-101.154
0
LINE
8
BLACK
6
CONTINUOUS
10
59.6732
20
-101.154
11
59.7653
21
-100.913
0
LINE
8
BLACK
6
CONTINUOUS
10
59.7653
20
-100.913
11
59.8627
21
-100.707
0
LINE
8
BLACK
6
CONTINUOUS
10
59.8627
20
-100.707
11
59.9603
21
-100.55
0
LINE
8
BLACK
6
CONTINUOUS
10
59.9603
20
-100.55
11
60.0527
21
-100.457
0
LINE
8
BLACK
6
CONTINUOUS
10
60.0527
20
-100.457
11
60.1029
21
-100.435
0
LINE
8
BLACK
6
CONTINUOUS
10
60.1029
20
-100.435
11
60.2227
21
-100.402
0
LINE
8
BLACK
6
CONTINUOUS
10
60.2227
20
-100.402
11
60.3646
21
-100.378
0
LINE
8
BLACK
6
CONTINUOUS
10
60.3646
20
-100.378
11
60.5926
21
-100.351
0
LINE
8
BLACK
6
CONTINUOUS
10
60.5926
20
-100.351
11
60.547
21
-100.243
0
LINE
8
BLACK
6
CONTINUOUS
10
60.547
20
-100.243
11
60.5223
21
-100.187
0
LINE
8
BLACK
6
CONTINUOUS
10
60.5223
20
-100.187
11
60.4773
21
-100.114
0
LINE
8
BLACK
6
CONTINUOUS
10
60.4773
20
-100.114
11
60.4232
21
-100.094
0
LINE
8
BLACK
6
CONTINUOUS
10
60.4232
20
-100.094
11
60.3357
21
-100.111
0
LINE
8
BLACK
6
CONTINUOUS
10
60.3357
20
-100.111
11
60.3002
21
-100.118
0
LINE
8
BLACK
6
CONTINUOUS
10
60.3002
20
-100.118
11
60.1627
21
-100.113
0
LINE
8
BLACK
6
CONTINUOUS
10
60.1627
20
-100.113
11
60.0178
21
-100.072
0
LINE
8
BLACK
6
CONTINUOUS
10
60.0178
20
-100.072
11
59.8873
21
-100.005
0
LINE
8
BLACK
6
CONTINUOUS
10
59.8873
20
-100.005
11
59.793
21
-99.9213
0
LINE
8
BLACK
6
CONTINUOUS
10
59.793
20
-99.9213
11
59.7567
21
-99.8323
0
LINE
8
BLACK
6
CONTINUOUS
10
59.7567
20
-99.8323
11
59.7876
21
-99.814
0
LINE
8
BLACK
6
CONTINUOUS
10
59.7876
20
-99.814
11
59.8779
21
-99.7872
0
LINE
8
BLACK
6
CONTINUOUS
10
59.8779
20
-99.7872
11
60.0067
21
-99.7591
0
LINE
8
BLACK
6
CONTINUOUS
10
60.0067
20
-99.7591
11
60.0111
21
-99.7582
0
LINE
8
BLACK
6
CONTINUOUS
10
60.0111
20
-99.7582
11
60.2416
21
-99.7095
0
LINE
8
BLACK
6
CONTINUOUS
10
60.2416
20
-99.7095
11
60.3985
21
-99.6643
0
LINE
8
BLACK
6
CONTINUOUS
10
60.3985
20
-99.6643
11
60.4882
21
-99.6202
0
LINE
8
BLACK
6
CONTINUOUS
10
60.4882
20
-99.6202
11
60.5167
21
-99.5752
0
LINE
8
BLACK
6
CONTINUOUS
10
60.5167
20
-99.5752
11
60.5176
21
-99.5653
0
LINE
8
BLACK
6
CONTINUOUS
10
60.5176
20
-99.5653
11
60.544
21
-99.4877
0
LINE
8
BLACK
6
CONTINUOUS
10
60.544
20
-99.4877
11
60.5953
21
-99.3872
0
LINE
8
BLACK
6
CONTINUOUS
10
60.5953
20
-99.3872
11
60.5965
21
-99.3853
0
LINE
8
BLACK
6
CONTINUOUS
10
60.5965
20
-99.3853
11
60.6445
21
-99.2769
0
LINE
8
BLACK
6
CONTINUOUS
10
60.6445
20
-99.2769
11
60.6947
21
-99.1231
0
LINE
8
BLACK
6
CONTINUOUS
10
60.6947
20
-99.1231
11
60.7366
21
-98.9566
0
LINE
8
BLACK
6
CONTINUOUS
10
60.7366
20
-98.9566
11
60.7422
21
-98.9304
0
LINE
8
BLACK
6
CONTINUOUS
10
60.7422
20
-98.9304
11
60.776
21
-98.7892
0
LINE
8
BLACK
6
CONTINUOUS
10
60.776
20
-98.7892
11
60.807
21
-98.6846
0
LINE
8
BLACK
6
CONTINUOUS
10
60.807
20
-98.6846
11
60.829
21
-98.6376
0
LINE
8
BLACK
6
CONTINUOUS
10
60.829
20
-98.6376
11
60.831
21
-98.6361
0
LINE
8
BLACK
6
CONTINUOUS
10
60.831
20
-98.6361
11
60.8785
21
-98.5669
0
LINE
8
BLACK
6
CONTINUOUS
10
60.8785
20
-98.5669
11
60.9327
21
-98.4415
0
LINE
8
BLACK
6
CONTINUOUS
10
60.9327
20
-98.4415
11
60.9873
21
-98.2814
0
LINE
8
BLACK
6
CONTINUOUS
10
60.9873
20
-98.2814
11
61.0362
21
-98.1082
0
LINE
8
BLACK
6
CONTINUOUS
10
61.0362
20
-98.1082
11
61.0733
21
-97.9437
0
LINE
8
BLACK
6
CONTINUOUS
10
61.0733
20
-97.9437
11
61.0925
21
-97.8092
0
LINE
8
BLACK
6
CONTINUOUS
10
61.0925
20
-97.8092
11
61.0876
21
-97.7266
0
LINE
8
BLACK
6
CONTINUOUS
10
61.0876
20
-97.7266
11
61.0903
21
-97.6953
0
LINE
8
BLACK
6
CONTINUOUS
10
61.0903
20
-97.6953
11
61.1493
21
-97.676
0
LINE
8
BLACK
6
CONTINUOUS
10
61.1493
20
-97.676
11
61.2082
21
-97.6987
0
LINE
8
BLACK
6
CONTINUOUS
10
61.2082
20
-97.6987
11
61.2631
21
-97.7862
0
LINE
8
BLACK
6
CONTINUOUS
10
61.2631
20
-97.7862
11
61.3042
21
-97.9438
0
LINE
8
BLACK
6
CONTINUOUS
10
61.3042
20
-97.9438
11
61.3331
21
-98.176
0
LINE
8
BLACK
6
CONTINUOUS
10
61.3331
20
-98.176
11
61.3441
21
-98.277
0
LINE
8
BLACK
6
CONTINUOUS
10
61.3441
20
-98.277
11
61.37
21
-98.4433
0
LINE
8
BLACK
6
CONTINUOUS
10
61.37
20
-98.4433
11
61.3993
21
-98.576
0
LINE
8
BLACK
6
CONTINUOUS
10
61.3993
20
-98.576
11
61.4036
21
-98.5914
0
LINE
8
BLACK
6
CONTINUOUS
10
61.4036
20
-98.5914
11
61.4394
21
-98.7426
0
LINE
8
BLACK
6
CONTINUOUS
10
61.4394
20
-98.7426
11
61.465
21
-98.886
0
LINE
8
BLACK
6
CONTINUOUS
10
61.465
20
-98.886
11
61.4692
21
-98.9132
0
LINE
8
BLACK
6
CONTINUOUS
10
61.4692
20
-98.9132
11
61.4922
21
-99.0007
0
LINE
8
BLACK
6
CONTINUOUS
10
61.4922
20
-99.0007
11
61.5182
21
-99.036
0
LINE
8
BLACK
6
CONTINUOUS
10
61.5182
20
-99.036
11
61.5464
21
-99.057
0
LINE
8
BLACK
6
CONTINUOUS
10
61.5464
20
-99.057
11
61.5804
21
-99.1256
0
LINE
8
BLACK
6
CONTINUOUS
10
61.5804
20
-99.1256
11
61.5959
21
-99.2062
0
LINE
8
BLACK
6
CONTINUOUS
10
61.5959
20
-99.2062
11
61.6042
21
-99.2338
0
LINE
8
BLACK
6
CONTINUOUS
10
61.6042
20
-99.2338
11
61.6411
21
-99.3173
0
LINE
8
BLACK
6
CONTINUOUS
10
61.6411
20
-99.3173
11
61.6929
21
-99.4212
0
LINE
8
BLACK
6
CONTINUOUS
10
61.6929
20
-99.4212
11
61.6974
21
-99.4301
0
LINE
8
BLACK
6
CONTINUOUS
10
61.6974
20
-99.4301
11
61.7508
21
-99.5207
0
LINE
8
BLACK
6
CONTINUOUS
10
61.7508
20
-99.5207
11
61.7683
21
-99.54
0
LINE
8
BLACK
6
CONTINUOUS
10
61.7683
20
-99.54
11
61.8256
21
-99.6034
0
LINE
8
BLACK
6
CONTINUOUS
10
61.8256
20
-99.6034
11
61.8658
21
-99.6264
0
LINE
8
BLACK
6
CONTINUOUS
10
62.3067
20
-102.021
11
62.1967
21
-102.002
0
LINE
8
BLACK
6
CONTINUOUS
10
62.1967
20
-102.002
11
62.1392
21
-102.005
0
LINE
8
BLACK
6
CONTINUOUS
10
62.1392
20
-102.005
11
62.1409
21
-102.014
0
LINE
8
BLACK
6
CONTINUOUS
10
62.1409
20
-102.014
11
62.2167
21
-102.035
0
LINE
8
BLACK
6
CONTINUOUS
10
62.2167
20
-102.035
11
62.3182
21
-102.063
0
LINE
8
BLACK
6
CONTINUOUS
10
62.3182
20
-102.063
11
62.4167
21
-102.094
0
LINE
8
BLACK
6
CONTINUOUS
10
62.4167
20
-102.094
11
62.4316
21
-102.099
0
LINE
8
BLACK
6
CONTINUOUS
10
62.4316
20
-102.099
11
62.4499
21
-102.097
0
LINE
8
BLACK
6
CONTINUOUS
10
62.4499
20
-102.097
11
62.3967
21
-102.06
0
LINE
8
BLACK
6
CONTINUOUS
10
62.3967
20
-102.06
11
62.3067
21
-102.021
0
LINE
8
BLACK
6
CONTINUOUS
10
62.3842
20
-101.87
11
62.3739
21
-101.86
0
LINE
8
BLACK
6
CONTINUOUS
10
62.3739
20
-101.86
11
62.31
21
-101.795
0
LINE
8
BLACK
6
CONTINUOUS
10
62.31
20
-101.795
11
62.3015
21
-101.762
0
LINE
8
BLACK
6
CONTINUOUS
10
62.3015
20
-101.762
11
62.3426
21
-101.743
0
LINE
8
BLACK
6
CONTINUOUS
10
62.3426
20
-101.743
11
62.3488
21
-101.741
0
LINE
8
BLACK
6
CONTINUOUS
10
62.3488
20
-101.741
11
62.3596
21
-101.73
0
LINE
8
BLACK
6
CONTINUOUS
10
62.3596
20
-101.73
11
62.301
21
-101.729
0
LINE
8
BLACK
6
CONTINUOUS
10
62.301
20
-101.729
11
62.215
21
-101.75
0
LINE
8
BLACK
6
CONTINUOUS
10
62.215
20
-101.75
11
62.1523
21
-101.826
0
LINE
8
BLACK
6
CONTINUOUS
10
62.1523
20
-101.826
11
62.1486
21
-101.836
0
LINE
8
BLACK
6
CONTINUOUS
10
62.1486
20
-101.836
11
62.1389
21
-101.89
0
LINE
8
BLACK
6
CONTINUOUS
10
62.1389
20
-101.89
11
62.1734
21
-101.912
0
LINE
8
BLACK
6
CONTINUOUS
10
62.1734
20
-101.912
11
62.27
21
-101.916
0
LINE
8
BLACK
6
CONTINUOUS
10
62.27
20
-101.916
11
62.2915
21
-101.916
0
LINE
8
BLACK
6
CONTINUOUS
10
62.2915
20
-101.916
11
62.3968
21
-101.926
0
LINE
8
BLACK
6
CONTINUOUS
10
62.3968
20
-101.926
11
62.4603
21
-101.946
0
LINE
8
BLACK
6
CONTINUOUS
10
62.4603
20
-101.946
11
62.4665
21
-101.95
0
LINE
8
BLACK
6
CONTINUOUS
10
62.4665
20
-101.95
11
62.4468
21
-101.929
0
LINE
8
BLACK
6
CONTINUOUS
10
62.4468
20
-101.929
11
62.3842
21
-101.87
0
LINE
8
BLACK
6
CONTINUOUS
10
62.4367
20
-101.776
11
62.4567
21
-101.796
0
LINE
8
BLACK
6
CONTINUOUS
10
62.4567
20
-101.796
11
62.4767
21
-101.776
0
LINE
8
BLACK
6
CONTINUOUS
10
62.4767
20
-101.776
11
62.4567
21
-101.756
0
LINE
8
BLACK
6
CONTINUOUS
10
62.4567
20
-101.756
11
62.4367
21
-101.776
0
LINE
8
BLACK
6
CONTINUOUS
10
61.1087
20
-101.643
11
61.0767
21
-101.696
0
LINE
8
BLACK
6
CONTINUOUS
10
61.0767
20
-101.696
11
61.078
21
-101.713
0
LINE
8
BLACK
6
CONTINUOUS
10
61.078
20
-101.713
11
61.1115
21
-101.755
0
LINE
8
BLACK
6
CONTINUOUS
10
61.1115
20
-101.755
11
61.17
21
-101.729
0
LINE
8
BLACK
6
CONTINUOUS
10
61.17
20
-101.729
11
61.1818
21
-101.716
0
LINE
8
BLACK
6
CONTINUOUS
10
61.1818
20
-101.716
11
61.1918
21
-101.66
0
LINE
8
BLACK
6
CONTINUOUS
10
61.1918
20
-101.66
11
61.1367
21
-101.636
0
LINE
8
BLACK
6
CONTINUOUS
10
61.1367
20
-101.636
11
61.1087
21
-101.643
0
LINE
8
BLACK
6
CONTINUOUS
10
62.3436
20
-101.495
11
62.2971
21
-101.515
0
LINE
8
BLACK
6
CONTINUOUS
10
62.2971
20
-101.515
11
62.2884
21
-101.527
0
LINE
8
BLACK
6
CONTINUOUS
10
62.2884
20
-101.527
11
62.2316
21
-101.556
0
LINE
8
BLACK
6
CONTINUOUS
10
62.2316
20
-101.556
11
62.2259
21
-101.554
0
LINE
8
BLACK
6
CONTINUOUS
10
62.2259
20
-101.554
11
62.2301
21
-101.515
0
LINE
8
BLACK
6
CONTINUOUS
10
62.2301
20
-101.515
11
62.274
21
-101.44
0
LINE
8
BLACK
6
CONTINUOUS
10
62.274
20
-101.44
11
62.2892
21
-101.418
0
LINE
8
BLACK
6
CONTINUOUS
10
62.2892
20
-101.418
11
62.3467
21
-101.313
0
LINE
8
BLACK
6
CONTINUOUS
10
62.3467
20
-101.313
11
62.3433
21
-101.254
0
LINE
8
BLACK
6
CONTINUOUS
10
62.3433
20
-101.254
11
62.2791
21
-101.236
0
LINE
8
BLACK
6
CONTINUOUS
10
62.2791
20
-101.236
11
62.2365
21
-101.246
0
LINE
8
BLACK
6
CONTINUOUS
10
62.2365
20
-101.246
11
62.1999
21
-101.299
0
LINE
8
BLACK
6
CONTINUOUS
10
62.1999
20
-101.299
11
62.175
21
-101.413
0
LINE
8
BLACK
6
CONTINUOUS
10
62.175
20
-101.413
11
62.1683
21
-101.463
0
LINE
8
BLACK
6
CONTINUOUS
10
62.1683
20
-101.463
11
62.1594
21
-101.568
0
LINE
8
BLACK
6
CONTINUOUS
10
62.1594
20
-101.568
11
62.1625
21
-101.625
0
LINE
8
BLACK
6
CONTINUOUS
10
62.1625
20
-101.625
11
62.165
21
-101.629
0
LINE
8
BLACK
6
CONTINUOUS
10
62.165
20
-101.629
11
62.2134
21
-101.636
0
LINE
8
BLACK
6
CONTINUOUS
10
62.2134
20
-101.636
11
62.2917
21
-101.618
0
LINE
8
BLACK
6
CONTINUOUS
10
62.2917
20
-101.618
11
62.3645
21
-101.586
0
LINE
8
BLACK
6
CONTINUOUS
10
62.3645
20
-101.586
11
62.3967
21
-101.551
0
LINE
8
BLACK
6
CONTINUOUS
10
62.3967
20
-101.551
11
62.3889
21
-101.523
0
LINE
8
BLACK
6
CONTINUOUS
10
62.3889
20
-101.523
11
62.3436
21
-101.495
0
LINE
8
BLACK
6
CONTINUOUS
10
62.0687
20
-100.986
11
62.0361
21
-100.92
0
LINE
8
BLACK
6
CONTINUOUS
10
62.0361
20
-100.92
11
62.036
21
-100.915
0
LINE
8
BLACK
6
CONTINUOUS
10
62.036
20
-100.915
11
62.0284
21
-100.878
0
LINE
8
BLACK
6
CONTINUOUS
10
62.0284
20
-100.878
11
61.9987
21
-100.914
0
LINE
8
BLACK
6
CONTINUOUS
10
61.9987
20
-100.914
11
61.9834
21
-100.935
0
LINE
8
BLACK
6
CONTINUOUS
10
61.9834
20
-100.935
11
61.94
21
-100.951
0
LINE
8
BLACK
6
CONTINUOUS
10
61.94
20
-100.951
11
61.8631
21
-100.919
0
LINE
8
BLACK
6
CONTINUOUS
10
61.8631
20
-100.919
11
61.7846
21
-100.891
0
LINE
8
BLACK
6
CONTINUOUS
10
61.7846
20
-100.891
11
61.7205
21
-100.894
0
LINE
8
BLACK
6
CONTINUOUS
10
61.7205
20
-100.894
11
61.6975
21
-100.899
0
LINE
8
BLACK
6
CONTINUOUS
10
61.6975
20
-100.899
11
61.6767
21
-100.858
0
LINE
8
BLACK
6
CONTINUOUS
10
61.6767
20
-100.858
11
61.6766
21
-100.856
0
LINE
8
BLACK
6
CONTINUOUS
10
61.6766
20
-100.856
11
61.6485
21
-100.804
0
LINE
8
BLACK
6
CONTINUOUS
10
61.6485
20
-100.804
11
61.5862
21
-100.804
0
LINE
8
BLACK
6
CONTINUOUS
10
61.5862
20
-100.804
11
61.5167
21
-100.856
0
LINE
8
BLACK
6
CONTINUOUS
10
61.5167
20
-100.856
11
61.5118
21
-100.861
0
LINE
8
BLACK
6
CONTINUOUS
10
61.5118
20
-100.861
11
61.4314
21
-100.901
0
LINE
8
BLACK
6
CONTINUOUS
10
61.4314
20
-100.901
11
61.3128
21
-100.916
0
LINE
8
BLACK
6
CONTINUOUS
10
61.3128
20
-100.916
11
61.235
21
-100.912
0
LINE
8
BLACK
6
CONTINUOUS
10
61.235
20
-100.912
11
61.1561
21
-100.881
0
LINE
8
BLACK
6
CONTINUOUS
10
61.1561
20
-100.881
11
61.1009
21
-100.806
0
LINE
8
BLACK
6
CONTINUOUS
10
61.1009
20
-100.806
11
61.0471
21
-100.724
0
LINE
8
BLACK
6
CONTINUOUS
10
61.0471
20
-100.724
11
60.9624
21
-100.624
0
LINE
8
BLACK
6
CONTINUOUS
10
60.9624
20
-100.624
11
60.8657
21
-100.525
0
LINE
8
BLACK
6
CONTINUOUS
10
60.8657
20
-100.525
11
60.7727
21
-100.443
0
LINE
8
BLACK
6
CONTINUOUS
10
60.7727
20
-100.443
11
60.6992
21
-100.393
0
LINE
8
BLACK
6
CONTINUOUS
10
60.6992
20
-100.393
11
60.6609
21
-100.389
0
LINE
8
BLACK
6
CONTINUOUS
10
60.6609
20
-100.389
11
60.6176
21
-100.412
0
LINE
8
BLACK
6
CONTINUOUS
10
60.6176
20
-100.412
11
60.5154
21
-100.437
0
LINE
8
BLACK
6
CONTINUOUS
10
60.5154
20
-100.437
11
60.3791
21
-100.457
0
LINE
8
BLACK
6
CONTINUOUS
10
60.3791
20
-100.457
11
60.3046
21
-100.466
0
LINE
8
BLACK
6
CONTINUOUS
10
60.3046
20
-100.466
11
60.1777
21
-100.494
0
LINE
8
BLACK
6
CONTINUOUS
10
60.1777
20
-100.494
11
60.0806
21
-100.544
0
LINE
8
BLACK
6
CONTINUOUS
10
60.0806
20
-100.544
11
59.9985
21
-100.628
0
LINE
8
BLACK
6
CONTINUOUS
10
59.9985
20
-100.628
11
59.9167
21
-100.761
0
LINE
8
BLACK
6
CONTINUOUS
10
59.9167
20
-100.761
11
59.8206
21
-100.956
0
LINE
8
BLACK
6
CONTINUOUS
10
59.8206
20
-100.956
11
59.7921
21
-101.022
0
LINE
8
BLACK
6
CONTINUOUS
10
59.7921
20
-101.022
11
59.7312
21
-101.195
0
LINE
8
BLACK
6
CONTINUOUS
10
59.7312
20
-101.195
11
59.6719
21
-101.399
0
LINE
8
BLACK
6
CONTINUOUS
10
59.6719
20
-101.399
11
59.618
21
-101.618
0
LINE
8
BLACK
6
CONTINUOUS
10
59.618
20
-101.618
11
59.5735
21
-101.832
0
LINE
8
BLACK
6
CONTINUOUS
10
59.5735
20
-101.832
11
59.5423
21
-102.025
0
LINE
8
BLACK
6
CONTINUOUS
10
59.5423
20
-102.025
11
59.5282
21
-102.177
0
LINE
8
BLACK
6
CONTINUOUS
10
59.5282
20
-102.177
11
59.5352
21
-102.271
0
LINE
8
BLACK
6
CONTINUOUS
10
59.5352
20
-102.271
11
59.5755
21
-102.331
0
LINE
8
BLACK
6
CONTINUOUS
10
59.5755
20
-102.331
11
59.6593
21
-102.39
0
LINE
8
BLACK
6
CONTINUOUS
10
59.6593
20
-102.39
11
59.7168
21
-102.411
0
LINE
8
BLACK
6
CONTINUOUS
10
59.7168
20
-102.411
11
59.8374
21
-102.434
0
LINE
8
BLACK
6
CONTINUOUS
10
59.8374
20
-102.434
11
59.954
21
-102.435
0
LINE
8
BLACK
6
CONTINUOUS
10
59.954
20
-102.435
11
60.0419
21
-102.415
0
LINE
8
BLACK
6
CONTINUOUS
10
60.0419
20
-102.415
11
60.0767
21
-102.376
0
LINE
8
BLACK
6
CONTINUOUS
10
60.0767
20
-102.376
11
60.0854
21
-102.346
0
LINE
8
BLACK
6
CONTINUOUS
10
60.0854
20
-102.346
11
60.1413
21
-102.316
0
LINE
8
BLACK
6
CONTINUOUS
10
60.1413
20
-102.316
11
60.1533
21
-102.315
0
LINE
8
BLACK
6
CONTINUOUS
10
60.1533
20
-102.315
11
60.1889
21
-102.288
0
LINE
8
BLACK
6
CONTINUOUS
10
60.1889
20
-102.288
11
60.1835
21
-102.206
0
LINE
8
BLACK
6
CONTINUOUS
10
60.1835
20
-102.206
11
60.1656
21
-102.098
0
LINE
8
BLACK
6
CONTINUOUS
10
60.1656
20
-102.098
11
60.146
21
-101.945
0
LINE
8
BLACK
6
CONTINUOUS
10
60.146
20
-101.945
11
60.1265
21
-101.765
0
LINE
8
BLACK
6
CONTINUOUS
10
60.1265
20
-101.765
11
60.1087
21
-101.578
0
LINE
8
BLACK
6
CONTINUOUS
10
60.1087
20
-101.578
11
60.0942
21
-101.399
0
LINE
8
BLACK
6
CONTINUOUS
10
60.0942
20
-101.399
11
60.0845
21
-101.247
0
LINE
8
BLACK
6
CONTINUOUS
10
60.0845
20
-101.247
11
60.0812
21
-101.139
0
LINE
8
BLACK
6
CONTINUOUS
10
60.0812
20
-101.139
11
60.0857
21
-101.094
0
LINE
8
BLACK
6
CONTINUOUS
10
60.0857
20
-101.094
11
60.1573
21
-101.057
0
LINE
8
BLACK
6
CONTINUOUS
10
60.1573
20
-101.057
11
60.299
21
-101.024
0
LINE
8
BLACK
6
CONTINUOUS
10
60.299
20
-101.024
11
60.4934
21
-100.998
0
LINE
8
BLACK
6
CONTINUOUS
10
60.4934
20
-100.998
11
60.7264
21
-100.981
0
LINE
8
BLACK
6
CONTINUOUS
10
60.7264
20
-100.981
11
60.9839
21
-100.972
0
LINE
8
BLACK
6
CONTINUOUS
10
60.9839
20
-100.972
11
61.2517
21
-100.971
0
LINE
8
BLACK
6
CONTINUOUS
10
61.2517
20
-100.971
11
61.5159
21
-100.979
0
LINE
8
BLACK
6
CONTINUOUS
10
61.5159
20
-100.979
11
61.7622
21
-100.996
0
LINE
8
BLACK
6
CONTINUOUS
10
61.7622
20
-100.996
11
61.9766
21
-101.022
0
LINE
8
BLACK
6
CONTINUOUS
10
61.9766
20
-101.022
11
62.145
21
-101.058
0
LINE
8
BLACK
6
CONTINUOUS
10
62.145
20
-101.058
11
62.1693
21
-101.059
0
LINE
8
BLACK
6
CONTINUOUS
10
62.1693
20
-101.059
11
62.1267
21
-101.031
0
LINE
8
BLACK
6
CONTINUOUS
10
62.1267
20
-101.031
11
62.0687
21
-100.986
0
LINE
8
BLACK
6
CONTINUOUS
10
60.6258
20
-100.181
11
60.6052
21
-100.191
0
LINE
8
BLACK
6
CONTINUOUS
10
60.6052
20
-100.191
11
60.6017
21
-100.216
0
LINE
8
BLACK
6
CONTINUOUS
10
60.6017
20
-100.216
11
60.6299
21
-100.285
0
LINE
8
BLACK
6
CONTINUOUS
10
60.6299
20
-100.285
11
60.6318
21
-100.287
0
LINE
8
BLACK
6
CONTINUOUS
10
60.6318
20
-100.287
11
60.6565
21
-100.295
0
LINE
8
BLACK
6
CONTINUOUS
10
60.6565
20
-100.295
11
60.6474
21
-100.233
0
LINE
8
BLACK
6
CONTINUOUS
10
60.6474
20
-100.233
11
60.6258
21
-100.181
0
LINE
8
BLACK
6
CONTINUOUS
10
60.956
20
-100.361
11
61.1012
21
-100.428
0
LINE
8
BLACK
6
CONTINUOUS
10
61.1012
20
-100.428
11
61.2393
21
-100.415
0
LINE
8
BLACK
6
CONTINUOUS
10
61.2393
20
-100.415
11
61.3698
21
-100.323
0
LINE
8
BLACK
6
CONTINUOUS
10
61.3698
20
-100.323
11
61.3915
21
-100.299
0
LINE
8
BLACK
6
CONTINUOUS
10
61.3915
20
-100.299
11
61.4433
21
-100.226
0
LINE
8
BLACK
6
CONTINUOUS
10
61.4433
20
-100.226
11
61.4506
21
-100.183
0
LINE
8
BLACK
6
CONTINUOUS
10
61.4506
20
-100.183
11
61.4253
21
-100.164
0
LINE
8
BLACK
6
CONTINUOUS
10
61.4253
20
-100.164
11
61.3664
21
-100.171
0
LINE
8
BLACK
6
CONTINUOUS
10
61.3664
20
-100.171
11
61.3094
21
-100.256
0
LINE
8
BLACK
6
CONTINUOUS
10
61.3094
20
-100.256
11
61.2576
21
-100.327
0
LINE
8
BLACK
6
CONTINUOUS
10
61.2576
20
-100.327
11
61.1603
21
-100.353
0
LINE
8
BLACK
6
CONTINUOUS
10
61.1603
20
-100.353
11
61.1383
21
-100.352
0
LINE
8
BLACK
6
CONTINUOUS
10
61.1383
20
-100.352
11
61.0934
21
-100.343
0
LINE
8
BLACK
6
CONTINUOUS
10
61.0934
20
-100.343
11
61.123
21
-100.323
0
LINE
8
BLACK
6
CONTINUOUS
10
61.123
20
-100.323
11
61.1426
21
-100.304
0
LINE
8
BLACK
6
CONTINUOUS
10
61.1426
20
-100.304
11
61.1045
21
-100.274
0
LINE
8
BLACK
6
CONTINUOUS
10
61.1045
20
-100.274
11
60.993
21
-100.233
0
LINE
8
BLACK
6
CONTINUOUS
10
60.993
20
-100.233
11
60.9689
21
-100.225
0
LINE
8
BLACK
6
CONTINUOUS
10
60.9689
20
-100.225
11
60.8517
21
-100.196
0
LINE
8
BLACK
6
CONTINUOUS
10
60.8517
20
-100.196
11
60.8053
21
-100.203
0
LINE
8
BLACK
6
CONTINUOUS
10
60.8053
20
-100.203
11
60.8284
21
-100.248
0
LINE
8
BLACK
6
CONTINUOUS
10
60.8284
20
-100.248
11
60.8789
21
-100.295
0
LINE
8
BLACK
6
CONTINUOUS
10
60.8789
20
-100.295
11
60.9198
21
-100.332
0
LINE
8
BLACK
6
CONTINUOUS
10
60.9198
20
-100.332
11
60.956
21
-100.361
0
LINE
8
BLACK
6
CONTINUOUS
10
61.1474
20
-100.078
11
61.1327
21
-100.096
0
LINE
8
BLACK
6
CONTINUOUS
10
61.1327
20
-100.096
11
61.1167
21
-100.116
0
LINE
8
BLACK
6
CONTINUOUS
10
61.1167
20
-100.116
11
61.1171
21
-100.125
0
LINE
8
BLACK
6
CONTINUOUS
10
61.1171
20
-100.125
11
61.1343
21
-100.156
0
LINE
8
BLACK
6
CONTINUOUS
10
61.1343
20
-100.156
11
61.1407
21
-100.154
0
LINE
8
BLACK
6
CONTINUOUS
10
61.1407
20
-100.154
11
61.1767
21
-100.116
0
LINE
8
BLACK
6
CONTINUOUS
10
61.1767
20
-100.116
11
61.1829
21
-100.101
0
LINE
8
BLACK
6
CONTINUOUS
10
61.1829
20
-100.101
11
61.159
21
-100.076
0
LINE
8
BLACK
6
CONTINUOUS
10
61.159
20
-100.076
11
61.1474
21
-100.078
0
LINE
8
BLACK
6
CONTINUOUS
10
60.5567
20
-100.096
11
60.5767
21
-100.116
0
LINE
8
BLACK
6
CONTINUOUS
10
60.5767
20
-100.116
11
60.5967
21
-100.096
0
LINE
8
BLACK
6
CONTINUOUS
10
60.5967
20
-100.096
11
60.5767
21
-100.076
0
LINE
8
BLACK
6
CONTINUOUS
10
60.5767
20
-100.076
11
60.5567
21
-100.096
0
LINE
8
BLACK
6
CONTINUOUS
10
62.05
20
-99.9693
11
62.0438
21
-99.9814
0
LINE
8
BLACK
6
CONTINUOUS
10
62.0438
20
-99.9814
11
62.0767
21
-99.996
0
LINE
8
BLACK
6
CONTINUOUS
10
62.0767
20
-99.996
11
62.0979
21
-99.9931
0
LINE
8
BLACK
6
CONTINUOUS
10
62.0979
20
-99.9931
11
62.1033
21
-99.9693
0
LINE
8
BLACK
6
CONTINUOUS
10
62.1033
20
-99.9693
11
62.0975
21
-99.9645
0
LINE
8
BLACK
6
CONTINUOUS
10
62.0975
20
-99.9645
11
62.05
21
-99.9693
0
LINE
8
BLACK
6
CONTINUOUS
10
61.941
20
-99.9223
11
61.8875
21
-99.9318
0
LINE
8
BLACK
6
CONTINUOUS
10
61.8875
20
-99.9318
11
61.8877
21
-99.936
0
LINE
8
BLACK
6
CONTINUOUS
10
61.8877
20
-99.936
11
61.8881
21
-99.9455
0
LINE
8
BLACK
6
CONTINUOUS
10
61.8881
20
-99.9455
11
61.94
21
-99.9528
0
LINE
8
BLACK
6
CONTINUOUS
10
61.94
20
-99.9528
11
61.9793
21
-99.9464
0
LINE
8
BLACK
6
CONTINUOUS
10
61.9793
20
-99.9464
11
61.9642
21
-99.9287
0
LINE
8
BLACK
6
CONTINUOUS
10
61.9642
20
-99.9287
11
61.941
21
-99.9223
0
LINE
8
BLACK
6
CONTINUOUS
10
61.7567
20
-99.936
11
61.7767
21
-99.956
0
LINE
8
BLACK
6
CONTINUOUS
10
61.7767
20
-99.956
11
61.7967
21
-99.936
0
LINE
8
BLACK
6
CONTINUOUS
10
61.7967
20
-99.936
11
61.7767
21
-99.916
0
LINE
8
BLACK
6
CONTINUOUS
10
61.7767
20
-99.916
11
61.7567
21
-99.936
0
LINE
8
BLACK
6
CONTINUOUS
10
61.621
20
-99.6023
11
61.5675
21
-99.6118
0
LINE
8
BLACK
6
CONTINUOUS
10
61.5675
20
-99.6118
11
61.5681
21
-99.6255
0
LINE
8
BLACK
6
CONTINUOUS
10
61.5681
20
-99.6255
11
61.62
21
-99.6328
0
LINE
8
BLACK
6
CONTINUOUS
10
61.62
20
-99.6328
11
61.6593
21
-99.6264
0
LINE
8
BLACK
6
CONTINUOUS
10
61.6593
20
-99.6264
11
61.6442
21
-99.6087
0
LINE
8
BLACK
6
CONTINUOUS
10
61.6442
20
-99.6087
11
61.621
21
-99.6023
0
LINE
8
BLACK
6
CONTINUOUS
10
61.4681
20
-99.5222
11
61.3667
21
-99.5284
0
LINE
8
BLACK
6
CONTINUOUS
10
61.3667
20
-99.5284
11
61.3553
21
-99.5322
0
LINE
8
BLACK
6
CONTINUOUS
10
61.3553
20
-99.5322
11
61.3639
21
-99.5425
0
LINE
8
BLACK
6
CONTINUOUS
10
61.3639
20
-99.5425
11
61.4367
21
-99.5467
0
LINE
8
BLACK
6
CONTINUOUS
10
61.4367
20
-99.5467
11
61.4638
21
-99.5463
0
LINE
8
BLACK
6
CONTINUOUS
10
61.4638
20
-99.5463
11
61.5191
21
-99.54
0
LINE
8
BLACK
6
CONTINUOUS
10
61.5191
20
-99.54
11
61.5067
21
-99.5284
0
LINE
8
BLACK
6
CONTINUOUS
10
61.5067
20
-99.5284
11
61.4681
21
-99.5222
0
LINE
8
BLACK
6
CONTINUOUS
10
60.9561
20
-99.336
11
60.8724
21
-99.341
0
LINE
8
BLACK
6
CONTINUOUS
10
60.8724
20
-99.341
11
60.8254
21
-99.3703
0
LINE
8
BLACK
6
CONTINUOUS
10
60.8254
20
-99.3703
11
60.8127
21
-99.4423
0
LINE
8
BLACK
6
CONTINUOUS
10
60.8127
20
-99.4423
11
60.8201
21
-99.5043
0
LINE
8
BLACK
6
CONTINUOUS
10
60.8201
20
-99.5043
11
60.8736
21
-99.58
0
LINE
8
BLACK
6
CONTINUOUS
10
60.8736
20
-99.58
11
60.9584
21
-99.6001
0
LINE
8
BLACK
6
CONTINUOUS
10
60.9584
20
-99.6001
11
61.0502
21
-99.5533
0
LINE
8
BLACK
6
CONTINUOUS
10
61.0502
20
-99.5533
11
61.0898
21
-99.5068
0
LINE
8
BLACK
6
CONTINUOUS
10
61.0898
20
-99.5068
11
61.1142
21
-99.4212
0
LINE
8
BLACK
6
CONTINUOUS
10
61.1142
20
-99.4212
11
61.0677
21
-99.3596
0
LINE
8
BLACK
6
CONTINUOUS
10
61.0677
20
-99.3596
11
60.9561
21
-99.336
0
LINE
8
BLACK
6
CONTINUOUS
10
59.9967
20
-101.456
11
59.9767
21
-101.476
0
LINE
8
BLACK
6
CONTINUOUS
10
59.9767
20
-101.476
11
59.9567
21
-101.456
0
LINE
8
BLACK
6
CONTINUOUS
10
59.9567
20
-101.456
11
59.9767
21
-101.436
0
LINE
8
BLACK
6
CONTINUOUS
10
59.9767
20
-101.436
11
59.9967
21
-101.456
0
LINE
8
BLACK
6
CONTINUOUS
10
60.1567
20
-100.976
11
60.1367
21
-100.996
0
LINE
8
BLACK
6
CONTINUOUS
10
60.1367
20
-100.996
11
60.1167
21
-100.976
0
LINE
8
BLACK
6
CONTINUOUS
10
60.1167
20
-100.976
11
60.1367
21
-100.956
0
LINE
8
BLACK
6
CONTINUOUS
10
60.1367
20
-100.956
11
60.1567
21
-100.976
0
LINE
8
BLACK
6
CONTINUOUS
10
60.6367
20
-100.896
11
60.6167
21
-100.916
0
LINE
8
BLACK
6
CONTINUOUS
10
60.6167
20
-100.916
11
60.5967
21
-100.896
0
LINE
8
BLACK
6
CONTINUOUS
10
60.5967
20
-100.896
11
60.6167
21
-100.876
0
LINE
8
BLACK
6
CONTINUOUS
10
60.6167
20
-100.876
11
60.6367
21
-100.896
0
LINE
8
BLACK
6
CONTINUOUS
10
61.6042
20
-100.889
11
61.6227
21
-100.903
0
LINE
8
BLACK
6
CONTINUOUS
10
61.6227
20
-100.903
11
61.58
21
-100.913
0
LINE
8
BLACK
6
CONTINUOUS
10
61.58
20
-100.913
11
61.5394
21
-100.91
0
LINE
8
BLACK
6
CONTINUOUS
10
61.5394
20
-100.91
11
61.5275
21
-100.892
0
LINE
8
BLACK
6
CONTINUOUS
10
61.5275
20
-100.892
11
61.5417
21
-100.884
0
LINE
8
BLACK
6
CONTINUOUS
10
61.5417
20
-100.884
11
61.6042
21
-100.889
0
LINE
8
BLACK
6
CONTINUOUS
10
60.1567
20
-100.816
11
60.1367
21
-100.836
0
LINE
8
BLACK
6
CONTINUOUS
10
60.1367
20
-100.836
11
60.1167
21
-100.816
0
LINE
8
BLACK
6
CONTINUOUS
10
60.1167
20
-100.816
11
60.1367
21
-100.796
0
LINE
8
BLACK
6
CONTINUOUS
10
60.1367
20
-100.796
11
60.1567
21
-100.816
0
LINE
8
BLACK
6
CONTINUOUS
10
61.0135
20
-99.4391
11
61.0167
21
-99.476
0
LINE
8
BLACK
6
CONTINUOUS
10
61.0167
20
-99.476
11
61.0085
21
-99.488
0
LINE
8
BLACK
6
CONTINUOUS
10
61.0085
20
-99.488
11
60.9743
21
-99.516
0
LINE
8
BLACK
6
CONTINUOUS
10
60.9743
20
-99.516
11
60.9703
21
-99.515
0
LINE
8
BLACK
6
CONTINUOUS
10
60.9703
20
-99.515
11
60.9567
21
-99.476
0
LINE
8
BLACK
6
CONTINUOUS
10
60.9567
20
-99.476
11
60.9583
21
-99.465
0
LINE
8
BLACK
6
CONTINUOUS
10
60.9583
20
-99.465
11
60.999
21
-99.436
0
LINE
8
BLACK
6
CONTINUOUS
10
60.999
20
-99.436
11
61.0135
21
-99.4391
0
LINE
8
BLACK
6
CONTINUOUS
10
60.9033
20
-99.4093
11
60.9096
21
-99.4214
0
LINE
8
BLACK
6
CONTINUOUS
10
60.9096
20
-99.4214
11
60.8767
21
-99.436
0
LINE
8
BLACK
6
CONTINUOUS
10
60.8767
20
-99.436
11
60.8555
21
-99.4331
0
LINE
8
BLACK
6
CONTINUOUS
10
60.8555
20
-99.4331
11
60.85
21
-99.4093
0
LINE
8
BLACK
6
CONTINUOUS
10
60.85
20
-99.4093
11
60.8559
21
-99.4045
0
LINE
8
BLACK
6
CONTINUOUS
10
60.8559
20
-99.4045
11
60.9033
21
-99.4093
0
LINE
8
BLACK
6
CONTINUOUS
10
149.035
20
-81.9646
11
149.05
21
-82
0
LINE
8
BLACK
6
CONTINUOUS
10
149.05
20
-82
11
149.035
21
-82.0354
0
LINE
8
BLACK
6
CONTINUOUS
10
149.035
20
-82.0354
11
149
21
-82.05
0
LINE
8
BLACK
6
CONTINUOUS
10
149
20
-82.05
11
60
21
-82.05
0
LINE
8
BLACK
6
CONTINUOUS
10
60
20
-82.05
11
59.9646
21
-82.0354
0
LINE
8
BLACK
6
CONTINUOUS
10
59.9646
20
-82.0354
11
59.95
21
-82
0
LINE
8
BLACK
6
CONTINUOUS
10
59.95
20
-82
11
59.9646
21
-81.9646
0
LINE
8
BLACK
6
CONTINUOUS
10
59.9646
20
-81.9646
11
60
21
-81.95
0
LINE
8
BLACK
6
CONTINUOUS
10
60
20
-81.95
11
149
21
-81.95
0
LINE
8
BLACK
6
CONTINUOUS
10
149
20
-81.95
11
149.035
21
-81.9646
  0
ENDSEC
  0
EOF
