%TF.GenerationSoftware,KiCad,Pcbnew,6.0.11+dfsg-1~bpo11+1*%
%TF.CreationDate,2024-03-25T23:47:08-04:00*%
%TF.ProjectId,Controller - ATTiny,436f6e74-726f-46c6-9c65-72202d204154,0.0.0*%
%TF.SameCoordinates,Original*%
%TF.FileFunction,Soldermask,Bot*%
%TF.FilePolarity,Negative*%
%FSLAX46Y46*%
G04 Gerber Fmt 4.6, Leading zero omitted, Abs format (unit mm)*
G04 Created by KiCad (PCBNEW 6.0.11+dfsg-1~bpo11+1) date 2024-03-25 23:47:08*
%MOMM*%
%LPD*%
G01*
G04 APERTURE LIST*
G04 Aperture macros list*
%AMRoundRect*
0 Rectangle with rounded corners*
0 $1 Rounding radius*
0 $2 $3 $4 $5 $6 $7 $8 $9 X,Y pos of 4 corners*
0 Add a 4 corners polygon primitive as box body*
4,1,4,$2,$3,$4,$5,$6,$7,$8,$9,$2,$3,0*
0 Add four circle primitives for the rounded corners*
1,1,$1+$1,$2,$3*
1,1,$1+$1,$4,$5*
1,1,$1+$1,$6,$7*
1,1,$1+$1,$8,$9*
0 Add four rect primitives between the rounded corners*
20,1,$1+$1,$2,$3,$4,$5,0*
20,1,$1+$1,$4,$5,$6,$7,0*
20,1,$1+$1,$6,$7,$8,$9,0*
20,1,$1+$1,$8,$9,$2,$3,0*%
G04 Aperture macros list end*
%ADD10RoundRect,0.330000X-0.170000X-0.170000X0.170000X-0.170000X0.170000X0.170000X-0.170000X0.170000X0*%
%ADD11RoundRect,0.330000X0.170000X-0.170000X0.170000X0.170000X-0.170000X0.170000X-0.170000X-0.170000X0*%
%ADD12R,1.600000X1.600000*%
%ADD13O,1.600000X1.600000*%
%ADD14C,0.650000*%
%ADD15RoundRect,0.525000X0.525000X-1.475000X0.525000X1.475000X-0.525000X1.475000X-0.525000X-1.475000X0*%
%ADD16O,1.600000X1.000000*%
%ADD17RoundRect,0.400000X0.400000X-1.600000X0.400000X1.600000X-0.400000X1.600000X-0.400000X-1.600000X0*%
%ADD18O,2.100000X1.000000*%
%ADD19RoundRect,1.000000X-1.000000X2.000000X-1.000000X-2.000000X1.000000X-2.000000X1.000000X2.000000X0*%
G04 APERTURE END LIST*
D10*
%TO.C,TPc1*%
X87000000Y-114000000D03*
%TD*%
%TO.C,TP3*%
X71000000Y-106000000D03*
%TD*%
%TO.C,TP1*%
X61000000Y-94000000D03*
%TD*%
D11*
%TO.C,TPc4*%
X93000000Y-114000000D03*
%TD*%
D10*
%TO.C,TPb4*%
X99000000Y-108000000D03*
%TD*%
D11*
%TO.C,TPa2*%
X85000000Y-100000000D03*
%TD*%
%TO.C,TPc5*%
X95000000Y-114000000D03*
%TD*%
%TO.C,TPa4*%
X89000000Y-100000000D03*
%TD*%
%TO.C,TP9*%
X77000000Y-114000000D03*
%TD*%
D12*
%TO.C,SW504*%
X122936000Y-115062000D03*
D13*
X115316000Y-115062000D03*
%TD*%
D10*
%TO.C,TPb1*%
X99000000Y-102000000D03*
%TD*%
D11*
%TO.C,TPc2*%
X89000000Y-114000000D03*
%TD*%
%TO.C,TPa7*%
X95000000Y-100000000D03*
%TD*%
D10*
%TO.C,TPc0*%
X85000000Y-114000000D03*
%TD*%
%TO.C,TP2*%
X70000000Y-84074000D03*
%TD*%
%TO.C,TPb5*%
X99000000Y-110000000D03*
%TD*%
%TO.C,TP7*%
X61000000Y-106000000D03*
%TD*%
D11*
%TO.C,TPa0*%
X82080000Y-114000000D03*
%TD*%
%TO.C,TPa6*%
X93000000Y-100000000D03*
%TD*%
%TO.C,TPa1*%
X83000000Y-100000000D03*
%TD*%
D10*
%TO.C,TPb2*%
X99000000Y-104000000D03*
%TD*%
%TO.C,TP6*%
X71000000Y-104000000D03*
%TD*%
D11*
%TO.C,TP8*%
X79540000Y-114000000D03*
%TD*%
%TO.C,TPa5*%
X91000000Y-100000000D03*
%TD*%
D10*
%TO.C,TPb7*%
X99000000Y-114000000D03*
%TD*%
%TO.C,TPb0*%
X99000000Y-100000000D03*
%TD*%
%TO.C,TPb3*%
X99000000Y-106000000D03*
%TD*%
D11*
%TO.C,TPc3*%
X91000000Y-114000000D03*
%TD*%
%TO.C,TPa3*%
X87000000Y-100000000D03*
%TD*%
D14*
%TO.C,J1*%
X143800000Y-106838000D03*
X143800000Y-112618000D03*
D15*
X143281795Y-115574965D03*
D16*
X147450000Y-105408000D03*
D17*
X147450000Y-115574965D03*
D18*
X143270000Y-114048000D03*
X143270000Y-105408000D03*
D17*
X147450000Y-103881035D03*
D15*
X143281795Y-103881035D03*
D16*
X147450000Y-114048000D03*
D19*
X147670000Y-109728000D03*
%TD*%
D10*
%TO.C,TP4*%
X71000000Y-100000000D03*
%TD*%
%TO.C,TP5*%
X71000000Y-102000000D03*
%TD*%
%TO.C,TPb6*%
X99000000Y-112000000D03*
%TD*%
G36*
X56944163Y-90960607D02*
G01*
X57120737Y-90977998D01*
X57144963Y-90982816D01*
X57308809Y-91032518D01*
X57331629Y-91041971D01*
X57482628Y-91122681D01*
X57503166Y-91136404D01*
X57635515Y-91245020D01*
X57652980Y-91262485D01*
X57761596Y-91394834D01*
X57775319Y-91415372D01*
X57856029Y-91566371D01*
X57865482Y-91589191D01*
X57915184Y-91753037D01*
X57920002Y-91777263D01*
X57937393Y-91953837D01*
X57938000Y-91966187D01*
X57938000Y-107885813D01*
X57937393Y-107898163D01*
X57920002Y-108074737D01*
X57915184Y-108098963D01*
X57865482Y-108262809D01*
X57856029Y-108285629D01*
X57775319Y-108436628D01*
X57761596Y-108457166D01*
X57652980Y-108589515D01*
X57635515Y-108606980D01*
X57503166Y-108715596D01*
X57482628Y-108729319D01*
X57331629Y-108810029D01*
X57308809Y-108819482D01*
X57144963Y-108869184D01*
X57120737Y-108874002D01*
X56944163Y-108891393D01*
X56931813Y-108892000D01*
X50515629Y-108892000D01*
X50450833Y-108874062D01*
X50450311Y-108873749D01*
X50440048Y-108866890D01*
X50430088Y-108859503D01*
X50425214Y-108855700D01*
X50371050Y-108811249D01*
X50366366Y-108807208D01*
X50300884Y-108747858D01*
X50292142Y-108739116D01*
X50234868Y-108675925D01*
X50227022Y-108666365D01*
X50176223Y-108597869D01*
X50169354Y-108587589D01*
X50125508Y-108514437D01*
X50119679Y-108503531D01*
X50083213Y-108426429D01*
X50078482Y-108415006D01*
X50049756Y-108334723D01*
X50046166Y-108322890D01*
X50025442Y-108240153D01*
X50023030Y-108228027D01*
X50010062Y-108140609D01*
X50009305Y-108134471D01*
X50004968Y-108090440D01*
X50004702Y-108087357D01*
X50001432Y-108043019D01*
X50001129Y-108036844D01*
X50000038Y-107992419D01*
X50000000Y-107989326D01*
X50000000Y-92010674D01*
X50000038Y-92007581D01*
X50001129Y-91963156D01*
X50001432Y-91956981D01*
X50004702Y-91912643D01*
X50004968Y-91909560D01*
X50009305Y-91865529D01*
X50010062Y-91859392D01*
X50023029Y-91771976D01*
X50025441Y-91759849D01*
X50046164Y-91677117D01*
X50049753Y-91665284D01*
X50078482Y-91584991D01*
X50083214Y-91573567D01*
X50119679Y-91496468D01*
X50125508Y-91485563D01*
X50169354Y-91412411D01*
X50176223Y-91402131D01*
X50227018Y-91333641D01*
X50234862Y-91324083D01*
X50292140Y-91260885D01*
X50300885Y-91252140D01*
X50364076Y-91194867D01*
X50373635Y-91187022D01*
X50442131Y-91136223D01*
X50452411Y-91129354D01*
X50525563Y-91085508D01*
X50536469Y-91079679D01*
X50613565Y-91043216D01*
X50624988Y-91038485D01*
X50705285Y-91009754D01*
X50717118Y-91006164D01*
X50799849Y-90985441D01*
X50811976Y-90983029D01*
X50899392Y-90970062D01*
X50905529Y-90969305D01*
X50949560Y-90964968D01*
X50952643Y-90964702D01*
X50996981Y-90961432D01*
X51003156Y-90961129D01*
X51047581Y-90960038D01*
X51050674Y-90960000D01*
X56931813Y-90960000D01*
X56944163Y-90960607D01*
G37*
M02*
