%TF.GenerationSoftware,KiCad,Pcbnew,6.0.11+dfsg-1~bpo11+1*%
%TF.CreationDate,2024-03-25T23:47:07-04:00*%
%TF.ProjectId,Controller - ATTiny,436f6e74-726f-46c6-9c65-72202d204154,0.0.0*%
%TF.SameCoordinates,Original*%
%TF.FileFunction,Legend,Top*%
%TF.FilePolarity,Positive*%
%FSLAX46Y46*%
G04 Gerber Fmt 4.6, Leading zero omitted, Abs format (unit mm)*
G04 Created by KiCad (PCBNEW 6.0.11+dfsg-1~bpo11+1) date 2024-03-25 23:47:07*
%MOMM*%
%LPD*%
G01*
G04 APERTURE LIST*
%ADD10C,0.150000*%
%ADD11C,0.120000*%
%ADD12C,0.100000*%
%ADD13C,0.080000*%
G04 APERTURE END LIST*
D10*
X120262095Y-92527333D02*
X120214476Y-92479714D01*
X120119238Y-92336857D01*
X120071619Y-92241619D01*
X120024000Y-92098761D01*
X119976380Y-91860666D01*
X119976380Y-91670190D01*
X120024000Y-91432095D01*
X120071619Y-91289238D01*
X120119238Y-91194000D01*
X120214476Y-91051142D01*
X120262095Y-91003523D01*
X120643047Y-92146380D02*
X120643047Y-91146380D01*
X121214476Y-92146380D01*
X121214476Y-91146380D01*
X122119238Y-91479714D02*
X122119238Y-92146380D01*
X121690666Y-91479714D02*
X121690666Y-92003523D01*
X121738285Y-92098761D01*
X121833523Y-92146380D01*
X121976380Y-92146380D01*
X122071619Y-92098761D01*
X122119238Y-92051142D01*
X122452571Y-91479714D02*
X122833523Y-91479714D01*
X122595428Y-91146380D02*
X122595428Y-92003523D01*
X122643047Y-92098761D01*
X122738285Y-92146380D01*
X122833523Y-92146380D01*
X123166857Y-92146380D02*
X123166857Y-91146380D01*
X123595428Y-92146380D02*
X123595428Y-91622571D01*
X123547809Y-91527333D01*
X123452571Y-91479714D01*
X123309714Y-91479714D01*
X123214476Y-91527333D01*
X123166857Y-91574952D01*
X124071619Y-92146380D02*
X124071619Y-91479714D01*
X124071619Y-91146380D02*
X124024000Y-91194000D01*
X124071619Y-91241619D01*
X124119238Y-91194000D01*
X124071619Y-91146380D01*
X124071619Y-91241619D01*
X124547809Y-91479714D02*
X124547809Y-92146380D01*
X124547809Y-91574952D02*
X124595428Y-91527333D01*
X124690666Y-91479714D01*
X124833523Y-91479714D01*
X124928761Y-91527333D01*
X124976380Y-91622571D01*
X124976380Y-92146380D01*
X125500190Y-91146380D02*
X125404952Y-91336857D01*
X126547809Y-91479714D02*
X126928761Y-91479714D01*
X126690666Y-91146380D02*
X126690666Y-92003523D01*
X126738285Y-92098761D01*
X126833523Y-92146380D01*
X126928761Y-92146380D01*
X127404952Y-92146380D02*
X127309714Y-92098761D01*
X127262095Y-92051142D01*
X127214476Y-91955904D01*
X127214476Y-91670190D01*
X127262095Y-91574952D01*
X127309714Y-91527333D01*
X127404952Y-91479714D01*
X127547809Y-91479714D01*
X127643047Y-91527333D01*
X127690666Y-91574952D01*
X127738285Y-91670190D01*
X127738285Y-91955904D01*
X127690666Y-92051142D01*
X127643047Y-92098761D01*
X127547809Y-92146380D01*
X127404952Y-92146380D01*
X128881142Y-92098761D02*
X128976380Y-92146380D01*
X129166857Y-92146380D01*
X129262095Y-92098761D01*
X129309714Y-92003523D01*
X129309714Y-91955904D01*
X129262095Y-91860666D01*
X129166857Y-91813047D01*
X129024000Y-91813047D01*
X128928761Y-91765428D01*
X128881142Y-91670190D01*
X128881142Y-91622571D01*
X128928761Y-91527333D01*
X129024000Y-91479714D01*
X129166857Y-91479714D01*
X129262095Y-91527333D01*
X130119238Y-92098761D02*
X130024000Y-92146380D01*
X129833523Y-92146380D01*
X129738285Y-92098761D01*
X129690666Y-92003523D01*
X129690666Y-91622571D01*
X129738285Y-91527333D01*
X129833523Y-91479714D01*
X130024000Y-91479714D01*
X130119238Y-91527333D01*
X130166857Y-91622571D01*
X130166857Y-91717809D01*
X129690666Y-91813047D01*
X130976380Y-92098761D02*
X130881142Y-92146380D01*
X130690666Y-92146380D01*
X130595428Y-92098761D01*
X130547809Y-92003523D01*
X130547809Y-91622571D01*
X130595428Y-91527333D01*
X130690666Y-91479714D01*
X130881142Y-91479714D01*
X130976380Y-91527333D01*
X131024000Y-91622571D01*
X131024000Y-91717809D01*
X130547809Y-91813047D01*
X132214476Y-92146380D02*
X132214476Y-91146380D01*
X132643047Y-92146380D02*
X132643047Y-91622571D01*
X132595428Y-91527333D01*
X132500190Y-91479714D01*
X132357333Y-91479714D01*
X132262095Y-91527333D01*
X132214476Y-91574952D01*
X133500190Y-92098761D02*
X133404952Y-92146380D01*
X133214476Y-92146380D01*
X133119238Y-92098761D01*
X133071619Y-92003523D01*
X133071619Y-91622571D01*
X133119238Y-91527333D01*
X133214476Y-91479714D01*
X133404952Y-91479714D01*
X133500190Y-91527333D01*
X133547809Y-91622571D01*
X133547809Y-91717809D01*
X133071619Y-91813047D01*
X133976380Y-92146380D02*
X133976380Y-91479714D01*
X133976380Y-91670190D02*
X134024000Y-91574952D01*
X134071619Y-91527333D01*
X134166857Y-91479714D01*
X134262095Y-91479714D01*
X134976380Y-92098761D02*
X134881142Y-92146380D01*
X134690666Y-92146380D01*
X134595428Y-92098761D01*
X134547809Y-92003523D01*
X134547809Y-91622571D01*
X134595428Y-91527333D01*
X134690666Y-91479714D01*
X134881142Y-91479714D01*
X134976380Y-91527333D01*
X135024000Y-91622571D01*
X135024000Y-91717809D01*
X134547809Y-91813047D01*
X135452571Y-92051142D02*
X135500190Y-92098761D01*
X135452571Y-92146380D01*
X135404952Y-92098761D01*
X135452571Y-92051142D01*
X135452571Y-92146380D01*
X135928761Y-92051142D02*
X135976380Y-92098761D01*
X135928761Y-92146380D01*
X135881142Y-92098761D01*
X135928761Y-92051142D01*
X135928761Y-92146380D01*
X136404952Y-92051142D02*
X136452571Y-92098761D01*
X136404952Y-92146380D01*
X136357333Y-92098761D01*
X136404952Y-92051142D01*
X136404952Y-92146380D01*
X136785904Y-92527333D02*
X136833523Y-92479714D01*
X136928761Y-92336857D01*
X136976380Y-92241619D01*
X137024000Y-92098761D01*
X137071619Y-91860666D01*
X137071619Y-91670190D01*
X137024000Y-91432095D01*
X136976380Y-91289238D01*
X136928761Y-91194000D01*
X136833523Y-91051142D01*
X136785904Y-91003523D01*
X83706311Y-90436997D02*
X84847602Y-90377185D01*
X84381629Y-92404350D02*
X84276957Y-90407091D01*
X85618027Y-92339553D02*
X85513355Y-90342294D01*
X86473995Y-92294694D02*
X86419167Y-91248510D01*
X86314091Y-91063280D01*
X86118891Y-90978141D01*
X85833569Y-90993094D01*
X85648338Y-91098170D01*
X85558215Y-91198262D01*
X87425071Y-92244850D02*
X87355290Y-90913344D01*
X87320399Y-90247591D02*
X87230276Y-90347683D01*
X87330368Y-90437806D01*
X87420491Y-90337714D01*
X87320399Y-90247591D01*
X87330368Y-90437806D01*
X88276055Y-92104883D02*
X88471254Y-92190022D01*
X88851685Y-92170084D01*
X89036915Y-92065008D01*
X89122054Y-91869808D01*
X89117070Y-91774701D01*
X89011994Y-91589470D01*
X88816794Y-91504331D01*
X88531471Y-91519284D01*
X88336272Y-91434146D01*
X88231195Y-91248915D01*
X88226211Y-91153807D01*
X88311350Y-90958608D01*
X88496581Y-90853531D01*
X88781903Y-90838578D01*
X88977103Y-90923717D01*
X91414605Y-91940399D02*
X91609804Y-92025537D01*
X91990235Y-92005600D01*
X92175465Y-91900524D01*
X92260604Y-91705324D01*
X92255620Y-91610216D01*
X92150543Y-91424986D01*
X91955344Y-91339847D01*
X91670021Y-91354800D01*
X91474822Y-91269661D01*
X91369745Y-91084430D01*
X91364761Y-90989323D01*
X91449900Y-90794123D01*
X91635131Y-90689047D01*
X91920453Y-90674094D01*
X92115653Y-90759233D01*
X93061744Y-90614281D02*
X93166416Y-92611540D01*
X93066729Y-90709389D02*
X93251959Y-90604313D01*
X93632390Y-90584375D01*
X93827589Y-90669514D01*
X93927681Y-90759637D01*
X94032757Y-90944868D01*
X94062664Y-91515513D01*
X93977525Y-91710713D01*
X93887402Y-91810805D01*
X93702171Y-91915881D01*
X93321741Y-91935819D01*
X93126541Y-91850680D01*
X95794538Y-91806225D02*
X95739709Y-90760042D01*
X95634633Y-90574811D01*
X95439434Y-90489672D01*
X95059003Y-90509609D01*
X94873773Y-90614686D01*
X95789553Y-91711117D02*
X95604322Y-91816194D01*
X95128785Y-91841115D01*
X94933585Y-91755977D01*
X94828509Y-91570746D01*
X94818540Y-91380531D01*
X94903679Y-91185331D01*
X95088910Y-91080255D01*
X95564447Y-91055333D01*
X95749678Y-90950257D01*
X97596597Y-91616414D02*
X97411366Y-91721490D01*
X97030936Y-91741428D01*
X96835737Y-91656289D01*
X96735645Y-91566166D01*
X96630568Y-91380935D01*
X96600662Y-90810290D01*
X96685801Y-90615090D01*
X96775924Y-90514998D01*
X96961155Y-90409922D01*
X97341585Y-90389984D01*
X97536785Y-90475123D01*
X99213426Y-91531680D02*
X99028195Y-91636756D01*
X98647765Y-91656694D01*
X98452565Y-91571555D01*
X98347489Y-91386324D01*
X98307614Y-90625463D01*
X98392753Y-90430264D01*
X98577984Y-90325187D01*
X98958414Y-90305250D01*
X99153613Y-90390389D01*
X99258690Y-90575620D01*
X99268658Y-90765835D01*
X98327551Y-91005894D01*
X101691207Y-91497193D02*
X101621426Y-90165687D01*
X101586535Y-89499934D02*
X101496412Y-89600026D01*
X101596504Y-89690150D01*
X101686627Y-89590058D01*
X101586535Y-89499934D01*
X101596504Y-89690150D01*
X102572502Y-90115844D02*
X102642283Y-91447350D01*
X102582470Y-90306059D02*
X102672594Y-90205967D01*
X102857824Y-90100891D01*
X103143147Y-90085937D01*
X103338347Y-90171076D01*
X103443423Y-90356307D01*
X103498251Y-91402490D01*
X104094223Y-90036094D02*
X104855083Y-89996219D01*
X104344655Y-89355387D02*
X104434374Y-91067324D01*
X104539450Y-91252555D01*
X104734650Y-91337693D01*
X104924865Y-91327725D01*
X106346494Y-91157851D02*
X106161263Y-91262928D01*
X105780833Y-91282865D01*
X105585633Y-91197726D01*
X105480557Y-91012496D01*
X105440682Y-90251635D01*
X105525821Y-90056436D01*
X105711052Y-89951359D01*
X106091482Y-89931422D01*
X106286681Y-90016561D01*
X106391758Y-90201791D01*
X106401727Y-90392006D01*
X105460620Y-90632065D01*
X107232773Y-89871609D02*
X107302554Y-91203115D01*
X107242742Y-90061824D02*
X107332865Y-89961732D01*
X107518096Y-89856656D01*
X107803418Y-89841703D01*
X107998618Y-89926842D01*
X108103694Y-90112073D01*
X108158522Y-91158256D01*
X108754494Y-89791859D02*
X109515355Y-89751984D01*
X109004926Y-89111153D02*
X109094645Y-90823089D01*
X109199721Y-91008320D01*
X109394921Y-91093459D01*
X109585136Y-91083490D01*
X110250889Y-91048600D02*
X110181108Y-89717094D01*
X110146217Y-89051341D02*
X110056094Y-89151432D01*
X110156186Y-89241556D01*
X110246309Y-89141464D01*
X110146217Y-89051341D01*
X110156186Y-89241556D01*
X111487287Y-90983803D02*
X111292088Y-90898664D01*
X111191996Y-90808541D01*
X111086920Y-90623310D01*
X111057013Y-90052664D01*
X111142152Y-89857465D01*
X111232275Y-89757373D01*
X111417506Y-89652297D01*
X111702829Y-89637344D01*
X111898028Y-89722482D01*
X111998120Y-89812606D01*
X112103197Y-89997836D01*
X112133103Y-90568482D01*
X112047964Y-90763681D01*
X111957841Y-90863773D01*
X111772610Y-90968850D01*
X111487287Y-90983803D01*
X112939227Y-89572547D02*
X113009009Y-90904053D01*
X112949196Y-89762762D02*
X113039319Y-89662670D01*
X113224550Y-89557593D01*
X113509873Y-89542640D01*
X113705072Y-89627779D01*
X113810149Y-89813010D01*
X113864977Y-90859193D01*
X115672021Y-90764490D02*
X115617193Y-89718307D01*
X115512116Y-89533076D01*
X115316917Y-89447937D01*
X114936486Y-89467875D01*
X114751256Y-89572951D01*
X115667036Y-90669383D02*
X115481806Y-90774459D01*
X115006268Y-90799381D01*
X114811068Y-90714242D01*
X114705992Y-90529011D01*
X114696023Y-90338796D01*
X114781162Y-90143596D01*
X114966393Y-90038520D01*
X115441931Y-90013598D01*
X115627161Y-89908522D01*
X116908419Y-90699693D02*
X116713220Y-90614554D01*
X116608143Y-90429324D01*
X116518425Y-88717387D01*
X117954603Y-90644865D02*
X117759403Y-90559726D01*
X117654327Y-90374495D01*
X117564608Y-88662559D01*
X118455467Y-89283453D02*
X119000786Y-90590037D01*
X119406542Y-89233609D02*
X119000786Y-90590037D01*
X118835493Y-91075544D01*
X118745369Y-91175635D01*
X118560139Y-91280712D01*
X122044228Y-90430537D02*
X121849029Y-90345398D01*
X121743952Y-90160167D01*
X121654234Y-88448231D01*
X123560965Y-90255679D02*
X123375734Y-90360756D01*
X122995304Y-90380693D01*
X122800104Y-90295554D01*
X122695028Y-90110323D01*
X122655153Y-89349463D01*
X122740292Y-89154263D01*
X122925523Y-89049187D01*
X123305953Y-89029250D01*
X123501153Y-89114388D01*
X123606229Y-89299619D01*
X123616198Y-89489834D01*
X122675091Y-89729893D01*
X124161921Y-88984390D02*
X124922782Y-88944515D01*
X124517025Y-90300943D02*
X124427306Y-88589007D01*
X124512445Y-88393807D01*
X124697676Y-88288731D01*
X124887891Y-88278762D01*
X125303212Y-88924578D02*
X126064073Y-88884703D01*
X125553644Y-88243871D02*
X125643363Y-89955808D01*
X125748439Y-90141039D01*
X125943639Y-90226177D01*
X126133854Y-90216209D01*
X128321328Y-90101568D02*
X128216656Y-88104309D01*
X128256531Y-88865170D02*
X128441762Y-88760093D01*
X128822192Y-88740156D01*
X129017392Y-88825295D01*
X129117484Y-88915418D01*
X129222560Y-89100648D01*
X129252466Y-89671294D01*
X129167328Y-89866493D01*
X129077204Y-89966585D01*
X128891974Y-90071662D01*
X128511543Y-90091599D01*
X128316344Y-90006460D01*
X130413695Y-89991912D02*
X130218495Y-89906773D01*
X130113419Y-89721542D01*
X130023700Y-88009606D01*
X132030524Y-89907177D02*
X131975695Y-88860994D01*
X131870619Y-88675763D01*
X131675420Y-88590624D01*
X131294989Y-88610562D01*
X131109758Y-88715638D01*
X132025539Y-89812070D02*
X131840308Y-89917146D01*
X131364771Y-89942068D01*
X131169571Y-89856929D01*
X131064495Y-89671698D01*
X131054526Y-89481483D01*
X131139665Y-89286284D01*
X131324896Y-89181207D01*
X131800433Y-89156285D01*
X131985664Y-89051209D01*
X132911818Y-88525827D02*
X132981599Y-89857334D01*
X132921787Y-88716043D02*
X133011910Y-88615951D01*
X133197141Y-88510874D01*
X133482463Y-88495921D01*
X133677663Y-88581060D01*
X133782739Y-88766291D01*
X133837567Y-89812474D01*
X134788643Y-89762630D02*
X134683971Y-87765371D01*
X134938983Y-88991801D02*
X135549504Y-89722755D01*
X135479723Y-88391249D02*
X134758737Y-89191985D01*
D11*
X76000000Y-112100000D02*
X76000000Y-113030000D01*
X82700000Y-111700000D02*
X76400000Y-111700000D01*
X76400000Y-115000000D02*
X82700000Y-115000000D01*
X76000000Y-113030000D02*
X76000000Y-114600000D01*
D12*
X60000000Y-82000000D02*
X149000000Y-82000000D01*
D11*
X83100000Y-112100000D02*
G75*
G03*
X82700000Y-111700000I-400000J0D01*
G01*
D12*
X75000000Y-118000000D02*
X149000000Y-118000000D01*
D11*
X83100000Y-114600000D02*
X83100000Y-113030000D01*
X76400000Y-111700000D02*
G75*
G03*
X76000000Y-112100000I0J-400000D01*
G01*
X76000000Y-114600000D02*
G75*
G03*
X76400000Y-115000000I400000J0D01*
G01*
X82700000Y-115000000D02*
G75*
G03*
X83100000Y-114600000I0J400000D01*
G01*
X83100000Y-113030000D02*
X76000000Y-113030000D01*
X83100000Y-113030000D02*
X83100000Y-112100000D01*
D10*
X62668928Y-80928571D02*
X62811785Y-80976190D01*
X62859404Y-81023809D01*
X62907023Y-81119047D01*
X62907023Y-81261904D01*
X62859404Y-81357142D01*
X62811785Y-81404761D01*
X62716547Y-81452380D01*
X62335595Y-81452380D01*
X62335595Y-80452380D01*
X62668928Y-80452380D01*
X62764166Y-80500000D01*
X62811785Y-80547619D01*
X62859404Y-80642857D01*
X62859404Y-80738095D01*
X62811785Y-80833333D01*
X62764166Y-80880952D01*
X62668928Y-80928571D01*
X62335595Y-80928571D01*
X63716547Y-81404761D02*
X63621309Y-81452380D01*
X63430833Y-81452380D01*
X63335595Y-81404761D01*
X63287976Y-81309523D01*
X63287976Y-80928571D01*
X63335595Y-80833333D01*
X63430833Y-80785714D01*
X63621309Y-80785714D01*
X63716547Y-80833333D01*
X63764166Y-80928571D01*
X63764166Y-81023809D01*
X63287976Y-81119047D01*
X64192738Y-80785714D02*
X64192738Y-81452380D01*
X64192738Y-80880952D02*
X64240357Y-80833333D01*
X64335595Y-80785714D01*
X64478452Y-80785714D01*
X64573690Y-80833333D01*
X64621309Y-80928571D01*
X64621309Y-81452380D01*
X65526071Y-81404761D02*
X65430833Y-81452380D01*
X65240357Y-81452380D01*
X65145119Y-81404761D01*
X65097500Y-81357142D01*
X65049880Y-81261904D01*
X65049880Y-80976190D01*
X65097500Y-80880952D01*
X65145119Y-80833333D01*
X65240357Y-80785714D01*
X65430833Y-80785714D01*
X65526071Y-80833333D01*
X65954642Y-81452380D02*
X65954642Y-80452380D01*
X66383214Y-81452380D02*
X66383214Y-80928571D01*
X66335595Y-80833333D01*
X66240357Y-80785714D01*
X66097500Y-80785714D01*
X66002261Y-80833333D01*
X65954642Y-80880952D01*
X66716547Y-80785714D02*
X67097500Y-80785714D01*
X66859404Y-80452380D02*
X66859404Y-81309523D01*
X66907023Y-81404761D01*
X67002261Y-81452380D01*
X67097500Y-81452380D01*
X67573690Y-81452380D02*
X67478452Y-81404761D01*
X67430833Y-81357142D01*
X67383214Y-81261904D01*
X67383214Y-80976190D01*
X67430833Y-80880952D01*
X67478452Y-80833333D01*
X67573690Y-80785714D01*
X67716547Y-80785714D01*
X67811785Y-80833333D01*
X67859404Y-80880952D01*
X67907023Y-80976190D01*
X67907023Y-81261904D01*
X67859404Y-81357142D01*
X67811785Y-81404761D01*
X67716547Y-81452380D01*
X67573690Y-81452380D01*
X68335595Y-80785714D02*
X68335595Y-81785714D01*
X68335595Y-80833333D02*
X68430833Y-80785714D01*
X68621309Y-80785714D01*
X68716547Y-80833333D01*
X68764166Y-80880952D01*
X68811785Y-80976190D01*
X68811785Y-81261904D01*
X68764166Y-81357142D01*
X68716547Y-81404761D01*
X68621309Y-81452380D01*
X68430833Y-81452380D01*
X68335595Y-81404761D01*
X70002261Y-81452380D02*
X70002261Y-80452380D01*
X70335595Y-81166666D01*
X70668928Y-80452380D01*
X70668928Y-81452380D01*
X71287976Y-81452380D02*
X71192738Y-81404761D01*
X71145119Y-81357142D01*
X71097500Y-81261904D01*
X71097500Y-80976190D01*
X71145119Y-80880952D01*
X71192738Y-80833333D01*
X71287976Y-80785714D01*
X71430833Y-80785714D01*
X71526071Y-80833333D01*
X71573690Y-80880952D01*
X71621309Y-80976190D01*
X71621309Y-81261904D01*
X71573690Y-81357142D01*
X71526071Y-81404761D01*
X71430833Y-81452380D01*
X71287976Y-81452380D01*
X72478452Y-81452380D02*
X72478452Y-80452380D01*
X72478452Y-81404761D02*
X72383214Y-81452380D01*
X72192738Y-81452380D01*
X72097500Y-81404761D01*
X72049880Y-81357142D01*
X72002261Y-81261904D01*
X72002261Y-80976190D01*
X72049880Y-80880952D01*
X72097500Y-80833333D01*
X72192738Y-80785714D01*
X72383214Y-80785714D01*
X72478452Y-80833333D01*
X73383214Y-80785714D02*
X73383214Y-81452380D01*
X72954642Y-80785714D02*
X72954642Y-81309523D01*
X73002261Y-81404761D01*
X73097500Y-81452380D01*
X73240357Y-81452380D01*
X73335595Y-81404761D01*
X73383214Y-81357142D01*
X74002261Y-81452380D02*
X73907023Y-81404761D01*
X73859404Y-81309523D01*
X73859404Y-80452380D01*
X74811785Y-81452380D02*
X74811785Y-80928571D01*
X74764166Y-80833333D01*
X74668928Y-80785714D01*
X74478452Y-80785714D01*
X74383214Y-80833333D01*
X74811785Y-81404761D02*
X74716547Y-81452380D01*
X74478452Y-81452380D01*
X74383214Y-81404761D01*
X74335595Y-81309523D01*
X74335595Y-81214285D01*
X74383214Y-81119047D01*
X74478452Y-81071428D01*
X74716547Y-81071428D01*
X74811785Y-81023809D01*
X75287976Y-81452380D02*
X75287976Y-80785714D01*
X75287976Y-80976190D02*
X75335595Y-80880952D01*
X75383214Y-80833333D01*
X75478452Y-80785714D01*
X75573690Y-80785714D01*
X76668928Y-81452380D02*
X76668928Y-80452380D01*
X77049880Y-80452380D01*
X77145119Y-80500000D01*
X77192738Y-80547619D01*
X77240357Y-80642857D01*
X77240357Y-80785714D01*
X77192738Y-80880952D01*
X77145119Y-80928571D01*
X77049880Y-80976190D01*
X76668928Y-80976190D01*
X77811785Y-81452380D02*
X77716547Y-81404761D01*
X77668928Y-81357142D01*
X77621309Y-81261904D01*
X77621309Y-80976190D01*
X77668928Y-80880952D01*
X77716547Y-80833333D01*
X77811785Y-80785714D01*
X77954642Y-80785714D01*
X78049880Y-80833333D01*
X78097500Y-80880952D01*
X78145119Y-80976190D01*
X78145119Y-81261904D01*
X78097500Y-81357142D01*
X78049880Y-81404761D01*
X77954642Y-81452380D01*
X77811785Y-81452380D01*
X78478452Y-80785714D02*
X78668928Y-81452380D01*
X78859404Y-80976190D01*
X79049880Y-81452380D01*
X79240357Y-80785714D01*
X80002261Y-81404761D02*
X79907023Y-81452380D01*
X79716547Y-81452380D01*
X79621309Y-81404761D01*
X79573690Y-81309523D01*
X79573690Y-80928571D01*
X79621309Y-80833333D01*
X79716547Y-80785714D01*
X79907023Y-80785714D01*
X80002261Y-80833333D01*
X80049880Y-80928571D01*
X80049880Y-81023809D01*
X79573690Y-81119047D01*
X80478452Y-81452380D02*
X80478452Y-80785714D01*
X80478452Y-80976190D02*
X80526071Y-80880952D01*
X80573690Y-80833333D01*
X80668928Y-80785714D01*
X80764166Y-80785714D01*
X81811785Y-81404761D02*
X81954642Y-81452380D01*
X82192738Y-81452380D01*
X82287976Y-81404761D01*
X82335595Y-81357142D01*
X82383214Y-81261904D01*
X82383214Y-81166666D01*
X82335595Y-81071428D01*
X82287976Y-81023809D01*
X82192738Y-80976190D01*
X82002261Y-80928571D01*
X81907023Y-80880952D01*
X81859404Y-80833333D01*
X81811785Y-80738095D01*
X81811785Y-80642857D01*
X81859404Y-80547619D01*
X81907023Y-80500000D01*
X82002261Y-80452380D01*
X82240357Y-80452380D01*
X82383214Y-80500000D01*
X82668928Y-80785714D02*
X83049880Y-80785714D01*
X82811785Y-80452380D02*
X82811785Y-81309523D01*
X82859404Y-81404761D01*
X82954642Y-81452380D01*
X83049880Y-81452380D01*
X83383214Y-81452380D02*
X83383214Y-80785714D01*
X83383214Y-80976190D02*
X83430833Y-80880952D01*
X83478452Y-80833333D01*
X83573690Y-80785714D01*
X83668928Y-80785714D01*
X84002261Y-81452380D02*
X84002261Y-80785714D01*
X84002261Y-80452380D02*
X83954642Y-80500000D01*
X84002261Y-80547619D01*
X84049880Y-80500000D01*
X84002261Y-80452380D01*
X84002261Y-80547619D01*
X84478452Y-80785714D02*
X84478452Y-81785714D01*
X84478452Y-80833333D02*
X84573690Y-80785714D01*
X84764166Y-80785714D01*
X84859404Y-80833333D01*
X84907023Y-80880952D01*
X84954642Y-80976190D01*
X84954642Y-81261904D01*
X84907023Y-81357142D01*
X84859404Y-81404761D01*
X84764166Y-81452380D01*
X84573690Y-81452380D01*
X84478452Y-81404761D01*
X110188214Y-81452380D02*
X110188214Y-80452380D01*
X110521547Y-81166666D01*
X110854880Y-80452380D01*
X110854880Y-81452380D01*
X111759642Y-81452380D02*
X111759642Y-80928571D01*
X111712023Y-80833333D01*
X111616785Y-80785714D01*
X111426309Y-80785714D01*
X111331071Y-80833333D01*
X111759642Y-81404761D02*
X111664404Y-81452380D01*
X111426309Y-81452380D01*
X111331071Y-81404761D01*
X111283452Y-81309523D01*
X111283452Y-81214285D01*
X111331071Y-81119047D01*
X111426309Y-81071428D01*
X111664404Y-81071428D01*
X111759642Y-81023809D01*
X112188214Y-81404761D02*
X112283452Y-81452380D01*
X112473928Y-81452380D01*
X112569166Y-81404761D01*
X112616785Y-81309523D01*
X112616785Y-81261904D01*
X112569166Y-81166666D01*
X112473928Y-81119047D01*
X112331071Y-81119047D01*
X112235833Y-81071428D01*
X112188214Y-80976190D01*
X112188214Y-80928571D01*
X112235833Y-80833333D01*
X112331071Y-80785714D01*
X112473928Y-80785714D01*
X112569166Y-80833333D01*
X112902500Y-80785714D02*
X113283452Y-80785714D01*
X113045357Y-80452380D02*
X113045357Y-81309523D01*
X113092976Y-81404761D01*
X113188214Y-81452380D01*
X113283452Y-81452380D01*
X113997738Y-81404761D02*
X113902500Y-81452380D01*
X113712023Y-81452380D01*
X113616785Y-81404761D01*
X113569166Y-81309523D01*
X113569166Y-80928571D01*
X113616785Y-80833333D01*
X113712023Y-80785714D01*
X113902500Y-80785714D01*
X113997738Y-80833333D01*
X114045357Y-80928571D01*
X114045357Y-81023809D01*
X113569166Y-81119047D01*
X114473928Y-81452380D02*
X114473928Y-80785714D01*
X114473928Y-80976190D02*
X114521547Y-80880952D01*
X114569166Y-80833333D01*
X114664404Y-80785714D01*
X114759642Y-80785714D01*
X116426309Y-81357142D02*
X116378690Y-81404761D01*
X116235833Y-81452380D01*
X116140595Y-81452380D01*
X115997738Y-81404761D01*
X115902500Y-81309523D01*
X115854880Y-81214285D01*
X115807261Y-81023809D01*
X115807261Y-80880952D01*
X115854880Y-80690476D01*
X115902500Y-80595238D01*
X115997738Y-80500000D01*
X116140595Y-80452380D01*
X116235833Y-80452380D01*
X116378690Y-80500000D01*
X116426309Y-80547619D01*
X116997738Y-81452380D02*
X116902500Y-81404761D01*
X116854880Y-81357142D01*
X116807261Y-81261904D01*
X116807261Y-80976190D01*
X116854880Y-80880952D01*
X116902500Y-80833333D01*
X116997738Y-80785714D01*
X117140595Y-80785714D01*
X117235833Y-80833333D01*
X117283452Y-80880952D01*
X117331071Y-80976190D01*
X117331071Y-81261904D01*
X117283452Y-81357142D01*
X117235833Y-81404761D01*
X117140595Y-81452380D01*
X116997738Y-81452380D01*
X117759642Y-80785714D02*
X117759642Y-81452380D01*
X117759642Y-80880952D02*
X117807261Y-80833333D01*
X117902500Y-80785714D01*
X118045357Y-80785714D01*
X118140595Y-80833333D01*
X118188214Y-80928571D01*
X118188214Y-81452380D01*
X118521547Y-80785714D02*
X118902500Y-80785714D01*
X118664404Y-80452380D02*
X118664404Y-81309523D01*
X118712023Y-81404761D01*
X118807261Y-81452380D01*
X118902500Y-81452380D01*
X119235833Y-81452380D02*
X119235833Y-80785714D01*
X119235833Y-80976190D02*
X119283452Y-80880952D01*
X119331071Y-80833333D01*
X119426309Y-80785714D01*
X119521547Y-80785714D01*
X119997738Y-81452380D02*
X119902500Y-81404761D01*
X119854880Y-81357142D01*
X119807261Y-81261904D01*
X119807261Y-80976190D01*
X119854880Y-80880952D01*
X119902500Y-80833333D01*
X119997738Y-80785714D01*
X120140595Y-80785714D01*
X120235833Y-80833333D01*
X120283452Y-80880952D01*
X120331071Y-80976190D01*
X120331071Y-81261904D01*
X120283452Y-81357142D01*
X120235833Y-81404761D01*
X120140595Y-81452380D01*
X119997738Y-81452380D01*
X120902500Y-81452380D02*
X120807261Y-81404761D01*
X120759642Y-81309523D01*
X120759642Y-80452380D01*
X122045357Y-81452380D02*
X122045357Y-80452380D01*
X122378690Y-81166666D01*
X122712023Y-80452380D01*
X122712023Y-81452380D01*
X123331071Y-81452380D02*
X123235833Y-81404761D01*
X123188214Y-81357142D01*
X123140595Y-81261904D01*
X123140595Y-80976190D01*
X123188214Y-80880952D01*
X123235833Y-80833333D01*
X123331071Y-80785714D01*
X123473928Y-80785714D01*
X123569166Y-80833333D01*
X123616785Y-80880952D01*
X123664404Y-80976190D01*
X123664404Y-81261904D01*
X123616785Y-81357142D01*
X123569166Y-81404761D01*
X123473928Y-81452380D01*
X123331071Y-81452380D01*
X124521547Y-81452380D02*
X124521547Y-80452380D01*
X124521547Y-81404761D02*
X124426309Y-81452380D01*
X124235833Y-81452380D01*
X124140595Y-81404761D01*
X124092976Y-81357142D01*
X124045357Y-81261904D01*
X124045357Y-80976190D01*
X124092976Y-80880952D01*
X124140595Y-80833333D01*
X124235833Y-80785714D01*
X124426309Y-80785714D01*
X124521547Y-80833333D01*
X125426309Y-80785714D02*
X125426309Y-81452380D01*
X124997738Y-80785714D02*
X124997738Y-81309523D01*
X125045357Y-81404761D01*
X125140595Y-81452380D01*
X125283452Y-81452380D01*
X125378690Y-81404761D01*
X125426309Y-81357142D01*
X126045357Y-81452380D02*
X125950119Y-81404761D01*
X125902500Y-81309523D01*
X125902500Y-80452380D01*
X126807261Y-81404761D02*
X126712023Y-81452380D01*
X126521547Y-81452380D01*
X126426309Y-81404761D01*
X126378690Y-81309523D01*
X126378690Y-80928571D01*
X126426309Y-80833333D01*
X126521547Y-80785714D01*
X126712023Y-80785714D01*
X126807261Y-80833333D01*
X126854880Y-80928571D01*
X126854880Y-81023809D01*
X126378690Y-81119047D01*
X128045357Y-81071428D02*
X128807261Y-81071428D01*
X129997738Y-81166666D02*
X130473928Y-81166666D01*
X129902500Y-81452380D02*
X130235833Y-80452380D01*
X130569166Y-81452380D01*
X130759642Y-80452380D02*
X131331071Y-80452380D01*
X131045357Y-81452380D02*
X131045357Y-80452380D01*
X131521547Y-80452380D02*
X132092976Y-80452380D01*
X131807261Y-81452380D02*
X131807261Y-80452380D01*
X132426309Y-81452380D02*
X132426309Y-80785714D01*
X132426309Y-80452380D02*
X132378690Y-80500000D01*
X132426309Y-80547619D01*
X132473928Y-80500000D01*
X132426309Y-80452380D01*
X132426309Y-80547619D01*
X132902500Y-80785714D02*
X132902500Y-81452380D01*
X132902500Y-80880952D02*
X132950119Y-80833333D01*
X133045357Y-80785714D01*
X133188214Y-80785714D01*
X133283452Y-80833333D01*
X133331071Y-80928571D01*
X133331071Y-81452380D01*
X133712023Y-80785714D02*
X133950119Y-81452380D01*
X134188214Y-80785714D02*
X133950119Y-81452380D01*
X133854880Y-81690476D01*
X133807261Y-81738095D01*
X133712023Y-81785714D01*
X135331071Y-80928571D02*
X135664404Y-80928571D01*
X135807261Y-81452380D02*
X135331071Y-81452380D01*
X135331071Y-80452380D01*
X135807261Y-80452380D01*
X136664404Y-81452380D02*
X136664404Y-80452380D01*
X136664404Y-81404761D02*
X136569166Y-81452380D01*
X136378690Y-81452380D01*
X136283452Y-81404761D01*
X136235833Y-81357142D01*
X136188214Y-81261904D01*
X136188214Y-80976190D01*
X136235833Y-80880952D01*
X136283452Y-80833333D01*
X136378690Y-80785714D01*
X136569166Y-80785714D01*
X136664404Y-80833333D01*
X137140595Y-81452380D02*
X137140595Y-80785714D01*
X137140595Y-80452380D02*
X137092976Y-80500000D01*
X137140595Y-80547619D01*
X137188214Y-80500000D01*
X137140595Y-80452380D01*
X137140595Y-80547619D01*
X137473928Y-80785714D02*
X137854880Y-80785714D01*
X137616785Y-80452380D02*
X137616785Y-81309523D01*
X137664404Y-81404761D01*
X137759642Y-81452380D01*
X137854880Y-81452380D01*
X138188214Y-81452380D02*
X138188214Y-80785714D01*
X138188214Y-80452380D02*
X138140595Y-80500000D01*
X138188214Y-80547619D01*
X138235833Y-80500000D01*
X138188214Y-80452380D01*
X138188214Y-80547619D01*
X138807261Y-81452380D02*
X138712023Y-81404761D01*
X138664404Y-81357142D01*
X138616785Y-81261904D01*
X138616785Y-80976190D01*
X138664404Y-80880952D01*
X138712023Y-80833333D01*
X138807261Y-80785714D01*
X138950119Y-80785714D01*
X139045357Y-80833333D01*
X139092976Y-80880952D01*
X139140595Y-80976190D01*
X139140595Y-81261904D01*
X139092976Y-81357142D01*
X139045357Y-81404761D01*
X138950119Y-81452380D01*
X138807261Y-81452380D01*
X139569166Y-80785714D02*
X139569166Y-81452380D01*
X139569166Y-80880952D02*
X139616785Y-80833333D01*
X139712023Y-80785714D01*
X139854880Y-80785714D01*
X139950119Y-80833333D01*
X139997738Y-80928571D01*
X139997738Y-81452380D01*
X141521547Y-81833333D02*
X141473928Y-81785714D01*
X141378690Y-81642857D01*
X141331071Y-81547619D01*
X141283452Y-81404761D01*
X141235833Y-81166666D01*
X141235833Y-80976190D01*
X141283452Y-80738095D01*
X141331071Y-80595238D01*
X141378690Y-80500000D01*
X141473928Y-80357142D01*
X141521547Y-80309523D01*
X141807261Y-80785714D02*
X142045357Y-81452380D01*
X142283452Y-80785714D01*
X142854880Y-80452380D02*
X142950119Y-80452380D01*
X143045357Y-80500000D01*
X143092976Y-80547619D01*
X143140595Y-80642857D01*
X143188214Y-80833333D01*
X143188214Y-81071428D01*
X143140595Y-81261904D01*
X143092976Y-81357142D01*
X143045357Y-81404761D01*
X142950119Y-81452380D01*
X142854880Y-81452380D01*
X142759642Y-81404761D01*
X142712023Y-81357142D01*
X142664404Y-81261904D01*
X142616785Y-81071428D01*
X142616785Y-80833333D01*
X142664404Y-80642857D01*
X142712023Y-80547619D01*
X142759642Y-80500000D01*
X142854880Y-80452380D01*
X143616785Y-81357142D02*
X143664404Y-81404761D01*
X143616785Y-81452380D01*
X143569166Y-81404761D01*
X143616785Y-81357142D01*
X143616785Y-81452380D01*
X144283452Y-80452380D02*
X144378690Y-80452380D01*
X144473928Y-80500000D01*
X144521547Y-80547619D01*
X144569166Y-80642857D01*
X144616785Y-80833333D01*
X144616785Y-81071428D01*
X144569166Y-81261904D01*
X144521547Y-81357142D01*
X144473928Y-81404761D01*
X144378690Y-81452380D01*
X144283452Y-81452380D01*
X144188214Y-81404761D01*
X144140595Y-81357142D01*
X144092976Y-81261904D01*
X144045357Y-81071428D01*
X144045357Y-80833333D01*
X144092976Y-80642857D01*
X144140595Y-80547619D01*
X144188214Y-80500000D01*
X144283452Y-80452380D01*
X145045357Y-81357142D02*
X145092976Y-81404761D01*
X145045357Y-81452380D01*
X144997738Y-81404761D01*
X145045357Y-81357142D01*
X145045357Y-81452380D01*
X145712023Y-80452380D02*
X145807261Y-80452380D01*
X145902500Y-80500000D01*
X145950119Y-80547619D01*
X145997738Y-80642857D01*
X146045357Y-80833333D01*
X146045357Y-81071428D01*
X145997738Y-81261904D01*
X145950119Y-81357142D01*
X145902500Y-81404761D01*
X145807261Y-81452380D01*
X145712023Y-81452380D01*
X145616785Y-81404761D01*
X145569166Y-81357142D01*
X145521547Y-81261904D01*
X145473928Y-81071428D01*
X145473928Y-80833333D01*
X145521547Y-80642857D01*
X145569166Y-80547619D01*
X145616785Y-80500000D01*
X145712023Y-80452380D01*
X146378690Y-81833333D02*
X146426309Y-81785714D01*
X146521547Y-81642857D01*
X146569166Y-81547619D01*
X146616785Y-81404761D01*
X146664404Y-81166666D01*
X146664404Y-80976190D01*
X146616785Y-80738095D01*
X146569166Y-80595238D01*
X146521547Y-80500000D01*
X146426309Y-80357142D01*
X146378690Y-80309523D01*
X76625000Y-117011785D02*
X76589285Y-117083214D01*
X76589285Y-117190357D01*
X76625000Y-117297500D01*
X76696428Y-117368928D01*
X76767857Y-117404642D01*
X76910714Y-117440357D01*
X77017857Y-117440357D01*
X77160714Y-117404642D01*
X77232142Y-117368928D01*
X77303571Y-117297500D01*
X77339285Y-117190357D01*
X77339285Y-117118928D01*
X77303571Y-117011785D01*
X77267857Y-116976071D01*
X77017857Y-116976071D01*
X77017857Y-117118928D01*
X77339285Y-116654642D02*
X76589285Y-116654642D01*
X77339285Y-116226071D01*
X76589285Y-116226071D01*
X77339285Y-115868928D02*
X76589285Y-115868928D01*
X76589285Y-115690357D01*
X76625000Y-115583214D01*
X76696428Y-115511785D01*
X76767857Y-115476071D01*
X76910714Y-115440357D01*
X77017857Y-115440357D01*
X77160714Y-115476071D01*
X77232142Y-115511785D01*
X77303571Y-115583214D01*
X77339285Y-115690357D01*
X77339285Y-115868928D01*
X68976190Y-85252380D02*
X69309523Y-86252380D01*
X69642857Y-85252380D01*
X69976190Y-86252380D02*
X69976190Y-85585714D01*
X69976190Y-85252380D02*
X69928571Y-85300000D01*
X69976190Y-85347619D01*
X70023809Y-85300000D01*
X69976190Y-85252380D01*
X69976190Y-85347619D01*
X70452380Y-85585714D02*
X70452380Y-86252380D01*
X70452380Y-85680952D02*
X70500000Y-85633333D01*
X70595238Y-85585714D01*
X70738095Y-85585714D01*
X70833333Y-85633333D01*
X70880952Y-85728571D01*
X70880952Y-86252380D01*
X67181071Y-104404761D02*
X67323928Y-104452380D01*
X67562023Y-104452380D01*
X67657261Y-104404761D01*
X67704880Y-104357142D01*
X67752500Y-104261904D01*
X67752500Y-104166666D01*
X67704880Y-104071428D01*
X67657261Y-104023809D01*
X67562023Y-103976190D01*
X67371547Y-103928571D01*
X67276309Y-103880952D01*
X67228690Y-103833333D01*
X67181071Y-103738095D01*
X67181071Y-103642857D01*
X67228690Y-103547619D01*
X67276309Y-103500000D01*
X67371547Y-103452380D01*
X67609642Y-103452380D01*
X67752500Y-103500000D01*
X68752500Y-104357142D02*
X68704880Y-104404761D01*
X68562023Y-104452380D01*
X68466785Y-104452380D01*
X68323928Y-104404761D01*
X68228690Y-104309523D01*
X68181071Y-104214285D01*
X68133452Y-104023809D01*
X68133452Y-103880952D01*
X68181071Y-103690476D01*
X68228690Y-103595238D01*
X68323928Y-103500000D01*
X68466785Y-103452380D01*
X68562023Y-103452380D01*
X68704880Y-103500000D01*
X68752500Y-103547619D01*
X69657261Y-104452380D02*
X69181071Y-104452380D01*
X69181071Y-103452380D01*
X81457500Y-117333214D02*
X81457500Y-116583214D01*
X82419285Y-116726071D02*
X82062142Y-116976071D01*
X82419285Y-117154642D02*
X81669285Y-117154642D01*
X81669285Y-116868928D01*
X81705000Y-116797500D01*
X81740714Y-116761785D01*
X81812142Y-116726071D01*
X81919285Y-116726071D01*
X81990714Y-116761785D01*
X82026428Y-116797500D01*
X82062142Y-116868928D01*
X82062142Y-117154642D01*
X81457500Y-116583214D02*
X81457500Y-115868928D01*
X82383571Y-116440357D02*
X82419285Y-116333214D01*
X82419285Y-116154642D01*
X82383571Y-116083214D01*
X82347857Y-116047500D01*
X82276428Y-116011785D01*
X82205000Y-116011785D01*
X82133571Y-116047500D01*
X82097857Y-116083214D01*
X82062142Y-116154642D01*
X82026428Y-116297500D01*
X81990714Y-116368928D01*
X81955000Y-116404642D01*
X81883571Y-116440357D01*
X81812142Y-116440357D01*
X81740714Y-116404642D01*
X81705000Y-116368928D01*
X81669285Y-116297500D01*
X81669285Y-116118928D01*
X81705000Y-116011785D01*
X81457500Y-115868928D02*
X81457500Y-115297500D01*
X81669285Y-115797500D02*
X81669285Y-115368928D01*
X82419285Y-115583214D02*
X81669285Y-115583214D01*
X67276309Y-99452380D02*
X67609642Y-100452380D01*
X67942976Y-99452380D01*
X68704880Y-100404761D02*
X68609642Y-100452380D01*
X68419166Y-100452380D01*
X68323928Y-100404761D01*
X68276309Y-100357142D01*
X68228690Y-100261904D01*
X68228690Y-99976190D01*
X68276309Y-99880952D01*
X68323928Y-99833333D01*
X68419166Y-99785714D01*
X68609642Y-99785714D01*
X68704880Y-99833333D01*
X69562023Y-100404761D02*
X69466785Y-100452380D01*
X69276309Y-100452380D01*
X69181071Y-100404761D01*
X69133452Y-100357142D01*
X69085833Y-100261904D01*
X69085833Y-99976190D01*
X69133452Y-99880952D01*
X69181071Y-99833333D01*
X69276309Y-99785714D01*
X69466785Y-99785714D01*
X69562023Y-99833333D01*
D12*
X71857857Y-102271428D02*
X71857857Y-101671428D01*
X72086428Y-101671428D01*
X72143571Y-101700000D01*
X72172142Y-101728571D01*
X72200714Y-101785714D01*
X72200714Y-101871428D01*
X72172142Y-101928571D01*
X72143571Y-101957142D01*
X72086428Y-101985714D01*
X71857857Y-101985714D01*
X72657857Y-101957142D02*
X72743571Y-101985714D01*
X72772142Y-102014285D01*
X72800714Y-102071428D01*
X72800714Y-102157142D01*
X72772142Y-102214285D01*
X72743571Y-102242857D01*
X72686428Y-102271428D01*
X72457857Y-102271428D01*
X72457857Y-101671428D01*
X72657857Y-101671428D01*
X72715000Y-101700000D01*
X72743571Y-101728571D01*
X72772142Y-101785714D01*
X72772142Y-101842857D01*
X72743571Y-101900000D01*
X72715000Y-101928571D01*
X72657857Y-101957142D01*
X72457857Y-101957142D01*
X73372142Y-102271428D02*
X73029285Y-102271428D01*
X73200714Y-102271428D02*
X73200714Y-101671428D01*
X73143571Y-101757142D01*
X73086428Y-101814285D01*
X73029285Y-101842857D01*
D10*
X67133452Y-102404761D02*
X67276309Y-102452380D01*
X67514404Y-102452380D01*
X67609642Y-102404761D01*
X67657261Y-102357142D01*
X67704880Y-102261904D01*
X67704880Y-102166666D01*
X67657261Y-102071428D01*
X67609642Y-102023809D01*
X67514404Y-101976190D01*
X67323928Y-101928571D01*
X67228690Y-101880952D01*
X67181071Y-101833333D01*
X67133452Y-101738095D01*
X67133452Y-101642857D01*
X67181071Y-101547619D01*
X67228690Y-101500000D01*
X67323928Y-101452380D01*
X67562023Y-101452380D01*
X67704880Y-101500000D01*
X68133452Y-102452380D02*
X68133452Y-101452380D01*
X68371547Y-101452380D01*
X68514404Y-101500000D01*
X68609642Y-101595238D01*
X68657261Y-101690476D01*
X68704880Y-101880952D01*
X68704880Y-102023809D01*
X68657261Y-102214285D01*
X68609642Y-102309523D01*
X68514404Y-102404761D01*
X68371547Y-102452380D01*
X68133452Y-102452380D01*
X69085833Y-102166666D02*
X69562023Y-102166666D01*
X68990595Y-102452380D02*
X69323928Y-101452380D01*
X69657261Y-102452380D01*
X100155523Y-103452380D02*
X100726952Y-103452380D01*
X100441238Y-104452380D02*
X100441238Y-103452380D01*
X100965047Y-104452380D02*
X101488857Y-103785714D01*
X100965047Y-103785714D02*
X101488857Y-104452380D01*
X101869809Y-104452380D02*
X101869809Y-103452380D01*
X102107904Y-103452380D01*
X102250761Y-103500000D01*
X102346000Y-103595238D01*
X102393619Y-103690476D01*
X102441238Y-103880952D01*
X102441238Y-104023809D01*
X102393619Y-104214285D01*
X102346000Y-104309523D01*
X102250761Y-104404761D01*
X102107904Y-104452380D01*
X101869809Y-104452380D01*
X59523809Y-95452380D02*
X59857142Y-96452380D01*
X60190476Y-95452380D01*
X60476190Y-96404761D02*
X60571428Y-96452380D01*
X60761904Y-96452380D01*
X60857142Y-96404761D01*
X60904761Y-96309523D01*
X60904761Y-96261904D01*
X60857142Y-96166666D01*
X60761904Y-96119047D01*
X60619047Y-96119047D01*
X60523809Y-96071428D01*
X60476190Y-95976190D01*
X60476190Y-95928571D01*
X60523809Y-95833333D01*
X60619047Y-95785714D01*
X60761904Y-95785714D01*
X60857142Y-95833333D01*
X61333333Y-96452380D02*
X61333333Y-95785714D01*
X61333333Y-95976190D02*
X61380952Y-95880952D01*
X61428571Y-95833333D01*
X61523809Y-95785714D01*
X61619047Y-95785714D01*
X62380952Y-96404761D02*
X62285714Y-96452380D01*
X62095238Y-96452380D01*
X62000000Y-96404761D01*
X61952380Y-96357142D01*
X61904761Y-96261904D01*
X61904761Y-95976190D01*
X61952380Y-95880952D01*
X62000000Y-95833333D01*
X62095238Y-95785714D01*
X62285714Y-95785714D01*
X62380952Y-95833333D01*
X78016190Y-111852380D02*
X78016190Y-112661904D01*
X78063809Y-112757142D01*
X78111428Y-112804761D01*
X78206666Y-112852380D01*
X78397142Y-112852380D01*
X78492380Y-112804761D01*
X78540000Y-112757142D01*
X78587619Y-112661904D01*
X78587619Y-111852380D01*
X79063809Y-112852380D02*
X79063809Y-111852380D01*
X79444761Y-111852380D01*
X79540000Y-111900000D01*
X79587619Y-111947619D01*
X79635238Y-112042857D01*
X79635238Y-112185714D01*
X79587619Y-112280952D01*
X79540000Y-112328571D01*
X79444761Y-112376190D01*
X79063809Y-112376190D01*
X80063809Y-112852380D02*
X80063809Y-111852380D01*
X80301904Y-111852380D01*
X80444761Y-111900000D01*
X80540000Y-111995238D01*
X80587619Y-112090476D01*
X80635238Y-112280952D01*
X80635238Y-112423809D01*
X80587619Y-112614285D01*
X80540000Y-112709523D01*
X80444761Y-112804761D01*
X80301904Y-112852380D01*
X80063809Y-112852380D01*
X81063809Y-112852380D02*
X81063809Y-111852380D01*
X79129285Y-117154642D02*
X79879285Y-116904642D01*
X79129285Y-116654642D01*
X79843571Y-116083214D02*
X79879285Y-116154642D01*
X79879285Y-116297500D01*
X79843571Y-116368928D01*
X79807857Y-116404642D01*
X79736428Y-116440357D01*
X79522142Y-116440357D01*
X79450714Y-116404642D01*
X79415000Y-116368928D01*
X79379285Y-116297500D01*
X79379285Y-116154642D01*
X79415000Y-116083214D01*
X79843571Y-115440357D02*
X79879285Y-115511785D01*
X79879285Y-115654642D01*
X79843571Y-115726071D01*
X79807857Y-115761785D01*
X79736428Y-115797500D01*
X79522142Y-115797500D01*
X79450714Y-115761785D01*
X79415000Y-115726071D01*
X79379285Y-115654642D01*
X79379285Y-115511785D01*
X79415000Y-115440357D01*
X100750761Y-106452380D02*
X100417428Y-105976190D01*
X100179333Y-106452380D02*
X100179333Y-105452380D01*
X100560285Y-105452380D01*
X100655523Y-105500000D01*
X100703142Y-105547619D01*
X100750761Y-105642857D01*
X100750761Y-105785714D01*
X100703142Y-105880952D01*
X100655523Y-105928571D01*
X100560285Y-105976190D01*
X100179333Y-105976190D01*
X101084095Y-106452380D02*
X101607904Y-105785714D01*
X101084095Y-105785714D02*
X101607904Y-106452380D01*
X101988857Y-106452380D02*
X101988857Y-105452380D01*
X102226952Y-105452380D01*
X102369809Y-105500000D01*
X102465047Y-105595238D01*
X102512666Y-105690476D01*
X102560285Y-105880952D01*
X102560285Y-106023809D01*
X102512666Y-106214285D01*
X102465047Y-106309523D01*
X102369809Y-106404761D01*
X102226952Y-106452380D01*
X101988857Y-106452380D01*
X100435285Y-102303571D02*
X100542428Y-102339285D01*
X100721000Y-102339285D01*
X100792428Y-102303571D01*
X100828142Y-102267857D01*
X100863857Y-102196428D01*
X100863857Y-102125000D01*
X100828142Y-102053571D01*
X100792428Y-102017857D01*
X100721000Y-101982142D01*
X100578142Y-101946428D01*
X100506714Y-101910714D01*
X100471000Y-101875000D01*
X100435285Y-101803571D01*
X100435285Y-101732142D01*
X100471000Y-101660714D01*
X100506714Y-101625000D01*
X100578142Y-101589285D01*
X100756714Y-101589285D01*
X100863857Y-101625000D01*
X101185285Y-102339285D02*
X101185285Y-101589285D01*
X101363857Y-101589285D01*
X101471000Y-101625000D01*
X101542428Y-101696428D01*
X101578142Y-101767857D01*
X101613857Y-101910714D01*
X101613857Y-102017857D01*
X101578142Y-102160714D01*
X101542428Y-102232142D01*
X101471000Y-102303571D01*
X101363857Y-102339285D01*
X101185285Y-102339285D01*
X101899571Y-102125000D02*
X102256714Y-102125000D01*
X101828142Y-102339285D02*
X102078142Y-101589285D01*
X102328142Y-102339285D01*
X100453142Y-100303571D02*
X100560285Y-100339285D01*
X100738857Y-100339285D01*
X100810285Y-100303571D01*
X100846000Y-100267857D01*
X100881714Y-100196428D01*
X100881714Y-100125000D01*
X100846000Y-100053571D01*
X100810285Y-100017857D01*
X100738857Y-99982142D01*
X100596000Y-99946428D01*
X100524571Y-99910714D01*
X100488857Y-99875000D01*
X100453142Y-99803571D01*
X100453142Y-99732142D01*
X100488857Y-99660714D01*
X100524571Y-99625000D01*
X100596000Y-99589285D01*
X100774571Y-99589285D01*
X100881714Y-99625000D01*
X101631714Y-100267857D02*
X101596000Y-100303571D01*
X101488857Y-100339285D01*
X101417428Y-100339285D01*
X101310285Y-100303571D01*
X101238857Y-100232142D01*
X101203142Y-100160714D01*
X101167428Y-100017857D01*
X101167428Y-99910714D01*
X101203142Y-99767857D01*
X101238857Y-99696428D01*
X101310285Y-99625000D01*
X101417428Y-99589285D01*
X101488857Y-99589285D01*
X101596000Y-99625000D01*
X101631714Y-99660714D01*
X102310285Y-100339285D02*
X101953142Y-100339285D01*
X101953142Y-99589285D01*
X115221238Y-118324380D02*
X115221238Y-119133904D01*
X115268857Y-119229142D01*
X115316476Y-119276761D01*
X115411714Y-119324380D01*
X115602190Y-119324380D01*
X115697428Y-119276761D01*
X115745047Y-119229142D01*
X115792666Y-119133904D01*
X115792666Y-118324380D01*
X116268857Y-119324380D02*
X116268857Y-118324380D01*
X116649809Y-118324380D01*
X116745047Y-118372000D01*
X116792666Y-118419619D01*
X116840285Y-118514857D01*
X116840285Y-118657714D01*
X116792666Y-118752952D01*
X116745047Y-118800571D01*
X116649809Y-118848190D01*
X116268857Y-118848190D01*
X117268857Y-119324380D02*
X117268857Y-118324380D01*
X117506952Y-118324380D01*
X117649809Y-118372000D01*
X117745047Y-118467238D01*
X117792666Y-118562476D01*
X117840285Y-118752952D01*
X117840285Y-118895809D01*
X117792666Y-119086285D01*
X117745047Y-119181523D01*
X117649809Y-119276761D01*
X117506952Y-119324380D01*
X117268857Y-119324380D01*
X118268857Y-119324380D02*
X118268857Y-118324380D01*
X119506952Y-119324380D02*
X119506952Y-118657714D01*
X119506952Y-118752952D02*
X119554571Y-118705333D01*
X119649809Y-118657714D01*
X119792666Y-118657714D01*
X119887904Y-118705333D01*
X119935523Y-118800571D01*
X119935523Y-119324380D01*
X119935523Y-118800571D02*
X119983142Y-118705333D01*
X120078380Y-118657714D01*
X120221238Y-118657714D01*
X120316476Y-118705333D01*
X120364095Y-118800571D01*
X120364095Y-119324380D01*
X120983142Y-119324380D02*
X120887904Y-119276761D01*
X120840285Y-119229142D01*
X120792666Y-119133904D01*
X120792666Y-118848190D01*
X120840285Y-118752952D01*
X120887904Y-118705333D01*
X120983142Y-118657714D01*
X121126000Y-118657714D01*
X121221238Y-118705333D01*
X121268857Y-118752952D01*
X121316476Y-118848190D01*
X121316476Y-119133904D01*
X121268857Y-119229142D01*
X121221238Y-119276761D01*
X121126000Y-119324380D01*
X120983142Y-119324380D01*
X122173619Y-119324380D02*
X122173619Y-118324380D01*
X122173619Y-119276761D02*
X122078380Y-119324380D01*
X121887904Y-119324380D01*
X121792666Y-119276761D01*
X121745047Y-119229142D01*
X121697428Y-119133904D01*
X121697428Y-118848190D01*
X121745047Y-118752952D01*
X121792666Y-118705333D01*
X121887904Y-118657714D01*
X122078380Y-118657714D01*
X122173619Y-118705333D01*
X123030761Y-119276761D02*
X122935523Y-119324380D01*
X122745047Y-119324380D01*
X122649809Y-119276761D01*
X122602190Y-119181523D01*
X122602190Y-118800571D01*
X122649809Y-118705333D01*
X122745047Y-118657714D01*
X122935523Y-118657714D01*
X123030761Y-118705333D01*
X123078380Y-118800571D01*
X123078380Y-118895809D01*
X122602190Y-118991047D01*
X66562023Y-106452380D02*
X66562023Y-105452380D01*
X66800119Y-105452380D01*
X66942976Y-105500000D01*
X67038214Y-105595238D01*
X67085833Y-105690476D01*
X67133452Y-105880952D01*
X67133452Y-106023809D01*
X67085833Y-106214285D01*
X67038214Y-106309523D01*
X66942976Y-106404761D01*
X66800119Y-106452380D01*
X66562023Y-106452380D01*
X67990595Y-106452380D02*
X67990595Y-105928571D01*
X67942976Y-105833333D01*
X67847738Y-105785714D01*
X67657261Y-105785714D01*
X67562023Y-105833333D01*
X67990595Y-106404761D02*
X67895357Y-106452380D01*
X67657261Y-106452380D01*
X67562023Y-106404761D01*
X67514404Y-106309523D01*
X67514404Y-106214285D01*
X67562023Y-106119047D01*
X67657261Y-106071428D01*
X67895357Y-106071428D01*
X67990595Y-106023809D01*
X68323928Y-105785714D02*
X68704880Y-105785714D01*
X68466785Y-105452380D02*
X68466785Y-106309523D01*
X68514404Y-106404761D01*
X68609642Y-106452380D01*
X68704880Y-106452380D01*
X69228690Y-105452380D02*
X69323928Y-105452380D01*
X69419166Y-105500000D01*
X69466785Y-105547619D01*
X69514404Y-105642857D01*
X69562023Y-105833333D01*
X69562023Y-106071428D01*
X69514404Y-106261904D01*
X69466785Y-106357142D01*
X69419166Y-106404761D01*
X69323928Y-106452380D01*
X69228690Y-106452380D01*
X69133452Y-106404761D01*
X69085833Y-106357142D01*
X69038214Y-106261904D01*
X68990595Y-106071428D01*
X68990595Y-105833333D01*
X69038214Y-105642857D01*
X69085833Y-105547619D01*
X69133452Y-105500000D01*
X69228690Y-105452380D01*
X90638571Y-105533666D02*
X91114761Y-105533666D01*
X90543333Y-105819380D02*
X90876666Y-104819380D01*
X91210000Y-105819380D01*
X91400476Y-104819380D02*
X91971904Y-104819380D01*
X91686190Y-105819380D02*
X91686190Y-104819380D01*
X92162380Y-104819380D02*
X92733809Y-104819380D01*
X92448095Y-105819380D02*
X92448095Y-104819380D01*
X93067142Y-105819380D02*
X93067142Y-105152714D01*
X93067142Y-104819380D02*
X93019523Y-104867000D01*
X93067142Y-104914619D01*
X93114761Y-104867000D01*
X93067142Y-104819380D01*
X93067142Y-104914619D01*
X93543333Y-105152714D02*
X93543333Y-105819380D01*
X93543333Y-105247952D02*
X93590952Y-105200333D01*
X93686190Y-105152714D01*
X93829047Y-105152714D01*
X93924285Y-105200333D01*
X93971904Y-105295571D01*
X93971904Y-105819380D01*
X94352857Y-105152714D02*
X94590952Y-105819380D01*
X94829047Y-105152714D02*
X94590952Y-105819380D01*
X94495714Y-106057476D01*
X94448095Y-106105095D01*
X94352857Y-106152714D01*
X90948095Y-106429380D02*
X91614761Y-107429380D01*
X91614761Y-106429380D02*
X90948095Y-107429380D01*
X91900476Y-106429380D02*
X92567142Y-107429380D01*
X92567142Y-106429380D02*
X91900476Y-107429380D01*
X93471904Y-107429380D02*
X92900476Y-107429380D01*
X93186190Y-107429380D02*
X93186190Y-106429380D01*
X93090952Y-106572238D01*
X92995714Y-106667476D01*
X92900476Y-106715095D01*
X93805238Y-106429380D02*
X94471904Y-106429380D01*
X94043333Y-107429380D01*
X134092976Y-119404761D02*
X134235833Y-119452380D01*
X134473928Y-119452380D01*
X134569166Y-119404761D01*
X134616785Y-119357142D01*
X134664404Y-119261904D01*
X134664404Y-119166666D01*
X134616785Y-119071428D01*
X134569166Y-119023809D01*
X134473928Y-118976190D01*
X134283452Y-118928571D01*
X134188214Y-118880952D01*
X134140595Y-118833333D01*
X134092976Y-118738095D01*
X134092976Y-118642857D01*
X134140595Y-118547619D01*
X134188214Y-118500000D01*
X134283452Y-118452380D01*
X134521547Y-118452380D01*
X134664404Y-118500000D01*
X135092976Y-119357142D02*
X135140595Y-119404761D01*
X135092976Y-119452380D01*
X135045357Y-119404761D01*
X135092976Y-119357142D01*
X135092976Y-119452380D01*
X136283452Y-119166666D02*
X136759642Y-119166666D01*
X136188214Y-119452380D02*
X136521547Y-118452380D01*
X136854880Y-119452380D01*
X137188214Y-119357142D02*
X137235833Y-119404761D01*
X137188214Y-119452380D01*
X137140595Y-119404761D01*
X137188214Y-119357142D01*
X137188214Y-119452380D01*
X138426309Y-119452380D02*
X138426309Y-118452380D01*
X138759642Y-119166666D01*
X139092976Y-118452380D01*
X139092976Y-119452380D01*
X139569166Y-119452380D02*
X139569166Y-118785714D01*
X139569166Y-118452380D02*
X139521547Y-118500000D01*
X139569166Y-118547619D01*
X139616785Y-118500000D01*
X139569166Y-118452380D01*
X139569166Y-118547619D01*
X140188214Y-119452380D02*
X140092976Y-119404761D01*
X140045357Y-119309523D01*
X140045357Y-118452380D01*
X140712023Y-119452380D02*
X140616785Y-119404761D01*
X140569166Y-119309523D01*
X140569166Y-118452380D01*
X141473928Y-119404761D02*
X141378690Y-119452380D01*
X141188214Y-119452380D01*
X141092976Y-119404761D01*
X141045357Y-119309523D01*
X141045357Y-118928571D01*
X141092976Y-118833333D01*
X141188214Y-118785714D01*
X141378690Y-118785714D01*
X141473928Y-118833333D01*
X141521547Y-118928571D01*
X141521547Y-119023809D01*
X141045357Y-119119047D01*
X141950119Y-119452380D02*
X141950119Y-118785714D01*
X141950119Y-118976190D02*
X141997738Y-118880952D01*
X142045357Y-118833333D01*
X142140595Y-118785714D01*
X142235833Y-118785714D01*
X143283452Y-118547619D02*
X143331071Y-118500000D01*
X143426309Y-118452380D01*
X143664404Y-118452380D01*
X143759642Y-118500000D01*
X143807261Y-118547619D01*
X143854880Y-118642857D01*
X143854880Y-118738095D01*
X143807261Y-118880952D01*
X143235833Y-119452380D01*
X143854880Y-119452380D01*
X144473928Y-118452380D02*
X144569166Y-118452380D01*
X144664404Y-118500000D01*
X144712023Y-118547619D01*
X144759642Y-118642857D01*
X144807261Y-118833333D01*
X144807261Y-119071428D01*
X144759642Y-119261904D01*
X144712023Y-119357142D01*
X144664404Y-119404761D01*
X144569166Y-119452380D01*
X144473928Y-119452380D01*
X144378690Y-119404761D01*
X144331071Y-119357142D01*
X144283452Y-119261904D01*
X144235833Y-119071428D01*
X144235833Y-118833333D01*
X144283452Y-118642857D01*
X144331071Y-118547619D01*
X144378690Y-118500000D01*
X144473928Y-118452380D01*
X145188214Y-118547619D02*
X145235833Y-118500000D01*
X145331071Y-118452380D01*
X145569166Y-118452380D01*
X145664404Y-118500000D01*
X145712023Y-118547619D01*
X145759642Y-118642857D01*
X145759642Y-118738095D01*
X145712023Y-118880952D01*
X145140595Y-119452380D01*
X145759642Y-119452380D01*
X146616785Y-118785714D02*
X146616785Y-119452380D01*
X146378690Y-118404761D02*
X146140595Y-119119047D01*
X146759642Y-119119047D01*
X60238095Y-103500000D02*
X60142857Y-103452380D01*
X60000000Y-103452380D01*
X59857142Y-103500000D01*
X59761904Y-103595238D01*
X59714285Y-103690476D01*
X59666666Y-103880952D01*
X59666666Y-104023809D01*
X59714285Y-104214285D01*
X59761904Y-104309523D01*
X59857142Y-104404761D01*
X60000000Y-104452380D01*
X60095238Y-104452380D01*
X60238095Y-104404761D01*
X60285714Y-104357142D01*
X60285714Y-104023809D01*
X60095238Y-104023809D01*
X60714285Y-104452380D02*
X60714285Y-103452380D01*
X61285714Y-104452380D01*
X61285714Y-103452380D01*
X61761904Y-104452380D02*
X61761904Y-103452380D01*
X62000000Y-103452380D01*
X62142857Y-103500000D01*
X62238095Y-103595238D01*
X62285714Y-103690476D01*
X62333333Y-103880952D01*
X62333333Y-104023809D01*
X62285714Y-104214285D01*
X62238095Y-104309523D01*
X62142857Y-104404761D01*
X62000000Y-104452380D01*
X61761904Y-104452380D01*
D12*
X71857857Y-104271428D02*
X71857857Y-103671428D01*
X72086428Y-103671428D01*
X72143571Y-103700000D01*
X72172142Y-103728571D01*
X72200714Y-103785714D01*
X72200714Y-103871428D01*
X72172142Y-103928571D01*
X72143571Y-103957142D01*
X72086428Y-103985714D01*
X71857857Y-103985714D01*
X72657857Y-103957142D02*
X72743571Y-103985714D01*
X72772142Y-104014285D01*
X72800714Y-104071428D01*
X72800714Y-104157142D01*
X72772142Y-104214285D01*
X72743571Y-104242857D01*
X72686428Y-104271428D01*
X72457857Y-104271428D01*
X72457857Y-103671428D01*
X72657857Y-103671428D01*
X72715000Y-103700000D01*
X72743571Y-103728571D01*
X72772142Y-103785714D01*
X72772142Y-103842857D01*
X72743571Y-103900000D01*
X72715000Y-103928571D01*
X72657857Y-103957142D01*
X72457857Y-103957142D01*
X73172142Y-103671428D02*
X73229285Y-103671428D01*
X73286428Y-103700000D01*
X73315000Y-103728571D01*
X73343571Y-103785714D01*
X73372142Y-103900000D01*
X73372142Y-104042857D01*
X73343571Y-104157142D01*
X73315000Y-104214285D01*
X73286428Y-104242857D01*
X73229285Y-104271428D01*
X73172142Y-104271428D01*
X73115000Y-104242857D01*
X73086428Y-104214285D01*
X73057857Y-104157142D01*
X73029285Y-104042857D01*
X73029285Y-103900000D01*
X73057857Y-103785714D01*
X73086428Y-103728571D01*
X73115000Y-103700000D01*
X73172142Y-103671428D01*
D10*
%TO.C,U502*%
X114733428Y-112280571D02*
X115219142Y-112280571D01*
X115276285Y-112252000D01*
X115304857Y-112223428D01*
X115333428Y-112166285D01*
X115333428Y-112052000D01*
X115304857Y-111994857D01*
X115276285Y-111966285D01*
X115219142Y-111937714D01*
X114733428Y-111937714D01*
X114733428Y-111366285D02*
X114733428Y-111652000D01*
X115019142Y-111680571D01*
X114990571Y-111652000D01*
X114962000Y-111594857D01*
X114962000Y-111452000D01*
X114990571Y-111394857D01*
X115019142Y-111366285D01*
X115076285Y-111337714D01*
X115219142Y-111337714D01*
X115276285Y-111366285D01*
X115304857Y-111394857D01*
X115333428Y-111452000D01*
X115333428Y-111594857D01*
X115304857Y-111652000D01*
X115276285Y-111680571D01*
X114733428Y-110966285D02*
X114733428Y-110909142D01*
X114762000Y-110852000D01*
X114790571Y-110823428D01*
X114847714Y-110794857D01*
X114962000Y-110766285D01*
X115104857Y-110766285D01*
X115219142Y-110794857D01*
X115276285Y-110823428D01*
X115304857Y-110852000D01*
X115333428Y-110909142D01*
X115333428Y-110966285D01*
X115304857Y-111023428D01*
X115276285Y-111052000D01*
X115219142Y-111080571D01*
X115104857Y-111109142D01*
X114962000Y-111109142D01*
X114847714Y-111080571D01*
X114790571Y-111052000D01*
X114762000Y-111023428D01*
X114733428Y-110966285D01*
X114790571Y-110537714D02*
X114762000Y-110509142D01*
X114733428Y-110452000D01*
X114733428Y-110309142D01*
X114762000Y-110252000D01*
X114790571Y-110223428D01*
X114847714Y-110194857D01*
X114904857Y-110194857D01*
X114990571Y-110223428D01*
X115333428Y-110566285D01*
X115333428Y-110194857D01*
%TO.C,R501*%
X125058571Y-114048928D02*
X124858571Y-113763214D01*
X124715714Y-114048928D02*
X124715714Y-113448928D01*
X124944285Y-113448928D01*
X125001428Y-113477500D01*
X125030000Y-113506071D01*
X125058571Y-113563214D01*
X125058571Y-113648928D01*
X125030000Y-113706071D01*
X125001428Y-113734642D01*
X124944285Y-113763214D01*
X124715714Y-113763214D01*
X125601428Y-113448928D02*
X125315714Y-113448928D01*
X125287142Y-113734642D01*
X125315714Y-113706071D01*
X125372857Y-113677500D01*
X125515714Y-113677500D01*
X125572857Y-113706071D01*
X125601428Y-113734642D01*
X125630000Y-113791785D01*
X125630000Y-113934642D01*
X125601428Y-113991785D01*
X125572857Y-114020357D01*
X125515714Y-114048928D01*
X125372857Y-114048928D01*
X125315714Y-114020357D01*
X125287142Y-113991785D01*
X126001428Y-113448928D02*
X126058571Y-113448928D01*
X126115714Y-113477500D01*
X126144285Y-113506071D01*
X126172857Y-113563214D01*
X126201428Y-113677500D01*
X126201428Y-113820357D01*
X126172857Y-113934642D01*
X126144285Y-113991785D01*
X126115714Y-114020357D01*
X126058571Y-114048928D01*
X126001428Y-114048928D01*
X125944285Y-114020357D01*
X125915714Y-113991785D01*
X125887142Y-113934642D01*
X125858571Y-113820357D01*
X125858571Y-113677500D01*
X125887142Y-113563214D01*
X125915714Y-113506071D01*
X125944285Y-113477500D01*
X126001428Y-113448928D01*
X126772857Y-114048928D02*
X126430000Y-114048928D01*
X126601428Y-114048928D02*
X126601428Y-113448928D01*
X126544285Y-113534642D01*
X126487142Y-113591785D01*
X126430000Y-113620357D01*
%TO.C,D502*%
X124715714Y-117873428D02*
X124715714Y-117273428D01*
X124858571Y-117273428D01*
X124944285Y-117302000D01*
X125001428Y-117359142D01*
X125030000Y-117416285D01*
X125058571Y-117530571D01*
X125058571Y-117616285D01*
X125030000Y-117730571D01*
X125001428Y-117787714D01*
X124944285Y-117844857D01*
X124858571Y-117873428D01*
X124715714Y-117873428D01*
X125601428Y-117273428D02*
X125315714Y-117273428D01*
X125287142Y-117559142D01*
X125315714Y-117530571D01*
X125372857Y-117502000D01*
X125515714Y-117502000D01*
X125572857Y-117530571D01*
X125601428Y-117559142D01*
X125630000Y-117616285D01*
X125630000Y-117759142D01*
X125601428Y-117816285D01*
X125572857Y-117844857D01*
X125515714Y-117873428D01*
X125372857Y-117873428D01*
X125315714Y-117844857D01*
X125287142Y-117816285D01*
X126001428Y-117273428D02*
X126058571Y-117273428D01*
X126115714Y-117302000D01*
X126144285Y-117330571D01*
X126172857Y-117387714D01*
X126201428Y-117502000D01*
X126201428Y-117644857D01*
X126172857Y-117759142D01*
X126144285Y-117816285D01*
X126115714Y-117844857D01*
X126058571Y-117873428D01*
X126001428Y-117873428D01*
X125944285Y-117844857D01*
X125915714Y-117816285D01*
X125887142Y-117759142D01*
X125858571Y-117644857D01*
X125858571Y-117502000D01*
X125887142Y-117387714D01*
X125915714Y-117330571D01*
X125944285Y-117302000D01*
X126001428Y-117273428D01*
X126430000Y-117330571D02*
X126458571Y-117302000D01*
X126515714Y-117273428D01*
X126658571Y-117273428D01*
X126715714Y-117302000D01*
X126744285Y-117330571D01*
X126772857Y-117387714D01*
X126772857Y-117444857D01*
X126744285Y-117530571D01*
X126401428Y-117873428D01*
X126772857Y-117873428D01*
D12*
%TO.C,TPc1*%
X86671428Y-113227857D02*
X86671428Y-112885000D01*
X87271428Y-113056428D02*
X86671428Y-113056428D01*
X87271428Y-112685000D02*
X86671428Y-112685000D01*
X86671428Y-112456428D01*
X86700000Y-112399285D01*
X86728571Y-112370714D01*
X86785714Y-112342142D01*
X86871428Y-112342142D01*
X86928571Y-112370714D01*
X86957142Y-112399285D01*
X86985714Y-112456428D01*
X86985714Y-112685000D01*
X87242857Y-111827857D02*
X87271428Y-111885000D01*
X87271428Y-111999285D01*
X87242857Y-112056428D01*
X87214285Y-112085000D01*
X87157142Y-112113571D01*
X86985714Y-112113571D01*
X86928571Y-112085000D01*
X86900000Y-112056428D01*
X86871428Y-111999285D01*
X86871428Y-111885000D01*
X86900000Y-111827857D01*
X87271428Y-111256428D02*
X87271428Y-111599285D01*
X87271428Y-111427857D02*
X86671428Y-111427857D01*
X86757142Y-111485000D01*
X86814285Y-111542142D01*
X86842857Y-111599285D01*
D10*
%TO.C,R5*%
X139346000Y-115333428D02*
X139146000Y-115047714D01*
X139003142Y-115333428D02*
X139003142Y-114733428D01*
X139231714Y-114733428D01*
X139288857Y-114762000D01*
X139317428Y-114790571D01*
X139346000Y-114847714D01*
X139346000Y-114933428D01*
X139317428Y-114990571D01*
X139288857Y-115019142D01*
X139231714Y-115047714D01*
X139003142Y-115047714D01*
X139888857Y-114733428D02*
X139603142Y-114733428D01*
X139574571Y-115019142D01*
X139603142Y-114990571D01*
X139660285Y-114962000D01*
X139803142Y-114962000D01*
X139860285Y-114990571D01*
X139888857Y-115019142D01*
X139917428Y-115076285D01*
X139917428Y-115219142D01*
X139888857Y-115276285D01*
X139860285Y-115304857D01*
X139803142Y-115333428D01*
X139660285Y-115333428D01*
X139603142Y-115304857D01*
X139574571Y-115276285D01*
%TO.C,C2*%
X70900000Y-108164285D02*
X70871428Y-108192857D01*
X70785714Y-108221428D01*
X70728571Y-108221428D01*
X70642857Y-108192857D01*
X70585714Y-108135714D01*
X70557142Y-108078571D01*
X70528571Y-107964285D01*
X70528571Y-107878571D01*
X70557142Y-107764285D01*
X70585714Y-107707142D01*
X70642857Y-107650000D01*
X70728571Y-107621428D01*
X70785714Y-107621428D01*
X70871428Y-107650000D01*
X70900000Y-107678571D01*
X71128571Y-107678571D02*
X71157142Y-107650000D01*
X71214285Y-107621428D01*
X71357142Y-107621428D01*
X71414285Y-107650000D01*
X71442857Y-107678571D01*
X71471428Y-107735714D01*
X71471428Y-107792857D01*
X71442857Y-107878571D01*
X71100000Y-108221428D01*
X71471428Y-108221428D01*
%TO.C,D501*%
X116587714Y-104157428D02*
X116587714Y-103557428D01*
X116730571Y-103557428D01*
X116816285Y-103586000D01*
X116873428Y-103643142D01*
X116902000Y-103700285D01*
X116930571Y-103814571D01*
X116930571Y-103900285D01*
X116902000Y-104014571D01*
X116873428Y-104071714D01*
X116816285Y-104128857D01*
X116730571Y-104157428D01*
X116587714Y-104157428D01*
X117473428Y-103557428D02*
X117187714Y-103557428D01*
X117159142Y-103843142D01*
X117187714Y-103814571D01*
X117244857Y-103786000D01*
X117387714Y-103786000D01*
X117444857Y-103814571D01*
X117473428Y-103843142D01*
X117502000Y-103900285D01*
X117502000Y-104043142D01*
X117473428Y-104100285D01*
X117444857Y-104128857D01*
X117387714Y-104157428D01*
X117244857Y-104157428D01*
X117187714Y-104128857D01*
X117159142Y-104100285D01*
X117873428Y-103557428D02*
X117930571Y-103557428D01*
X117987714Y-103586000D01*
X118016285Y-103614571D01*
X118044857Y-103671714D01*
X118073428Y-103786000D01*
X118073428Y-103928857D01*
X118044857Y-104043142D01*
X118016285Y-104100285D01*
X117987714Y-104128857D01*
X117930571Y-104157428D01*
X117873428Y-104157428D01*
X117816285Y-104128857D01*
X117787714Y-104100285D01*
X117759142Y-104043142D01*
X117730571Y-103928857D01*
X117730571Y-103786000D01*
X117759142Y-103671714D01*
X117787714Y-103614571D01*
X117816285Y-103586000D01*
X117873428Y-103557428D01*
X118644857Y-104157428D02*
X118302000Y-104157428D01*
X118473428Y-104157428D02*
X118473428Y-103557428D01*
X118416285Y-103643142D01*
X118359142Y-103700285D01*
X118302000Y-103728857D01*
%TO.C,R3*%
X77624000Y-109237428D02*
X77424000Y-108951714D01*
X77281142Y-109237428D02*
X77281142Y-108637428D01*
X77509714Y-108637428D01*
X77566857Y-108666000D01*
X77595428Y-108694571D01*
X77624000Y-108751714D01*
X77624000Y-108837428D01*
X77595428Y-108894571D01*
X77566857Y-108923142D01*
X77509714Y-108951714D01*
X77281142Y-108951714D01*
X77824000Y-108637428D02*
X78195428Y-108637428D01*
X77995428Y-108866000D01*
X78081142Y-108866000D01*
X78138285Y-108894571D01*
X78166857Y-108923142D01*
X78195428Y-108980285D01*
X78195428Y-109123142D01*
X78166857Y-109180285D01*
X78138285Y-109208857D01*
X78081142Y-109237428D01*
X77909714Y-109237428D01*
X77852571Y-109208857D01*
X77824000Y-109180285D01*
D12*
%TO.C,TPc4*%
X92671428Y-113227857D02*
X92671428Y-112885000D01*
X93271428Y-113056428D02*
X92671428Y-113056428D01*
X93271428Y-112685000D02*
X92671428Y-112685000D01*
X92671428Y-112456428D01*
X92700000Y-112399285D01*
X92728571Y-112370714D01*
X92785714Y-112342142D01*
X92871428Y-112342142D01*
X92928571Y-112370714D01*
X92957142Y-112399285D01*
X92985714Y-112456428D01*
X92985714Y-112685000D01*
X93242857Y-111827857D02*
X93271428Y-111885000D01*
X93271428Y-111999285D01*
X93242857Y-112056428D01*
X93214285Y-112085000D01*
X93157142Y-112113571D01*
X92985714Y-112113571D01*
X92928571Y-112085000D01*
X92900000Y-112056428D01*
X92871428Y-111999285D01*
X92871428Y-111885000D01*
X92900000Y-111827857D01*
X92871428Y-111313571D02*
X93271428Y-111313571D01*
X92642857Y-111456428D02*
X93071428Y-111599285D01*
X93071428Y-111227857D01*
D10*
%TO.C,C1*%
X89070000Y-110704285D02*
X89041428Y-110732857D01*
X88955714Y-110761428D01*
X88898571Y-110761428D01*
X88812857Y-110732857D01*
X88755714Y-110675714D01*
X88727142Y-110618571D01*
X88698571Y-110504285D01*
X88698571Y-110418571D01*
X88727142Y-110304285D01*
X88755714Y-110247142D01*
X88812857Y-110190000D01*
X88898571Y-110161428D01*
X88955714Y-110161428D01*
X89041428Y-110190000D01*
X89070000Y-110218571D01*
X89641428Y-110761428D02*
X89298571Y-110761428D01*
X89470000Y-110761428D02*
X89470000Y-110161428D01*
X89412857Y-110247142D01*
X89355714Y-110304285D01*
X89298571Y-110332857D01*
D12*
%TO.C,TPb4*%
X96090714Y-107671428D02*
X96433571Y-107671428D01*
X96262142Y-108271428D02*
X96262142Y-107671428D01*
X96633571Y-108271428D02*
X96633571Y-107671428D01*
X96862142Y-107671428D01*
X96919285Y-107700000D01*
X96947857Y-107728571D01*
X96976428Y-107785714D01*
X96976428Y-107871428D01*
X96947857Y-107928571D01*
X96919285Y-107957142D01*
X96862142Y-107985714D01*
X96633571Y-107985714D01*
X97233571Y-108271428D02*
X97233571Y-107671428D01*
X97233571Y-107900000D02*
X97290714Y-107871428D01*
X97405000Y-107871428D01*
X97462142Y-107900000D01*
X97490714Y-107928571D01*
X97519285Y-107985714D01*
X97519285Y-108157142D01*
X97490714Y-108214285D01*
X97462142Y-108242857D01*
X97405000Y-108271428D01*
X97290714Y-108271428D01*
X97233571Y-108242857D01*
X98033571Y-107871428D02*
X98033571Y-108271428D01*
X97890714Y-107642857D02*
X97747857Y-108071428D01*
X98119285Y-108071428D01*
D10*
%TO.C,F1*%
X60104571Y-89233333D02*
X60104571Y-89566666D01*
X60628380Y-89566666D02*
X59628380Y-89566666D01*
X59628380Y-89090476D01*
X60628380Y-88185714D02*
X60628380Y-88757142D01*
X60628380Y-88471428D02*
X59628380Y-88471428D01*
X59771238Y-88566666D01*
X59866476Y-88661904D01*
X59914095Y-88757142D01*
%TO.C,R1*%
X78386000Y-101033428D02*
X78186000Y-100747714D01*
X78043142Y-101033428D02*
X78043142Y-100433428D01*
X78271714Y-100433428D01*
X78328857Y-100462000D01*
X78357428Y-100490571D01*
X78386000Y-100547714D01*
X78386000Y-100633428D01*
X78357428Y-100690571D01*
X78328857Y-100719142D01*
X78271714Y-100747714D01*
X78043142Y-100747714D01*
X78957428Y-101033428D02*
X78614571Y-101033428D01*
X78786000Y-101033428D02*
X78786000Y-100433428D01*
X78728857Y-100519142D01*
X78671714Y-100576285D01*
X78614571Y-100604857D01*
D12*
%TO.C,TPa2*%
X84671428Y-102909285D02*
X84671428Y-102566428D01*
X85271428Y-102737857D02*
X84671428Y-102737857D01*
X85271428Y-102366428D02*
X84671428Y-102366428D01*
X84671428Y-102137857D01*
X84700000Y-102080714D01*
X84728571Y-102052142D01*
X84785714Y-102023571D01*
X84871428Y-102023571D01*
X84928571Y-102052142D01*
X84957142Y-102080714D01*
X84985714Y-102137857D01*
X84985714Y-102366428D01*
X85271428Y-101509285D02*
X84957142Y-101509285D01*
X84900000Y-101537857D01*
X84871428Y-101595000D01*
X84871428Y-101709285D01*
X84900000Y-101766428D01*
X85242857Y-101509285D02*
X85271428Y-101566428D01*
X85271428Y-101709285D01*
X85242857Y-101766428D01*
X85185714Y-101795000D01*
X85128571Y-101795000D01*
X85071428Y-101766428D01*
X85042857Y-101709285D01*
X85042857Y-101566428D01*
X85014285Y-101509285D01*
X84728571Y-101252142D02*
X84700000Y-101223571D01*
X84671428Y-101166428D01*
X84671428Y-101023571D01*
X84700000Y-100966428D01*
X84728571Y-100937857D01*
X84785714Y-100909285D01*
X84842857Y-100909285D01*
X84928571Y-100937857D01*
X85271428Y-101280714D01*
X85271428Y-100909285D01*
%TO.C,TPc5*%
X94671428Y-113227857D02*
X94671428Y-112885000D01*
X95271428Y-113056428D02*
X94671428Y-113056428D01*
X95271428Y-112685000D02*
X94671428Y-112685000D01*
X94671428Y-112456428D01*
X94700000Y-112399285D01*
X94728571Y-112370714D01*
X94785714Y-112342142D01*
X94871428Y-112342142D01*
X94928571Y-112370714D01*
X94957142Y-112399285D01*
X94985714Y-112456428D01*
X94985714Y-112685000D01*
X95242857Y-111827857D02*
X95271428Y-111885000D01*
X95271428Y-111999285D01*
X95242857Y-112056428D01*
X95214285Y-112085000D01*
X95157142Y-112113571D01*
X94985714Y-112113571D01*
X94928571Y-112085000D01*
X94900000Y-112056428D01*
X94871428Y-111999285D01*
X94871428Y-111885000D01*
X94900000Y-111827857D01*
X94671428Y-111285000D02*
X94671428Y-111570714D01*
X94957142Y-111599285D01*
X94928571Y-111570714D01*
X94900000Y-111513571D01*
X94900000Y-111370714D01*
X94928571Y-111313571D01*
X94957142Y-111285000D01*
X95014285Y-111256428D01*
X95157142Y-111256428D01*
X95214285Y-111285000D01*
X95242857Y-111313571D01*
X95271428Y-111370714D01*
X95271428Y-111513571D01*
X95242857Y-111570714D01*
X95214285Y-111599285D01*
D10*
%TO.C,R4*%
X79148000Y-110761428D02*
X78948000Y-110475714D01*
X78805142Y-110761428D02*
X78805142Y-110161428D01*
X79033714Y-110161428D01*
X79090857Y-110190000D01*
X79119428Y-110218571D01*
X79148000Y-110275714D01*
X79148000Y-110361428D01*
X79119428Y-110418571D01*
X79090857Y-110447142D01*
X79033714Y-110475714D01*
X78805142Y-110475714D01*
X79662285Y-110361428D02*
X79662285Y-110761428D01*
X79519428Y-110132857D02*
X79376571Y-110561428D01*
X79748000Y-110561428D01*
D12*
%TO.C,TPa4*%
X88671428Y-102909285D02*
X88671428Y-102566428D01*
X89271428Y-102737857D02*
X88671428Y-102737857D01*
X89271428Y-102366428D02*
X88671428Y-102366428D01*
X88671428Y-102137857D01*
X88700000Y-102080714D01*
X88728571Y-102052142D01*
X88785714Y-102023571D01*
X88871428Y-102023571D01*
X88928571Y-102052142D01*
X88957142Y-102080714D01*
X88985714Y-102137857D01*
X88985714Y-102366428D01*
X89271428Y-101509285D02*
X88957142Y-101509285D01*
X88900000Y-101537857D01*
X88871428Y-101595000D01*
X88871428Y-101709285D01*
X88900000Y-101766428D01*
X89242857Y-101509285D02*
X89271428Y-101566428D01*
X89271428Y-101709285D01*
X89242857Y-101766428D01*
X89185714Y-101795000D01*
X89128571Y-101795000D01*
X89071428Y-101766428D01*
X89042857Y-101709285D01*
X89042857Y-101566428D01*
X89014285Y-101509285D01*
X88871428Y-100966428D02*
X89271428Y-100966428D01*
X88642857Y-101109285D02*
X89071428Y-101252142D01*
X89071428Y-100880714D01*
D10*
%TO.C,SW504*%
X117754571Y-113780857D02*
X117840285Y-113809428D01*
X117983142Y-113809428D01*
X118040285Y-113780857D01*
X118068857Y-113752285D01*
X118097428Y-113695142D01*
X118097428Y-113638000D01*
X118068857Y-113580857D01*
X118040285Y-113552285D01*
X117983142Y-113523714D01*
X117868857Y-113495142D01*
X117811714Y-113466571D01*
X117783142Y-113438000D01*
X117754571Y-113380857D01*
X117754571Y-113323714D01*
X117783142Y-113266571D01*
X117811714Y-113238000D01*
X117868857Y-113209428D01*
X118011714Y-113209428D01*
X118097428Y-113238000D01*
X118297428Y-113209428D02*
X118440285Y-113809428D01*
X118554571Y-113380857D01*
X118668857Y-113809428D01*
X118811714Y-113209428D01*
X119326000Y-113209428D02*
X119040285Y-113209428D01*
X119011714Y-113495142D01*
X119040285Y-113466571D01*
X119097428Y-113438000D01*
X119240285Y-113438000D01*
X119297428Y-113466571D01*
X119326000Y-113495142D01*
X119354571Y-113552285D01*
X119354571Y-113695142D01*
X119326000Y-113752285D01*
X119297428Y-113780857D01*
X119240285Y-113809428D01*
X119097428Y-113809428D01*
X119040285Y-113780857D01*
X119011714Y-113752285D01*
X119726000Y-113209428D02*
X119783142Y-113209428D01*
X119840285Y-113238000D01*
X119868857Y-113266571D01*
X119897428Y-113323714D01*
X119926000Y-113438000D01*
X119926000Y-113580857D01*
X119897428Y-113695142D01*
X119868857Y-113752285D01*
X119840285Y-113780857D01*
X119783142Y-113809428D01*
X119726000Y-113809428D01*
X119668857Y-113780857D01*
X119640285Y-113752285D01*
X119611714Y-113695142D01*
X119583142Y-113580857D01*
X119583142Y-113438000D01*
X119611714Y-113323714D01*
X119640285Y-113266571D01*
X119668857Y-113238000D01*
X119726000Y-113209428D01*
X120440285Y-113409428D02*
X120440285Y-113809428D01*
X120297428Y-113180857D02*
X120154571Y-113609428D01*
X120526000Y-113609428D01*
D12*
%TO.C,TPb1*%
X96090714Y-101671428D02*
X96433571Y-101671428D01*
X96262142Y-102271428D02*
X96262142Y-101671428D01*
X96633571Y-102271428D02*
X96633571Y-101671428D01*
X96862142Y-101671428D01*
X96919285Y-101700000D01*
X96947857Y-101728571D01*
X96976428Y-101785714D01*
X96976428Y-101871428D01*
X96947857Y-101928571D01*
X96919285Y-101957142D01*
X96862142Y-101985714D01*
X96633571Y-101985714D01*
X97233571Y-102271428D02*
X97233571Y-101671428D01*
X97233571Y-101900000D02*
X97290714Y-101871428D01*
X97405000Y-101871428D01*
X97462142Y-101900000D01*
X97490714Y-101928571D01*
X97519285Y-101985714D01*
X97519285Y-102157142D01*
X97490714Y-102214285D01*
X97462142Y-102242857D01*
X97405000Y-102271428D01*
X97290714Y-102271428D01*
X97233571Y-102242857D01*
X98090714Y-102271428D02*
X97747857Y-102271428D01*
X97919285Y-102271428D02*
X97919285Y-101671428D01*
X97862142Y-101757142D01*
X97805000Y-101814285D01*
X97747857Y-101842857D01*
%TO.C,TPc2*%
X88671428Y-113227857D02*
X88671428Y-112885000D01*
X89271428Y-113056428D02*
X88671428Y-113056428D01*
X89271428Y-112685000D02*
X88671428Y-112685000D01*
X88671428Y-112456428D01*
X88700000Y-112399285D01*
X88728571Y-112370714D01*
X88785714Y-112342142D01*
X88871428Y-112342142D01*
X88928571Y-112370714D01*
X88957142Y-112399285D01*
X88985714Y-112456428D01*
X88985714Y-112685000D01*
X89242857Y-111827857D02*
X89271428Y-111885000D01*
X89271428Y-111999285D01*
X89242857Y-112056428D01*
X89214285Y-112085000D01*
X89157142Y-112113571D01*
X88985714Y-112113571D01*
X88928571Y-112085000D01*
X88900000Y-112056428D01*
X88871428Y-111999285D01*
X88871428Y-111885000D01*
X88900000Y-111827857D01*
X88728571Y-111599285D02*
X88700000Y-111570714D01*
X88671428Y-111513571D01*
X88671428Y-111370714D01*
X88700000Y-111313571D01*
X88728571Y-111285000D01*
X88785714Y-111256428D01*
X88842857Y-111256428D01*
X88928571Y-111285000D01*
X89271428Y-111627857D01*
X89271428Y-111256428D01*
%TO.C,TPa7*%
X94671428Y-102909285D02*
X94671428Y-102566428D01*
X95271428Y-102737857D02*
X94671428Y-102737857D01*
X95271428Y-102366428D02*
X94671428Y-102366428D01*
X94671428Y-102137857D01*
X94700000Y-102080714D01*
X94728571Y-102052142D01*
X94785714Y-102023571D01*
X94871428Y-102023571D01*
X94928571Y-102052142D01*
X94957142Y-102080714D01*
X94985714Y-102137857D01*
X94985714Y-102366428D01*
X95271428Y-101509285D02*
X94957142Y-101509285D01*
X94900000Y-101537857D01*
X94871428Y-101595000D01*
X94871428Y-101709285D01*
X94900000Y-101766428D01*
X95242857Y-101509285D02*
X95271428Y-101566428D01*
X95271428Y-101709285D01*
X95242857Y-101766428D01*
X95185714Y-101795000D01*
X95128571Y-101795000D01*
X95071428Y-101766428D01*
X95042857Y-101709285D01*
X95042857Y-101566428D01*
X95014285Y-101509285D01*
X94671428Y-101280714D02*
X94671428Y-100880714D01*
X95271428Y-101137857D01*
D10*
%TO.C,U1*%
X83668857Y-106351428D02*
X83668857Y-106837142D01*
X83697428Y-106894285D01*
X83726000Y-106922857D01*
X83783142Y-106951428D01*
X83897428Y-106951428D01*
X83954571Y-106922857D01*
X83983142Y-106894285D01*
X84011714Y-106837142D01*
X84011714Y-106351428D01*
X84611714Y-106951428D02*
X84268857Y-106951428D01*
X84440285Y-106951428D02*
X84440285Y-106351428D01*
X84383142Y-106437142D01*
X84326000Y-106494285D01*
X84268857Y-106522857D01*
D12*
%TO.C,TPc0*%
X84671428Y-113227857D02*
X84671428Y-112885000D01*
X85271428Y-113056428D02*
X84671428Y-113056428D01*
X85271428Y-112685000D02*
X84671428Y-112685000D01*
X84671428Y-112456428D01*
X84700000Y-112399285D01*
X84728571Y-112370714D01*
X84785714Y-112342142D01*
X84871428Y-112342142D01*
X84928571Y-112370714D01*
X84957142Y-112399285D01*
X84985714Y-112456428D01*
X84985714Y-112685000D01*
X85242857Y-111827857D02*
X85271428Y-111885000D01*
X85271428Y-111999285D01*
X85242857Y-112056428D01*
X85214285Y-112085000D01*
X85157142Y-112113571D01*
X84985714Y-112113571D01*
X84928571Y-112085000D01*
X84900000Y-112056428D01*
X84871428Y-111999285D01*
X84871428Y-111885000D01*
X84900000Y-111827857D01*
X84671428Y-111456428D02*
X84671428Y-111399285D01*
X84700000Y-111342142D01*
X84728571Y-111313571D01*
X84785714Y-111285000D01*
X84900000Y-111256428D01*
X85042857Y-111256428D01*
X85157142Y-111285000D01*
X85214285Y-111313571D01*
X85242857Y-111342142D01*
X85271428Y-111399285D01*
X85271428Y-111456428D01*
X85242857Y-111513571D01*
X85214285Y-111542142D01*
X85157142Y-111570714D01*
X85042857Y-111599285D01*
X84900000Y-111599285D01*
X84785714Y-111570714D01*
X84728571Y-111542142D01*
X84700000Y-111513571D01*
X84671428Y-111456428D01*
%TO.C,TPb5*%
X96090714Y-109671428D02*
X96433571Y-109671428D01*
X96262142Y-110271428D02*
X96262142Y-109671428D01*
X96633571Y-110271428D02*
X96633571Y-109671428D01*
X96862142Y-109671428D01*
X96919285Y-109700000D01*
X96947857Y-109728571D01*
X96976428Y-109785714D01*
X96976428Y-109871428D01*
X96947857Y-109928571D01*
X96919285Y-109957142D01*
X96862142Y-109985714D01*
X96633571Y-109985714D01*
X97233571Y-110271428D02*
X97233571Y-109671428D01*
X97233571Y-109900000D02*
X97290714Y-109871428D01*
X97405000Y-109871428D01*
X97462142Y-109900000D01*
X97490714Y-109928571D01*
X97519285Y-109985714D01*
X97519285Y-110157142D01*
X97490714Y-110214285D01*
X97462142Y-110242857D01*
X97405000Y-110271428D01*
X97290714Y-110271428D01*
X97233571Y-110242857D01*
X98062142Y-109671428D02*
X97776428Y-109671428D01*
X97747857Y-109957142D01*
X97776428Y-109928571D01*
X97833571Y-109900000D01*
X97976428Y-109900000D01*
X98033571Y-109928571D01*
X98062142Y-109957142D01*
X98090714Y-110014285D01*
X98090714Y-110157142D01*
X98062142Y-110214285D01*
X98033571Y-110242857D01*
X97976428Y-110271428D01*
X97833571Y-110271428D01*
X97776428Y-110242857D01*
X97747857Y-110214285D01*
%TO.C,REF\u002A\u002A*%
X72028518Y-113605655D02*
X72382072Y-113252102D01*
X72466251Y-113336281D01*
X72499923Y-113403624D01*
X72499923Y-113470968D01*
X72483087Y-113521476D01*
X72432579Y-113605655D01*
X72382072Y-113656163D01*
X72297892Y-113706670D01*
X72247385Y-113723506D01*
X72180041Y-113723506D01*
X72112698Y-113689834D01*
X72028518Y-113605655D01*
X72533595Y-114110731D02*
X72718789Y-113925537D01*
X72735625Y-113875029D01*
X72718789Y-113824521D01*
X72651446Y-113757178D01*
X72600938Y-113740342D01*
X72550430Y-114093895D02*
X72499923Y-114077059D01*
X72415743Y-113992880D01*
X72398908Y-113942372D01*
X72415743Y-113891865D01*
X72449415Y-113858193D01*
X72499923Y-113841357D01*
X72550430Y-113858193D01*
X72634610Y-113942372D01*
X72685117Y-113959208D01*
X73089178Y-114194911D02*
X72802969Y-114481121D01*
X72752461Y-114497956D01*
X72718789Y-114497956D01*
X72668282Y-114481121D01*
X72617774Y-114430613D01*
X72600938Y-114380105D01*
X72870312Y-114413777D02*
X72819804Y-114396941D01*
X72752461Y-114329598D01*
X72735625Y-114279090D01*
X72735625Y-114245418D01*
X72752461Y-114194911D01*
X72853476Y-114093895D01*
X72903984Y-114077059D01*
X72937656Y-114077059D01*
X72988163Y-114093895D01*
X73055507Y-114161239D01*
X73072343Y-114211746D01*
X73257537Y-114363269D02*
X73021835Y-114598972D01*
X73223865Y-114396941D02*
X73257537Y-114396941D01*
X73308045Y-114413777D01*
X73358552Y-114464285D01*
X73375388Y-114514792D01*
X73358552Y-114565300D01*
X73173358Y-114750495D01*
X73493239Y-115070376D02*
X73678434Y-114885182D01*
X73695270Y-114834674D01*
X73678434Y-114784166D01*
X73611091Y-114716823D01*
X73560583Y-114699987D01*
X73510075Y-115053540D02*
X73459568Y-115036704D01*
X73375388Y-114952525D01*
X73358552Y-114902017D01*
X73375388Y-114851510D01*
X73409060Y-114817838D01*
X73459568Y-114801002D01*
X73510075Y-114817838D01*
X73594255Y-114902017D01*
X73644762Y-114918853D01*
X73661598Y-115238735D02*
X74015152Y-114885182D01*
X73880465Y-115019869D02*
X73930972Y-115036704D01*
X73998316Y-115104048D01*
X74015152Y-115154556D01*
X74015152Y-115188227D01*
X73998316Y-115238735D01*
X73897301Y-115339750D01*
X73846793Y-115356586D01*
X73813121Y-115356586D01*
X73762613Y-115339750D01*
X73695270Y-115272407D01*
X73678434Y-115221899D01*
X73981480Y-115558617D02*
X74335033Y-115205063D01*
X74200346Y-115339750D02*
X74250854Y-115356586D01*
X74318197Y-115423930D01*
X74335033Y-115474437D01*
X74335033Y-115508109D01*
X74318197Y-115558617D01*
X74217182Y-115659632D01*
X74166675Y-115676468D01*
X74133003Y-115676468D01*
X74082495Y-115659632D01*
X74015152Y-115592288D01*
X73998316Y-115541781D01*
X74301362Y-115878498D02*
X74537064Y-115642796D01*
X74654915Y-115524945D02*
X74621243Y-115524945D01*
X74621243Y-115558617D01*
X74654915Y-115558617D01*
X74654915Y-115524945D01*
X74621243Y-115558617D01*
X74654915Y-115760647D02*
X74789602Y-115895334D01*
X74823274Y-115693304D02*
X74520228Y-115996349D01*
X74503392Y-116046857D01*
X74520228Y-116097365D01*
X74553900Y-116131036D01*
X71888612Y-114604191D02*
X71939120Y-114317981D01*
X71686582Y-114402160D02*
X72040135Y-114048607D01*
X72174822Y-114183294D01*
X72191658Y-114233801D01*
X72191658Y-114267473D01*
X72174822Y-114317981D01*
X72124314Y-114368489D01*
X72073807Y-114385324D01*
X72040135Y-114385324D01*
X71989627Y-114368489D01*
X71854940Y-114233801D01*
X72191658Y-114907237D02*
X72376853Y-114722042D01*
X72393688Y-114671534D01*
X72376853Y-114621027D01*
X72309509Y-114553683D01*
X72259001Y-114536847D01*
X72208494Y-114890401D02*
X72157986Y-114873565D01*
X72073807Y-114789385D01*
X72056971Y-114738878D01*
X72073807Y-114688370D01*
X72107479Y-114654698D01*
X72157986Y-114637863D01*
X72208494Y-114654698D01*
X72292673Y-114738878D01*
X72343181Y-114755714D01*
X72360017Y-115075595D02*
X72713570Y-114722042D01*
X72578883Y-114856729D02*
X72629391Y-114873565D01*
X72696734Y-114940908D01*
X72713570Y-114991416D01*
X72713570Y-115025088D01*
X72696734Y-115075595D01*
X72595719Y-115176611D01*
X72545211Y-115193446D01*
X72511540Y-115193446D01*
X72461032Y-115176611D01*
X72393688Y-115109267D01*
X72376853Y-115058759D01*
X72679898Y-115395477D02*
X73033452Y-115041924D01*
X72898765Y-115176611D02*
X72949272Y-115193446D01*
X73016616Y-115260790D01*
X73033452Y-115311298D01*
X73033452Y-115344969D01*
X73016616Y-115395477D01*
X72915601Y-115496492D01*
X72865093Y-115513328D01*
X72831421Y-115513328D01*
X72780914Y-115496492D01*
X72713570Y-115429149D01*
X72696734Y-115378641D01*
X72999780Y-115715359D02*
X73235482Y-115479656D01*
X73353333Y-115361805D02*
X73319662Y-115361805D01*
X73319662Y-115395477D01*
X73353333Y-115395477D01*
X73353333Y-115361805D01*
X73319662Y-115395477D01*
X73353333Y-115597507D02*
X73488020Y-115732194D01*
X73521692Y-115530164D02*
X73218646Y-115833210D01*
X73201810Y-115883717D01*
X73218646Y-115934225D01*
X73252318Y-115967897D01*
X73403841Y-116052076D02*
X73403841Y-116085748D01*
X73370169Y-116085748D01*
X73370169Y-116052076D01*
X73403841Y-116052076D01*
X73370169Y-116085748D01*
X73504856Y-115951061D02*
X73690051Y-115732194D01*
X73723723Y-115732194D01*
X73723723Y-115765866D01*
X73504856Y-115951061D01*
X73723723Y-115732194D01*
X73572200Y-116220435D02*
X73572200Y-116254107D01*
X73538528Y-116254107D01*
X73538528Y-116220435D01*
X73572200Y-116220435D01*
X73538528Y-116254107D01*
X73673215Y-116119420D02*
X73858410Y-115900553D01*
X73892081Y-115900553D01*
X73892081Y-115934225D01*
X73673215Y-116119420D01*
X73892081Y-115900553D01*
X73740558Y-116388794D02*
X73740558Y-116422465D01*
X73706887Y-116422465D01*
X73706887Y-116388794D01*
X73740558Y-116388794D01*
X73706887Y-116422465D01*
X73841574Y-116287778D02*
X74026768Y-116068912D01*
X74060440Y-116068912D01*
X74060440Y-116102584D01*
X73841574Y-116287778D01*
X74060440Y-116068912D01*
D10*
%TO.C,U501*%
X123623428Y-113296571D02*
X124109142Y-113296571D01*
X124166285Y-113268000D01*
X124194857Y-113239428D01*
X124223428Y-113182285D01*
X124223428Y-113068000D01*
X124194857Y-113010857D01*
X124166285Y-112982285D01*
X124109142Y-112953714D01*
X123623428Y-112953714D01*
X123623428Y-112382285D02*
X123623428Y-112668000D01*
X123909142Y-112696571D01*
X123880571Y-112668000D01*
X123852000Y-112610857D01*
X123852000Y-112468000D01*
X123880571Y-112410857D01*
X123909142Y-112382285D01*
X123966285Y-112353714D01*
X124109142Y-112353714D01*
X124166285Y-112382285D01*
X124194857Y-112410857D01*
X124223428Y-112468000D01*
X124223428Y-112610857D01*
X124194857Y-112668000D01*
X124166285Y-112696571D01*
X123623428Y-111982285D02*
X123623428Y-111925142D01*
X123652000Y-111868000D01*
X123680571Y-111839428D01*
X123737714Y-111810857D01*
X123852000Y-111782285D01*
X123994857Y-111782285D01*
X124109142Y-111810857D01*
X124166285Y-111839428D01*
X124194857Y-111868000D01*
X124223428Y-111925142D01*
X124223428Y-111982285D01*
X124194857Y-112039428D01*
X124166285Y-112068000D01*
X124109142Y-112096571D01*
X123994857Y-112125142D01*
X123852000Y-112125142D01*
X123737714Y-112096571D01*
X123680571Y-112068000D01*
X123652000Y-112039428D01*
X123623428Y-111982285D01*
X124223428Y-111210857D02*
X124223428Y-111553714D01*
X124223428Y-111382285D02*
X123623428Y-111382285D01*
X123709142Y-111439428D01*
X123766285Y-111496571D01*
X123794857Y-111553714D01*
D12*
%TO.C,TPa0*%
X83237428Y-113227857D02*
X83237428Y-112885000D01*
X83837428Y-113056428D02*
X83237428Y-113056428D01*
X83837428Y-112685000D02*
X83237428Y-112685000D01*
X83237428Y-112456428D01*
X83266000Y-112399285D01*
X83294571Y-112370714D01*
X83351714Y-112342142D01*
X83437428Y-112342142D01*
X83494571Y-112370714D01*
X83523142Y-112399285D01*
X83551714Y-112456428D01*
X83551714Y-112685000D01*
X83837428Y-111827857D02*
X83523142Y-111827857D01*
X83466000Y-111856428D01*
X83437428Y-111913571D01*
X83437428Y-112027857D01*
X83466000Y-112085000D01*
X83808857Y-111827857D02*
X83837428Y-111885000D01*
X83837428Y-112027857D01*
X83808857Y-112085000D01*
X83751714Y-112113571D01*
X83694571Y-112113571D01*
X83637428Y-112085000D01*
X83608857Y-112027857D01*
X83608857Y-111885000D01*
X83580285Y-111827857D01*
X83237428Y-111427857D02*
X83237428Y-111370714D01*
X83266000Y-111313571D01*
X83294571Y-111285000D01*
X83351714Y-111256428D01*
X83466000Y-111227857D01*
X83608857Y-111227857D01*
X83723142Y-111256428D01*
X83780285Y-111285000D01*
X83808857Y-111313571D01*
X83837428Y-111370714D01*
X83837428Y-111427857D01*
X83808857Y-111485000D01*
X83780285Y-111513571D01*
X83723142Y-111542142D01*
X83608857Y-111570714D01*
X83466000Y-111570714D01*
X83351714Y-111542142D01*
X83294571Y-111513571D01*
X83266000Y-111485000D01*
X83237428Y-111427857D01*
%TO.C,TPa6*%
X92671428Y-102909285D02*
X92671428Y-102566428D01*
X93271428Y-102737857D02*
X92671428Y-102737857D01*
X93271428Y-102366428D02*
X92671428Y-102366428D01*
X92671428Y-102137857D01*
X92700000Y-102080714D01*
X92728571Y-102052142D01*
X92785714Y-102023571D01*
X92871428Y-102023571D01*
X92928571Y-102052142D01*
X92957142Y-102080714D01*
X92985714Y-102137857D01*
X92985714Y-102366428D01*
X93271428Y-101509285D02*
X92957142Y-101509285D01*
X92900000Y-101537857D01*
X92871428Y-101595000D01*
X92871428Y-101709285D01*
X92900000Y-101766428D01*
X93242857Y-101509285D02*
X93271428Y-101566428D01*
X93271428Y-101709285D01*
X93242857Y-101766428D01*
X93185714Y-101795000D01*
X93128571Y-101795000D01*
X93071428Y-101766428D01*
X93042857Y-101709285D01*
X93042857Y-101566428D01*
X93014285Y-101509285D01*
X92671428Y-100966428D02*
X92671428Y-101080714D01*
X92700000Y-101137857D01*
X92728571Y-101166428D01*
X92814285Y-101223571D01*
X92928571Y-101252142D01*
X93157142Y-101252142D01*
X93214285Y-101223571D01*
X93242857Y-101195000D01*
X93271428Y-101137857D01*
X93271428Y-101023571D01*
X93242857Y-100966428D01*
X93214285Y-100937857D01*
X93157142Y-100909285D01*
X93014285Y-100909285D01*
X92957142Y-100937857D01*
X92928571Y-100966428D01*
X92900000Y-101023571D01*
X92900000Y-101137857D01*
X92928571Y-101195000D01*
X92957142Y-101223571D01*
X93014285Y-101252142D01*
%TO.C,TPa1*%
X82671428Y-102909285D02*
X82671428Y-102566428D01*
X83271428Y-102737857D02*
X82671428Y-102737857D01*
X83271428Y-102366428D02*
X82671428Y-102366428D01*
X82671428Y-102137857D01*
X82700000Y-102080714D01*
X82728571Y-102052142D01*
X82785714Y-102023571D01*
X82871428Y-102023571D01*
X82928571Y-102052142D01*
X82957142Y-102080714D01*
X82985714Y-102137857D01*
X82985714Y-102366428D01*
X83271428Y-101509285D02*
X82957142Y-101509285D01*
X82900000Y-101537857D01*
X82871428Y-101595000D01*
X82871428Y-101709285D01*
X82900000Y-101766428D01*
X83242857Y-101509285D02*
X83271428Y-101566428D01*
X83271428Y-101709285D01*
X83242857Y-101766428D01*
X83185714Y-101795000D01*
X83128571Y-101795000D01*
X83071428Y-101766428D01*
X83042857Y-101709285D01*
X83042857Y-101566428D01*
X83014285Y-101509285D01*
X83271428Y-100909285D02*
X83271428Y-101252142D01*
X83271428Y-101080714D02*
X82671428Y-101080714D01*
X82757142Y-101137857D01*
X82814285Y-101195000D01*
X82842857Y-101252142D01*
D10*
%TO.C,D4*%
X137479142Y-115841428D02*
X137479142Y-115241428D01*
X137622000Y-115241428D01*
X137707714Y-115270000D01*
X137764857Y-115327142D01*
X137793428Y-115384285D01*
X137822000Y-115498571D01*
X137822000Y-115584285D01*
X137793428Y-115698571D01*
X137764857Y-115755714D01*
X137707714Y-115812857D01*
X137622000Y-115841428D01*
X137479142Y-115841428D01*
X138336285Y-115441428D02*
X138336285Y-115841428D01*
X138193428Y-115212857D02*
X138050571Y-115641428D01*
X138422000Y-115641428D01*
D12*
%TO.C,TPb2*%
X96090714Y-103671428D02*
X96433571Y-103671428D01*
X96262142Y-104271428D02*
X96262142Y-103671428D01*
X96633571Y-104271428D02*
X96633571Y-103671428D01*
X96862142Y-103671428D01*
X96919285Y-103700000D01*
X96947857Y-103728571D01*
X96976428Y-103785714D01*
X96976428Y-103871428D01*
X96947857Y-103928571D01*
X96919285Y-103957142D01*
X96862142Y-103985714D01*
X96633571Y-103985714D01*
X97233571Y-104271428D02*
X97233571Y-103671428D01*
X97233571Y-103900000D02*
X97290714Y-103871428D01*
X97405000Y-103871428D01*
X97462142Y-103900000D01*
X97490714Y-103928571D01*
X97519285Y-103985714D01*
X97519285Y-104157142D01*
X97490714Y-104214285D01*
X97462142Y-104242857D01*
X97405000Y-104271428D01*
X97290714Y-104271428D01*
X97233571Y-104242857D01*
X97747857Y-103728571D02*
X97776428Y-103700000D01*
X97833571Y-103671428D01*
X97976428Y-103671428D01*
X98033571Y-103700000D01*
X98062142Y-103728571D01*
X98090714Y-103785714D01*
X98090714Y-103842857D01*
X98062142Y-103928571D01*
X97719285Y-104271428D01*
X98090714Y-104271428D01*
D10*
%TO.C,R2*%
X79910000Y-101033428D02*
X79710000Y-100747714D01*
X79567142Y-101033428D02*
X79567142Y-100433428D01*
X79795714Y-100433428D01*
X79852857Y-100462000D01*
X79881428Y-100490571D01*
X79910000Y-100547714D01*
X79910000Y-100633428D01*
X79881428Y-100690571D01*
X79852857Y-100719142D01*
X79795714Y-100747714D01*
X79567142Y-100747714D01*
X80138571Y-100490571D02*
X80167142Y-100462000D01*
X80224285Y-100433428D01*
X80367142Y-100433428D01*
X80424285Y-100462000D01*
X80452857Y-100490571D01*
X80481428Y-100547714D01*
X80481428Y-100604857D01*
X80452857Y-100690571D01*
X80110000Y-101033428D01*
X80481428Y-101033428D01*
%TO.C,D5*%
X137479142Y-104157428D02*
X137479142Y-103557428D01*
X137622000Y-103557428D01*
X137707714Y-103586000D01*
X137764857Y-103643142D01*
X137793428Y-103700285D01*
X137822000Y-103814571D01*
X137822000Y-103900285D01*
X137793428Y-104014571D01*
X137764857Y-104071714D01*
X137707714Y-104128857D01*
X137622000Y-104157428D01*
X137479142Y-104157428D01*
X138364857Y-103557428D02*
X138079142Y-103557428D01*
X138050571Y-103843142D01*
X138079142Y-103814571D01*
X138136285Y-103786000D01*
X138279142Y-103786000D01*
X138336285Y-103814571D01*
X138364857Y-103843142D01*
X138393428Y-103900285D01*
X138393428Y-104043142D01*
X138364857Y-104100285D01*
X138336285Y-104128857D01*
X138279142Y-104157428D01*
X138136285Y-104157428D01*
X138079142Y-104128857D01*
X138050571Y-104100285D01*
D12*
%TO.C,TPa5*%
X90671428Y-102909285D02*
X90671428Y-102566428D01*
X91271428Y-102737857D02*
X90671428Y-102737857D01*
X91271428Y-102366428D02*
X90671428Y-102366428D01*
X90671428Y-102137857D01*
X90700000Y-102080714D01*
X90728571Y-102052142D01*
X90785714Y-102023571D01*
X90871428Y-102023571D01*
X90928571Y-102052142D01*
X90957142Y-102080714D01*
X90985714Y-102137857D01*
X90985714Y-102366428D01*
X91271428Y-101509285D02*
X90957142Y-101509285D01*
X90900000Y-101537857D01*
X90871428Y-101595000D01*
X90871428Y-101709285D01*
X90900000Y-101766428D01*
X91242857Y-101509285D02*
X91271428Y-101566428D01*
X91271428Y-101709285D01*
X91242857Y-101766428D01*
X91185714Y-101795000D01*
X91128571Y-101795000D01*
X91071428Y-101766428D01*
X91042857Y-101709285D01*
X91042857Y-101566428D01*
X91014285Y-101509285D01*
X90671428Y-100937857D02*
X90671428Y-101223571D01*
X90957142Y-101252142D01*
X90928571Y-101223571D01*
X90900000Y-101166428D01*
X90900000Y-101023571D01*
X90928571Y-100966428D01*
X90957142Y-100937857D01*
X91014285Y-100909285D01*
X91157142Y-100909285D01*
X91214285Y-100937857D01*
X91242857Y-100966428D01*
X91271428Y-101023571D01*
X91271428Y-101166428D01*
X91242857Y-101223571D01*
X91214285Y-101252142D01*
%TO.C,TPb7*%
X96090714Y-113671428D02*
X96433571Y-113671428D01*
X96262142Y-114271428D02*
X96262142Y-113671428D01*
X96633571Y-114271428D02*
X96633571Y-113671428D01*
X96862142Y-113671428D01*
X96919285Y-113700000D01*
X96947857Y-113728571D01*
X96976428Y-113785714D01*
X96976428Y-113871428D01*
X96947857Y-113928571D01*
X96919285Y-113957142D01*
X96862142Y-113985714D01*
X96633571Y-113985714D01*
X97233571Y-114271428D02*
X97233571Y-113671428D01*
X97233571Y-113900000D02*
X97290714Y-113871428D01*
X97405000Y-113871428D01*
X97462142Y-113900000D01*
X97490714Y-113928571D01*
X97519285Y-113985714D01*
X97519285Y-114157142D01*
X97490714Y-114214285D01*
X97462142Y-114242857D01*
X97405000Y-114271428D01*
X97290714Y-114271428D01*
X97233571Y-114242857D01*
X97719285Y-113671428D02*
X98119285Y-113671428D01*
X97862142Y-114271428D01*
%TO.C,TPb0*%
X96090714Y-99671428D02*
X96433571Y-99671428D01*
X96262142Y-100271428D02*
X96262142Y-99671428D01*
X96633571Y-100271428D02*
X96633571Y-99671428D01*
X96862142Y-99671428D01*
X96919285Y-99700000D01*
X96947857Y-99728571D01*
X96976428Y-99785714D01*
X96976428Y-99871428D01*
X96947857Y-99928571D01*
X96919285Y-99957142D01*
X96862142Y-99985714D01*
X96633571Y-99985714D01*
X97233571Y-100271428D02*
X97233571Y-99671428D01*
X97233571Y-99900000D02*
X97290714Y-99871428D01*
X97405000Y-99871428D01*
X97462142Y-99900000D01*
X97490714Y-99928571D01*
X97519285Y-99985714D01*
X97519285Y-100157142D01*
X97490714Y-100214285D01*
X97462142Y-100242857D01*
X97405000Y-100271428D01*
X97290714Y-100271428D01*
X97233571Y-100242857D01*
X97890714Y-99671428D02*
X97947857Y-99671428D01*
X98005000Y-99700000D01*
X98033571Y-99728571D01*
X98062142Y-99785714D01*
X98090714Y-99900000D01*
X98090714Y-100042857D01*
X98062142Y-100157142D01*
X98033571Y-100214285D01*
X98005000Y-100242857D01*
X97947857Y-100271428D01*
X97890714Y-100271428D01*
X97833571Y-100242857D01*
X97805000Y-100214285D01*
X97776428Y-100157142D01*
X97747857Y-100042857D01*
X97747857Y-99900000D01*
X97776428Y-99785714D01*
X97805000Y-99728571D01*
X97833571Y-99700000D01*
X97890714Y-99671428D01*
D10*
%TO.C,D1*%
X60009142Y-84345428D02*
X60009142Y-83745428D01*
X60152000Y-83745428D01*
X60237714Y-83774000D01*
X60294857Y-83831142D01*
X60323428Y-83888285D01*
X60352000Y-84002571D01*
X60352000Y-84088285D01*
X60323428Y-84202571D01*
X60294857Y-84259714D01*
X60237714Y-84316857D01*
X60152000Y-84345428D01*
X60009142Y-84345428D01*
X60923428Y-84345428D02*
X60580571Y-84345428D01*
X60752000Y-84345428D02*
X60752000Y-83745428D01*
X60694857Y-83831142D01*
X60637714Y-83888285D01*
X60580571Y-83916857D01*
%TO.C,D2*%
X135955142Y-115841428D02*
X135955142Y-115241428D01*
X136098000Y-115241428D01*
X136183714Y-115270000D01*
X136240857Y-115327142D01*
X136269428Y-115384285D01*
X136298000Y-115498571D01*
X136298000Y-115584285D01*
X136269428Y-115698571D01*
X136240857Y-115755714D01*
X136183714Y-115812857D01*
X136098000Y-115841428D01*
X135955142Y-115841428D01*
X136526571Y-115298571D02*
X136555142Y-115270000D01*
X136612285Y-115241428D01*
X136755142Y-115241428D01*
X136812285Y-115270000D01*
X136840857Y-115298571D01*
X136869428Y-115355714D01*
X136869428Y-115412857D01*
X136840857Y-115498571D01*
X136498000Y-115841428D01*
X136869428Y-115841428D01*
D12*
%TO.C,TPb3*%
X96090714Y-105671428D02*
X96433571Y-105671428D01*
X96262142Y-106271428D02*
X96262142Y-105671428D01*
X96633571Y-106271428D02*
X96633571Y-105671428D01*
X96862142Y-105671428D01*
X96919285Y-105700000D01*
X96947857Y-105728571D01*
X96976428Y-105785714D01*
X96976428Y-105871428D01*
X96947857Y-105928571D01*
X96919285Y-105957142D01*
X96862142Y-105985714D01*
X96633571Y-105985714D01*
X97233571Y-106271428D02*
X97233571Y-105671428D01*
X97233571Y-105900000D02*
X97290714Y-105871428D01*
X97405000Y-105871428D01*
X97462142Y-105900000D01*
X97490714Y-105928571D01*
X97519285Y-105985714D01*
X97519285Y-106157142D01*
X97490714Y-106214285D01*
X97462142Y-106242857D01*
X97405000Y-106271428D01*
X97290714Y-106271428D01*
X97233571Y-106242857D01*
X97719285Y-105671428D02*
X98090714Y-105671428D01*
X97890714Y-105900000D01*
X97976428Y-105900000D01*
X98033571Y-105928571D01*
X98062142Y-105957142D01*
X98090714Y-106014285D01*
X98090714Y-106157142D01*
X98062142Y-106214285D01*
X98033571Y-106242857D01*
X97976428Y-106271428D01*
X97805000Y-106271428D01*
X97747857Y-106242857D01*
X97719285Y-106214285D01*
D10*
%TO.C,C501*%
X129122571Y-115784285D02*
X129094000Y-115812857D01*
X129008285Y-115841428D01*
X128951142Y-115841428D01*
X128865428Y-115812857D01*
X128808285Y-115755714D01*
X128779714Y-115698571D01*
X128751142Y-115584285D01*
X128751142Y-115498571D01*
X128779714Y-115384285D01*
X128808285Y-115327142D01*
X128865428Y-115270000D01*
X128951142Y-115241428D01*
X129008285Y-115241428D01*
X129094000Y-115270000D01*
X129122571Y-115298571D01*
X129665428Y-115241428D02*
X129379714Y-115241428D01*
X129351142Y-115527142D01*
X129379714Y-115498571D01*
X129436857Y-115470000D01*
X129579714Y-115470000D01*
X129636857Y-115498571D01*
X129665428Y-115527142D01*
X129694000Y-115584285D01*
X129694000Y-115727142D01*
X129665428Y-115784285D01*
X129636857Y-115812857D01*
X129579714Y-115841428D01*
X129436857Y-115841428D01*
X129379714Y-115812857D01*
X129351142Y-115784285D01*
X130065428Y-115241428D02*
X130122571Y-115241428D01*
X130179714Y-115270000D01*
X130208285Y-115298571D01*
X130236857Y-115355714D01*
X130265428Y-115470000D01*
X130265428Y-115612857D01*
X130236857Y-115727142D01*
X130208285Y-115784285D01*
X130179714Y-115812857D01*
X130122571Y-115841428D01*
X130065428Y-115841428D01*
X130008285Y-115812857D01*
X129979714Y-115784285D01*
X129951142Y-115727142D01*
X129922571Y-115612857D01*
X129922571Y-115470000D01*
X129951142Y-115355714D01*
X129979714Y-115298571D01*
X130008285Y-115270000D01*
X130065428Y-115241428D01*
X130836857Y-115841428D02*
X130494000Y-115841428D01*
X130665428Y-115841428D02*
X130665428Y-115241428D01*
X130608285Y-115327142D01*
X130551142Y-115384285D01*
X130494000Y-115412857D01*
D12*
%TO.C,TPc3*%
X90671428Y-113227857D02*
X90671428Y-112885000D01*
X91271428Y-113056428D02*
X90671428Y-113056428D01*
X91271428Y-112685000D02*
X90671428Y-112685000D01*
X90671428Y-112456428D01*
X90700000Y-112399285D01*
X90728571Y-112370714D01*
X90785714Y-112342142D01*
X90871428Y-112342142D01*
X90928571Y-112370714D01*
X90957142Y-112399285D01*
X90985714Y-112456428D01*
X90985714Y-112685000D01*
X91242857Y-111827857D02*
X91271428Y-111885000D01*
X91271428Y-111999285D01*
X91242857Y-112056428D01*
X91214285Y-112085000D01*
X91157142Y-112113571D01*
X90985714Y-112113571D01*
X90928571Y-112085000D01*
X90900000Y-112056428D01*
X90871428Y-111999285D01*
X90871428Y-111885000D01*
X90900000Y-111827857D01*
X90671428Y-111627857D02*
X90671428Y-111256428D01*
X90900000Y-111456428D01*
X90900000Y-111370714D01*
X90928571Y-111313571D01*
X90957142Y-111285000D01*
X91014285Y-111256428D01*
X91157142Y-111256428D01*
X91214285Y-111285000D01*
X91242857Y-111313571D01*
X91271428Y-111370714D01*
X91271428Y-111542142D01*
X91242857Y-111599285D01*
X91214285Y-111627857D01*
D10*
%TO.C,R6*%
X139346000Y-104919428D02*
X139146000Y-104633714D01*
X139003142Y-104919428D02*
X139003142Y-104319428D01*
X139231714Y-104319428D01*
X139288857Y-104348000D01*
X139317428Y-104376571D01*
X139346000Y-104433714D01*
X139346000Y-104519428D01*
X139317428Y-104576571D01*
X139288857Y-104605142D01*
X139231714Y-104633714D01*
X139003142Y-104633714D01*
X139860285Y-104319428D02*
X139746000Y-104319428D01*
X139688857Y-104348000D01*
X139660285Y-104376571D01*
X139603142Y-104462285D01*
X139574571Y-104576571D01*
X139574571Y-104805142D01*
X139603142Y-104862285D01*
X139631714Y-104890857D01*
X139688857Y-104919428D01*
X139803142Y-104919428D01*
X139860285Y-104890857D01*
X139888857Y-104862285D01*
X139917428Y-104805142D01*
X139917428Y-104662285D01*
X139888857Y-104605142D01*
X139860285Y-104576571D01*
X139803142Y-104548000D01*
X139688857Y-104548000D01*
X139631714Y-104576571D01*
X139603142Y-104605142D01*
X139574571Y-104662285D01*
D12*
%TO.C,TPa3*%
X86671428Y-102909285D02*
X86671428Y-102566428D01*
X87271428Y-102737857D02*
X86671428Y-102737857D01*
X87271428Y-102366428D02*
X86671428Y-102366428D01*
X86671428Y-102137857D01*
X86700000Y-102080714D01*
X86728571Y-102052142D01*
X86785714Y-102023571D01*
X86871428Y-102023571D01*
X86928571Y-102052142D01*
X86957142Y-102080714D01*
X86985714Y-102137857D01*
X86985714Y-102366428D01*
X87271428Y-101509285D02*
X86957142Y-101509285D01*
X86900000Y-101537857D01*
X86871428Y-101595000D01*
X86871428Y-101709285D01*
X86900000Y-101766428D01*
X87242857Y-101509285D02*
X87271428Y-101566428D01*
X87271428Y-101709285D01*
X87242857Y-101766428D01*
X87185714Y-101795000D01*
X87128571Y-101795000D01*
X87071428Y-101766428D01*
X87042857Y-101709285D01*
X87042857Y-101566428D01*
X87014285Y-101509285D01*
X86671428Y-101280714D02*
X86671428Y-100909285D01*
X86900000Y-101109285D01*
X86900000Y-101023571D01*
X86928571Y-100966428D01*
X86957142Y-100937857D01*
X87014285Y-100909285D01*
X87157142Y-100909285D01*
X87214285Y-100937857D01*
X87242857Y-100966428D01*
X87271428Y-101023571D01*
X87271428Y-101195000D01*
X87242857Y-101252142D01*
X87214285Y-101280714D01*
D10*
%TO.C,J1*%
X140128666Y-109180380D02*
X140128666Y-109894666D01*
X140081047Y-110037523D01*
X139985809Y-110132761D01*
X139842952Y-110180380D01*
X139747714Y-110180380D01*
X141128666Y-110180380D02*
X140557238Y-110180380D01*
X140842952Y-110180380D02*
X140842952Y-109180380D01*
X140747714Y-109323238D01*
X140652476Y-109418476D01*
X140557238Y-109466095D01*
%TO.C,D3*%
X135955142Y-104157428D02*
X135955142Y-103557428D01*
X136098000Y-103557428D01*
X136183714Y-103586000D01*
X136240857Y-103643142D01*
X136269428Y-103700285D01*
X136298000Y-103814571D01*
X136298000Y-103900285D01*
X136269428Y-104014571D01*
X136240857Y-104071714D01*
X136183714Y-104128857D01*
X136098000Y-104157428D01*
X135955142Y-104157428D01*
X136498000Y-103557428D02*
X136869428Y-103557428D01*
X136669428Y-103786000D01*
X136755142Y-103786000D01*
X136812285Y-103814571D01*
X136840857Y-103843142D01*
X136869428Y-103900285D01*
X136869428Y-104043142D01*
X136840857Y-104100285D01*
X136812285Y-104128857D01*
X136755142Y-104157428D01*
X136583714Y-104157428D01*
X136526571Y-104128857D01*
X136498000Y-104100285D01*
D12*
%TO.C,TPb6*%
X96090714Y-111671428D02*
X96433571Y-111671428D01*
X96262142Y-112271428D02*
X96262142Y-111671428D01*
X96633571Y-112271428D02*
X96633571Y-111671428D01*
X96862142Y-111671428D01*
X96919285Y-111700000D01*
X96947857Y-111728571D01*
X96976428Y-111785714D01*
X96976428Y-111871428D01*
X96947857Y-111928571D01*
X96919285Y-111957142D01*
X96862142Y-111985714D01*
X96633571Y-111985714D01*
X97233571Y-112271428D02*
X97233571Y-111671428D01*
X97233571Y-111900000D02*
X97290714Y-111871428D01*
X97405000Y-111871428D01*
X97462142Y-111900000D01*
X97490714Y-111928571D01*
X97519285Y-111985714D01*
X97519285Y-112157142D01*
X97490714Y-112214285D01*
X97462142Y-112242857D01*
X97405000Y-112271428D01*
X97290714Y-112271428D01*
X97233571Y-112242857D01*
X98033571Y-111671428D02*
X97919285Y-111671428D01*
X97862142Y-111700000D01*
X97833571Y-111728571D01*
X97776428Y-111814285D01*
X97747857Y-111928571D01*
X97747857Y-112157142D01*
X97776428Y-112214285D01*
X97805000Y-112242857D01*
X97862142Y-112271428D01*
X97976428Y-112271428D01*
X98033571Y-112242857D01*
X98062142Y-112214285D01*
X98090714Y-112157142D01*
X98090714Y-112014285D01*
X98062142Y-111957142D01*
X98033571Y-111928571D01*
X97976428Y-111900000D01*
X97862142Y-111900000D01*
X97805000Y-111928571D01*
X97776428Y-111957142D01*
X97747857Y-112014285D01*
D10*
%TO.C,C502*%
X125312571Y-104384285D02*
X125284000Y-104412857D01*
X125198285Y-104441428D01*
X125141142Y-104441428D01*
X125055428Y-104412857D01*
X124998285Y-104355714D01*
X124969714Y-104298571D01*
X124941142Y-104184285D01*
X124941142Y-104098571D01*
X124969714Y-103984285D01*
X124998285Y-103927142D01*
X125055428Y-103870000D01*
X125141142Y-103841428D01*
X125198285Y-103841428D01*
X125284000Y-103870000D01*
X125312571Y-103898571D01*
X125855428Y-103841428D02*
X125569714Y-103841428D01*
X125541142Y-104127142D01*
X125569714Y-104098571D01*
X125626857Y-104070000D01*
X125769714Y-104070000D01*
X125826857Y-104098571D01*
X125855428Y-104127142D01*
X125884000Y-104184285D01*
X125884000Y-104327142D01*
X125855428Y-104384285D01*
X125826857Y-104412857D01*
X125769714Y-104441428D01*
X125626857Y-104441428D01*
X125569714Y-104412857D01*
X125541142Y-104384285D01*
X126255428Y-103841428D02*
X126312571Y-103841428D01*
X126369714Y-103870000D01*
X126398285Y-103898571D01*
X126426857Y-103955714D01*
X126455428Y-104070000D01*
X126455428Y-104212857D01*
X126426857Y-104327142D01*
X126398285Y-104384285D01*
X126369714Y-104412857D01*
X126312571Y-104441428D01*
X126255428Y-104441428D01*
X126198285Y-104412857D01*
X126169714Y-104384285D01*
X126141142Y-104327142D01*
X126112571Y-104212857D01*
X126112571Y-104070000D01*
X126141142Y-103955714D01*
X126169714Y-103898571D01*
X126198285Y-103870000D01*
X126255428Y-103841428D01*
X126684000Y-103898571D02*
X126712571Y-103870000D01*
X126769714Y-103841428D01*
X126912571Y-103841428D01*
X126969714Y-103870000D01*
X126998285Y-103898571D01*
X127026857Y-103955714D01*
X127026857Y-104012857D01*
X126998285Y-104098571D01*
X126655428Y-104441428D01*
X127026857Y-104441428D01*
D11*
%TO.C,U502*%
X119126000Y-112209000D02*
X116926000Y-112209000D01*
X119126000Y-106739000D02*
X121326000Y-106739000D01*
X119126000Y-106739000D02*
X115526000Y-106739000D01*
X119126000Y-112209000D02*
X121326000Y-112209000D01*
%TO.C,R501*%
X125492742Y-115316000D02*
X125967258Y-115316000D01*
X125492742Y-114271000D02*
X125967258Y-114271000D01*
%TO.C,D502*%
X124245000Y-117067000D02*
X126530000Y-117067000D01*
X124245000Y-115597000D02*
X124245000Y-117067000D01*
X126530000Y-115597000D02*
X124245000Y-115597000D01*
%TO.C,TPc1*%
X87700000Y-114000000D02*
G75*
G03*
X87700000Y-114000000I-700000J0D01*
G01*
%TO.C,R5*%
X138923500Y-112792742D02*
X138923500Y-113267258D01*
X139968500Y-112792742D02*
X139968500Y-113267258D01*
%TO.C,C2*%
X70265000Y-109738748D02*
X70265000Y-110261252D01*
X71735000Y-109738748D02*
X71735000Y-110261252D01*
%TO.C,D501*%
X115352000Y-104410000D02*
X115352000Y-106410000D01*
X115352000Y-106410000D02*
X119252000Y-106410000D01*
X115352000Y-104410000D02*
X119252000Y-104410000D01*
%TO.C,R3*%
X79518742Y-108443500D02*
X79993258Y-108443500D01*
X79518742Y-109488500D02*
X79993258Y-109488500D01*
%TO.C,TP3*%
X71700000Y-106000000D02*
G75*
G03*
X71700000Y-106000000I-700000J0D01*
G01*
%TO.C,TP1*%
X61700000Y-94000000D02*
G75*
G03*
X61700000Y-94000000I-700000J0D01*
G01*
%TO.C,TPc4*%
X93700000Y-114000000D02*
G75*
G03*
X93700000Y-114000000I-700000J0D01*
G01*
%TO.C,C1*%
X87262580Y-111000000D02*
X86981420Y-111000000D01*
X87262580Y-109980000D02*
X86981420Y-109980000D01*
%TO.C,TPb4*%
X99700000Y-108000000D02*
G75*
G03*
X99700000Y-108000000I-700000J0D01*
G01*
D10*
%TO.C,F1*%
X61236000Y-86630000D02*
X63116000Y-86630000D01*
X63266000Y-86780000D02*
X63266000Y-87970000D01*
X61236000Y-91170000D02*
X63116000Y-91170000D01*
X63266000Y-91020000D02*
X63266000Y-89830000D01*
X61086000Y-87970000D02*
X61086000Y-86780000D01*
X61086000Y-89830000D02*
X61086000Y-91020000D01*
D13*
X61336000Y-88900000D02*
G75*
G03*
X62178199Y-88898731I420000J730000D01*
G01*
X63016000Y-88900000D02*
G75*
G03*
X62173801Y-88901269I-420001J-729999D01*
G01*
D11*
%TO.C,R1*%
X77963500Y-102378742D02*
X77963500Y-102853258D01*
X79008500Y-102378742D02*
X79008500Y-102853258D01*
%TO.C,TPa2*%
X85700000Y-100000000D02*
G75*
G03*
X85700000Y-100000000I-700000J0D01*
G01*
%TO.C,TPc5*%
X95700000Y-114000000D02*
G75*
G03*
X95700000Y-114000000I-700000J0D01*
G01*
%TO.C,R4*%
X81042742Y-109967500D02*
X81517258Y-109967500D01*
X81042742Y-111012500D02*
X81517258Y-111012500D01*
%TO.C,TPa4*%
X89700000Y-100000000D02*
G75*
G03*
X89700000Y-100000000I-700000J0D01*
G01*
%TO.C,TP9*%
X77700000Y-114000000D02*
G75*
G03*
X77700000Y-114000000I-700000J0D01*
G01*
%TO.C,SW504*%
X117316000Y-114427000D02*
X117316000Y-115697000D01*
X117316000Y-115697000D02*
X120936000Y-115697000D01*
X115715000Y-114072000D02*
X115715000Y-112952000D01*
X120936000Y-115697000D02*
X120936000Y-114427000D01*
X120936000Y-115337000D02*
X119729333Y-115337000D01*
X120936000Y-115457000D02*
X119729333Y-115457000D01*
X120936000Y-114857000D02*
X119729333Y-114857000D01*
X122536000Y-114022000D02*
X122536000Y-112952000D01*
X120936000Y-114977000D02*
X119729333Y-114977000D01*
X122536000Y-112952000D02*
X115715000Y-112952000D01*
X119729333Y-115697000D02*
X119729333Y-114427000D01*
X122776000Y-117412000D02*
X121393000Y-117412000D01*
X120936000Y-114617000D02*
X119729333Y-114617000D01*
X120936000Y-114737000D02*
X119729333Y-114737000D01*
X120936000Y-115217000D02*
X119729333Y-115217000D01*
X120936000Y-115577000D02*
X119729333Y-115577000D01*
X122536000Y-117172000D02*
X122536000Y-116102000D01*
X120936000Y-114427000D02*
X117316000Y-114427000D01*
X115715000Y-117172000D02*
X115715000Y-116052000D01*
X120936000Y-114497000D02*
X119729333Y-114497000D01*
X120936000Y-115097000D02*
X119729333Y-115097000D01*
X122536000Y-117172000D02*
X115715000Y-117172000D01*
X122776000Y-117412000D02*
X122776000Y-116102000D01*
%TO.C,TPb1*%
X99700000Y-102000000D02*
G75*
G03*
X99700000Y-102000000I-700000J0D01*
G01*
%TO.C,TPc2*%
X89700000Y-114000000D02*
G75*
G03*
X89700000Y-114000000I-700000J0D01*
G01*
%TO.C,TPa7*%
X95700000Y-100000000D02*
G75*
G03*
X95700000Y-100000000I-700000J0D01*
G01*
%TO.C,U1*%
X85266000Y-105375000D02*
X85266000Y-104900000D01*
X85266000Y-104900000D02*
X85741000Y-104900000D01*
X89486000Y-108645000D02*
X89486000Y-109120000D01*
X89486000Y-109120000D02*
X89011000Y-109120000D01*
X89486000Y-105375000D02*
X89486000Y-104900000D01*
X89486000Y-104900000D02*
X89011000Y-104900000D01*
X85266000Y-108645000D02*
X85266000Y-109120000D01*
%TO.C,G\u002A\u002A\u002A*%
G36*
X62116680Y-100976000D02*
G01*
X62096680Y-100996000D01*
X62076680Y-100976000D01*
X62096680Y-100956000D01*
X62116680Y-100976000D01*
G37*
G36*
X62116680Y-100816000D02*
G01*
X62096680Y-100836000D01*
X62076680Y-100816000D01*
X62096680Y-100796000D01*
X62116680Y-100816000D01*
G37*
G36*
X60705846Y-100891833D02*
G01*
X60693917Y-100910013D01*
X60653346Y-100912842D01*
X60610665Y-100903073D01*
X60629180Y-100888675D01*
X60691695Y-100883906D01*
X60705846Y-100891833D01*
G37*
G36*
X61275052Y-99465036D02*
G01*
X61276680Y-99476000D01*
X61263032Y-99514960D01*
X61259040Y-99516000D01*
X61224889Y-99487970D01*
X61216680Y-99476000D01*
X61219851Y-99439140D01*
X61234319Y-99436000D01*
X61275052Y-99465036D01*
G37*
G36*
X62276680Y-101456000D02*
G01*
X62256680Y-101476000D01*
X62236680Y-101456000D01*
X62256680Y-101436000D01*
X62276680Y-101456000D01*
G37*
G36*
X59415003Y-101950126D02*
G01*
X59766822Y-101950126D01*
X59773086Y-101946000D01*
X59836533Y-101926271D01*
X59941828Y-101916297D01*
X59963391Y-101916000D01*
X60059965Y-101911664D01*
X60094466Y-101889573D01*
X60084713Y-101836098D01*
X60081076Y-101826000D01*
X60018366Y-101750251D01*
X59932365Y-101728826D01*
X59873756Y-101729501D01*
X59884549Y-101740694D01*
X59890723Y-101742538D01*
X59931851Y-101761822D01*
X59923342Y-101795203D01*
X59859475Y-101860166D01*
X59849129Y-101869711D01*
X59786524Y-101928611D01*
X59766822Y-101950126D01*
X59415003Y-101950126D01*
X59429715Y-101878947D01*
X59454095Y-101776000D01*
X59756680Y-101776000D01*
X59776680Y-101796000D01*
X59796680Y-101776000D01*
X59776680Y-101756000D01*
X59756680Y-101776000D01*
X59454095Y-101776000D01*
X59474508Y-101689805D01*
X59482234Y-101660365D01*
X61041589Y-101660365D01*
X61051519Y-101715685D01*
X61063346Y-101729333D01*
X61121893Y-101754812D01*
X61155338Y-101713180D01*
X61156680Y-101696000D01*
X61124661Y-101642969D01*
X61096680Y-101636000D01*
X61041589Y-101660365D01*
X59482234Y-101660365D01*
X59511031Y-101550639D01*
X59836680Y-101550639D01*
X59868815Y-101585561D01*
X59941685Y-101617802D01*
X60019980Y-101636091D01*
X60068395Y-101629160D01*
X60070846Y-101625375D01*
X60073942Y-101567746D01*
X60065090Y-101463005D01*
X60058395Y-101413499D01*
X60033434Y-101298906D01*
X59996867Y-101246072D01*
X59954229Y-101236000D01*
X59890093Y-101254469D01*
X59886683Y-101313365D01*
X59944132Y-101417916D01*
X59959403Y-101439825D01*
X60003270Y-101514973D01*
X60007415Y-101554313D01*
X60001764Y-101556000D01*
X59944958Y-101526759D01*
X59936276Y-101515347D01*
X59889797Y-101494504D01*
X59844433Y-101523134D01*
X59836680Y-101550639D01*
X59511031Y-101550639D01*
X59524262Y-101500224D01*
X59574223Y-101329176D01*
X59619640Y-101195632D01*
X59655761Y-101118564D01*
X59657644Y-101116000D01*
X59690044Y-101058576D01*
X60064042Y-101058576D01*
X60088349Y-101057851D01*
X60256756Y-101022176D01*
X60471168Y-100995960D01*
X60717488Y-100978959D01*
X60981620Y-100970928D01*
X61249468Y-100971622D01*
X61506935Y-100980795D01*
X61739927Y-100998203D01*
X61934346Y-101023600D01*
X62076097Y-101056741D01*
X62147673Y-101093660D01*
X62152200Y-101139438D01*
X62148836Y-101247084D01*
X62139126Y-101399023D01*
X62124616Y-101577681D01*
X62106850Y-101765482D01*
X62087374Y-101944854D01*
X62067732Y-102098222D01*
X62049885Y-102206000D01*
X62044497Y-102287817D01*
X62080080Y-102315393D01*
X62092016Y-102316000D01*
X62147982Y-102346037D01*
X62156680Y-102376000D01*
X62191442Y-102415345D01*
X62279374Y-102434843D01*
X62395941Y-102433673D01*
X62516607Y-102411017D01*
X62574029Y-102389929D01*
X62657865Y-102330513D01*
X62698175Y-102271289D01*
X62705171Y-102176948D01*
X62691098Y-102024590D01*
X62659857Y-101832201D01*
X62615352Y-101617768D01*
X62561485Y-101399275D01*
X62502160Y-101194708D01*
X62441280Y-101022053D01*
X62412747Y-100956000D01*
X62316627Y-100761448D01*
X62234858Y-100628322D01*
X62152750Y-100543504D01*
X62055613Y-100493876D01*
X61928760Y-100466321D01*
X61854215Y-100457212D01*
X61717981Y-100437135D01*
X61615784Y-100411870D01*
X61572427Y-100389119D01*
X61534182Y-100392579D01*
X61460693Y-100442758D01*
X61367707Y-100524734D01*
X61270974Y-100623585D01*
X61186244Y-100724389D01*
X61132444Y-100806000D01*
X61077290Y-100881342D01*
X60998399Y-100911925D01*
X60920550Y-100916000D01*
X60801994Y-100900514D01*
X60721609Y-100861299D01*
X60716680Y-100856000D01*
X60647113Y-100804441D01*
X60584864Y-100804447D01*
X60556718Y-100855623D01*
X60556680Y-100858360D01*
X60535874Y-100898869D01*
X60512865Y-100893642D01*
X60448713Y-100890848D01*
X60370264Y-100919433D01*
X60293367Y-100951349D01*
X60249941Y-100934939D01*
X60234691Y-100914151D01*
X60204920Y-100878025D01*
X60197350Y-100915308D01*
X60197292Y-100919887D01*
X60164659Y-100985663D01*
X60106680Y-101031124D01*
X60064042Y-101058576D01*
X59690044Y-101058576D01*
X59695895Y-101048205D01*
X59748844Y-100932336D01*
X59796170Y-100816000D01*
X59870944Y-100640797D01*
X59945423Y-100526239D01*
X60038579Y-100455329D01*
X60169385Y-100411067D01*
X60270789Y-100390764D01*
X60408183Y-100362868D01*
X60480249Y-100336151D01*
X60501246Y-100303692D01*
X60496351Y-100281290D01*
X60469366Y-100192976D01*
X60467075Y-100183226D01*
X60782786Y-100183226D01*
X60790098Y-100226068D01*
X60841816Y-100299277D01*
X60863603Y-100323226D01*
X60994024Y-100415327D01*
X61132145Y-100427853D01*
X61277313Y-100360788D01*
X61313610Y-100332444D01*
X61354434Y-100294541D01*
X61576842Y-100294541D01*
X61601532Y-100287118D01*
X61603417Y-100285262D01*
X61631615Y-100216113D01*
X61628190Y-100190531D01*
X61607581Y-100181245D01*
X61585928Y-100232793D01*
X61576842Y-100294541D01*
X61354434Y-100294541D01*
X61404987Y-100247605D01*
X61428057Y-100202568D01*
X61381611Y-100195691D01*
X61264439Y-100225330D01*
X61240332Y-100232939D01*
X61128843Y-100274275D01*
X61090734Y-100304401D01*
X61110332Y-100323188D01*
X61139975Y-100343338D01*
X61095079Y-100352328D01*
X61073100Y-100353188D01*
X60975779Y-100326640D01*
X60923958Y-100256000D01*
X60866990Y-100170685D01*
X60808071Y-100163834D01*
X60782786Y-100183226D01*
X60467075Y-100183226D01*
X60448600Y-100104610D01*
X60447548Y-100100505D01*
X61050429Y-100100505D01*
X61056680Y-100116000D01*
X61092624Y-100154159D01*
X61099040Y-100156000D01*
X61116221Y-100125052D01*
X61116680Y-100116000D01*
X61100690Y-100096000D01*
X61636680Y-100096000D01*
X61656680Y-100116000D01*
X61676680Y-100096000D01*
X61656680Y-100076000D01*
X61636680Y-100096000D01*
X61100690Y-100096000D01*
X61085929Y-100077537D01*
X61074319Y-100076000D01*
X61050429Y-100100505D01*
X60447548Y-100100505D01*
X60433028Y-100043875D01*
X60404221Y-100012946D01*
X60341963Y-100005381D01*
X60226033Y-100014740D01*
X60181402Y-100019495D01*
X60049672Y-100033851D01*
X59953198Y-100044764D01*
X59916680Y-100049334D01*
X59867620Y-100044303D01*
X59775310Y-100027255D01*
X59766680Y-100025450D01*
X59669437Y-99988411D01*
X59659455Y-99969333D01*
X60130013Y-99969333D01*
X60135504Y-99993113D01*
X60156680Y-99996000D01*
X60189604Y-99981364D01*
X60183346Y-99969333D01*
X60135876Y-99964546D01*
X60130013Y-99969333D01*
X59659455Y-99969333D01*
X59647474Y-99946436D01*
X60254028Y-99946436D01*
X60293346Y-99952842D01*
X60345227Y-99945487D01*
X60345657Y-99936000D01*
X60436680Y-99936000D01*
X60456680Y-99956000D01*
X60476680Y-99936000D01*
X60456680Y-99916000D01*
X60436680Y-99936000D01*
X60345657Y-99936000D01*
X60345846Y-99931833D01*
X60292311Y-99922284D01*
X60269180Y-99928675D01*
X60254028Y-99946436D01*
X59647474Y-99946436D01*
X59636916Y-99926257D01*
X59636679Y-99918407D01*
X59659800Y-99845422D01*
X59736436Y-99792395D01*
X59877502Y-99753233D01*
X59956680Y-99739742D01*
X60162865Y-99703295D01*
X60307203Y-99661068D01*
X60367597Y-99626436D01*
X60574028Y-99626436D01*
X60613346Y-99632842D01*
X60665227Y-99625487D01*
X60665846Y-99611833D01*
X60612311Y-99602284D01*
X60589180Y-99608675D01*
X60574028Y-99626436D01*
X60367597Y-99626436D01*
X60407756Y-99603407D01*
X60465075Y-99540020D01*
X60714230Y-99540020D01*
X60769540Y-99546333D01*
X60796680Y-99546719D01*
X60869452Y-99542549D01*
X60878029Y-99532166D01*
X60866680Y-99528426D01*
X60765230Y-99522206D01*
X60726680Y-99528426D01*
X60714230Y-99540020D01*
X60465075Y-99540020D01*
X60482582Y-99520659D01*
X60535937Y-99430139D01*
X60540422Y-99421159D01*
X61119114Y-99421159D01*
X61143535Y-99506815D01*
X61183118Y-99553273D01*
X61274979Y-99600090D01*
X61359745Y-99580011D01*
X61413290Y-99504304D01*
X61420665Y-99442319D01*
X61407967Y-99370341D01*
X61360946Y-99341007D01*
X61277227Y-99336000D01*
X61165680Y-99359600D01*
X61119114Y-99421159D01*
X60540422Y-99421159D01*
X60592290Y-99317301D01*
X60629165Y-99233759D01*
X60637460Y-99206158D01*
X60652918Y-99125620D01*
X60686926Y-99056979D01*
X60715174Y-99036000D01*
X60741168Y-99000728D01*
X60764184Y-98913249D01*
X60768388Y-98886000D01*
X60793964Y-98742587D01*
X60829740Y-98591406D01*
X60834028Y-98576000D01*
X60863400Y-98443326D01*
X60889252Y-98277012D01*
X60900264Y-98176000D01*
X60929169Y-97943762D01*
X60970234Y-97786212D01*
X61025158Y-97698728D01*
X61084061Y-97676000D01*
X61143031Y-97695273D01*
X61145808Y-97726635D01*
X61140895Y-97809248D01*
X61160062Y-97943658D01*
X61197175Y-98108250D01*
X61246096Y-98281405D01*
X61300692Y-98441508D01*
X61354827Y-98566942D01*
X61402366Y-98636089D01*
X61404361Y-98637609D01*
X61426409Y-98684642D01*
X61457383Y-98789235D01*
X61491191Y-98930373D01*
X61496799Y-98956567D01*
X61538655Y-99123124D01*
X61588903Y-99276889D01*
X61636852Y-99385254D01*
X61638014Y-99387244D01*
X61689396Y-99487674D01*
X61715758Y-99565286D01*
X61716680Y-99575184D01*
X61745185Y-99620233D01*
X61834827Y-99664268D01*
X61991791Y-99709518D01*
X62222264Y-99758215D01*
X62226680Y-99759053D01*
X62355456Y-99787170D01*
X62445710Y-99813992D01*
X62476680Y-99832303D01*
X62440395Y-99921260D01*
X62346084Y-100004766D01*
X62215563Y-100072339D01*
X62070647Y-100113495D01*
X61933152Y-100117752D01*
X61897638Y-100110549D01*
X61810147Y-100093505D01*
X61756095Y-100113923D01*
X61711012Y-100187184D01*
X61686329Y-100243378D01*
X61640784Y-100350756D01*
X61868732Y-100377613D01*
X62010622Y-100401702D01*
X62130456Y-100434751D01*
X62180645Y-100457203D01*
X62273070Y-100549704D01*
X62370631Y-100706571D01*
X62468074Y-100912850D01*
X62560141Y-101153585D01*
X62641578Y-101413822D01*
X62707128Y-101678605D01*
X62751536Y-101932979D01*
X62768763Y-102130665D01*
X62776680Y-102355863D01*
X62946680Y-102355931D01*
X63053810Y-102360714D01*
X63103061Y-102383564D01*
X63116388Y-102437405D01*
X63116680Y-102456000D01*
X63116680Y-102556000D01*
X62383203Y-102556000D01*
X62148298Y-102556917D01*
X61851835Y-102559508D01*
X61512232Y-102563528D01*
X61147907Y-102568733D01*
X60777278Y-102574880D01*
X60418765Y-102581724D01*
X60379916Y-102582528D01*
X59110107Y-102609057D01*
X59123393Y-102492528D01*
X59145666Y-102409336D01*
X59204438Y-102372891D01*
X59266803Y-102363456D01*
X59354343Y-102347730D01*
X59381337Y-102311104D01*
X59372609Y-102254022D01*
X59374013Y-102180027D01*
X59387028Y-102097123D01*
X59783441Y-102097123D01*
X59801749Y-102098681D01*
X59816680Y-102093814D01*
X59915144Y-102063186D01*
X60016680Y-102035146D01*
X60092487Y-102013833D01*
X60094142Y-102004608D01*
X60036680Y-102001511D01*
X59926704Y-102020678D01*
X59836680Y-102060180D01*
X59783441Y-102097123D01*
X59387028Y-102097123D01*
X59394633Y-102048678D01*
X59415003Y-101950126D01*
G37*
G36*
X61383346Y-99409333D02*
G01*
X61377855Y-99433113D01*
X61356680Y-99436000D01*
X61323755Y-99421364D01*
X61330013Y-99409333D01*
X61377483Y-99404546D01*
X61383346Y-99409333D01*
G37*
G36*
X61636680Y-100896000D02*
G01*
X61616680Y-100916000D01*
X61596680Y-100896000D01*
X61616680Y-100876000D01*
X61636680Y-100896000D01*
G37*
%TO.C,TPc0*%
X85700000Y-114000000D02*
G75*
G03*
X85700000Y-114000000I-700000J0D01*
G01*
%TO.C,TP2*%
X70700000Y-84074000D02*
G75*
G03*
X70700000Y-84074000I-700000J0D01*
G01*
%TO.C,TPb5*%
X99700000Y-110000000D02*
G75*
G03*
X99700000Y-110000000I-700000J0D01*
G01*
%TO.C,TP7*%
X61700000Y-106000000D02*
G75*
G03*
X61700000Y-106000000I-700000J0D01*
G01*
%TO.C,REF\u002A\u002A*%
G36*
X71929862Y-116239129D02*
G01*
X71899671Y-116259539D01*
X71875318Y-116265662D01*
X71861274Y-116265990D01*
X71849221Y-116263165D01*
X71835859Y-116255104D01*
X71817889Y-116239727D01*
X71792008Y-116214953D01*
X71786772Y-116209840D01*
X71753552Y-116176605D01*
X71717760Y-116139586D01*
X71685814Y-116105446D01*
X71678255Y-116097115D01*
X71654723Y-116070433D01*
X71651306Y-116066033D01*
X71758790Y-116066033D01*
X71783106Y-116098388D01*
X71804370Y-116123522D01*
X71828119Y-116146776D01*
X71851139Y-116165571D01*
X71870217Y-116177326D01*
X71882139Y-116179462D01*
X71883182Y-116178725D01*
X71888766Y-116164884D01*
X71889117Y-116155112D01*
X71890928Y-116138405D01*
X71894259Y-116132294D01*
X71897168Y-116121079D01*
X71898007Y-116099776D01*
X71897045Y-116074801D01*
X71894546Y-116052565D01*
X71890780Y-116039485D01*
X71890369Y-116038955D01*
X71881828Y-116039388D01*
X71878396Y-116042089D01*
X71866653Y-116047164D01*
X71843447Y-116052914D01*
X71814706Y-116057949D01*
X71758790Y-116066033D01*
X71651306Y-116066033D01*
X71640662Y-116052327D01*
X71634161Y-116039201D01*
X71633307Y-116027456D01*
X71635430Y-116016543D01*
X71639921Y-116001559D01*
X71647062Y-115993820D01*
X71661633Y-115990837D01*
X71686139Y-115990152D01*
X71711826Y-115989064D01*
X71729958Y-115986842D01*
X71735080Y-115985060D01*
X71745528Y-115981175D01*
X71766054Y-115977038D01*
X71773688Y-115975913D01*
X71797313Y-115971008D01*
X71813997Y-115964470D01*
X71816429Y-115962635D01*
X71829135Y-115957170D01*
X71852453Y-115952449D01*
X71870838Y-115950393D01*
X71899215Y-115949462D01*
X71918005Y-115953531D01*
X71934023Y-115964644D01*
X71941114Y-115971451D01*
X71959574Y-115995719D01*
X71971634Y-116022145D01*
X71972312Y-116024777D01*
X71977165Y-116066890D01*
X71975433Y-116118063D01*
X71967963Y-116168929D01*
X71953685Y-116207820D01*
X71935792Y-116231335D01*
X71929862Y-116239129D01*
G37*
G36*
X70700746Y-117703354D02*
G01*
X70712533Y-117713161D01*
X70728818Y-117733921D01*
X70751348Y-117767196D01*
X70757176Y-117776136D01*
X70793454Y-117824166D01*
X70835474Y-117867003D01*
X70879324Y-117901123D01*
X70919354Y-117922343D01*
X70964175Y-117935836D01*
X71008789Y-117940892D01*
X71055103Y-117936957D01*
X71105024Y-117923479D01*
X71160459Y-117899905D01*
X71223316Y-117865680D01*
X71295502Y-117820254D01*
X71314020Y-117807897D01*
X71352306Y-117782341D01*
X71379396Y-117765110D01*
X71397790Y-117755030D01*
X71409984Y-117750924D01*
X71418477Y-117751617D01*
X71425262Y-117755550D01*
X71433452Y-117762688D01*
X71434157Y-117769427D01*
X71425556Y-117779178D01*
X71405832Y-117795349D01*
X71402713Y-117797818D01*
X71368315Y-117823283D01*
X71325726Y-117852208D01*
X71279087Y-117882028D01*
X71232540Y-117910185D01*
X71190229Y-117934115D01*
X71156296Y-117951256D01*
X71150514Y-117953799D01*
X71077714Y-117977099D01*
X71007350Y-117984599D01*
X70940395Y-117976278D01*
X70890652Y-117958556D01*
X70854829Y-117936727D01*
X70814630Y-117904104D01*
X70773895Y-117864396D01*
X70736461Y-117821311D01*
X70708995Y-117783069D01*
X70690928Y-117753660D01*
X70681301Y-117734340D01*
X70678898Y-117721616D01*
X70682502Y-117711991D01*
X70683680Y-117710338D01*
X70691710Y-117702934D01*
X70700746Y-117703354D01*
G37*
G36*
X69982796Y-116476177D02*
G01*
X69988517Y-116493054D01*
X69982076Y-116518145D01*
X69973068Y-116538600D01*
X69966264Y-116551491D01*
X69965245Y-116552813D01*
X69959011Y-116564974D01*
X69950365Y-116589501D01*
X69940387Y-116622461D01*
X69930156Y-116659922D01*
X69920750Y-116697953D01*
X69913249Y-116732620D01*
X69909012Y-116757730D01*
X69904220Y-116816307D01*
X69907025Y-116868978D01*
X69918193Y-116923106D01*
X69930293Y-116962544D01*
X69943072Y-116997797D01*
X69955662Y-117023397D01*
X69971995Y-117045840D01*
X69996011Y-117071620D01*
X69996995Y-117072619D01*
X70026318Y-117100269D01*
X70051291Y-117118253D01*
X70077369Y-117130378D01*
X70082094Y-117132059D01*
X70115260Y-117145420D01*
X70132793Y-117157656D01*
X70135611Y-117169626D01*
X70130325Y-117177335D01*
X70113740Y-117184912D01*
X70088963Y-117181573D01*
X70054688Y-117166975D01*
X70023777Y-117149532D01*
X69992067Y-117128700D01*
X69968402Y-117107887D01*
X69945619Y-117080537D01*
X69939603Y-117072428D01*
X69899341Y-117003525D01*
X69873308Y-116926997D01*
X69861622Y-116844088D01*
X69864405Y-116756044D01*
X69881777Y-116664114D01*
X69895821Y-116617521D01*
X69916915Y-116558638D01*
X69935203Y-116515391D01*
X69951124Y-116487064D01*
X69965116Y-116472946D01*
X69977619Y-116472325D01*
X69982796Y-116476177D01*
G37*
G36*
X69074117Y-117274248D02*
G01*
X69022240Y-117326622D01*
X68972347Y-117376289D01*
X68925814Y-117421857D01*
X68884021Y-117461934D01*
X68848344Y-117495125D01*
X68820161Y-117520039D01*
X68800848Y-117535282D01*
X68792654Y-117539584D01*
X68776578Y-117546048D01*
X68771096Y-117552554D01*
X68759545Y-117566365D01*
X68735844Y-117586117D01*
X68702676Y-117610149D01*
X68662722Y-117636800D01*
X68618663Y-117664409D01*
X68573184Y-117691313D01*
X68528965Y-117715854D01*
X68488687Y-117736369D01*
X68455035Y-117751198D01*
X68443833Y-117755230D01*
X68409149Y-117763969D01*
X68373936Y-117768651D01*
X68343956Y-117768785D01*
X68327246Y-117765125D01*
X68320380Y-117764070D01*
X68314872Y-117769848D01*
X68309780Y-117785036D01*
X68304165Y-117812209D01*
X68298953Y-117842544D01*
X68289683Y-117890730D01*
X68280233Y-117923075D01*
X68270188Y-117940399D01*
X68259129Y-117943526D01*
X68250617Y-117937765D01*
X68247176Y-117924494D01*
X68247764Y-117897306D01*
X68251957Y-117858342D01*
X68259333Y-117809744D01*
X68269466Y-117753657D01*
X68281931Y-117692221D01*
X68288658Y-117661977D01*
X68327425Y-117661977D01*
X68330022Y-117690653D01*
X68336463Y-117711109D01*
X68336548Y-117711252D01*
X68346262Y-117722562D01*
X68360412Y-117726092D01*
X68384629Y-117723183D01*
X68385701Y-117722987D01*
X68444003Y-117706348D01*
X68511801Y-117676280D01*
X68588879Y-117632899D01*
X68675023Y-117576322D01*
X68725263Y-117540302D01*
X68758869Y-117513714D01*
X68801735Y-117476923D01*
X68851782Y-117431941D01*
X68906928Y-117380777D01*
X68965093Y-117325443D01*
X69024197Y-117267949D01*
X69082159Y-117210303D01*
X69136898Y-117154520D01*
X69186333Y-117102605D01*
X69228385Y-117056572D01*
X69242180Y-117040827D01*
X69381922Y-116872889D01*
X69522803Y-116691889D01*
X69662482Y-116501066D01*
X69798621Y-116303659D01*
X69928877Y-116102906D01*
X69983008Y-116015521D01*
X70060270Y-115888948D01*
X70028388Y-115891843D01*
X70007217Y-115894674D01*
X69974551Y-115900098D01*
X69935206Y-115907281D01*
X69901881Y-115913788D01*
X69770699Y-115947081D01*
X69635957Y-115994343D01*
X69500607Y-116054201D01*
X69367600Y-116125282D01*
X69239889Y-116206213D01*
X69179028Y-116249880D01*
X69044416Y-116360856D01*
X68918769Y-116485419D01*
X68802592Y-116622795D01*
X68696390Y-116772214D01*
X68600668Y-116932900D01*
X68515929Y-117104082D01*
X68442680Y-117284986D01*
X68383414Y-117467868D01*
X68371076Y-117508857D01*
X68359221Y-117544582D01*
X68349044Y-117571678D01*
X68341744Y-117586780D01*
X68340649Y-117588153D01*
X68332944Y-117604574D01*
X68328468Y-117631233D01*
X68327425Y-117661977D01*
X68288658Y-117661977D01*
X68296308Y-117627580D01*
X68312172Y-117561877D01*
X68329096Y-117497254D01*
X68346659Y-117435853D01*
X68355711Y-117406515D01*
X68364680Y-117377363D01*
X68371161Y-117354582D01*
X68373886Y-117342661D01*
X68373901Y-117342210D01*
X68376671Y-117331703D01*
X68384110Y-117310804D01*
X68392293Y-117289837D01*
X68403388Y-117262393D01*
X68418469Y-117225123D01*
X68435265Y-117183650D01*
X68446626Y-117155609D01*
X68525136Y-116982075D01*
X68615930Y-116817889D01*
X68718304Y-116663744D01*
X68831558Y-116520331D01*
X68954987Y-116388342D01*
X69087889Y-116268467D01*
X69229562Y-116161400D01*
X69379303Y-116067831D01*
X69536410Y-115988452D01*
X69696869Y-115925085D01*
X69766856Y-115902612D01*
X69835511Y-115883374D01*
X69900785Y-115867723D01*
X69960623Y-115856009D01*
X70012976Y-115848582D01*
X70055793Y-115845794D01*
X70087022Y-115847995D01*
X70104500Y-115855419D01*
X70109870Y-115871114D01*
X70106374Y-115889702D01*
X70099049Y-115904338D01*
X70084525Y-115930232D01*
X70064466Y-115964527D01*
X70040537Y-116004367D01*
X70020683Y-116036767D01*
X69889686Y-116243382D01*
X69759425Y-116437848D01*
X69626994Y-116624282D01*
X69489489Y-116806799D01*
X69377079Y-116948798D01*
X69349890Y-116981131D01*
X69315040Y-117020505D01*
X69273909Y-117065527D01*
X69227873Y-117114805D01*
X69178312Y-117166946D01*
X69126600Y-117220557D01*
X69109701Y-117237845D01*
X69074117Y-117274248D01*
G37*
G36*
X70211094Y-115480272D02*
G01*
X70202459Y-115518354D01*
X70193829Y-115545941D01*
X70191785Y-115552911D01*
X70183170Y-115582292D01*
X70176816Y-115613136D01*
X70175590Y-115634142D01*
X70176348Y-115637880D01*
X70175903Y-115660390D01*
X70161947Y-115682611D01*
X70153985Y-115688667D01*
X70137370Y-115701305D01*
X70110141Y-115712040D01*
X70088165Y-115716565D01*
X70073876Y-115717387D01*
X70071760Y-115716613D01*
X70061656Y-115715764D01*
X70038013Y-115717716D01*
X70003637Y-115722028D01*
X69961338Y-115728259D01*
X69913923Y-115735967D01*
X69864202Y-115744711D01*
X69814981Y-115754048D01*
X69769068Y-115763539D01*
X69758536Y-115765860D01*
X69695904Y-115781561D01*
X69622602Y-115802697D01*
X69542811Y-115827834D01*
X69460708Y-115855545D01*
X69380475Y-115884399D01*
X69306289Y-115912963D01*
X69242331Y-115939810D01*
X69218653Y-115950640D01*
X69080260Y-116021873D01*
X68939738Y-116105179D01*
X68801903Y-116197480D01*
X68671573Y-116295700D01*
X68646149Y-116316344D01*
X68601257Y-116355253D01*
X68548697Y-116404025D01*
X68491405Y-116459670D01*
X68432325Y-116519199D01*
X68374394Y-116579621D01*
X68320553Y-116637948D01*
X68273742Y-116691189D01*
X68252430Y-116716763D01*
X68153345Y-116845429D01*
X68059935Y-116980153D01*
X67973672Y-117118339D01*
X67896029Y-117257389D01*
X67828476Y-117394708D01*
X67772487Y-117527698D01*
X67739372Y-117621778D01*
X67712452Y-117706011D01*
X67621670Y-117615229D01*
X67649301Y-117539742D01*
X67721015Y-117364533D01*
X67808446Y-117187378D01*
X67910932Y-117009442D01*
X68027816Y-116831891D01*
X68122716Y-116702062D01*
X68151378Y-116666757D01*
X68189812Y-116622806D01*
X68235948Y-116572304D01*
X68287723Y-116517340D01*
X68343070Y-116460008D01*
X68399922Y-116402398D01*
X68456213Y-116346603D01*
X68509877Y-116294714D01*
X68558848Y-116248823D01*
X68601059Y-116211023D01*
X68634443Y-116183405D01*
X68636874Y-116181543D01*
X68813612Y-116055738D01*
X68991717Y-115945985D01*
X69172535Y-115851666D01*
X69357410Y-115772165D01*
X69547684Y-115706867D01*
X69744704Y-115655156D01*
X69820102Y-115639240D01*
X69905817Y-115622288D01*
X69889901Y-115594012D01*
X69875185Y-115552037D01*
X69875470Y-115538498D01*
X69910517Y-115538498D01*
X69914232Y-115538320D01*
X69924762Y-115525959D01*
X69930132Y-115519006D01*
X69944930Y-115501615D01*
X69954541Y-115496398D01*
X69961066Y-115499853D01*
X69963959Y-115512778D01*
X69958895Y-115524199D01*
X69953416Y-115538822D01*
X69960923Y-115555378D01*
X69964638Y-115560120D01*
X69978527Y-115573616D01*
X69991059Y-115574398D01*
X70000632Y-115569598D01*
X70025487Y-115548518D01*
X70033883Y-115524877D01*
X70025820Y-115498639D01*
X70007838Y-115476076D01*
X70000552Y-115461470D01*
X70004249Y-115453148D01*
X70011773Y-115449500D01*
X70021558Y-115454952D01*
X70036929Y-115471600D01*
X70040654Y-115476079D01*
X70059639Y-115504849D01*
X70063746Y-115529744D01*
X70052781Y-115554526D01*
X70035534Y-115574320D01*
X70009383Y-115596004D01*
X69986962Y-115602803D01*
X69964797Y-115594858D01*
X69944977Y-115578045D01*
X69928192Y-115562314D01*
X69919818Y-115558036D01*
X69917329Y-115564092D01*
X69917307Y-115565766D01*
X69923736Y-115592615D01*
X69942577Y-115608412D01*
X69973725Y-115613112D01*
X70014978Y-115607177D01*
X70038189Y-115599759D01*
X70053047Y-115587730D01*
X70064847Y-115569711D01*
X70077698Y-115533768D01*
X70077577Y-115496982D01*
X70064895Y-115464455D01*
X70055491Y-115452856D01*
X70035492Y-115438500D01*
X70009624Y-115432613D01*
X69994660Y-115432096D01*
X69964363Y-115434911D01*
X69942832Y-115445016D01*
X69933378Y-115453309D01*
X69919700Y-115470603D01*
X69919883Y-115482069D01*
X69921004Y-115483361D01*
X69924692Y-115495322D01*
X69922130Y-115499912D01*
X69914868Y-115513729D01*
X69911409Y-115527494D01*
X69910517Y-115538498D01*
X69875470Y-115538498D01*
X69876099Y-115508616D01*
X69892156Y-115466559D01*
X69917558Y-115433774D01*
X69934806Y-115415421D01*
X69941510Y-115403196D01*
X69939451Y-115392000D01*
X69938521Y-115390344D01*
X70000317Y-115390344D01*
X70010474Y-115400391D01*
X70025598Y-115406290D01*
X70049669Y-115418079D01*
X70074217Y-115436086D01*
X70078558Y-115440126D01*
X70104114Y-115465241D01*
X70101424Y-115420791D01*
X70097874Y-115384305D01*
X70092164Y-115345653D01*
X70089820Y-115333312D01*
X70084068Y-115308317D01*
X70078631Y-115295932D01*
X70070999Y-115292340D01*
X70063260Y-115292975D01*
X70053257Y-115296147D01*
X70052890Y-115303766D01*
X70062477Y-115319725D01*
X70065874Y-115324625D01*
X70080507Y-115354088D01*
X70081911Y-115379933D01*
X70073083Y-115396099D01*
X70062421Y-115398638D01*
X70053467Y-115390062D01*
X70051267Y-115375589D01*
X70051634Y-115373940D01*
X70050593Y-115356975D01*
X70045315Y-115342765D01*
X70038474Y-115331859D01*
X70032038Y-115331981D01*
X70021894Y-115344372D01*
X70017083Y-115351290D01*
X70005653Y-115370235D01*
X70002698Y-115375133D01*
X70000317Y-115390344D01*
X69938521Y-115390344D01*
X69934944Y-115383978D01*
X69926899Y-115361370D01*
X69924956Y-115335464D01*
X69925360Y-115321197D01*
X69953853Y-115321197D01*
X69955051Y-115327011D01*
X69963546Y-115348837D01*
X69974554Y-115357100D01*
X69985886Y-115350467D01*
X69988063Y-115347127D01*
X70001511Y-115328207D01*
X70014873Y-115313049D01*
X70025066Y-115302191D01*
X70026234Y-115297193D01*
X70016070Y-115297207D01*
X69992271Y-115301387D01*
X69986250Y-115302539D01*
X69964352Y-115307324D01*
X69954887Y-115312496D01*
X69953853Y-115321197D01*
X69925360Y-115321197D01*
X69925467Y-115317400D01*
X69921970Y-115313271D01*
X69916796Y-115317108D01*
X69904425Y-115322037D01*
X69896058Y-115315757D01*
X69896210Y-115303716D01*
X69900587Y-115297538D01*
X69917740Y-115286751D01*
X69935442Y-115280784D01*
X69951449Y-115276310D01*
X69954987Y-115270018D01*
X69952728Y-115263498D01*
X69952743Y-115262233D01*
X70041530Y-115262233D01*
X70043858Y-115267930D01*
X70055033Y-115267242D01*
X70068059Y-115262790D01*
X70069425Y-115251540D01*
X70067655Y-115244469D01*
X70063034Y-115228842D01*
X70061050Y-115223131D01*
X70057242Y-115228721D01*
X70049265Y-115244179D01*
X70048428Y-115245904D01*
X70041530Y-115262233D01*
X69952743Y-115262233D01*
X69952922Y-115247351D01*
X69956812Y-115241312D01*
X69966485Y-115237549D01*
X69976558Y-115248497D01*
X69977006Y-115249237D01*
X69988027Y-115261047D01*
X70001783Y-115258430D01*
X70004024Y-115257173D01*
X70018477Y-115241507D01*
X70025291Y-115224569D01*
X70032021Y-115206242D01*
X70039947Y-115197220D01*
X70044035Y-115187650D01*
X70042772Y-115169467D01*
X70037713Y-115148731D01*
X70030412Y-115131504D01*
X70022424Y-115123845D01*
X70021148Y-115123922D01*
X70017142Y-115130262D01*
X70019916Y-115134438D01*
X70026607Y-115151041D01*
X70025345Y-115173322D01*
X70016868Y-115192744D01*
X70014658Y-115195252D01*
X69994869Y-115206956D01*
X69971161Y-115210895D01*
X69951148Y-115206182D01*
X69947186Y-115203130D01*
X69940226Y-115190443D01*
X69948868Y-115182542D01*
X69971878Y-115179895D01*
X69990040Y-115177599D01*
X69997019Y-115168660D01*
X69997686Y-115164308D01*
X69993176Y-115150756D01*
X69979201Y-115147185D01*
X69960194Y-115154373D01*
X69956345Y-115157045D01*
X69939687Y-115162446D01*
X69929470Y-115159642D01*
X69924462Y-115148920D01*
X69933193Y-115135241D01*
X69953499Y-115120644D01*
X69983221Y-115107165D01*
X69986318Y-115106065D01*
X70022944Y-115093332D01*
X70022944Y-115089370D01*
X70192833Y-115089370D01*
X70199403Y-115101388D01*
X70217625Y-115124975D01*
X70218903Y-115126535D01*
X70238784Y-115152344D01*
X70254658Y-115175890D01*
X70262863Y-115191570D01*
X70271559Y-115208251D01*
X70279363Y-115209028D01*
X70284345Y-115194633D01*
X70285158Y-115183135D01*
X70285042Y-115181369D01*
X70419916Y-115181369D01*
X70423696Y-115195568D01*
X70426624Y-115199237D01*
X70437819Y-115208468D01*
X70459896Y-115225232D01*
X70490098Y-115247485D01*
X70525667Y-115273183D01*
X70543049Y-115285580D01*
X70580523Y-115312202D01*
X70614333Y-115336223D01*
X70641599Y-115355600D01*
X70659444Y-115368285D01*
X70663614Y-115371253D01*
X70681312Y-115383037D01*
X70709988Y-115401213D01*
X70746267Y-115423699D01*
X70786777Y-115448412D01*
X70828140Y-115473270D01*
X70848392Y-115485283D01*
X70878385Y-115501628D01*
X70899923Y-115509337D01*
X70917830Y-115509835D01*
X70925674Y-115508175D01*
X70947679Y-115502231D01*
X70978569Y-115493818D01*
X71007403Y-115485927D01*
X71046394Y-115477282D01*
X71091006Y-115470369D01*
X71123512Y-115467266D01*
X71192714Y-115470591D01*
X71254970Y-115488021D01*
X71308832Y-115518294D01*
X71352849Y-115560146D01*
X71385571Y-115612314D01*
X71405546Y-115673535D01*
X71411015Y-115717713D01*
X71413313Y-115763005D01*
X71466602Y-115780542D01*
X71498999Y-115789854D01*
X71540918Y-115800039D01*
X71585403Y-115809460D01*
X71605343Y-115813180D01*
X71644105Y-115820320D01*
X71679266Y-115827314D01*
X71705929Y-115833162D01*
X71716062Y-115835780D01*
X71723027Y-115837268D01*
X71725713Y-115835707D01*
X71723034Y-115829843D01*
X71713900Y-115818419D01*
X71697226Y-115800180D01*
X71671922Y-115773871D01*
X71636903Y-115738237D01*
X71594508Y-115695474D01*
X71420464Y-115512843D01*
X71249645Y-115319090D01*
X71086780Y-115119687D01*
X71004576Y-115012614D01*
X70973432Y-114971153D01*
X70945434Y-114933966D01*
X70922221Y-114903222D01*
X70905427Y-114881086D01*
X70896692Y-114869728D01*
X70896096Y-114868989D01*
X70891234Y-114867202D01*
X70882685Y-114871584D01*
X70877538Y-114876031D01*
X70868672Y-114883692D01*
X70847417Y-114905078D01*
X70817141Y-114937301D01*
X70813601Y-114941122D01*
X70780114Y-114978043D01*
X70755704Y-115007186D01*
X70737544Y-115032435D01*
X70722807Y-115057676D01*
X70710575Y-115082635D01*
X70688159Y-115128265D01*
X70669118Y-115159984D01*
X70651815Y-115179777D01*
X70634606Y-115189625D01*
X70620401Y-115191679D01*
X70591471Y-115184480D01*
X70571670Y-115163578D01*
X70566150Y-115150139D01*
X70565699Y-115135216D01*
X70568531Y-115108225D01*
X70574106Y-115073318D01*
X70580024Y-115043216D01*
X70588897Y-115000950D01*
X70597403Y-114959495D01*
X70604347Y-114924721D01*
X70607407Y-114908757D01*
X70614004Y-114874864D01*
X70617345Y-114858619D01*
X70734306Y-114858619D01*
X70761353Y-114833737D01*
X70924003Y-114833737D01*
X70928725Y-114840923D01*
X70942107Y-114859435D01*
X70962713Y-114887337D01*
X70989107Y-114922691D01*
X71019859Y-114963561D01*
X71034925Y-114983485D01*
X71085655Y-115049592D01*
X71137815Y-115115685D01*
X71193319Y-115184087D01*
X71254083Y-115257121D01*
X71322022Y-115337112D01*
X71399053Y-115426382D01*
X71417787Y-115447931D01*
X71444919Y-115478291D01*
X71478522Y-115514629D01*
X71516828Y-115555154D01*
X71558065Y-115598071D01*
X71600466Y-115641594D01*
X71642261Y-115683929D01*
X71681680Y-115723286D01*
X71716954Y-115757873D01*
X71746313Y-115785902D01*
X71767988Y-115805578D01*
X71780209Y-115815114D01*
X71780919Y-115815474D01*
X71785213Y-115813234D01*
X71781925Y-115799069D01*
X71770840Y-115772518D01*
X71751750Y-115733125D01*
X71724444Y-115680429D01*
X71688710Y-115613973D01*
X71686309Y-115609566D01*
X71661708Y-115563479D01*
X71636273Y-115514194D01*
X71613010Y-115467629D01*
X71594985Y-115429832D01*
X71580600Y-115395975D01*
X71562290Y-115349093D01*
X71541059Y-115292082D01*
X71517914Y-115227839D01*
X71493856Y-115159260D01*
X71469894Y-115089239D01*
X71447029Y-115020674D01*
X71426267Y-114956460D01*
X71408613Y-114899494D01*
X71396200Y-114856772D01*
X71385748Y-114819910D01*
X71376620Y-114789318D01*
X71369853Y-114768366D01*
X71366610Y-114760507D01*
X71358134Y-114762573D01*
X71340287Y-114772058D01*
X71321957Y-114783617D01*
X71289930Y-114804374D01*
X71248231Y-114830458D01*
X71201650Y-114858923D01*
X71154981Y-114886821D01*
X71137717Y-114896952D01*
X71109281Y-114908281D01*
X71077334Y-114913279D01*
X71047777Y-114911711D01*
X71026511Y-114903344D01*
X71024370Y-114901456D01*
X71012938Y-114885730D01*
X71009263Y-114866797D01*
X71013582Y-114841325D01*
X71026132Y-114805987D01*
X71032191Y-114791426D01*
X71043930Y-114763185D01*
X71052055Y-114742297D01*
X71055261Y-114732174D01*
X71055029Y-114731769D01*
X71043002Y-114740382D01*
X71023037Y-114755414D01*
X70998564Y-114774196D01*
X70973017Y-114794055D01*
X70949826Y-114812324D01*
X70932420Y-114826331D01*
X70924233Y-114833405D01*
X70924003Y-114833737D01*
X70761353Y-114833737D01*
X70777945Y-114818473D01*
X70799441Y-114797934D01*
X70815024Y-114781590D01*
X70821546Y-114772758D01*
X70821582Y-114772487D01*
X70817273Y-114761389D01*
X70806774Y-114742815D01*
X70793726Y-114722752D01*
X70781979Y-114707412D01*
X70773931Y-114701484D01*
X70768229Y-114708816D01*
X70765589Y-114716333D01*
X70760743Y-114734335D01*
X70754117Y-114762739D01*
X70747099Y-114795585D01*
X70746710Y-114797497D01*
X70734306Y-114858619D01*
X70617345Y-114858619D01*
X70622118Y-114835408D01*
X70627383Y-114810882D01*
X70639057Y-114757739D01*
X70601605Y-114802782D01*
X70538461Y-114885779D01*
X70489411Y-114966685D01*
X70452741Y-115048690D01*
X70429840Y-115122369D01*
X70421920Y-115158035D01*
X70419916Y-115181369D01*
X70285042Y-115181369D01*
X70283999Y-115165448D01*
X70277530Y-115151582D01*
X70262482Y-115136221D01*
X70249801Y-115125564D01*
X70226664Y-115107632D01*
X70206372Y-115093607D01*
X70197798Y-115088715D01*
X70192833Y-115089370D01*
X70022944Y-115089370D01*
X70022944Y-115050269D01*
X70024207Y-115023227D01*
X70029648Y-115006492D01*
X70041743Y-114993798D01*
X70046733Y-114990060D01*
X70070523Y-114972913D01*
X69998534Y-114900924D01*
X69912436Y-114807223D01*
X69829109Y-114701805D01*
X69752392Y-114589583D01*
X69740597Y-114570692D01*
X69714258Y-114526427D01*
X69697404Y-114494052D01*
X69689596Y-114472071D01*
X69690392Y-114458985D01*
X69699351Y-114453297D01*
X69705879Y-114452753D01*
X69714907Y-114458215D01*
X69729356Y-114475290D01*
X69750000Y-114505014D01*
X69777613Y-114548424D01*
X69778415Y-114549719D01*
X69874010Y-114690583D01*
X69978291Y-114818076D01*
X70041898Y-114885169D01*
X70081867Y-114924024D01*
X70126489Y-114965564D01*
X70172563Y-115006968D01*
X70216889Y-115045417D01*
X70256265Y-115078088D01*
X70287491Y-115102160D01*
X70290854Y-115104561D01*
X70313261Y-115120345D01*
X70334322Y-115056477D01*
X70370376Y-114962512D01*
X70414707Y-114876429D01*
X70469784Y-114794095D01*
X70538079Y-114711380D01*
X70545469Y-114703214D01*
X70583149Y-114663220D01*
X70613173Y-114635065D01*
X70637932Y-114617290D01*
X70659811Y-114608432D01*
X70681199Y-114607030D01*
X70697948Y-114609893D01*
X70726084Y-114616749D01*
X70709198Y-114587798D01*
X70698845Y-114570266D01*
X70681957Y-114541903D01*
X70660592Y-114506161D01*
X70636810Y-114466488D01*
X70628170Y-114452103D01*
X70526441Y-114271741D01*
X70430682Y-114079944D01*
X70343092Y-113881513D01*
X70265872Y-113681249D01*
X70238368Y-113601667D01*
X70212235Y-113521719D01*
X70186291Y-113439265D01*
X70161404Y-113357281D01*
X70138442Y-113278747D01*
X70118274Y-113206639D01*
X70101768Y-113143933D01*
X70089791Y-113093609D01*
X70088654Y-113088325D01*
X70068029Y-112991097D01*
X70097294Y-113020075D01*
X70112434Y-113036928D01*
X70123300Y-113055068D01*
X70132001Y-113079269D01*
X70140639Y-113114307D01*
X70142386Y-113122298D01*
X70154617Y-113173260D01*
X70171810Y-113236822D01*
X70193016Y-113309999D01*
X70217291Y-113389807D01*
X70243686Y-113473261D01*
X70271255Y-113557377D01*
X70299052Y-113639169D01*
X70326128Y-113715654D01*
X70351539Y-113783846D01*
X70355408Y-113793842D01*
X70392763Y-113885643D01*
X70436093Y-113985222D01*
X70482517Y-114086240D01*
X70529156Y-114182355D01*
X70554184Y-114231462D01*
X70569155Y-114259245D01*
X70589763Y-114296056D01*
X70614850Y-114339949D01*
X70643254Y-114388975D01*
X70673815Y-114441186D01*
X70705373Y-114494633D01*
X70736769Y-114547370D01*
X70766841Y-114597446D01*
X70794431Y-114642914D01*
X70818378Y-114681825D01*
X70837520Y-114712231D01*
X70850700Y-114732184D01*
X70856756Y-114739735D01*
X70856839Y-114739751D01*
X70864481Y-114735146D01*
X70882807Y-114722453D01*
X70909151Y-114703561D01*
X70940847Y-114680360D01*
X70944038Y-114678002D01*
X70996978Y-114640145D01*
X71039530Y-114612874D01*
X71073432Y-114595348D01*
X71100423Y-114586722D01*
X71122243Y-114586152D01*
X71129720Y-114587928D01*
X71164100Y-114605307D01*
X71184108Y-114631045D01*
X71189791Y-114665248D01*
X71182162Y-114705068D01*
X71177566Y-114724669D01*
X71177812Y-114736524D01*
X71178241Y-114737129D01*
X71186840Y-114735015D01*
X71206204Y-114725500D01*
X71233123Y-114710261D01*
X71253733Y-114697716D01*
X71284530Y-114678642D01*
X71310348Y-114662956D01*
X71327721Y-114652750D01*
X71332776Y-114650070D01*
X71335148Y-114640912D01*
X71332838Y-114620672D01*
X71327782Y-114599166D01*
X71321354Y-114573827D01*
X71312795Y-114536609D01*
X71302756Y-114490703D01*
X71291886Y-114439299D01*
X71280834Y-114385587D01*
X71270250Y-114332759D01*
X71260783Y-114284007D01*
X71253083Y-114242518D01*
X71247800Y-114211486D01*
X71245722Y-114196040D01*
X71242979Y-114165470D01*
X71267142Y-114189633D01*
X71276470Y-114200594D01*
X71284452Y-114214672D01*
X71291914Y-114234499D01*
X71299681Y-114262702D01*
X71308578Y-114301911D01*
X71319433Y-114354755D01*
X71320176Y-114358474D01*
X71334328Y-114427589D01*
X71347630Y-114489086D01*
X71359670Y-114541254D01*
X71370032Y-114582378D01*
X71378303Y-114610748D01*
X71384072Y-114624651D01*
X71384612Y-114625302D01*
X71394349Y-114625289D01*
X71414394Y-114620322D01*
X71430335Y-114615046D01*
X71493097Y-114600026D01*
X71552681Y-114600851D01*
X71607851Y-114617246D01*
X71657371Y-114648934D01*
X71680028Y-114670867D01*
X71715480Y-114709848D01*
X71678404Y-114739954D01*
X71658583Y-114756608D01*
X71650799Y-114765141D01*
X71653749Y-114767424D01*
X71659788Y-114766634D01*
X71678573Y-114763497D01*
X71706112Y-114759278D01*
X71722929Y-114756826D01*
X71748328Y-114752718D01*
X71765992Y-114748960D01*
X71770913Y-114747145D01*
X71780751Y-114744744D01*
X71797782Y-114743845D01*
X71815737Y-114747154D01*
X71834710Y-114758906D01*
X71855763Y-114778255D01*
X71875020Y-114798554D01*
X71884061Y-114812360D01*
X71885071Y-114824314D01*
X71882105Y-114834234D01*
X71878746Y-114858484D01*
X71881879Y-114876767D01*
X71890546Y-114891967D01*
X71905533Y-114899095D01*
X71918202Y-114901131D01*
X71949679Y-114911046D01*
X71968895Y-114931014D01*
X71974559Y-114955977D01*
X71968348Y-114983205D01*
X71949308Y-115000877D01*
X71916834Y-115009416D01*
X71896386Y-115010397D01*
X71849061Y-115010396D01*
X71810350Y-114965719D01*
X71783526Y-114930473D01*
X71769190Y-114898830D01*
X71765711Y-114865548D01*
X71769528Y-114834820D01*
X71775545Y-114803134D01*
X71713176Y-114820799D01*
X71668106Y-114830963D01*
X71623139Y-114836573D01*
X71582037Y-114837582D01*
X71548565Y-114833944D01*
X71526482Y-114825610D01*
X71523544Y-114823160D01*
X71510055Y-114799601D01*
X71510194Y-114773664D01*
X71522537Y-114750114D01*
X71545654Y-114733717D01*
X71550890Y-114731880D01*
X71563159Y-114725594D01*
X71559830Y-114719603D01*
X71541965Y-114714657D01*
X71523231Y-114712371D01*
X71497002Y-114713076D01*
X71466573Y-114718003D01*
X71438322Y-114725685D01*
X71418631Y-114734657D01*
X71415611Y-114737107D01*
X71415671Y-114747105D01*
X71420341Y-114770665D01*
X71428958Y-114805539D01*
X71440857Y-114849483D01*
X71455376Y-114900247D01*
X71471852Y-114955584D01*
X71489620Y-115013247D01*
X71508018Y-115070988D01*
X71526382Y-115126561D01*
X71544048Y-115177716D01*
X71552979Y-115202477D01*
X71584594Y-115286726D01*
X71613087Y-115358367D01*
X71639952Y-115420808D01*
X71666679Y-115477454D01*
X71694762Y-115531713D01*
X71706816Y-115553704D01*
X71727275Y-115591260D01*
X71751760Y-115637370D01*
X71776907Y-115685646D01*
X71795467Y-115721985D01*
X71815594Y-115761467D01*
X71830033Y-115788292D01*
X71840420Y-115804771D01*
X71848393Y-115813219D01*
X71855590Y-115815944D01*
X71861748Y-115815582D01*
X71881520Y-115817849D01*
X71890326Y-115830128D01*
X71887110Y-115849028D01*
X71876986Y-115864571D01*
X71864845Y-115877227D01*
X71854766Y-115882787D01*
X71852139Y-115884235D01*
X71834019Y-115886830D01*
X71805632Y-115886247D01*
X71794221Y-115885626D01*
X71773592Y-115883586D01*
X71725473Y-115878827D01*
X71650746Y-115865573D01*
X71622908Y-115859440D01*
X71605438Y-115856358D01*
X71579660Y-115852774D01*
X71569134Y-115851503D01*
X71541480Y-115846687D01*
X71505720Y-115838283D01*
X71469515Y-115828095D01*
X71468947Y-115827919D01*
X71423377Y-115813773D01*
X71407239Y-115808763D01*
X71392286Y-115869454D01*
X71358956Y-115972249D01*
X71309319Y-116076655D01*
X71243613Y-116182292D01*
X71191549Y-116250293D01*
X71162079Y-116288783D01*
X71064957Y-116395746D01*
X71049428Y-116411438D01*
X70984323Y-116471911D01*
X70941848Y-116511364D01*
X70834940Y-116595377D01*
X70728930Y-116663353D01*
X70624042Y-116715171D01*
X70520499Y-116750706D01*
X70418530Y-116769836D01*
X70390743Y-116772207D01*
X70322013Y-116769085D01*
X70260193Y-116751652D01*
X70206713Y-116721337D01*
X70162999Y-116679566D01*
X70130479Y-116627766D01*
X70110581Y-116567366D01*
X70104732Y-116499794D01*
X70104735Y-116499727D01*
X70182513Y-116499727D01*
X70189393Y-116560604D01*
X70190796Y-116566066D01*
X70211685Y-116615850D01*
X70243816Y-116653652D01*
X70286709Y-116679337D01*
X70339876Y-116692765D01*
X70402837Y-116693797D01*
X70475105Y-116682297D01*
X70536678Y-116664851D01*
X70614202Y-116634078D01*
X70696789Y-116592104D01*
X70780053Y-116541459D01*
X70859614Y-116484670D01*
X70887406Y-116462466D01*
X70935329Y-116422917D01*
X70904438Y-116417722D01*
X70860137Y-116402647D01*
X70825899Y-116375028D01*
X70803264Y-116336642D01*
X70793801Y-116289911D01*
X70797525Y-116229227D01*
X70802810Y-116212194D01*
X70957759Y-116212194D01*
X70964866Y-116252977D01*
X70966795Y-116257902D01*
X70982731Y-116284623D01*
X71003443Y-116297801D01*
X71029852Y-116297312D01*
X71062883Y-116283035D01*
X71103459Y-116254845D01*
X71125276Y-116236859D01*
X71153223Y-116211968D01*
X71171487Y-116192567D01*
X71183706Y-116174126D01*
X71193517Y-116152116D01*
X71193702Y-116151640D01*
X71206112Y-116108380D01*
X71207892Y-116072359D01*
X71199543Y-116045385D01*
X71181567Y-116029264D01*
X71158689Y-116025464D01*
X71140276Y-116031316D01*
X71113037Y-116046002D01*
X71080473Y-116067139D01*
X71046084Y-116092344D01*
X71013371Y-116119235D01*
X70992545Y-116138574D01*
X70967049Y-116173765D01*
X70957759Y-116212194D01*
X70802810Y-116212194D01*
X70815427Y-116171530D01*
X70848099Y-116115856D01*
X70896127Y-116061243D01*
X70960103Y-116006728D01*
X70972611Y-115997397D01*
X71032922Y-115957199D01*
X71087186Y-115930016D01*
X71138134Y-115914693D01*
X71178844Y-115910186D01*
X71205953Y-115911195D01*
X71225182Y-115918457D01*
X71245068Y-115935335D01*
X71246682Y-115936940D01*
X71264504Y-115953218D01*
X71274739Y-115957854D01*
X71279826Y-115953145D01*
X71287201Y-115938625D01*
X71298919Y-115917367D01*
X71302004Y-115911969D01*
X71312157Y-115887433D01*
X71320836Y-115854521D01*
X71325044Y-115828901D01*
X71331126Y-115775288D01*
X71277190Y-115754761D01*
X71249399Y-115743209D01*
X71211423Y-115726090D01*
X71167863Y-115705536D01*
X71123312Y-115683682D01*
X71114502Y-115679249D01*
X71072472Y-115657922D01*
X71032754Y-115637630D01*
X70999180Y-115620340D01*
X70975584Y-115608021D01*
X70971264Y-115605718D01*
X70954274Y-115597106D01*
X70940648Y-115593358D01*
X70925944Y-115595094D01*
X70905722Y-115602936D01*
X70875540Y-115617499D01*
X70871115Y-115619690D01*
X70818869Y-115646358D01*
X70773723Y-115671587D01*
X70732885Y-115697487D01*
X70693561Y-115726172D01*
X70652955Y-115759756D01*
X70608275Y-115800352D01*
X70556726Y-115850072D01*
X70525196Y-115881314D01*
X70476295Y-115930421D01*
X70437645Y-115970147D01*
X70407389Y-116002565D01*
X70383668Y-116029743D01*
X70364625Y-116053756D01*
X70348403Y-116076673D01*
X70344085Y-116083219D01*
X70286517Y-116178710D01*
X70241313Y-116268934D01*
X70208736Y-116353063D01*
X70189049Y-116430270D01*
X70182513Y-116499727D01*
X70104735Y-116499727D01*
X70105296Y-116486760D01*
X70117958Y-116394238D01*
X70144642Y-116300197D01*
X70185768Y-116203651D01*
X70241762Y-116103620D01*
X70313043Y-115999120D01*
X70317089Y-115993662D01*
X70358824Y-115942043D01*
X70410666Y-115884910D01*
X70469314Y-115825380D01*
X70531466Y-115766566D01*
X70593825Y-115711588D01*
X70653089Y-115663555D01*
X70705958Y-115625588D01*
X70709259Y-115623436D01*
X70751071Y-115597045D01*
X70784984Y-115577578D01*
X70805174Y-115567731D01*
X70998509Y-115567731D01*
X71061624Y-115603107D01*
X71099386Y-115623446D01*
X71141451Y-115644741D01*
X71185144Y-115665797D01*
X71227786Y-115685418D01*
X71266703Y-115702406D01*
X71299215Y-115715566D01*
X71322645Y-115723697D01*
X71334319Y-115725606D01*
X71334888Y-115725284D01*
X71334490Y-115716303D01*
X71330393Y-115696026D01*
X71324730Y-115673571D01*
X71305053Y-115624518D01*
X71275265Y-115588178D01*
X71233727Y-115562911D01*
X71204055Y-115552807D01*
X71161143Y-115546151D01*
X71110368Y-115545770D01*
X71059187Y-115551368D01*
X71022638Y-115560052D01*
X70998509Y-115567731D01*
X70805174Y-115567731D01*
X70816586Y-115562165D01*
X70851464Y-115547937D01*
X70868879Y-115541460D01*
X70869630Y-115538265D01*
X70862436Y-115536741D01*
X70849136Y-115531787D01*
X70825437Y-115519754D01*
X70794863Y-115502729D01*
X70760937Y-115482794D01*
X70727184Y-115462032D01*
X70697127Y-115442526D01*
X70674291Y-115426363D01*
X70669828Y-115422848D01*
X70651587Y-115409461D01*
X70637738Y-115401817D01*
X70636609Y-115401480D01*
X70626765Y-115396025D01*
X70605974Y-115382466D01*
X70576760Y-115362516D01*
X70541647Y-115337888D01*
X70517920Y-115320947D01*
X70480879Y-115294525D01*
X70448651Y-115271918D01*
X70423618Y-115254765D01*
X70408159Y-115244705D01*
X70404383Y-115242748D01*
X70401764Y-115250368D01*
X70399398Y-115270376D01*
X70397785Y-115298497D01*
X70397753Y-115299457D01*
X70395035Y-115324700D01*
X70393305Y-115340778D01*
X70382544Y-115367905D01*
X70364438Y-115382453D01*
X70342321Y-115386133D01*
X70330568Y-115384824D01*
X70318393Y-115379538D01*
X70303019Y-115368239D01*
X70281666Y-115348895D01*
X70252199Y-115320103D01*
X70185647Y-115254073D01*
X70195620Y-115290042D01*
X70200993Y-115315421D01*
X70206392Y-115350831D01*
X70210847Y-115389667D01*
X70211754Y-115399797D01*
X70212090Y-115406822D01*
X70213850Y-115443547D01*
X70211094Y-115480272D01*
G37*
G36*
X72371539Y-115831572D02*
G01*
X72387565Y-115870862D01*
X72396102Y-115902176D01*
X72398327Y-115928758D01*
X72394302Y-115958262D01*
X72388461Y-115982267D01*
X72374033Y-116028999D01*
X72357479Y-116069969D01*
X72340249Y-116102340D01*
X72323794Y-116123272D01*
X72313132Y-116129693D01*
X72293545Y-116126929D01*
X72274101Y-116114080D01*
X72261708Y-116096294D01*
X72260352Y-116090335D01*
X72263708Y-116073128D01*
X72273666Y-116052711D01*
X72288575Y-116023769D01*
X72301893Y-115988013D01*
X72311440Y-115952348D01*
X72315036Y-115923673D01*
X72315001Y-115921874D01*
X72310611Y-115899273D01*
X72300609Y-115871643D01*
X72295800Y-115861462D01*
X72286001Y-115844069D01*
X72274758Y-115829363D01*
X72259417Y-115815229D01*
X72237328Y-115799554D01*
X72205839Y-115780228D01*
X72162504Y-115755252D01*
X72125206Y-115731449D01*
X72088472Y-115703708D01*
X72064398Y-115682212D01*
X72042453Y-115659140D01*
X72029850Y-115641401D01*
X72023477Y-115623254D01*
X72020419Y-115601033D01*
X72011777Y-115562820D01*
X71991672Y-115529831D01*
X71990392Y-115528264D01*
X71983045Y-115519969D01*
X72091340Y-115519969D01*
X72092210Y-115526052D01*
X72095944Y-115545069D01*
X72100043Y-115571792D01*
X72101333Y-115581639D01*
X72107157Y-115609338D01*
X72118441Y-115627706D01*
X72129676Y-115637495D01*
X72161567Y-115660209D01*
X72192062Y-115679743D01*
X72217494Y-115693920D01*
X72234192Y-115700562D01*
X72236296Y-115700796D01*
X72247282Y-115694190D01*
X72264265Y-115676620D01*
X72284743Y-115651461D01*
X72306218Y-115622086D01*
X72326186Y-115591870D01*
X72342146Y-115564187D01*
X72349738Y-115547755D01*
X72359548Y-115518981D01*
X72361073Y-115503842D01*
X72353807Y-115502205D01*
X72337242Y-115513938D01*
X72311961Y-115537814D01*
X72283065Y-115564847D01*
X72261606Y-115579642D01*
X72244942Y-115583228D01*
X72230427Y-115576638D01*
X72224993Y-115571749D01*
X72215301Y-115558780D01*
X72213780Y-115545010D01*
X72221568Y-115527958D01*
X72239806Y-115505143D01*
X72269630Y-115474080D01*
X72269933Y-115473775D01*
X72297218Y-115446094D01*
X72313708Y-115426862D01*
X72320402Y-115412755D01*
X72318301Y-115400447D01*
X72308403Y-115386611D01*
X72299230Y-115376297D01*
X72287705Y-115368873D01*
X72270651Y-115369489D01*
X72245703Y-115377381D01*
X72222428Y-115387742D01*
X72200217Y-115402013D01*
X72174966Y-115423220D01*
X72146391Y-115450596D01*
X72119234Y-115478009D01*
X72102328Y-115496867D01*
X72093692Y-115509933D01*
X72091340Y-115519969D01*
X71983045Y-115519969D01*
X71976640Y-115512738D01*
X71963427Y-115502514D01*
X71946204Y-115495601D01*
X71920421Y-115490003D01*
X71892716Y-115485466D01*
X71847244Y-115476373D01*
X71816764Y-115465246D01*
X71799643Y-115451219D01*
X71794247Y-115433427D01*
X71794247Y-115433274D01*
X71801198Y-115412259D01*
X71821716Y-115400424D01*
X71855299Y-115398020D01*
X71864441Y-115398785D01*
X71924320Y-115407334D01*
X71970320Y-115418660D01*
X72001353Y-115432461D01*
X72010119Y-115439372D01*
X72027592Y-115456845D01*
X72088939Y-115395497D01*
X72143620Y-115346267D01*
X72195260Y-115310681D01*
X72242770Y-115289382D01*
X72279493Y-115282983D01*
X72298732Y-115283733D01*
X72313852Y-115288824D01*
X72329990Y-115301038D01*
X72350720Y-115321537D01*
X72373905Y-115347015D01*
X72394682Y-115372506D01*
X72405762Y-115388218D01*
X72430223Y-115437723D01*
X72440880Y-115486297D01*
X72437457Y-115535662D01*
X72419678Y-115587538D01*
X72387263Y-115643648D01*
X72358258Y-115683150D01*
X72308222Y-115746780D01*
X72339541Y-115782983D01*
X72346226Y-115793134D01*
X72371539Y-115831572D01*
G37*
G36*
X73529647Y-117516078D02*
G01*
X73495430Y-117489470D01*
X73490751Y-117485786D01*
X73460550Y-117462163D01*
X73440735Y-117447722D01*
X73428670Y-117441244D01*
X73421715Y-117441512D01*
X73417237Y-117447306D01*
X73415503Y-117450999D01*
X73407922Y-117464951D01*
X73393371Y-117489393D01*
X73373961Y-117520840D01*
X73352512Y-117554714D01*
X73330253Y-117589452D01*
X73310498Y-117620298D01*
X73295432Y-117643837D01*
X73287357Y-117656472D01*
X73285193Y-117660312D01*
X73284211Y-117662053D01*
X73283385Y-117667791D01*
X73286227Y-117675344D01*
X73294085Y-117686368D01*
X73308308Y-117702517D01*
X73330244Y-117725448D01*
X73361242Y-117756818D01*
X73402650Y-117798282D01*
X73530194Y-117925825D01*
X73500731Y-117955288D01*
X73376987Y-117831545D01*
X73340017Y-117795015D01*
X73306991Y-117763222D01*
X73279699Y-117737819D01*
X73259930Y-117720458D01*
X73249471Y-117712795D01*
X73248377Y-117712668D01*
X73241634Y-117720964D01*
X73227180Y-117739616D01*
X73207306Y-117765651D01*
X73189550Y-117789118D01*
X73164874Y-117820570D01*
X73132318Y-117860221D01*
X73095289Y-117904015D01*
X73057199Y-117947893D01*
X73037283Y-117970314D01*
X73005526Y-118005959D01*
X72979034Y-118036135D01*
X72978042Y-118037266D01*
X72956614Y-118062165D01*
X72943027Y-118078581D01*
X72938974Y-118084358D01*
X72943338Y-118092251D01*
X72955252Y-118111284D01*
X72972953Y-118138775D01*
X72994679Y-118172042D01*
X73018664Y-118208404D01*
X73043145Y-118245179D01*
X73066359Y-118279685D01*
X73086542Y-118309243D01*
X73093114Y-118318712D01*
X73103992Y-118337363D01*
X73103876Y-118349990D01*
X73096463Y-118359556D01*
X73086943Y-118367633D01*
X73078984Y-118367188D01*
X73068351Y-118356346D01*
X73057657Y-118342383D01*
X73044103Y-118323390D01*
X73024025Y-118294118D01*
X72999944Y-118258288D01*
X72974377Y-118219621D01*
X72969661Y-118212418D01*
X72946402Y-118176929D01*
X72926482Y-118146735D01*
X72911625Y-118124437D01*
X72903556Y-118112632D01*
X72902668Y-118111473D01*
X72895899Y-118115605D01*
X72880289Y-118129176D01*
X72858634Y-118149692D01*
X72847282Y-118160904D01*
X72771589Y-118231116D01*
X72683146Y-118303800D01*
X72585202Y-118376741D01*
X72481002Y-118447724D01*
X72373791Y-118514535D01*
X72266818Y-118574959D01*
X72167029Y-118625055D01*
X71988846Y-118701412D01*
X71810328Y-118763549D01*
X71626259Y-118813177D01*
X71530572Y-118833825D01*
X71486720Y-118843076D01*
X71448352Y-118852146D01*
X71418618Y-118860212D01*
X71400665Y-118866457D01*
X71397217Y-118868507D01*
X71382624Y-118876444D01*
X71354954Y-118885932D01*
X71317638Y-118896218D01*
X71274105Y-118906551D01*
X71227785Y-118916176D01*
X71182108Y-118924343D01*
X71140504Y-118930297D01*
X71106403Y-118933287D01*
X71101180Y-118933454D01*
X71037776Y-118930497D01*
X70981044Y-118918020D01*
X70967846Y-118913582D01*
X70941176Y-118903627D01*
X70920690Y-118894119D01*
X70902459Y-118882295D01*
X70882552Y-118865390D01*
X70857035Y-118840640D01*
X70840587Y-118824095D01*
X70808488Y-118790818D01*
X70785352Y-118764160D01*
X70767773Y-118739577D01*
X70752340Y-118712525D01*
X70743190Y-118694243D01*
X70703284Y-118599744D01*
X70672418Y-118498119D01*
X70657585Y-118431825D01*
X70641649Y-118351373D01*
X70528940Y-118293406D01*
X70484155Y-118270763D01*
X70451966Y-118255548D01*
X70430445Y-118247016D01*
X70417662Y-118244427D01*
X70411688Y-118247035D01*
X70411166Y-118248050D01*
X70398051Y-118270331D01*
X70377698Y-118295317D01*
X70356273Y-118315805D01*
X70348483Y-118321308D01*
X70313182Y-118333546D01*
X70268155Y-118335208D01*
X70216199Y-118326714D01*
X70160114Y-118308485D01*
X70111510Y-118285770D01*
X70079191Y-118264474D01*
X70040486Y-118232755D01*
X69998596Y-118193822D01*
X69956729Y-118150884D01*
X69918085Y-118107149D01*
X69885870Y-118065824D01*
X69873269Y-118047216D01*
X69800836Y-117917841D01*
X69740612Y-117777368D01*
X69692709Y-117626164D01*
X69657234Y-117464595D01*
X69634299Y-117293023D01*
X69629597Y-117235649D01*
X69624177Y-117158100D01*
X69587099Y-117210630D01*
X69543325Y-117267827D01*
X69488677Y-117331602D01*
X69426022Y-117399100D01*
X69358226Y-117467466D01*
X69288156Y-117533845D01*
X69218678Y-117595384D01*
X69152661Y-117649228D01*
X69127588Y-117668175D01*
X68962256Y-117781423D01*
X68788674Y-117883679D01*
X68605045Y-117975870D01*
X68409573Y-118058924D01*
X68272144Y-118109551D01*
X68156283Y-118149843D01*
X68112039Y-118105599D01*
X68091083Y-118084283D01*
X68075926Y-118068173D01*
X68069348Y-118060240D01*
X68069292Y-118059906D01*
X68077291Y-118056957D01*
X68098543Y-118049677D01*
X68130464Y-118038936D01*
X68170474Y-118025604D01*
X68208141Y-118013139D01*
X68413876Y-117937747D01*
X68610647Y-117850459D01*
X68797250Y-117751910D01*
X68972487Y-117642737D01*
X69135155Y-117523576D01*
X69140398Y-117519398D01*
X69178804Y-117486868D01*
X69224132Y-117445539D01*
X69273229Y-117398565D01*
X69322942Y-117349095D01*
X69370114Y-117300282D01*
X69411593Y-117255279D01*
X69444223Y-117217237D01*
X69449872Y-117210153D01*
X69550549Y-117068767D01*
X69636167Y-116921107D01*
X69706415Y-116767832D01*
X69760984Y-116609598D01*
X69792406Y-116483432D01*
X69806968Y-116425139D01*
X69823016Y-116383309D01*
X69840706Y-116357793D01*
X69860187Y-116348440D01*
X69881612Y-116355101D01*
X69902782Y-116374779D01*
X69911296Y-116386198D01*
X69916064Y-116398182D01*
X69917146Y-116414280D01*
X69914604Y-116438044D01*
X69908498Y-116473027D01*
X69904784Y-116492446D01*
X69890023Y-116557144D01*
X69869460Y-116631045D01*
X69844780Y-116709112D01*
X69817673Y-116786313D01*
X69789824Y-116857610D01*
X69762921Y-116917970D01*
X69760572Y-116922758D01*
X69744764Y-116955990D01*
X69732869Y-116983562D01*
X69726215Y-117002219D01*
X69725579Y-117008563D01*
X69727868Y-117018442D01*
X69730242Y-117041399D01*
X69732398Y-117073847D01*
X69733841Y-117106460D01*
X69744484Y-117270300D01*
X69764476Y-117424671D01*
X69793563Y-117568796D01*
X69831490Y-117701895D01*
X69878004Y-117823195D01*
X69932848Y-117931920D01*
X69995770Y-118027291D01*
X70060045Y-118102036D01*
X70112733Y-118150419D01*
X70164257Y-118187701D01*
X70212654Y-118212697D01*
X70255959Y-118224228D01*
X70264288Y-118224830D01*
X70290668Y-118223431D01*
X70303968Y-118214995D01*
X70307276Y-118196542D01*
X70306331Y-118184220D01*
X70307400Y-118161813D01*
X70317871Y-118139861D01*
X70329721Y-118124214D01*
X70350578Y-118102282D01*
X70366252Y-118093962D01*
X70370368Y-118093919D01*
X70381474Y-118098092D01*
X70405201Y-118108826D01*
X70439345Y-118125061D01*
X70481706Y-118145739D01*
X70530081Y-118169802D01*
X70568195Y-118189034D01*
X70679004Y-118243864D01*
X70776345Y-118289036D01*
X70860304Y-118324583D01*
X70930971Y-118350543D01*
X70988433Y-118366953D01*
X70998335Y-118369090D01*
X71027459Y-118374719D01*
X71043340Y-118376333D01*
X71049057Y-118373297D01*
X71047688Y-118364978D01*
X71045586Y-118359359D01*
X71036459Y-118345531D01*
X71016458Y-118321813D01*
X70986911Y-118289669D01*
X70949146Y-118250566D01*
X70925380Y-118226650D01*
X70868749Y-118171690D01*
X70818859Y-118127046D01*
X70772096Y-118089973D01*
X70724849Y-118057724D01*
X70673505Y-118027554D01*
X70640087Y-118009750D01*
X70609725Y-117989792D01*
X70595642Y-117969087D01*
X70597456Y-117946416D01*
X70612848Y-117922766D01*
X70630051Y-117905678D01*
X70644854Y-117899861D01*
X70658240Y-117901126D01*
X70680286Y-117909139D01*
X70712375Y-117925224D01*
X70751243Y-117947413D01*
X70793633Y-117973736D01*
X70836281Y-118002222D01*
X70875929Y-118030905D01*
X70886200Y-118038821D01*
X70923004Y-118069738D01*
X70963792Y-118107464D01*
X71006014Y-118149275D01*
X71047112Y-118192448D01*
X71084536Y-118234262D01*
X71115732Y-118271994D01*
X71138144Y-118302922D01*
X71145272Y-118315009D01*
X71161298Y-118359247D01*
X71163228Y-118400577D01*
X71151796Y-118436612D01*
X71127733Y-118464962D01*
X71093890Y-118482587D01*
X71059421Y-118487344D01*
X71013346Y-118484348D01*
X70958501Y-118474175D01*
X70897718Y-118457396D01*
X70833832Y-118434588D01*
X70811580Y-118425422D01*
X70763750Y-118405016D01*
X70772216Y-118441216D01*
X70789603Y-118504856D01*
X70811666Y-118569453D01*
X70836160Y-118628956D01*
X70858312Y-118672958D01*
X70899767Y-118732870D01*
X70947362Y-118777388D01*
X71001611Y-118806804D01*
X71063030Y-118821410D01*
X71120568Y-118822447D01*
X71153206Y-118819085D01*
X71175110Y-118812936D01*
X71192198Y-118801894D01*
X71200747Y-118793919D01*
X71211912Y-118784099D01*
X71225029Y-118776425D01*
X71243044Y-118770070D01*
X71268901Y-118764207D01*
X71305548Y-118758006D01*
X71353424Y-118750995D01*
X71560777Y-118713753D01*
X71761806Y-118661728D01*
X71955773Y-118595195D01*
X72141941Y-118514431D01*
X72319573Y-118419710D01*
X72440050Y-118344176D01*
X72517094Y-118290450D01*
X72596460Y-118231128D01*
X72673511Y-118169861D01*
X72743608Y-118110299D01*
X72784620Y-118072932D01*
X72843753Y-118017118D01*
X72825788Y-117982050D01*
X72817521Y-117966061D01*
X72802628Y-117937416D01*
X72782211Y-117898228D01*
X72757372Y-117850607D01*
X72729212Y-117796667D01*
X72698832Y-117738518D01*
X72684417Y-117710942D01*
X72624197Y-117593016D01*
X72572276Y-117485008D01*
X72527163Y-117383347D01*
X72487364Y-117284465D01*
X72451387Y-117184794D01*
X72417736Y-117080765D01*
X72409780Y-117054555D01*
X72370345Y-116923107D01*
X72288994Y-116972377D01*
X72201390Y-117028070D01*
X72106093Y-117093351D01*
X72006686Y-117165524D01*
X71906749Y-117241902D01*
X71809863Y-117319791D01*
X71777087Y-117347648D01*
X71719609Y-117396502D01*
X71691897Y-117421092D01*
X71651158Y-117456944D01*
X71620263Y-117482049D01*
X71597295Y-117497471D01*
X71580336Y-117504271D01*
X71567470Y-117503513D01*
X71556780Y-117496260D01*
X71556609Y-117496090D01*
X71548765Y-117493198D01*
X71535381Y-117497154D01*
X71513885Y-117509119D01*
X71483562Y-117528986D01*
X71393947Y-117585365D01*
X71307058Y-117631409D01*
X71224234Y-117666693D01*
X71146813Y-117690791D01*
X71076134Y-117703280D01*
X71013537Y-117703732D01*
X70965302Y-117693527D01*
X70928329Y-117674311D01*
X70892391Y-117644890D01*
X70863044Y-117610441D01*
X70848969Y-117585092D01*
X70835751Y-117532288D01*
X70835360Y-117499355D01*
X70912053Y-117499355D01*
X70919189Y-117546139D01*
X70937937Y-117583374D01*
X70946308Y-117592896D01*
X70979998Y-117615070D01*
X71024043Y-117625640D01*
X71077231Y-117624995D01*
X71138347Y-117613528D01*
X71206175Y-117591630D01*
X71279503Y-117559692D01*
X71357115Y-117518105D01*
X71437799Y-117467262D01*
X71519447Y-117408238D01*
X71570662Y-117366211D01*
X71627788Y-117314947D01*
X71687356Y-117257918D01*
X71745897Y-117198593D01*
X71799940Y-117140447D01*
X71846015Y-117086946D01*
X71866522Y-117061000D01*
X71938798Y-116958391D01*
X71997023Y-116859837D01*
X72040801Y-116766107D01*
X72069733Y-116677972D01*
X72074122Y-116659157D01*
X72082039Y-116598483D01*
X72077813Y-116547880D01*
X72061704Y-116507915D01*
X72033975Y-116479156D01*
X71994884Y-116462172D01*
X71982635Y-116459714D01*
X71950894Y-116456808D01*
X71919927Y-116457297D01*
X71910820Y-116458398D01*
X71879839Y-116463608D01*
X71882480Y-116504264D01*
X71878965Y-116568546D01*
X71860411Y-116628308D01*
X71850295Y-116647904D01*
X71835705Y-116674402D01*
X71818735Y-116706999D01*
X71808734Y-116727052D01*
X71797359Y-116748498D01*
X71784356Y-116767970D01*
X71767038Y-116788657D01*
X71744035Y-116812391D01*
X71742722Y-116813745D01*
X71708722Y-116846422D01*
X71706173Y-116848829D01*
X71672527Y-116880209D01*
X71647461Y-116902255D01*
X71627654Y-116917300D01*
X71609786Y-116927680D01*
X71590538Y-116935728D01*
X71575028Y-116941040D01*
X71530424Y-116951145D01*
X71488631Y-116952539D01*
X71482058Y-116951780D01*
X71458780Y-116947560D01*
X71441986Y-116940878D01*
X71426270Y-116928396D01*
X71406226Y-116906777D01*
X71402742Y-116902802D01*
X71382439Y-116878412D01*
X71371091Y-116859840D01*
X71366054Y-116840935D01*
X71364686Y-116815547D01*
X71364669Y-116814185D01*
X71364125Y-116768492D01*
X71277789Y-116854829D01*
X71205669Y-116931308D01*
X71140111Y-117009488D01*
X71081674Y-117088117D01*
X71030921Y-117165947D01*
X70988413Y-117241727D01*
X70954710Y-117314208D01*
X70930375Y-117382140D01*
X70915969Y-117444271D01*
X70912053Y-117499355D01*
X70835360Y-117499355D01*
X70835015Y-117470294D01*
X70846296Y-117400409D01*
X70869124Y-117323932D01*
X70903034Y-117242164D01*
X70947556Y-117156403D01*
X71002226Y-117067950D01*
X71066573Y-116978104D01*
X71068027Y-116976209D01*
X71106443Y-116929387D01*
X71154644Y-116875535D01*
X71209336Y-116817945D01*
X71267223Y-116759915D01*
X71325011Y-116704739D01*
X71339498Y-116691681D01*
X71498050Y-116691681D01*
X71501369Y-116712978D01*
X71508883Y-116736767D01*
X71518713Y-116756972D01*
X71528021Y-116767084D01*
X71551901Y-116770689D01*
X71581922Y-116762276D01*
X71615308Y-116743907D01*
X71649286Y-116717642D01*
X71681080Y-116685544D01*
X71707915Y-116649676D01*
X71722717Y-116622430D01*
X71734080Y-116590058D01*
X71739763Y-116558351D01*
X71739273Y-116532265D01*
X71733078Y-116517618D01*
X71724338Y-116519339D01*
X71705035Y-116527705D01*
X71679025Y-116541009D01*
X71673855Y-116543837D01*
X71628405Y-116569908D01*
X71586930Y-116595486D01*
X71551576Y-116619073D01*
X71524487Y-116639172D01*
X71507806Y-116654283D01*
X71503617Y-116662797D01*
X71502918Y-116676115D01*
X71500802Y-116678956D01*
X71498050Y-116691681D01*
X71339498Y-116691681D01*
X71379404Y-116655713D01*
X71427106Y-116616132D01*
X71431529Y-116612707D01*
X71521390Y-116548162D01*
X71609886Y-116493285D01*
X71695716Y-116448543D01*
X71777582Y-116414405D01*
X71854183Y-116391338D01*
X71924221Y-116379810D01*
X71986394Y-116380288D01*
X72039404Y-116393240D01*
X72040411Y-116393650D01*
X72075261Y-116414680D01*
X72108863Y-116446354D01*
X72136038Y-116483118D01*
X72148847Y-116509982D01*
X72159749Y-116564809D01*
X72158086Y-116628845D01*
X72144232Y-116700792D01*
X72118558Y-116779353D01*
X72081437Y-116863228D01*
X72033240Y-116951117D01*
X72013031Y-116983833D01*
X71965816Y-117058062D01*
X72054721Y-116995309D01*
X72099389Y-116964596D01*
X72150101Y-116931007D01*
X72185311Y-116908444D01*
X72419024Y-116908444D01*
X72419257Y-116925353D01*
X72424374Y-116949781D01*
X72434246Y-116984125D01*
X72448743Y-117030781D01*
X72458986Y-117063669D01*
X72519334Y-117242719D01*
X72586568Y-117411078D01*
X72662851Y-117574038D01*
X72686174Y-117619512D01*
X72711417Y-117668166D01*
X72734195Y-117712728D01*
X72753298Y-117750779D01*
X72767519Y-117779903D01*
X72775651Y-117797683D01*
X72776934Y-117801095D01*
X72784266Y-117817692D01*
X72789804Y-117824300D01*
X72796578Y-117833565D01*
X72808512Y-117854243D01*
X72823576Y-117882715D01*
X72831921Y-117899298D01*
X72847730Y-117930574D01*
X72861289Y-117956167D01*
X72870605Y-117972367D01*
X72873086Y-117975824D01*
X72882559Y-117973817D01*
X72901015Y-117958116D01*
X72917597Y-117940785D01*
X72951945Y-117902399D01*
X72990015Y-117858572D01*
X73029123Y-117812516D01*
X73066585Y-117767445D01*
X73099716Y-117726570D01*
X73125835Y-117693105D01*
X73136171Y-117679116D01*
X73170564Y-117631013D01*
X73136483Y-117588676D01*
X73122093Y-117571303D01*
X73098526Y-117543447D01*
X73067562Y-117507185D01*
X73030981Y-117464595D01*
X72990563Y-117417752D01*
X72948085Y-117368734D01*
X72943507Y-117363464D01*
X72888876Y-117299811D01*
X72833001Y-117233283D01*
X72777632Y-117166067D01*
X72724516Y-117100348D01*
X72675401Y-117038313D01*
X72632037Y-116982147D01*
X72596172Y-116934037D01*
X72569555Y-116896167D01*
X72569000Y-116895335D01*
X72549546Y-116866784D01*
X72535058Y-116850677D01*
X72520991Y-116845770D01*
X72502803Y-116850819D01*
X72475952Y-116864580D01*
X72469498Y-116868075D01*
X72448910Y-116878870D01*
X72433722Y-116887599D01*
X72423802Y-116896658D01*
X72419024Y-116908444D01*
X72185311Y-116908444D01*
X72199737Y-116899200D01*
X72231403Y-116879664D01*
X72266013Y-116858532D01*
X72295718Y-116839882D01*
X72317398Y-116825705D01*
X72327931Y-116817997D01*
X72328008Y-116817921D01*
X72328268Y-116815977D01*
X72567660Y-116815977D01*
X72594069Y-116856434D01*
X72620923Y-116895397D01*
X72649285Y-116934003D01*
X72657133Y-116944684D01*
X72700980Y-117002165D01*
X72750745Y-117065708D01*
X72804708Y-117133184D01*
X72861149Y-117202461D01*
X72918349Y-117271412D01*
X72974587Y-117337903D01*
X73028145Y-117399807D01*
X73076634Y-117454254D01*
X73105844Y-117486750D01*
X73133483Y-117518008D01*
X73156144Y-117544149D01*
X73168903Y-117559386D01*
X73184722Y-117577635D01*
X73194704Y-117584327D01*
X73202554Y-117581570D01*
X73204575Y-117579693D01*
X73212177Y-117569436D01*
X73226270Y-117548216D01*
X73244780Y-117519363D01*
X73265631Y-117486208D01*
X73286749Y-117452087D01*
X73306057Y-117420328D01*
X73321481Y-117394264D01*
X73330945Y-117377228D01*
X73331923Y-117375232D01*
X73332130Y-117367614D01*
X73325054Y-117356815D01*
X73308693Y-117340515D01*
X73281545Y-117316819D01*
X73254960Y-117293949D01*
X73219925Y-117263373D01*
X73180373Y-117228545D01*
X73140234Y-117192916D01*
X73126406Y-117180565D01*
X73092554Y-117149617D01*
X73049904Y-117109603D01*
X73001369Y-117063315D01*
X72949862Y-117013545D01*
X72898295Y-116963087D01*
X72860605Y-116925746D01*
X72694322Y-116759970D01*
X72630991Y-116787974D01*
X72615080Y-116795009D01*
X72567660Y-116815977D01*
X72328268Y-116815977D01*
X72329561Y-116806320D01*
X72326057Y-116782171D01*
X72318062Y-116748616D01*
X72311435Y-116725575D01*
X72250016Y-116506646D01*
X72231944Y-116431503D01*
X72278586Y-116431503D01*
X72279065Y-116440900D01*
X72283817Y-116463330D01*
X72292012Y-116495961D01*
X72302817Y-116535961D01*
X72315399Y-116580499D01*
X72328927Y-116626741D01*
X72342567Y-116671859D01*
X72355488Y-116713018D01*
X72366858Y-116747386D01*
X72375844Y-116772132D01*
X72381613Y-116784424D01*
X72382555Y-116785253D01*
X72393858Y-116782694D01*
X72412744Y-116774331D01*
X72433680Y-116763150D01*
X72451132Y-116752140D01*
X72454309Y-116749181D01*
X72753853Y-116749181D01*
X72764996Y-116767791D01*
X72774685Y-116779607D01*
X72794996Y-116801197D01*
X72824318Y-116831017D01*
X72861041Y-116867522D01*
X72903552Y-116909169D01*
X72950242Y-116954413D01*
X72999498Y-117001710D01*
X73049708Y-117049516D01*
X73099263Y-117096286D01*
X73146550Y-117140477D01*
X73189960Y-117180543D01*
X73227879Y-117214941D01*
X73258697Y-117242126D01*
X73269549Y-117251369D01*
X73360287Y-117327439D01*
X73398337Y-117248758D01*
X73461677Y-117109229D01*
X73513245Y-116977130D01*
X73552645Y-116853558D01*
X73576299Y-116755908D01*
X73584162Y-116711098D01*
X73589740Y-116667177D01*
X73592820Y-116627552D01*
X73593190Y-116595629D01*
X73590636Y-116574810D01*
X73587970Y-116569388D01*
X73577504Y-116566768D01*
X73554745Y-116564850D01*
X73524064Y-116563961D01*
X73514758Y-116563940D01*
X73429807Y-116567561D01*
X73336872Y-116577339D01*
X73239436Y-116592492D01*
X73140982Y-116612241D01*
X73044994Y-116635802D01*
X72954955Y-116662394D01*
X72874350Y-116691236D01*
X72806662Y-116721545D01*
X72802319Y-116723795D01*
X72753853Y-116749181D01*
X72454309Y-116749181D01*
X72459567Y-116744284D01*
X72459713Y-116743609D01*
X72455696Y-116735086D01*
X72444602Y-116714771D01*
X72427857Y-116685201D01*
X72406895Y-116648914D01*
X72392228Y-116623853D01*
X72367561Y-116581602D01*
X72344491Y-116541536D01*
X72325001Y-116507136D01*
X72311071Y-116481883D01*
X72306883Y-116473916D01*
X72293345Y-116448010D01*
X72285054Y-116434504D01*
X72280204Y-116430697D01*
X72278586Y-116431503D01*
X72231944Y-116431503D01*
X72212426Y-116350348D01*
X72199978Y-116298207D01*
X72193829Y-116274545D01*
X72261965Y-116274545D01*
X72262531Y-116285801D01*
X72262851Y-116288138D01*
X72269784Y-116312200D01*
X72277040Y-116326983D01*
X72284726Y-116340372D01*
X72298582Y-116365523D01*
X72316990Y-116399461D01*
X72338334Y-116439210D01*
X72351760Y-116464395D01*
X72376797Y-116510659D01*
X72402681Y-116557074D01*
X72426911Y-116599242D01*
X72446982Y-116632765D01*
X72453284Y-116642767D01*
X72470046Y-116670175D01*
X72481775Y-116692130D01*
X72486651Y-116705105D01*
X72486359Y-116706919D01*
X72485359Y-116715985D01*
X72494893Y-116724382D01*
X72509072Y-116728595D01*
X72519552Y-116726726D01*
X72534315Y-116714243D01*
X72536809Y-116701141D01*
X72528865Y-116693284D01*
X72524154Y-116687118D01*
X72529690Y-116683126D01*
X72536650Y-116675322D01*
X72534982Y-116671341D01*
X72535476Y-116661617D01*
X72545776Y-116647501D01*
X72552403Y-116640053D01*
X72555500Y-116632464D01*
X72553902Y-116622869D01*
X72546441Y-116609399D01*
X72531954Y-116590188D01*
X72509274Y-116563367D01*
X72477233Y-116527068D01*
X72455195Y-116502381D01*
X72423260Y-116465747D01*
X72389718Y-116425775D01*
X72359575Y-116388495D01*
X72345570Y-116370410D01*
X72322513Y-116340473D01*
X72300758Y-116313208D01*
X72283969Y-116293179D01*
X72279944Y-116288723D01*
X72266815Y-116275486D01*
X72261965Y-116274545D01*
X72193829Y-116274545D01*
X72185397Y-116242101D01*
X72170519Y-116188846D01*
X72157442Y-116146061D01*
X72144897Y-116106285D01*
X72137725Y-116079043D01*
X72135487Y-116061245D01*
X72137747Y-116049805D01*
X72142826Y-116042825D01*
X72159195Y-116034959D01*
X72175529Y-116042769D01*
X72190738Y-116065296D01*
X72201726Y-116094497D01*
X72210122Y-116116927D01*
X72223326Y-116141545D01*
X72243244Y-116171379D01*
X72271786Y-116209453D01*
X72284294Y-116225448D01*
X72342182Y-116298349D01*
X72398400Y-116368077D01*
X72451078Y-116432358D01*
X72498345Y-116488918D01*
X72538327Y-116535483D01*
X72553801Y-116552967D01*
X72574561Y-116576414D01*
X72590231Y-116592386D01*
X72603593Y-116600405D01*
X72617429Y-116599999D01*
X72634518Y-116590690D01*
X72657643Y-116572003D01*
X72689584Y-116543464D01*
X72708389Y-116526551D01*
X72751737Y-116486283D01*
X72782324Y-116454185D01*
X72801074Y-116428912D01*
X72808908Y-116409121D01*
X72806754Y-116393466D01*
X72803418Y-116388210D01*
X72788638Y-116377087D01*
X72765210Y-116373449D01*
X72750411Y-116373915D01*
X72725096Y-116377154D01*
X72706567Y-116382393D01*
X72702085Y-116385127D01*
X72684343Y-116392804D01*
X72660411Y-116392261D01*
X72638188Y-116384185D01*
X72631579Y-116379030D01*
X72618006Y-116355073D01*
X72619443Y-116327482D01*
X72635541Y-116299088D01*
X72642421Y-116291584D01*
X72665155Y-116264444D01*
X72690252Y-116227330D01*
X72715789Y-116183977D01*
X72739839Y-116138120D01*
X72760474Y-116093496D01*
X72775768Y-116053841D01*
X72783796Y-116022889D01*
X72784488Y-116016104D01*
X72785692Y-115990557D01*
X72760322Y-116003471D01*
X72732904Y-116009777D01*
X72707639Y-116002985D01*
X72687896Y-115986328D01*
X72677045Y-115963040D01*
X72678454Y-115936355D01*
X72681796Y-115928118D01*
X72691681Y-115903534D01*
X72697124Y-115883134D01*
X72698525Y-115870486D01*
X72694453Y-115864875D01*
X72681030Y-115864679D01*
X72659715Y-115867510D01*
X72608335Y-115867639D01*
X72562590Y-115852149D01*
X72521628Y-115820750D01*
X72521575Y-115820698D01*
X72499456Y-115794282D01*
X72484797Y-115765614D01*
X72476060Y-115730211D01*
X72471705Y-115683590D01*
X72471287Y-115674185D01*
X72472678Y-115633117D01*
X72481279Y-115605882D01*
X72498032Y-115590875D01*
X72522567Y-115586481D01*
X72547984Y-115591729D01*
X72566196Y-115608433D01*
X72578059Y-115638036D01*
X72584427Y-115681981D01*
X72585079Y-115691941D01*
X72589070Y-115719175D01*
X72596553Y-115740878D01*
X72601025Y-115747435D01*
X72619830Y-115755950D01*
X72645832Y-115756102D01*
X72672314Y-115748696D01*
X72690534Y-115736712D01*
X72714398Y-115723567D01*
X72743555Y-115722355D01*
X72772064Y-115732695D01*
X72784905Y-115742753D01*
X72800791Y-115761712D01*
X72810719Y-115779118D01*
X72811094Y-115780246D01*
X72818031Y-115791112D01*
X72831975Y-115790345D01*
X72837096Y-115788571D01*
X72848416Y-115785438D01*
X72858718Y-115787107D01*
X72871508Y-115795594D01*
X72890291Y-115812916D01*
X72905370Y-115827862D01*
X72952551Y-115875042D01*
X72921723Y-115882517D01*
X72890030Y-115893799D01*
X72874482Y-115908511D01*
X72874857Y-115926932D01*
X72879564Y-115935624D01*
X72891311Y-115965331D01*
X72895597Y-116004549D01*
X72892244Y-116047796D01*
X72884325Y-116080446D01*
X72876894Y-116100159D01*
X72865062Y-116128363D01*
X72850594Y-116161203D01*
X72835251Y-116194827D01*
X72820801Y-116225381D01*
X72809004Y-116249013D01*
X72801625Y-116261867D01*
X72800885Y-116262757D01*
X72806672Y-116266082D01*
X72823031Y-116271998D01*
X72825590Y-116272822D01*
X72856602Y-116289127D01*
X72886943Y-116315679D01*
X72911921Y-116347375D01*
X72926844Y-116379111D01*
X72928067Y-116384266D01*
X72929569Y-116411683D01*
X72922380Y-116440036D01*
X72905253Y-116471861D01*
X72876944Y-116509692D01*
X72852586Y-116538002D01*
X72801276Y-116595543D01*
X72896505Y-116564293D01*
X73028846Y-116524295D01*
X73154241Y-116493917D01*
X73278444Y-116471991D01*
X73407211Y-116457344D01*
X73432139Y-116455328D01*
X73525709Y-116448201D01*
X73705750Y-116628242D01*
X73703066Y-116669567D01*
X73694811Y-116736165D01*
X73678422Y-116814154D01*
X73654763Y-116900900D01*
X73624697Y-116993765D01*
X73589091Y-117090113D01*
X73548808Y-117187309D01*
X73504713Y-117282716D01*
X73496591Y-117299189D01*
X73479208Y-117334550D01*
X73464950Y-117364426D01*
X73455272Y-117385705D01*
X73451628Y-117395277D01*
X73451627Y-117395325D01*
X73457953Y-117402401D01*
X73475494Y-117417748D01*
X73502093Y-117439694D01*
X73535593Y-117466561D01*
X73573836Y-117496674D01*
X73614664Y-117528358D01*
X73655922Y-117559938D01*
X73695451Y-117589738D01*
X73731095Y-117616082D01*
X73760697Y-117637295D01*
X73779977Y-117650351D01*
X73790237Y-117659323D01*
X73786884Y-117668148D01*
X73778309Y-117675589D01*
X73760004Y-117690123D01*
X73658925Y-117614426D01*
X73616266Y-117582284D01*
X73611523Y-117578674D01*
X73571550Y-117548258D01*
X73529647Y-117516078D01*
G37*
%TO.C,U501*%
X134600000Y-109728000D02*
X134600000Y-107778000D01*
X124480000Y-109728000D02*
X124480000Y-113178000D01*
X134600000Y-109728000D02*
X134600000Y-111678000D01*
X124480000Y-109728000D02*
X124480000Y-107778000D01*
%TO.C,TPa0*%
X82780000Y-114000000D02*
G75*
G03*
X82780000Y-114000000I-700000J0D01*
G01*
%TO.C,TPa6*%
X93700000Y-100000000D02*
G75*
G03*
X93700000Y-100000000I-700000J0D01*
G01*
%TO.C,TPa1*%
X83700000Y-100000000D02*
G75*
G03*
X83700000Y-100000000I-700000J0D01*
G01*
%TO.C,D4*%
X137387000Y-111514000D02*
X137387000Y-112084000D01*
X138457000Y-111514000D02*
X137387000Y-111514000D01*
X138457000Y-112084000D02*
X138457000Y-111514000D01*
%TO.C,TPb2*%
X99700000Y-104000000D02*
G75*
G03*
X99700000Y-104000000I-700000J0D01*
G01*
%TO.C,TP6*%
X71700000Y-104000000D02*
G75*
G03*
X71700000Y-104000000I-700000J0D01*
G01*
%TO.C,TP8*%
X80240000Y-114000000D02*
G75*
G03*
X80240000Y-114000000I-700000J0D01*
G01*
%TO.C,R2*%
X80532500Y-102378742D02*
X80532500Y-102853258D01*
X79487500Y-102378742D02*
X79487500Y-102853258D01*
%TO.C,D5*%
X137387000Y-107372000D02*
X137387000Y-107942000D01*
X137387000Y-107942000D02*
X138457000Y-107942000D01*
X138457000Y-107942000D02*
X138457000Y-107372000D01*
%TO.C,TPa5*%
X91700000Y-100000000D02*
G75*
G03*
X91700000Y-100000000I-700000J0D01*
G01*
%TO.C,TPb7*%
X99700000Y-114000000D02*
G75*
G03*
X99700000Y-114000000I-700000J0D01*
G01*
%TO.C,TPb0*%
X99700000Y-100000000D02*
G75*
G03*
X99700000Y-100000000I-700000J0D01*
G01*
%TO.C,D1*%
X67662000Y-85724000D02*
X62262000Y-85724000D01*
X67662000Y-85724000D02*
X67662000Y-82424000D01*
X67662000Y-82424000D02*
X62262000Y-82424000D01*
%TO.C,D2*%
X136933000Y-112084000D02*
X136933000Y-111514000D01*
X135863000Y-111514000D02*
X135863000Y-112084000D01*
X136933000Y-111514000D02*
X135863000Y-111514000D01*
%TO.C,TPb3*%
X99700000Y-106000000D02*
G75*
G03*
X99700000Y-106000000I-700000J0D01*
G01*
%TO.C,C501*%
X129653420Y-114810000D02*
X129934580Y-114810000D01*
X129653420Y-113790000D02*
X129934580Y-113790000D01*
%TO.C,TPc3*%
X91700000Y-114000000D02*
G75*
G03*
X91700000Y-114000000I-700000J0D01*
G01*
%TO.C,R6*%
X138923500Y-106663258D02*
X138923500Y-106188742D01*
X139968500Y-106663258D02*
X139968500Y-106188742D01*
%TO.C,TPa3*%
X87700000Y-100000000D02*
G75*
G03*
X87700000Y-100000000I-700000J0D01*
G01*
%TO.C,J1*%
X149900000Y-114428000D02*
X149900000Y-105028000D01*
X148400000Y-105028000D02*
X149900000Y-105028000D01*
X144500000Y-105028000D02*
X146500000Y-105028000D01*
X144500000Y-114428000D02*
X146500000Y-114428000D01*
X148400000Y-114428000D02*
X149900000Y-114428000D01*
%TO.C,D3*%
X136933000Y-107942000D02*
X136933000Y-107372000D01*
X135863000Y-107372000D02*
X135863000Y-107942000D01*
X135863000Y-107942000D02*
X136933000Y-107942000D01*
%TO.C,TP4*%
X71700000Y-100000000D02*
G75*
G03*
X71700000Y-100000000I-700000J0D01*
G01*
%TO.C,TP5*%
X71700000Y-102000000D02*
G75*
G03*
X71700000Y-102000000I-700000J0D01*
G01*
%TO.C,TPb6*%
X99700000Y-112000000D02*
G75*
G03*
X99700000Y-112000000I-700000J0D01*
G01*
%TO.C,C502*%
X125843420Y-104646000D02*
X126124580Y-104646000D01*
X125843420Y-105666000D02*
X126124580Y-105666000D01*
%TD*%
M02*
