%TF.GenerationSoftware,KiCad,Pcbnew,6.0.11+dfsg-1~bpo11+1*%
%TF.CreationDate,2024-03-25T23:47:07-04:00*%
%TF.ProjectId,Controller - ATTiny,436f6e74-726f-46c6-9c65-72202d204154,0.0.0*%
%TF.SameCoordinates,Original*%
%TF.FileFunction,Paste,Top*%
%TF.FilePolarity,Positive*%
%FSLAX46Y46*%
G04 Gerber Fmt 4.6, Leading zero omitted, Abs format (unit mm)*
G04 Created by KiCad (PCBNEW 6.0.11+dfsg-1~bpo11+1) date 2024-03-25 23:47:07*
%MOMM*%
%LPD*%
G01*
G04 APERTURE LIST*
G04 Aperture macros list*
%AMRoundRect*
0 Rectangle with rounded corners*
0 $1 Rounding radius*
0 $2 $3 $4 $5 $6 $7 $8 $9 X,Y pos of 4 corners*
0 Add a 4 corners polygon primitive as box body*
4,1,4,$2,$3,$4,$5,$6,$7,$8,$9,$2,$3,0*
0 Add four circle primitives for the rounded corners*
1,1,$1+$1,$2,$3*
1,1,$1+$1,$4,$5*
1,1,$1+$1,$6,$7*
1,1,$1+$1,$8,$9*
0 Add four rect primitives between the rounded corners*
20,1,$1+$1,$2,$3,$4,$5,0*
20,1,$1+$1,$4,$5,$6,$7,0*
20,1,$1+$1,$6,$7,$8,$9,0*
20,1,$1+$1,$8,$9,$2,$3,0*%
G04 Aperture macros list end*
%ADD10RoundRect,0.100000X-0.637500X-0.100000X0.637500X-0.100000X0.637500X0.100000X-0.637500X0.100000X0*%
%ADD11RoundRect,0.200000X-0.200000X-0.275000X0.200000X-0.275000X0.200000X0.275000X-0.200000X0.275000X0*%
%ADD12RoundRect,0.218750X-0.218750X-0.256250X0.218750X-0.256250X0.218750X0.256250X-0.218750X0.256250X0*%
%ADD13RoundRect,0.200000X-0.275000X0.200000X-0.275000X-0.200000X0.275000X-0.200000X0.275000X0.200000X0*%
%ADD14RoundRect,0.250000X-0.475000X0.250000X-0.475000X-0.250000X0.475000X-0.250000X0.475000X0.250000X0*%
%ADD15R,0.900000X1.200000*%
%ADD16RoundRect,0.225000X0.225000X0.250000X-0.225000X0.250000X-0.225000X-0.250000X0.225000X-0.250000X0*%
%ADD17R,1.730000X1.190000*%
%ADD18RoundRect,0.250000X0.275000X-0.275000X0.275000X0.275000X-0.275000X0.275000X-0.275000X-0.275000X0*%
%ADD19RoundRect,0.062500X0.062500X-0.350000X0.062500X0.350000X-0.062500X0.350000X-0.062500X-0.350000X0*%
%ADD20RoundRect,0.062500X0.350000X-0.062500X0.350000X0.062500X-0.350000X0.062500X-0.350000X-0.062500X0*%
%ADD21RoundRect,0.150000X0.150000X-0.825000X0.150000X0.825000X-0.150000X0.825000X-0.150000X-0.825000X0*%
%ADD22RoundRect,0.237500X-0.237500X0.400000X-0.237500X-0.400000X0.237500X-0.400000X0.237500X0.400000X0*%
%ADD23RoundRect,0.237500X0.237500X-0.400000X0.237500X0.400000X-0.237500X0.400000X-0.237500X-0.400000X0*%
%ADD24R,2.500000X1.800000*%
%ADD25RoundRect,0.225000X-0.225000X-0.250000X0.225000X-0.250000X0.225000X0.250000X-0.225000X0.250000X0*%
%ADD26RoundRect,0.200000X0.275000X-0.200000X0.275000X0.200000X-0.275000X0.200000X-0.275000X-0.200000X0*%
%ADD27R,1.450000X0.600000*%
%ADD28R,1.450000X0.300000*%
%ADD29RoundRect,0.400000X0.400000X-1.600000X0.400000X1.600000X-0.400000X1.600000X-0.400000X-1.600000X0*%
%ADD30RoundRect,0.525000X0.525000X-0.725000X0.525000X0.725000X-0.525000X0.725000X-0.525000X-0.725000X0*%
G04 APERTURE END LIST*
D10*
%TO.C,U502*%
X116263500Y-107199000D03*
X116263500Y-107849000D03*
X116263500Y-108499000D03*
X116263500Y-109149000D03*
X116263500Y-109799000D03*
X116263500Y-110449000D03*
X116263500Y-111099000D03*
X116263500Y-111749000D03*
X121988500Y-111749000D03*
X121988500Y-111099000D03*
X121988500Y-110449000D03*
X121988500Y-109799000D03*
X121988500Y-109149000D03*
X121988500Y-108499000D03*
X121988500Y-107849000D03*
X121988500Y-107199000D03*
%TD*%
D11*
%TO.C,R501*%
X124905000Y-114793500D03*
X126555000Y-114793500D03*
%TD*%
D12*
%TO.C,D502*%
X124942500Y-116332000D03*
X126517500Y-116332000D03*
%TD*%
D13*
%TO.C,R5*%
X139446000Y-112205000D03*
X139446000Y-113855000D03*
%TD*%
D14*
%TO.C,C2*%
X71000000Y-109050000D03*
X71000000Y-110950000D03*
%TD*%
D15*
%TO.C,D501*%
X115952000Y-105410000D03*
X119252000Y-105410000D03*
%TD*%
D11*
%TO.C,R3*%
X78931000Y-108966000D03*
X80581000Y-108966000D03*
%TD*%
D16*
%TO.C,C1*%
X87897000Y-110490000D03*
X86347000Y-110490000D03*
%TD*%
D17*
%TO.C,F1*%
X62176000Y-90350000D03*
X62176000Y-87450000D03*
%TD*%
D13*
%TO.C,R1*%
X78486000Y-101791000D03*
X78486000Y-103441000D03*
%TD*%
D11*
%TO.C,R4*%
X80455000Y-110490000D03*
X82105000Y-110490000D03*
%TD*%
D18*
%TO.C,U1*%
X86726000Y-107660000D03*
X86726000Y-106360000D03*
X88026000Y-107660000D03*
X88026000Y-106360000D03*
D19*
X86126000Y-108947500D03*
X86626000Y-108947500D03*
X87126000Y-108947500D03*
X87626000Y-108947500D03*
X88126000Y-108947500D03*
X88626000Y-108947500D03*
D20*
X89313500Y-108260000D03*
X89313500Y-107760000D03*
X89313500Y-107260000D03*
X89313500Y-106760000D03*
X89313500Y-106260000D03*
X89313500Y-105760000D03*
D19*
X88626000Y-105072500D03*
X88126000Y-105072500D03*
X87626000Y-105072500D03*
X87126000Y-105072500D03*
X86626000Y-105072500D03*
X86126000Y-105072500D03*
D20*
X85438500Y-105760000D03*
X85438500Y-106260000D03*
X85438500Y-106760000D03*
X85438500Y-107260000D03*
X85438500Y-107760000D03*
X85438500Y-108260000D03*
%TD*%
D21*
%TO.C,U501*%
X125095000Y-112203000D03*
X126365000Y-112203000D03*
X127635000Y-112203000D03*
X128905000Y-112203000D03*
X130175000Y-112203000D03*
X131445000Y-112203000D03*
X132715000Y-112203000D03*
X133985000Y-112203000D03*
X133985000Y-107253000D03*
X132715000Y-107253000D03*
X131445000Y-107253000D03*
X130175000Y-107253000D03*
X128905000Y-107253000D03*
X127635000Y-107253000D03*
X126365000Y-107253000D03*
X125095000Y-107253000D03*
%TD*%
D22*
%TO.C,D4*%
X137922000Y-112224000D03*
X137922000Y-114344000D03*
%TD*%
D13*
%TO.C,R2*%
X80010000Y-101791000D03*
X80010000Y-103441000D03*
%TD*%
D23*
%TO.C,D5*%
X137922000Y-107232000D03*
X137922000Y-105112000D03*
%TD*%
D24*
%TO.C,D1*%
X66262000Y-84074000D03*
X62262000Y-84074000D03*
%TD*%
D22*
%TO.C,D2*%
X136398000Y-112224000D03*
X136398000Y-114344000D03*
%TD*%
D25*
%TO.C,C501*%
X129019000Y-114300000D03*
X130569000Y-114300000D03*
%TD*%
D26*
%TO.C,R6*%
X139446000Y-107251000D03*
X139446000Y-105601000D03*
%TD*%
D27*
%TO.C,J1*%
X142355000Y-112978000D03*
X142355000Y-112178000D03*
D28*
X142355000Y-110978000D03*
X142355000Y-109978000D03*
X142355000Y-109478000D03*
X142355000Y-108478000D03*
D27*
X142355000Y-107278000D03*
X142355000Y-106478000D03*
X142355000Y-106478000D03*
X142355000Y-107278000D03*
D28*
X142355000Y-107978000D03*
X142355000Y-108978000D03*
X142355000Y-110478000D03*
X142355000Y-111478000D03*
D27*
X142355000Y-112178000D03*
X142355000Y-112978000D03*
D29*
X147450000Y-103881035D03*
D30*
X143281795Y-114824965D03*
X143281795Y-104631035D03*
D29*
X147450000Y-115574965D03*
%TD*%
D23*
%TO.C,D3*%
X136398000Y-107232000D03*
X136398000Y-105112000D03*
%TD*%
D25*
%TO.C,C502*%
X125209000Y-105156000D03*
X126759000Y-105156000D03*
%TD*%
M02*
