%TF.GenerationSoftware,KiCad,Pcbnew,6.0.11+dfsg-1~bpo11+1*%
%TF.CreationDate,2024-04-01T13:46:52-04:00*%
%TF.ProjectId,Module - TPS540x,4d6f6475-6c65-4202-9d20-545053353430,1.0.0*%
%TF.SameCoordinates,Original*%
%TF.FileFunction,Paste,Top*%
%TF.FilePolarity,Positive*%
%FSLAX46Y46*%
G04 Gerber Fmt 4.6, Leading zero omitted, Abs format (unit mm)*
G04 Created by KiCad (PCBNEW 6.0.11+dfsg-1~bpo11+1) date 2024-04-01 13:46:52*
%MOMM*%
%LPD*%
G01*
G04 APERTURE LIST*
G04 Aperture macros list*
%AMRoundRect*
0 Rectangle with rounded corners*
0 $1 Rounding radius*
0 $2 $3 $4 $5 $6 $7 $8 $9 X,Y pos of 4 corners*
0 Add a 4 corners polygon primitive as box body*
4,1,4,$2,$3,$4,$5,$6,$7,$8,$9,$2,$3,0*
0 Add four circle primitives for the rounded corners*
1,1,$1+$1,$2,$3*
1,1,$1+$1,$4,$5*
1,1,$1+$1,$6,$7*
1,1,$1+$1,$8,$9*
0 Add four rect primitives between the rounded corners*
20,1,$1+$1,$2,$3,$4,$5,0*
20,1,$1+$1,$4,$5,$6,$7,0*
20,1,$1+$1,$6,$7,$8,$9,0*
20,1,$1+$1,$8,$9,$2,$3,0*%
G04 Aperture macros list end*
%ADD10RoundRect,0.200000X-0.275000X0.200000X-0.275000X-0.200000X0.275000X-0.200000X0.275000X0.200000X0*%
%ADD11R,0.900000X1.200000*%
%ADD12RoundRect,0.250000X-1.000000X1.750000X-1.000000X-1.750000X1.000000X-1.750000X1.000000X1.750000X0*%
%ADD13RoundRect,0.250000X-0.475000X0.250000X-0.475000X-0.250000X0.475000X-0.250000X0.475000X0.250000X0*%
%ADD14RoundRect,0.200000X-0.200000X-0.275000X0.200000X-0.275000X0.200000X0.275000X-0.200000X0.275000X0*%
%ADD15RoundRect,0.200000X0.275000X-0.200000X0.275000X0.200000X-0.275000X0.200000X-0.275000X-0.200000X0*%
%ADD16RoundRect,0.150000X-0.825000X-0.150000X0.825000X-0.150000X0.825000X0.150000X-0.825000X0.150000X0*%
%ADD17RoundRect,0.225000X0.225000X0.250000X-0.225000X0.250000X-0.225000X-0.250000X0.225000X-0.250000X0*%
%ADD18R,2.000000X1.500000*%
%ADD19R,2.000000X3.800000*%
%ADD20R,1.730000X1.190000*%
%ADD21R,1.190000X1.730000*%
%ADD22RoundRect,0.225000X-0.250000X0.225000X-0.250000X-0.225000X0.250000X-0.225000X0.250000X0.225000X0*%
%ADD23RoundRect,0.250000X0.275000X-0.275000X0.275000X0.275000X-0.275000X0.275000X-0.275000X-0.275000X0*%
%ADD24RoundRect,0.062500X0.062500X-0.350000X0.062500X0.350000X-0.062500X0.350000X-0.062500X-0.350000X0*%
%ADD25RoundRect,0.062500X0.350000X-0.062500X0.350000X0.062500X-0.350000X0.062500X-0.350000X-0.062500X0*%
%ADD26R,3.320000X2.150000*%
%ADD27RoundRect,0.250000X1.000000X-1.750000X1.000000X1.750000X-1.000000X1.750000X-1.000000X-1.750000X0*%
%ADD28RoundRect,0.225000X-0.225000X-0.250000X0.225000X-0.250000X0.225000X0.250000X-0.225000X0.250000X0*%
%ADD29RoundRect,0.218750X0.218750X0.256250X-0.218750X0.256250X-0.218750X-0.256250X0.218750X-0.256250X0*%
%ADD30RoundRect,0.250000X1.000000X-1.500000X1.000000X1.500000X-1.000000X1.500000X-1.000000X-1.500000X0*%
%ADD31RoundRect,0.150000X0.575000X-0.150000X0.575000X0.150000X-0.575000X0.150000X-0.575000X-0.150000X0*%
%ADD32RoundRect,0.075000X0.075000X0.570000X-0.075000X0.570000X-0.075000X-0.570000X0.075000X-0.570000X0*%
%ADD33R,3.675000X0.300000*%
%ADD34RoundRect,0.075000X0.850000X-0.075000X0.850000X0.075000X-0.850000X0.075000X-0.850000X-0.075000X0*%
%ADD35R,4.175000X0.300000*%
%ADD36RoundRect,0.150000X0.150000X-0.150000X0.150000X0.150000X-0.150000X0.150000X-0.150000X-0.150000X0*%
%ADD37RoundRect,0.150000X0.250000X-0.150000X0.250000X0.150000X-0.250000X0.150000X-0.250000X-0.150000X0*%
%ADD38RoundRect,0.400000X0.400000X-0.800000X0.400000X0.800000X-0.400000X0.800000X-0.400000X-0.800000X0*%
%ADD39RoundRect,0.525000X0.525000X-0.675000X0.525000X0.675000X-0.525000X0.675000X-0.525000X-0.675000X0*%
%ADD40RoundRect,0.075000X0.650000X-0.075000X0.650000X0.075000X-0.650000X0.075000X-0.650000X-0.075000X0*%
%ADD41R,2.500000X1.800000*%
G04 APERTURE END LIST*
D10*
%TO.C,R702*%
X108458000Y-95949000D03*
X108458000Y-97599000D03*
%TD*%
D11*
%TO.C,D502*%
X111124000Y-103124000D03*
X107824000Y-103124000D03*
%TD*%
D12*
%TO.C,C702*%
X96520000Y-85916000D03*
X96520000Y-93916000D03*
%TD*%
D13*
%TO.C,C1*%
X71000000Y-109050000D03*
X71000000Y-110950000D03*
%TD*%
D14*
%TO.C,R1*%
X78931000Y-108966000D03*
X80581000Y-108966000D03*
%TD*%
D15*
%TO.C,R401*%
X68834000Y-93027000D03*
X68834000Y-91377000D03*
%TD*%
D16*
%TO.C,U701*%
X106999000Y-89027000D03*
X106999000Y-90297000D03*
X106999000Y-91567000D03*
X106999000Y-92837000D03*
X111949000Y-92837000D03*
X111949000Y-91567000D03*
X111949000Y-90297000D03*
X111949000Y-89027000D03*
%TD*%
D17*
%TO.C,C2*%
X87897000Y-110490000D03*
X86347000Y-110490000D03*
%TD*%
D18*
%TO.C,Q401*%
X72542000Y-90918000D03*
X72542000Y-93218000D03*
D19*
X78842000Y-93218000D03*
D18*
X72542000Y-95518000D03*
%TD*%
D20*
%TO.C,F301*%
X62176000Y-90350000D03*
X62176000Y-87450000D03*
%TD*%
D16*
%TO.C,U501*%
X106999000Y-107823000D03*
X106999000Y-109093000D03*
X106999000Y-110363000D03*
X106999000Y-111633000D03*
X111949000Y-111633000D03*
X111949000Y-110363000D03*
X111949000Y-109093000D03*
X111949000Y-107823000D03*
%TD*%
D10*
%TO.C,R3*%
X78486000Y-101791000D03*
X78486000Y-103441000D03*
%TD*%
D14*
%TO.C,R2*%
X80455000Y-110490000D03*
X82105000Y-110490000D03*
%TD*%
D21*
%TO.C,F701*%
X130122000Y-94568472D03*
X133022000Y-94568472D03*
%TD*%
D15*
%TO.C,R604*%
X70358000Y-85661000D03*
X70358000Y-84011000D03*
%TD*%
D18*
%TO.C,Q602*%
X72542000Y-83552000D03*
X72542000Y-85852000D03*
D19*
X78842000Y-85852000D03*
D18*
X72542000Y-88152000D03*
%TD*%
D14*
%TO.C,R703*%
X113983000Y-94488000D03*
X115633000Y-94488000D03*
%TD*%
D22*
%TO.C,C504*%
X106934000Y-115049000D03*
X106934000Y-116599000D03*
%TD*%
D23*
%TO.C,U1*%
X86726000Y-107660000D03*
X86726000Y-106360000D03*
X88026000Y-107660000D03*
X88026000Y-106360000D03*
D24*
X86126000Y-108947500D03*
X86626000Y-108947500D03*
X87126000Y-108947500D03*
X87626000Y-108947500D03*
X88126000Y-108947500D03*
X88626000Y-108947500D03*
D25*
X89313500Y-108260000D03*
X89313500Y-107760000D03*
X89313500Y-107260000D03*
X89313500Y-106760000D03*
X89313500Y-106260000D03*
X89313500Y-105760000D03*
D24*
X88626000Y-105072500D03*
X88126000Y-105072500D03*
X87626000Y-105072500D03*
X87126000Y-105072500D03*
X86626000Y-105072500D03*
X86126000Y-105072500D03*
D25*
X85438500Y-105760000D03*
X85438500Y-106260000D03*
X85438500Y-106760000D03*
X85438500Y-107260000D03*
X85438500Y-107760000D03*
X85438500Y-108260000D03*
%TD*%
D26*
%TO.C,L701*%
X116586000Y-84212000D03*
X116586000Y-90032000D03*
%TD*%
D22*
%TO.C,C704*%
X106934000Y-95999000D03*
X106934000Y-97549000D03*
%TD*%
D14*
%TO.C,R503*%
X113983000Y-113538000D03*
X115633000Y-113538000D03*
%TD*%
D10*
%TO.C,R502*%
X108458000Y-114999000D03*
X108458000Y-116649000D03*
%TD*%
D27*
%TO.C,C502*%
X85598000Y-93154000D03*
X85598000Y-85154000D03*
%TD*%
D15*
%TO.C,R603*%
X68834000Y-85661000D03*
X68834000Y-84011000D03*
%TD*%
D26*
%TO.C,L501*%
X116586000Y-103262000D03*
X116586000Y-109082000D03*
%TD*%
D15*
%TO.C,R402*%
X70358000Y-93027000D03*
X70358000Y-91377000D03*
%TD*%
D22*
%TO.C,C703*%
X114046000Y-95999000D03*
X114046000Y-97549000D03*
%TD*%
D28*
%TO.C,C701*%
X108699000Y-87376000D03*
X110249000Y-87376000D03*
%TD*%
D14*
%TO.C,R501*%
X143975000Y-100940000D03*
X145625000Y-100940000D03*
%TD*%
D22*
%TO.C,C506*%
X115570000Y-115049000D03*
X115570000Y-116599000D03*
%TD*%
D11*
%TO.C,D702*%
X111124000Y-84328000D03*
X107824000Y-84328000D03*
%TD*%
D29*
%TO.C,D501*%
X148787500Y-100940000D03*
X147212500Y-100940000D03*
%TD*%
D30*
%TO.C,C505*%
X124460000Y-110692000D03*
X124460000Y-104192000D03*
%TD*%
D10*
%TO.C,R4*%
X80010000Y-101791000D03*
X80010000Y-103441000D03*
%TD*%
D29*
%TO.C,D701*%
X148869500Y-99060000D03*
X147294500Y-99060000D03*
%TD*%
D28*
%TO.C,C501*%
X108699000Y-106172000D03*
X110249000Y-106172000D03*
%TD*%
D31*
%TO.C,J505*%
X142853632Y-112050000D03*
X142853632Y-107150000D03*
X142853632Y-112050000D03*
X142853632Y-107150000D03*
D32*
X141800000Y-109850000D03*
D33*
X140000000Y-110350000D03*
D34*
X142600000Y-110350000D03*
X142600000Y-109350000D03*
D35*
X140200000Y-108850000D03*
D32*
X143900000Y-109350000D03*
D34*
X143100000Y-108850000D03*
X143100000Y-109850000D03*
D31*
X142853632Y-112850000D03*
D36*
X143272848Y-113278785D03*
D31*
X142853632Y-112850000D03*
D37*
X142600000Y-103030000D03*
D36*
X143278430Y-105893428D03*
D31*
X142853632Y-106350000D03*
D37*
X142600000Y-116170000D03*
D31*
X142853632Y-106350000D03*
D38*
X147948632Y-103753035D03*
D39*
X143780427Y-115446965D03*
X143780427Y-103753035D03*
D38*
X147948632Y-115446965D03*
D40*
X142853632Y-110850000D03*
X142853632Y-108350000D03*
X142853632Y-107850000D03*
X142853632Y-111350000D03*
%TD*%
D30*
%TO.C,C705*%
X124460000Y-91642000D03*
X124460000Y-85142000D03*
%TD*%
D14*
%TO.C,R701*%
X143975000Y-99060000D03*
X145625000Y-99060000D03*
%TD*%
D22*
%TO.C,C706*%
X115570000Y-95999000D03*
X115570000Y-97549000D03*
%TD*%
D41*
%TO.C,D301*%
X66262000Y-84074000D03*
X62262000Y-84074000D03*
%TD*%
D21*
%TO.C,F501*%
X130122000Y-113789801D03*
X133022000Y-113789801D03*
%TD*%
D22*
%TO.C,C503*%
X114046000Y-115049000D03*
X114046000Y-116599000D03*
%TD*%
M02*
