M48
; DRILL file {KiCad 6.0.11+dfsg-1~bpo11+1} date Mon 01 Apr 2024 01:46:49 PM
; FORMAT={-:-/ absolute / inch / decimal}
; #@! TF.CreationDate,2024-04-01T13:46:49-04:00
; #@! TF.GenerationSoftware,Kicad,Pcbnew,6.0.11+dfsg-1~bpo11+1
; #@! TF.FileFunction,Plated,1,2,PTH
FMAT,2
INCH
; #@! TA.AperFunction,Plated,PTH,ViaDrill
T1C0.0157
; #@! TA.AperFunction,Plated,PTH,ComponentDrill
T2C0.0197
; #@! TA.AperFunction,Plated,PTH,ComponentDrill
T3C0.0236
; #@! TA.AperFunction,Plated,PTH,ComponentDrill
T4C0.0256
; #@! TA.AperFunction,Plated,PTH,ViaDrill
T5C0.0315
; #@! TA.AperFunction,Plated,PTH,ViaDrill
T6C0.0362
; #@! TA.AperFunction,Plated,PTH,ComponentDrill
T7C0.0362
; #@! TA.AperFunction,Plated,PTH,ComponentDrill
T8C0.0394
; #@! TA.AperFunction,Plated,PTH,ComponentDrill
T9C0.0394
; #@! TA.AperFunction,Plated,PTH,ComponentDrill
T10C0.0669
; #@! TA.AperFunction,Plated,PTH,ComponentDrill
T11C0.0906
; #@! TA.AperFunction,Plated,PTH,ComponentDrill
T12C0.1181
%
G90
G05
T1
X2.3031Y-3.8677
X2.3031Y-3.9071
X2.3031Y-3.9669
X2.3031Y-4.0063
X3.0675Y-4.05
X3.15Y-4.1
X3.1835Y-4.1235
X3.2112Y-4.1412
X3.23Y-4.1638
X3.2535Y-4.1864
X3.2769Y-4.2061
X3.2972Y-4.2258
X3.3278Y-4.2651
X3.35Y-4.2964
X3.3715Y-4.3191
X3.4095Y-4.2361
X3.41Y-4.1879
X3.4141Y-4.0611
X3.4396Y-4.213
X3.4521Y-4.099
X3.4647Y-4.2379
X3.467Y-4.1883
X3.5542Y-4.3026
X3.5754Y-4.2848
X3.5986Y-4.2651
X3.6227Y-4.2455
X4.33Y-4.3
X4.345Y-3.555
T2
X2.4016Y-3.7008
X2.4016Y-4.1732
X2.59Y-3.61
X2.65Y-3.46
X2.65Y-3.75
X2.7953Y-3.937
X2.7953Y-4.0157
X2.7953Y-4.0945
X2.7953Y-4.1732
X3.0315Y-4.4882
X3.1315Y-4.4882
X3.2315Y-4.4882
X3.2677Y-3.937
X3.3465Y-3.937
X3.3465Y-4.4882
X3.4252Y-3.937
X3.4252Y-4.4882
X3.5039Y-3.937
X3.5039Y-4.4882
X3.5827Y-3.937
X3.5827Y-4.4882
X3.6614Y-3.937
X3.6614Y-4.4882
X3.7402Y-3.937
X3.7402Y-4.4882
X3.8976Y-3.937
X3.8976Y-4.0157
X3.8976Y-4.0945
X3.8976Y-4.1732
X3.8976Y-4.252
X3.8976Y-4.3307
X3.8976Y-4.4094
X3.8976Y-4.4882
X4.09Y-3.49
X4.09Y-4.25
X5.23Y-3.49
X5.23Y-4.25
T4
X5.681Y-4.2012
X5.681Y-4.4287
T5
X2.3228Y-3.7795
X2.3228Y-4.0945
X2.4803Y-3.7795
X2.4803Y-4.0945
X2.7575Y-4.685
X2.9528Y-4.685
X3.937Y-3.189
X3.937Y-4.685
X4.0157Y-3.937
X4.9213Y-3.189
X4.9213Y-3.937
X4.9213Y-4.685
X5.8661Y-3.189
X5.8661Y-4.685
T6
X3.03Y-3.38
X3.03Y-3.67
X3.27Y-3.67
X3.92Y-3.38
T7
X5.4331Y-4.1772
X5.4331Y-4.2756
X5.4331Y-4.3543
X5.4331Y-4.4528
T8
X5.5315Y-3.3268
X5.5315Y-3.7598
T10
X5.3346Y-3.4449
X5.3346Y-3.6417
T11
X5.5398Y-4.0563
X5.5398Y-4.5736
T3
G00X5.6385Y-4.1449
M15
G01X5.6818Y-4.1449
M16
G05
G00X5.6385Y-4.485
M15
G01X5.6818Y-4.485
M16
G05
G00X5.8129Y-4.1449
M15
G01X5.8366Y-4.1449
M16
G05
G00X5.8129Y-4.485
M15
G01X5.8366Y-4.485
M16
G05
T9
G00X5.4331Y-3.5827
M15
G01X5.4331Y-3.5039
M16
G05
G00X5.6693Y-3.5689
M15
G01X5.6693Y-3.5177
M16
G05
G00X5.6791Y-3.3661
M15
G01X5.7382Y-3.3661
M16
G05
G00X5.6791Y-3.7205
M15
G01X5.7382Y-3.7205
M16
G05
T12
G00X5.8137Y-4.3051
M15
G01X5.8137Y-4.3248
M16
G05
T0
M30
