%TF.GenerationSoftware,KiCad,Pcbnew,6.0.11+dfsg-1~bpo11+1*%
%TF.CreationDate,2024-04-01T13:46:52-04:00*%
%TF.ProjectId,Module - TPS540x,4d6f6475-6c65-4202-9d20-545053353430,1.0.0*%
%TF.SameCoordinates,Original*%
%TF.FileFunction,Copper,L2,Bot*%
%TF.FilePolarity,Positive*%
%FSLAX46Y46*%
G04 Gerber Fmt 4.6, Leading zero omitted, Abs format (unit mm)*
G04 Created by KiCad (PCBNEW 6.0.11+dfsg-1~bpo11+1) date 2024-04-01 13:46:52*
%MOMM*%
%LPD*%
G01*
G04 APERTURE LIST*
G04 Aperture macros list*
%AMRoundRect*
0 Rectangle with rounded corners*
0 $1 Rounding radius*
0 $2 $3 $4 $5 $6 $7 $8 $9 X,Y pos of 4 corners*
0 Add a 4 corners polygon primitive as box body*
4,1,4,$2,$3,$4,$5,$6,$7,$8,$9,$2,$3,0*
0 Add four circle primitives for the rounded corners*
1,1,$1+$1,$2,$3*
1,1,$1+$1,$4,$5*
1,1,$1+$1,$6,$7*
1,1,$1+$1,$8,$9*
0 Add four rect primitives between the rounded corners*
20,1,$1+$1,$2,$3,$4,$5,0*
20,1,$1+$1,$4,$5,$6,$7,0*
20,1,$1+$1,$6,$7,$8,$9,0*
20,1,$1+$1,$8,$9,$2,$3,0*%
%AMFreePoly0*
4,1,18,-2.000000,0.800000,-1.984776,0.876537,-1.941421,0.941421,-1.876537,0.984776,-1.800000,1.000000,1.000000,1.000000,2.000000,0.000000,2.000000,-0.800000,1.984776,-0.876537,1.941421,-0.941421,1.876537,-0.984776,1.800000,-1.000000,-1.800000,-1.000000,-1.876537,-0.984776,-1.941421,-0.941421,-1.984776,-0.876537,-2.000000,-0.800000,-2.000000,0.800000,-2.000000,0.800000,$1*%
G04 Aperture macros list end*
%TA.AperFunction,ComponentPad*%
%ADD10RoundRect,0.330000X-0.170000X-0.170000X0.170000X-0.170000X0.170000X0.170000X-0.170000X0.170000X0*%
%TD*%
%TA.AperFunction,ComponentPad*%
%ADD11FreePoly0,90.000000*%
%TD*%
%TA.AperFunction,ComponentPad*%
%ADD12C,2.500000*%
%TD*%
%TA.AperFunction,ComponentPad*%
%ADD13O,2.000000X3.300000*%
%TD*%
%TA.AperFunction,ComponentPad*%
%ADD14C,1.800000*%
%TD*%
%TA.AperFunction,ComponentPad*%
%ADD15O,3.500000X2.000000*%
%TD*%
%TA.AperFunction,ComponentPad*%
%ADD16RoundRect,0.330000X0.170000X-0.170000X0.170000X0.170000X-0.170000X0.170000X-0.170000X-0.170000X0*%
%TD*%
%TA.AperFunction,ComponentPad*%
%ADD17R,1.524000X1.524000*%
%TD*%
%TA.AperFunction,ComponentPad*%
%ADD18C,1.524000*%
%TD*%
%TA.AperFunction,ComponentPad*%
%ADD19O,1.600000X1.000000*%
%TD*%
%TA.AperFunction,SMDPad,CuDef*%
%ADD20RoundRect,0.525000X0.525000X-0.675000X0.525000X0.675000X-0.525000X0.675000X-0.525000X-0.675000X0*%
%TD*%
%TA.AperFunction,ComponentPad*%
%ADD21C,3.500000*%
%TD*%
%TA.AperFunction,SMDPad,CuDef*%
%ADD22RoundRect,0.400000X0.400000X-0.800000X0.400000X0.800000X-0.400000X0.800000X-0.400000X-0.800000X0*%
%TD*%
%TA.AperFunction,ComponentPad*%
%ADD23RoundRect,1.000000X-1.000000X2.000000X-1.000000X-2.000000X1.000000X-2.000000X1.000000X2.000000X0*%
%TD*%
%TA.AperFunction,ComponentPad*%
%ADD24O,2.100000X1.000000*%
%TD*%
%TA.AperFunction,ViaPad*%
%ADD25C,1.600000*%
%TD*%
%TA.AperFunction,ViaPad*%
%ADD26C,0.800000*%
%TD*%
%TA.AperFunction,ViaPad*%
%ADD27C,0.600000*%
%TD*%
%TA.AperFunction,ViaPad*%
%ADD28C,0.500000*%
%TD*%
%TA.AperFunction,ViaPad*%
%ADD29C,1.524000*%
%TD*%
%TA.AperFunction,Conductor*%
%ADD30C,0.250000*%
%TD*%
%TA.AperFunction,Conductor*%
%ADD31C,1.500000*%
%TD*%
G04 APERTURE END LIST*
D10*
%TO.P,TPc1,1,1*%
%TO.N,PC1*%
X87000000Y-114000000D03*
%TD*%
D11*
%TO.P,J706,1,Pin_1*%
%TO.N,VoutB*%
X138000000Y-90000000D03*
D12*
X135500000Y-92500000D03*
D13*
%TO.P,J706,2,Pin_2*%
%TO.N,GND*%
X144000000Y-90000000D03*
D12*
X135500000Y-87500000D03*
D14*
%TO.P,J706,MP,MountPin*%
X140500000Y-95500000D03*
X140500000Y-84500000D03*
D15*
X145000000Y-94500000D03*
X145000000Y-85500000D03*
%TD*%
D10*
%TO.P,TP5,1,1*%
%TO.N,Dat0*%
X71000000Y-106000000D03*
%TD*%
%TO.P,TP301,1,1*%
%TO.N,Vsrc*%
X61000000Y-94000000D03*
%TD*%
D16*
%TO.P,TPc4,1,1*%
%TO.N,PC4*%
X93000000Y-114000000D03*
%TD*%
D10*
%TO.P,TPb4,1,1*%
%TO.N,PB4*%
X99000000Y-108000000D03*
%TD*%
%TO.P,TP502,1,1*%
%TO.N,VoutA*%
X132842000Y-107950000D03*
%TD*%
D16*
%TO.P,TPa2,1,1*%
%TO.N,PA2*%
X85000000Y-100000000D03*
%TD*%
%TO.P,TPc5,1,1*%
%TO.N,PC5*%
X95000000Y-114000000D03*
%TD*%
D10*
%TO.P,TP701,1,1*%
%TO.N,VswB*%
X103886000Y-88646000D03*
%TD*%
D16*
%TO.P,TPa4,1,1*%
%TO.N,PA4*%
X89000000Y-100000000D03*
%TD*%
%TO.P,TP4,1,1*%
%TO.N,GND*%
X77000000Y-114000000D03*
%TD*%
D10*
%TO.P,TPb1,1,1*%
%TO.N,PB1*%
X99000000Y-102000000D03*
%TD*%
D16*
%TO.P,TPc2,1,1*%
%TO.N,PC2*%
X89000000Y-114000000D03*
%TD*%
%TO.P,TPa7,1,1*%
%TO.N,PA7*%
X95000000Y-100000000D03*
%TD*%
D10*
%TO.P,TPc0,1,1*%
%TO.N,PC0*%
X85000000Y-114000000D03*
%TD*%
%TO.P,TP302,1,1*%
%TO.N,Vin*%
X65786000Y-91694000D03*
%TD*%
%TO.P,TPb5,1,1*%
%TO.N,PB5*%
X99000000Y-110000000D03*
%TD*%
%TO.P,TP303,1,1*%
%TO.N,GND*%
X61000000Y-106000000D03*
%TD*%
D16*
%TO.P,TPa0,1,1*%
%TO.N,~{RESET}*%
X82080000Y-114000000D03*
%TD*%
%TO.P,TPa6,1,1*%
%TO.N,PA6*%
X93000000Y-100000000D03*
%TD*%
%TO.P,TPa1,1,1*%
%TO.N,PA1*%
X83000000Y-100000000D03*
%TD*%
D10*
%TO.P,TPa401,1,1*%
%TO.N,PA1*%
X67310000Y-95250000D03*
%TD*%
%TO.P,TPb2,1,1*%
%TO.N,PB2*%
X99000000Y-104000000D03*
%TD*%
%TO.P,TP8,1,1*%
%TO.N,PB0*%
X71000000Y-104000000D03*
%TD*%
%TO.P,TPa602,1,1*%
%TO.N,PA2*%
X67310000Y-87884000D03*
%TD*%
D16*
%TO.P,TP1,1,1*%
%TO.N,I2C-Vcc*%
X79540000Y-114000000D03*
%TD*%
D10*
%TO.P,TP702,1,1*%
%TO.N,VoutB*%
X132842000Y-88646000D03*
%TD*%
D17*
%TO.P,J505,1,VBUS*%
%TO.N,VoutA*%
X138000000Y-113100000D03*
D18*
%TO.P,J505,2,D-*%
%TO.N,unconnected-(J505-Pad2)*%
X138000000Y-110600000D03*
%TO.P,J505,3,D+*%
%TO.N,unconnected-(J505-Pad3)*%
X138000000Y-108600000D03*
%TO.P,J505,4,GND*%
%TO.N,GND*%
X138000000Y-106100000D03*
D19*
%TO.P,J505,5,Shield*%
X147948632Y-113920000D03*
D20*
X143780427Y-103753035D03*
D21*
X140710000Y-116170000D03*
D22*
X147948632Y-103753035D03*
D23*
X147668632Y-109600000D03*
D24*
X143768632Y-113920000D03*
D20*
X143780427Y-115446965D03*
D24*
X143768632Y-105280000D03*
D19*
X147948632Y-105280000D03*
D22*
X147948632Y-115446965D03*
D21*
X140710000Y-103030000D03*
%TD*%
D16*
%TO.P,TPa5,1,1*%
%TO.N,PA5*%
X91000000Y-100000000D03*
%TD*%
D10*
%TO.P,TPb7,1,1*%
%TO.N,PB7*%
X99000000Y-114000000D03*
%TD*%
%TO.P,TPb0,1,1*%
%TO.N,PB0*%
X99000000Y-100000000D03*
%TD*%
%TO.P,TP501,1,1*%
%TO.N,VswA*%
X103886000Y-107950000D03*
%TD*%
%TO.P,TPb3,1,1*%
%TO.N,PB3*%
X99000000Y-106000000D03*
%TD*%
D16*
%TO.P,TPc3,1,1*%
%TO.N,PC3*%
X91000000Y-114000000D03*
%TD*%
%TO.P,TPa3,1,1*%
%TO.N,PA3*%
X87000000Y-100000000D03*
%TD*%
D10*
%TO.P,TP6,1,1*%
%TO.N,I2C-Vcc*%
X71000000Y-100000000D03*
%TD*%
%TO.P,TP7,1,1*%
%TO.N,PB1*%
X71000000Y-102000000D03*
%TD*%
%TO.P,TPb6,1,1*%
%TO.N,PB6*%
X99000000Y-112000000D03*
%TD*%
D25*
%TO.N,GND*%
X70040000Y-119000000D03*
X75000000Y-119000000D03*
X63000000Y-104000000D03*
X149000000Y-119000000D03*
D26*
X86602225Y-107596737D03*
X87366058Y-107010000D03*
D25*
X100000000Y-81000000D03*
D26*
X110363000Y-90297000D03*
X109982000Y-109220000D03*
D25*
X149000000Y-81000000D03*
X125000000Y-81000000D03*
D26*
X88062376Y-106383869D03*
D25*
X125000000Y-100000000D03*
X100000000Y-119000000D03*
X59000000Y-104000000D03*
D26*
X86614000Y-106372094D03*
X88003499Y-107643839D03*
D25*
X125000000Y-119000000D03*
X102000000Y-100000000D03*
D27*
%TO.N,Dat0*%
X58500000Y-101760000D03*
D28*
%TO.N,PA4*%
X90275494Y-109286500D03*
%TO.N,PA5*%
X90816265Y-108834500D03*
%TO.N,PA6*%
X91405346Y-108334500D03*
%TO.N,PA7*%
X92017250Y-107834500D03*
%TO.N,PA1*%
X84526000Y-108334500D03*
%TO.N,PA2*%
X85090000Y-109129500D03*
%TO.N,PA3*%
X85636000Y-109704000D03*
D27*
%TO.N,PB0*%
X80010000Y-104140000D03*
X58500000Y-100760000D03*
%TO.N,PB1*%
X86719221Y-103151601D03*
X58500000Y-99240000D03*
X87682777Y-104115157D03*
X77915000Y-102870000D03*
D28*
%TO.N,PC2*%
X82043020Y-105761020D03*
%TO.N,PC3*%
X82638000Y-106334500D03*
%TO.N,PC4*%
X83232000Y-106834500D03*
%TO.N,PC5*%
X83748000Y-107334500D03*
D25*
%TO.N,Vsrc*%
X63000000Y-96000000D03*
X59000000Y-96000000D03*
D27*
%TO.N,I2C-Vcc*%
X58500000Y-98240000D03*
D28*
%TO.N,PC0*%
X80860520Y-104736520D03*
%TO.N,PC1*%
X81564520Y-105186520D03*
D29*
%TO.N,VswB*%
X99568000Y-85852000D03*
X76962000Y-85852000D03*
%TO.N,VswA*%
X83058000Y-93218000D03*
X76962000Y-93218000D03*
%TD*%
D30*
%TO.N,Dat0*%
X66760000Y-101760000D02*
X58500000Y-101760000D01*
X71000000Y-106000000D02*
X66760000Y-101760000D01*
%TO.N,PA4*%
X90241265Y-109252271D02*
X90241265Y-101241265D01*
X90275494Y-109286500D02*
X90241265Y-109252271D01*
X90241265Y-101241265D02*
X89000000Y-100000000D01*
%TO.N,PA5*%
X90816265Y-108834500D02*
X90816265Y-100183735D01*
X90816265Y-100183735D02*
X91000000Y-100000000D01*
%TO.N,PA6*%
X91405346Y-108334500D02*
X91405346Y-101594654D01*
X91405346Y-101594654D02*
X93000000Y-100000000D01*
%TO.N,PA7*%
X92017250Y-107834500D02*
X92017250Y-102982750D01*
X92017250Y-102982750D02*
X95000000Y-100000000D01*
%TO.N,PA1*%
X77290604Y-98501000D02*
X81501000Y-98501000D01*
X88891265Y-103164057D02*
X88891265Y-108017604D01*
X84746500Y-108555000D02*
X84526000Y-108334500D01*
X85362000Y-102362000D02*
X88089208Y-102362000D01*
X88353869Y-108555000D02*
X84746500Y-108555000D01*
X81501000Y-98501000D02*
X83000000Y-100000000D01*
X88089208Y-102362000D02*
X88891265Y-103164057D01*
X88891265Y-108017604D02*
X88353869Y-108555000D01*
X74039604Y-95250000D02*
X77290604Y-98501000D01*
X83000000Y-100000000D02*
X85362000Y-102362000D01*
X67310000Y-95250000D02*
X74039604Y-95250000D01*
%TO.N,PA2*%
X89341265Y-108204000D02*
X88415765Y-109129500D01*
X89341265Y-102977661D02*
X89341265Y-108204000D01*
X88275604Y-101912000D02*
X89341265Y-102977661D01*
X67310000Y-87884000D02*
X77477000Y-98051000D01*
X77477000Y-98051000D02*
X83051000Y-98051000D01*
X85000000Y-100000000D02*
X86912000Y-101912000D01*
X88415765Y-109129500D02*
X85090000Y-109129500D01*
X86912000Y-101912000D02*
X88275604Y-101912000D01*
X83051000Y-98051000D02*
X85000000Y-100000000D01*
%TO.N,PA3*%
X88900000Y-109728000D02*
X89791265Y-108836735D01*
X89791265Y-102791265D02*
X87000000Y-100000000D01*
X85660000Y-109728000D02*
X88900000Y-109728000D01*
X85636000Y-109704000D02*
X85660000Y-109728000D01*
X89791265Y-108836735D02*
X89791265Y-102791265D01*
%TO.N,PB0*%
X58988000Y-100272000D02*
X58500000Y-100760000D01*
X79870000Y-104000000D02*
X71000000Y-104000000D01*
X80010000Y-104140000D02*
X79870000Y-104000000D01*
X67272000Y-100272000D02*
X58988000Y-100272000D01*
X71000000Y-104000000D02*
X67272000Y-100272000D01*
%TO.N,PB1*%
X59082000Y-99822000D02*
X63500000Y-99822000D01*
X77045000Y-102000000D02*
X71000000Y-102000000D01*
X77915000Y-102870000D02*
X77045000Y-102000000D01*
X71000000Y-102000000D02*
X68822000Y-99822000D01*
X68822000Y-99822000D02*
X63500000Y-99822000D01*
X58500000Y-99240000D02*
X59082000Y-99822000D01*
X86719221Y-103151601D02*
X87682777Y-104115157D01*
%TO.N,PC2*%
X86629000Y-111629000D02*
X84501812Y-111629000D01*
X84501812Y-111629000D02*
X82043020Y-109170208D01*
X89000000Y-114000000D02*
X86629000Y-111629000D01*
X82043020Y-109170208D02*
X82043020Y-105761020D01*
%TO.N,PC3*%
X84688208Y-111179000D02*
X82638000Y-109128792D01*
X88179000Y-111179000D02*
X84688208Y-111179000D01*
X91000000Y-114000000D02*
X88179000Y-111179000D01*
X82638000Y-109128792D02*
X82638000Y-106334500D01*
%TO.N,PC4*%
X89729000Y-110729000D02*
X84874604Y-110729000D01*
X83173000Y-106893500D02*
X83232000Y-106834500D01*
X83173000Y-109027396D02*
X83173000Y-106893500D01*
X84874604Y-110729000D02*
X83173000Y-109027396D01*
X93000000Y-114000000D02*
X89729000Y-110729000D01*
%TO.N,PC5*%
X83748000Y-108966000D02*
X83748000Y-107334500D01*
X85061000Y-110279000D02*
X83748000Y-108966000D01*
X91279000Y-110279000D02*
X85061000Y-110279000D01*
X95000000Y-114000000D02*
X91279000Y-110279000D01*
%TO.N,PC0*%
X80860520Y-109260500D02*
X85000000Y-113399980D01*
X85000000Y-113399980D02*
X85000000Y-114000000D01*
X80860520Y-104736520D02*
X80860520Y-109260500D01*
%TO.N,PC1*%
X87000000Y-114000000D02*
X85079000Y-112079000D01*
X85079000Y-112079000D02*
X84315416Y-112079000D01*
X81468020Y-109231604D02*
X81468020Y-105283020D01*
X81468020Y-105283020D02*
X81564520Y-105186520D01*
X84315416Y-112079000D02*
X81468020Y-109231604D01*
D31*
%TO.N,VswB*%
X103886000Y-88646000D02*
X103730000Y-88646000D01*
X103730000Y-88646000D02*
X100936000Y-85852000D01*
X100936000Y-85852000D02*
X76962000Y-85852000D01*
%TO.N,VswA*%
X104140000Y-107696000D02*
X104140000Y-96520000D01*
X100838000Y-93218000D02*
X76962000Y-93218000D01*
X104140000Y-96520000D02*
X100838000Y-93218000D01*
X103886000Y-107950000D02*
X104140000Y-107696000D01*
%TD*%
%TA.AperFunction,Conductor*%
%TO.N,PB0*%
G36*
X58389029Y-100508792D02*
G01*
X58537457Y-100525516D01*
X58564963Y-100531794D01*
X58699216Y-100578772D01*
X58724635Y-100591013D01*
X58845082Y-100666694D01*
X58867142Y-100684287D01*
X58967713Y-100784858D01*
X58985306Y-100806918D01*
X59060987Y-100927365D01*
X59073228Y-100952784D01*
X59120205Y-101087035D01*
X59126484Y-101114543D01*
X59140664Y-101240392D01*
X59128415Y-101310324D01*
X59080302Y-101362532D01*
X59015456Y-101380500D01*
X58959062Y-101380500D01*
X58890941Y-101360498D01*
X58882374Y-101354474D01*
X58779643Y-101275645D01*
X58644754Y-101219772D01*
X58500000Y-101200715D01*
X58491812Y-101201793D01*
X58363432Y-101218694D01*
X58363430Y-101218695D01*
X58355246Y-101219772D01*
X58307430Y-101239578D01*
X58227986Y-101272485D01*
X58227984Y-101272486D01*
X58220358Y-101275645D01*
X58104526Y-101364526D01*
X58015645Y-101480358D01*
X57959772Y-101615246D01*
X57940715Y-101760000D01*
X57941793Y-101768188D01*
X57957771Y-101889554D01*
X57946832Y-101959703D01*
X57899703Y-102012801D01*
X57832849Y-102032000D01*
X51531079Y-102032000D01*
X51516971Y-102031208D01*
X51368543Y-102014484D01*
X51341037Y-102008206D01*
X51206784Y-101961228D01*
X51181365Y-101948987D01*
X51060918Y-101873306D01*
X51038858Y-101855713D01*
X50938287Y-101755142D01*
X50920694Y-101733082D01*
X50845013Y-101612635D01*
X50832772Y-101587216D01*
X50785795Y-101452965D01*
X50779516Y-101425456D01*
X50763590Y-101284107D01*
X50763590Y-101255893D01*
X50779516Y-101114544D01*
X50785795Y-101087035D01*
X50832772Y-100952784D01*
X50845013Y-100927365D01*
X50920694Y-100806918D01*
X50938287Y-100784858D01*
X51038858Y-100684287D01*
X51060918Y-100666694D01*
X51181365Y-100591013D01*
X51206784Y-100578772D01*
X51341037Y-100531794D01*
X51368543Y-100525516D01*
X51516971Y-100508792D01*
X51531079Y-100508000D01*
X58374921Y-100508000D01*
X58389029Y-100508792D01*
G37*
%TD.AperFunction*%
%TD*%
%TA.AperFunction,Conductor*%
%TO.N,GND*%
G36*
X148987103Y-80256921D02*
G01*
X149000000Y-80259486D01*
X149012170Y-80257065D01*
X149019856Y-80257065D01*
X149032207Y-80257672D01*
X149133092Y-80267609D01*
X149157309Y-80272425D01*
X149273426Y-80307649D01*
X149296226Y-80317093D01*
X149403239Y-80374292D01*
X149423770Y-80388011D01*
X149517556Y-80464981D01*
X149535019Y-80482444D01*
X149611989Y-80576230D01*
X149625708Y-80596761D01*
X149682907Y-80703774D01*
X149692351Y-80726574D01*
X149727575Y-80842691D01*
X149732391Y-80866908D01*
X149742328Y-80967793D01*
X149742935Y-80980144D01*
X149742935Y-80987830D01*
X149740514Y-81000000D01*
X149742935Y-81012170D01*
X149743079Y-81012894D01*
X149745500Y-81037476D01*
X149745500Y-106599135D01*
X149725498Y-106667256D01*
X149671842Y-106713749D01*
X149601568Y-106723853D01*
X149536988Y-106694359D01*
X149530405Y-106688230D01*
X149480232Y-106638057D01*
X149471653Y-106630883D01*
X149297055Y-106509534D01*
X149287348Y-106503997D01*
X149094022Y-106415486D01*
X149083482Y-106411753D01*
X148877290Y-106358813D01*
X148866760Y-106357047D01*
X148733502Y-106346207D01*
X148728397Y-106346000D01*
X147940747Y-106346000D01*
X147925508Y-106350475D01*
X147924303Y-106351865D01*
X147922632Y-106359548D01*
X147922632Y-112835885D01*
X147927107Y-112851124D01*
X147928497Y-112852329D01*
X147936180Y-112854000D01*
X148728397Y-112854000D01*
X148733502Y-112853793D01*
X148866760Y-112842953D01*
X148877290Y-112841187D01*
X149083482Y-112788247D01*
X149094022Y-112784514D01*
X149287348Y-112696003D01*
X149297055Y-112690466D01*
X149471653Y-112569117D01*
X149480232Y-112561943D01*
X149530405Y-112511770D01*
X149592717Y-112477744D01*
X149663532Y-112482809D01*
X149720368Y-112525356D01*
X149745179Y-112591876D01*
X149745500Y-112600865D01*
X149745500Y-118962524D01*
X149743079Y-118987103D01*
X149740514Y-119000000D01*
X149742935Y-119012170D01*
X149742935Y-119019856D01*
X149742328Y-119032207D01*
X149732391Y-119133092D01*
X149727575Y-119157309D01*
X149692351Y-119273426D01*
X149682907Y-119296226D01*
X149625708Y-119403239D01*
X149611989Y-119423770D01*
X149535019Y-119517556D01*
X149517556Y-119535019D01*
X149423770Y-119611989D01*
X149403239Y-119625708D01*
X149296226Y-119682907D01*
X149273426Y-119692351D01*
X149157309Y-119727575D01*
X149133092Y-119732391D01*
X149032207Y-119742328D01*
X149019856Y-119742935D01*
X149012170Y-119742935D01*
X149000000Y-119740514D01*
X148987103Y-119743079D01*
X148962524Y-119745500D01*
X70180761Y-119745500D01*
X70156641Y-119743169D01*
X70143038Y-119740516D01*
X70130875Y-119742982D01*
X70118561Y-119743028D01*
X70107791Y-119742606D01*
X69971926Y-119731449D01*
X69950681Y-119727856D01*
X69841033Y-119699481D01*
X69794919Y-119687548D01*
X69774590Y-119680383D01*
X69653636Y-119625714D01*
X69627978Y-119614117D01*
X69609169Y-119603592D01*
X69476005Y-119513311D01*
X69459263Y-119499733D01*
X69361212Y-119405212D01*
X69354584Y-119396656D01*
X69353760Y-119397376D01*
X69345595Y-119388031D01*
X69339411Y-119377273D01*
X69318771Y-119361374D01*
X69306567Y-119350650D01*
X67711964Y-117756047D01*
X139489120Y-117756047D01*
X139496510Y-117766349D01*
X139551289Y-117810946D01*
X139558568Y-117816061D01*
X139794060Y-117957839D01*
X139801984Y-117961876D01*
X140055108Y-118069061D01*
X140063513Y-118071939D01*
X140329227Y-118142391D01*
X140337948Y-118144055D01*
X140610942Y-118176366D01*
X140619807Y-118176784D01*
X140894616Y-118170307D01*
X140903476Y-118169470D01*
X141174618Y-118124340D01*
X141183275Y-118122261D01*
X141445360Y-118039375D01*
X141453621Y-118036104D01*
X141701416Y-117917114D01*
X141709140Y-117912708D01*
X141924483Y-117768821D01*
X141932771Y-117758903D01*
X141925514Y-117744724D01*
X140722812Y-116542022D01*
X140708868Y-116534408D01*
X140707035Y-116534539D01*
X140700420Y-116538790D01*
X139496286Y-117742924D01*
X139489120Y-117756047D01*
X67711964Y-117756047D01*
X66067262Y-116111344D01*
X138702047Y-116111344D01*
X138712839Y-116386020D01*
X138713814Y-116394849D01*
X138763201Y-116665268D01*
X138765410Y-116673871D01*
X138852405Y-116934628D01*
X138855809Y-116942845D01*
X138978678Y-117188745D01*
X138983196Y-117196384D01*
X139112343Y-117383245D01*
X139122663Y-117391597D01*
X139136317Y-117384473D01*
X140337978Y-116182812D01*
X140344356Y-116171132D01*
X141074408Y-116171132D01*
X141074539Y-116172965D01*
X141078790Y-116179580D01*
X142283657Y-117384447D01*
X142297057Y-117391764D01*
X142306961Y-117384777D01*
X142332549Y-117354336D01*
X142337767Y-117347153D01*
X142483236Y-117113901D01*
X142487388Y-117106061D01*
X142598543Y-116854632D01*
X142601547Y-116846288D01*
X142607452Y-116825351D01*
X142645195Y-116765218D01*
X142709457Y-116735036D01*
X142779835Y-116744388D01*
X142807330Y-116761084D01*
X142832186Y-116780926D01*
X142844028Y-116788384D01*
X142988694Y-116858319D01*
X143001899Y-116862969D01*
X143160127Y-116899499D01*
X143170012Y-116900915D01*
X143171764Y-116900965D01*
X143508312Y-116900965D01*
X143523551Y-116896490D01*
X143524756Y-116895100D01*
X143526427Y-116887417D01*
X143526427Y-116882849D01*
X144034427Y-116882849D01*
X144038902Y-116898088D01*
X144040292Y-116899293D01*
X144047975Y-116900964D01*
X144389120Y-116900964D01*
X144390826Y-116900915D01*
X144400735Y-116899497D01*
X144558955Y-116862969D01*
X144572160Y-116858319D01*
X144716826Y-116788384D01*
X144728668Y-116780927D01*
X144854246Y-116680680D01*
X144864142Y-116670784D01*
X144964389Y-116545206D01*
X144971846Y-116533364D01*
X145041781Y-116388698D01*
X145046431Y-116375493D01*
X145061427Y-116310537D01*
X146894633Y-116310537D01*
X146894827Y-116315472D01*
X146897045Y-116343668D01*
X146899346Y-116356269D01*
X146941438Y-116501151D01*
X146947685Y-116515587D01*
X147023729Y-116644171D01*
X147033369Y-116656598D01*
X147138999Y-116762228D01*
X147151426Y-116771868D01*
X147280010Y-116847912D01*
X147294446Y-116854159D01*
X147439334Y-116896252D01*
X147451921Y-116898552D01*
X147480131Y-116900772D01*
X147485056Y-116900965D01*
X147676517Y-116900965D01*
X147691756Y-116896490D01*
X147692961Y-116895100D01*
X147694632Y-116887417D01*
X147694632Y-116882849D01*
X148202632Y-116882849D01*
X148207107Y-116898088D01*
X148208497Y-116899293D01*
X148216180Y-116900964D01*
X148412204Y-116900964D01*
X148417139Y-116900770D01*
X148445335Y-116898552D01*
X148457936Y-116896251D01*
X148602818Y-116854159D01*
X148617254Y-116847912D01*
X148745838Y-116771868D01*
X148758265Y-116762228D01*
X148863895Y-116656598D01*
X148873535Y-116644171D01*
X148949579Y-116515587D01*
X148955826Y-116501151D01*
X148997919Y-116356263D01*
X149000219Y-116343676D01*
X149002439Y-116315466D01*
X149002632Y-116310541D01*
X149002632Y-115719080D01*
X148998157Y-115703841D01*
X148996767Y-115702636D01*
X148989084Y-115700965D01*
X148220747Y-115700965D01*
X148205508Y-115705440D01*
X148204303Y-115706830D01*
X148202632Y-115714513D01*
X148202632Y-116882849D01*
X147694632Y-116882849D01*
X147694632Y-115719080D01*
X147690157Y-115703841D01*
X147688767Y-115702636D01*
X147681084Y-115700965D01*
X146912748Y-115700965D01*
X146897509Y-115705440D01*
X146896304Y-115706830D01*
X146894633Y-115714513D01*
X146894633Y-116310537D01*
X145061427Y-116310537D01*
X145082961Y-116217265D01*
X145084377Y-116207380D01*
X145084427Y-116205628D01*
X145084427Y-115719080D01*
X145079952Y-115703841D01*
X145078562Y-115702636D01*
X145070879Y-115700965D01*
X144052542Y-115700965D01*
X144037303Y-115705440D01*
X144036098Y-115706830D01*
X144034427Y-115714513D01*
X144034427Y-116882849D01*
X143526427Y-116882849D01*
X143526427Y-115174850D01*
X144034427Y-115174850D01*
X144038902Y-115190089D01*
X144040292Y-115191294D01*
X144047975Y-115192965D01*
X145066311Y-115192965D01*
X145081550Y-115188490D01*
X145082755Y-115187100D01*
X145084426Y-115179417D01*
X145084426Y-115174850D01*
X146894632Y-115174850D01*
X146899107Y-115190089D01*
X146900497Y-115191294D01*
X146908180Y-115192965D01*
X147676517Y-115192965D01*
X147691756Y-115188490D01*
X147692961Y-115187100D01*
X147694632Y-115179417D01*
X147694632Y-115174850D01*
X148202632Y-115174850D01*
X148207107Y-115190089D01*
X148208497Y-115191294D01*
X148216180Y-115192965D01*
X148984516Y-115192965D01*
X148999755Y-115188490D01*
X149000960Y-115187100D01*
X149002631Y-115179417D01*
X149002631Y-114583394D01*
X149002437Y-114578458D01*
X149000219Y-114550262D01*
X148997918Y-114537661D01*
X148955826Y-114392779D01*
X148949577Y-114378339D01*
X148939154Y-114360714D01*
X148921695Y-114291898D01*
X148938652Y-114233294D01*
X148941126Y-114229034D01*
X148946926Y-114215696D01*
X148954303Y-114191338D01*
X148954423Y-114177236D01*
X148947493Y-114174000D01*
X148220747Y-114174000D01*
X148205508Y-114178475D01*
X148204303Y-114179865D01*
X148202632Y-114187548D01*
X148202632Y-115174850D01*
X147694632Y-115174850D01*
X147694632Y-114192115D01*
X147690157Y-114176876D01*
X147688767Y-114175671D01*
X147681084Y-114174000D01*
X146955378Y-114174000D01*
X146941847Y-114177973D01*
X146941116Y-114183056D01*
X146967244Y-114244460D01*
X146975510Y-114314974D01*
X146959756Y-114357933D01*
X146947685Y-114378344D01*
X146941438Y-114392779D01*
X146899345Y-114537667D01*
X146897045Y-114550254D01*
X146894825Y-114578464D01*
X146894632Y-114583390D01*
X146894632Y-115174850D01*
X145084426Y-115174850D01*
X145084426Y-114688272D01*
X145084377Y-114686566D01*
X145082959Y-114676657D01*
X145046431Y-114518437D01*
X145041780Y-114505228D01*
X144984114Y-114385941D01*
X144972474Y-114315905D01*
X144988600Y-114267817D01*
X145011125Y-114229037D01*
X145016926Y-114215696D01*
X145024303Y-114191338D01*
X145024423Y-114177236D01*
X145017493Y-114174000D01*
X144052542Y-114174000D01*
X144037303Y-114178475D01*
X144036098Y-114179865D01*
X144034427Y-114187548D01*
X144034427Y-115174850D01*
X143526427Y-115174850D01*
X143526427Y-114732115D01*
X143519736Y-114709328D01*
X143514632Y-114673830D01*
X143514632Y-114192115D01*
X143510157Y-114176876D01*
X143508767Y-114175671D01*
X143501084Y-114174000D01*
X142525378Y-114174000D01*
X142511847Y-114177973D01*
X142511116Y-114183056D01*
X142556358Y-114289382D01*
X142559808Y-114295429D01*
X142576189Y-114364510D01*
X142563804Y-114412703D01*
X142519073Y-114505232D01*
X142514423Y-114518437D01*
X142477893Y-114676665D01*
X142476477Y-114686550D01*
X142476427Y-114688302D01*
X142476427Y-114833378D01*
X142456425Y-114901499D01*
X142402769Y-114947992D01*
X142332495Y-114958096D01*
X142313273Y-114950062D01*
X142296960Y-114948790D01*
X142282685Y-114956525D01*
X141082022Y-116157188D01*
X141074408Y-116171132D01*
X140344356Y-116171132D01*
X140345592Y-116168868D01*
X140345461Y-116167035D01*
X140341210Y-116160420D01*
X139137460Y-114956670D01*
X139124619Y-114949658D01*
X139113930Y-114957453D01*
X139051052Y-115037213D01*
X139046063Y-115044555D01*
X138907987Y-115282269D01*
X138904088Y-115290227D01*
X138800888Y-115545015D01*
X138798139Y-115553477D01*
X138731873Y-115820247D01*
X138730344Y-115829008D01*
X138702326Y-116102461D01*
X138702047Y-116111344D01*
X66067262Y-116111344D01*
X64227501Y-114271583D01*
X76254335Y-114271583D01*
X76259954Y-114314267D01*
X76264192Y-114330085D01*
X76316717Y-114456892D01*
X76324903Y-114471070D01*
X76408460Y-114579962D01*
X76420040Y-114591542D01*
X76528928Y-114675095D01*
X76543111Y-114683283D01*
X76669916Y-114735808D01*
X76685733Y-114740046D01*
X76728039Y-114745615D01*
X76742221Y-114743404D01*
X76746000Y-114730246D01*
X76746000Y-114729865D01*
X77254000Y-114729865D01*
X77258044Y-114743636D01*
X77271583Y-114745665D01*
X77314267Y-114740046D01*
X77330085Y-114735808D01*
X77456892Y-114683283D01*
X77471070Y-114675097D01*
X77579962Y-114591540D01*
X77591542Y-114579960D01*
X77675095Y-114471072D01*
X77683283Y-114456889D01*
X77735808Y-114330084D01*
X77740046Y-114314267D01*
X77745615Y-114271961D01*
X77743404Y-114257779D01*
X77730246Y-114254000D01*
X77272115Y-114254000D01*
X77256876Y-114258475D01*
X77255671Y-114259865D01*
X77254000Y-114267548D01*
X77254000Y-114729865D01*
X76746000Y-114729865D01*
X76746000Y-114272115D01*
X76741525Y-114256876D01*
X76740135Y-114255671D01*
X76732452Y-114254000D01*
X76270135Y-114254000D01*
X76256364Y-114258044D01*
X76254335Y-114271583D01*
X64227501Y-114271583D01*
X63747605Y-113791687D01*
X78785500Y-113791687D01*
X78785501Y-114208312D01*
X78786039Y-114212396D01*
X78786039Y-114212402D01*
X78793900Y-114272115D01*
X78800544Y-114322585D01*
X78859440Y-114464772D01*
X78864469Y-114471326D01*
X78946674Y-114578458D01*
X78953129Y-114586871D01*
X79075228Y-114680560D01*
X79217415Y-114739456D01*
X79225603Y-114740534D01*
X79327593Y-114753961D01*
X79331687Y-114754500D01*
X79539974Y-114754500D01*
X79748312Y-114754499D01*
X79752396Y-114753961D01*
X79752402Y-114753961D01*
X79854398Y-114740534D01*
X79854400Y-114740533D01*
X79862585Y-114739456D01*
X80004772Y-114680560D01*
X80126871Y-114586871D01*
X80133327Y-114578458D01*
X80215531Y-114471326D01*
X80220560Y-114464772D01*
X80279456Y-114322585D01*
X80286121Y-114271961D01*
X80293962Y-114212400D01*
X80293962Y-114212399D01*
X80294500Y-114208313D01*
X80294499Y-113791688D01*
X80294499Y-113791687D01*
X81325500Y-113791687D01*
X81325501Y-114208312D01*
X81326039Y-114212396D01*
X81326039Y-114212402D01*
X81333900Y-114272115D01*
X81340544Y-114322585D01*
X81399440Y-114464772D01*
X81404469Y-114471326D01*
X81486674Y-114578458D01*
X81493129Y-114586871D01*
X81615228Y-114680560D01*
X81757415Y-114739456D01*
X81765603Y-114740534D01*
X81867593Y-114753961D01*
X81871687Y-114754500D01*
X82079974Y-114754500D01*
X82288312Y-114754499D01*
X82292396Y-114753961D01*
X82292402Y-114753961D01*
X82394398Y-114740534D01*
X82394400Y-114740533D01*
X82402585Y-114739456D01*
X82544772Y-114680560D01*
X82666871Y-114586871D01*
X82673327Y-114578458D01*
X82755531Y-114471326D01*
X82760560Y-114464772D01*
X82819456Y-114322585D01*
X82826121Y-114271961D01*
X82833962Y-114212400D01*
X82833962Y-114212399D01*
X82834500Y-114208313D01*
X82834499Y-113791688D01*
X82827953Y-113741956D01*
X82820534Y-113685602D01*
X82820533Y-113685600D01*
X82819456Y-113677415D01*
X82760560Y-113535228D01*
X82666871Y-113413129D01*
X82544772Y-113319440D01*
X82402585Y-113260544D01*
X82372597Y-113256596D01*
X82292400Y-113246038D01*
X82292399Y-113246038D01*
X82288313Y-113245500D01*
X82080026Y-113245500D01*
X81871688Y-113245501D01*
X81867604Y-113246039D01*
X81867598Y-113246039D01*
X81765602Y-113259466D01*
X81765600Y-113259467D01*
X81757415Y-113260544D01*
X81615228Y-113319440D01*
X81493129Y-113413129D01*
X81399440Y-113535228D01*
X81340544Y-113677415D01*
X81339466Y-113685602D01*
X81339466Y-113685603D01*
X81333830Y-113728417D01*
X81325500Y-113791687D01*
X80294499Y-113791687D01*
X80287953Y-113741956D01*
X80280534Y-113685602D01*
X80280533Y-113685600D01*
X80279456Y-113677415D01*
X80220560Y-113535228D01*
X80126871Y-113413129D01*
X80004772Y-113319440D01*
X79862585Y-113260544D01*
X79832597Y-113256596D01*
X79752400Y-113246038D01*
X79752399Y-113246038D01*
X79748313Y-113245500D01*
X79540026Y-113245500D01*
X79331688Y-113245501D01*
X79327604Y-113246039D01*
X79327598Y-113246039D01*
X79225602Y-113259466D01*
X79225600Y-113259467D01*
X79217415Y-113260544D01*
X79075228Y-113319440D01*
X78953129Y-113413129D01*
X78859440Y-113535228D01*
X78800544Y-113677415D01*
X78799466Y-113685602D01*
X78799466Y-113685603D01*
X78793830Y-113728417D01*
X78785500Y-113791687D01*
X63747605Y-113791687D01*
X63683957Y-113728039D01*
X76254385Y-113728039D01*
X76256596Y-113742221D01*
X76269754Y-113746000D01*
X76727885Y-113746000D01*
X76743124Y-113741525D01*
X76744329Y-113740135D01*
X76746000Y-113732452D01*
X76746000Y-113727885D01*
X77254000Y-113727885D01*
X77258475Y-113743124D01*
X77259865Y-113744329D01*
X77267548Y-113746000D01*
X77729865Y-113746000D01*
X77743636Y-113741956D01*
X77745665Y-113728417D01*
X77740046Y-113685733D01*
X77735808Y-113669915D01*
X77683283Y-113543108D01*
X77675097Y-113528930D01*
X77591540Y-113420038D01*
X77579960Y-113408458D01*
X77471072Y-113324905D01*
X77456889Y-113316717D01*
X77330084Y-113264192D01*
X77314267Y-113259954D01*
X77271961Y-113254385D01*
X77257779Y-113256596D01*
X77254000Y-113269754D01*
X77254000Y-113727885D01*
X76746000Y-113727885D01*
X76746000Y-113270135D01*
X76741956Y-113256364D01*
X76728417Y-113254335D01*
X76685733Y-113259954D01*
X76669915Y-113264192D01*
X76543108Y-113316717D01*
X76528930Y-113324903D01*
X76420038Y-113408460D01*
X76408458Y-113420040D01*
X76324905Y-113528928D01*
X76316717Y-113543111D01*
X76264192Y-113669916D01*
X76259954Y-113685733D01*
X76254385Y-113728039D01*
X63683957Y-113728039D01*
X59357851Y-109401933D01*
X59351235Y-109394786D01*
X59347187Y-109390058D01*
X59341110Y-109379238D01*
X59333353Y-109373138D01*
X59328049Y-109367707D01*
X59327838Y-109367460D01*
X59327594Y-109367240D01*
X59182604Y-109218765D01*
X59179367Y-109216220D01*
X59179362Y-109216215D01*
X59046114Y-109111433D01*
X59005371Y-109079394D01*
X58897589Y-109015448D01*
X58815007Y-108966453D01*
X58815005Y-108966452D01*
X58811462Y-108964350D01*
X58807673Y-108962728D01*
X58807670Y-108962726D01*
X58607983Y-108877221D01*
X58604195Y-108875599D01*
X58412368Y-108821750D01*
X58391094Y-108815778D01*
X58391092Y-108815778D01*
X58387118Y-108814662D01*
X58383032Y-108814075D01*
X58383029Y-108814074D01*
X58181750Y-108785140D01*
X58181369Y-108785060D01*
X58180986Y-108785030D01*
X58173582Y-108783966D01*
X58164044Y-108781289D01*
X58151719Y-108782763D01*
X58136291Y-108784608D01*
X58121329Y-108785500D01*
X51037476Y-108785500D01*
X51012897Y-108783079D01*
X51000000Y-108780514D01*
X50987830Y-108782935D01*
X50980144Y-108782935D01*
X50967793Y-108782328D01*
X50866908Y-108772391D01*
X50842691Y-108767575D01*
X50726574Y-108732351D01*
X50703774Y-108722907D01*
X50596761Y-108665708D01*
X50576230Y-108651989D01*
X50482444Y-108575019D01*
X50464981Y-108557556D01*
X50388011Y-108463770D01*
X50374292Y-108443239D01*
X50317093Y-108336226D01*
X50307649Y-108313426D01*
X50272425Y-108197309D01*
X50267609Y-108173092D01*
X50257672Y-108072207D01*
X50257065Y-108059856D01*
X50257065Y-108052170D01*
X50259486Y-108040000D01*
X50256921Y-108027103D01*
X50254500Y-108002524D01*
X50254500Y-106271583D01*
X60254335Y-106271583D01*
X60259954Y-106314267D01*
X60264192Y-106330085D01*
X60316717Y-106456892D01*
X60324903Y-106471070D01*
X60408460Y-106579962D01*
X60420040Y-106591542D01*
X60528928Y-106675095D01*
X60543111Y-106683283D01*
X60669916Y-106735808D01*
X60685733Y-106740046D01*
X60728039Y-106745615D01*
X60742221Y-106743404D01*
X60746000Y-106730246D01*
X60746000Y-106729865D01*
X61254000Y-106729865D01*
X61258044Y-106743636D01*
X61271583Y-106745665D01*
X61314267Y-106740046D01*
X61330085Y-106735808D01*
X61456892Y-106683283D01*
X61471070Y-106675097D01*
X61579962Y-106591540D01*
X61591542Y-106579960D01*
X61675095Y-106471072D01*
X61683283Y-106456889D01*
X61735808Y-106330084D01*
X61740046Y-106314267D01*
X61745615Y-106271961D01*
X61743404Y-106257779D01*
X61730246Y-106254000D01*
X61272115Y-106254000D01*
X61256876Y-106258475D01*
X61255671Y-106259865D01*
X61254000Y-106267548D01*
X61254000Y-106729865D01*
X60746000Y-106729865D01*
X60746000Y-106272115D01*
X60741525Y-106256876D01*
X60740135Y-106255671D01*
X60732452Y-106254000D01*
X60270135Y-106254000D01*
X60256364Y-106258044D01*
X60254335Y-106271583D01*
X50254500Y-106271583D01*
X50254500Y-105728039D01*
X60254385Y-105728039D01*
X60256596Y-105742221D01*
X60269754Y-105746000D01*
X60727885Y-105746000D01*
X60743124Y-105741525D01*
X60744329Y-105740135D01*
X60746000Y-105732452D01*
X60746000Y-105727885D01*
X61254000Y-105727885D01*
X61258475Y-105743124D01*
X61259865Y-105744329D01*
X61267548Y-105746000D01*
X61729865Y-105746000D01*
X61743636Y-105741956D01*
X61745665Y-105728417D01*
X61740046Y-105685733D01*
X61735808Y-105669915D01*
X61683283Y-105543108D01*
X61675097Y-105528930D01*
X61591540Y-105420038D01*
X61579960Y-105408458D01*
X61471072Y-105324905D01*
X61456889Y-105316717D01*
X61330084Y-105264192D01*
X61314267Y-105259954D01*
X61271961Y-105254385D01*
X61257779Y-105256596D01*
X61254000Y-105269754D01*
X61254000Y-105727885D01*
X60746000Y-105727885D01*
X60746000Y-105270135D01*
X60741956Y-105256364D01*
X60728417Y-105254335D01*
X60685733Y-105259954D01*
X60669915Y-105264192D01*
X60543108Y-105316717D01*
X60528930Y-105324903D01*
X60420038Y-105408460D01*
X60408458Y-105420040D01*
X60324905Y-105528928D01*
X60316717Y-105543111D01*
X60264192Y-105669916D01*
X60259954Y-105685733D01*
X60254385Y-105728039D01*
X50254500Y-105728039D01*
X50254500Y-103254759D01*
X50274502Y-103186638D01*
X50283100Y-103174826D01*
X50285022Y-103172484D01*
X50302485Y-103155021D01*
X50434842Y-103046399D01*
X50455369Y-103032683D01*
X50606371Y-102951971D01*
X50629191Y-102942518D01*
X50793043Y-102892815D01*
X50817260Y-102887999D01*
X50993837Y-102870607D01*
X51006187Y-102870000D01*
X64516000Y-102870000D01*
X64516000Y-102156166D01*
X64550845Y-102140627D01*
X64567662Y-102139500D01*
X66550616Y-102139500D01*
X66618737Y-102159502D01*
X66639711Y-102176405D01*
X70208595Y-105745289D01*
X70242621Y-105807601D01*
X70245500Y-105834384D01*
X70245501Y-106019620D01*
X70245501Y-106208312D01*
X70246039Y-106212396D01*
X70246039Y-106212402D01*
X70259449Y-106314267D01*
X70260544Y-106322585D01*
X70319440Y-106464772D01*
X70413129Y-106586871D01*
X70419679Y-106591897D01*
X70517890Y-106667256D01*
X70535228Y-106680560D01*
X70677415Y-106739456D01*
X70685603Y-106740534D01*
X70787593Y-106753961D01*
X70791687Y-106754500D01*
X70999974Y-106754500D01*
X71208312Y-106754499D01*
X71212396Y-106753961D01*
X71212402Y-106753961D01*
X71314398Y-106740534D01*
X71314400Y-106740533D01*
X71322585Y-106739456D01*
X71464772Y-106680560D01*
X71482110Y-106667256D01*
X71580321Y-106591897D01*
X71586871Y-106586871D01*
X71680560Y-106464772D01*
X71739456Y-106322585D01*
X71740551Y-106314267D01*
X71753962Y-106212400D01*
X71753962Y-106212399D01*
X71754500Y-106208313D01*
X71754499Y-105791688D01*
X71752102Y-105773473D01*
X71740534Y-105685602D01*
X71740533Y-105685600D01*
X71739456Y-105677415D01*
X71680560Y-105535228D01*
X71586871Y-105413129D01*
X71464772Y-105319440D01*
X71322585Y-105260544D01*
X71292597Y-105256596D01*
X71212400Y-105246038D01*
X71212399Y-105246038D01*
X71208313Y-105245500D01*
X71171633Y-105245500D01*
X70834385Y-105245501D01*
X70766265Y-105225499D01*
X70745290Y-105208596D01*
X70440325Y-104903631D01*
X70406299Y-104841319D01*
X70411364Y-104770504D01*
X70453911Y-104713668D01*
X70520431Y-104688857D01*
X70577638Y-104698127D01*
X70669786Y-104736296D01*
X70677415Y-104739456D01*
X70685603Y-104740534D01*
X70787593Y-104753961D01*
X70791687Y-104754500D01*
X70999974Y-104754500D01*
X71208312Y-104754499D01*
X71212396Y-104753961D01*
X71212402Y-104753961D01*
X71314398Y-104740534D01*
X71314400Y-104740533D01*
X71322585Y-104739456D01*
X71464772Y-104680560D01*
X71477301Y-104670946D01*
X71580321Y-104591897D01*
X71586871Y-104586871D01*
X71645372Y-104510631D01*
X71675531Y-104471326D01*
X71680560Y-104464772D01*
X71683721Y-104457140D01*
X71687850Y-104449989D01*
X71689004Y-104450655D01*
X71728205Y-104402005D01*
X71800071Y-104379500D01*
X79432706Y-104379500D01*
X79500827Y-104399502D01*
X79532668Y-104428796D01*
X79609495Y-104528919D01*
X79609500Y-104528924D01*
X79614526Y-104535474D01*
X79621076Y-104540500D01*
X79621079Y-104540503D01*
X79723804Y-104619327D01*
X79730357Y-104624355D01*
X79865246Y-104680228D01*
X79873434Y-104681306D01*
X79930791Y-104688857D01*
X80010000Y-104699285D01*
X80018188Y-104698207D01*
X80059062Y-104692826D01*
X80089209Y-104688857D01*
X80146566Y-104681306D01*
X80154754Y-104680228D01*
X80162382Y-104677068D01*
X80162387Y-104677067D01*
X80182738Y-104668637D01*
X80253328Y-104661047D01*
X80316815Y-104692826D01*
X80353043Y-104753884D01*
X80355893Y-104768707D01*
X80360304Y-104802438D01*
X80369608Y-104873585D01*
X80427809Y-105005859D01*
X80433581Y-105012726D01*
X80433585Y-105012732D01*
X80451470Y-105034008D01*
X80479992Y-105099024D01*
X80481020Y-105115084D01*
X80481020Y-109206580D01*
X80478471Y-109230528D01*
X80478392Y-109232193D01*
X80476200Y-109242376D01*
X80477424Y-109252717D01*
X80480147Y-109275723D01*
X80480497Y-109281654D01*
X80480592Y-109281646D01*
X80481020Y-109286824D01*
X80481020Y-109292024D01*
X80481874Y-109297153D01*
X80481874Y-109297156D01*
X80484189Y-109311065D01*
X80485026Y-109316943D01*
X80488125Y-109343124D01*
X80491050Y-109367841D01*
X80495013Y-109376093D01*
X80496516Y-109385126D01*
X80501463Y-109394295D01*
X80501464Y-109394297D01*
X80520854Y-109430232D01*
X80523551Y-109435525D01*
X80542305Y-109474582D01*
X80542308Y-109474586D01*
X80545739Y-109481732D01*
X80549334Y-109486008D01*
X80551257Y-109487931D01*
X80553029Y-109489863D01*
X80553072Y-109489942D01*
X80552948Y-109490055D01*
X80553424Y-109490595D01*
X80556510Y-109496314D01*
X80564155Y-109503381D01*
X80596106Y-109532916D01*
X80599672Y-109536346D01*
X84362489Y-113299163D01*
X84396515Y-113361475D01*
X84391450Y-113432290D01*
X84373357Y-113464961D01*
X84324469Y-113528674D01*
X84319440Y-113535228D01*
X84260544Y-113677415D01*
X84259466Y-113685602D01*
X84259466Y-113685603D01*
X84253830Y-113728417D01*
X84245500Y-113791687D01*
X84245501Y-114208312D01*
X84246039Y-114212396D01*
X84246039Y-114212402D01*
X84253900Y-114272115D01*
X84260544Y-114322585D01*
X84319440Y-114464772D01*
X84324469Y-114471326D01*
X84406674Y-114578458D01*
X84413129Y-114586871D01*
X84535228Y-114680560D01*
X84677415Y-114739456D01*
X84685603Y-114740534D01*
X84787593Y-114753961D01*
X84791687Y-114754500D01*
X84999974Y-114754500D01*
X85208312Y-114754499D01*
X85212396Y-114753961D01*
X85212402Y-114753961D01*
X85314398Y-114740534D01*
X85314400Y-114740533D01*
X85322585Y-114739456D01*
X85464772Y-114680560D01*
X85586871Y-114586871D01*
X85593327Y-114578458D01*
X85675531Y-114471326D01*
X85680560Y-114464772D01*
X85739456Y-114322585D01*
X85746121Y-114271961D01*
X85753962Y-114212400D01*
X85753962Y-114212399D01*
X85754500Y-114208313D01*
X85754499Y-113791688D01*
X85747953Y-113741956D01*
X85740534Y-113685602D01*
X85740533Y-113685600D01*
X85739456Y-113677415D01*
X85698127Y-113577638D01*
X85690538Y-113507048D01*
X85722317Y-113443561D01*
X85783375Y-113407334D01*
X85854327Y-113409868D01*
X85903631Y-113440325D01*
X86208595Y-113745289D01*
X86242621Y-113807601D01*
X86245500Y-113834384D01*
X86245501Y-114208312D01*
X86246039Y-114212396D01*
X86246039Y-114212402D01*
X86253900Y-114272115D01*
X86260544Y-114322585D01*
X86319440Y-114464772D01*
X86324469Y-114471326D01*
X86406674Y-114578458D01*
X86413129Y-114586871D01*
X86535228Y-114680560D01*
X86677415Y-114739456D01*
X86685603Y-114740534D01*
X86787593Y-114753961D01*
X86791687Y-114754500D01*
X86999974Y-114754500D01*
X87208312Y-114754499D01*
X87212396Y-114753961D01*
X87212402Y-114753961D01*
X87314398Y-114740534D01*
X87314400Y-114740533D01*
X87322585Y-114739456D01*
X87464772Y-114680560D01*
X87586871Y-114586871D01*
X87593327Y-114578458D01*
X87675531Y-114471326D01*
X87680560Y-114464772D01*
X87739456Y-114322585D01*
X87746121Y-114271961D01*
X87753962Y-114212400D01*
X87753962Y-114212399D01*
X87754500Y-114208313D01*
X87754499Y-113791688D01*
X87747953Y-113741956D01*
X87740534Y-113685602D01*
X87740533Y-113685600D01*
X87739456Y-113677415D01*
X87698127Y-113577638D01*
X87690538Y-113507048D01*
X87722317Y-113443561D01*
X87783375Y-113407334D01*
X87854327Y-113409868D01*
X87903631Y-113440325D01*
X88208595Y-113745289D01*
X88242621Y-113807601D01*
X88245500Y-113834384D01*
X88245501Y-114208312D01*
X88246039Y-114212396D01*
X88246039Y-114212402D01*
X88253900Y-114272115D01*
X88260544Y-114322585D01*
X88319440Y-114464772D01*
X88324469Y-114471326D01*
X88406674Y-114578458D01*
X88413129Y-114586871D01*
X88535228Y-114680560D01*
X88677415Y-114739456D01*
X88685603Y-114740534D01*
X88787593Y-114753961D01*
X88791687Y-114754500D01*
X88999974Y-114754500D01*
X89208312Y-114754499D01*
X89212396Y-114753961D01*
X89212402Y-114753961D01*
X89314398Y-114740534D01*
X89314400Y-114740533D01*
X89322585Y-114739456D01*
X89464772Y-114680560D01*
X89586871Y-114586871D01*
X89593327Y-114578458D01*
X89675531Y-114471326D01*
X89680560Y-114464772D01*
X89739456Y-114322585D01*
X89746121Y-114271961D01*
X89753962Y-114212400D01*
X89753962Y-114212399D01*
X89754500Y-114208313D01*
X89754499Y-113791688D01*
X89747953Y-113741956D01*
X89740534Y-113685602D01*
X89740533Y-113685600D01*
X89739456Y-113677415D01*
X89698127Y-113577638D01*
X89690538Y-113507050D01*
X89722317Y-113443563D01*
X89783375Y-113407335D01*
X89854326Y-113409869D01*
X89903631Y-113440326D01*
X90208595Y-113745290D01*
X90242621Y-113807602D01*
X90245500Y-113834384D01*
X90245501Y-114208312D01*
X90246039Y-114212396D01*
X90246039Y-114212402D01*
X90253900Y-114272115D01*
X90260544Y-114322585D01*
X90319440Y-114464772D01*
X90324469Y-114471326D01*
X90406674Y-114578458D01*
X90413129Y-114586871D01*
X90535228Y-114680560D01*
X90677415Y-114739456D01*
X90685603Y-114740534D01*
X90787593Y-114753961D01*
X90791687Y-114754500D01*
X90999974Y-114754500D01*
X91208312Y-114754499D01*
X91212396Y-114753961D01*
X91212402Y-114753961D01*
X91314398Y-114740534D01*
X91314400Y-114740533D01*
X91322585Y-114739456D01*
X91464772Y-114680560D01*
X91586871Y-114586871D01*
X91593327Y-114578458D01*
X91675531Y-114471326D01*
X91680560Y-114464772D01*
X91739456Y-114322585D01*
X91746121Y-114271961D01*
X91753962Y-114212400D01*
X91753962Y-114212399D01*
X91754500Y-114208313D01*
X91754499Y-113791688D01*
X91747953Y-113741956D01*
X91740534Y-113685602D01*
X91740533Y-113685600D01*
X91739456Y-113677415D01*
X91698127Y-113577638D01*
X91690538Y-113507048D01*
X91722317Y-113443561D01*
X91783375Y-113407334D01*
X91854327Y-113409868D01*
X91903631Y-113440325D01*
X92208595Y-113745289D01*
X92242621Y-113807601D01*
X92245500Y-113834384D01*
X92245501Y-114208312D01*
X92246039Y-114212396D01*
X92246039Y-114212402D01*
X92253900Y-114272115D01*
X92260544Y-114322585D01*
X92319440Y-114464772D01*
X92324469Y-114471326D01*
X92406674Y-114578458D01*
X92413129Y-114586871D01*
X92535228Y-114680560D01*
X92677415Y-114739456D01*
X92685603Y-114740534D01*
X92787593Y-114753961D01*
X92791687Y-114754500D01*
X92999974Y-114754500D01*
X93208312Y-114754499D01*
X93212396Y-114753961D01*
X93212402Y-114753961D01*
X93314398Y-114740534D01*
X93314400Y-114740533D01*
X93322585Y-114739456D01*
X93464772Y-114680560D01*
X93586871Y-114586871D01*
X93593327Y-114578458D01*
X93675531Y-114471326D01*
X93680560Y-114464772D01*
X93739456Y-114322585D01*
X93746121Y-114271961D01*
X93753962Y-114212400D01*
X93753962Y-114212399D01*
X93754500Y-114208313D01*
X93754499Y-113791688D01*
X93747953Y-113741956D01*
X93740534Y-113685602D01*
X93740533Y-113685600D01*
X93739456Y-113677415D01*
X93698127Y-113577638D01*
X93690538Y-113507048D01*
X93722317Y-113443561D01*
X93783375Y-113407334D01*
X93854327Y-113409868D01*
X93903631Y-113440325D01*
X94208595Y-113745289D01*
X94242621Y-113807601D01*
X94245500Y-113834384D01*
X94245501Y-114208312D01*
X94246039Y-114212396D01*
X94246039Y-114212402D01*
X94253900Y-114272115D01*
X94260544Y-114322585D01*
X94319440Y-114464772D01*
X94324469Y-114471326D01*
X94406674Y-114578458D01*
X94413129Y-114586871D01*
X94535228Y-114680560D01*
X94677415Y-114739456D01*
X94685603Y-114740534D01*
X94787593Y-114753961D01*
X94791687Y-114754500D01*
X94999974Y-114754500D01*
X95208312Y-114754499D01*
X95212396Y-114753961D01*
X95212402Y-114753961D01*
X95314398Y-114740534D01*
X95314400Y-114740533D01*
X95322585Y-114739456D01*
X95464772Y-114680560D01*
X95586871Y-114586871D01*
X95593327Y-114578458D01*
X95675531Y-114471326D01*
X95680560Y-114464772D01*
X95739456Y-114322585D01*
X95746121Y-114271961D01*
X95753962Y-114212400D01*
X95753962Y-114212399D01*
X95754500Y-114208313D01*
X95754499Y-113791688D01*
X95754499Y-113791687D01*
X98245500Y-113791687D01*
X98245501Y-114208312D01*
X98246039Y-114212396D01*
X98246039Y-114212402D01*
X98253900Y-114272115D01*
X98260544Y-114322585D01*
X98319440Y-114464772D01*
X98324469Y-114471326D01*
X98406674Y-114578458D01*
X98413129Y-114586871D01*
X98535228Y-114680560D01*
X98677415Y-114739456D01*
X98685603Y-114740534D01*
X98787593Y-114753961D01*
X98791687Y-114754500D01*
X98999974Y-114754500D01*
X99208312Y-114754499D01*
X99212396Y-114753961D01*
X99212402Y-114753961D01*
X99314398Y-114740534D01*
X99314400Y-114740533D01*
X99322585Y-114739456D01*
X99464772Y-114680560D01*
X99586871Y-114586871D01*
X99589175Y-114583868D01*
X139489225Y-114583868D01*
X139496205Y-114596995D01*
X140697188Y-115797978D01*
X140711132Y-115805592D01*
X140712965Y-115805461D01*
X140719580Y-115801210D01*
X141923299Y-114597491D01*
X141930153Y-114584939D01*
X141921946Y-114573869D01*
X141816593Y-114493466D01*
X141809163Y-114488586D01*
X141569332Y-114354274D01*
X141561282Y-114350486D01*
X141304917Y-114251305D01*
X141296427Y-114248693D01*
X141028634Y-114186623D01*
X141019856Y-114185233D01*
X140745990Y-114161513D01*
X140737119Y-114161373D01*
X140462634Y-114176479D01*
X140453824Y-114177593D01*
X140184223Y-114231219D01*
X140175637Y-114233568D01*
X139916292Y-114324644D01*
X139908124Y-114328179D01*
X139664188Y-114454892D01*
X139656620Y-114459529D01*
X139497627Y-114573147D01*
X139489225Y-114583868D01*
X99589175Y-114583868D01*
X99593327Y-114578458D01*
X99675531Y-114471326D01*
X99680560Y-114464772D01*
X99739456Y-114322585D01*
X99746121Y-114271961D01*
X99753962Y-114212400D01*
X99753962Y-114212399D01*
X99754500Y-114208313D01*
X99754499Y-113791688D01*
X99747953Y-113741956D01*
X99740534Y-113685602D01*
X99740533Y-113685600D01*
X99739456Y-113677415D01*
X99680560Y-113535228D01*
X99586871Y-113413129D01*
X99464772Y-113319440D01*
X99322585Y-113260544D01*
X99292597Y-113256596D01*
X99212400Y-113246038D01*
X99212399Y-113246038D01*
X99208313Y-113245500D01*
X99000026Y-113245500D01*
X98791688Y-113245501D01*
X98787604Y-113246039D01*
X98787598Y-113246039D01*
X98685602Y-113259466D01*
X98685600Y-113259467D01*
X98677415Y-113260544D01*
X98535228Y-113319440D01*
X98413129Y-113413129D01*
X98319440Y-113535228D01*
X98260544Y-113677415D01*
X98259466Y-113685602D01*
X98259466Y-113685603D01*
X98253830Y-113728417D01*
X98245500Y-113791687D01*
X95754499Y-113791687D01*
X95747953Y-113741956D01*
X95740534Y-113685602D01*
X95740533Y-113685600D01*
X95739456Y-113677415D01*
X95680560Y-113535228D01*
X95586871Y-113413129D01*
X95464772Y-113319440D01*
X95322585Y-113260544D01*
X95292597Y-113256596D01*
X95212400Y-113246038D01*
X95212399Y-113246038D01*
X95208313Y-113245500D01*
X95171633Y-113245500D01*
X94834385Y-113245501D01*
X94766265Y-113225499D01*
X94745290Y-113208596D01*
X93328381Y-111791687D01*
X98245500Y-111791687D01*
X98245501Y-112208312D01*
X98246039Y-112212396D01*
X98246039Y-112212402D01*
X98259466Y-112314397D01*
X98260544Y-112322585D01*
X98319440Y-112464772D01*
X98324469Y-112471326D01*
X98355503Y-112511770D01*
X98413129Y-112586871D01*
X98419679Y-112591897D01*
X98473366Y-112633092D01*
X98535228Y-112680560D01*
X98677415Y-112739456D01*
X98685603Y-112740534D01*
X98787593Y-112753961D01*
X98791687Y-112754500D01*
X98999974Y-112754500D01*
X99208312Y-112754499D01*
X99212396Y-112753961D01*
X99212402Y-112753961D01*
X99314398Y-112740534D01*
X99314400Y-112740533D01*
X99322585Y-112739456D01*
X99464772Y-112680560D01*
X99526634Y-112633092D01*
X99580321Y-112591897D01*
X99586871Y-112586871D01*
X99644498Y-112511770D01*
X99675531Y-112471326D01*
X99680560Y-112464772D01*
X99739456Y-112322585D01*
X99740727Y-112312933D01*
X136983500Y-112312933D01*
X136983501Y-113887066D01*
X136998266Y-113961301D01*
X137054516Y-114045484D01*
X137138699Y-114101734D01*
X137212933Y-114116500D01*
X137999872Y-114116500D01*
X138787066Y-114116499D01*
X138822818Y-114109388D01*
X138849126Y-114104156D01*
X138849128Y-114104155D01*
X138861301Y-114101734D01*
X138871621Y-114094839D01*
X138871622Y-114094838D01*
X138935168Y-114052377D01*
X138945484Y-114045484D01*
X139001734Y-113961301D01*
X139016500Y-113887067D01*
X139016500Y-113662764D01*
X142512841Y-113662764D01*
X142519771Y-113666000D01*
X143496517Y-113666000D01*
X143511756Y-113661525D01*
X143512961Y-113660135D01*
X143514632Y-113652452D01*
X143514632Y-113184115D01*
X143510157Y-113168876D01*
X143508767Y-113167671D01*
X143501084Y-113166000D01*
X143178269Y-113166000D01*
X143170965Y-113166425D01*
X143051266Y-113180380D01*
X143037113Y-113183725D01*
X142885602Y-113238721D01*
X142872604Y-113245230D01*
X142737806Y-113333608D01*
X142726654Y-113342932D01*
X142615804Y-113459947D01*
X142607092Y-113471592D01*
X142526138Y-113610966D01*
X142520338Y-113624304D01*
X142512961Y-113648662D01*
X142512841Y-113662764D01*
X139016500Y-113662764D01*
X139016499Y-112490000D01*
X143714132Y-112490000D01*
X143734048Y-112641280D01*
X143792440Y-112782250D01*
X143885328Y-112903304D01*
X144002483Y-112993200D01*
X144044349Y-113050537D01*
X144048571Y-113121408D01*
X144025326Y-113167164D01*
X144022632Y-113179548D01*
X144022632Y-113647885D01*
X144027107Y-113663124D01*
X144028497Y-113664329D01*
X144036180Y-113666000D01*
X145011886Y-113666000D01*
X145022907Y-113662764D01*
X146942841Y-113662764D01*
X146949771Y-113666000D01*
X147676517Y-113666000D01*
X147691756Y-113661525D01*
X147692961Y-113660135D01*
X147694632Y-113652452D01*
X147694632Y-113647885D01*
X148202632Y-113647885D01*
X148207107Y-113663124D01*
X148208497Y-113664329D01*
X148216180Y-113666000D01*
X148941886Y-113666000D01*
X148955417Y-113662027D01*
X148956148Y-113656944D01*
X148910903Y-113550612D01*
X148903703Y-113537988D01*
X148808165Y-113408167D01*
X148798251Y-113397536D01*
X148675407Y-113293172D01*
X148663319Y-113285110D01*
X148519761Y-113211805D01*
X148506136Y-113206738D01*
X148347916Y-113168023D01*
X148336857Y-113166340D01*
X148333311Y-113166120D01*
X148329433Y-113166000D01*
X148220747Y-113166000D01*
X148205508Y-113170475D01*
X148204303Y-113171865D01*
X148202632Y-113179548D01*
X148202632Y-113647885D01*
X147694632Y-113647885D01*
X147694632Y-113184115D01*
X147690157Y-113168876D01*
X147688767Y-113167671D01*
X147681084Y-113166000D01*
X147608269Y-113166000D01*
X147600965Y-113166425D01*
X147481266Y-113180380D01*
X147467113Y-113183725D01*
X147315602Y-113238721D01*
X147302604Y-113245230D01*
X147167806Y-113333608D01*
X147156654Y-113342932D01*
X147045804Y-113459947D01*
X147037092Y-113471592D01*
X146956138Y-113610966D01*
X146950338Y-113624304D01*
X146942961Y-113648662D01*
X146942841Y-113662764D01*
X145022907Y-113662764D01*
X145025417Y-113662027D01*
X145026148Y-113656944D01*
X144980903Y-113550612D01*
X144973703Y-113537988D01*
X144878165Y-113408167D01*
X144868251Y-113397536D01*
X144745407Y-113293172D01*
X144733318Y-113285109D01*
X144597497Y-113215755D01*
X144545924Y-113166961D01*
X144528918Y-113098032D01*
X144551878Y-113030850D01*
X144589002Y-112996971D01*
X144590882Y-112996192D01*
X144711936Y-112903304D01*
X144804824Y-112782250D01*
X144863216Y-112641280D01*
X144883132Y-112490000D01*
X144863216Y-112338720D01*
X144804824Y-112197750D01*
X144711936Y-112076696D01*
X144590882Y-111983808D01*
X144449912Y-111925416D01*
X144336612Y-111910500D01*
X144260652Y-111910500D01*
X144147352Y-111925416D01*
X144006382Y-111983808D01*
X143885328Y-112076696D01*
X143792440Y-112197750D01*
X143734048Y-112338720D01*
X143714132Y-112490000D01*
X139016499Y-112490000D01*
X139016499Y-112312934D01*
X139001734Y-112238699D01*
X138984162Y-112212400D01*
X138952377Y-112164832D01*
X138945484Y-112154516D01*
X138861301Y-112098266D01*
X138787067Y-112083500D01*
X138000128Y-112083500D01*
X137212934Y-112083501D01*
X137177906Y-112090468D01*
X137150874Y-112095844D01*
X137150872Y-112095845D01*
X137138699Y-112098266D01*
X137128379Y-112105161D01*
X137128378Y-112105162D01*
X137067985Y-112145516D01*
X137054516Y-112154516D01*
X136998266Y-112238699D01*
X136983500Y-112312933D01*
X99740727Y-112312933D01*
X99754500Y-112208313D01*
X99754499Y-111791688D01*
X99752118Y-111773595D01*
X99740534Y-111685602D01*
X99740533Y-111685600D01*
X99739456Y-111677415D01*
X99732145Y-111659765D01*
X145414632Y-111659765D01*
X145414839Y-111664870D01*
X145425679Y-111798128D01*
X145427445Y-111808658D01*
X145480385Y-112014850D01*
X145484118Y-112025390D01*
X145572629Y-112218716D01*
X145578166Y-112228423D01*
X145699515Y-112403021D01*
X145706689Y-112411600D01*
X145857032Y-112561943D01*
X145865611Y-112569117D01*
X146040209Y-112690466D01*
X146049916Y-112696003D01*
X146243242Y-112784514D01*
X146253782Y-112788247D01*
X146459974Y-112841187D01*
X146470504Y-112842953D01*
X146603762Y-112853793D01*
X146608867Y-112854000D01*
X147396517Y-112854000D01*
X147411756Y-112849525D01*
X147412961Y-112848135D01*
X147414632Y-112840452D01*
X147414632Y-109872115D01*
X147410157Y-109856876D01*
X147408767Y-109855671D01*
X147401084Y-109854000D01*
X145432747Y-109854000D01*
X145417508Y-109858475D01*
X145416303Y-109859865D01*
X145414632Y-109867548D01*
X145414632Y-111659765D01*
X99732145Y-111659765D01*
X99680560Y-111535228D01*
X99586871Y-111413129D01*
X99464772Y-111319440D01*
X99322585Y-111260544D01*
X99314397Y-111259466D01*
X99212400Y-111246038D01*
X99212399Y-111246038D01*
X99208313Y-111245500D01*
X99000026Y-111245500D01*
X98791688Y-111245501D01*
X98787604Y-111246039D01*
X98787598Y-111246039D01*
X98685602Y-111259466D01*
X98685600Y-111259467D01*
X98677415Y-111260544D01*
X98535228Y-111319440D01*
X98413129Y-111413129D01*
X98319440Y-111535228D01*
X98260544Y-111677415D01*
X98245500Y-111791687D01*
X93328381Y-111791687D01*
X91585478Y-110048784D01*
X91570336Y-110030036D01*
X91569221Y-110028811D01*
X91563571Y-110020060D01*
X91555393Y-110013613D01*
X91555391Y-110013611D01*
X91537200Y-109999271D01*
X91532759Y-109995325D01*
X91532697Y-109995398D01*
X91528733Y-109992039D01*
X91525056Y-109988362D01*
X91509308Y-109977108D01*
X91504638Y-109973602D01*
X91464353Y-109941844D01*
X91455719Y-109938812D01*
X91448266Y-109933486D01*
X91399150Y-109918797D01*
X91393508Y-109916964D01*
X91352633Y-109902610D01*
X91352632Y-109902610D01*
X91345149Y-109899982D01*
X91339584Y-109899500D01*
X91336876Y-109899500D01*
X91334242Y-109899386D01*
X91334144Y-109899357D01*
X91334151Y-109899193D01*
X91333447Y-109899149D01*
X91327222Y-109897287D01*
X91273365Y-109899403D01*
X91268418Y-109899500D01*
X90682086Y-109899500D01*
X90613965Y-109879498D01*
X90567472Y-109825842D01*
X90562561Y-109791687D01*
X98245500Y-109791687D01*
X98245501Y-110208312D01*
X98246039Y-110212396D01*
X98246039Y-110212402D01*
X98259466Y-110314397D01*
X98260544Y-110322585D01*
X98319440Y-110464772D01*
X98413129Y-110586871D01*
X98419679Y-110591897D01*
X98471973Y-110632023D01*
X98535228Y-110680560D01*
X98677415Y-110739456D01*
X98685603Y-110740534D01*
X98787593Y-110753961D01*
X98791687Y-110754500D01*
X98999974Y-110754500D01*
X99208312Y-110754499D01*
X99212396Y-110753961D01*
X99212402Y-110753961D01*
X99314398Y-110740534D01*
X99314400Y-110740533D01*
X99322585Y-110739456D01*
X99464772Y-110680560D01*
X99528027Y-110632023D01*
X99580321Y-110591897D01*
X99586871Y-110586871D01*
X99587740Y-110585739D01*
X136978682Y-110585739D01*
X136995362Y-110784386D01*
X137050310Y-110976009D01*
X137141430Y-111153311D01*
X137265253Y-111309537D01*
X137417063Y-111438737D01*
X137422441Y-111441743D01*
X137422443Y-111441744D01*
X137464397Y-111465191D01*
X137591076Y-111535989D01*
X137596935Y-111537893D01*
X137596938Y-111537894D01*
X137612222Y-111542860D01*
X137780665Y-111597591D01*
X137786775Y-111598320D01*
X137786777Y-111598320D01*
X137854314Y-111606373D01*
X137978609Y-111621194D01*
X137984744Y-111620722D01*
X137984746Y-111620722D01*
X138171226Y-111606373D01*
X138171231Y-111606372D01*
X138177367Y-111605900D01*
X138183297Y-111604244D01*
X138183299Y-111604244D01*
X138275496Y-111578502D01*
X138369370Y-111552292D01*
X138374870Y-111549514D01*
X138541802Y-111465191D01*
X138541804Y-111465190D01*
X138547303Y-111462412D01*
X138704390Y-111339682D01*
X138718276Y-111323595D01*
X138830618Y-111193446D01*
X138830619Y-111193444D01*
X138834647Y-111188778D01*
X138933112Y-111015448D01*
X138996035Y-110826294D01*
X139006869Y-110740534D01*
X139020578Y-110632023D01*
X139020579Y-110632013D01*
X139021020Y-110628520D01*
X139021418Y-110600000D01*
X139001965Y-110401606D01*
X139000184Y-110395707D01*
X139000183Y-110395702D01*
X138946129Y-110216667D01*
X138944348Y-110210768D01*
X138850761Y-110034756D01*
X138846871Y-110029986D01*
X138846868Y-110029982D01*
X138728663Y-109885049D01*
X138728660Y-109885046D01*
X138724768Y-109880274D01*
X138693009Y-109854000D01*
X138612745Y-109787600D01*
X138571170Y-109753206D01*
X138493602Y-109711265D01*
X138443193Y-109661270D01*
X138427816Y-109591959D01*
X138452352Y-109525337D01*
X138496720Y-109487963D01*
X138499201Y-109486710D01*
X138547303Y-109462412D01*
X138681583Y-109357501D01*
X138699534Y-109343476D01*
X138704390Y-109339682D01*
X138714573Y-109327885D01*
X145414632Y-109327885D01*
X145419107Y-109343124D01*
X145420497Y-109344329D01*
X145428180Y-109346000D01*
X147396517Y-109346000D01*
X147411756Y-109341525D01*
X147412961Y-109340135D01*
X147414632Y-109332452D01*
X147414632Y-106364115D01*
X147410157Y-106348876D01*
X147408767Y-106347671D01*
X147401084Y-106346000D01*
X146608867Y-106346000D01*
X146603762Y-106346207D01*
X146470504Y-106357047D01*
X146459974Y-106358813D01*
X146253782Y-106411753D01*
X146243242Y-106415486D01*
X146049916Y-106503997D01*
X146040209Y-106509534D01*
X145865611Y-106630883D01*
X145857032Y-106638057D01*
X145706689Y-106788400D01*
X145699515Y-106796979D01*
X145578166Y-106971577D01*
X145572629Y-106981284D01*
X145484118Y-107174610D01*
X145480385Y-107185150D01*
X145427445Y-107391342D01*
X145425679Y-107401872D01*
X145414839Y-107535130D01*
X145414632Y-107540235D01*
X145414632Y-109327885D01*
X138714573Y-109327885D01*
X138718584Y-109323238D01*
X138830618Y-109193446D01*
X138830619Y-109193444D01*
X138834647Y-109188778D01*
X138933112Y-109015448D01*
X138996035Y-108826294D01*
X139007610Y-108734669D01*
X139020578Y-108632023D01*
X139020579Y-108632013D01*
X139021020Y-108628520D01*
X139021418Y-108600000D01*
X139001965Y-108401606D01*
X139000184Y-108395707D01*
X139000183Y-108395702D01*
X138946129Y-108216667D01*
X138944348Y-108210768D01*
X138864107Y-108059856D01*
X138853655Y-108040198D01*
X138853653Y-108040195D01*
X138850761Y-108034756D01*
X138846871Y-108029986D01*
X138846868Y-108029982D01*
X138728663Y-107885049D01*
X138728660Y-107885046D01*
X138724768Y-107880274D01*
X138714546Y-107871817D01*
X138637670Y-107808220D01*
X138571170Y-107753206D01*
X138395815Y-107658392D01*
X138205385Y-107599444D01*
X138199260Y-107598800D01*
X138199259Y-107598800D01*
X138013260Y-107579251D01*
X138013258Y-107579251D01*
X138007131Y-107578607D01*
X137884252Y-107589790D01*
X137814746Y-107596115D01*
X137814745Y-107596115D01*
X137808605Y-107596674D01*
X137802691Y-107598415D01*
X137802689Y-107598415D01*
X137708373Y-107626174D01*
X137617370Y-107652958D01*
X137440709Y-107745314D01*
X137435909Y-107749174D01*
X137435908Y-107749174D01*
X137430893Y-107753206D01*
X137285351Y-107870225D01*
X137157214Y-108022933D01*
X137061179Y-108197621D01*
X137059318Y-108203488D01*
X137059317Y-108203490D01*
X137031040Y-108292628D01*
X137000902Y-108387635D01*
X136978682Y-108585739D01*
X136995362Y-108784386D01*
X137022836Y-108880197D01*
X137047570Y-108966453D01*
X137050310Y-108976009D01*
X137053125Y-108981486D01*
X137127482Y-109126170D01*
X137141430Y-109153311D01*
X137265253Y-109309537D01*
X137417063Y-109438737D01*
X137506849Y-109488916D01*
X137508502Y-109489840D01*
X137558208Y-109540533D01*
X137572617Y-109610052D01*
X137547153Y-109676325D01*
X137505408Y-109711489D01*
X137446173Y-109742457D01*
X137446169Y-109742459D01*
X137440709Y-109745314D01*
X137435909Y-109749174D01*
X137435908Y-109749174D01*
X137426007Y-109757135D01*
X137285351Y-109870225D01*
X137157214Y-110022933D01*
X137061179Y-110197621D01*
X137059318Y-110203488D01*
X137059317Y-110203490D01*
X137057787Y-110208313D01*
X137000902Y-110387635D01*
X136978682Y-110585739D01*
X99587740Y-110585739D01*
X99680560Y-110464772D01*
X99739456Y-110322585D01*
X99754500Y-110208313D01*
X99754499Y-109791688D01*
X99749951Y-109757135D01*
X99740534Y-109685602D01*
X99740533Y-109685600D01*
X99739456Y-109677415D01*
X99680560Y-109535228D01*
X99608828Y-109441744D01*
X99591897Y-109419679D01*
X99586871Y-109413129D01*
X99550377Y-109385126D01*
X99471326Y-109324469D01*
X99464772Y-109319440D01*
X99322585Y-109260544D01*
X99314397Y-109259466D01*
X99212400Y-109246038D01*
X99212399Y-109246038D01*
X99208313Y-109245500D01*
X99000026Y-109245500D01*
X98791688Y-109245501D01*
X98787604Y-109246039D01*
X98787598Y-109246039D01*
X98685602Y-109259466D01*
X98685600Y-109259467D01*
X98677415Y-109260544D01*
X98535228Y-109319440D01*
X98528674Y-109324469D01*
X98449624Y-109385126D01*
X98413129Y-109413129D01*
X98408103Y-109419679D01*
X98391172Y-109441744D01*
X98319440Y-109535228D01*
X98312372Y-109552292D01*
X98267232Y-109661270D01*
X98260544Y-109677415D01*
X98245500Y-109791687D01*
X90562561Y-109791687D01*
X90557368Y-109755568D01*
X90586862Y-109690988D01*
X90596757Y-109681300D01*
X90601066Y-109678654D01*
X90698045Y-109571514D01*
X90735609Y-109493981D01*
X90757140Y-109449542D01*
X90757141Y-109449538D01*
X90761054Y-109441462D01*
X90762543Y-109432611D01*
X90764325Y-109427027D01*
X90804091Y-109368213D01*
X90868787Y-109340302D01*
X90870285Y-109340115D01*
X90879263Y-109340280D01*
X90964863Y-109316943D01*
X91010028Y-109304630D01*
X91010030Y-109304629D01*
X91018687Y-109302269D01*
X91141837Y-109226654D01*
X91238816Y-109119514D01*
X91301825Y-108989462D01*
X91308221Y-108951448D01*
X91309346Y-108944760D01*
X91340373Y-108880902D01*
X91400999Y-108843956D01*
X91435907Y-108839686D01*
X91459366Y-108840116D01*
X91459370Y-108840116D01*
X91468344Y-108840280D01*
X91477008Y-108837918D01*
X91599109Y-108804630D01*
X91599111Y-108804629D01*
X91607768Y-108802269D01*
X91730918Y-108726654D01*
X91827897Y-108619514D01*
X91865502Y-108541897D01*
X91886991Y-108497543D01*
X91886991Y-108497542D01*
X91890906Y-108489462D01*
X91898497Y-108444343D01*
X91929524Y-108380485D01*
X91990150Y-108343539D01*
X92025059Y-108339269D01*
X92071270Y-108340116D01*
X92071274Y-108340116D01*
X92080248Y-108340280D01*
X92117174Y-108330213D01*
X92211013Y-108304630D01*
X92211015Y-108304629D01*
X92219672Y-108302269D01*
X92342822Y-108226654D01*
X92439801Y-108119514D01*
X92480590Y-108035324D01*
X92498895Y-107997543D01*
X92498895Y-107997542D01*
X92502810Y-107989462D01*
X92526786Y-107846953D01*
X92526938Y-107834500D01*
X92520807Y-107791687D01*
X98245500Y-107791687D01*
X98245501Y-108208312D01*
X98246039Y-108212396D01*
X98246039Y-108212402D01*
X98259337Y-108313416D01*
X98260544Y-108322585D01*
X98319440Y-108464772D01*
X98413129Y-108586871D01*
X98419679Y-108591897D01*
X98470066Y-108630560D01*
X98535228Y-108680560D01*
X98677415Y-108739456D01*
X98685603Y-108740534D01*
X98787593Y-108753961D01*
X98791687Y-108754500D01*
X98999974Y-108754500D01*
X99208312Y-108754499D01*
X99212396Y-108753961D01*
X99212402Y-108753961D01*
X99314398Y-108740534D01*
X99314400Y-108740533D01*
X99322585Y-108739456D01*
X99464772Y-108680560D01*
X99529934Y-108630560D01*
X99580321Y-108591897D01*
X99586871Y-108586871D01*
X99680560Y-108464772D01*
X99739456Y-108322585D01*
X99747116Y-108264398D01*
X99753962Y-108212400D01*
X99753962Y-108212399D01*
X99754500Y-108208313D01*
X99754499Y-107791688D01*
X99752640Y-107777560D01*
X99740534Y-107685602D01*
X99740533Y-107685600D01*
X99739456Y-107677415D01*
X99680560Y-107535228D01*
X99586871Y-107413129D01*
X99572201Y-107401872D01*
X99471326Y-107324469D01*
X99464772Y-107319440D01*
X99344062Y-107269440D01*
X99330214Y-107263704D01*
X99322585Y-107260544D01*
X99314397Y-107259466D01*
X99212400Y-107246038D01*
X99212399Y-107246038D01*
X99208313Y-107245500D01*
X99000026Y-107245500D01*
X98791688Y-107245501D01*
X98787604Y-107246039D01*
X98787598Y-107246039D01*
X98685602Y-107259466D01*
X98685600Y-107259467D01*
X98677415Y-107260544D01*
X98535228Y-107319440D01*
X98528674Y-107324469D01*
X98427800Y-107401872D01*
X98413129Y-107413129D01*
X98319440Y-107535228D01*
X98260544Y-107677415D01*
X98259466Y-107685602D01*
X98259466Y-107685603D01*
X98252083Y-107741687D01*
X98245500Y-107791687D01*
X92520807Y-107791687D01*
X92512649Y-107734726D01*
X92507724Y-107700335D01*
X92507723Y-107700333D01*
X92506451Y-107691448D01*
X92446638Y-107559895D01*
X92427297Y-107537448D01*
X92397983Y-107472787D01*
X92396750Y-107455201D01*
X92396750Y-105791687D01*
X98245500Y-105791687D01*
X98245501Y-106208312D01*
X98246039Y-106212396D01*
X98246039Y-106212402D01*
X98259449Y-106314267D01*
X98260544Y-106322585D01*
X98319440Y-106464772D01*
X98413129Y-106586871D01*
X98419679Y-106591897D01*
X98517890Y-106667256D01*
X98535228Y-106680560D01*
X98677415Y-106739456D01*
X98685603Y-106740534D01*
X98787593Y-106753961D01*
X98791687Y-106754500D01*
X98999974Y-106754500D01*
X99208312Y-106754499D01*
X99212396Y-106753961D01*
X99212402Y-106753961D01*
X99314398Y-106740534D01*
X99314400Y-106740533D01*
X99322585Y-106739456D01*
X99464772Y-106680560D01*
X99482110Y-106667256D01*
X99580321Y-106591897D01*
X99586871Y-106586871D01*
X99680560Y-106464772D01*
X99739456Y-106322585D01*
X99740551Y-106314267D01*
X99753962Y-106212400D01*
X99753962Y-106212399D01*
X99754500Y-106208313D01*
X99754499Y-105791688D01*
X99752102Y-105773473D01*
X99740534Y-105685602D01*
X99740533Y-105685600D01*
X99739456Y-105677415D01*
X99680560Y-105535228D01*
X99586871Y-105413129D01*
X99464772Y-105319440D01*
X99322585Y-105260544D01*
X99292597Y-105256596D01*
X99212400Y-105246038D01*
X99212399Y-105246038D01*
X99208313Y-105245500D01*
X99000026Y-105245500D01*
X98791688Y-105245501D01*
X98787604Y-105246039D01*
X98787598Y-105246039D01*
X98685602Y-105259466D01*
X98685600Y-105259467D01*
X98677415Y-105260544D01*
X98535228Y-105319440D01*
X98413129Y-105413129D01*
X98319440Y-105535228D01*
X98260544Y-105677415D01*
X98259466Y-105685602D01*
X98259466Y-105685603D01*
X98253830Y-105728417D01*
X98245500Y-105791687D01*
X92396750Y-105791687D01*
X92396750Y-103791687D01*
X98245500Y-103791687D01*
X98245501Y-104208312D01*
X98246039Y-104212396D01*
X98246039Y-104212402D01*
X98255564Y-104284754D01*
X98260544Y-104322585D01*
X98319440Y-104464772D01*
X98324469Y-104471326D01*
X98354629Y-104510631D01*
X98413129Y-104586871D01*
X98419679Y-104591897D01*
X98522699Y-104670946D01*
X98535228Y-104680560D01*
X98677415Y-104739456D01*
X98685603Y-104740534D01*
X98787593Y-104753961D01*
X98791687Y-104754500D01*
X98999974Y-104754500D01*
X99208312Y-104754499D01*
X99212396Y-104753961D01*
X99212402Y-104753961D01*
X99314398Y-104740534D01*
X99314400Y-104740533D01*
X99322585Y-104739456D01*
X99464772Y-104680560D01*
X99477301Y-104670946D01*
X99580321Y-104591897D01*
X99586871Y-104586871D01*
X99645372Y-104510631D01*
X99675531Y-104471326D01*
X99680560Y-104464772D01*
X99739456Y-104322585D01*
X99740972Y-104311072D01*
X99753962Y-104212400D01*
X99753962Y-104212399D01*
X99754500Y-104208313D01*
X99754499Y-103791688D01*
X99748295Y-103744555D01*
X99740534Y-103685602D01*
X99740533Y-103685600D01*
X99739456Y-103677415D01*
X99680560Y-103535228D01*
X99675531Y-103528674D01*
X99591897Y-103419679D01*
X99586871Y-103413129D01*
X99464772Y-103319440D01*
X99322585Y-103260544D01*
X99278643Y-103254759D01*
X99212400Y-103246038D01*
X99212399Y-103246038D01*
X99208313Y-103245500D01*
X99000026Y-103245500D01*
X98791688Y-103245501D01*
X98787604Y-103246039D01*
X98787598Y-103246039D01*
X98685602Y-103259466D01*
X98685600Y-103259467D01*
X98677415Y-103260544D01*
X98535228Y-103319440D01*
X98413129Y-103413129D01*
X98408103Y-103419679D01*
X98324469Y-103528674D01*
X98319440Y-103535228D01*
X98260544Y-103677415D01*
X98259466Y-103685602D01*
X98259466Y-103685603D01*
X98256138Y-103710886D01*
X98245500Y-103791687D01*
X92396750Y-103791687D01*
X92396750Y-103192134D01*
X92416752Y-103124013D01*
X92433655Y-103103039D01*
X93745007Y-101791687D01*
X98245500Y-101791687D01*
X98245501Y-102208312D01*
X98246039Y-102212396D01*
X98246039Y-102212402D01*
X98259327Y-102313343D01*
X98260544Y-102322585D01*
X98319440Y-102464772D01*
X98413129Y-102586871D01*
X98535228Y-102680560D01*
X98677415Y-102739456D01*
X98685603Y-102740534D01*
X98787593Y-102753961D01*
X98791687Y-102754500D01*
X98999974Y-102754500D01*
X99208312Y-102754499D01*
X99212396Y-102753961D01*
X99212402Y-102753961D01*
X99314398Y-102740534D01*
X99314400Y-102740533D01*
X99322585Y-102739456D01*
X99464772Y-102680560D01*
X99586871Y-102586871D01*
X99680560Y-102464772D01*
X99739456Y-102322585D01*
X99754500Y-102208313D01*
X99754499Y-101791688D01*
X99751616Y-101769782D01*
X99740534Y-101685602D01*
X99740533Y-101685600D01*
X99739456Y-101677415D01*
X99680560Y-101535228D01*
X99635363Y-101476325D01*
X99591897Y-101419679D01*
X99586871Y-101413129D01*
X99464772Y-101319440D01*
X99322585Y-101260544D01*
X99276676Y-101254500D01*
X99212400Y-101246038D01*
X99212399Y-101246038D01*
X99208313Y-101245500D01*
X99000026Y-101245500D01*
X98791688Y-101245501D01*
X98787604Y-101246039D01*
X98787598Y-101246039D01*
X98685602Y-101259466D01*
X98685600Y-101259467D01*
X98677415Y-101260544D01*
X98535228Y-101319440D01*
X98413129Y-101413129D01*
X98408103Y-101419679D01*
X98364637Y-101476325D01*
X98319440Y-101535228D01*
X98316279Y-101542860D01*
X98266580Y-101662844D01*
X98260544Y-101677415D01*
X98245500Y-101791687D01*
X93745007Y-101791687D01*
X94745289Y-100791405D01*
X94807601Y-100757379D01*
X94834384Y-100754500D01*
X95171624Y-100754499D01*
X95208312Y-100754499D01*
X95212396Y-100753961D01*
X95212402Y-100753961D01*
X95314398Y-100740534D01*
X95314400Y-100740533D01*
X95322585Y-100739456D01*
X95464772Y-100680560D01*
X95549892Y-100615246D01*
X95580321Y-100591897D01*
X95586871Y-100586871D01*
X95680560Y-100464772D01*
X95739456Y-100322585D01*
X95754500Y-100208313D01*
X95754499Y-99791688D01*
X95754499Y-99791687D01*
X98245500Y-99791687D01*
X98245501Y-100208312D01*
X98246039Y-100212396D01*
X98246039Y-100212402D01*
X98259466Y-100314397D01*
X98260544Y-100322585D01*
X98319440Y-100464772D01*
X98413129Y-100586871D01*
X98419679Y-100591897D01*
X98450108Y-100615246D01*
X98535228Y-100680560D01*
X98677415Y-100739456D01*
X98685603Y-100740534D01*
X98787593Y-100753961D01*
X98791687Y-100754500D01*
X98999974Y-100754500D01*
X99208312Y-100754499D01*
X99212396Y-100753961D01*
X99212402Y-100753961D01*
X99314398Y-100740534D01*
X99314400Y-100740533D01*
X99322585Y-100739456D01*
X99464772Y-100680560D01*
X99549892Y-100615246D01*
X99580321Y-100591897D01*
X99586871Y-100586871D01*
X99680560Y-100464772D01*
X99739456Y-100322585D01*
X99754500Y-100208313D01*
X99754499Y-99791688D01*
X99752991Y-99780228D01*
X99740534Y-99685602D01*
X99740533Y-99685600D01*
X99739456Y-99677415D01*
X99680560Y-99535228D01*
X99633196Y-99473501D01*
X99591897Y-99419679D01*
X99586871Y-99413129D01*
X99464772Y-99319440D01*
X99322585Y-99260544D01*
X99314397Y-99259466D01*
X99212400Y-99246038D01*
X99212399Y-99246038D01*
X99208313Y-99245500D01*
X99000026Y-99245500D01*
X98791688Y-99245501D01*
X98787604Y-99246039D01*
X98787598Y-99246039D01*
X98685602Y-99259466D01*
X98685600Y-99259467D01*
X98677415Y-99260544D01*
X98535228Y-99319440D01*
X98413129Y-99413129D01*
X98408103Y-99419679D01*
X98366804Y-99473501D01*
X98319440Y-99535228D01*
X98260544Y-99677415D01*
X98245500Y-99791687D01*
X95754499Y-99791687D01*
X95752991Y-99780228D01*
X95740534Y-99685602D01*
X95740533Y-99685600D01*
X95739456Y-99677415D01*
X95680560Y-99535228D01*
X95633196Y-99473501D01*
X95591897Y-99419679D01*
X95586871Y-99413129D01*
X95464772Y-99319440D01*
X95322585Y-99260544D01*
X95314397Y-99259466D01*
X95212400Y-99246038D01*
X95212399Y-99246038D01*
X95208313Y-99245500D01*
X95000026Y-99245500D01*
X94791688Y-99245501D01*
X94787604Y-99246039D01*
X94787598Y-99246039D01*
X94685602Y-99259466D01*
X94685600Y-99259467D01*
X94677415Y-99260544D01*
X94535228Y-99319440D01*
X94413129Y-99413129D01*
X94408103Y-99419679D01*
X94366804Y-99473501D01*
X94319440Y-99535228D01*
X94260544Y-99677415D01*
X94245500Y-99791687D01*
X94245501Y-99999631D01*
X94245501Y-100165615D01*
X94225499Y-100233735D01*
X94208596Y-100254710D01*
X93903631Y-100559675D01*
X93841319Y-100593701D01*
X93770504Y-100588636D01*
X93713668Y-100546089D01*
X93688857Y-100479569D01*
X93698127Y-100422362D01*
X93736296Y-100330214D01*
X93736296Y-100330213D01*
X93739456Y-100322585D01*
X93754500Y-100208313D01*
X93754499Y-99791688D01*
X93752991Y-99780228D01*
X93740534Y-99685602D01*
X93740533Y-99685600D01*
X93739456Y-99677415D01*
X93680560Y-99535228D01*
X93633196Y-99473501D01*
X93591897Y-99419679D01*
X93586871Y-99413129D01*
X93464772Y-99319440D01*
X93322585Y-99260544D01*
X93314397Y-99259466D01*
X93212400Y-99246038D01*
X93212399Y-99246038D01*
X93208313Y-99245500D01*
X93000026Y-99245500D01*
X92791688Y-99245501D01*
X92787604Y-99246039D01*
X92787598Y-99246039D01*
X92685602Y-99259466D01*
X92685600Y-99259467D01*
X92677415Y-99260544D01*
X92535228Y-99319440D01*
X92413129Y-99413129D01*
X92408103Y-99419679D01*
X92366804Y-99473501D01*
X92319440Y-99535228D01*
X92260544Y-99677415D01*
X92245500Y-99791687D01*
X92245501Y-99999631D01*
X92245501Y-100165615D01*
X92225499Y-100233735D01*
X92208596Y-100254710D01*
X91903631Y-100559675D01*
X91841319Y-100593701D01*
X91770504Y-100588636D01*
X91713668Y-100546089D01*
X91688857Y-100479569D01*
X91698127Y-100422362D01*
X91736296Y-100330214D01*
X91736296Y-100330213D01*
X91739456Y-100322585D01*
X91754500Y-100208313D01*
X91754499Y-99791688D01*
X91752991Y-99780228D01*
X91740534Y-99685602D01*
X91740533Y-99685600D01*
X91739456Y-99677415D01*
X91680560Y-99535228D01*
X91633196Y-99473501D01*
X91591897Y-99419679D01*
X91586871Y-99413129D01*
X91464772Y-99319440D01*
X91322585Y-99260544D01*
X91314397Y-99259466D01*
X91212400Y-99246038D01*
X91212399Y-99246038D01*
X91208313Y-99245500D01*
X91000026Y-99245500D01*
X90791688Y-99245501D01*
X90787604Y-99246039D01*
X90787598Y-99246039D01*
X90685602Y-99259466D01*
X90685600Y-99259467D01*
X90677415Y-99260544D01*
X90535228Y-99319440D01*
X90413129Y-99413129D01*
X90408103Y-99419679D01*
X90366804Y-99473501D01*
X90319440Y-99535228D01*
X90260544Y-99677415D01*
X90245500Y-99791687D01*
X90245501Y-100208312D01*
X90246039Y-100212396D01*
X90246039Y-100212402D01*
X90259466Y-100314397D01*
X90260544Y-100322585D01*
X90301873Y-100422362D01*
X90309462Y-100492950D01*
X90277683Y-100556437D01*
X90216625Y-100592665D01*
X90145674Y-100590131D01*
X90096369Y-100559674D01*
X89791405Y-100254710D01*
X89757379Y-100192398D01*
X89754500Y-100165615D01*
X89754499Y-99795811D01*
X89754499Y-99791688D01*
X89752991Y-99780228D01*
X89740534Y-99685602D01*
X89740533Y-99685600D01*
X89739456Y-99677415D01*
X89680560Y-99535228D01*
X89633196Y-99473501D01*
X89591897Y-99419679D01*
X89586871Y-99413129D01*
X89464772Y-99319440D01*
X89322585Y-99260544D01*
X89314397Y-99259466D01*
X89212400Y-99246038D01*
X89212399Y-99246038D01*
X89208313Y-99245500D01*
X89000026Y-99245500D01*
X88791688Y-99245501D01*
X88787604Y-99246039D01*
X88787598Y-99246039D01*
X88685602Y-99259466D01*
X88685600Y-99259467D01*
X88677415Y-99260544D01*
X88535228Y-99319440D01*
X88413129Y-99413129D01*
X88408103Y-99419679D01*
X88366804Y-99473501D01*
X88319440Y-99535228D01*
X88260544Y-99677415D01*
X88245500Y-99791687D01*
X88245501Y-100208312D01*
X88246039Y-100212396D01*
X88246039Y-100212402D01*
X88259466Y-100314397D01*
X88260544Y-100322585D01*
X88301873Y-100422362D01*
X88309462Y-100492950D01*
X88277683Y-100556437D01*
X88216625Y-100592665D01*
X88145674Y-100590131D01*
X88096369Y-100559674D01*
X87791405Y-100254710D01*
X87757379Y-100192398D01*
X87754500Y-100165615D01*
X87754499Y-99795811D01*
X87754499Y-99791688D01*
X87752991Y-99780228D01*
X87740534Y-99685602D01*
X87740533Y-99685600D01*
X87739456Y-99677415D01*
X87680560Y-99535228D01*
X87633196Y-99473501D01*
X87591897Y-99419679D01*
X87586871Y-99413129D01*
X87464772Y-99319440D01*
X87322585Y-99260544D01*
X87314397Y-99259466D01*
X87212400Y-99246038D01*
X87212399Y-99246038D01*
X87208313Y-99245500D01*
X87000026Y-99245500D01*
X86791688Y-99245501D01*
X86787604Y-99246039D01*
X86787598Y-99246039D01*
X86685602Y-99259466D01*
X86685600Y-99259467D01*
X86677415Y-99260544D01*
X86535228Y-99319440D01*
X86413129Y-99413129D01*
X86408103Y-99419679D01*
X86366804Y-99473501D01*
X86319440Y-99535228D01*
X86260544Y-99677415D01*
X86245500Y-99791687D01*
X86245501Y-100208312D01*
X86246039Y-100212396D01*
X86246039Y-100212402D01*
X86259466Y-100314397D01*
X86260544Y-100322585D01*
X86263704Y-100330213D01*
X86301873Y-100422362D01*
X86309462Y-100492952D01*
X86277683Y-100556439D01*
X86216625Y-100592666D01*
X86145673Y-100590132D01*
X86096369Y-100559675D01*
X85791405Y-100254711D01*
X85757379Y-100192399D01*
X85754500Y-100165616D01*
X85754499Y-99795811D01*
X85754499Y-99791688D01*
X85752991Y-99780228D01*
X85740534Y-99685602D01*
X85740533Y-99685600D01*
X85739456Y-99677415D01*
X85680560Y-99535228D01*
X85633196Y-99473501D01*
X85591897Y-99419679D01*
X85586871Y-99413129D01*
X85464772Y-99319440D01*
X85322585Y-99260544D01*
X85314397Y-99259466D01*
X85212400Y-99246038D01*
X85212399Y-99246038D01*
X85208313Y-99245500D01*
X85171633Y-99245500D01*
X84834385Y-99245501D01*
X84766265Y-99225499D01*
X84745290Y-99208596D01*
X83357478Y-97820784D01*
X83342336Y-97802036D01*
X83341221Y-97800811D01*
X83335571Y-97792060D01*
X83327393Y-97785613D01*
X83327391Y-97785611D01*
X83309200Y-97771271D01*
X83304759Y-97767325D01*
X83304697Y-97767398D01*
X83300733Y-97764039D01*
X83297056Y-97760362D01*
X83281308Y-97749108D01*
X83276638Y-97745602D01*
X83236353Y-97713844D01*
X83227719Y-97710812D01*
X83220266Y-97705486D01*
X83171150Y-97690797D01*
X83165508Y-97688964D01*
X83124633Y-97674610D01*
X83124632Y-97674610D01*
X83117149Y-97671982D01*
X83111584Y-97671500D01*
X83108876Y-97671500D01*
X83106242Y-97671386D01*
X83106144Y-97671357D01*
X83106151Y-97671193D01*
X83105447Y-97671149D01*
X83099222Y-97669287D01*
X83045365Y-97671403D01*
X83040418Y-97671500D01*
X77686384Y-97671500D01*
X77618263Y-97651498D01*
X77597289Y-97634595D01*
X73166433Y-93203739D01*
X75940682Y-93203739D01*
X75957362Y-93402386D01*
X75983671Y-93494133D01*
X75995455Y-93535228D01*
X76012310Y-93594009D01*
X76103430Y-93771311D01*
X76227253Y-93927537D01*
X76379063Y-94056737D01*
X76384441Y-94059743D01*
X76384443Y-94059744D01*
X76492972Y-94120398D01*
X76553076Y-94153989D01*
X76558935Y-94155893D01*
X76558938Y-94155894D01*
X76619703Y-94175638D01*
X76742665Y-94215591D01*
X76748775Y-94216320D01*
X76748777Y-94216320D01*
X76841637Y-94227392D01*
X76940609Y-94239194D01*
X76946744Y-94238722D01*
X76946746Y-94238722D01*
X77135265Y-94224216D01*
X77135299Y-94224213D01*
X77139367Y-94223900D01*
X77139592Y-94223837D01*
X77154869Y-94222500D01*
X82889118Y-94222500D01*
X82904038Y-94223386D01*
X83036609Y-94239194D01*
X83042744Y-94238722D01*
X83042746Y-94238722D01*
X83231265Y-94224216D01*
X83231299Y-94224213D01*
X83235367Y-94223900D01*
X83235592Y-94223837D01*
X83250869Y-94222500D01*
X100369732Y-94222500D01*
X100437853Y-94242502D01*
X100458827Y-94259405D01*
X103098595Y-96899173D01*
X103132621Y-96961485D01*
X103135500Y-96988268D01*
X103135500Y-107235995D01*
X103115498Y-107304116D01*
X103107142Y-107315631D01*
X103047106Y-107389241D01*
X103047100Y-107389250D01*
X103043071Y-107394190D01*
X103040118Y-107399838D01*
X103040117Y-107399840D01*
X103011175Y-107455201D01*
X102948526Y-107575037D01*
X102946769Y-107581165D01*
X102946768Y-107581167D01*
X102931159Y-107635602D01*
X102892277Y-107771201D01*
X102886822Y-107842093D01*
X102877964Y-107957218D01*
X102876621Y-107974669D01*
X102877421Y-107981001D01*
X102900338Y-108162402D01*
X102902198Y-108177128D01*
X102904253Y-108183163D01*
X102904253Y-108183165D01*
X102965908Y-108364276D01*
X102965910Y-108364280D01*
X102967963Y-108370311D01*
X103071228Y-108546322D01*
X103075498Y-108551064D01*
X103203504Y-108693231D01*
X103203507Y-108693234D01*
X103207777Y-108697976D01*
X103212915Y-108701764D01*
X103212916Y-108701765D01*
X103216626Y-108704500D01*
X103372031Y-108819074D01*
X103377820Y-108821749D01*
X103377822Y-108821750D01*
X103417570Y-108840116D01*
X103557281Y-108904671D01*
X103656619Y-108927971D01*
X103749748Y-108949814D01*
X103749751Y-108949814D01*
X103755957Y-108951270D01*
X103800591Y-108952517D01*
X103953565Y-108956791D01*
X103953568Y-108956791D01*
X103959947Y-108956969D01*
X104160916Y-108921532D01*
X104263537Y-108880902D01*
X104344713Y-108848763D01*
X104344716Y-108848761D01*
X104350655Y-108846410D01*
X104491932Y-108753961D01*
X104517359Y-108737322D01*
X104517360Y-108737321D01*
X104521413Y-108734669D01*
X104525099Y-108731350D01*
X104525154Y-108731301D01*
X104525168Y-108731287D01*
X104526397Y-108730181D01*
X104838823Y-108417755D01*
X104841345Y-108415301D01*
X104899689Y-108360128D01*
X104904323Y-108355746D01*
X104910480Y-108346953D01*
X104939072Y-108306120D01*
X104944642Y-108298756D01*
X104978891Y-108256762D01*
X104978894Y-108256757D01*
X104982929Y-108251810D01*
X104996335Y-108226168D01*
X105004778Y-108212281D01*
X105009648Y-108205326D01*
X105021372Y-108188582D01*
X105028076Y-108173092D01*
X105045432Y-108132983D01*
X105049397Y-108124668D01*
X105077474Y-108070963D01*
X105085447Y-108043158D01*
X105090925Y-108027855D01*
X105102418Y-108001297D01*
X105113047Y-107950418D01*
X105114809Y-107941986D01*
X105117027Y-107933024D01*
X105131963Y-107880935D01*
X105131964Y-107880931D01*
X105133722Y-107874799D01*
X105135941Y-107845955D01*
X105138231Y-107829866D01*
X105144149Y-107801540D01*
X105144500Y-107794842D01*
X105144500Y-107741687D01*
X132087500Y-107741687D01*
X132087501Y-108158312D01*
X132088039Y-108162396D01*
X132088039Y-108162402D01*
X132097840Y-108236854D01*
X132102544Y-108272585D01*
X132161440Y-108414772D01*
X132255129Y-108536871D01*
X132377228Y-108630560D01*
X132410974Y-108644538D01*
X132505570Y-108683721D01*
X132519415Y-108689456D01*
X132527603Y-108690534D01*
X132629593Y-108703961D01*
X132633687Y-108704500D01*
X132841974Y-108704500D01*
X133050312Y-108704499D01*
X133054396Y-108703961D01*
X133054402Y-108703961D01*
X133156398Y-108690534D01*
X133156400Y-108690533D01*
X133164585Y-108689456D01*
X133306772Y-108630560D01*
X133428871Y-108536871D01*
X133522560Y-108414772D01*
X133581456Y-108272585D01*
X133589594Y-108210768D01*
X133595962Y-108162400D01*
X133595962Y-108162399D01*
X133596500Y-108158313D01*
X133596499Y-107741688D01*
X133591056Y-107700335D01*
X133582534Y-107635602D01*
X133582533Y-107635600D01*
X133581456Y-107627415D01*
X133522560Y-107485228D01*
X133428871Y-107363129D01*
X133306772Y-107269440D01*
X133185849Y-107219352D01*
X133172214Y-107213704D01*
X133164585Y-107210544D01*
X133087039Y-107200335D01*
X133054400Y-107196038D01*
X133054399Y-107196038D01*
X133050313Y-107195500D01*
X132842026Y-107195500D01*
X132633688Y-107195501D01*
X132629604Y-107196039D01*
X132629598Y-107196039D01*
X132527602Y-107209466D01*
X132527600Y-107209467D01*
X132519415Y-107210544D01*
X132377228Y-107269440D01*
X132255129Y-107363129D01*
X132161440Y-107485228D01*
X132102544Y-107627415D01*
X132101466Y-107635602D01*
X132101466Y-107635603D01*
X132094884Y-107685603D01*
X132087500Y-107741687D01*
X105144500Y-107741687D01*
X105144500Y-107739571D01*
X105144871Y-107729904D01*
X105148889Y-107677691D01*
X105148889Y-107677687D01*
X105149378Y-107671331D01*
X105145492Y-107640571D01*
X105144500Y-107624793D01*
X105144500Y-106975011D01*
X137489819Y-106975011D01*
X137494729Y-106981569D01*
X137585899Y-107032524D01*
X137597138Y-107037433D01*
X137774914Y-107095196D01*
X137786888Y-107097829D01*
X137972508Y-107119963D01*
X137984757Y-107120220D01*
X138171138Y-107105879D01*
X138183218Y-107103748D01*
X138363244Y-107053484D01*
X138374695Y-107049042D01*
X138501461Y-106985009D01*
X138511747Y-106975362D01*
X138509509Y-106968719D01*
X138250790Y-106710000D01*
X143714132Y-106710000D01*
X143734048Y-106861280D01*
X143792440Y-107002250D01*
X143885328Y-107123304D01*
X144006382Y-107216192D01*
X144147352Y-107274584D01*
X144155540Y-107275662D01*
X144195039Y-107280862D01*
X144260652Y-107289500D01*
X144336612Y-107289500D01*
X144402226Y-107280862D01*
X144441724Y-107275662D01*
X144449912Y-107274584D01*
X144590882Y-107216192D01*
X144711936Y-107123304D01*
X144804824Y-107002250D01*
X144863216Y-106861280D01*
X144883132Y-106710000D01*
X144863216Y-106558720D01*
X144804824Y-106417750D01*
X144711936Y-106296696D01*
X144590882Y-106203808D01*
X144587804Y-106202533D01*
X144540384Y-106152803D01*
X144526946Y-106083090D01*
X144553331Y-106017178D01*
X144609384Y-105976625D01*
X144651665Y-105961278D01*
X144664661Y-105954769D01*
X144799458Y-105866392D01*
X144810610Y-105857068D01*
X144921460Y-105740053D01*
X144930172Y-105728408D01*
X145011126Y-105589034D01*
X145016926Y-105575696D01*
X145024303Y-105551338D01*
X145024373Y-105543056D01*
X146941116Y-105543056D01*
X146986361Y-105649388D01*
X146993561Y-105662012D01*
X147089099Y-105791833D01*
X147099013Y-105802464D01*
X147221857Y-105906828D01*
X147233945Y-105914890D01*
X147377503Y-105988195D01*
X147391128Y-105993262D01*
X147549348Y-106031977D01*
X147560407Y-106033660D01*
X147563953Y-106033880D01*
X147567831Y-106034000D01*
X147676517Y-106034000D01*
X147691756Y-106029525D01*
X147692961Y-106028135D01*
X147694632Y-106020452D01*
X147694632Y-106015885D01*
X148202632Y-106015885D01*
X148207107Y-106031124D01*
X148208497Y-106032329D01*
X148216180Y-106034000D01*
X148288995Y-106034000D01*
X148296299Y-106033575D01*
X148415998Y-106019620D01*
X148430151Y-106016275D01*
X148581662Y-105961279D01*
X148594661Y-105954769D01*
X148729458Y-105866392D01*
X148740610Y-105857068D01*
X148851460Y-105740053D01*
X148860172Y-105728408D01*
X148941126Y-105589034D01*
X148946926Y-105575696D01*
X148954303Y-105551338D01*
X148954423Y-105537236D01*
X148947493Y-105534000D01*
X148220747Y-105534000D01*
X148205508Y-105538475D01*
X148204303Y-105539865D01*
X148202632Y-105547548D01*
X148202632Y-106015885D01*
X147694632Y-106015885D01*
X147694632Y-105552115D01*
X147690157Y-105536876D01*
X147688767Y-105535671D01*
X147681084Y-105534000D01*
X146955378Y-105534000D01*
X146941847Y-105537973D01*
X146941116Y-105543056D01*
X145024373Y-105543056D01*
X145024423Y-105537236D01*
X145017493Y-105534000D01*
X144040747Y-105534000D01*
X144025508Y-105538475D01*
X144024303Y-105539865D01*
X144022632Y-105547548D01*
X144022632Y-106015885D01*
X144034854Y-106057510D01*
X144044713Y-106072852D01*
X144044709Y-106143848D01*
X144006323Y-106203573D01*
X144000522Y-106208304D01*
X143885328Y-106296696D01*
X143792440Y-106417750D01*
X143734048Y-106558720D01*
X143714132Y-106710000D01*
X138250790Y-106710000D01*
X138012812Y-106472022D01*
X137998868Y-106464408D01*
X137997035Y-106464539D01*
X137990420Y-106468790D01*
X137496579Y-106962631D01*
X137489819Y-106975011D01*
X105144500Y-106975011D01*
X105144500Y-106091890D01*
X136979700Y-106091890D01*
X136995340Y-106278154D01*
X136997555Y-106290219D01*
X137049077Y-106469900D01*
X137053592Y-106481304D01*
X137115206Y-106601192D01*
X137124923Y-106611410D01*
X137131724Y-106609066D01*
X137627978Y-106112812D01*
X137634356Y-106101132D01*
X138364408Y-106101132D01*
X138364539Y-106102965D01*
X138368790Y-106109580D01*
X138862529Y-106603319D01*
X138874909Y-106610079D01*
X138881643Y-106605038D01*
X138929606Y-106520607D01*
X138934600Y-106509391D01*
X138993599Y-106332034D01*
X138996319Y-106320063D01*
X139020075Y-106132010D01*
X139020567Y-106124981D01*
X139020867Y-106103505D01*
X139020574Y-106096512D01*
X139002074Y-105907836D01*
X138999691Y-105895801D01*
X138945665Y-105716858D01*
X138940990Y-105705517D01*
X138884479Y-105599234D01*
X138874617Y-105589151D01*
X138867491Y-105591719D01*
X138372022Y-106087188D01*
X138364408Y-106101132D01*
X137634356Y-106101132D01*
X137635592Y-106098868D01*
X137635461Y-106097035D01*
X137631210Y-106090420D01*
X137137229Y-105596439D01*
X137124849Y-105589679D01*
X137118461Y-105594461D01*
X137064606Y-105692423D01*
X137059778Y-105703687D01*
X137003255Y-105881870D01*
X137000707Y-105893858D01*
X136979871Y-106079621D01*
X136979700Y-106091890D01*
X105144500Y-106091890D01*
X105144500Y-105225172D01*
X137488890Y-105225172D01*
X137491345Y-105232135D01*
X137987188Y-105727978D01*
X138001132Y-105735592D01*
X138002965Y-105735461D01*
X138009580Y-105731210D01*
X138197734Y-105543056D01*
X142511116Y-105543056D01*
X142556361Y-105649388D01*
X142563561Y-105662012D01*
X142659099Y-105791833D01*
X142669013Y-105802464D01*
X142791857Y-105906828D01*
X142803945Y-105914890D01*
X142947503Y-105988195D01*
X142961128Y-105993262D01*
X143119348Y-106031977D01*
X143130407Y-106033660D01*
X143133953Y-106033880D01*
X143137831Y-106034000D01*
X143496517Y-106034000D01*
X143511756Y-106029525D01*
X143512961Y-106028135D01*
X143514632Y-106020452D01*
X143514632Y-105552115D01*
X143510157Y-105536876D01*
X143508767Y-105535671D01*
X143501084Y-105534000D01*
X142525378Y-105534000D01*
X142511847Y-105537973D01*
X142511116Y-105543056D01*
X138197734Y-105543056D01*
X138503737Y-105237053D01*
X138510497Y-105224673D01*
X138505838Y-105218450D01*
X138401039Y-105161785D01*
X138389734Y-105157033D01*
X138211169Y-105101758D01*
X138199158Y-105099292D01*
X138013255Y-105079753D01*
X138000987Y-105079668D01*
X137814838Y-105096608D01*
X137802791Y-105098906D01*
X137623470Y-105151683D01*
X137612093Y-105156280D01*
X137499039Y-105215383D01*
X137488890Y-105225172D01*
X105144500Y-105225172D01*
X105144500Y-104616047D01*
X139489120Y-104616047D01*
X139496510Y-104626349D01*
X139551289Y-104670946D01*
X139558568Y-104676061D01*
X139794060Y-104817839D01*
X139801984Y-104821876D01*
X140055108Y-104929061D01*
X140063513Y-104931939D01*
X140329227Y-105002391D01*
X140337948Y-105004055D01*
X140610942Y-105036366D01*
X140619807Y-105036784D01*
X140894616Y-105030307D01*
X140903476Y-105029470D01*
X141174618Y-104984340D01*
X141183275Y-104982261D01*
X141445360Y-104899375D01*
X141453621Y-104896104D01*
X141701416Y-104777114D01*
X141709140Y-104772708D01*
X141924483Y-104628821D01*
X141932771Y-104618903D01*
X141925514Y-104604724D01*
X140722812Y-103402022D01*
X140708868Y-103394408D01*
X140707035Y-103394539D01*
X140700420Y-103398790D01*
X139496286Y-104602924D01*
X139489120Y-104616047D01*
X105144500Y-104616047D01*
X105144500Y-102971344D01*
X138702047Y-102971344D01*
X138712839Y-103246020D01*
X138713814Y-103254849D01*
X138763201Y-103525268D01*
X138765410Y-103533871D01*
X138852405Y-103794628D01*
X138855809Y-103802845D01*
X138978678Y-104048745D01*
X138983196Y-104056384D01*
X139112343Y-104243245D01*
X139122663Y-104251597D01*
X139136317Y-104244473D01*
X140337978Y-103042812D01*
X140344356Y-103031132D01*
X141074408Y-103031132D01*
X141074539Y-103032965D01*
X141078790Y-103039580D01*
X142283657Y-104244447D01*
X142297601Y-104252061D01*
X142321837Y-104250328D01*
X142344990Y-104242429D01*
X142413910Y-104259473D01*
X142462676Y-104311072D01*
X142476428Y-104368312D01*
X142476428Y-104511728D01*
X142476477Y-104513434D01*
X142477895Y-104523343D01*
X142514423Y-104681563D01*
X142519074Y-104694772D01*
X142566025Y-104791894D01*
X142577665Y-104861930D01*
X142561539Y-104910018D01*
X142526138Y-104970966D01*
X142520338Y-104984304D01*
X142512961Y-105008662D01*
X142512841Y-105022764D01*
X142519771Y-105026000D01*
X143496517Y-105026000D01*
X143511756Y-105021525D01*
X143512961Y-105020135D01*
X143514632Y-105012452D01*
X143514632Y-105007885D01*
X144034427Y-105007885D01*
X144038902Y-105023124D01*
X144040292Y-105024329D01*
X144047975Y-105026000D01*
X145011886Y-105026000D01*
X145025417Y-105022027D01*
X145026148Y-105016943D01*
X144982960Y-104915446D01*
X144974693Y-104844932D01*
X144985460Y-104811272D01*
X145041781Y-104694768D01*
X145046431Y-104681563D01*
X145061427Y-104616607D01*
X146894633Y-104616607D01*
X146894827Y-104621542D01*
X146897045Y-104649738D01*
X146899346Y-104662339D01*
X146941438Y-104807221D01*
X146947687Y-104821661D01*
X146958110Y-104839286D01*
X146975569Y-104908102D01*
X146958612Y-104966706D01*
X146956138Y-104970966D01*
X146950338Y-104984304D01*
X146942961Y-105008662D01*
X146942841Y-105022764D01*
X146949771Y-105026000D01*
X147676517Y-105026000D01*
X147691756Y-105021525D01*
X147692961Y-105020135D01*
X147694632Y-105012452D01*
X147694632Y-105007885D01*
X148202632Y-105007885D01*
X148207107Y-105023124D01*
X148208497Y-105024329D01*
X148216180Y-105026000D01*
X148941886Y-105026000D01*
X148955417Y-105022027D01*
X148956148Y-105016944D01*
X148930020Y-104955540D01*
X148921754Y-104885026D01*
X148937508Y-104842067D01*
X148949579Y-104821656D01*
X148955826Y-104807221D01*
X148997919Y-104662333D01*
X149000219Y-104649746D01*
X149002439Y-104621536D01*
X149002632Y-104616611D01*
X149002632Y-104025150D01*
X148998157Y-104009911D01*
X148996767Y-104008706D01*
X148989084Y-104007035D01*
X148220747Y-104007035D01*
X148205508Y-104011510D01*
X148204303Y-104012900D01*
X148202632Y-104020583D01*
X148202632Y-105007885D01*
X147694632Y-105007885D01*
X147694632Y-104025150D01*
X147690157Y-104009911D01*
X147688767Y-104008706D01*
X147681084Y-104007035D01*
X146912748Y-104007035D01*
X146897509Y-104011510D01*
X146896304Y-104012900D01*
X146894633Y-104020583D01*
X146894633Y-104616607D01*
X145061427Y-104616607D01*
X145082961Y-104523335D01*
X145084377Y-104513450D01*
X145084427Y-104511698D01*
X145084427Y-104025150D01*
X145079952Y-104009911D01*
X145078562Y-104008706D01*
X145070879Y-104007035D01*
X144052542Y-104007035D01*
X144037303Y-104011510D01*
X144036098Y-104012900D01*
X144034427Y-104020583D01*
X144034427Y-105007885D01*
X143514632Y-105007885D01*
X143514632Y-104538814D01*
X143522352Y-104512523D01*
X143517920Y-104511559D01*
X143526427Y-104472452D01*
X143526427Y-103480920D01*
X144034427Y-103480920D01*
X144038902Y-103496159D01*
X144040292Y-103497364D01*
X144047975Y-103499035D01*
X145066311Y-103499035D01*
X145081550Y-103494560D01*
X145082755Y-103493170D01*
X145084426Y-103485487D01*
X145084426Y-103480920D01*
X146894632Y-103480920D01*
X146899107Y-103496159D01*
X146900497Y-103497364D01*
X146908180Y-103499035D01*
X147676517Y-103499035D01*
X147691756Y-103494560D01*
X147692961Y-103493170D01*
X147694632Y-103485487D01*
X147694632Y-103480920D01*
X148202632Y-103480920D01*
X148207107Y-103496159D01*
X148208497Y-103497364D01*
X148216180Y-103499035D01*
X148984516Y-103499035D01*
X148999755Y-103494560D01*
X149000960Y-103493170D01*
X149002631Y-103485487D01*
X149002631Y-102889464D01*
X149002437Y-102884528D01*
X149000219Y-102856332D01*
X148997918Y-102843731D01*
X148955826Y-102698849D01*
X148949579Y-102684413D01*
X148873535Y-102555829D01*
X148863895Y-102543402D01*
X148758265Y-102437772D01*
X148745838Y-102428132D01*
X148617254Y-102352088D01*
X148602818Y-102345841D01*
X148457930Y-102303748D01*
X148445343Y-102301448D01*
X148417133Y-102299228D01*
X148412207Y-102299035D01*
X148220747Y-102299035D01*
X148205508Y-102303510D01*
X148204303Y-102304900D01*
X148202632Y-102312583D01*
X148202632Y-103480920D01*
X147694632Y-103480920D01*
X147694632Y-102317151D01*
X147690157Y-102301912D01*
X147688767Y-102300707D01*
X147681084Y-102299036D01*
X147485061Y-102299036D01*
X147480125Y-102299230D01*
X147451929Y-102301448D01*
X147439328Y-102303749D01*
X147294446Y-102345841D01*
X147280010Y-102352088D01*
X147151426Y-102428132D01*
X147138999Y-102437772D01*
X147033369Y-102543402D01*
X147023729Y-102555829D01*
X146947685Y-102684413D01*
X146941438Y-102698849D01*
X146899345Y-102843737D01*
X146897045Y-102856324D01*
X146894825Y-102884534D01*
X146894632Y-102889460D01*
X146894632Y-103480920D01*
X145084426Y-103480920D01*
X145084426Y-102994342D01*
X145084377Y-102992636D01*
X145082959Y-102982727D01*
X145046431Y-102824507D01*
X145041781Y-102811302D01*
X144971846Y-102666636D01*
X144964389Y-102654794D01*
X144864142Y-102529216D01*
X144854246Y-102519320D01*
X144728668Y-102419073D01*
X144716826Y-102411616D01*
X144572160Y-102341681D01*
X144558955Y-102337031D01*
X144400727Y-102300501D01*
X144390842Y-102299085D01*
X144389090Y-102299035D01*
X144052542Y-102299035D01*
X144037303Y-102303510D01*
X144036098Y-102304900D01*
X144034427Y-102312583D01*
X144034427Y-103480920D01*
X143526427Y-103480920D01*
X143526427Y-102317151D01*
X143521952Y-102301912D01*
X143520562Y-102300707D01*
X143512879Y-102299036D01*
X143171734Y-102299036D01*
X143170028Y-102299085D01*
X143160119Y-102300503D01*
X143001899Y-102337031D01*
X142988694Y-102341681D01*
X142844028Y-102411616D01*
X142832186Y-102419074D01*
X142805260Y-102440568D01*
X142739543Y-102467435D01*
X142669733Y-102454507D01*
X142617995Y-102405890D01*
X142608440Y-102385706D01*
X142542661Y-102207401D01*
X142539003Y-102199299D01*
X142408471Y-101957382D01*
X142403709Y-101949877D01*
X142306406Y-101818139D01*
X142295281Y-101809699D01*
X142282685Y-101816525D01*
X141082022Y-103017188D01*
X141074408Y-103031132D01*
X140344356Y-103031132D01*
X140345592Y-103028868D01*
X140345461Y-103027035D01*
X140341210Y-103020420D01*
X139137460Y-101816670D01*
X139124619Y-101809658D01*
X139113930Y-101817453D01*
X139051052Y-101897213D01*
X139046063Y-101904555D01*
X138907987Y-102142269D01*
X138904088Y-102150227D01*
X138800888Y-102405015D01*
X138798139Y-102413477D01*
X138731873Y-102680247D01*
X138730344Y-102689008D01*
X138702326Y-102962461D01*
X138702047Y-102971344D01*
X105144500Y-102971344D01*
X105144500Y-101443868D01*
X139489225Y-101443868D01*
X139496205Y-101456995D01*
X140697188Y-102657978D01*
X140711132Y-102665592D01*
X140712965Y-102665461D01*
X140719580Y-102661210D01*
X141923299Y-101457491D01*
X141930153Y-101444939D01*
X141921946Y-101433869D01*
X141816593Y-101353466D01*
X141809163Y-101348586D01*
X141569332Y-101214274D01*
X141561282Y-101210486D01*
X141304917Y-101111305D01*
X141296427Y-101108693D01*
X141028634Y-101046623D01*
X141019856Y-101045233D01*
X140745990Y-101021513D01*
X140737119Y-101021373D01*
X140462634Y-101036479D01*
X140453824Y-101037593D01*
X140184223Y-101091219D01*
X140175637Y-101093568D01*
X139916292Y-101184644D01*
X139908124Y-101188179D01*
X139664188Y-101314892D01*
X139656620Y-101319529D01*
X139497627Y-101433147D01*
X139489225Y-101443868D01*
X105144500Y-101443868D01*
X105144500Y-96536193D01*
X105144549Y-96532674D01*
X105146176Y-96474461D01*
X139889899Y-96474461D01*
X139899781Y-96486950D01*
X139942199Y-96515292D01*
X139952307Y-96520780D01*
X140136564Y-96599943D01*
X140147497Y-96603495D01*
X140343091Y-96647754D01*
X140354500Y-96649256D01*
X140554886Y-96657129D01*
X140566368Y-96656527D01*
X140764836Y-96627751D01*
X140776019Y-96625066D01*
X140965917Y-96560604D01*
X140976420Y-96555928D01*
X141101830Y-96485696D01*
X141111693Y-96475619D01*
X141108738Y-96467949D01*
X140512811Y-95872021D01*
X140498868Y-95864408D01*
X140497034Y-95864539D01*
X140490420Y-95868790D01*
X139896092Y-96463119D01*
X139889899Y-96474461D01*
X105146176Y-96474461D01*
X105146791Y-96452435D01*
X105146791Y-96452432D01*
X105146969Y-96446053D01*
X105136449Y-96386389D01*
X105135180Y-96377244D01*
X105129703Y-96323326D01*
X105129058Y-96316976D01*
X105120404Y-96289360D01*
X105116554Y-96273563D01*
X105112642Y-96251378D01*
X105112642Y-96251377D01*
X105111532Y-96245084D01*
X105089234Y-96188763D01*
X105086153Y-96180064D01*
X105069942Y-96128338D01*
X105068033Y-96122245D01*
X105054013Y-96096953D01*
X105047063Y-96082251D01*
X105038761Y-96061282D01*
X105038759Y-96061278D01*
X105036410Y-96055345D01*
X105003227Y-96004637D01*
X104998467Y-95996745D01*
X104972192Y-95949343D01*
X104972190Y-95949340D01*
X104969098Y-95943762D01*
X104950272Y-95921797D01*
X104940509Y-95908794D01*
X104927314Y-95888630D01*
X104927312Y-95888628D01*
X104924668Y-95884587D01*
X104921380Y-95880935D01*
X104921300Y-95880846D01*
X104921286Y-95880832D01*
X104920180Y-95879603D01*
X104881112Y-95840535D01*
X104874539Y-95833438D01*
X104871867Y-95830321D01*
X104836295Y-95788818D01*
X104811795Y-95769814D01*
X104799926Y-95759349D01*
X104516005Y-95475428D01*
X139341831Y-95475428D01*
X139354947Y-95675531D01*
X139356748Y-95686901D01*
X139406109Y-95881263D01*
X139409950Y-95892110D01*
X139493907Y-96074227D01*
X139499658Y-96084188D01*
X139512781Y-96102758D01*
X139523371Y-96111147D01*
X139536669Y-96104120D01*
X140127979Y-95512811D01*
X140134356Y-95501132D01*
X140864408Y-95501132D01*
X140864539Y-95502966D01*
X140868790Y-95509580D01*
X141464037Y-96104826D01*
X141476412Y-96111583D01*
X141482992Y-96106657D01*
X141555928Y-95976420D01*
X141560604Y-95965917D01*
X141625066Y-95776019D01*
X141627751Y-95764836D01*
X141656823Y-95564328D01*
X141657453Y-95556945D01*
X141658847Y-95503704D01*
X141658604Y-95496305D01*
X141640066Y-95294553D01*
X141637969Y-95283238D01*
X141583535Y-95090231D01*
X141579413Y-95079492D01*
X141490718Y-94899636D01*
X141487571Y-94894501D01*
X141477737Y-94887120D01*
X141465321Y-94893890D01*
X140872021Y-95487189D01*
X140864408Y-95501132D01*
X140134356Y-95501132D01*
X140135592Y-95498868D01*
X140135461Y-95497034D01*
X140131210Y-95490420D01*
X139534477Y-94893688D01*
X139522102Y-94886931D01*
X139516136Y-94891397D01*
X139431967Y-95051375D01*
X139427562Y-95062009D01*
X139368095Y-95253525D01*
X139365703Y-95264779D01*
X139342132Y-95463927D01*
X139341831Y-95475428D01*
X104516005Y-95475428D01*
X103565690Y-94525113D01*
X139889226Y-94525113D01*
X139892713Y-94533502D01*
X140487189Y-95127979D01*
X140501132Y-95135592D01*
X140502966Y-95135461D01*
X140509580Y-95131210D01*
X140873347Y-94767442D01*
X143020188Y-94767442D01*
X143082616Y-94970367D01*
X143086837Y-94980712D01*
X143184361Y-95169660D01*
X143190346Y-95179091D01*
X143319793Y-95347789D01*
X143327349Y-95356006D01*
X143484621Y-95499113D01*
X143493520Y-95505867D01*
X143673639Y-95618856D01*
X143683605Y-95623933D01*
X143880875Y-95703235D01*
X143891590Y-95706470D01*
X144100762Y-95749788D01*
X144109898Y-95750991D01*
X144160263Y-95753895D01*
X144163910Y-95754000D01*
X144727885Y-95754000D01*
X144743124Y-95749525D01*
X144744329Y-95748135D01*
X144746000Y-95740452D01*
X144746000Y-95735885D01*
X145254000Y-95735885D01*
X145258475Y-95751124D01*
X145259865Y-95752329D01*
X145267548Y-95754000D01*
X145803995Y-95754000D01*
X145809590Y-95753751D01*
X145967367Y-95739669D01*
X145978381Y-95737687D01*
X146183465Y-95681583D01*
X146193938Y-95677689D01*
X146385856Y-95586148D01*
X146395471Y-95580462D01*
X146568143Y-95456385D01*
X146576609Y-95449077D01*
X146724571Y-95296391D01*
X146731614Y-95287694D01*
X146850200Y-95111221D01*
X146855586Y-95101423D01*
X146941051Y-94906729D01*
X146944616Y-94896137D01*
X146974511Y-94771615D01*
X146973806Y-94757530D01*
X146964927Y-94754000D01*
X145272115Y-94754000D01*
X145256876Y-94758475D01*
X145255671Y-94759865D01*
X145254000Y-94767548D01*
X145254000Y-95735885D01*
X144746000Y-95735885D01*
X144746000Y-94772115D01*
X144741525Y-94756876D01*
X144740135Y-94755671D01*
X144732452Y-94754000D01*
X143035619Y-94754000D01*
X143021637Y-94758105D01*
X143020188Y-94767442D01*
X140873347Y-94767442D01*
X141103636Y-94537153D01*
X141110393Y-94524778D01*
X141104363Y-94516722D01*
X141031036Y-94470456D01*
X141020785Y-94465233D01*
X140834527Y-94390924D01*
X140823491Y-94387655D01*
X140626809Y-94348532D01*
X140615364Y-94347329D01*
X140414852Y-94344705D01*
X140403372Y-94345608D01*
X140205740Y-94379567D01*
X140194620Y-94382547D01*
X140006478Y-94451956D01*
X139996100Y-94456906D01*
X139898824Y-94514780D01*
X139889226Y-94525113D01*
X103565690Y-94525113D01*
X103268962Y-94228385D01*
X143025489Y-94228385D01*
X143026194Y-94242470D01*
X143035073Y-94246000D01*
X144727885Y-94246000D01*
X144743124Y-94241525D01*
X144744329Y-94240135D01*
X144746000Y-94232452D01*
X144746000Y-94227885D01*
X145254000Y-94227885D01*
X145258475Y-94243124D01*
X145259865Y-94244329D01*
X145267548Y-94246000D01*
X146964381Y-94246000D01*
X146978363Y-94241895D01*
X146979812Y-94232558D01*
X146917384Y-94029633D01*
X146913163Y-94019288D01*
X146815639Y-93830340D01*
X146809654Y-93820909D01*
X146680207Y-93652211D01*
X146672651Y-93643994D01*
X146515379Y-93500887D01*
X146506480Y-93494133D01*
X146326361Y-93381144D01*
X146316395Y-93376067D01*
X146119125Y-93296765D01*
X146108410Y-93293530D01*
X145899238Y-93250212D01*
X145890102Y-93249009D01*
X145839737Y-93246105D01*
X145836090Y-93246000D01*
X145272115Y-93246000D01*
X145256876Y-93250475D01*
X145255671Y-93251865D01*
X145254000Y-93259548D01*
X145254000Y-94227885D01*
X144746000Y-94227885D01*
X144746000Y-93264115D01*
X144741525Y-93248876D01*
X144740135Y-93247671D01*
X144732452Y-93246000D01*
X144196005Y-93246000D01*
X144190410Y-93246249D01*
X144032633Y-93260331D01*
X144021619Y-93262313D01*
X143816535Y-93318417D01*
X143806062Y-93322311D01*
X143614144Y-93413852D01*
X143604529Y-93419538D01*
X143431857Y-93543615D01*
X143423391Y-93550923D01*
X143275429Y-93703609D01*
X143268386Y-93712306D01*
X143149800Y-93888779D01*
X143144414Y-93898577D01*
X143058949Y-94093271D01*
X143055384Y-94103863D01*
X143025489Y-94228385D01*
X103268962Y-94228385D01*
X101559772Y-92519195D01*
X101557318Y-92516673D01*
X101541551Y-92500000D01*
X133990848Y-92500000D01*
X134009428Y-92736083D01*
X134064711Y-92966354D01*
X134155336Y-93185141D01*
X134279070Y-93387057D01*
X134432868Y-93567132D01*
X134612943Y-93720930D01*
X134814859Y-93844664D01*
X134819429Y-93846557D01*
X134819433Y-93846559D01*
X135029073Y-93933395D01*
X135029075Y-93933396D01*
X135033646Y-93935289D01*
X135113499Y-93954460D01*
X135259104Y-93989417D01*
X135259110Y-93989418D01*
X135263917Y-93990572D01*
X135500000Y-94009152D01*
X135736083Y-93990572D01*
X135740890Y-93989418D01*
X135740896Y-93989417D01*
X135886501Y-93954460D01*
X135966354Y-93935289D01*
X135970925Y-93933396D01*
X135970927Y-93933395D01*
X136180567Y-93846559D01*
X136180571Y-93846557D01*
X136185141Y-93844664D01*
X136387057Y-93720930D01*
X136567132Y-93567132D01*
X136720930Y-93387057D01*
X136844664Y-93185141D01*
X136935289Y-92966354D01*
X136990572Y-92736083D01*
X137009152Y-92500000D01*
X137000423Y-92389089D01*
X137015019Y-92319610D01*
X137064861Y-92269051D01*
X137137898Y-92253764D01*
X137142729Y-92254221D01*
X137142738Y-92254221D01*
X137145685Y-92254500D01*
X137999567Y-92254500D01*
X138854314Y-92254499D01*
X138857262Y-92254220D01*
X138857271Y-92254220D01*
X138878478Y-92252216D01*
X138878480Y-92252216D01*
X138886127Y-92251493D01*
X139015076Y-92206209D01*
X139125010Y-92125010D01*
X139206209Y-92015076D01*
X139251493Y-91886127D01*
X139254500Y-91854315D01*
X139254499Y-90703995D01*
X142746000Y-90703995D01*
X142746249Y-90709590D01*
X142760331Y-90867367D01*
X142762313Y-90878381D01*
X142818417Y-91083465D01*
X142822311Y-91093938D01*
X142913852Y-91285856D01*
X142919538Y-91295471D01*
X143043615Y-91468143D01*
X143050923Y-91476609D01*
X143203609Y-91624571D01*
X143212306Y-91631614D01*
X143388779Y-91750200D01*
X143398577Y-91755586D01*
X143593271Y-91841051D01*
X143603863Y-91844616D01*
X143728385Y-91874511D01*
X143742470Y-91873806D01*
X143746000Y-91864927D01*
X143746000Y-91864381D01*
X144254000Y-91864381D01*
X144258105Y-91878363D01*
X144267442Y-91879812D01*
X144470367Y-91817384D01*
X144480712Y-91813163D01*
X144669660Y-91715639D01*
X144679091Y-91709654D01*
X144847789Y-91580207D01*
X144856006Y-91572651D01*
X144999113Y-91415379D01*
X145005867Y-91406480D01*
X145118856Y-91226361D01*
X145123933Y-91216395D01*
X145203235Y-91019125D01*
X145206470Y-91008410D01*
X145249788Y-90799238D01*
X145250991Y-90790102D01*
X145253895Y-90739737D01*
X145254000Y-90736090D01*
X145254000Y-90272115D01*
X145249525Y-90256876D01*
X145248135Y-90255671D01*
X145240452Y-90254000D01*
X144272115Y-90254000D01*
X144256876Y-90258475D01*
X144255671Y-90259865D01*
X144254000Y-90267548D01*
X144254000Y-91864381D01*
X143746000Y-91864381D01*
X143746000Y-90272115D01*
X143741525Y-90256876D01*
X143740135Y-90255671D01*
X143732452Y-90254000D01*
X142764115Y-90254000D01*
X142748876Y-90258475D01*
X142747671Y-90259865D01*
X142746000Y-90267548D01*
X142746000Y-90703995D01*
X139254499Y-90703995D01*
X139254499Y-89992603D01*
X145940424Y-89992603D01*
X145959166Y-90198550D01*
X146017554Y-90396934D01*
X146020411Y-90402399D01*
X146110508Y-90574739D01*
X146110511Y-90574743D01*
X146113363Y-90580199D01*
X146117223Y-90584999D01*
X146117223Y-90585000D01*
X146123271Y-90592522D01*
X146242943Y-90741365D01*
X146401360Y-90874292D01*
X146582578Y-90973918D01*
X146779696Y-91036447D01*
X146785813Y-91037133D01*
X146785817Y-91037134D01*
X146861837Y-91045661D01*
X146940640Y-91054500D01*
X147052034Y-91054500D01*
X147205811Y-91039422D01*
X147403783Y-90979651D01*
X147495079Y-90931108D01*
X147580933Y-90885459D01*
X147580936Y-90885457D01*
X147586375Y-90882565D01*
X147591145Y-90878674D01*
X147591149Y-90878672D01*
X147741857Y-90755758D01*
X147741860Y-90755755D01*
X147746632Y-90751863D01*
X147755317Y-90741365D01*
X147874522Y-90597271D01*
X147874525Y-90597266D01*
X147878450Y-90592522D01*
X147885296Y-90579861D01*
X147973878Y-90416032D01*
X147973880Y-90416027D01*
X147976808Y-90410612D01*
X148037960Y-90213063D01*
X148043868Y-90156854D01*
X148058932Y-90013526D01*
X148058932Y-90013524D01*
X148059576Y-90007397D01*
X148040834Y-89801450D01*
X147982446Y-89603066D01*
X147965648Y-89570935D01*
X147889492Y-89425261D01*
X147889489Y-89425257D01*
X147886637Y-89419801D01*
X147881089Y-89412900D01*
X147824321Y-89342295D01*
X147757057Y-89258635D01*
X147598640Y-89125708D01*
X147417422Y-89026082D01*
X147220304Y-88963553D01*
X147214187Y-88962867D01*
X147214183Y-88962866D01*
X147138163Y-88954339D01*
X147059360Y-88945500D01*
X146947966Y-88945500D01*
X146794189Y-88960578D01*
X146596217Y-89020349D01*
X146504921Y-89068892D01*
X146419067Y-89114541D01*
X146419064Y-89114543D01*
X146413625Y-89117435D01*
X146408855Y-89121326D01*
X146408851Y-89121328D01*
X146258143Y-89244242D01*
X146258140Y-89244245D01*
X146253368Y-89248137D01*
X146249441Y-89252884D01*
X146249439Y-89252886D01*
X146125478Y-89402729D01*
X146125475Y-89402734D01*
X146121550Y-89407478D01*
X146118620Y-89412897D01*
X146118618Y-89412900D01*
X146026122Y-89583968D01*
X146026120Y-89583973D01*
X146023192Y-89589388D01*
X145962040Y-89786937D01*
X145961396Y-89793062D01*
X145961396Y-89793063D01*
X145942089Y-89976765D01*
X145940424Y-89992603D01*
X139254499Y-89992603D01*
X139254499Y-89727885D01*
X142746000Y-89727885D01*
X142750475Y-89743124D01*
X142751865Y-89744329D01*
X142759548Y-89746000D01*
X143727885Y-89746000D01*
X143743124Y-89741525D01*
X143744329Y-89740135D01*
X143746000Y-89732452D01*
X143746000Y-89727885D01*
X144254000Y-89727885D01*
X144258475Y-89743124D01*
X144259865Y-89744329D01*
X144267548Y-89746000D01*
X145235885Y-89746000D01*
X145251124Y-89741525D01*
X145252329Y-89740135D01*
X145254000Y-89732452D01*
X145254000Y-89296005D01*
X145253751Y-89290410D01*
X145239669Y-89132633D01*
X145237687Y-89121619D01*
X145181583Y-88916535D01*
X145177689Y-88906062D01*
X145086148Y-88714144D01*
X145080462Y-88704529D01*
X144956385Y-88531857D01*
X144949077Y-88523391D01*
X144796391Y-88375429D01*
X144787694Y-88368386D01*
X144611221Y-88249800D01*
X144601423Y-88244414D01*
X144406729Y-88158949D01*
X144396137Y-88155384D01*
X144271615Y-88125489D01*
X144257530Y-88126194D01*
X144254000Y-88135073D01*
X144254000Y-89727885D01*
X143746000Y-89727885D01*
X143746000Y-88135619D01*
X143741895Y-88121637D01*
X143732558Y-88120188D01*
X143529633Y-88182616D01*
X143519288Y-88186837D01*
X143330340Y-88284361D01*
X143320909Y-88290346D01*
X143152211Y-88419793D01*
X143143994Y-88427349D01*
X143000887Y-88584621D01*
X142994133Y-88593520D01*
X142881144Y-88773639D01*
X142876067Y-88783605D01*
X142796765Y-88980875D01*
X142793530Y-88991590D01*
X142750212Y-89200762D01*
X142749009Y-89209898D01*
X142746105Y-89260263D01*
X142746000Y-89263910D01*
X142746000Y-89727885D01*
X139254499Y-89727885D01*
X139254499Y-88145686D01*
X139253497Y-88135073D01*
X139252216Y-88121522D01*
X139252216Y-88121520D01*
X139251493Y-88113873D01*
X139206209Y-87984924D01*
X139125010Y-87874990D01*
X139015076Y-87793791D01*
X138886127Y-87748507D01*
X138878485Y-87747785D01*
X138878482Y-87747784D01*
X138863579Y-87746376D01*
X138854315Y-87745500D01*
X138570806Y-87745500D01*
X137981048Y-87745499D01*
X137974815Y-87745499D01*
X137900280Y-87760439D01*
X137889984Y-87767332D01*
X137889983Y-87767332D01*
X137850459Y-87793791D01*
X137837849Y-87802233D01*
X136802236Y-88837847D01*
X136788812Y-88858001D01*
X136766961Y-88890806D01*
X136766960Y-88890808D01*
X136760093Y-88901118D01*
X136745500Y-88974819D01*
X136745501Y-90272115D01*
X136745501Y-91311895D01*
X136725499Y-91380016D01*
X136671843Y-91426509D01*
X136601569Y-91436613D01*
X136537671Y-91407706D01*
X136504765Y-91379602D01*
X136387057Y-91279070D01*
X136185141Y-91155336D01*
X136180571Y-91153443D01*
X136180567Y-91153441D01*
X135970927Y-91066605D01*
X135970925Y-91066604D01*
X135966354Y-91064711D01*
X135863521Y-91040023D01*
X135740896Y-91010583D01*
X135740890Y-91010582D01*
X135736083Y-91009428D01*
X135500000Y-90990848D01*
X135263917Y-91009428D01*
X135259110Y-91010582D01*
X135259104Y-91010583D01*
X135136479Y-91040023D01*
X135033646Y-91064711D01*
X135029075Y-91066604D01*
X135029073Y-91066605D01*
X134819433Y-91153441D01*
X134819429Y-91153443D01*
X134814859Y-91155336D01*
X134612943Y-91279070D01*
X134432868Y-91432868D01*
X134279070Y-91612943D01*
X134155336Y-91814859D01*
X134153443Y-91819429D01*
X134153441Y-91819433D01*
X134075169Y-92008398D01*
X134064711Y-92033646D01*
X134063556Y-92038458D01*
X134010820Y-92258119D01*
X134009428Y-92263917D01*
X133990848Y-92500000D01*
X101541551Y-92500000D01*
X101502128Y-92458311D01*
X101497746Y-92453677D01*
X101492521Y-92450019D01*
X101492517Y-92450015D01*
X101448110Y-92418922D01*
X101440769Y-92413370D01*
X101393810Y-92375071D01*
X101368168Y-92361665D01*
X101354281Y-92353222D01*
X101330582Y-92336628D01*
X101324728Y-92334095D01*
X101324725Y-92334093D01*
X101274983Y-92312568D01*
X101266668Y-92308603D01*
X101212963Y-92280526D01*
X101206836Y-92278769D01*
X101206831Y-92278767D01*
X101185156Y-92272552D01*
X101169847Y-92267070D01*
X101149162Y-92258119D01*
X101149154Y-92258116D01*
X101143297Y-92255582D01*
X101137047Y-92254276D01*
X101137046Y-92254276D01*
X101121732Y-92251077D01*
X101083995Y-92243193D01*
X101075052Y-92240981D01*
X101016799Y-92224277D01*
X100990435Y-92222248D01*
X100987953Y-92222057D01*
X100971857Y-92219766D01*
X100948275Y-92214840D01*
X100948274Y-92214840D01*
X100943540Y-92213851D01*
X100936842Y-92213500D01*
X100881584Y-92213500D01*
X100871917Y-92213129D01*
X100819691Y-92209110D01*
X100819687Y-92209110D01*
X100813331Y-92208621D01*
X100790017Y-92211566D01*
X100782578Y-92212506D01*
X100766786Y-92213500D01*
X83232465Y-92213500D01*
X83219295Y-92212810D01*
X83071260Y-92197251D01*
X83071258Y-92197251D01*
X83065131Y-92196607D01*
X82887087Y-92212810D01*
X82885208Y-92212981D01*
X82873788Y-92213500D01*
X77136465Y-92213500D01*
X77123295Y-92212810D01*
X76975260Y-92197251D01*
X76975258Y-92197251D01*
X76969131Y-92196607D01*
X76846252Y-92207790D01*
X76776746Y-92214115D01*
X76776745Y-92214115D01*
X76770605Y-92214674D01*
X76764691Y-92216415D01*
X76764689Y-92216415D01*
X76681236Y-92240977D01*
X76579370Y-92270958D01*
X76402709Y-92363314D01*
X76397909Y-92367174D01*
X76397908Y-92367174D01*
X76388722Y-92374560D01*
X76247351Y-92488225D01*
X76119214Y-92640933D01*
X76023179Y-92815621D01*
X75962902Y-93005635D01*
X75940682Y-93203739D01*
X73166433Y-93203739D01*
X68101405Y-88138711D01*
X68067379Y-88076399D01*
X68064500Y-88049616D01*
X68064499Y-87679811D01*
X68064499Y-87675688D01*
X68049456Y-87561415D01*
X67990560Y-87419228D01*
X67896871Y-87297129D01*
X67774772Y-87203440D01*
X67632585Y-87144544D01*
X67531302Y-87131210D01*
X67522400Y-87130038D01*
X67522399Y-87130038D01*
X67518313Y-87129500D01*
X67310026Y-87129500D01*
X67101688Y-87129501D01*
X67097604Y-87130039D01*
X67097598Y-87130039D01*
X66995602Y-87143466D01*
X66995600Y-87143467D01*
X66987415Y-87144544D01*
X66845228Y-87203440D01*
X66723129Y-87297129D01*
X66629440Y-87419228D01*
X66570544Y-87561415D01*
X66555500Y-87675687D01*
X66555501Y-88092312D01*
X66556039Y-88096396D01*
X66556039Y-88096402D01*
X66569466Y-88198398D01*
X66570544Y-88206585D01*
X66629440Y-88348772D01*
X66723129Y-88470871D01*
X66845228Y-88564560D01*
X66987415Y-88623456D01*
X66995603Y-88624534D01*
X67093294Y-88637395D01*
X67101687Y-88638500D01*
X67138367Y-88638500D01*
X67475615Y-88638499D01*
X67543735Y-88658501D01*
X67564710Y-88675404D01*
X73544711Y-94655405D01*
X73578737Y-94717717D01*
X73573672Y-94788532D01*
X73531125Y-94845368D01*
X73464605Y-94870179D01*
X73455616Y-94870500D01*
X68110071Y-94870500D01*
X68041950Y-94850498D01*
X67999138Y-94799267D01*
X67997850Y-94800011D01*
X67993721Y-94792860D01*
X67990560Y-94785228D01*
X67896871Y-94663129D01*
X67774772Y-94569440D01*
X67632585Y-94510544D01*
X67624397Y-94509466D01*
X67522400Y-94496038D01*
X67522399Y-94496038D01*
X67518313Y-94495500D01*
X67310026Y-94495500D01*
X67101688Y-94495501D01*
X67097604Y-94496039D01*
X67097598Y-94496039D01*
X66995602Y-94509466D01*
X66995600Y-94509467D01*
X66987415Y-94510544D01*
X66845228Y-94569440D01*
X66723129Y-94663129D01*
X66629440Y-94785228D01*
X66570544Y-94927415D01*
X66555500Y-95041687D01*
X66555501Y-95458312D01*
X66556039Y-95462396D01*
X66556039Y-95462402D01*
X66560872Y-95499113D01*
X66570544Y-95572585D01*
X66629440Y-95714772D01*
X66723129Y-95836871D01*
X66729679Y-95841897D01*
X66816862Y-95908794D01*
X66845228Y-95930560D01*
X66987415Y-95989456D01*
X66995603Y-95990534D01*
X67097593Y-96003961D01*
X67101687Y-96004500D01*
X67309974Y-96004500D01*
X67518312Y-96004499D01*
X67522396Y-96003961D01*
X67522402Y-96003961D01*
X67624398Y-95990534D01*
X67624400Y-95990533D01*
X67632585Y-95989456D01*
X67774772Y-95930560D01*
X67803138Y-95908794D01*
X67890321Y-95841897D01*
X67896871Y-95836871D01*
X67990560Y-95714772D01*
X67993721Y-95707140D01*
X67997850Y-95699989D01*
X67999004Y-95700655D01*
X68038205Y-95652005D01*
X68110071Y-95629500D01*
X73830220Y-95629500D01*
X73898341Y-95649502D01*
X73919315Y-95666405D01*
X76984126Y-98731216D01*
X76999268Y-98749964D01*
X77000383Y-98751189D01*
X77006033Y-98759940D01*
X77014211Y-98766387D01*
X77014213Y-98766389D01*
X77032404Y-98780729D01*
X77036848Y-98784678D01*
X77036910Y-98784604D01*
X77040867Y-98787957D01*
X77044548Y-98791638D01*
X77060258Y-98802865D01*
X77064984Y-98806413D01*
X77105251Y-98838156D01*
X77113888Y-98841189D01*
X77121338Y-98846513D01*
X77131314Y-98849497D01*
X77131315Y-98849497D01*
X77146650Y-98854083D01*
X77170453Y-98861202D01*
X77176090Y-98863034D01*
X77216971Y-98877390D01*
X77224455Y-98880018D01*
X77230020Y-98880500D01*
X77232728Y-98880500D01*
X77235362Y-98880614D01*
X77235460Y-98880643D01*
X77235453Y-98880807D01*
X77236157Y-98880851D01*
X77242382Y-98882713D01*
X77296239Y-98880597D01*
X77301186Y-98880500D01*
X81291616Y-98880500D01*
X81359737Y-98900502D01*
X81380711Y-98917405D01*
X82208595Y-99745289D01*
X82242621Y-99807601D01*
X82245500Y-99834384D01*
X82245501Y-100165615D01*
X82245501Y-100208312D01*
X82246039Y-100212396D01*
X82246039Y-100212402D01*
X82259466Y-100314397D01*
X82260544Y-100322585D01*
X82319440Y-100464772D01*
X82413129Y-100586871D01*
X82419679Y-100591897D01*
X82450108Y-100615246D01*
X82535228Y-100680560D01*
X82677415Y-100739456D01*
X82685603Y-100740534D01*
X82787593Y-100753961D01*
X82791687Y-100754500D01*
X82828367Y-100754500D01*
X83165615Y-100754499D01*
X83233735Y-100774501D01*
X83254710Y-100791404D01*
X85055522Y-102592216D01*
X85070664Y-102610964D01*
X85071779Y-102612189D01*
X85077429Y-102620940D01*
X85085607Y-102627387D01*
X85085609Y-102627389D01*
X85103800Y-102641729D01*
X85108244Y-102645678D01*
X85108306Y-102645604D01*
X85112263Y-102648957D01*
X85115944Y-102652638D01*
X85131654Y-102663865D01*
X85136380Y-102667413D01*
X85176647Y-102699156D01*
X85185284Y-102702189D01*
X85192734Y-102707513D01*
X85202710Y-102710497D01*
X85202711Y-102710497D01*
X85213314Y-102713668D01*
X85241849Y-102722202D01*
X85247486Y-102724034D01*
X85288367Y-102738390D01*
X85295851Y-102741018D01*
X85301416Y-102741500D01*
X85304124Y-102741500D01*
X85306758Y-102741614D01*
X85306856Y-102741643D01*
X85306849Y-102741807D01*
X85307553Y-102741851D01*
X85313778Y-102743713D01*
X85367635Y-102741597D01*
X85372582Y-102741500D01*
X86100331Y-102741500D01*
X86168452Y-102761502D01*
X86214945Y-102815158D01*
X86225049Y-102885432D01*
X86216740Y-102915718D01*
X86178993Y-103006847D01*
X86177916Y-103015031D01*
X86177915Y-103015033D01*
X86174258Y-103042812D01*
X86159936Y-103151601D01*
X86161014Y-103159789D01*
X86175590Y-103270503D01*
X86178993Y-103296355D01*
X86182152Y-103303981D01*
X86219663Y-103394539D01*
X86234866Y-103431243D01*
X86323747Y-103547075D01*
X86330297Y-103552101D01*
X86330300Y-103552104D01*
X86428743Y-103627642D01*
X86439578Y-103635956D01*
X86574467Y-103691829D01*
X86702833Y-103708729D01*
X86767759Y-103737450D01*
X86775481Y-103744555D01*
X87089823Y-104058897D01*
X87123849Y-104121209D01*
X87125648Y-104131537D01*
X87126763Y-104140000D01*
X87141100Y-104248903D01*
X87142549Y-104259911D01*
X87162355Y-104307727D01*
X87187451Y-104368312D01*
X87198422Y-104394799D01*
X87287303Y-104510631D01*
X87293853Y-104515657D01*
X87293856Y-104515660D01*
X87393210Y-104591897D01*
X87403134Y-104599512D01*
X87538023Y-104655385D01*
X87682777Y-104674442D01*
X87690965Y-104673364D01*
X87819343Y-104656463D01*
X87827531Y-104655385D01*
X87962420Y-104599512D01*
X87972344Y-104591897D01*
X88071698Y-104515660D01*
X88071701Y-104515657D01*
X88078251Y-104510631D01*
X88167132Y-104394799D01*
X88178104Y-104368312D01*
X88203199Y-104307727D01*
X88223005Y-104259911D01*
X88224455Y-104248903D01*
X88240984Y-104123345D01*
X88242062Y-104115157D01*
X88234655Y-104058897D01*
X88224083Y-103978589D01*
X88224082Y-103978587D01*
X88223005Y-103970403D01*
X88180582Y-103867986D01*
X88170292Y-103843143D01*
X88170291Y-103843141D01*
X88167132Y-103835515D01*
X88122691Y-103777599D01*
X88083278Y-103726234D01*
X88083277Y-103726233D01*
X88078251Y-103719683D01*
X88071701Y-103714657D01*
X88071698Y-103714654D01*
X87968973Y-103635830D01*
X87968971Y-103635829D01*
X87962420Y-103630802D01*
X87827531Y-103574929D01*
X87699165Y-103558029D01*
X87634239Y-103529308D01*
X87626517Y-103522203D01*
X87312175Y-103207861D01*
X87278149Y-103145549D01*
X87276348Y-103135212D01*
X87260527Y-103015033D01*
X87260526Y-103015031D01*
X87259449Y-103006847D01*
X87221702Y-102915718D01*
X87214113Y-102845129D01*
X87245892Y-102781642D01*
X87306950Y-102745414D01*
X87338111Y-102741500D01*
X87879824Y-102741500D01*
X87947945Y-102761502D01*
X87968919Y-102778405D01*
X88474860Y-103284346D01*
X88508886Y-103346658D01*
X88511765Y-103373441D01*
X88511765Y-107808220D01*
X88491763Y-107876341D01*
X88474860Y-107897315D01*
X88233580Y-108138595D01*
X88171268Y-108172621D01*
X88144485Y-108175500D01*
X85089074Y-108175500D01*
X85020953Y-108155498D01*
X84974373Y-108101651D01*
X84955388Y-108059895D01*
X84949530Y-108053096D01*
X84949527Y-108053092D01*
X84866916Y-107957218D01*
X84866913Y-107957216D01*
X84861056Y-107950418D01*
X84800423Y-107911117D01*
X84747324Y-107876700D01*
X84747322Y-107876699D01*
X84739790Y-107871817D01*
X84722921Y-107866772D01*
X84609938Y-107832982D01*
X84609936Y-107832982D01*
X84601337Y-107830410D01*
X84592363Y-107830355D01*
X84592361Y-107830355D01*
X84529082Y-107829969D01*
X84456827Y-107829528D01*
X84448196Y-107831995D01*
X84448194Y-107831995D01*
X84427750Y-107837838D01*
X84317879Y-107869239D01*
X84310287Y-107874029D01*
X84304946Y-107876418D01*
X84234596Y-107885973D01*
X84170247Y-107855977D01*
X84132331Y-107795953D01*
X84127500Y-107761399D01*
X84127500Y-107715632D01*
X84147502Y-107647511D01*
X84160084Y-107631078D01*
X84163399Y-107627415D01*
X84170551Y-107619514D01*
X84180774Y-107598415D01*
X84229645Y-107497543D01*
X84229645Y-107497542D01*
X84233560Y-107489462D01*
X84257536Y-107346953D01*
X84257688Y-107334500D01*
X84240745Y-107216192D01*
X84238474Y-107200335D01*
X84238473Y-107200333D01*
X84237201Y-107191448D01*
X84177388Y-107059895D01*
X84171530Y-107053096D01*
X84171527Y-107053092D01*
X84088916Y-106957218D01*
X84088913Y-106957216D01*
X84083056Y-106950418D01*
X83961790Y-106871817D01*
X83952067Y-106868909D01*
X83823337Y-106830410D01*
X83823737Y-106829071D01*
X83767875Y-106803183D01*
X83729824Y-106743244D01*
X83726192Y-106726299D01*
X83721201Y-106691448D01*
X83661388Y-106559895D01*
X83655530Y-106553096D01*
X83655527Y-106553092D01*
X83572916Y-106457218D01*
X83572913Y-106457216D01*
X83567056Y-106450418D01*
X83445790Y-106371817D01*
X83404766Y-106359548D01*
X83315938Y-106332982D01*
X83315936Y-106332982D01*
X83307337Y-106330410D01*
X83298363Y-106330355D01*
X83298361Y-106330355D01*
X83276652Y-106330223D01*
X83255527Y-106330094D01*
X83187531Y-106309676D01*
X83141366Y-106255738D01*
X83131571Y-106221966D01*
X83127201Y-106191448D01*
X83067388Y-106059895D01*
X83061530Y-106053096D01*
X83061527Y-106053092D01*
X82978916Y-105957218D01*
X82978913Y-105957216D01*
X82973056Y-105950418D01*
X82851790Y-105871817D01*
X82802474Y-105857068D01*
X82721938Y-105832982D01*
X82721936Y-105832982D01*
X82713337Y-105830410D01*
X82704363Y-105830355D01*
X82704361Y-105830355D01*
X82671080Y-105830152D01*
X82603082Y-105809734D01*
X82556918Y-105755796D01*
X82547122Y-105722016D01*
X82533494Y-105626855D01*
X82533493Y-105626853D01*
X82532221Y-105617968D01*
X82472408Y-105486415D01*
X82466550Y-105479616D01*
X82466547Y-105479612D01*
X82383936Y-105383738D01*
X82383933Y-105383736D01*
X82378076Y-105376938D01*
X82256810Y-105298337D01*
X82248210Y-105295765D01*
X82159968Y-105269374D01*
X82100434Y-105230691D01*
X82071344Y-105166520D01*
X82054994Y-105052355D01*
X82054993Y-105052353D01*
X82053721Y-105043468D01*
X81993908Y-104911915D01*
X81988050Y-104905116D01*
X81988047Y-104905112D01*
X81905436Y-104809238D01*
X81905433Y-104809236D01*
X81899576Y-104802438D01*
X81825617Y-104754500D01*
X81785844Y-104728720D01*
X81785842Y-104728719D01*
X81778310Y-104723837D01*
X81744308Y-104713668D01*
X81648458Y-104685002D01*
X81648456Y-104685002D01*
X81639857Y-104682430D01*
X81630883Y-104682375D01*
X81630881Y-104682375D01*
X81565763Y-104681978D01*
X81495347Y-104681548D01*
X81486736Y-104684009D01*
X81416542Y-104673441D01*
X81363196Y-104626593D01*
X81350415Y-104598317D01*
X81349721Y-104593468D01*
X81289908Y-104461915D01*
X81284050Y-104455116D01*
X81284047Y-104455112D01*
X81201436Y-104359238D01*
X81201433Y-104359236D01*
X81195576Y-104352438D01*
X81074310Y-104273837D01*
X81053245Y-104267537D01*
X80944458Y-104235002D01*
X80944456Y-104235002D01*
X80935857Y-104232430D01*
X80926883Y-104232375D01*
X80926881Y-104232375D01*
X80863602Y-104231989D01*
X80791347Y-104231548D01*
X80782716Y-104234015D01*
X80782714Y-104234015D01*
X80728831Y-104249415D01*
X80657837Y-104248903D01*
X80598389Y-104210089D01*
X80569363Y-104145297D01*
X80569099Y-104141411D01*
X80569285Y-104140000D01*
X80568172Y-104131546D01*
X80551306Y-104003432D01*
X80551305Y-104003430D01*
X80550228Y-103995246D01*
X80494355Y-103860358D01*
X80405474Y-103744526D01*
X80398924Y-103739500D01*
X80398921Y-103739497D01*
X80296196Y-103660673D01*
X80296194Y-103660672D01*
X80289643Y-103655645D01*
X80154754Y-103599772D01*
X80010000Y-103580715D01*
X80001812Y-103581793D01*
X79873432Y-103598694D01*
X79873430Y-103598695D01*
X79865246Y-103599772D01*
X79857618Y-103602932D01*
X79857617Y-103602932D01*
X79838358Y-103610909D01*
X79790140Y-103620500D01*
X78185557Y-103620500D01*
X78117436Y-103600498D01*
X78070943Y-103546842D01*
X78060839Y-103476568D01*
X78090333Y-103411988D01*
X78137339Y-103378091D01*
X78148565Y-103373441D01*
X78194643Y-103354355D01*
X78240145Y-103319440D01*
X78303921Y-103270503D01*
X78303924Y-103270500D01*
X78310474Y-103265474D01*
X78399355Y-103149642D01*
X78455228Y-103014754D01*
X78457916Y-102994342D01*
X78473207Y-102878188D01*
X78474285Y-102870000D01*
X78462653Y-102781642D01*
X78456306Y-102733432D01*
X78456305Y-102733430D01*
X78455228Y-102725246D01*
X78426046Y-102654794D01*
X78402515Y-102597986D01*
X78402514Y-102597984D01*
X78399355Y-102590358D01*
X78324613Y-102492952D01*
X78315501Y-102481077D01*
X78315500Y-102481076D01*
X78310474Y-102474526D01*
X78303924Y-102469500D01*
X78303921Y-102469497D01*
X78201196Y-102390673D01*
X78201194Y-102390672D01*
X78194643Y-102385645D01*
X78059754Y-102329772D01*
X77931391Y-102312873D01*
X77866464Y-102284151D01*
X77858742Y-102277047D01*
X77351476Y-101769782D01*
X77336339Y-101751039D01*
X77335221Y-101749810D01*
X77329571Y-101741060D01*
X77321393Y-101734613D01*
X77321391Y-101734611D01*
X77303200Y-101720271D01*
X77298759Y-101716325D01*
X77298697Y-101716398D01*
X77294733Y-101713039D01*
X77291056Y-101709362D01*
X77275308Y-101698108D01*
X77270638Y-101694602D01*
X77230353Y-101662844D01*
X77221719Y-101659812D01*
X77214266Y-101654486D01*
X77165150Y-101639797D01*
X77159508Y-101637964D01*
X77118633Y-101623610D01*
X77118632Y-101623610D01*
X77111149Y-101620982D01*
X77105584Y-101620500D01*
X77102876Y-101620500D01*
X77100242Y-101620386D01*
X77100144Y-101620357D01*
X77100151Y-101620193D01*
X77099447Y-101620149D01*
X77093222Y-101618287D01*
X77039365Y-101620403D01*
X77034418Y-101620500D01*
X71800071Y-101620500D01*
X71731950Y-101600498D01*
X71689138Y-101549267D01*
X71687850Y-101550011D01*
X71683721Y-101542860D01*
X71680560Y-101535228D01*
X71635363Y-101476325D01*
X71591897Y-101419679D01*
X71586871Y-101413129D01*
X71464772Y-101319440D01*
X71322585Y-101260544D01*
X71276676Y-101254500D01*
X71212400Y-101246038D01*
X71212399Y-101246038D01*
X71208313Y-101245500D01*
X71171633Y-101245500D01*
X70834385Y-101245501D01*
X70766265Y-101225499D01*
X70745290Y-101208596D01*
X70440325Y-100903631D01*
X70406299Y-100841319D01*
X70411364Y-100770504D01*
X70453911Y-100713668D01*
X70520431Y-100688857D01*
X70577639Y-100698127D01*
X70677415Y-100739456D01*
X70685603Y-100740534D01*
X70787593Y-100753961D01*
X70791687Y-100754500D01*
X70999974Y-100754500D01*
X71208312Y-100754499D01*
X71212396Y-100753961D01*
X71212402Y-100753961D01*
X71314398Y-100740534D01*
X71314400Y-100740533D01*
X71322585Y-100739456D01*
X71464772Y-100680560D01*
X71549892Y-100615246D01*
X71580321Y-100591897D01*
X71586871Y-100586871D01*
X71680560Y-100464772D01*
X71739456Y-100322585D01*
X71754500Y-100208313D01*
X71754499Y-99791688D01*
X71752991Y-99780228D01*
X71740534Y-99685602D01*
X71740533Y-99685600D01*
X71739456Y-99677415D01*
X71680560Y-99535228D01*
X71633196Y-99473501D01*
X71591897Y-99419679D01*
X71586871Y-99413129D01*
X71464772Y-99319440D01*
X71322585Y-99260544D01*
X71314397Y-99259466D01*
X71212400Y-99246038D01*
X71212399Y-99246038D01*
X71208313Y-99245500D01*
X71000026Y-99245500D01*
X70791688Y-99245501D01*
X70787604Y-99246039D01*
X70787598Y-99246039D01*
X70685602Y-99259466D01*
X70685600Y-99259467D01*
X70677415Y-99260544D01*
X70535228Y-99319440D01*
X70413129Y-99413129D01*
X70408103Y-99419679D01*
X70366804Y-99473501D01*
X70319440Y-99535228D01*
X70260544Y-99677415D01*
X70245500Y-99791687D01*
X70245501Y-100208312D01*
X70246039Y-100212396D01*
X70246039Y-100212402D01*
X70259466Y-100314397D01*
X70260544Y-100322585D01*
X70263704Y-100330213D01*
X70301873Y-100422362D01*
X70309462Y-100492952D01*
X70277683Y-100556439D01*
X70216625Y-100592666D01*
X70145673Y-100590132D01*
X70096369Y-100559675D01*
X69128478Y-99591784D01*
X69113336Y-99573036D01*
X69112221Y-99571811D01*
X69106571Y-99563060D01*
X69098393Y-99556613D01*
X69098391Y-99556611D01*
X69080200Y-99542271D01*
X69075759Y-99538325D01*
X69075697Y-99538398D01*
X69071733Y-99535039D01*
X69068056Y-99531362D01*
X69052308Y-99520108D01*
X69047638Y-99516602D01*
X69007353Y-99484844D01*
X68998719Y-99481812D01*
X68991266Y-99476486D01*
X68942150Y-99461797D01*
X68936508Y-99459964D01*
X68895633Y-99445610D01*
X68895632Y-99445610D01*
X68888149Y-99442982D01*
X68882584Y-99442500D01*
X68879876Y-99442500D01*
X68877242Y-99442386D01*
X68877144Y-99442357D01*
X68877151Y-99442193D01*
X68876447Y-99442149D01*
X68870222Y-99440287D01*
X68816365Y-99442403D01*
X68811418Y-99442500D01*
X64642000Y-99442500D01*
X64573879Y-99422498D01*
X64527386Y-99368842D01*
X64516000Y-99316500D01*
X64516000Y-91485687D01*
X65031500Y-91485687D01*
X65031501Y-91902312D01*
X65032039Y-91906396D01*
X65032039Y-91906402D01*
X65039095Y-91960000D01*
X65046544Y-92016585D01*
X65105440Y-92158772D01*
X65110469Y-92165326D01*
X65168518Y-92240977D01*
X65199129Y-92280871D01*
X65205679Y-92285897D01*
X65299507Y-92357893D01*
X65321228Y-92374560D01*
X65463415Y-92433456D01*
X65471603Y-92434534D01*
X65573593Y-92447961D01*
X65577687Y-92448500D01*
X65785974Y-92448500D01*
X65994312Y-92448499D01*
X65998396Y-92447961D01*
X65998402Y-92447961D01*
X66100398Y-92434534D01*
X66100400Y-92434533D01*
X66108585Y-92433456D01*
X66250772Y-92374560D01*
X66272493Y-92357893D01*
X66366321Y-92285897D01*
X66372871Y-92280871D01*
X66403483Y-92240977D01*
X66461531Y-92165326D01*
X66466560Y-92158772D01*
X66525456Y-92016585D01*
X66529605Y-91985067D01*
X66539962Y-91906400D01*
X66539962Y-91906399D01*
X66540500Y-91902313D01*
X66540499Y-91485688D01*
X66538190Y-91468143D01*
X66526534Y-91379602D01*
X66526533Y-91379600D01*
X66525456Y-91371415D01*
X66466560Y-91229228D01*
X66446347Y-91202886D01*
X66377897Y-91113679D01*
X66372871Y-91107129D01*
X66250772Y-91013440D01*
X66108585Y-90954544D01*
X66012923Y-90941950D01*
X65998400Y-90940038D01*
X65998399Y-90940038D01*
X65994313Y-90939500D01*
X65786026Y-90939500D01*
X65577688Y-90939501D01*
X65573604Y-90940039D01*
X65573598Y-90940039D01*
X65471602Y-90953466D01*
X65471600Y-90953467D01*
X65463415Y-90954544D01*
X65321228Y-91013440D01*
X65199129Y-91107129D01*
X65194103Y-91113679D01*
X65125653Y-91202886D01*
X65105440Y-91229228D01*
X65046544Y-91371415D01*
X65031500Y-91485687D01*
X64516000Y-91485687D01*
X64516000Y-85837739D01*
X75940682Y-85837739D01*
X75957362Y-86036386D01*
X76012310Y-86228009D01*
X76103430Y-86405311D01*
X76227253Y-86561537D01*
X76379063Y-86690737D01*
X76384441Y-86693743D01*
X76384443Y-86693744D01*
X76407214Y-86706470D01*
X76553076Y-86787989D01*
X76558935Y-86789893D01*
X76558938Y-86789894D01*
X76619703Y-86809638D01*
X76742665Y-86849591D01*
X76748775Y-86850320D01*
X76748777Y-86850320D01*
X76841637Y-86861393D01*
X76940609Y-86873194D01*
X76946744Y-86872722D01*
X76946746Y-86872722D01*
X77135265Y-86858216D01*
X77135299Y-86858213D01*
X77139367Y-86857900D01*
X77139592Y-86857837D01*
X77154869Y-86856500D01*
X99399118Y-86856500D01*
X99414038Y-86857386D01*
X99546609Y-86873194D01*
X99552744Y-86872722D01*
X99552746Y-86872722D01*
X99741265Y-86858216D01*
X99741299Y-86858213D01*
X99745367Y-86857900D01*
X99745592Y-86857837D01*
X99760869Y-86856500D01*
X100467732Y-86856500D01*
X100535853Y-86876502D01*
X100556827Y-86893405D01*
X103008228Y-89344805D01*
X103010682Y-89347327D01*
X103070254Y-89410323D01*
X103075479Y-89413981D01*
X103075483Y-89413985D01*
X103119890Y-89445078D01*
X103127231Y-89450630D01*
X103174190Y-89488929D01*
X103199832Y-89502335D01*
X103213719Y-89510778D01*
X103237418Y-89527372D01*
X103243272Y-89529905D01*
X103243275Y-89529907D01*
X103293017Y-89551432D01*
X103301332Y-89555397D01*
X103355037Y-89583474D01*
X103361164Y-89585231D01*
X103361169Y-89585233D01*
X103382844Y-89591448D01*
X103398153Y-89596930D01*
X103418838Y-89605881D01*
X103418846Y-89605884D01*
X103424703Y-89608418D01*
X103430953Y-89609724D01*
X103430954Y-89609724D01*
X103446268Y-89612923D01*
X103484005Y-89620807D01*
X103492948Y-89623019D01*
X103551201Y-89639723D01*
X103577565Y-89641752D01*
X103580047Y-89641943D01*
X103596143Y-89644234D01*
X103619725Y-89649160D01*
X103619726Y-89649160D01*
X103624460Y-89650149D01*
X103631158Y-89650500D01*
X103686416Y-89650500D01*
X103696083Y-89650871D01*
X103748309Y-89654890D01*
X103748313Y-89654890D01*
X103754669Y-89655379D01*
X103785421Y-89651494D01*
X103801214Y-89650500D01*
X103936997Y-89650500D01*
X104015088Y-89642568D01*
X104082676Y-89635703D01*
X104082678Y-89635703D01*
X104089024Y-89635058D01*
X104283755Y-89574033D01*
X104462238Y-89475098D01*
X104617182Y-89342295D01*
X104742257Y-89181049D01*
X104771500Y-89121619D01*
X104829540Y-89003668D01*
X104829542Y-89003663D01*
X104832355Y-88997946D01*
X104840829Y-88965416D01*
X104869768Y-88854313D01*
X104883794Y-88800467D01*
X104893015Y-88624534D01*
X104894141Y-88603058D01*
X104894141Y-88603054D01*
X104894475Y-88596677D01*
X104870430Y-88437687D01*
X132087500Y-88437687D01*
X132087501Y-88854312D01*
X132088039Y-88858396D01*
X132088039Y-88858402D01*
X132099557Y-88945893D01*
X132102544Y-88968585D01*
X132161440Y-89110772D01*
X132255129Y-89232871D01*
X132377228Y-89326560D01*
X132519415Y-89385456D01*
X132527603Y-89386534D01*
X132629593Y-89399961D01*
X132633687Y-89400500D01*
X132841974Y-89400500D01*
X133050312Y-89400499D01*
X133054396Y-89399961D01*
X133054402Y-89399961D01*
X133156398Y-89386534D01*
X133156400Y-89386533D01*
X133164585Y-89385456D01*
X133306772Y-89326560D01*
X133428871Y-89232871D01*
X133522560Y-89110772D01*
X133581456Y-88968585D01*
X133596500Y-88854313D01*
X133596500Y-88729762D01*
X134635068Y-88729762D01*
X134640795Y-88737412D01*
X134810867Y-88841632D01*
X134819661Y-88846113D01*
X135029228Y-88932918D01*
X135038613Y-88935967D01*
X135259182Y-88988922D01*
X135268929Y-88990465D01*
X135495070Y-89008263D01*
X135504930Y-89008263D01*
X135731071Y-88990465D01*
X135740818Y-88988922D01*
X135961387Y-88935967D01*
X135970772Y-88932918D01*
X136180339Y-88846113D01*
X136189133Y-88841632D01*
X136355539Y-88739659D01*
X136364999Y-88729203D01*
X136361215Y-88720425D01*
X135512812Y-87872022D01*
X135498868Y-87864408D01*
X135497035Y-87864539D01*
X135490420Y-87868790D01*
X134641828Y-88717382D01*
X134635068Y-88729762D01*
X133596500Y-88729762D01*
X133596499Y-88437688D01*
X133594144Y-88419793D01*
X133582534Y-88331602D01*
X133582533Y-88331600D01*
X133581456Y-88323415D01*
X133522560Y-88181228D01*
X133428871Y-88059129D01*
X133306772Y-87965440D01*
X133164585Y-87906544D01*
X133156397Y-87905466D01*
X133054400Y-87892038D01*
X133054399Y-87892038D01*
X133050313Y-87891500D01*
X132842026Y-87891500D01*
X132633688Y-87891501D01*
X132629604Y-87892039D01*
X132629598Y-87892039D01*
X132527602Y-87905466D01*
X132527600Y-87905467D01*
X132519415Y-87906544D01*
X132377228Y-87965440D01*
X132255129Y-88059129D01*
X132161440Y-88181228D01*
X132102544Y-88323415D01*
X132101466Y-88331602D01*
X132101466Y-88331603D01*
X132093133Y-88394903D01*
X132087500Y-88437687D01*
X104870430Y-88437687D01*
X104863959Y-88394903D01*
X104793494Y-88203385D01*
X104685959Y-88029949D01*
X104545746Y-87881677D01*
X104527342Y-87868790D01*
X104383815Y-87768292D01*
X104383814Y-87768291D01*
X104378582Y-87764628D01*
X104207822Y-87690733D01*
X104168768Y-87664191D01*
X104009507Y-87504930D01*
X133991737Y-87504930D01*
X134009535Y-87731071D01*
X134011078Y-87740818D01*
X134064033Y-87961387D01*
X134067082Y-87970772D01*
X134153887Y-88180339D01*
X134158368Y-88189133D01*
X134260341Y-88355539D01*
X134270797Y-88364999D01*
X134279575Y-88361215D01*
X135127978Y-87512812D01*
X135134356Y-87501132D01*
X135864408Y-87501132D01*
X135864539Y-87502965D01*
X135868790Y-87509580D01*
X136717382Y-88358172D01*
X136729762Y-88364932D01*
X136737412Y-88359205D01*
X136841632Y-88189133D01*
X136846113Y-88180339D01*
X136932918Y-87970772D01*
X136935967Y-87961387D01*
X136988922Y-87740818D01*
X136990465Y-87731071D01*
X137008263Y-87504930D01*
X137008263Y-87495070D01*
X136990465Y-87268929D01*
X136988922Y-87259182D01*
X136935967Y-87038613D01*
X136932918Y-87029228D01*
X136846113Y-86819661D01*
X136841632Y-86810867D01*
X136739659Y-86644461D01*
X136729203Y-86635001D01*
X136720425Y-86638785D01*
X135872022Y-87487188D01*
X135864408Y-87501132D01*
X135134356Y-87501132D01*
X135135592Y-87498868D01*
X135135461Y-87497035D01*
X135131210Y-87490420D01*
X134282618Y-86641828D01*
X134270238Y-86635068D01*
X134262588Y-86640795D01*
X134158368Y-86810867D01*
X134153887Y-86819661D01*
X134067082Y-87029228D01*
X134064033Y-87038613D01*
X134011078Y-87259182D01*
X134009535Y-87268929D01*
X133991737Y-87495070D01*
X133991737Y-87504930D01*
X104009507Y-87504930D01*
X102775374Y-86270797D01*
X134635001Y-86270797D01*
X134638785Y-86279575D01*
X135487188Y-87127978D01*
X135501132Y-87135592D01*
X135502965Y-87135461D01*
X135509580Y-87131210D01*
X136358172Y-86282618D01*
X136364932Y-86270238D01*
X136359205Y-86262588D01*
X136189133Y-86158368D01*
X136180339Y-86153887D01*
X135970772Y-86067082D01*
X135961387Y-86064033D01*
X135740818Y-86011078D01*
X135731071Y-86009535D01*
X135504930Y-85991737D01*
X135495070Y-85991737D01*
X135268929Y-86009535D01*
X135259182Y-86011078D01*
X135038613Y-86064033D01*
X135029228Y-86067082D01*
X134819661Y-86153887D01*
X134810867Y-86158368D01*
X134644461Y-86260341D01*
X134635001Y-86270797D01*
X102775374Y-86270797D01*
X102272019Y-85767442D01*
X143020188Y-85767442D01*
X143082616Y-85970367D01*
X143086837Y-85980712D01*
X143184361Y-86169660D01*
X143190346Y-86179091D01*
X143319793Y-86347789D01*
X143327349Y-86356006D01*
X143484621Y-86499113D01*
X143493520Y-86505867D01*
X143673639Y-86618856D01*
X143683605Y-86623933D01*
X143880875Y-86703235D01*
X143891590Y-86706470D01*
X144100762Y-86749788D01*
X144109898Y-86750991D01*
X144160263Y-86753895D01*
X144163910Y-86754000D01*
X144727885Y-86754000D01*
X144743124Y-86749525D01*
X144744329Y-86748135D01*
X144746000Y-86740452D01*
X144746000Y-86735885D01*
X145254000Y-86735885D01*
X145258475Y-86751124D01*
X145259865Y-86752329D01*
X145267548Y-86754000D01*
X145803995Y-86754000D01*
X145809590Y-86753751D01*
X145967367Y-86739669D01*
X145978381Y-86737687D01*
X146183465Y-86681583D01*
X146193938Y-86677689D01*
X146385856Y-86586148D01*
X146395471Y-86580462D01*
X146568143Y-86456385D01*
X146576609Y-86449077D01*
X146724571Y-86296391D01*
X146731614Y-86287694D01*
X146850200Y-86111221D01*
X146855586Y-86101423D01*
X146941051Y-85906729D01*
X146944616Y-85896137D01*
X146974511Y-85771615D01*
X146973806Y-85757530D01*
X146964927Y-85754000D01*
X145272115Y-85754000D01*
X145256876Y-85758475D01*
X145255671Y-85759865D01*
X145254000Y-85767548D01*
X145254000Y-86735885D01*
X144746000Y-86735885D01*
X144746000Y-85772115D01*
X144741525Y-85756876D01*
X144740135Y-85755671D01*
X144732452Y-85754000D01*
X143035619Y-85754000D01*
X143021637Y-85758105D01*
X143020188Y-85767442D01*
X102272019Y-85767442D01*
X101979038Y-85474461D01*
X139889899Y-85474461D01*
X139899781Y-85486950D01*
X139942199Y-85515292D01*
X139952307Y-85520780D01*
X140136564Y-85599943D01*
X140147497Y-85603495D01*
X140343091Y-85647754D01*
X140354500Y-85649256D01*
X140554886Y-85657129D01*
X140566368Y-85656527D01*
X140764836Y-85627751D01*
X140776019Y-85625066D01*
X140965917Y-85560604D01*
X140976420Y-85555928D01*
X141101830Y-85485696D01*
X141111693Y-85475619D01*
X141108738Y-85467949D01*
X140869174Y-85228385D01*
X143025489Y-85228385D01*
X143026194Y-85242470D01*
X143035073Y-85246000D01*
X144727885Y-85246000D01*
X144743124Y-85241525D01*
X144744329Y-85240135D01*
X144746000Y-85232452D01*
X144746000Y-85227885D01*
X145254000Y-85227885D01*
X145258475Y-85243124D01*
X145259865Y-85244329D01*
X145267548Y-85246000D01*
X146964381Y-85246000D01*
X146978363Y-85241895D01*
X146979812Y-85232558D01*
X146917384Y-85029633D01*
X146913163Y-85019288D01*
X146815639Y-84830340D01*
X146809654Y-84820909D01*
X146680207Y-84652211D01*
X146672651Y-84643994D01*
X146515379Y-84500887D01*
X146506480Y-84494133D01*
X146326361Y-84381144D01*
X146316395Y-84376067D01*
X146119125Y-84296765D01*
X146108410Y-84293530D01*
X145899238Y-84250212D01*
X145890102Y-84249009D01*
X145839737Y-84246105D01*
X145836090Y-84246000D01*
X145272115Y-84246000D01*
X145256876Y-84250475D01*
X145255671Y-84251865D01*
X145254000Y-84259548D01*
X145254000Y-85227885D01*
X144746000Y-85227885D01*
X144746000Y-84264115D01*
X144741525Y-84248876D01*
X144740135Y-84247671D01*
X144732452Y-84246000D01*
X144196005Y-84246000D01*
X144190410Y-84246249D01*
X144032633Y-84260331D01*
X144021619Y-84262313D01*
X143816535Y-84318417D01*
X143806062Y-84322311D01*
X143614144Y-84413852D01*
X143604529Y-84419538D01*
X143431857Y-84543615D01*
X143423391Y-84550923D01*
X143275429Y-84703609D01*
X143268386Y-84712306D01*
X143149800Y-84888779D01*
X143144414Y-84898577D01*
X143058949Y-85093271D01*
X143055384Y-85103863D01*
X143025489Y-85228385D01*
X140869174Y-85228385D01*
X140512811Y-84872021D01*
X140498868Y-84864408D01*
X140497034Y-84864539D01*
X140490420Y-84868790D01*
X139896092Y-85463119D01*
X139889899Y-85474461D01*
X101979038Y-85474461D01*
X101657772Y-85153195D01*
X101655318Y-85150673D01*
X101600128Y-85092311D01*
X101595746Y-85087677D01*
X101590521Y-85084019D01*
X101590517Y-85084015D01*
X101546110Y-85052922D01*
X101538769Y-85047370D01*
X101491810Y-85009071D01*
X101466168Y-84995665D01*
X101452281Y-84987222D01*
X101436854Y-84976420D01*
X101428582Y-84970628D01*
X101422728Y-84968095D01*
X101422725Y-84968093D01*
X101372983Y-84946568D01*
X101364668Y-84942603D01*
X101310963Y-84914526D01*
X101304836Y-84912769D01*
X101304831Y-84912767D01*
X101283156Y-84906552D01*
X101267847Y-84901070D01*
X101247162Y-84892119D01*
X101247154Y-84892116D01*
X101241297Y-84889582D01*
X101235047Y-84888276D01*
X101235046Y-84888276D01*
X101219732Y-84885077D01*
X101181995Y-84877193D01*
X101173052Y-84874981D01*
X101114799Y-84858277D01*
X101088435Y-84856248D01*
X101085953Y-84856057D01*
X101069857Y-84853766D01*
X101046275Y-84848840D01*
X101046274Y-84848840D01*
X101041540Y-84847851D01*
X101034842Y-84847500D01*
X100979584Y-84847500D01*
X100969917Y-84847129D01*
X100917691Y-84843110D01*
X100917687Y-84843110D01*
X100911331Y-84842621D01*
X100888017Y-84845566D01*
X100880578Y-84846506D01*
X100864786Y-84847500D01*
X99742465Y-84847500D01*
X99729295Y-84846810D01*
X99581260Y-84831251D01*
X99581258Y-84831251D01*
X99575131Y-84830607D01*
X99397087Y-84846810D01*
X99395208Y-84846981D01*
X99383788Y-84847500D01*
X77136465Y-84847500D01*
X77123295Y-84846810D01*
X76975260Y-84831251D01*
X76975258Y-84831251D01*
X76969131Y-84830607D01*
X76846252Y-84841790D01*
X76776746Y-84848115D01*
X76776745Y-84848115D01*
X76770605Y-84848674D01*
X76764691Y-84850415D01*
X76764689Y-84850415D01*
X76702257Y-84868790D01*
X76579370Y-84904958D01*
X76402709Y-84997314D01*
X76397909Y-85001174D01*
X76397908Y-85001174D01*
X76388086Y-85009071D01*
X76247351Y-85122225D01*
X76119214Y-85274933D01*
X76023179Y-85449621D01*
X75962902Y-85639635D01*
X75940682Y-85837739D01*
X64516000Y-85837739D01*
X64516000Y-84475428D01*
X139341831Y-84475428D01*
X139354947Y-84675531D01*
X139356748Y-84686901D01*
X139406109Y-84881263D01*
X139409950Y-84892110D01*
X139493907Y-85074227D01*
X139499658Y-85084188D01*
X139512781Y-85102758D01*
X139523371Y-85111147D01*
X139536669Y-85104120D01*
X140127979Y-84512811D01*
X140134356Y-84501132D01*
X140864408Y-84501132D01*
X140864539Y-84502966D01*
X140868790Y-84509580D01*
X141464037Y-85104826D01*
X141476412Y-85111583D01*
X141482992Y-85106657D01*
X141555928Y-84976420D01*
X141560604Y-84965917D01*
X141625066Y-84776019D01*
X141627751Y-84764836D01*
X141656823Y-84564328D01*
X141657453Y-84556945D01*
X141658847Y-84503704D01*
X141658604Y-84496305D01*
X141640066Y-84294553D01*
X141637969Y-84283238D01*
X141583535Y-84090231D01*
X141579413Y-84079492D01*
X141490718Y-83899636D01*
X141487571Y-83894501D01*
X141477737Y-83887120D01*
X141465321Y-83893890D01*
X140872021Y-84487189D01*
X140864408Y-84501132D01*
X140134356Y-84501132D01*
X140135592Y-84498868D01*
X140135461Y-84497034D01*
X140131210Y-84490420D01*
X139534477Y-83893688D01*
X139522102Y-83886931D01*
X139516136Y-83891397D01*
X139431967Y-84051375D01*
X139427562Y-84062009D01*
X139368095Y-84253525D01*
X139365703Y-84264779D01*
X139342132Y-84463927D01*
X139341831Y-84475428D01*
X64516000Y-84475428D01*
X64516000Y-83525113D01*
X139889226Y-83525113D01*
X139892713Y-83533502D01*
X140487189Y-84127979D01*
X140501132Y-84135592D01*
X140502966Y-84135461D01*
X140509580Y-84131210D01*
X141103636Y-83537153D01*
X141110393Y-83524778D01*
X141104363Y-83516722D01*
X141031036Y-83470456D01*
X141020785Y-83465233D01*
X140834527Y-83390924D01*
X140823491Y-83387655D01*
X140626809Y-83348532D01*
X140615364Y-83347329D01*
X140414852Y-83344705D01*
X140403372Y-83345608D01*
X140205740Y-83379567D01*
X140194620Y-83382547D01*
X140006478Y-83451956D01*
X139996100Y-83456906D01*
X139898824Y-83514780D01*
X139889226Y-83525113D01*
X64516000Y-83525113D01*
X64516000Y-81006187D01*
X64516607Y-80993837D01*
X64520815Y-80951109D01*
X64533999Y-80817260D01*
X64538815Y-80793043D01*
X64588518Y-80629190D01*
X64597971Y-80606371D01*
X64678681Y-80455372D01*
X64692399Y-80434842D01*
X64801021Y-80302485D01*
X64818484Y-80285022D01*
X64820826Y-80283100D01*
X64886174Y-80255347D01*
X64900759Y-80254500D01*
X148962524Y-80254500D01*
X148987103Y-80256921D01*
G37*
%TD.AperFunction*%
%TD*%
%TA.AperFunction,Conductor*%
%TO.N,PB1*%
G36*
X57900970Y-97988002D02*
G01*
X57947463Y-98041658D01*
X57957771Y-98110446D01*
X57940715Y-98240000D01*
X57959772Y-98384754D01*
X58015645Y-98519642D01*
X58104526Y-98635474D01*
X58111076Y-98640500D01*
X58111079Y-98640503D01*
X58213804Y-98719327D01*
X58220357Y-98724355D01*
X58355246Y-98780228D01*
X58500000Y-98799285D01*
X58508188Y-98798207D01*
X58636566Y-98781306D01*
X58644754Y-98780228D01*
X58779643Y-98724355D01*
X58786196Y-98719327D01*
X58888921Y-98640503D01*
X58888924Y-98640500D01*
X58895474Y-98635474D01*
X58912702Y-98613022D01*
X58970040Y-98571155D01*
X59040911Y-98566933D01*
X59102814Y-98601697D01*
X59136095Y-98664410D01*
X59137873Y-98675621D01*
X59142410Y-98715895D01*
X59142410Y-98744107D01*
X59126484Y-98885456D01*
X59120205Y-98912965D01*
X59073228Y-99047216D01*
X59060987Y-99072635D01*
X58985306Y-99193082D01*
X58967713Y-99215142D01*
X58867142Y-99315713D01*
X58845082Y-99333306D01*
X58724635Y-99408987D01*
X58699216Y-99421228D01*
X58564963Y-99468206D01*
X58537457Y-99474484D01*
X58389029Y-99491208D01*
X58374921Y-99492000D01*
X51531079Y-99492000D01*
X51516971Y-99491208D01*
X51368543Y-99474484D01*
X51341037Y-99468206D01*
X51206784Y-99421228D01*
X51181365Y-99408987D01*
X51060918Y-99333306D01*
X51038858Y-99315713D01*
X50938287Y-99215142D01*
X50920694Y-99193082D01*
X50845013Y-99072635D01*
X50832772Y-99047216D01*
X50785795Y-98912965D01*
X50779516Y-98885456D01*
X50763590Y-98744107D01*
X50763590Y-98715893D01*
X50779516Y-98574544D01*
X50785795Y-98547035D01*
X50832772Y-98412784D01*
X50845013Y-98387365D01*
X50920694Y-98266918D01*
X50938287Y-98244858D01*
X51038858Y-98144287D01*
X51060918Y-98126694D01*
X51181365Y-98051013D01*
X51206784Y-98038772D01*
X51341037Y-97991794D01*
X51368543Y-97985516D01*
X51516971Y-97968792D01*
X51531079Y-97968000D01*
X57832849Y-97968000D01*
X57900970Y-97988002D01*
G37*
%TD.AperFunction*%
%TD*%
%TA.AperFunction,Conductor*%
%TO.N,GND*%
G36*
X64516000Y-88646000D02*
G01*
X60150187Y-88646000D01*
X60137837Y-88645393D01*
X59961260Y-88628001D01*
X59937043Y-88623185D01*
X59773190Y-88573482D01*
X59750371Y-88564029D01*
X59691583Y-88532607D01*
X59599369Y-88483317D01*
X59578842Y-88469601D01*
X59446485Y-88360979D01*
X59429022Y-88343516D01*
X59427100Y-88341174D01*
X59399347Y-88275826D01*
X59398500Y-88261241D01*
X59398500Y-81037476D01*
X59400921Y-81012894D01*
X59401065Y-81012170D01*
X59403486Y-81000000D01*
X59401065Y-80987830D01*
X59401065Y-80980144D01*
X59401672Y-80967793D01*
X59411609Y-80866908D01*
X59416425Y-80842691D01*
X59451649Y-80726574D01*
X59461093Y-80703774D01*
X59518292Y-80596761D01*
X59532011Y-80576230D01*
X59608981Y-80482444D01*
X59626444Y-80464981D01*
X59720230Y-80388011D01*
X59740761Y-80374292D01*
X59847774Y-80317093D01*
X59870574Y-80307649D01*
X59986691Y-80272425D01*
X60010908Y-80267609D01*
X60111793Y-80257672D01*
X60124144Y-80257065D01*
X60131830Y-80257065D01*
X60144000Y-80259486D01*
X60156897Y-80256921D01*
X60181476Y-80254500D01*
X64516000Y-80254500D01*
X64516000Y-88646000D01*
G37*
%TD.AperFunction*%
%TD*%
%TA.AperFunction,Conductor*%
%TO.N,Vsrc*%
G36*
X63014163Y-89154607D02*
G01*
X63190740Y-89171999D01*
X63214957Y-89176815D01*
X63378809Y-89226518D01*
X63401629Y-89235971D01*
X63552631Y-89316683D01*
X63573158Y-89330399D01*
X63705521Y-89439026D01*
X63722974Y-89456479D01*
X63831601Y-89588842D01*
X63845319Y-89609372D01*
X63926029Y-89760371D01*
X63935482Y-89783190D01*
X63985185Y-89947043D01*
X63990002Y-89971263D01*
X64007393Y-90147837D01*
X64008000Y-90160187D01*
X64008000Y-96021813D01*
X64007393Y-96034163D01*
X63990002Y-96210737D01*
X63985185Y-96234957D01*
X63935482Y-96398809D01*
X63926029Y-96421629D01*
X63845319Y-96572628D01*
X63831601Y-96593158D01*
X63722974Y-96725521D01*
X63705521Y-96742974D01*
X63573158Y-96851601D01*
X63552631Y-96865317D01*
X63460417Y-96914607D01*
X63401629Y-96946029D01*
X63378810Y-96955482D01*
X63214957Y-97005185D01*
X63190740Y-97010001D01*
X63014163Y-97027393D01*
X63001813Y-97028000D01*
X51006187Y-97028000D01*
X50993837Y-97027393D01*
X50817260Y-97010001D01*
X50793043Y-97005185D01*
X50629190Y-96955482D01*
X50606371Y-96946029D01*
X50547583Y-96914607D01*
X50455369Y-96865317D01*
X50434842Y-96851601D01*
X50302485Y-96742979D01*
X50285022Y-96725516D01*
X50283100Y-96723174D01*
X50255347Y-96657826D01*
X50254500Y-96643241D01*
X50254500Y-94271583D01*
X60254335Y-94271583D01*
X60259954Y-94314267D01*
X60264192Y-94330085D01*
X60316717Y-94456892D01*
X60324903Y-94471070D01*
X60408460Y-94579962D01*
X60420040Y-94591542D01*
X60528928Y-94675095D01*
X60543111Y-94683283D01*
X60669916Y-94735808D01*
X60685733Y-94740046D01*
X60728039Y-94745615D01*
X60742221Y-94743404D01*
X60746000Y-94730246D01*
X60746000Y-94729865D01*
X61254000Y-94729865D01*
X61258044Y-94743636D01*
X61271583Y-94745665D01*
X61314267Y-94740046D01*
X61330085Y-94735808D01*
X61456892Y-94683283D01*
X61471070Y-94675097D01*
X61579962Y-94591540D01*
X61591542Y-94579960D01*
X61675095Y-94471072D01*
X61683283Y-94456889D01*
X61735808Y-94330084D01*
X61740046Y-94314267D01*
X61745615Y-94271961D01*
X61743404Y-94257779D01*
X61730246Y-94254000D01*
X61272115Y-94254000D01*
X61256876Y-94258475D01*
X61255671Y-94259865D01*
X61254000Y-94267548D01*
X61254000Y-94729865D01*
X60746000Y-94729865D01*
X60746000Y-94272115D01*
X60741525Y-94256876D01*
X60740135Y-94255671D01*
X60732452Y-94254000D01*
X60270135Y-94254000D01*
X60256364Y-94258044D01*
X60254335Y-94271583D01*
X50254500Y-94271583D01*
X50254500Y-93728039D01*
X60254385Y-93728039D01*
X60256596Y-93742221D01*
X60269754Y-93746000D01*
X60727885Y-93746000D01*
X60743124Y-93741525D01*
X60744329Y-93740135D01*
X60746000Y-93732452D01*
X60746000Y-93727885D01*
X61254000Y-93727885D01*
X61258475Y-93743124D01*
X61259865Y-93744329D01*
X61267548Y-93746000D01*
X61729865Y-93746000D01*
X61743636Y-93741956D01*
X61745665Y-93728417D01*
X61740046Y-93685733D01*
X61735808Y-93669915D01*
X61683283Y-93543108D01*
X61675097Y-93528930D01*
X61591540Y-93420038D01*
X61579960Y-93408458D01*
X61471072Y-93324905D01*
X61456889Y-93316717D01*
X61330084Y-93264192D01*
X61314267Y-93259954D01*
X61271961Y-93254385D01*
X61257779Y-93256596D01*
X61254000Y-93269754D01*
X61254000Y-93727885D01*
X60746000Y-93727885D01*
X60746000Y-93270135D01*
X60741956Y-93256364D01*
X60728417Y-93254335D01*
X60685733Y-93259954D01*
X60669915Y-93264192D01*
X60543108Y-93316717D01*
X60528930Y-93324903D01*
X60420038Y-93408460D01*
X60408458Y-93420040D01*
X60324905Y-93528928D01*
X60316717Y-93543111D01*
X60264192Y-93669916D01*
X60259954Y-93685733D01*
X60254385Y-93728039D01*
X50254500Y-93728039D01*
X50254500Y-91997476D01*
X50256921Y-91972894D01*
X50257065Y-91972170D01*
X50259486Y-91960000D01*
X50257065Y-91947830D01*
X50257065Y-91940144D01*
X50257672Y-91927793D01*
X50267609Y-91826908D01*
X50272425Y-91802691D01*
X50307649Y-91686574D01*
X50317093Y-91663774D01*
X50374292Y-91556761D01*
X50388011Y-91536230D01*
X50464981Y-91442444D01*
X50482444Y-91424981D01*
X50576230Y-91348011D01*
X50596761Y-91334292D01*
X50703774Y-91277093D01*
X50726574Y-91267649D01*
X50842691Y-91232425D01*
X50866908Y-91227609D01*
X50967793Y-91217672D01*
X50980144Y-91217065D01*
X50987830Y-91217065D01*
X51000000Y-91219486D01*
X51012897Y-91216921D01*
X51037476Y-91214500D01*
X58106524Y-91214500D01*
X58131103Y-91216921D01*
X58144000Y-91219486D01*
X58153209Y-91217654D01*
X58340854Y-91202886D01*
X58345661Y-91201732D01*
X58345667Y-91201731D01*
X58466853Y-91172637D01*
X58532860Y-91156790D01*
X58537433Y-91154896D01*
X58710718Y-91083119D01*
X58710722Y-91083117D01*
X58715292Y-91081224D01*
X58883657Y-90978050D01*
X58887412Y-90974843D01*
X58887416Y-90974840D01*
X59030052Y-90853016D01*
X59033808Y-90849808D01*
X59043230Y-90838776D01*
X59158840Y-90703416D01*
X59158843Y-90703412D01*
X59162050Y-90699657D01*
X59265224Y-90531292D01*
X59340790Y-90348860D01*
X59386886Y-90156854D01*
X59401654Y-89969209D01*
X59403486Y-89960000D01*
X59400921Y-89947103D01*
X59398500Y-89922524D01*
X59398500Y-89285134D01*
X59418502Y-89217013D01*
X59472158Y-89170520D01*
X59504790Y-89160685D01*
X59516873Y-89158772D01*
X59537209Y-89155551D01*
X59556918Y-89154000D01*
X63001813Y-89154000D01*
X63014163Y-89154607D01*
G37*
%TD.AperFunction*%
%TD*%
M02*
