%TF.GenerationSoftware,KiCad,Pcbnew,6.0.11+dfsg-1~bpo11+1*%
%TF.CreationDate,2024-04-01T13:46:53-04:00*%
%TF.ProjectId,Module - TPS540x,4d6f6475-6c65-4202-9d20-545053353430,1.0.0*%
%TF.SameCoordinates,Original*%
%TF.FileFunction,Soldermask,Top*%
%TF.FilePolarity,Negative*%
%FSLAX46Y46*%
G04 Gerber Fmt 4.6, Leading zero omitted, Abs format (unit mm)*
G04 Created by KiCad (PCBNEW 6.0.11+dfsg-1~bpo11+1) date 2024-04-01 13:46:53*
%MOMM*%
%LPD*%
G01*
G04 APERTURE LIST*
G04 Aperture macros list*
%AMRoundRect*
0 Rectangle with rounded corners*
0 $1 Rounding radius*
0 $2 $3 $4 $5 $6 $7 $8 $9 X,Y pos of 4 corners*
0 Add a 4 corners polygon primitive as box body*
4,1,4,$2,$3,$4,$5,$6,$7,$8,$9,$2,$3,0*
0 Add four circle primitives for the rounded corners*
1,1,$1+$1,$2,$3*
1,1,$1+$1,$4,$5*
1,1,$1+$1,$6,$7*
1,1,$1+$1,$8,$9*
0 Add four rect primitives between the rounded corners*
20,1,$1+$1,$2,$3,$4,$5,0*
20,1,$1+$1,$4,$5,$6,$7,0*
20,1,$1+$1,$6,$7,$8,$9,0*
20,1,$1+$1,$8,$9,$2,$3,0*%
%AMFreePoly0*
4,1,18,-2.000000,0.800000,-1.984776,0.876537,-1.941421,0.941421,-1.876537,0.984776,-1.800000,1.000000,1.000000,1.000000,2.000000,0.000000,2.000000,-0.800000,1.984776,-0.876537,1.941421,-0.941421,1.876537,-0.984776,1.800000,-1.000000,-1.800000,-1.000000,-1.876537,-0.984776,-1.941421,-0.941421,-1.984776,-0.876537,-2.000000,-0.800000,-2.000000,0.800000,-2.000000,0.800000,$1*%
G04 Aperture macros list end*
%ADD10RoundRect,0.330000X-0.170000X-0.170000X0.170000X-0.170000X0.170000X0.170000X-0.170000X0.170000X0*%
%ADD11RoundRect,0.200000X-0.275000X0.200000X-0.275000X-0.200000X0.275000X-0.200000X0.275000X0.200000X0*%
%ADD12R,0.900000X1.200000*%
%ADD13RoundRect,0.250000X-1.000000X1.750000X-1.000000X-1.750000X1.000000X-1.750000X1.000000X1.750000X0*%
%ADD14RoundRect,0.250000X-0.475000X0.250000X-0.475000X-0.250000X0.475000X-0.250000X0.475000X0.250000X0*%
%ADD15RoundRect,0.200000X-0.200000X-0.275000X0.200000X-0.275000X0.200000X0.275000X-0.200000X0.275000X0*%
%ADD16RoundRect,0.200000X0.275000X-0.200000X0.275000X0.200000X-0.275000X0.200000X-0.275000X-0.200000X0*%
%ADD17C,1.600000*%
%ADD18FreePoly0,90.000000*%
%ADD19C,2.500000*%
%ADD20O,2.000000X3.300000*%
%ADD21C,1.800000*%
%ADD22O,3.500000X2.000000*%
%ADD23RoundRect,0.150000X-0.825000X-0.150000X0.825000X-0.150000X0.825000X0.150000X-0.825000X0.150000X0*%
%ADD24RoundRect,0.330000X0.170000X-0.170000X0.170000X0.170000X-0.170000X0.170000X-0.170000X-0.170000X0*%
%ADD25RoundRect,0.225000X0.225000X0.250000X-0.225000X0.250000X-0.225000X-0.250000X0.225000X-0.250000X0*%
%ADD26R,2.000000X1.500000*%
%ADD27R,2.000000X3.800000*%
%ADD28R,1.730000X1.190000*%
%ADD29R,1.190000X1.730000*%
%ADD30RoundRect,0.225000X-0.250000X0.225000X-0.250000X-0.225000X0.250000X-0.225000X0.250000X0.225000X0*%
%ADD31RoundRect,0.062500X0.062500X-0.350000X0.062500X0.350000X-0.062500X0.350000X-0.062500X-0.350000X0*%
%ADD32RoundRect,0.062500X0.350000X-0.062500X0.350000X0.062500X-0.350000X0.062500X-0.350000X-0.062500X0*%
%ADD33R,2.600000X2.600000*%
%ADD34R,3.320000X2.150000*%
%ADD35RoundRect,0.250000X1.000000X-1.750000X1.000000X1.750000X-1.000000X1.750000X-1.000000X-1.750000X0*%
%ADD36RoundRect,0.225000X-0.225000X-0.250000X0.225000X-0.250000X0.225000X0.250000X-0.225000X0.250000X0*%
%ADD37RoundRect,0.218750X0.218750X0.256250X-0.218750X0.256250X-0.218750X-0.256250X0.218750X-0.256250X0*%
%ADD38RoundRect,0.250000X1.000000X-1.500000X1.000000X1.500000X-1.000000X1.500000X-1.000000X-1.500000X0*%
%ADD39RoundRect,0.150000X0.575000X-0.150000X0.575000X0.150000X-0.575000X0.150000X-0.575000X-0.150000X0*%
%ADD40C,0.750000*%
%ADD41R,1.524000X1.524000*%
%ADD42RoundRect,0.075000X0.075000X0.570000X-0.075000X0.570000X-0.075000X-0.570000X0.075000X-0.570000X0*%
%ADD43R,3.675000X0.300000*%
%ADD44RoundRect,0.075000X0.850000X-0.075000X0.850000X0.075000X-0.850000X0.075000X-0.850000X-0.075000X0*%
%ADD45C,1.524000*%
%ADD46R,4.175000X0.300000*%
%ADD47O,1.600000X1.000000*%
%ADD48C,3.500000*%
%ADD49RoundRect,0.400000X0.400000X-0.800000X0.400000X0.800000X-0.400000X0.800000X-0.400000X-0.800000X0*%
%ADD50RoundRect,0.525000X0.525000X-0.675000X0.525000X0.675000X-0.525000X0.675000X-0.525000X-0.675000X0*%
%ADD51RoundRect,1.000000X-1.000000X2.000000X-1.000000X-2.000000X1.000000X-2.000000X1.000000X2.000000X0*%
%ADD52O,2.100000X1.000000*%
%ADD53RoundRect,0.075000X0.650000X-0.075000X0.650000X0.075000X-0.650000X0.075000X-0.650000X-0.075000X0*%
%ADD54R,2.500000X1.800000*%
G04 APERTURE END LIST*
D10*
%TO.C,TPc1*%
X87000000Y-114000000D03*
%TD*%
D11*
%TO.C,R702*%
X108458000Y-95949000D03*
X108458000Y-97599000D03*
%TD*%
D12*
%TO.C,D502*%
X111124000Y-103124000D03*
X107824000Y-103124000D03*
%TD*%
D13*
%TO.C,C702*%
X96520000Y-85916000D03*
X96520000Y-93916000D03*
%TD*%
D14*
%TO.C,C1*%
X71000000Y-109050000D03*
X71000000Y-110950000D03*
%TD*%
D15*
%TO.C,R1*%
X78931000Y-108966000D03*
X80581000Y-108966000D03*
%TD*%
D16*
%TO.C,R401*%
X68834000Y-93027000D03*
X68834000Y-91377000D03*
%TD*%
D17*
%TO.C,J706*%
X147000000Y-90000000D03*
D18*
X138000000Y-90000000D03*
D19*
X135500000Y-92500000D03*
D20*
X144000000Y-90000000D03*
D19*
X135500000Y-87500000D03*
D21*
X140500000Y-95500000D03*
X140500000Y-84500000D03*
D22*
X145000000Y-94500000D03*
X145000000Y-85500000D03*
%TD*%
D23*
%TO.C,U701*%
X106999000Y-89027000D03*
X106999000Y-90297000D03*
X106999000Y-91567000D03*
X106999000Y-92837000D03*
X111949000Y-92837000D03*
X111949000Y-91567000D03*
X111949000Y-90297000D03*
X111949000Y-89027000D03*
%TD*%
D10*
%TO.C,TP5*%
X71000000Y-106000000D03*
%TD*%
%TO.C,TP301*%
X61000000Y-94000000D03*
%TD*%
D24*
%TO.C,TPc4*%
X93000000Y-114000000D03*
%TD*%
D25*
%TO.C,C2*%
X87897000Y-110490000D03*
X86347000Y-110490000D03*
%TD*%
D26*
%TO.C,Q401*%
X72542000Y-90918000D03*
X72542000Y-93218000D03*
D27*
X78842000Y-93218000D03*
D26*
X72542000Y-95518000D03*
%TD*%
D10*
%TO.C,TPb4*%
X99000000Y-108000000D03*
%TD*%
D28*
%TO.C,F301*%
X62176000Y-90350000D03*
X62176000Y-87450000D03*
%TD*%
D10*
%TO.C,TP502*%
X132842000Y-107950000D03*
%TD*%
D23*
%TO.C,U501*%
X106999000Y-107823000D03*
X106999000Y-109093000D03*
X106999000Y-110363000D03*
X106999000Y-111633000D03*
X111949000Y-111633000D03*
X111949000Y-110363000D03*
X111949000Y-109093000D03*
X111949000Y-107823000D03*
%TD*%
D11*
%TO.C,R3*%
X78486000Y-101791000D03*
X78486000Y-103441000D03*
%TD*%
D24*
%TO.C,TPa2*%
X85000000Y-100000000D03*
%TD*%
%TO.C,TPc5*%
X95000000Y-114000000D03*
%TD*%
D10*
%TO.C,TP701*%
X103886000Y-88646000D03*
%TD*%
D15*
%TO.C,R2*%
X80455000Y-110490000D03*
X82105000Y-110490000D03*
%TD*%
D29*
%TO.C,F701*%
X130122000Y-94568472D03*
X133022000Y-94568472D03*
%TD*%
D16*
%TO.C,R604*%
X70358000Y-85661000D03*
X70358000Y-84011000D03*
%TD*%
D24*
%TO.C,TPa4*%
X89000000Y-100000000D03*
%TD*%
D26*
%TO.C,Q602*%
X72542000Y-83552000D03*
X72542000Y-85852000D03*
D27*
X78842000Y-85852000D03*
D26*
X72542000Y-88152000D03*
%TD*%
D15*
%TO.C,R703*%
X113983000Y-94488000D03*
X115633000Y-94488000D03*
%TD*%
D30*
%TO.C,C504*%
X106934000Y-115049000D03*
X106934000Y-116599000D03*
%TD*%
D24*
%TO.C,TP4*%
X77000000Y-114000000D03*
%TD*%
D10*
%TO.C,TPb1*%
X99000000Y-102000000D03*
%TD*%
D24*
%TO.C,TPc2*%
X89000000Y-114000000D03*
%TD*%
%TO.C,TPa7*%
X95000000Y-100000000D03*
%TD*%
D31*
%TO.C,U1*%
X86126000Y-108947500D03*
X86626000Y-108947500D03*
X87126000Y-108947500D03*
X87626000Y-108947500D03*
X88126000Y-108947500D03*
X88626000Y-108947500D03*
D32*
X89313500Y-108260000D03*
X89313500Y-107760000D03*
X89313500Y-107260000D03*
X89313500Y-106760000D03*
X89313500Y-106260000D03*
X89313500Y-105760000D03*
D31*
X88626000Y-105072500D03*
X88126000Y-105072500D03*
X87626000Y-105072500D03*
X87126000Y-105072500D03*
X86626000Y-105072500D03*
X86126000Y-105072500D03*
D32*
X85438500Y-105760000D03*
X85438500Y-106260000D03*
X85438500Y-106760000D03*
X85438500Y-107260000D03*
X85438500Y-107760000D03*
X85438500Y-108260000D03*
D33*
X87376000Y-107010000D03*
%TD*%
D10*
%TO.C,TPc0*%
X85000000Y-114000000D03*
%TD*%
%TO.C,TP302*%
X65786000Y-91694000D03*
%TD*%
D34*
%TO.C,L701*%
X116586000Y-84212000D03*
X116586000Y-90032000D03*
%TD*%
D30*
%TO.C,C704*%
X106934000Y-95999000D03*
X106934000Y-97549000D03*
%TD*%
D15*
%TO.C,R503*%
X113983000Y-113538000D03*
X115633000Y-113538000D03*
%TD*%
D10*
%TO.C,TPb5*%
X99000000Y-110000000D03*
%TD*%
%TO.C,TP303*%
X61000000Y-106000000D03*
%TD*%
D11*
%TO.C,R502*%
X108458000Y-114999000D03*
X108458000Y-116649000D03*
%TD*%
D35*
%TO.C,C502*%
X85598000Y-93154000D03*
X85598000Y-85154000D03*
%TD*%
D16*
%TO.C,R603*%
X68834000Y-85661000D03*
X68834000Y-84011000D03*
%TD*%
D34*
%TO.C,L501*%
X116586000Y-103262000D03*
X116586000Y-109082000D03*
%TD*%
D16*
%TO.C,R402*%
X70358000Y-93027000D03*
X70358000Y-91377000D03*
%TD*%
D24*
%TO.C,TPa0*%
X82080000Y-114000000D03*
%TD*%
%TO.C,TPa6*%
X93000000Y-100000000D03*
%TD*%
D30*
%TO.C,C703*%
X114046000Y-95999000D03*
X114046000Y-97549000D03*
%TD*%
D24*
%TO.C,TPa1*%
X83000000Y-100000000D03*
%TD*%
D10*
%TO.C,TPa401*%
X67310000Y-95250000D03*
%TD*%
D36*
%TO.C,C701*%
X108699000Y-87376000D03*
X110249000Y-87376000D03*
%TD*%
D15*
%TO.C,R501*%
X143975000Y-100940000D03*
X145625000Y-100940000D03*
%TD*%
D30*
%TO.C,C506*%
X115570000Y-115049000D03*
X115570000Y-116599000D03*
%TD*%
D12*
%TO.C,D702*%
X111124000Y-84328000D03*
X107824000Y-84328000D03*
%TD*%
D37*
%TO.C,D501*%
X148787500Y-100940000D03*
X147212500Y-100940000D03*
%TD*%
D10*
%TO.C,TPb2*%
X99000000Y-104000000D03*
%TD*%
%TO.C,TP8*%
X71000000Y-104000000D03*
%TD*%
%TO.C,TPa602*%
X67310000Y-87884000D03*
%TD*%
D24*
%TO.C,TP1*%
X79540000Y-114000000D03*
%TD*%
D38*
%TO.C,C505*%
X124460000Y-110692000D03*
X124460000Y-104192000D03*
%TD*%
D11*
%TO.C,R4*%
X80010000Y-101791000D03*
X80010000Y-103441000D03*
%TD*%
D37*
%TO.C,D701*%
X148869500Y-99060000D03*
X147294500Y-99060000D03*
%TD*%
D10*
%TO.C,TP702*%
X132842000Y-88646000D03*
%TD*%
D36*
%TO.C,C501*%
X108699000Y-106172000D03*
X110249000Y-106172000D03*
%TD*%
D39*
%TO.C,J505*%
X142853632Y-112050000D03*
X142853632Y-107150000D03*
X142853632Y-112050000D03*
D40*
X144298632Y-112490000D03*
D39*
X142853632Y-107150000D03*
D41*
X138000000Y-113100000D03*
D40*
X144298632Y-106710000D03*
D42*
X141800000Y-109850000D03*
D43*
X140000000Y-110350000D03*
D44*
X142600000Y-110350000D03*
D45*
X138000000Y-110600000D03*
D44*
X142600000Y-109350000D03*
D46*
X140200000Y-108850000D03*
D42*
X143900000Y-109350000D03*
D45*
X138000000Y-108600000D03*
D44*
X143100000Y-108850000D03*
X143100000Y-109850000D03*
D45*
X138000000Y-106100000D03*
D39*
X142853632Y-112850000D03*
X142853632Y-112850000D03*
X142853632Y-106350000D03*
X142853632Y-106350000D03*
D47*
X147948632Y-113920000D03*
D48*
X140710000Y-116170000D03*
D49*
X147948632Y-103753035D03*
D50*
X143780427Y-115446965D03*
D51*
X147668632Y-109600000D03*
D52*
X143768632Y-113920000D03*
D50*
X143780427Y-103753035D03*
D52*
X143768632Y-105280000D03*
D47*
X147948632Y-105280000D03*
D49*
X147948632Y-115446965D03*
D48*
X140710000Y-103030000D03*
D53*
X142853632Y-110850000D03*
X142853632Y-108350000D03*
X142853632Y-107850000D03*
X142853632Y-111350000D03*
%TD*%
D24*
%TO.C,TPa5*%
X91000000Y-100000000D03*
%TD*%
D10*
%TO.C,TPb7*%
X99000000Y-114000000D03*
%TD*%
%TO.C,TPb0*%
X99000000Y-100000000D03*
%TD*%
D38*
%TO.C,C705*%
X124460000Y-91642000D03*
X124460000Y-85142000D03*
%TD*%
D15*
%TO.C,R701*%
X143975000Y-99060000D03*
X145625000Y-99060000D03*
%TD*%
D30*
%TO.C,C706*%
X115570000Y-95999000D03*
X115570000Y-97549000D03*
%TD*%
D54*
%TO.C,D301*%
X66262000Y-84074000D03*
X62262000Y-84074000D03*
%TD*%
D10*
%TO.C,TP501*%
X103886000Y-107950000D03*
%TD*%
%TO.C,TPb3*%
X99000000Y-106000000D03*
%TD*%
D29*
%TO.C,F501*%
X130122000Y-113789801D03*
X133022000Y-113789801D03*
%TD*%
D24*
%TO.C,TPc3*%
X91000000Y-114000000D03*
%TD*%
%TO.C,TPa3*%
X87000000Y-100000000D03*
%TD*%
D30*
%TO.C,C503*%
X114046000Y-115049000D03*
X114046000Y-116599000D03*
%TD*%
D10*
%TO.C,TP6*%
X71000000Y-100000000D03*
%TD*%
%TO.C,TP7*%
X71000000Y-102000000D03*
%TD*%
%TO.C,TPb6*%
X99000000Y-112000000D03*
%TD*%
G36*
X56944163Y-90960607D02*
G01*
X57120737Y-90977998D01*
X57144963Y-90982816D01*
X57308809Y-91032518D01*
X57331629Y-91041971D01*
X57482628Y-91122681D01*
X57503166Y-91136404D01*
X57635515Y-91245020D01*
X57652980Y-91262485D01*
X57761596Y-91394834D01*
X57775319Y-91415372D01*
X57856029Y-91566371D01*
X57865482Y-91589191D01*
X57915184Y-91753037D01*
X57920002Y-91777263D01*
X57937393Y-91953837D01*
X57938000Y-91966187D01*
X57938000Y-107885813D01*
X57937393Y-107898163D01*
X57920002Y-108074737D01*
X57915184Y-108098963D01*
X57865482Y-108262809D01*
X57856029Y-108285629D01*
X57775319Y-108436628D01*
X57761596Y-108457166D01*
X57652980Y-108589515D01*
X57635515Y-108606980D01*
X57503166Y-108715596D01*
X57482628Y-108729319D01*
X57331629Y-108810029D01*
X57308809Y-108819482D01*
X57144963Y-108869184D01*
X57120737Y-108874002D01*
X56944163Y-108891393D01*
X56931813Y-108892000D01*
X50515629Y-108892000D01*
X50450833Y-108874062D01*
X50450311Y-108873749D01*
X50440048Y-108866890D01*
X50430088Y-108859503D01*
X50425214Y-108855700D01*
X50371050Y-108811249D01*
X50366366Y-108807208D01*
X50300884Y-108747858D01*
X50292142Y-108739116D01*
X50234868Y-108675925D01*
X50227022Y-108666365D01*
X50176223Y-108597869D01*
X50169354Y-108587589D01*
X50125508Y-108514437D01*
X50119679Y-108503531D01*
X50083213Y-108426429D01*
X50078482Y-108415006D01*
X50049756Y-108334723D01*
X50046166Y-108322890D01*
X50025442Y-108240153D01*
X50023030Y-108228027D01*
X50010062Y-108140609D01*
X50009305Y-108134471D01*
X50004968Y-108090440D01*
X50004702Y-108087357D01*
X50001432Y-108043019D01*
X50001129Y-108036844D01*
X50000038Y-107992419D01*
X50000000Y-107989326D01*
X50000000Y-92010674D01*
X50000038Y-92007581D01*
X50001129Y-91963156D01*
X50001432Y-91956981D01*
X50004702Y-91912643D01*
X50004968Y-91909560D01*
X50009305Y-91865529D01*
X50010062Y-91859392D01*
X50023029Y-91771976D01*
X50025441Y-91759849D01*
X50046164Y-91677117D01*
X50049753Y-91665284D01*
X50078482Y-91584991D01*
X50083214Y-91573567D01*
X50119679Y-91496468D01*
X50125508Y-91485563D01*
X50169354Y-91412411D01*
X50176223Y-91402131D01*
X50227018Y-91333641D01*
X50234862Y-91324083D01*
X50292140Y-91260885D01*
X50300885Y-91252140D01*
X50364076Y-91194867D01*
X50373635Y-91187022D01*
X50442131Y-91136223D01*
X50452411Y-91129354D01*
X50525563Y-91085508D01*
X50536469Y-91079679D01*
X50613565Y-91043216D01*
X50624988Y-91038485D01*
X50705285Y-91009754D01*
X50717118Y-91006164D01*
X50799849Y-90985441D01*
X50811976Y-90983029D01*
X50899392Y-90970062D01*
X50905529Y-90969305D01*
X50949560Y-90964968D01*
X50952643Y-90964702D01*
X50996981Y-90961432D01*
X51003156Y-90961129D01*
X51047581Y-90960038D01*
X51050674Y-90960000D01*
X56931813Y-90960000D01*
X56944163Y-90960607D01*
G37*
M02*
